<?xml version="1.0" encoding="utf-8"?>
<!-- Generator: Adobe Illustrator 22.1.0, SVG Export Plug-In . SVG Version: 6.00 Build 0)  -->
<svg version="1.1" id="Layer_1" xmlns="http://www.w3.org/2000/svg" xmlns:xlink="http://www.w3.org/1999/xlink" x="0px" y="0px"
	 viewBox="0 0 24 24" style="enable-background:new 0 0 24 24;" xml:space="preserve">
<path d="M3.6,12.8v3.1c0,0.8,0.4,1.6,1.2,1.9l5.5,3c0.7,0.4,1.5,0.4,2.1,0l5.5-3c0.7-0.4,1.2-1.1,1.2-1.9v-3.1l-6.7,3.7
	c-0.7,0.4-1.5,0.4-2.1,0L3.6,12.8z M10.3,2.1L0.9,7.2c-0.8,0.4-0.8,1.5,0,1.9l9.3,5.1c0.7,0.4,1.5,0.4,2.1,0l8.9-4.9v6.5
	c0,0.6,0.5,1.1,1.1,1.1c0.6,0,1.1-0.5,1.1-1.1V8.8c0-0.4-0.2-0.8-0.6-1L12.4,2.1C11.7,1.7,10.9,1.7,10.3,2.1z"/>
</svg>
