<?xml version="1.0" encoding="utf-8"?>
<!-- Generator: Adobe Illustrator 22.1.0, SVG Export Plug-In . SVG Version: 6.00 Build 0)  -->
<svg version="1.1" id="Layer_1" xmlns="http://www.w3.org/2000/svg" xmlns:xlink="http://www.w3.org/1999/xlink" x="0px" y="0px"
	 viewBox="0 0 1132.8 1080" style="enable-background:new 0 0 1132.8 1080;" xml:space="preserve">
<style type="text/css">
	.st0{fill:#ABFFEB;}
</style>
<g>
	<g>
		<path class="st0" d="M598.4,28.8c87.1,30.1,82,178.5,165.8,216.9c86.5,39.5,203.7-67.2,281.4-12.4c68.5,48.3,57.4,160.6,47,243.8
			C1083,553,1019,608.4,989.8,679.1c-24.1,58.5-22.3,124.8-54.6,179.2c-34.4,58-79.4,110.8-137.7,144.8
			c-60,35-130.5,62.2-199.1,51.7c-67.8-10.3-109.7-79.3-171.9-108.3c-63-29.4-146.6-14.5-195.9-63.6c-49-48.8-35-131.8-63.6-194.8
			c-36.2-79.7-124.5-138.4-127.6-226c-3-86,53.2-165.9,111.6-229.1C208,171.4,289.8,143,366.3,108C441.6,73.7,520.1,1.8,598.4,28.8z
			"/>
	</g>
</g>
</svg>
