<?xml version="1.0" encoding="utf-8"?>
<!-- Generator: Adobe Illustrator 22.1.0, SVG Export Plug-In . SVG Version: 6.00 Build 0)  -->
<svg version="1.1" id="Layer_1" xmlns="http://www.w3.org/2000/svg" xmlns:xlink="http://www.w3.org/1999/xlink" x="0px" y="0px"
	 viewBox="0 0 79.1 91.5" style="enable-background:new 0 0 79.1 91.5;" xml:space="preserve">
<style type="text/css">
	.st0{clip-path:url(#SVGID_2_);fill:#A2E0C4;}
	.st1{clip-path:url(#SVGID_2_);fill:#67CE9F;}
	.st2{clip-path:url(#SVGID_2_);fill:#85C6A5;}
	.st3{clip-path:url(#SVGID_2_);fill:#FFFFFF;}
	.st4{clip-path:url(#SVGID_2_);}
	.st5{fill:#FFFFFF;}
</style>
<g>
	<defs>
		<rect id="SVGID_1_" width="79" height="92"/>
	</defs>
	<clipPath id="SVGID_2_">
		<use xlink:href="#SVGID_1_"  style="overflow:visible;"/>
	</clipPath>
	<g class="st4">
		
			<image style="overflow:visible;" width="1440" height="1680" xlink:href="../../../../../Users/macos/Downloads/Google Chrome/bg-img-customer-registration.png"  transform="matrix(5.479144e-02 0 0 5.479144e-02 9.347066e-02 0)">
		</image>
	</g>
	<path class="st0" d="M0.1,0c7,33.3,16.3,59.5,38.1,46.2c2.1-1.3,3.9-3,5.4-4.9c2.4-3.1,8.1-8.2,18-5.4
		c13.9,3.9,17.4,37.4,17.4,37.4L79,92H15.7C16.5,78.3,10.6,72,0.1,70.8V0z"/>
	<path class="st1" d="M4.1,0c2.8,4.4,8.5,6.9,15.8,8.4c0.7,0.1,1.4,0.4,2.1,0.8c12.4,7.5,1.5,28.2-12.8,16.9c-1.3-1-2.3-2.5-2.8-4.1
		C4.3,15.4,2.1,10.8,0,7.9L0.1,0L4.1,0z"/>
	<path class="st0" d="M24.1,0c3.3,10.9,21,16.2,28.1,0H39.5H24.1z"/>
	<path class="st1" d="M79,43.7c-5.9-6.8-11.9-13.4-17.9-15.4c-3.9-1.3-8.1,0.2-10.6,3.5c-9.5,12.5,2.7,31.5,28.6,41.4L79,43.7z"/>
	<ellipse class="st2" cx="67.9" cy="64" rx="8" ry="10.5"/>
	<ellipse class="st2" cx="25.1" cy="48.1" rx="3.7" ry="5.4"/>
	<polygon class="st3" points="4.4,64 5.7,66.3 6.9,64 	"/>
	<polygon class="st3" points="8.8,68.9 8.8,74.4 11.6,71.6 	"/>
	<polygon class="st3" points="16.8,69.9 14,73.2 17.5,74.4 	"/>
	<polygon class="st3" points="21.4,72.9 21.8,75.8 23.2,74.3 	"/>
	<polygon class="st3" points="15.7,79 19.7,78.2 17.7,82.7 	"/>
	<polygon class="st3" points="12.6,78.9 13.5,75.8 11.6,77.1 	"/>
	<g class="st4">
		<g>
			<circle class="st5" cx="1.9" cy="18.2" r="0.3"/>
			<circle class="st5" cx="4.2" cy="18.1" r="0.3"/>
			<circle class="st5" cx="6.6" cy="18.1" r="0.3"/>
			<circle class="st5" cx="8.9" cy="18.1" r="0.3"/>
			<circle class="st5" cx="11.2" cy="18.1" r="0.3"/>
			<circle class="st5" cx="13.5" cy="18.1" r="0.3"/>
		</g>
		<g>
			<circle class="st5" cx="1.9" cy="20.9" r="0.3"/>
			<circle class="st5" cx="4.2" cy="20.8" r="0.3"/>
			<circle class="st5" cx="6.6" cy="20.8" r="0.3"/>
			<circle class="st5" cx="8.9" cy="20.8" r="0.3"/>
			<circle class="st5" cx="11.2" cy="20.8" r="0.3"/>
			<circle class="st5" cx="13.5" cy="20.8" r="0.3"/>
		</g>
		<g>
			<circle class="st5" cx="1.9" cy="23.6" r="0.3"/>
			<circle class="st5" cx="4.2" cy="23.5" r="0.3"/>
			<circle class="st5" cx="6.6" cy="23.5" r="0.3"/>
			<circle class="st5" cx="8.9" cy="23.5" r="0.3"/>
			<circle class="st5" cx="11.2" cy="23.5" r="0.3"/>
			<circle class="st5" cx="13.5" cy="23.5" r="0.3"/>
		</g>
		<g>
			<circle class="st5" cx="1.9" cy="26.3" r="0.3"/>
			<circle class="st5" cx="4.2" cy="26.2" r="0.3"/>
			<circle class="st5" cx="6.6" cy="26.2" r="0.3"/>
			<circle class="st5" cx="8.9" cy="26.2" r="0.3"/>
			<circle class="st5" cx="11.2" cy="26.2" r="0.3"/>
			<circle class="st5" cx="13.5" cy="26.2" r="0.3"/>
		</g>
		<g>
			<circle class="st5" cx="1.9" cy="29.2" r="0.3"/>
			<circle class="st5" cx="4.2" cy="29.1" r="0.3"/>
			<circle class="st5" cx="6.6" cy="29.1" r="0.3"/>
			<circle class="st5" cx="8.9" cy="29.1" r="0.3"/>
			<circle class="st5" cx="11.2" cy="29.1" r="0.3"/>
			<circle class="st5" cx="13.5" cy="29.1" r="0.3"/>
		</g>
		<g>
			<circle class="st5" cx="1.9" cy="31.9" r="0.3"/>
			<circle class="st5" cx="4.2" cy="31.8" r="0.3"/>
			<circle class="st5" cx="6.6" cy="31.8" r="0.3"/>
			<circle class="st5" cx="8.9" cy="31.8" r="0.3"/>
			<circle class="st5" cx="11.2" cy="31.8" r="0.3"/>
			<circle class="st5" cx="13.5" cy="31.8" r="0.3"/>
		</g>
		<g>
			<circle class="st5" cx="1.9" cy="34.7" r="0.3"/>
			<circle class="st5" cx="4.2" cy="34.5" r="0.3"/>
			<circle class="st5" cx="6.6" cy="34.5" r="0.3"/>
			<circle class="st5" cx="8.9" cy="34.5" r="0.3"/>
			<circle class="st5" cx="11.2" cy="34.5" r="0.3"/>
			<circle class="st5" cx="13.5" cy="34.5" r="0.3"/>
		</g>
		<g>
			<circle class="st5" cx="1.9" cy="37.4" r="0.3"/>
			<circle class="st5" cx="4.2" cy="37.2" r="0.3"/>
			<circle class="st5" cx="6.6" cy="37.2" r="0.3"/>
			<circle class="st5" cx="8.9" cy="37.2" r="0.3"/>
			<circle class="st5" cx="11.2" cy="37.2" r="0.3"/>
			<circle class="st5" cx="13.5" cy="37.2" r="0.3"/>
		</g>
		<g>
			<circle class="st5" cx="1.9" cy="40.4" r="0.3"/>
			<circle class="st5" cx="4.2" cy="40.2" r="0.3"/>
			<circle class="st5" cx="6.6" cy="40.2" r="0.3"/>
			<circle class="st5" cx="8.9" cy="40.2" r="0.3"/>
			<circle class="st5" cx="11.2" cy="40.2" r="0.3"/>
			<circle class="st5" cx="13.5" cy="40.2" r="0.3"/>
		</g>
		<g>
			<circle class="st5" cx="1.9" cy="43" r="0.3"/>
			<circle class="st5" cx="4.2" cy="42.9" r="0.3"/>
			<circle class="st5" cx="6.6" cy="42.9" r="0.3"/>
			<circle class="st5" cx="8.9" cy="42.9" r="0.3"/>
			<circle class="st5" cx="11.2" cy="42.9" r="0.3"/>
			<circle class="st5" cx="13.5" cy="42.9" r="0.3"/>
		</g>
		<g>
			<circle class="st5" cx="1.9" cy="45.8" r="0.3"/>
			<circle class="st5" cx="4.2" cy="45.7" r="0.3"/>
			<circle class="st5" cx="6.6" cy="45.7" r="0.3"/>
			<circle class="st5" cx="8.9" cy="45.7" r="0.3"/>
			<circle class="st5" cx="11.2" cy="45.7" r="0.3"/>
			<circle class="st5" cx="13.5" cy="45.7" r="0.3"/>
		</g>
		<g>
			<circle class="st5" cx="1.9" cy="48.5" r="0.3"/>
			<circle class="st5" cx="4.2" cy="48.4" r="0.3"/>
			<circle class="st5" cx="6.6" cy="48.4" r="0.3"/>
			<circle class="st5" cx="8.9" cy="48.4" r="0.3"/>
			<circle class="st5" cx="11.2" cy="48.4" r="0.3"/>
			<circle class="st5" cx="13.5" cy="48.4" r="0.3"/>
		</g>
		<g>
			<circle class="st5" cx="63.2" cy="30.3" r="0.4"/>
			<circle class="st5" cx="63.4" cy="32.9" r="0.4"/>
			<circle class="st5" cx="63.4" cy="35.4" r="0.4"/>
			<circle class="st5" cx="63.4" cy="37.9" r="0.4"/>
			<circle class="st5" cx="63.4" cy="40.4" r="0.4"/>
			<circle class="st5" cx="63.4" cy="42.9" r="0.4"/>
		</g>
		<g>
			<circle class="st5" cx="60.3" cy="30.3" r="0.4"/>
			<circle class="st5" cx="60.4" cy="32.9" r="0.4"/>
			<circle class="st5" cx="60.4" cy="35.4" r="0.4"/>
			<circle class="st5" cx="60.4" cy="38" r="0.4"/>
			<circle class="st5" cx="60.5" cy="40.4" r="0.4"/>
			<circle class="st5" cx="60.5" cy="42.9" r="0.4"/>
		</g>
		<g>
			<circle class="st5" cx="57.4" cy="30.3" r="0.4"/>
			<circle class="st5" cx="57.5" cy="32.9" r="0.4"/>
			<circle class="st5" cx="57.5" cy="35.4" r="0.4"/>
			<circle class="st5" cx="57.5" cy="38" r="0.4"/>
			<circle class="st5" cx="57.5" cy="40.5" r="0.4"/>
			<circle class="st5" cx="57.5" cy="42.9" r="0.4"/>
		</g>
		<g>
			<circle class="st5" cx="54.2" cy="30.3" r="0.4"/>
			<circle class="st5" cx="54.4" cy="32.9" r="0.4"/>
			<circle class="st5" cx="54.4" cy="35.4" r="0.4"/>
			<circle class="st5" cx="54.4" cy="38" r="0.4"/>
			<circle class="st5" cx="54.4" cy="40.5" r="0.4"/>
			<circle class="st5" cx="54.4" cy="42.9" r="0.4"/>
		</g>
		<g>
			<circle class="st5" cx="51.3" cy="30.3" r="0.4"/>
			<circle class="st5" cx="51.4" cy="32.9" r="0.4"/>
			<circle class="st5" cx="51.4" cy="35.4" r="0.4"/>
			<circle class="st5" cx="51.5" cy="38" r="0.4"/>
			<circle class="st5" cx="51.5" cy="40.5" r="0.4"/>
			<circle class="st5" cx="51.5" cy="42.9" r="0.4"/>
		</g>
		<g>
			<circle class="st5" cx="48.3" cy="30.3" r="0.4"/>
			<circle class="st5" cx="48.4" cy="32.9" r="0.4"/>
			<circle class="st5" cx="48.4" cy="35.4" r="0.4"/>
			<circle class="st5" cx="48.4" cy="38" r="0.4"/>
			<circle class="st5" cx="48.4" cy="40.5" r="0.4"/>
			<circle class="st5" cx="48.4" cy="43" r="0.4"/>
		</g>
		<g>
			<circle class="st5" cx="45.3" cy="30.3" r="0.4"/>
			<circle class="st5" cx="45.5" cy="32.9" r="0.4"/>
			<circle class="st5" cx="45.5" cy="35.4" r="0.4"/>
			<circle class="st5" cx="45.5" cy="38" r="0.4"/>
			<circle class="st5" cx="45.5" cy="40.5" r="0.4"/>
			<circle class="st5" cx="45.5" cy="43" r="0.4"/>
		</g>
		<g>
			<circle class="st5" cx="42.1" cy="30.3" r="0.4"/>
			<circle class="st5" cx="42.2" cy="32.9" r="0.4"/>
			<circle class="st5" cx="42.2" cy="35.4" r="0.4"/>
			<circle class="st5" cx="42.2" cy="38" r="0.4"/>
			<circle class="st5" cx="42.2" cy="40.5" r="0.4"/>
			<circle class="st5" cx="42.3" cy="43" r="0.4"/>
		</g>
		<g>
			<circle class="st5" cx="39.2" cy="30.4" r="0.4"/>
			<circle class="st5" cx="39.3" cy="32.9" r="0.4"/>
			<circle class="st5" cx="39.3" cy="35.4" r="0.4"/>
			<circle class="st5" cx="39.3" cy="38" r="0.4"/>
			<circle class="st5" cx="39.3" cy="40.5" r="0.4"/>
			<circle class="st5" cx="39.3" cy="43" r="0.4"/>
		</g>
		<g>
			<circle class="st5" cx="36.1" cy="30.4" r="0.4"/>
			<circle class="st5" cx="36.3" cy="32.9" r="0.4"/>
			<circle class="st5" cx="36.3" cy="35.5" r="0.4"/>
			<circle class="st5" cx="36.3" cy="38" r="0.4"/>
			<circle class="st5" cx="36.3" cy="40.5" r="0.4"/>
			<circle class="st5" cx="36.3" cy="43" r="0.4"/>
		</g>
		<g>
			<circle class="st5" cx="33.2" cy="30.4" r="0.4"/>
			<circle class="st5" cx="33.4" cy="32.9" r="0.4"/>
			<circle class="st5" cx="33.4" cy="35.5" r="0.4"/>
			<circle class="st5" cx="33.4" cy="38" r="0.4"/>
			<circle class="st5" cx="33.4" cy="40.5" r="0.4"/>
			<circle class="st5" cx="33.4" cy="43" r="0.4"/>
		</g>
	</g>
	<path class="st0" d="M74.8-5c-2.7,0-5,2.2-5,5s2,6.5,6.1,7.5c2.7,0.6,5.8-2.5,5.8-4.6C81.7,0.1,77.5-5,74.8-5z M75.9,6.8
		c-3.7-0.8-5.5-4.2-5.5-6.7s2-4.4,4.4-4.4s6.2,4.5,6.2,7C81.1,4.6,78.3,7.3,75.9,6.8z"/>
	<path class="st0" d="M74.4-7.9c-3.8,0-6.2,3.3-6.2,7.2s1.6,9.1,7.2,10.4c3.7,0.9,8.5-3.3,8.5-6.4C84-0.7,78.2-7.9,74.4-7.9z
		 M75.3,8.9c-5-1.2-6.5-5.8-6.5-9.3c0-3.5,2.2-6.4,5.6-6.4S83-0.4,83,3.1C83,5.9,78.6,9.7,75.3,8.9z"/>
	<path class="st0" d="M74.5-10.2c-4.7,0-7.8,4.1-7.8,9.1s2,11.4,9.1,13.1c4.6,1.1,10.7-4.2,10.7-8.1C86.5-1.1,79.2-10.2,74.5-10.2z
		 M75.7,10.9c-6.3-1.5-8.1-7.3-8.1-11.7c0-4.4,2.7-8.1,7-8.1c4.2,0,10.8,8.2,10.8,12.6C85.3,7.2,79.8,11.9,75.7,10.9z"/>
	<path class="st0" d="M74.3-12.8c-5.8,0-9.5,5-9.5,11S67.3,12,75.9,14c5.6,1.3,13-5.1,13-9.8C88.8-1.8,80-12.8,74.3-12.8z M75.5,13
		c-7.7-1.8-9.9-8.8-9.9-14.2c0-5.3,3.3-9.8,8.5-9.8c5.1,0,13,9.9,13,15.2C87.1,8.5,80.5,14.2,75.5,13z"/>
	<path class="st0" d="M74.2-15.3c-6.8,0-11.2,5.9-11.2,13c0,7.1,2.9,16.3,13.1,18.8c6.6,1.6,15.4-6,15.4-11.6
		C91.4-2.2,81-15.3,74.2-15.3z M75.7,15.3C66.5,13.1,64,4.8,64-1.5s3.9-11.6,10-11.6c6.1,0,15.4,11.7,15.4,18
		C89.4,9.9,81.6,16.7,75.7,15.3z"/>
	<path class="st0" d="M73.8-17.4c-7.7,0-12.6,6.7-12.6,14.7c0,8,3.3,18.4,14.7,21.2c7.5,1.8,17.4-6.8,17.4-13.1
		C93.2-2.6,81.5-17.4,73.8-17.4z M75.4,17.2c-10.3-2.5-13.2-11.8-13.2-19c0-7.1,4.4-13.1,11.3-13.1C80.4-14.9,91-1.7,91,5.4
		C91,11.1,82.1,18.8,75.4,17.2z"/>
</g>
</svg>
