<?xml version="1.0" encoding="utf-8"?>
<!-- Generator: Adobe Illustrator 22.1.0, SVG Export Plug-In . SVG Version: 6.00 Build 0)  -->
<svg version="1.1" id="Layer_1" xmlns="http://www.w3.org/2000/svg" xmlns:xlink="http://www.w3.org/1999/xlink" x="0px" y="0px"
	 viewBox="0 0 612 612" style="enable-background:new 0 0 612 612;" xml:space="preserve">
<style type="text/css">
	.st0{fill:#A3A2A2;}
	.st1{fill:#FFFFFF;}
</style>
<path class="st0" d="M589.9,185.4H51v-80.6c0-20.6,16.7-37.4,37.4-37.4h464.2c20.6,0,37.4,16.7,37.4,37.4V185.4z"/>
<path class="st0" d="M558.5,602.9H82.3c-17.3,0-31.3-14-31.3-31.3V213.3h538.9v358.3C589.9,588.9,575.8,602.9,558.5,602.9z"/>
<path class="st0" d="M263.5,82.1H148v-60c0-9,7.3-16.3,16.3-16.3h83c9,0,16.3,7.3,16.3,16.3V82.1z"/>
<path class="st0" d="M492.4,82.1H389v-60c0-9,7.3-16.3,16.3-16.3h70.9c9,0,16.3,7.3,16.3,16.3V82.1z"/>
<path class="st1" d="M289.9,478l-10.5,7.5c-11,7.9-26.4,5.3-34.3-5.7l-54.7-76.5c-7.9-11-5.3-26.4,5.7-34.3l10.5-7.5
	c11-7.9,26.4-5.3,34.3,5.7l54.7,76.5C303.4,454.7,300.9,470.1,289.9,478z"/>
<path class="st1" d="M456.4,312.7l7.5,10.5c7.9,11,5.3,26.4-5.7,34.3l-178.9,128c-11,7.9-26.4,5.3-34.3-5.7l-7.5-10.5
	c-7.9-11-5.3-26.4,5.7-34.3l178.9-128C433.1,299.2,448.5,301.7,456.4,312.7z"/>
</svg>
