<?xml version="1.0" encoding="utf-8"?>
<!-- Generator: Adobe Illustrator 22.1.0, SVG Export Plug-In . SVG Version: 6.00 Build 0)  -->
<svg version="1.1" id="Layer_1" xmlns="http://www.w3.org/2000/svg" xmlns:xlink="http://www.w3.org/1999/xlink" x="0px" y="0px"
	 viewBox="0 0 24 24" style="enable-background:new 0 0 24 24;" xml:space="preserve">
<style type="text/css">
	.st0{fill:#9D9FA1;}
</style>
<g>
	<path class="st0" d="M17.8,3.5c-2.1,0-4.3,0.4-5.8,1.6c-1.5-1.2-3.8-1.6-5.8-1.6C4.6,3.5,3,3.7,1.6,4.3c-0.8,0.3-1.3,1.1-1.3,2v12
		c0,1.4,1.3,2.4,2.6,2.1c1-0.3,2.1-0.4,3.2-0.4c1.7,0,3.4,0.3,4.8,1c0.6,0.3,1.4,0.3,2,0c1.4-0.7,3.2-1,4.8-1c1.1,0,2.2,0.1,3.2,0.4
		c1.3,0.3,2.6-0.7,2.6-2.1v-12c0-0.9-0.5-1.6-1.3-2C21,3.7,19.4,3.5,17.8,3.5z M21.5,17c0,0.7-0.6,1.2-1.3,1
		c-0.8-0.1-1.6-0.2-2.4-0.2c-1.8,0-4.4,0.7-5.8,1.6V7.2c1.4-0.9,4-1.6,5.8-1.6c1,0,1.9,0.1,2.9,0.3c0.5,0.1,0.8,0.5,0.8,1V17z"/>
	<path class="st0" d="M14.1,10.4c-0.3,0-0.6-0.2-0.8-0.6c-0.1-0.4,0.1-0.9,0.5-1c1.6-0.5,3.7-0.7,5.7-0.5c0.4,0.1,0.8,0.4,0.7,0.9
		c-0.1,0.4-0.4,0.8-0.9,0.7c-1.7-0.2-3.6,0-5,0.4C14.3,10.4,14.2,10.4,14.1,10.4z"/>
	<path class="st0" d="M14.1,13.2c-0.3,0-0.6-0.2-0.8-0.6c-0.1-0.4,0.1-0.9,0.5-1c1.6-0.5,3.7-0.7,5.7-0.5c0.4,0.1,0.8,0.4,0.7,0.9
		c-0.1,0.4-0.4,0.8-0.9,0.7c-1.7-0.2-3.6,0-5,0.4C14.3,13.2,14.2,13.2,14.1,13.2z"/>
	<path class="st0" d="M14.1,16c-0.3,0-0.6-0.2-0.8-0.6c-0.1-0.4,0.1-0.9,0.5-1c1.6-0.5,3.7-0.7,5.7-0.5c0.4,0.1,0.8,0.4,0.7,0.9
		c-0.1,0.4-0.4,0.7-0.9,0.7c-1.7-0.2-3.6,0-5,0.4C14.3,16,14.2,16,14.1,16z"/>
</g>
</svg>
