<?xml version="1.0" encoding="utf-8"?>
<!-- Generator: Adobe Illustrator 22.1.0, SVG Export Plug-In . SVG Version: 6.00 Build 0)  -->
<svg version="1.1" id="Layer_1" xmlns="http://www.w3.org/2000/svg" xmlns:xlink="http://www.w3.org/1999/xlink" x="0px" y="0px"
	 viewBox="0 0 24 24" style="enable-background:new 0 0 24 24;" xml:space="preserve">
<style type="text/css">
	.st0{fill:none;}
	.st1{fill:#EB4D4B;}
</style>
<path class="st0" d="M0,0h24v24H0V0z"/>
<path class="st1" d="M12,0.3C5.5,0.3,0.3,5.5,0.3,12S5.5,23.7,12,23.7S23.7,18.5,23.7,12S18.5,0.3,12,0.3z M17,17
	c-0.5,0.5-1.2,0.5-1.7,0L12,13.6L8.6,17c-0.5,0.5-1.2,0.5-1.7,0c-0.5-0.5-0.5-1.2,0-1.7l3.4-3.4L7,8.6C6.5,8.1,6.5,7.4,7,6.9
	c0.5-0.5,1.2-0.5,1.7,0l3.4,3.4l3.4-3.4c0.5-0.5,1.2-0.5,1.7,0c0.5,0.5,0.5,1.2,0,1.7L13.7,12l3.4,3.4C17.5,15.8,17.5,16.6,17,17z"
	/>
</svg>
