<?xml version="1.0" encoding="utf-8"?>
<!-- Generator: Adobe Illustrator 22.1.0, SVG Export Plug-In . SVG Version: 6.00 Build 0)  -->
<svg version="1.1" id="Layer_1" xmlns="http://www.w3.org/2000/svg" xmlns:xlink="http://www.w3.org/1999/xlink" x="0px" y="0px"
	 viewBox="0 0 24 24" style="enable-background:new 0 0 24 24;" xml:space="preserve">
<style type="text/css">
	.st0{fill:#B2B2B2;}
</style>
<path class="st0" d="M17.4,13.3c0.9,0,1.6-0.5,2-1.2l4.2-7.6c0.4-0.8-0.1-1.7-1-1.7H5.4L4.3,0.5H1.6C1,0.5,0.5,1,0.5,1.6v0
	c0,0.6,0.5,1.2,1.2,1.2h1.2L7,11.6l-1.6,2.8c-0.9,1.6,0.3,3.5,2,3.5h12.8c0.6,0,1.2-0.5,1.2-1.2v0c0-0.6-0.5-1.2-1.2-1.2H7.5
	l1.3-2.3H17.4z M7.5,19.1c-1.3,0-2.3,1-2.3,2.3c0,1.3,1,2.3,2.3,2.3s2.3-1,2.3-2.3C9.8,20.2,8.7,19.1,7.5,19.1z M19.1,19.1
	c-1.3,0-2.3,1-2.3,2.3c0,1.3,1,2.3,2.3,2.3s2.3-1,2.3-2.3C21.4,20.2,20.4,19.1,19.1,19.1z"/>
</svg>
