<?xml version="1.0" encoding="utf-8"?>
<!-- Generator: Adobe Illustrator 22.1.0, SVG Export Plug-In . SVG Version: 6.00 Build 0)  -->
<svg version="1.1" id="Layer_1" xmlns="http://www.w3.org/2000/svg" xmlns:xlink="http://www.w3.org/1999/xlink" x="0px" y="0px"
	 viewBox="0 0 418.3 418.3" style="enable-background:new 0 0 418.3 418.3;" xml:space="preserve">
<style type="text/css">
	.st0{fill:#1AB08D;}
	.st1{fill:#FFFFFF;}
</style>
<circle class="st0" cx="209.2" cy="213.3" r="187.8"/>
<g>
	<path class="st1" d="M209.2,312L209.2,312c-8.5,0-15.3-6.9-15.3-15.3V129.9c0-8.5,6.9-15.3,15.3-15.3h0c8.5,0,15.3,6.9,15.3,15.3
		v166.7C224.5,305.1,217.6,312,209.2,312z"/>
	<path class="st1" d="M307.8,213.3L307.8,213.3c0,8.5-6.9,15.3-15.3,15.3H125.8c-8.5,0-15.3-6.9-15.3-15.3v0
		c0-8.5,6.9-15.3,15.3-15.3h166.7C301,197.9,307.8,204.8,307.8,213.3z"/>
</g>
</svg>
