<?xml version="1.0" encoding="utf-8"?>
<!-- Generator: Adobe Illustrator 22.1.0, SVG Export Plug-In . SVG Version: 6.00 Build 0)  -->
<svg version="1.1" id="Layer_1" xmlns="http://www.w3.org/2000/svg" xmlns:xlink="http://www.w3.org/1999/xlink" x="0px" y="0px"
	 viewBox="0 0 418.3 418.3" style="enable-background:new 0 0 418.3 418.3;" xml:space="preserve">
<style type="text/css">
	.st0{fill:#1D1D1B;}
</style>
<g>
	<path class="st0" d="M209.2,411.2L209.2,411.2c-17.4,0-31.5-14.1-31.5-31.5V37.8c0-17.4,14.1-31.5,31.5-31.5h0
		c17.4,0,31.5,14.1,31.5,31.5v341.9C240.6,397.1,226.5,411.2,209.2,411.2z"/>
	<path class="st0" d="M411.5,208.8L411.5,208.8c0,17.4-14.1,31.5-31.5,31.5H38.2c-17.4,0-31.5-14.1-31.5-31.5v0
		c0-17.4,14.1-31.5,31.5-31.5h341.9C397.5,177.3,411.5,191.4,411.5,208.8z"/>
</g>
</svg>
