<?xml version="1.0" encoding="utf-8"?>
<!-- Generator: Adobe Illustrator 22.1.0, SVG Export Plug-In . SVG Version: 6.00 Build 0)  -->
<svg version="1.1" id="Layer_1" xmlns="http://www.w3.org/2000/svg" xmlns:xlink="http://www.w3.org/1999/xlink" x="0px" y="0px"
	 viewBox="0 0 24 24" style="enable-background:new 0 0 24 24;" xml:space="preserve">
<style type="text/css">
	.st0{fill:none;}
</style>
<path class="st0" d="M0,0h24v24H0V0z"/>
<g>
	<path d="M4.7,15.4c0-0.5,0.5-1,1.2-1h10.5V9c0-0.5-0.2-1-0.6-1.4l-4.7-4.8c-0.4-0.4-0.9-0.6-1.4-0.6H2.6c-1.1,0-2,0.9-2,2V20
		c0,1.1,0.9,2,2,2h11.8c1.1,0,2-0.9,2-2v-3.5H5.9C5.2,16.4,4.7,16,4.7,15.4z M9.5,8.1V4.9c0-0.5,0.5-0.7,0.9-0.4l3.7,3.7
		c0.3,0.3,0.1,0.9-0.4,0.9h-3.2C10,9.1,9.5,8.7,9.5,8.1z"/>
	<path d="M23.3,15.2L21.4,14l-1.9-1.1c-0.2-0.1-0.5,0-0.5,0.3l0,1.3h-1.6c-0.5,0-1,0.4-1,1v0c0,0.5,0.4,1,1,1h1.6l0,1.3
		c0,0.3,0.3,0.4,0.5,0.3l1.9-1.1l1.9-1.1C23.6,15.6,23.6,15.3,23.3,15.2z"/>
</g>
</svg>
