<?xml version="1.0" encoding="utf-8"?>
<!-- Generator: Adobe Illustrator 22.1.0, SVG Export Plug-In . SVG Version: 6.00 Build 0)  -->
<svg version="1.1" id="Layer_1" xmlns="http://www.w3.org/2000/svg" xmlns:xlink="http://www.w3.org/1999/xlink" x="0px" y="0px"
	 viewBox="0 0 24 24" style="enable-background:new 0 0 24 24;" xml:space="preserve">
<style type="text/css">
	.st0{fill:none;}
	.st1{fill:#939393;}
</style>
<path class="st0" d="M0,0h24v24H0V0z"/>
<g>
	<path class="st1" d="M2,11.2v8.7C2,20.5,2.5,21,3.1,21h17.7c0.6,0,1.1-0.5,1.1-1.1v-8.7H2z"/>
	<path class="st1" d="M22,10.1V7.1C22,6.5,21.5,6,20.9,6H16V4c0-1.1-0.9-2-2-2h-4C8.9,2,8,2.9,8,4v2H3.1C2.5,6,2,6.5,2,7.1v2.9H22z
		 M10,4h4v2h-4V4z"/>
</g>
</svg>
