<svg width="23" height="24" viewBox="0 0 23 24" fill="none" xmlns="http://www.w3.org/2000/svg">
<path fill-rule="evenodd" clip-rule="evenodd" d="M4.30635 3.68433C3.51048 3.68433 2.86475 4.34091 2.86475 5.14917V6.01131C2.86475 6.61002 3.09242 7.18578 3.49968 7.61885L7.96287 12.3646L7.96483 12.3616C8.82645 13.2437 9.31124 14.4362 9.31124 15.6795V19.8904C9.31124 20.1718 9.60565 20.3514 9.85 20.2187L12.3917 18.8337C12.7754 18.6241 13.0149 18.217 13.0149 17.775V15.6685C13.0149 14.4322 13.4928 13.2447 14.3466 12.3646L18.8097 7.61885C19.216 7.18578 19.4437 6.61002 19.4437 6.01131V5.14917C19.4437 4.34091 18.7989 3.68433 18.0031 3.68433H4.30635Z" stroke="#54A9FF" stroke-width="2" stroke-linecap="round" stroke-linejoin="round"/>
</svg>
