<?xml version="1.0" encoding="utf-8"?>
<!-- Generator: Adobe Illustrator 22.1.0, SVG Export Plug-In . SVG Version: 6.00 Build 0)  -->
<svg version="1.1" id="Layer_1" xmlns="http://www.w3.org/2000/svg" xmlns:xlink="http://www.w3.org/1999/xlink" x="0px" y="0px"
	 viewBox="0 0 24 24" style="enable-background:new 0 0 24 24;" xml:space="preserve">
<style type="text/css">
	.st0{fill:#939393;}
</style>
<g>
	<path class="st0" d="M21.4,6.5H12H0.3l0,12.9c0,1.3,1.1,2.3,2.3,2.3h18.7c1.3,0,2.3-1.1,2.3-2.3V8.8C23.7,7.5,22.7,6.5,21.4,6.5z
		 M2.2,15v-0.2c0-0.3,0.2-0.6,0.6-0.6h6.4c0.3,0,0.6,0.2,0.6,0.6V15c0,0.3-0.2,0.6-0.6,0.6H2.7C2.4,15.6,2.2,15.4,2.2,15z
		 M15.2,18.1c0,0.3-0.2,0.6-0.6,0.6H3c-0.3,0-0.6-0.2-0.6-0.6v-0.2c0-0.3,0.2-0.6,0.6-0.6h11.6c0.3,0,0.6,0.2,0.6,0.6V18.1z"/>
	<path class="st0" d="M11.5,2.7c-0.4-0.6-1-0.9-1.7-0.9H3c-0.9,0-1.7,0.6-2,1.5L0.3,5.8h13.3L11.5,2.7z"/>
</g>
</svg>
