<?xml version="1.0" encoding="utf-8"?>
<!-- Generator: Adobe Illustrator 22.1.0, SVG Export Plug-In . SVG Version: 6.00 Build 0)  -->
<svg version="1.1" id="Layer_1" xmlns="http://www.w3.org/2000/svg" xmlns:xlink="http://www.w3.org/1999/xlink" x="0px" y="0px"
	 viewBox="0 0 24 24" style="enable-background:new 0 0 24 24;" xml:space="preserve">
<style type="text/css">
	.st0{fill:none;}
	.st1{fill:#7C7C7C;}
</style>
<path class="st0" d="M0,0h24v24H0V0z M0,0h24v24H0V0z M0,0h24v24H0V0z M0,0h24v24H0V0z"/>
<path class="st1" d="M12,6.1c2.9,0,5.3,2.4,5.3,5.3c0,0.5-0.1,1.1-0.3,1.6l3.3,3.3c1.5-1.3,2.6-2.9,3.4-4.8c-1.8-4.7-6.4-8-11.7-8
	c-1.3,0-2.6,0.2-3.9,0.6l2.3,2.3C10.9,6.2,11.5,6.1,12,6.1z M2.1,2.6C1.7,3,1.7,3.7,2.1,4.1l2.1,2.1c-1.7,1.4-3.1,3.2-3.9,5.3
	c1.8,4.7,6.4,8,11.7,8c1.6,0,3.2-0.3,4.6-0.9l2.9,2.9c0.4,0.4,1.1,0.4,1.5,0c0.4-0.4,0.4-1.1,0-1.5L3.6,2.6C3.2,2.2,2.5,2.2,2.1,2.6
	z M12,16.7c-2.9,0-5.3-2.4-5.3-5.3c0-0.8,0.2-1.6,0.5-2.3l1.7,1.7c0,0.2-0.1,0.4-0.1,0.6c0,1.8,1.4,3.2,3.2,3.2c0.2,0,0.4,0,0.6-0.1
	l1.7,1.7C13.6,16.6,12.8,16.7,12,16.7z M15.2,11.1c-0.2-1.5-1.3-2.6-2.8-2.8L15.2,11.1z"/>
</svg>
