<?xml version="1.0" encoding="utf-8"?>
<!-- Generator: Adobe Illustrator 22.1.0, SVG Export Plug-In . SVG Version: 6.00 Build 0)  -->
<svg version="1.1" id="Layer_1" xmlns="http://www.w3.org/2000/svg" xmlns:xlink="http://www.w3.org/1999/xlink" x="0px" y="0px"
	 viewBox="0 0 24 24" style="enable-background:new 0 0 24 24;" xml:space="preserve">
<g>
	<path d="M14.3,18.2c0,0.3-0.3,0.5-0.6,0.3l-2.2-1.3L9.2,16c-0.3-0.2-0.3-0.5,0-0.7l2.2-1.3l2.2-1.3c0.3-0.2,0.6,0,0.6,0.3l0,1.5
		h5.5c0.7,0,1.2-0.6,1.2-1.2V8.5c0-0.6-0.2-1.2-0.7-1.6l-5.5-5.5c-0.4-0.4-1-0.7-1.6-0.7H5.2c-1.2,0-2.3,1-2.3,2.3v18.2
		c0,1.2,1,2.3,2.3,2.3h13.6c1.2,0,2.3-1,2.3-2.3V18c0-0.7-0.6-1.2-1.2-1.2h-5.5L14.3,18.2z M13.1,3.8c0-0.5,0.6-0.8,1-0.4l4.3,4.3
		c0.4,0.4,0.1,1-0.4,1h-3.7c-0.6,0-1.1-0.5-1.1-1.1V3.8z"/>
</g>
</svg>
