<?xml version="1.0" encoding="utf-8"?>
<!-- Generator: Adobe Illustrator 22.1.0, SVG Export Plug-In . SVG Version: 6.00 Build 0)  -->
<svg version="1.1" id="Layer_1" xmlns="http://www.w3.org/2000/svg" xmlns:xlink="http://www.w3.org/1999/xlink" x="0px" y="0px"
	 viewBox="0 0 24 24" style="enable-background:new 0 0 24 24;" xml:space="preserve">
<style type="text/css">
	.st0{fill:#9D9FA1;}
</style>
<path class="st0" d="M12,11.3C9.9,9.4,7.3,8,4.3,7.5C2.9,7.2,1.6,8.3,1.6,9.8V17c0,1.9,0.8,3,2,3.1c2.9,0.4,5.5,1.6,7.6,3.3
	c0.4,0.3,1.1,0.4,1.5,0c2.2-1.8,4.8-3,7.7-3.3c1.1-0.1,2-1.2,2-2.3v-8c0-1.4-1.3-2.5-2.7-2.3C16.7,8,14.1,9.4,12,11.3z M12,7.2
	c1.9,0,3.5-1.5,3.5-3.5S13.9,0.3,12,0.3S8.5,1.9,8.5,3.8S10.1,7.2,12,7.2z"/>
</svg>
