<?xml version="1.0" encoding="utf-8"?>
<!-- Generator: Adobe Illustrator 22.1.0, SVG Export Plug-In . SVG Version: 6.00 Build 0)  -->
<svg version="1.1" id="Layer_1" xmlns="http://www.w3.org/2000/svg" xmlns:xlink="http://www.w3.org/1999/xlink" x="0px" y="0px"
	 viewBox="0 0 24 24" style="enable-background:new 0 0 24 24;" xml:space="preserve">
<style type="text/css">
	.st0{fill:#999999;}
</style>
<path class="st0" d="M11.7,10.1C10.7,7.5,8,5.7,5,6.3c-2.2,0.4-4,2.2-4.5,4.4c-0.8,3.8,2.1,7.1,5.7,7.1c2.5,0,4.7-1.6,5.5-3.9h4.2
	v1.9c0,1.1,0.9,1.9,1.9,1.9h0c1.1,0,1.9-0.9,1.9-1.9v-1.9h1.9c1.1,0,1.9-0.9,1.9-1.9v0c0-1.1-0.9-1.9-1.9-1.9H11.7z M6.2,13.9
	c-1.1,0-1.9-0.9-1.9-1.9s0.9-1.9,1.9-1.9s1.9,0.9,1.9,1.9S7.3,13.9,6.2,13.9z"/>
</svg>
