<?xml version="1.0" encoding="utf-8"?>
<!-- Generator: Adobe Illustrator 22.1.0, SVG Export Plug-In . SVG Version: 6.00 Build 0)  -->
<svg version="1.1" id="Layer_1" xmlns="http://www.w3.org/2000/svg" xmlns:xlink="http://www.w3.org/1999/xlink" x="0px" y="0px"
	 viewBox="0 0 1920 1920" style="enable-background:new 0 0 1920 1920;" xml:space="preserve">
<style type="text/css">
	.st0{fill:#ADADAD;}
</style>
<path class="st0" d="M1514,651.1h-89.3V472.6c0-246.4-200-446.4-446.4-446.4s-446.4,200-446.4,446.4v178.6h-89.3
	c-98.2,0-178.6,80.4-178.6,178.6v892.9c0,98.2,80.4,178.6,178.6,178.6H1514c98.2,0,178.6-80.4,178.6-178.6V829.7
	C1692.6,731.5,1612.2,651.1,1514,651.1z M978.3,1454.7c-98.2,0-178.6-80.4-178.6-178.6s80.4-178.6,178.6-178.6
	s178.6,80.4,178.6,178.6S1076.5,1454.7,978.3,1454.7z M710.4,651.1V472.6c0-148.2,119.6-267.9,267.9-267.9s267.9,119.6,267.9,267.9
	v178.6H710.4z"/>
</svg>
