<?xml version="1.0" encoding="utf-8"?>
<!-- Generator: Adobe Illustrator 22.1.0, SVG Export Plug-In . SVG Version: 6.00 Build 0)  -->
<svg version="1.1" id="Layer_1" xmlns="http://www.w3.org/2000/svg" xmlns:xlink="http://www.w3.org/1999/xlink" x="0px" y="0px"
	 viewBox="0 0 24 24" style="enable-background:new 0 0 24 24;" xml:space="preserve">
<path d="M1.6,20.6h20.9c0.7,0,1.3-0.7,1.3-1.6v0c0-0.9-0.6-1.6-1.3-1.6H1.6c-0.7,0-1.3,0.7-1.3,1.6v0C0.2,19.8,0.8,20.6,1.6,20.6z
	 M1.6,13.6h20.9c0.7,0,1.3-0.7,1.3-1.6v0c0-0.9-0.6-1.6-1.3-1.6H1.6c-0.7,0-1.3,0.7-1.3,1.6v0C0.2,12.9,0.8,13.6,1.6,13.6z M0.2,5.1
	L0.2,5.1c0,0.9,0.6,1.6,1.3,1.6h20.9c0.7,0,1.3-0.7,1.3-1.6v0c0-0.9-0.6-1.6-1.3-1.6H1.6C0.8,3.4,0.2,4.2,0.2,5.1z"/>
</svg>
