<?xml version="1.0" encoding="utf-8"?>
<!-- Generator: Adobe Illustrator 22.1.0, SVG Export Plug-In . SVG Version: 6.00 Build 0)  -->
<svg version="1.1" id="Layer_1" xmlns="http://www.w3.org/2000/svg" xmlns:xlink="http://www.w3.org/1999/xlink" x="0px" y="0px"
	 viewBox="0 0 24 24" style="enable-background:new 0 0 24 24;" xml:space="preserve">
<g>
	<g>
		<path d="M14.3,8.6h8.2c0.6,0,1.2-0.5,1.2-1.2s-0.5-1.2-1.2-1.2h-8.2c-0.6,0-1.2,0.5-1.2,1.2S13.7,8.6,14.3,8.6z"/>
		<path d="M22.5,15.7h-8.2c-0.6,0-1.2,0.5-1.2,1.2s0.5,1.2,1.2,1.2h8.2c0.6,0,1.2-0.5,1.2-1.2S23.2,15.7,22.5,15.7z"/>
		<path d="M22.5,11h-4.7c-0.6,0-1.2,0.5-1.2,1.2c0,0.6,0.5,1.2,1.2,1.2h4.7c0.6,0,1.2-0.5,1.2-1.2C23.7,11.5,23.2,11,22.5,11z"/>
		<path d="M8.3,7.3c-0.4-0.4-1-0.1-1,0.4V11H1.5c-0.6,0-1.2,0.5-1.2,1.2c0,0.6,0.5,1.2,1.2,1.2h5.9v3.3c0,0.5,0.6,0.8,1,0.4l4.4-4.4
			c0.2-0.2,0.2-0.6,0-0.8L8.3,7.3z"/>
	</g>
</g>
</svg>
