<?xml version="1.0" encoding="utf-8"?>
<!-- Generator: Adobe Illustrator 22.1.0, SVG Export Plug-In . SVG Version: 6.00 Build 0)  -->
<svg version="1.1" id="Layer_1" xmlns="http://www.w3.org/2000/svg" xmlns:xlink="http://www.w3.org/1999/xlink" x="0px" y="0px"
	 viewBox="0 0 24 24" style="enable-background:new 0 0 24 24;" xml:space="preserve">
<style type="text/css">
	.st0{fill:#FFFFFF;}
	.st1{fill:#3c81f6;}
</style>
<circle class="st0" cx="12" cy="11.9" r="11.6"/>
<g>
	<circle class="st1" cx="11.9" cy="11.3" r="2"/>
	<path class="st1" d="M11.9,14.3c-1.3,0-4,0.7-4,2v0.5c0,0.3,0.2,0.5,0.5,0.5h7c0.3,0,0.5-0.2,0.5-0.5v-0.5
		C15.9,14.9,13.2,14.3,11.9,14.3z M15.1,10.6c0.2,0.4,0.2,0.8,0,1.2c-0.1,0.2-0.1,0.5,0.1,0.7l0,0c0.3,0.3,0.8,0.2,1-0.1
		c0.4-0.7,0.4-1.6,0-2.3c-0.2-0.4-0.7-0.4-1-0.1l0,0C15.1,10.1,15,10.4,15.1,10.6z M17,8.2c-0.2,0.2-0.2,0.5-0.1,0.7
		c1,1.4,1,3.2,0,4.6c-0.2,0.2-0.1,0.5,0.1,0.7l0,0c0.2,0.2,0.7,0.2,0.9-0.1c1.4-1.8,1.4-4.2,0-6C17.6,8,17.2,8,17,8.2z M8.8,10
		L8.8,10c-0.3-0.3-0.8-0.2-1,0.1c-0.4,0.8-0.4,1.6,0,2.3c0.2,0.4,0.7,0.4,1,0.1l0,0c0.2-0.2,0.2-0.4,0.1-0.7c-0.2-0.4-0.2-0.8,0-1.2
		C9,10.4,8.9,10.1,8.8,10z M6.1,8.2c-1.4,1.8-1.4,4.3,0,6c0.2,0.3,0.6,0.3,0.9,0.1l0,0c0.2-0.2,0.2-0.5,0.1-0.7c-1-1.4-1-3.3,0-4.6
		C7.2,8.7,7.2,8.4,7,8.2C6.8,8,6.4,8,6.1,8.2z"/>
</g>
</svg>
