<?xml version="1.0" encoding="utf-8"?>
<!-- Generator: Adobe Illustrator 22.1.0, SVG Export Plug-In . SVG Version: 6.00 Build 0)  -->
<svg version="1.1" id="Layer_1" xmlns="http://www.w3.org/2000/svg" xmlns:xlink="http://www.w3.org/1999/xlink" x="0px" y="0px"
	 viewBox="0 0 24 24" style="enable-background:new 0 0 24 24;" xml:space="preserve">
<style type="text/css">
	.st0{fill:#9D9FA1;}
</style>
<g>
	<g>
		<g>
			<path class="st0" d="M21.6,7.2v14.4c0,1.3-1.1,2.4-2.4,2.4H4.8c-1.3,0-2.4-1.1-2.4-2.4V7.2C2.4,5,3.9,3.1,6,2.6V1.8
				C6,0.8,6.8,0,7.8,0l0,0c1,0,1.8,0.8,1.8,1.8v0.6h4.8V1.8c0-1,0.8-1.8,1.8-1.8l0,0c1,0,1.8,0.8,1.8,1.8v0.8
				C20.1,3.1,21.6,5,21.6,7.2z M4.8,13.2L4.8,13.2c0,0.7,0.5,1.2,1.2,1.2h10.8v1.2c0,0.7,0.5,1.2,1.2,1.2l0,0c0.7,0,1.2-0.5,1.2-1.2
				v-2.4c0-0.7-0.5-1.2-1.2-1.2H6C5.3,12,4.8,12.5,4.8,13.2z"/>
		</g>
	</g>
</g>
</svg>
