<?xml version="1.0" encoding="utf-8"?>
<!-- Generator: Adobe Illustrator 22.1.0, SVG Export Plug-In . SVG Version: 6.00 Build 0)  -->
<svg version="1.1" id="Layer_1" xmlns="http://www.w3.org/2000/svg" xmlns:xlink="http://www.w3.org/1999/xlink" x="0px" y="0px"
	 viewBox="0 0 24 24" style="enable-background:new 0 0 24 24;" xml:space="preserve">
<style type="text/css">
	.st0{fill:#757575;}
</style>
<path class="st0" d="M18.3,4.8l-3.2-1.7c-0.3-0.2-0.7,0-0.8,0.3l-7.4,14c-0.2,0.3,0,0.7,0.3,0.8l3.2,1.7c0.3,0.2,0.7,0,0.8-0.3
	l7.4-14C18.7,5.3,18.6,4.9,18.3,4.8z"/>
<path class="st0" d="M10,20.5l-3.1-1.6c-0.4-0.2-0.9,0.1-0.9,0.6l0.1,3.5c0,0.5,0.6,0.8,1,0.5l3-1.9C10.4,21.3,10.4,20.7,10,20.5z"
	/>
<path class="st0" d="M19.8,2.4l-3.6-1.9c-0.2-0.1-0.5,0-0.6,0.2l-0.5,1c-0.1,0.2,0,0.5,0.2,0.6l3.6,1.9c0.2,0.1,0.5,0,0.6-0.2l0.5-1
	C20.1,2.7,20,2.5,19.8,2.4z"/>
</svg>
