<?xml version="1.0" encoding="utf-8"?>
<!-- Generator: Adobe Illustrator 22.1.0, SVG Export Plug-In . SVG Version: 6.00 Build 0)  -->
<svg version="1.1" id="Layer_1" xmlns="http://www.w3.org/2000/svg" xmlns:xlink="http://www.w3.org/1999/xlink" x="0px" y="0px"
	 viewBox="0 0 24 24" style="enable-background:new 0 0 24 24;" xml:space="preserve">
<style type="text/css">
	.st0{fill:none;}
	.st1{fill:#383838;}
</style>
<path class="st0" d="M0,0h24v24H0V0z"/>
<path class="st1" d="M18.7,17.6H5.3v-2.2h13.4V17.6z M18.7,13.1H5.3v-2.2h13.4V13.1z M18.7,8.7H5.3V6.4h13.4V8.7z M2,23.2l1.7-1.7
	l1.7,1.7L7,21.5l1.7,1.7l1.7-1.7l1.7,1.7l1.7-1.7l1.7,1.7l1.7-1.7l1.7,1.7l1.7-1.7l1.7,1.7V0.9l-1.7,1.7l-1.7-1.7L17,2.5l-1.7-1.7
	l-1.7,1.7L12,0.9l-1.7,1.7L8.7,0.9L7,2.5L5.3,0.9L3.6,2.5L2,0.9V23.2z"/>
</svg>
