<?xml version="1.0" encoding="utf-8"?>
<!-- Generator: Adobe Illustrator 22.1.0, SVG Export Plug-In . SVG Version: 6.00 Build 0)  -->
<svg version="1.1" id="Layer_1" xmlns="http://www.w3.org/2000/svg" xmlns:xlink="http://www.w3.org/1999/xlink" x="0px" y="0px"
	 viewBox="0 0 24 24" style="enable-background:new 0 0 24 24;" xml:space="preserve">
<style type="text/css">
	.st0{fill:none;}
	.st1{fill:#757575;}
</style>
<path class="st0" d="M0,0h24v24H0V0z"/>
<path class="st1" d="M19.3,1.1c-0.5-0.5-1.2-0.8-1.8-0.8H2.9C1.5,0.4,0.3,1.6,0.3,3v18.2c0,1.4,1.2,2.6,2.6,2.6h18.2
	c1.4,0,2.6-1.2,2.6-2.6V6.6c0-0.7-0.3-1.3-0.8-1.8L19.3,1.1z M12,21.1c-2.2,0-3.9-1.7-3.9-3.9s1.7-3.9,3.9-3.9s3.9,1.7,3.9,3.9
	S14.2,21.1,12,21.1z M13.3,8.2H5.5C4.1,8.2,2.9,7,2.9,5.6S4.1,3,5.5,3h7.8c1.4,0,2.6,1.2,2.6,2.6S14.7,8.2,13.3,8.2z"/>
</svg>
