<?xml version="1.0" encoding="utf-8"?>
<!-- Generator: Adobe Illustrator 22.1.0, SVG Export Plug-In . SVG Version: 6.00 Build 0)  -->
<svg version="1.1" id="Layer_1" xmlns="http://www.w3.org/2000/svg" xmlns:xlink="http://www.w3.org/1999/xlink" x="0px" y="0px"
	 viewBox="0 0 24 24" style="enable-background:new 0 0 24 24;" xml:space="preserve">
<style type="text/css">
	.st0{fill:none;}
	.st1{fill:#9D9FA1;}
</style>
<path class="st0" d="M0,0h24v24H0V0z"/>
<path class="st1" d="M20.2,2.6h-1.2V1.4c0-0.6-0.5-1.2-1.2-1.2s-1.2,0.5-1.2,1.2v1.2H7.3V1.4c0-0.6-0.5-1.2-1.2-1.2S4.9,0.7,4.9,1.4
	v1.2H3.8c-1.3,0-2.3,1.1-2.3,2.4l0,16.5c0,1.3,1,2.4,2.4,2.4h16.5c1.3,0,2.4-1.1,2.4-2.4V4.9C22.6,3.6,21.5,2.6,20.2,2.6z
	 M20.2,20.2c0,0.6-0.5,1.2-1.2,1.2H4.9c-0.6,0-1.2-0.5-1.2-1.2V8.5h16.5V20.2z M6.1,10.8h2.4v2.4H6.1V10.8z M10.8,10.8h2.4v2.4h-2.4
	V10.8z M15.5,10.8h2.4v2.4h-2.4V10.8z"/>
</svg>
