<?xml version="1.0" encoding="utf-8"?>
<!-- Generator: Adobe Illustrator 22.1.0, SVG Export Plug-In . SVG Version: 6.00 Build 0)  -->
<svg version="1.1" id="Layer_1" xmlns="http://www.w3.org/2000/svg" xmlns:xlink="http://www.w3.org/1999/xlink" x="0px" y="0px"
	 viewBox="0 0 24 24" style="enable-background:new 0 0 24 24;" xml:space="preserve">
<style type="text/css">
	.st0{fill:none;}
	.st1{fill:#C4C4C4;}
</style>
<path class="st0" d="M0,0h24v24H0V0z"/>
<path class="st1" d="M12,19l6.4,3.9c0.5,0.3,1.1-0.1,0.9-0.7l-1.7-7.3l5.7-4.9c0.4-0.4,0.2-1-0.4-1.1l-7.5-0.6l-2.9-6.9
	c-0.2-0.5-0.9-0.5-1.1,0L8.5,8.3L1,8.9C0.5,9,0.2,9.6,0.7,10l5.7,4.9l-1.7,7.3c-0.1,0.5,0.5,1,0.9,0.7L12,19z"/>
</svg>
