<?xml version="1.0" encoding="utf-8"?>
<!-- Generator: Adobe Illustrator 21.0.2, SVG Export Plug-In . SVG Version: 6.00 Build 0)  -->
<svg version="1.1" id="Layer_1" xmlns="http://www.w3.org/2000/svg" xmlns:xlink="http://www.w3.org/1999/xlink" x="0px" y="0px"
	 viewBox="0 0 24 24" style="enable-background:new 0 0 24 24;" xml:space="preserve">
<style type="text/css">
	.st0{fill:#FFFFFF;}
	.st1{fill:#12b981;}
</style>
<circle class="st0" cx="12.3" cy="12" r="11.5"/>
<g>
	<g>
		<path class="st1" d="M16.1,12.2c0.1,0,0.1,0,0.2,0c-0.1-0.1-0.2-0.3-0.4-0.4c-0.4-0.3-0.9-0.4-1.4-0.6c-0.2-0.1-0.4-0.2-0.6-0.3
			c-0.6,0.7-1.5,1.1-2.5,1.1S9.6,11.7,9,11c-0.2,0.1-0.4,0.2-0.6,0.3c-0.5,0.2-1,0.3-1.4,0.6c-0.7,0.5-0.9,1.7-1,2.5
			c-0.1,0.7-0.2,1.3-0.2,2c0,0.5,0.2,0.6,0.7,0.8c0.5,0.2,1.1,0.3,1.7,0.5c1.1,0.2,2.2,0.4,3.4,0.4c0.5,0,1.1,0,1.6-0.1
			c-0.4-0.6-0.6-1.3-0.6-2.1C12.4,13.9,14.1,12.2,16.1,12.2z"/>
		<path class="st1" d="M16.1,13c-1.6,0-2.9,1.3-2.9,2.9s1.3,2.9,2.9,2.9s2.9-1.3,2.9-2.9C18.9,14.3,17.7,13,16.1,13z M17.3,16.3
			h-0.8v0.8c0,0.3-0.2,0.5-0.5,0.5c-0.3,0-0.5-0.2-0.5-0.5v-0.8h-0.8c-0.3,0-0.5-0.2-0.5-0.5s0.2-0.5,0.5-0.5h0.8v-0.8
			c0-0.3,0.2-0.5,0.5-0.5c0.3,0,0.5,0.2,0.5,0.5v0.8h0.8c0.3,0,0.5,0.2,0.5,0.5C17.8,16.1,17.6,16.3,17.3,16.3z"/>
		<circle class="st1" cx="11.4" cy="8.2" r="3"/>
	</g>
</g>
</svg>
