<?xml version="1.0" encoding="utf-8"?>
<!-- Generator: Adobe Illustrator 21.0.2, SVG Export Plug-In . SVG Version: 6.00 Build 0)  -->
<svg version="1.1" id="Layer_1" xmlns="http://www.w3.org/2000/svg" xmlns:xlink="http://www.w3.org/1999/xlink" x="0px" y="0px"
	 viewBox="0 0 24 24" style="enable-background:new 0 0 24 24;" xml:space="preserve">
<style type="text/css">
	.st0{fill:#FFFFFF;}
	.st1{fill:#f04444;}
</style>
<circle class="st0" cx="12" cy="12" r="11.5"/>
<g>
	<circle class="st1" cx="10.5" cy="9" r="2.8"/>
	<path class="st1" d="M12.9,12.9H8.1c-1.5,0-2.7,1.2-2.7,2.7v2c0,0.2,0.2,0.4,0.4,0.4h9.3c0.2,0,0.4-0.2,0.4-0.4v-2
		C15.5,14.1,14.3,12.9,12.9,12.9z"/>
	<path class="st1" d="M18.8,10.9l-2-1.8C16.7,9,16.6,9,16.5,9c-0.3,0-0.4,0.2-0.4,0.4v1.3h-2.2c-0.3,0-0.6,0.3-0.6,0.6
		s0.3,0.6,0.6,0.6h2.2V13c0,0.2,0.2,0.4,0.4,0.4c0.1,0,0.2,0,0.3-0.1l2-1.8c0.1-0.1,0.1-0.2,0.1-0.3C18.9,11.1,18.9,11,18.8,10.9z"
		/>
</g>
</svg>
