<?xml version="1.0" encoding="utf-8"?>
<!-- Generator: Adobe Illustrator 22.1.0, SVG Export Plug-In . SVG Version: 6.00 Build 0)  -->
<svg version="1.1" id="Layer_1" xmlns="http://www.w3.org/2000/svg" xmlns:xlink="http://www.w3.org/1999/xlink" x="0px" y="0px"
	 viewBox="0 0 322.5 322.5" style="enable-background:new 0 0 322.5 322.5;" xml:space="preserve">
<style type="text/css">
	.st0{fill:#757575;}
</style>
<g>
	<path class="st0" d="M223.4,315.3H100c-12.3,0-22.9-8.9-25-21L45.6,128c-2.7-15.6,9.2-29.8,25-29.8h182.1c15.8,0,27.8,14.3,25,29.8
		l-29.3,166.3C246.3,306.5,235.7,315.3,223.4,315.3z"/>
	<path class="st0" d="M273.4,72.7H49.9c-5.3,0-9.6-4.3-9.6-9.6V43.9c0-5.3,4.3-9.6,9.6-9.6h223.5c5.3,0,9.6,4.3,9.6,9.6v19.2
		C283,68.4,278.7,72.7,273.4,72.7z"/>
	<path class="st0" d="M191.1,47.1h-58.8c-4.9,0-8.9-4-8.9-8.9V17.7c0-4.9,4-8.9,8.9-8.9h58.8c4.9,0,8.9,4,8.9,8.9v20.5
		C200,43.1,196,47.1,191.1,47.1z"/>
</g>
</svg>
