<?xml version="1.0" encoding="utf-8"?>
<!-- Generator: Adobe Illustrator 22.1.0, SVG Export Plug-In . SVG Version: 6.00 Build 0)  -->
<svg version="1.1" id="Layer_1" xmlns="http://www.w3.org/2000/svg" xmlns:xlink="http://www.w3.org/1999/xlink" x="0px" y="0px"
	 viewBox="0 0 24 24" style="enable-background:new 0 0 24 24;" xml:space="preserve">
<style type="text/css">
	.st0{fill:#FFFFFF;}
	.st1{fill:#1DBC95;}
</style>
<circle class="st0" cx="12" cy="12" r="11.5"/>
<g>
	<g>
		<g>
			<path class="st1" d="M18.7,7.5h-7.3C10.2,7.5,9,8,8.2,8.8C7.9,8.1,7.3,7.5,6.4,7.5c-1,0-1.9,0.8-1.9,1.9s0.8,1.9,1.9,1.9
				c0.2,0,0.3,0,0.5-0.1c0,0.2-0.1,0.4-0.1,0.6c-0.1,2.7,2.2,5,5,4.7c1.9-0.2,3.5-1.7,3.9-3.5c0.1-0.5,0.1-1,0-1.5
				c-0.1-0.4,0.3-0.8,0.7-0.8h2c0.6,0,1-0.3,1-0.8V8.3C19.4,7.9,19.1,7.5,18.7,7.5z M6.4,9.8c-0.2,0-0.4-0.2-0.4-0.4S6.2,9,6.4,9
				s0.4,0.2,0.4,0.4S6.6,9.8,6.4,9.8z M11.3,14.2C10,14.2,9,13.2,9,12s1-2.2,2.2-2.2s2.2,1,2.2,2.2S12.5,14.2,11.3,14.2z"/>
		</g>
		<g>
			<circle class="st1" cx="11.3" cy="12" r="1.5"/>
		</g>
	</g>
</g>
</svg>
