<?xml version="1.0" encoding="utf-8"?>
<!-- Generator: Adobe Illustrator 22.1.0, SVG Export Plug-In . SVG Version: 6.00 Build 0)  -->
<svg version="1.1" id="Layer_1" xmlns="http://www.w3.org/2000/svg" xmlns:xlink="http://www.w3.org/1999/xlink" x="0px" y="0px"
	 viewBox="0 0 24 24" style="enable-background:new 0 0 24 24;" xml:space="preserve">
<style type="text/css">
	.st0{fill:#A3A3A3;}
</style>
<g>
	<path class="st0" d="M18.1,21.4L18.1,21.4c0,1-0.7,1.9-1.5,1.9H7.5c-0.8,0-1.5-0.8-1.5-1.9l0,0c0-1,0.7-1.9,1.5-1.9h9.1
		C17.4,19.5,18.1,20.4,18.1,21.4z M10.5,6.3v10.6c0,0.8,0.7,1.5,1.5,1.5l0,0c0.8,0,1.5-0.7,1.5-1.5V6.3h2.7c0.7,0,1-0.8,0.5-1.3
		l-4.2-4.2c-0.3-0.3-0.8-0.3-1.1,0L7.2,5C6.8,5.4,7.1,6.3,7.8,6.3H10.5z"/>
</g>
</svg>
