<?xml version="1.0" encoding="utf-8"?>
<!-- Generator: Adobe Illustrator 22.1.0, SVG Export Plug-In . SVG Version: 6.00 Build 0)  -->
<svg version="1.1" id="Bold" xmlns="http://www.w3.org/2000/svg" xmlns:xlink="http://www.w3.org/1999/xlink" x="0px" y="0px"
	 viewBox="0 0 512 512" style="enable-background:new 0 0 512 512;" xml:space="preserve">
<style type="text/css">
	.st0{fill:#757575;}
</style>
<path class="st0" d="M365.1,301.2l-0.2,1.5c-43.1-21.5-47.6-24.3-53.1-16c-3.9,5.8-15.1,18.9-18.5,22.8c-3.4,3.8-6.8,4.1-12.7,1.5
	c-5.9-2.9-24.7-9.1-47.1-29.1c-17.4-15.6-29.1-34.7-32.5-40.5c-5.7-9.9,6.3-11.3,17.2-32c2-4.1,1-7.3-0.5-10.3
	c-1.5-2.9-13.2-31.7-18.1-43.2c-4.7-11.4-9.5-10-13.2-10c-11.3-1-19.5-0.8-26.8,6.7c-31.6,34.7-23.6,70.6,3.4,108.7
	c53.2,69.6,81.5,82.4,133.3,100.2c14,4.4,26.7,3.8,36.8,2.4c11.2-1.8,34.6-14.1,39.5-27.9c5-13.8,5-25.3,3.5-27.9
	C374.8,305.3,371,303.8,365.1,301.2L365.1,301.2z"/>
<path class="st0" d="M424.1,88.5C273.5-57,24.3,48.5,24.2,253.9c0,41.1,10.8,81.1,31.2,116.4L22.2,491l124.1-32.4
	c154.8,83.6,345.9-27.4,346-204.6c0-62.2-24.3-120.7-68.5-164.7L424.1,88.5z M453.1,253.4c-0.1,149.5-164.2,242.9-294,166.6
	l-7.1-4.2l-73.4,19.1l19.7-71.4l-4.7-7.3c-80.8-128.6,12-296.6,165-296.6c52,0,100.8,20.3,137.5,57
	C432.9,152.9,453.1,201.7,453.1,253.4L453.1,253.4z"/>
</svg>
