<svg width="137" height="136" viewBox="0 0 137 136" fill="none" xmlns="http://www.w3.org/2000/svg">
<mask id="mask0_1885_121912" style="mask-type:alpha" maskUnits="userSpaceOnUse" x="0" y="0" width="137" height="136">
<circle cx="68.3361" cy="67.8811" r="67.8811" fill="#C4C4C4"/>
</mask>
<g mask="url(#mask0_1885_121912)">
<g filter="url(#filter0_d_1885_121912)">
<circle cx="69.0311" cy="64.1784" r="71.5837" fill="#81DA7B"/>
</g>
<path d="M96.317 64.6599C96.3096 63.4878 95.8965 62.3545 95.1478 61.4527C94.3991 60.5509 93.3611 59.9362 92.2104 59.7134V56.4156C91.9833 50.0201 89.2831 43.9624 84.6783 39.5182C80.0736 35.0741 73.9238 32.5905 67.5243 32.5905C61.1247 32.5905 54.975 35.0741 50.3702 39.5182C45.7655 43.9624 43.0652 50.0201 42.8381 56.4156V59.7134C41.6874 59.9362 40.6495 60.5509 39.9008 61.4527C39.1521 62.3545 38.7389 63.4878 38.7316 64.6599C38.7486 65.9232 39.2309 67.1358 40.0862 68.0657C40.9414 68.9956 42.1096 69.5774 43.367 69.6998C44.5337 75.2469 47.5727 80.2239 51.9741 83.7959C56.3754 87.3678 61.8714 89.3173 67.5398 89.3173C73.2083 89.3173 78.7042 87.3678 83.1056 83.7959C87.507 80.2239 90.546 75.2469 91.7126 69.6998C92.9671 69.5769 94.1317 68.9939 94.9818 68.0633C95.832 67.1327 96.3076 65.9204 96.317 64.6599Z" fill="#FFDA8F" stroke="#191816" stroke-linecap="round" stroke-linejoin="round"/>
<path d="M54.1621 70.8195C55.8631 70.8195 57.242 69.4406 57.242 67.7396C57.242 66.0386 55.8631 64.6597 54.1621 64.6597C52.4611 64.6597 51.0822 66.0386 51.0822 67.7396C51.0822 69.4406 52.4611 70.8195 54.1621 70.8195Z" fill="#FFBE3D"/>
<path d="M80.8861 70.8195C82.5871 70.8195 83.966 69.4406 83.966 67.7396C83.966 66.0386 82.5871 64.6597 80.8861 64.6597C79.1851 64.6597 77.8062 66.0386 77.8062 67.7396C77.8062 69.4406 79.1851 70.8195 80.8861 70.8195Z" fill="#FFBE3D"/>
<path d="M78.6463 60.523C78.3224 60.1966 77.9371 59.9375 77.5126 59.7607C77.0881 59.5839 76.6328 59.4929 76.173 59.4929C75.7132 59.4929 75.2579 59.5839 74.8334 59.7607C74.4089 59.9375 74.0236 60.1966 73.6997 60.523" stroke="#191816" stroke-linecap="round" stroke-linejoin="round"/>
<path d="M56.4023 60.523C56.7262 60.1966 57.1115 59.9375 57.536 59.7607C57.9605 59.5839 58.4158 59.4929 58.8756 59.4929C59.3355 59.4929 59.7907 59.5839 60.2152 59.7607C60.6397 59.9375 61.025 60.1966 61.3489 60.523" stroke="#191816" stroke-linecap="round" stroke-linejoin="round"/>
<path d="M73.7617 75.0818C71.9694 76.4345 69.7851 77.1662 67.5396 77.1662C65.2941 77.1662 63.1098 76.4345 61.3175 75.0818" stroke="#191816" stroke-linecap="round" stroke-linejoin="round"/>
<path d="M55.096 19.3949C38.6386 25.617 38.5142 39.6789 38.5142 52.3097C38.5142 66.4028 40.3497 58.1896 46.1673 61.0829C46.4374 61.2179 46.734 61.2917 47.0358 61.299C47.3377 61.3063 47.6375 61.2469 47.9138 61.1251C48.19 61.0033 48.4361 60.822 48.6343 60.5943C48.8325 60.3665 48.9781 60.0978 49.0606 59.8074L51.985 49.6342C52.3149 48.4265 53.0961 47.3915 54.1671 46.7431C55.2382 46.0947 56.5173 45.8823 57.7404 46.1499C64.1016 47.7526 70.761 47.7526 77.1222 46.1499C77.7432 45.9857 78.3905 45.9457 79.027 46.032C79.6635 46.1183 80.2768 46.3294 80.8316 46.653C81.3864 46.9767 81.872 47.4066 82.2604 47.9181C82.6489 48.4297 82.9326 49.0129 83.0954 49.6342L86.0198 59.8074C86.107 60.0947 86.2552 60.3598 86.4543 60.5845C86.6535 60.8093 86.8988 60.9883 87.1736 61.1094C87.4483 61.2306 87.746 61.2909 88.0462 61.2863C88.3465 61.2817 88.6422 61.2123 88.9131 61.0829C94.7307 58.1896 96.5662 66.4028 96.5662 52.3097C96.4418 17.2483 63.5581 32.6479 55.096 19.3949Z" fill="#614B44"/>
<path d="M52.1715 30.2213C52.9254 29.8421 53.7778 29.7043 54.6128 29.8268C55.4478 29.9493 56.2248 30.326 56.838 30.9058C66.7001 40.2389 93.8906 29.7547 96.2861 57.6918C96.2861 56.4474 96.2861 54.5808 96.2861 52.3097C96.2861 17.2483 63.4023 32.6168 55.0336 19.3949C38.5762 25.617 38.4518 39.6789 38.4518 52.3097C38.4518 53.803 38.4518 55.0163 38.4518 56.0741C38.9807 45.9632 40.8784 35.8212 52.1715 30.2213Z" fill="#947063"/>
<path d="M55.096 19.3949C38.6386 25.617 38.5142 39.6789 38.5142 52.3097C38.5142 66.4028 40.3497 58.1896 46.1673 61.0829C46.4374 61.2179 46.734 61.2917 47.0358 61.299C47.3377 61.3063 47.6375 61.2469 47.9138 61.1251C48.19 61.0033 48.4361 60.822 48.6343 60.5943C48.8325 60.3665 48.9781 60.0978 49.0606 59.8074L51.985 49.6342C52.3149 48.4265 53.0961 47.3915 54.1671 46.7431C55.2382 46.0947 56.5173 45.8823 57.7404 46.1499C64.1016 47.7526 70.761 47.7526 77.1222 46.1499C77.7432 45.9857 78.3905 45.9457 79.027 46.032C79.6635 46.1183 80.2768 46.3294 80.8316 46.653C81.3864 46.9767 81.872 47.4066 82.2605 47.9181C82.6489 48.4297 82.9326 49.0129 83.0954 49.6342L86.0198 59.8074C86.107 60.0947 86.2552 60.3598 86.4543 60.5845C86.6535 60.8093 86.8988 60.9883 87.1736 61.1094C87.4483 61.2306 87.746 61.2909 88.0462 61.2863C88.3465 61.2817 88.6421 61.2123 88.9131 61.0829C94.7307 58.1896 96.5663 66.4028 96.5663 52.3097C96.4418 17.2483 63.5581 32.6479 55.096 19.3949Z" stroke="#191816" stroke-linecap="round" stroke-linejoin="round"/>
<path d="M67.5401 97.5747C46.2917 97.9791 26.381 113.565 26.381 140.756H40.7851V171.524H94.264V140.756H108.668C108.668 113.565 88.7574 97.9791 67.5401 97.5747Z" fill="#F0F0F0"/>
<path d="M67.5401 97.5747C46.2917 97.9791 26.381 113.565 26.381 140.756H40.7851V171.524H94.264V140.756H108.668C108.668 113.565 88.7574 97.9791 67.5401 97.5747Z" fill="#54A9FF" stroke="#0688F2" stroke-linecap="round" stroke-linejoin="round"/>
<path d="M67.5401 109.894C76.6362 109.905 85.4698 112.944 92.6468 118.532C99.8237 124.121 104.935 131.94 107.175 140.756H108.668C108.668 113.565 88.7574 97.9791 67.5401 97.5747C46.2917 97.9791 26.381 113.565 26.381 140.756H27.9054C30.14 131.937 35.2503 124.115 42.4283 118.526C49.6064 112.937 58.4426 109.899 67.5401 109.894Z" fill="#A9D4FB"/>
<path d="M67.5401 97.5747C46.2917 97.9791 26.381 113.565 26.381 140.756H40.7851V171.524H94.264V140.756H108.668C108.668 113.565 88.7574 97.9791 67.5401 97.5747Z" stroke="#191816" stroke-linecap="round" stroke-linejoin="round"/>
<path d="M94.2634 142V127.161" stroke="#191816" stroke-linecap="round" stroke-linejoin="round"/>
<path d="M40.785 142V127.161" stroke="#191816" stroke-linecap="round" stroke-linejoin="round"/>
<path d="M55.0955 99.5658C55.5409 102.51 57.0274 105.197 59.285 107.139C61.5427 109.081 64.4218 110.149 67.3996 110.149C70.3775 110.149 73.2566 109.081 75.5143 107.139C77.7719 105.197 79.2584 102.51 79.7038 99.5658C71.7158 96.911 63.0834 96.911 55.0955 99.5658Z" fill="#FFDA8F" stroke="#191816" stroke-linecap="round" stroke-linejoin="round"/>
</g>
<defs>
<filter id="filter0_d_1885_121912" x="-17.5526" y="-18.4053" width="173.167" height="173.167" filterUnits="userSpaceOnUse" color-interpolation-filters="sRGB">
<feFlood flood-opacity="0" result="BackgroundImageFix"/>
<feColorMatrix in="SourceAlpha" type="matrix" values="0 0 0 0 0 0 0 0 0 0 0 0 0 0 0 0 0 0 127 0" result="hardAlpha"/>
<feOffset dy="4"/>
<feGaussianBlur stdDeviation="7.5"/>
<feComposite in2="hardAlpha" operator="out"/>
<feColorMatrix type="matrix" values="0 0 0 0 0 0 0 0 0 0 0 0 0 0 0 0 0 0 0.15 0"/>
<feBlend mode="normal" in2="BackgroundImageFix" result="effect1_dropShadow_1885_121912"/>
<feBlend mode="normal" in="SourceGraphic" in2="effect1_dropShadow_1885_121912" result="shape"/>
</filter>
</defs>
</svg>
