<svg width="99" height="98" viewBox="0 0 99 98" fill="none" xmlns="http://www.w3.org/2000/svg">
<path d="M49.3782 97.5716C76.3297 97.5716 98.1782 75.8254 98.1782 49.0001C98.1782 22.1749 76.3297 0.428711 49.3782 0.428711C22.4267 0.428711 0.578186 22.1749 0.578186 49.0001C0.578186 75.8254 22.4267 97.5716 49.3782 97.5716Z" fill="#CFE7FF"/>
<path d="M40.2404 72.7273C40.5142 71.5732 40.3723 70.3599 39.8395 69.2992C39.3066 68.2385 38.4166 67.3975 37.3246 66.9231C37.2769 66.9066 37.2368 66.8733 37.212 66.8295C37.1872 66.7857 37.1792 66.7344 37.1897 66.6852C37.2002 66.636 37.2284 66.5923 37.2689 66.5623C37.3095 66.5324 37.3596 66.5181 37.41 66.5223H65.6286V21.5938C65.6296 21.2986 65.5523 21.0084 65.4045 20.7526C65.2567 20.4967 65.0436 20.2842 64.7868 20.1366C64.5335 19.9882 64.245 19.9099 63.9511 19.9099C63.6572 19.9099 63.3686 19.9882 63.1154 20.1366L60.6754 21.5331C60.4096 21.6964 60.1033 21.7829 59.7909 21.7829C59.4785 21.7829 59.1722 21.6964 58.9064 21.5331L55.5392 19.2988C55.2902 19.136 55.0031 19.0403 54.7058 19.0212C54.4085 19.002 54.1114 19.06 53.8434 19.1895L48.7438 21.7395C48.508 21.8534 48.2494 21.9125 47.9874 21.9125C47.7253 21.9125 47.4667 21.8534 47.231 21.7395L42.1314 19.2016C41.8654 19.0668 41.5683 19.0047 41.2703 19.0217C40.9723 19.0388 40.6842 19.1344 40.4356 19.2988L37.0684 21.5331C36.8026 21.6964 36.4963 21.7829 36.1839 21.7829C35.8715 21.7829 35.5652 21.6964 35.2994 21.5331L32.8594 20.1366C32.6061 19.9882 32.3176 19.9099 32.0237 19.9099C31.7298 19.9099 31.4412 19.9882 31.188 20.1366C30.9312 20.2842 30.7181 20.4967 30.5703 20.7526C30.4224 21.0084 30.3451 21.2986 30.3462 21.5938V71.5495C30.3301 72.7881 30.774 73.989 31.5928 74.9218C32.4116 75.8547 33.5476 76.4538 34.7829 76.6043C36.0182 76.7548 37.2659 76.4461 38.2866 75.7373C39.3072 75.0285 40.0291 73.9697 40.3136 72.7638L40.2404 72.7273Z" fill="white"/>
<path d="M49.6344 86.8617C59.7075 86.8617 67.8734 86.0517 67.8734 85.0525C67.8734 84.0532 59.7075 83.2432 49.6344 83.2432C39.5613 83.2432 31.3954 84.0532 31.3954 85.0525C31.3954 86.0517 39.5613 86.8617 49.6344 86.8617Z" fill="#87C3FF"/>
<path d="M35.3238 28.8184H60.5778" stroke="#3F7FBF" stroke-linecap="round" stroke-linejoin="round"/>
<path d="M35.3238 33.8457H60.5778" stroke="#3F7FBF" stroke-linecap="round" stroke-linejoin="round"/>
<path d="M35.3238 38.873H46.2672" stroke="#3F7FBF" stroke-linecap="round" stroke-linejoin="round"/>
<path d="M35.3238 43.9004H42.9" stroke="#3F7FBF" stroke-linecap="round" stroke-linejoin="round"/>
<path d="M35.3238 48.9277H42.0582" stroke="#3F7FBF" stroke-linecap="round" stroke-linejoin="round"/>
<path d="M35.3238 53.9541H42.0582" stroke="#3F7FBF" stroke-linecap="round" stroke-linejoin="round"/>
<path d="M40.2404 72.7273C40.5142 71.5732 40.3723 70.3599 39.8395 69.2992C39.3066 68.2385 38.4166 67.3975 37.3246 66.9231C37.2769 66.9066 37.2368 66.8733 37.212 66.8295C37.1872 66.7857 37.1792 66.7344 37.1897 66.6852C37.2002 66.636 37.2284 66.5923 37.2689 66.5623C37.3095 66.5324 37.3596 66.5181 37.41 66.5223H65.6286V21.5938C65.6296 21.2986 65.5523 21.0084 65.4045 20.7526C65.2567 20.4967 65.0436 20.2842 64.7868 20.1366C64.5335 19.9882 64.245 19.9099 63.9511 19.9099C63.6572 19.9099 63.3686 19.9882 63.1154 20.1366L60.6754 21.5331C60.4096 21.6964 60.1033 21.7829 59.7909 21.7829C59.4785 21.7829 59.1722 21.6964 58.9064 21.5331L55.5392 19.2988C55.2902 19.136 55.0031 19.0403 54.7058 19.0212C54.4085 19.002 54.1114 19.06 53.8434 19.1895L48.7438 21.7395C48.508 21.8534 48.2494 21.9125 47.9874 21.9125C47.7253 21.9125 47.4667 21.8534 47.231 21.7395L42.1314 19.2016C41.8654 19.0668 41.5683 19.0047 41.2703 19.0217C40.9723 19.0388 40.6842 19.1344 40.4356 19.2988L37.0684 21.5331C36.8026 21.6964 36.4963 21.7829 36.1839 21.7829C35.8715 21.7829 35.5652 21.6964 35.2994 21.5331L32.8594 20.1366C32.6061 19.9882 32.3176 19.9099 32.0237 19.9099C31.7298 19.9099 31.4412 19.9882 31.188 20.1366C30.9312 20.2842 30.7181 20.4967 30.5703 20.7526C30.4224 21.0084 30.3451 21.2986 30.3462 21.5938V71.5495C30.3301 72.7881 30.774 73.989 31.5928 74.9218C32.4116 75.8547 33.5476 76.4538 34.7829 76.6043C36.0182 76.7548 37.2659 76.4461 38.2866 75.7373C39.3072 75.0285 40.0291 73.9697 40.3136 72.7638L40.2404 72.7273Z" stroke="#3F7FBF" stroke-linecap="round" stroke-linejoin="round"/>
<path d="M35.3238 76.5764C36.4853 76.5755 37.6111 76.1762 38.5114 75.4458C39.4117 74.7153 40.0315 73.6983 40.2665 72.5661C40.5014 71.4339 40.3371 70.2557 39.8013 69.23C39.2654 68.2043 38.3907 67.3938 37.3246 66.9349C37.281 66.9126 37.2462 66.8764 37.2257 66.8321C37.2052 66.7879 37.2002 66.738 37.2114 66.6906C37.2226 66.6431 37.2495 66.6007 37.2877 66.5702C37.3258 66.5397 37.3732 66.5227 37.4222 66.5221H65.4822C66.6574 66.5042 67.803 66.889 68.727 67.6119C69.6511 68.3349 70.2973 69.352 70.5574 70.4928C70.7137 71.2253 70.7036 71.9833 70.5278 72.7114C70.3521 73.4395 70.0151 74.1194 69.5416 74.7013C69.068 75.2832 68.4698 75.7524 67.7907 76.0747C67.1116 76.397 66.3688 76.5643 65.6164 76.5642L35.3238 76.5764Z" fill="white" stroke="#3F7FBF" stroke-linecap="round" stroke-linejoin="round"/>
<path d="M53.8434 57.306C58.4925 57.306 62.2614 53.5548 62.2614 48.9274C62.2614 44.3 58.4925 40.5488 53.8434 40.5488C49.1943 40.5488 45.4254 44.3 45.4254 48.9274C45.4254 53.5548 49.1943 57.306 53.8434 57.306Z" fill="#87C3FF"/>
<path d="M53.88 44.0338C55.8079 44.0333 57.6775 44.6914 59.1764 45.8982C60.6753 47.1049 61.7127 48.7872 62.115 50.6638C62.238 50.0932 62.2994 49.511 62.298 48.9274C62.298 46.7053 61.4111 44.5741 59.8324 43.0029C58.2537 41.4316 56.1126 40.5488 53.88 40.5488C51.6474 40.5488 49.5063 41.4316 47.9276 43.0029C46.3489 44.5741 45.462 46.7053 45.462 48.9274C45.4606 49.511 45.522 50.0932 45.645 50.6638C46.0473 48.7872 47.0847 47.1049 48.5836 45.8982C50.0825 44.6914 51.9521 44.0333 53.88 44.0338Z" fill="white"/>
<path d="M53.8434 57.306C58.4925 57.306 62.2614 53.5548 62.2614 48.9274C62.2614 44.3 58.4925 40.5488 53.8434 40.5488C49.1943 40.5488 45.4254 44.3 45.4254 48.9274C45.4254 53.5548 49.1943 57.306 53.8434 57.306Z" stroke="#3F7FBF" stroke-linecap="round" stroke-linejoin="round"/>
<path d="M53.8434 43.3418V44.7382" stroke="#4550E5" stroke-linecap="round" stroke-linejoin="round"/>
<path d="M53.8434 53.1172V54.5136" stroke="#4550E5" stroke-linecap="round" stroke-linejoin="round"/>
<path d="M51.745 51.0156C51.7426 51.4305 51.8637 51.8369 52.0931 52.1834C52.3225 52.5299 52.6498 52.801 53.0339 52.9626C53.4179 53.1241 53.8414 53.1688 54.2509 53.0911C54.6604 53.0134 55.0377 52.8167 55.335 52.5258C55.6323 52.2349 55.8365 51.8629 55.9216 51.4567C56.0068 51.0505 55.9692 50.6283 55.8135 50.2433C55.6579 49.8584 55.3912 49.5279 55.0471 49.2937C54.703 49.0594 54.2968 48.9318 53.88 48.927C53.4625 48.927 53.0545 48.8038 52.7074 48.573C52.3603 48.3422 52.0898 48.0141 51.93 47.6302C51.7703 47.2464 51.7285 46.824 51.8099 46.4165C51.8914 46.009 52.0924 45.6347 52.3876 45.3409C52.6827 45.0471 53.0588 44.847 53.4682 44.766C53.8776 44.6849 54.302 44.7265 54.6877 44.8855C55.0733 45.0445 55.403 45.3137 55.6349 45.6592C55.8668 46.0047 55.9906 46.4108 55.9906 46.8263" stroke="#3F7FBF" stroke-linecap="round" stroke-linejoin="round"/>
</svg>
