<?xml version="1.0" encoding="UTF-8"?>
<!DOCTYPE svg PUBLIC "-//W3C//DTD SVG 1.1//EN" "http://www.w3.org/Graphics/SVG/1.1/DTD/svg11.dtd">
<!-- Creator: CorelDRAW -->
<svg xmlns="http://www.w3.org/2000/svg" xml:space="preserve" width="210mm" height="210mm" version="1.1" style="shape-rendering:geometricPrecision; text-rendering:geometricPrecision; image-rendering:optimizeQuality; fill-rule:evenodd; clip-rule:evenodd"
viewBox="0 0 21000 21000"
 xmlns:xlink="http://www.w3.org/1999/xlink"
 enable-background="new 0 0 511.168 511.168">
 <defs>
  <style type="text/css">
   <![CDATA[
    .fil12 {fill:none}
    .fil11 {fill:#677A8F}
    .fil5 {fill:#6E9EFF}
    .fil7 {fill:#74D84B}
    .fil10 {fill:#AD5F2C}
    .fil9 {fill:#BF6930}
    .fil6 {fill:#C5D7E6}
    .fil4 {fill:#E4ECF2}
    .fil3 {fill:#F0F5FA}
    .fil1 {fill:#FAC800}
    .fil8 {fill:#FC435F}
    .fil0 {fill:#FFDA45}
    .fil2 {fill:#FFF5F5}
   ]]>
  </style>
   <clipPath id="id0">
    <path d="M10290.06 -746.94c5645.96,0 10222.92,4576.96 10222.92,10222.92 0,5645.96 -4576.96,10222.92 -10222.92,10222.92 -5645.96,0 -10222.92,-4576.96 -10222.92,-10222.92 0,-5645.96 4576.96,-10222.92 10222.92,-10222.92z"/>
   </clipPath>
 </defs>
 <g id="Layer_x0020_1">
  <metadata id="CorelCorpID_0Corel-Layer"/>
  <g>
  </g>
  <g style="clip-path:url(#id0)">
   <g>
    <g id="_105553435655744">
     <g>
      <polygon class="fil0" points="919.58,8427.15 15848.8,8427.15 15848.8,12580.82 919.58,12580.82 "/>
     </g>
     <polygon class="fil1" points="14184.13,8427.15 15848.8,8427.15 15848.8,12580.82 14184.13,12580.82 "/>
     <polygon class="fil2" points="9480.58,8427.15 14203.6,8427.15 14203.6,12580.82 9480.58,12580.82 "/>
     <g>
      <g>
       <g>
        <path class="fil3" d="M18939.56 24190.79l-14814.32 0c-1211.57,0 -2193.76,-982.2 -2193.76,-2193.76 0,-1211.58 982.2,-2193.77 2193.76,-2193.77l14814.32 -0.01 0 4387.54z"/>
        <polygon class="fil4" points="17391.03,19803.29 18939.56,19803.29 18939.56,24190.79 17391.03,24190.79 "/>
        <g>
         <path class="fil5" d="M19713.78 24481.14l-15588.54 0c-1369.72,0 -2484.12,-1114.36 -2484.12,-2484.13 0,-1369.77 1114.36,-2484.12 2484.12,-2484.12l15588.59 0.01c160.35,0 290.35,130 290.35,290.35 0,160.35 -130,290.35 -290.35,290.35l-15588.59 0c-1049.51,0 -1903.41,853.85 -1903.41,1903.41 0,1049.52 853.85,1903.41 1903.41,1903.41l15588.59 0.02c160.35,0 290.35,129.99 290.35,290.35 0,160.35 -130,290.35 -290.4,290.35z"/>
        </g>
        <g>
         <g>
          <path class="fil6" d="M18939.53 21556.15l-11958.9 0c-160.35,0 -290.35,-129.99 -290.35,-290.34 0,-160.36 130,-290.35 290.35,-290.35l11958.9 0 0 580.69z"/>
         </g>
         <g>
          <path class="fil6" d="M18939.53 23018.67l-8783.64 0c-160.35,0 -290.35,-130 -290.35,-290.35 0,-160.35 130,-290.35 290.35,-290.35l8783.64 0 0 580.7z"/>
         </g>
        </g>
       </g>
       <g>
        <path class="fil3" d="M16456.48 19224.22l-14415.02 0c-784.1,0 -1419.77,-635.64 -1419.77,-1419.77 0,-784.11 635.64,-1419.77 1419.77,-1419.77l14415.07 0 0 2839.54 -0.05 0z"/>
        <polygon class="fil4" points="14907.96,16384.68 16456.48,16384.68 16456.48,19224.22 14907.96,19224.22 "/>
        <g>
         <path class="fil7" d="M17344.73 19514.56l-15303.27 0c-942.93,0 -1710.11,-767.14 -1710.11,-1710.11 0,-942.98 767.14,-1710.12 1710.11,-1710.12l15303.27 0c160.35,0 290.34,129.99 290.34,290.35 0,160.35 -129.99,290.35 -290.34,290.35l-15303.27 0c-622.74,0 -1129.42,506.63 -1129.42,1129.42 0,622.78 506.64,1129.42 1129.42,1129.42l15303.27 0c160.35,0 290.34,129.99 290.34,290.35 0,160.35 -129.99,290.34 -290.34,290.34z"/>
        </g>
        <g>
         <g>
          <path class="fil6" d="M16456.48 18155.11l-4077.08 0c-160.36,0 -290.35,-130 -290.35,-290.35 0,-160.35 129.99,-290.35 290.35,-290.35l4077.08 0 0 580.7z"/>
         </g>
        </g>
       </g>
       <g>
        <path class="fil3" d="M5423.88 4982.48l11570.25 0c871.05,0 1577.14,706.13 1577.14,1577.14 0,871.05 -706.13,1577.14 -1577.14,1577.14l-11570.25 0 0 -3154.28z"/>
        <path class="fil4" d="M16994.13 4982.48l-1548.52 0c871.05,0 1577.14,706.13 1577.14,1577.14 0,871.05 -706.14,1577.14 -1577.14,1577.14l1548.52 0c871.05,0 1577.14,-706.14 1577.14,-1577.14 0,-871.01 -706.09,-1577.14 -1577.14,-1577.14z"/>
        <g>
         <path class="fil8" d="M16994.13 8427.15l-12556.93 0c-160.36,0 -290.35,-129.99 -290.35,-290.35 0,-160.35 129.99,-290.35 290.35,-290.35l12556.93 -0.01c709.54,0 1286.8,-577.25 1286.8,-1286.79 0,-709.54 -577.26,-1286.84 -1286.8,-1286.84l-12556.93 0.01c-160.36,0 -290.35,-129.99 -290.35,-290.34 0,-160.36 129.99,-290.35 290.35,-290.35l12556.93 0c1029.74,0 1867.49,837.75 1867.49,1867.49 0,1029.73 -837.75,1867.53 -1867.49,1867.53z"/>
        </g>
       </g>
       <g>
        <g>
         <polygon class="fil5" points="2599.86,12580.77 19862.22,12580.77 19862.22,16094.31 2599.86,16094.33 "/>
        </g>
        <polygon class="fil9" points="14590.73,12580.77 19862.22,12580.77 19862.22,16094.31 14590.73,16094.33 "/>
        <polygon class="fil10" points="18313.68,12580.77 19862.22,12580.77 19862.22,16094.31 18313.68,16094.33 "/>
        <path class="fil2" d="M8538.56 14918.25l-3949.1 0c-320.71,0 -580.7,-260 -580.7,-580.7 0,-320.71 259.99,-580.7 580.7,-580.7l3949.1 0c320.71,0 580.7,259.99 580.7,580.7 0,320.7 -259.99,580.7 -580.7,580.7z"/>
        <g>
         <path class="fil2" d="M18184.61 14627.9l-1890.48 0c-160.35,0 -290.35,-130 -290.35,-290.35 0,-160.35 130,-290.35 290.35,-290.35l1890.48 0c160.36,0 290.35,130 290.35,290.35 0,160.35 -129.96,290.35 -290.35,290.35z"/>
        </g>
       </g>
       <g>
        <g>
         <path class="fil11" d="M12900.25 11155.54c-160.36,0 -290.35,-130 -290.35,-290.35l0 -722.47c0,-160.35 129.99,-290.35 290.35,-290.35 160.35,0 290.34,130 290.34,290.35l0 722.47c0,160.35 -129.96,290.35 -290.34,290.35z"/>
        </g>
        <g>
         <path class="fil11" d="M11842.1 11155.54c-160.35,0 -290.35,-130 -290.35,-290.35l0 -722.47c0,-160.35 130,-290.35 290.35,-290.35 160.35,0 290.35,130 290.35,290.35l0 722.47c0,160.35 -129.97,290.35 -290.35,290.35z"/>
        </g>
        <g>
         <path class="fil11" d="M10783.94 11155.54c-160.36,0 -290.35,-130 -290.35,-290.35l0 -722.47c0,-160.35 129.99,-290.35 290.35,-290.35 160.35,0 290.34,130 290.34,290.35l0 722.47c0,160.35 -129.99,290.35 -290.34,290.35z"/>
        </g>
       </g>
      </g>
      <g>
       <path class="fil6" d="M5415.67 6269.27l6625.33 0c160.35,0 290.35,130 290.35,290.35 0,160.35 -130,290.35 -290.35,290.35l-6625.33 0 0 -580.7z"/>
      </g>
     </g>
    </g>
   </g>
  </g>
  <path class="fil12" d="M10290.06 -746.94c5645.96,0 10222.92,4576.96 10222.92,10222.92 0,5645.96 -4576.96,10222.92 -10222.92,10222.92 -5645.96,0 -10222.92,-4576.96 -10222.92,-10222.92 0,-5645.96 4576.96,-10222.92 10222.92,-10222.92z"/>
 </g>
</svg>
