<svg width="50" height="45" viewBox="0 0 50 45" fill="none" xmlns="http://www.w3.org/2000/svg">
<path d="M47.0745 22.0669C47.0742 18.7736 46.3368 15.5222 44.9165 12.5509C43.4961 9.57969 41.4288 6.96399 38.8661 4.89563C36.3034 2.82726 33.3102 1.35867 30.1061 0.59752C26.902 -0.163627 23.5682 -0.198027 20.3491 0.49684C17.1299 1.19171 14.1071 2.59823 11.5023 4.61327C8.89741 6.62831 6.77655 9.20079 5.2952 12.1421C3.81385 15.0834 3.00955 18.3189 2.94129 21.6115C2.87302 24.9041 3.54252 28.1702 4.90068 31.1703H45.1048C46.404 28.3113 47.0756 25.2072 47.0745 22.0669Z" fill="#E8F4FA"/>
<path d="M4.9007 31.1704C6.65129 35.0343 9.47839 38.3119 13.0435 40.6106C16.6087 42.9094 20.7608 44.1319 25.0028 44.1319C29.2448 44.1319 33.3969 42.9094 36.962 40.6106C40.5271 38.3119 43.3542 35.0343 45.1048 31.1704H4.9007Z" fill="white"/>
<path d="M3.48276 31.1704H46.5172" stroke="#4F4A45" stroke-width="0.5" stroke-linecap="round" stroke-linejoin="round"/>
<path d="M1 31.1704H2.37931" stroke="#4F4A45" stroke-width="0.5" stroke-linecap="round" stroke-linejoin="round"/>
<path d="M47.6207 31.1704H49" stroke="#4F4A45" stroke-width="0.5" stroke-linecap="round" stroke-linejoin="round"/>
<path opacity="0.15" d="M44.7628 37.548C45.2483 37.3328 45.5076 37.1011 45.5076 36.8639C45.5076 35.4183 35.8028 34.2432 23.8248 34.2432C11.8469 34.2432 2.14207 35.4183 2.14207 36.8639C2.14207 38.3094 11.8469 39.4901 23.8248 39.4901C27.6869 39.4901 31.3448 39.3632 34.4952 39.148C36.2496 39.6625 38.0746 39.8953 39.9021 39.8376C43.3779 39.8376 46.1972 39.2142 46.1972 38.4418C46.2083 38.0997 45.6676 37.7907 44.7628 37.548Z" fill="#191816"/>
<path d="M26.6221 26.1992C26.1582 26.1992 25.7134 26.3835 25.3854 26.7115C25.0574 27.0395 24.8731 27.4843 24.8731 27.9482C24.8731 28.4121 25.0574 28.8569 25.3854 29.1849C25.7134 29.5129 26.1582 29.6972 26.6221 29.6972H38.8648C38.9617 29.6885 39.0593 29.7002 39.1514 29.7313C39.2435 29.7625 39.3282 29.8125 39.3999 29.8781C39.4717 29.9438 39.529 30.0237 39.5682 30.1127C39.6074 30.2017 39.6276 30.2978 39.6276 30.3951C39.6276 30.4923 39.6074 30.5885 39.5682 30.6775C39.529 30.7665 39.4717 30.8464 39.3999 30.912C39.3282 30.9777 39.2435 31.0277 39.1514 31.0588C39.0593 31.09 38.9617 31.1016 38.8648 31.093H26.6221C25.8101 31.059 25.0426 30.7125 24.4801 30.126C23.9176 29.5394 23.6035 28.7581 23.6035 27.9454C23.6035 27.1327 23.9176 26.3515 24.4801 25.7649C25.0426 25.1783 25.8101 24.8319 26.6221 24.7979H38.8648C39.0507 24.7979 39.2289 24.8717 39.3603 25.0031C39.4917 25.1345 39.5655 25.3127 39.5655 25.4985C39.5655 25.6844 39.4917 25.8626 39.3603 25.994C39.2289 26.1254 39.0507 26.1992 38.8648 26.1992H26.6221Z" fill="#9F5AE5"/>
<path d="M23.4772 27.9484C23.4845 27.1187 23.8189 26.3253 24.4077 25.7406C24.9965 25.1559 25.7923 24.8271 26.6221 24.8257H38.8648C39.0507 24.8257 39.2289 24.8995 39.3603 25.0309C39.4917 25.1623 39.5655 25.3405 39.5655 25.5264C39.5655 25.7122 39.4917 25.8904 39.3603 26.0218C39.2289 26.1532 39.0507 26.2271 38.8648 26.2271H26.6221C26.1582 26.2271 25.7134 26.4113 25.3854 26.7393C25.0574 27.0673 24.8731 27.5122 24.8731 27.976L23.4772 27.9484Z" fill="#BF8DF2"/>
<path d="M26.6221 26.1992C26.1582 26.1992 25.7134 26.3835 25.3854 26.7115C25.0574 27.0395 24.8731 27.4843 24.8731 27.9482C24.8731 28.4121 25.0574 28.8569 25.3854 29.1849C25.7134 29.5129 26.1582 29.6972 26.6221 29.6972H38.8648C38.9617 29.6885 39.0593 29.7002 39.1514 29.7313C39.2435 29.7625 39.3282 29.8125 39.3999 29.8781C39.4717 29.9438 39.529 30.0237 39.5682 30.1127C39.6074 30.2017 39.6276 30.2978 39.6276 30.3951C39.6276 30.4923 39.6074 30.5885 39.5682 30.6775C39.529 30.7665 39.4717 30.8464 39.3999 30.912C39.3282 30.9777 39.2435 31.0277 39.1514 31.0588C39.0593 31.09 38.9617 31.1016 38.8648 31.093H26.6221C25.8101 31.059 25.0426 30.7125 24.4801 30.126C23.9176 29.5394 23.6035 28.7581 23.6035 27.9454C23.6035 27.1327 23.9176 26.3515 24.4801 25.7649C25.0426 25.1783 25.8101 24.8319 26.6221 24.7979H38.8648C39.0507 24.7979 39.2289 24.8717 39.3603 25.0031C39.4917 25.1345 39.5655 25.3127 39.5655 25.4985C39.5655 25.6844 39.4917 25.8626 39.3603 25.994C39.2289 26.1254 39.0507 26.1992 38.8648 26.1992H26.6221Z" stroke="#191816" stroke-width="0.5" stroke-linecap="round" stroke-linejoin="round"/>
<path d="M38.8648 29.6971V26.1992H26.6221C26.1582 26.1992 25.7134 26.3835 25.3854 26.7115C25.0574 27.0395 24.8731 27.4843 24.8731 27.9482C24.8731 28.412 25.0574 28.8569 25.3854 29.1849C25.7134 29.5129 26.1582 29.6971 26.6221 29.6971H38.8648Z" fill="#FFF5E3" stroke="#191816" stroke-width="0.5" stroke-linecap="round" stroke-linejoin="round"/>
<path d="M38.8648 27.5947H33.9655" stroke="#191816" stroke-width="0.5" stroke-linecap="round" stroke-linejoin="round"/>
<path d="M32.5697 27.5947H31.1683" stroke="#191816" stroke-width="0.5" stroke-linecap="round" stroke-linejoin="round"/>
<path d="M25.5572 20.6045C25.2801 20.6045 25.0057 20.6591 24.7497 20.7652C24.4936 20.8712 24.261 21.0267 24.065 21.2226C23.869 21.4186 23.7136 21.6512 23.6075 21.9073C23.5015 22.1633 23.4469 22.4377 23.4469 22.7149C23.4469 22.992 23.5015 23.2664 23.6075 23.5225C23.7136 23.7785 23.869 24.0111 24.065 24.2071C24.261 24.4031 24.4936 24.5585 24.7497 24.6646C25.0057 24.7706 25.2801 24.8252 25.5572 24.8252H35.3669C35.4587 24.8259 35.5496 24.8085 35.6346 24.7739C35.7196 24.7393 35.7969 24.6882 35.862 24.6236C35.9272 24.5589 35.9789 24.482 36.0141 24.3973C36.0494 24.3126 36.0676 24.2218 36.0676 24.13V23.4018H25.5572C25.3714 23.4018 25.1932 23.3279 25.0618 23.1965C24.9304 23.0651 24.8566 22.8869 24.8566 22.7011C24.8566 22.5152 24.9304 22.337 25.0618 22.2056C25.1932 22.0742 25.3714 22.0004 25.5572 22.0004H36.04V21.2997C36.04 21.2079 36.0218 21.1171 35.9866 21.0324C35.9513 20.9477 35.8996 20.8708 35.8344 20.8062C35.7693 20.7415 35.692 20.6904 35.607 20.6558C35.5221 20.6212 35.4311 20.6038 35.3393 20.6045H25.5572Z" fill="#00B8F0"/>
<path d="M24.8731 22.7011C24.8731 22.5181 24.9446 22.3423 25.0724 22.2114C25.2003 22.0804 25.3743 22.0047 25.5572 22.0004H36.04V21.2997C36.04 21.2079 36.0218 21.1171 35.9866 21.0324C35.9513 20.9477 35.8996 20.8708 35.8344 20.8062C35.7693 20.7415 35.692 20.6904 35.607 20.6558C35.5221 20.6212 35.4311 20.6038 35.3393 20.6045H25.5572C25.0012 20.6045 24.4679 20.8254 24.0748 21.2186C23.6816 21.6118 23.4607 22.145 23.4607 22.7011H24.8731Z" fill="#4ACFFF"/>
<path d="M25.5572 20.6045C25.2801 20.6045 25.0057 20.6591 24.7497 20.7652C24.4936 20.8712 24.261 21.0267 24.065 21.2226C23.869 21.4186 23.7136 21.6512 23.6075 21.9073C23.5015 22.1633 23.4469 22.4377 23.4469 22.7149C23.4469 22.992 23.5015 23.2664 23.6075 23.5225C23.7136 23.7785 23.869 24.0111 24.065 24.2071C24.261 24.4031 24.4936 24.5585 24.7497 24.6646C25.0057 24.7706 25.2801 24.8252 25.5572 24.8252H35.3669C35.4587 24.8259 35.5496 24.8085 35.6346 24.7739C35.7196 24.7393 35.7969 24.6882 35.862 24.6236C35.9272 24.5589 35.9789 24.482 36.0141 24.3973C36.0494 24.3126 36.0676 24.2218 36.0676 24.13V23.4018H25.5572C25.3714 23.4018 25.1932 23.3279 25.0618 23.1965C24.9304 23.0651 24.8566 22.8869 24.8566 22.7011C24.8566 22.5152 24.9304 22.337 25.0618 22.2056C25.1932 22.0742 25.3714 22.0004 25.5572 22.0004H36.04V21.2997C36.04 21.2079 36.0218 21.1171 35.9866 21.0324C35.9513 20.9477 35.8996 20.8708 35.8344 20.8062C35.7693 20.7415 35.692 20.6904 35.607 20.6558C35.5221 20.6212 35.4311 20.6038 35.3393 20.6045H25.5572Z" stroke="#191816" stroke-width="0.5" stroke-linecap="round" stroke-linejoin="round"/>
<path d="M35.2345 23.4702V22.0688H25.4248C25.239 22.0688 25.0608 22.1427 24.9294 22.2741C24.798 22.4055 24.7241 22.5837 24.7241 22.7695C24.7241 22.9554 24.798 23.1336 24.9294 23.265C25.0608 23.3964 25.239 23.4702 25.4248 23.4702H35.2345Z" fill="#FFF5E3" stroke="#191816" stroke-width="0.5" stroke-linecap="round" stroke-linejoin="round"/>
<path d="M21.0008 15.6482L13.2221 33.6235C13.0685 33.9787 13.2318 34.3912 13.5869 34.5449L16.7972 35.9341C17.1523 36.0878 17.5648 35.9244 17.7185 35.5693L25.4971 17.594C25.6508 17.2388 25.4875 16.8263 25.1323 16.6726L21.9221 15.2834C21.567 15.1297 21.1545 15.2931 21.0008 15.6482Z" fill="#B89558"/>
<path d="M14.8207 35.0762L13.5848 34.5245C13.4144 34.4506 13.2803 34.312 13.212 34.1392C13.1437 33.9664 13.1468 33.7736 13.2207 33.6031L21 15.6279C21.0739 15.4575 21.2125 15.3234 21.3853 15.2551C21.5581 15.1868 21.7509 15.1899 21.9214 15.2638L23.1517 15.8155L14.8207 35.0762Z" fill="#DEBB7E"/>
<path d="M21.0008 15.6482L13.2221 33.6235C13.0685 33.9787 13.2318 34.3912 13.5869 34.5449L16.7972 35.9341C17.1523 36.0878 17.5648 35.9244 17.7185 35.5693L25.4971 17.594C25.6508 17.2388 25.4875 16.8263 25.1323 16.6726L21.9221 15.2834C21.567 15.1297 21.1545 15.2931 21.0008 15.6482Z" stroke="#191816" stroke-width="0.5" stroke-linecap="round" stroke-linejoin="round"/>
<path d="M24.3818 20.1611L19.8854 18.2153L18.7745 20.7825L23.2709 22.7283L24.3818 20.1611Z" fill="#F0D5A8" stroke="#191816" stroke-width="0.5" stroke-linecap="round" stroke-linejoin="round"/>
<path d="M15.4821 17.9285L6.0619 33.4832C5.86143 33.8142 5.96726 34.245 6.29827 34.4455L8.69093 35.8945C9.02194 36.095 9.45278 35.9892 9.65325 35.6582L19.0735 20.1035C19.2739 19.7725 19.1681 19.3417 18.8371 19.1412L16.4445 17.6922C16.1134 17.4917 15.6826 17.5975 15.4821 17.9285Z" fill="#FF8A14"/>
<path d="M7.12414 34.9437L6.29655 34.4417C6.13808 34.3456 6.02415 34.1906 5.97969 34.0107C5.93522 33.8307 5.96385 33.6405 6.05931 33.4817L15.4772 17.9231C15.5753 17.7651 15.7316 17.6522 15.9124 17.6089C16.0931 17.5655 16.2837 17.5951 16.4428 17.6913L17.2814 18.2044L7.12414 34.9437Z" fill="#FFAA54"/>
<path d="M15.4821 17.9285L6.0619 33.4832C5.86143 33.8142 5.96726 34.245 6.29827 34.4455L8.69093 35.8945C9.02194 36.095 9.45278 35.9892 9.65325 35.6582L19.0735 20.1035C19.2739 19.7725 19.1681 19.3417 18.8371 19.1412L16.4445 17.6922C16.1134 17.4917 15.6826 17.5975 15.4821 17.9285Z" stroke="#191816" stroke-width="0.5" stroke-linecap="round" stroke-linejoin="round"/>
<path d="M17.6143 22.4953L14.0229 20.3203L12.5739 22.713L16.1653 24.888L17.6143 22.4953Z" fill="#FFCC99" stroke="#191816" stroke-width="0.5" stroke-linecap="round" stroke-linejoin="round"/>
<path d="M40.2662 31.0928H20.68C20.293 31.0928 19.9793 31.4065 19.9793 31.7935V35.2914C19.9793 35.6784 20.293 35.9921 20.68 35.9921H40.2662C40.6532 35.9921 40.9669 35.6784 40.9669 35.2914V31.7935C40.9669 31.4065 40.6532 31.0928 40.2662 31.0928Z" fill="#6DD627"/>
<path d="M40.9614 32.8417V31.7935C40.9621 31.7017 40.9447 31.6107 40.9101 31.5257C40.8754 31.4408 40.8244 31.3635 40.7597 31.2983C40.6951 31.2332 40.6182 31.1815 40.5335 31.1462C40.4488 31.1109 40.358 31.0928 40.2662 31.0928H20.68C20.4942 31.0928 20.3159 31.1666 20.1845 31.298C20.0531 31.4294 19.9793 31.6076 19.9793 31.7935V32.8417H40.9614Z" fill="#9CEB60"/>
<path d="M40.2662 31.0928H20.68C20.293 31.0928 19.9793 31.4065 19.9793 31.7935V35.2914C19.9793 35.6784 20.293 35.9921 20.68 35.9921H40.2662C40.6532 35.9921 40.9669 35.6784 40.9669 35.2914V31.7935C40.9669 31.4065 40.6532 31.0928 40.2662 31.0928Z" stroke="#191816" stroke-width="0.5" stroke-linecap="round" stroke-linejoin="round"/>
<path d="M36.7683 35.9921V31.0928H33.971V35.9921H36.7683Z" fill="#C8FFA1" stroke="#191816" stroke-width="0.5" stroke-linecap="round" stroke-linejoin="round"/>
<path d="M30.12 12.5224C33.6179 10.7734 34.6662 13.5099 34.6662 16.0203C34.6662 18.5306 32.5696 22.0893 30.12 19.9651C27.6703 22.0672 25.5572 18.5306 25.5572 15.9982C25.5572 13.4658 26.6221 10.7734 30.12 12.5224Z" fill="#FF6242"/>
<path d="M30.12 13.9564C31.7351 13.9259 33.3179 14.4109 34.6386 15.3412C34.4566 13.0516 33.3034 10.9274 30.12 12.5219C26.9366 10.9329 25.7834 13.0736 25.6014 15.3412C26.9224 14.4116 28.505 13.9266 30.12 13.9564Z" fill="#FF866E"/>
<path d="M30.12 12.5224C33.6179 10.7734 34.6662 13.5099 34.6662 16.0203C34.6662 18.5306 32.5696 22.0893 30.12 19.9651C27.6703 22.0672 25.5572 18.5306 25.5572 15.9982C25.5572 13.4658 26.6221 10.7734 30.12 12.5224Z" stroke="#191816" stroke-width="0.5" stroke-linecap="round" stroke-linejoin="round"/>
<path d="M32.5696 7.74953C32.5696 7.74953 33.2152 8.64333 32.1945 10.0668C31.1738 11.4902 30.12 11.1702 30.12 11.1702C30.12 11.1702 29.4745 10.2764 30.4896 8.85298C31.5048 7.42953 32.5696 7.74953 32.5696 7.74953Z" fill="#6DD627" stroke="#191816" stroke-width="0.5" stroke-linecap="round" stroke-linejoin="round"/>
<path d="M40.2662 30.3981H38.8648V24.8257C38.8648 24.6399 38.9386 24.4616 39.07 24.3302C39.2015 24.1988 39.3797 24.125 39.5655 24.125C39.7513 24.125 39.9296 24.1988 40.061 24.3302C40.1924 24.4616 40.2662 24.6399 40.2662 24.8257V30.3981Z" fill="#00C9D4" stroke="#191816" stroke-width="0.5" stroke-linecap="round" stroke-linejoin="round"/>
<path d="M40.2662 25.4985H38.8648V26.8999H40.2662V25.4985Z" fill="#656769" stroke="#191816" stroke-width="0.5" stroke-linecap="round" stroke-linejoin="round"/>
<path d="M39.5655 23.0542V24.1025" stroke="#191816" stroke-width="0.5" stroke-linecap="round" stroke-linejoin="round"/>
<path d="M40.2662 24.8257H40.4538C40.6865 24.8257 40.9096 24.9181 41.0741 25.0826C41.2386 25.2471 41.331 25.4703 41.331 25.7029V26.5746" stroke="#191816" stroke-width="0.5" stroke-linecap="round" stroke-linejoin="round"/>
<path d="M38.3683 30.3979L36.989 24.9248L35.2952 25.3496L36.5641 30.3979H38.3683Z" fill="#FFE500" stroke="#191816" stroke-width="0.5" stroke-linecap="round" stroke-linejoin="round"/>
<path d="M36.9904 24.9283L35.2943 25.355L35.6362 26.714L37.3323 26.2874L36.9904 24.9283Z" fill="#E0E0E0" stroke="#191816" stroke-width="0.5" stroke-linecap="round" stroke-linejoin="round"/>
<path d="M35.3992 23.5203L36.0253 23.3629C36.1672 23.3272 36.3175 23.3494 36.443 23.4245C36.5686 23.4997 36.6592 23.6216 36.6949 23.7635L36.9867 24.9246L35.2905 25.351L34.9987 24.1899C34.963 24.048 34.9852 23.8977 35.0603 23.7721C35.1354 23.6465 35.2573 23.556 35.3992 23.5203Z" fill="#FF6242" stroke="#191816" stroke-width="0.5" stroke-linecap="round" stroke-linejoin="round"/>
<path d="M43.4938 30.3979L44.7352 26.2158L42.3903 25.5151L40.9393 30.3979H43.4938Z" fill="white" stroke="#191816" stroke-width="0.5" stroke-linecap="round" stroke-linejoin="round"/>
<path d="M44.7352 26.2157L42.3904 25.515L42.589 24.8474L43.4607 24.3784L44.4648 24.6763L44.9338 25.5426L44.7352 26.2157Z" fill="#FF6242" stroke="#191816" stroke-width="0.5" stroke-linecap="round" stroke-linejoin="round"/>
<path d="M36.04 30.3979H43.7641V36.9635C43.7641 37.2561 43.6479 37.5368 43.4409 37.7437C43.234 37.9507 42.9533 38.0669 42.6607 38.0669H37.1434C36.8508 38.0669 36.5701 37.9507 36.3632 37.7437C36.1562 37.5368 36.04 37.2561 36.04 36.9635V30.3979Z" fill="#DAEDF7"/>
<path d="M42.3628 36.6929H37.4634C37.0956 36.6915 36.743 36.5455 36.4819 36.2864C36.2207 36.0273 36.0719 35.6759 36.0676 35.3081V36.7095C36.0776 37.073 36.2291 37.4182 36.4898 37.6716C36.7505 37.9251 37.0998 38.0669 37.4634 38.0667H42.3628C42.7297 38.0668 43.082 37.9229 43.344 37.6661C43.6061 37.4092 43.7569 37.0598 43.7641 36.6929V35.3081C43.7598 35.6769 43.6102 36.0291 43.3479 36.2883C43.0855 36.5476 42.7316 36.693 42.3628 36.6929Z" fill="#ADC4D9"/>
<path d="M36.04 30.3979H43.7641V36.9635C43.7641 37.2561 43.6479 37.5368 43.4409 37.7437C43.234 37.9507 42.9533 38.0669 42.6607 38.0669H37.1434C36.8508 38.0669 36.5701 37.9507 36.3632 37.7437C36.1562 37.5368 36.04 37.2561 36.04 36.9635V30.3979Z" stroke="#191816" stroke-width="0.5" stroke-linecap="round" stroke-linejoin="round"/>
<path d="M41.6621 30.3979H38.1641V38.0945H41.6621V30.3979Z" stroke="#191816" stroke-width="0.5" stroke-linecap="round" stroke-linejoin="round"/>
</svg>
