<svg width="48" height="48" viewBox="0 0 48 48" fill="none" xmlns="http://www.w3.org/2000/svg">
<g filter="url(#filter0_d_2046_208817)">
<circle cx="24" cy="20" r="20" fill="#B05056"/>
</g>
<mask id="mask0_2046_208817" style="mask-type:alpha" maskUnits="userSpaceOnUse" x="4" y="0" width="40" height="40">
<circle cx="24" cy="20" r="20" fill="#B05056"/>
</mask>
<g mask="url(#mask0_2046_208817)">
<path opacity="0.15" d="M32.624 37.9383C32.624 38.509 29.5307 38.977 25.7183 38.977C21.9058 38.977 18.8125 38.509 18.8125 37.9383C18.8125 37.3676 21.9001 36.9053 25.7183 36.9053C29.5364 36.9053 32.624 37.3676 32.624 37.9383Z" fill="#191816"/>
<path d="M10.4291 15.1499H15.5086C15.6599 15.1499 15.8051 15.21 15.9121 15.3171C16.0192 15.4241 16.0793 15.5693 16.0793 15.7206V28.9614H9.8584V15.7206C9.8584 15.5693 9.91853 15.4241 10.0256 15.3171C10.1326 15.21 10.2778 15.1499 10.4291 15.1499Z" fill="#FFCEBF" stroke="#191816" stroke-width="0.8" stroke-linecap="round" stroke-linejoin="round"/>
<path d="M36.4591 17H40.5409C40.6626 17 40.7794 17.0615 40.8655 17.1709C40.9516 17.2803 41 17.4287 41 17.5834V29H36V17.5834C36 17.4287 36.0484 17.2803 36.1345 17.1709C36.2206 17.0615 36.3374 17 36.4591 17Z" fill="#FFCEBF" stroke="#191816" stroke-width="0.8" stroke-linecap="round" stroke-linejoin="round"/>
<path d="M34.9455 27.9422L32.0156 30.8721L35.4338 34.2902L38.3637 31.3604L34.9455 27.9422Z" fill="#FFCEBF" stroke="#191816" stroke-width="0.8" stroke-linecap="round" stroke-linejoin="round"/>
<path d="M47.2005 37.2195C47.6867 37.7434 47.9508 38.4354 47.9374 39.15C47.924 39.8646 47.6342 40.5462 47.1288 41.0515C46.6235 41.5569 45.9419 41.8467 45.2273 41.8601C44.5127 41.8735 43.8207 41.6094 43.2968 41.1233L37.4355 35.2676C37.3072 35.1365 37.2354 34.9603 37.2354 34.7768C37.2354 34.5933 37.3072 34.4172 37.4355 34.286L40.3633 31.3582C40.4928 31.2289 40.6683 31.1562 40.8512 31.1562C41.0342 31.1562 41.2097 31.2289 41.3392 31.3582L47.2005 37.2195Z" fill="#BF8256"/>
<path d="M40.3644 31.3582L38.9033 32.8249C38.967 32.7602 39.043 32.7088 39.1268 32.6738C39.2106 32.6387 39.3005 32.6206 39.3913 32.6206C39.4821 32.6206 39.572 32.6387 39.6558 32.6738C39.7396 32.7088 39.8155 32.7602 39.8793 32.8249L45.7406 38.6806C46.1263 39.0717 46.3866 39.569 46.4882 40.1088C46.5899 40.6486 46.5283 41.2065 46.3113 41.7111C46.6398 41.5821 46.9388 41.388 47.1902 41.1404C47.447 40.8843 47.6507 40.5801 47.7897 40.2452C47.9287 39.9102 48.0003 39.5511 48.0003 39.1885C48.0003 38.8259 47.9287 38.4668 47.7897 38.1319C47.6507 37.7969 47.447 37.4927 47.1902 37.2366L41.3403 31.3582C41.2108 31.2289 41.0353 31.1562 40.8523 31.1562C40.6694 31.1562 40.4939 31.2289 40.3644 31.3582Z" fill="#DEA47A"/>
<path d="M47.2005 37.2195C47.6867 37.7434 47.9508 38.4354 47.9374 39.15C47.924 39.8646 47.6342 40.5462 47.1288 41.0515C46.6235 41.5569 45.9419 41.8467 45.2273 41.8601C44.5127 41.8735 43.8207 41.6094 43.2968 41.1233L37.4355 35.2676C37.3072 35.1365 37.2354 34.9603 37.2354 34.7768C37.2354 34.5933 37.3072 34.4172 37.4355 34.286L40.3633 31.3582C40.4928 31.2289 40.6683 31.1562 40.8512 31.1562C41.0342 31.1562 41.2097 31.2289 41.3392 31.3582L47.2005 37.2195Z" stroke="#191816" stroke-width="0.8" stroke-linecap="round" stroke-linejoin="round"/>
<path d="M23.7179 34.1434C31.7272 34.1434 38.22 27.6505 38.22 19.6413C38.22 11.632 31.7272 5.13916 23.7179 5.13916C15.7086 5.13916 9.21582 11.632 9.21582 19.6413C9.21582 27.6505 15.7086 34.1434 23.7179 34.1434Z" fill="#FFCEBF"/>
<path d="M23.7179 7.90113C27.3248 7.90203 30.8019 9.24756 33.4698 11.6749C36.1378 14.1022 37.805 17.437 38.1458 21.0278C38.1915 20.5712 38.22 20.1089 38.22 19.6466C38.22 15.8004 36.6921 12.1118 33.9724 9.3921C31.2528 6.67243 27.5641 5.14453 23.7179 5.14453C19.8717 5.14453 16.1831 6.67243 13.4634 9.3921C10.7437 12.1118 9.21582 15.8004 9.21582 19.6466C9.21582 20.1089 9.21582 20.5712 9.28431 21.0278C9.62521 17.436 11.2932 14.1004 13.9624 11.673C16.6316 9.24551 20.11 7.90061 23.7179 7.90113V7.90113Z" fill="white"/>
<path d="M23.7179 34.1434C31.7272 34.1434 38.22 27.6505 38.22 19.6413C38.22 11.632 31.7272 5.13916 23.7179 5.13916C15.7086 5.13916 9.21582 11.632 9.21582 19.6413C9.21582 27.6505 15.7086 34.1434 23.7179 34.1434Z" stroke="#191816" stroke-width="0.8" stroke-linecap="round" stroke-linejoin="round"/>
<path d="M34.8035 22.2549C36.2487 16.1317 32.4565 9.99633 26.3333 8.55112C20.2101 7.10592 14.0747 10.8982 12.6295 17.0214C11.1843 23.1446 14.9765 29.28 21.0997 30.7252C27.2229 32.1704 33.3583 28.3781 34.8035 22.2549Z" fill="#E66971"/>
<path d="M23.7182 8.24318C21.469 8.25261 19.2727 8.92635 17.4051 10.1798C15.5374 11.4332 14.0818 13.2105 13.2208 15.2885C12.3599 17.3664 12.1321 19.6524 12.566 21.8594C12.9998 24.0664 14.0761 26.0961 15.6596 27.6935L31.7711 11.5705C30.7139 10.5131 29.4584 9.67486 28.0764 9.10387C26.6945 8.53289 25.2134 8.2404 23.7182 8.24318Z" fill="#FDA18F"/>
<path d="M34.8035 22.2549C36.2487 16.1317 32.4565 9.99633 26.3333 8.55112C20.2101 7.10592 14.0747 10.8982 12.6295 17.0214C11.1843 23.1446 14.9765 29.28 21.0997 30.7252C27.2229 32.1704 33.3583 28.3781 34.8035 22.2549Z" stroke="#191816" stroke-width="0.8" stroke-linecap="round" stroke-linejoin="round"/>
<path d="M10.1155 28.9612H3.60352V25.3998L6.86235 22.6318L10.1155 25.3998V28.9612Z" fill="#FFCEBF" stroke="#191816" stroke-width="0.8" stroke-linecap="round" stroke-linejoin="round"/>
<path d="M10.1606 25.8391C9.99753 25.8369 9.84028 25.7784 9.71539 25.6736L6.90743 23.288L4.09376 25.6964C3.9528 25.7978 3.77883 25.8424 3.60649 25.8212C3.43416 25.8001 3.27611 25.7148 3.16383 25.5824C3.05155 25.4499 2.99328 25.2801 3.00062 25.1066C3.00796 24.9331 3.08037 24.7688 3.20343 24.6463L6.43373 21.8783C6.55817 21.7707 6.71721 21.7114 6.88175 21.7114C7.04628 21.7114 7.20532 21.7707 7.32976 21.8783L10.5886 24.6463C10.658 24.7045 10.7151 24.7759 10.7567 24.8563C10.7983 24.9367 10.8235 25.0245 10.831 25.1148C10.8384 25.205 10.8279 25.2958 10.8 25.3819C10.7721 25.468 10.7274 25.5478 10.6685 25.6165C10.6036 25.6865 10.525 25.7423 10.4376 25.7806C10.3503 25.8189 10.256 25.8388 10.1606 25.8391V25.8391Z" fill="#FFCEBF" stroke="#191816" stroke-width="0.8" stroke-linejoin="round"/>
<path d="M7.74733 28.9608H6.03516V27.4084C6.06843 27.2053 6.17279 27.0207 6.3296 26.8875C6.48642 26.7543 6.68548 26.6812 6.89124 26.6812C7.097 26.6812 7.29607 26.7543 7.45288 26.8875C7.6097 27.0207 7.71406 27.2053 7.74733 27.4084V28.9608Z" fill="#FFCEBF" stroke="#191816" stroke-width="0.8" stroke-linejoin="round"/>
<path d="M47.4705 25.1656C47.4705 25.6235 47.2886 26.0626 46.9648 26.3864C46.641 26.7102 46.2019 26.8921 45.744 26.8921C45.2861 26.8921 44.847 26.7102 44.5232 26.3864C44.1995 26.0626 44.0176 25.6235 44.0176 25.1656C44.0176 24.3837 45.159 20.6569 45.5928 19.3157C45.6035 19.2842 45.6239 19.2568 45.651 19.2374C45.6782 19.218 45.7107 19.2075 45.744 19.2075C45.7774 19.2075 45.8099 19.218 45.837 19.2374C45.8641 19.2568 45.8845 19.2842 45.8953 19.3157C46.3176 20.6569 47.4705 24.3837 47.4705 25.1656Z" fill="#FFCEBF" stroke="#191816" stroke-width="0.8" stroke-linecap="round" stroke-linejoin="round"/>
<path d="M23.719 31.0328C26.0588 31.0326 28.342 30.3134 30.2595 28.9725C29.8157 27.5802 28.9406 26.365 27.7608 25.5028C26.581 24.6405 25.1575 24.1758 23.6961 24.1758C22.2348 24.1758 20.8113 24.6405 19.6315 25.5028C18.4516 26.365 17.5766 27.5802 17.1328 28.9725C19.0603 30.3278 21.3627 31.0481 23.719 31.0328Z" fill="#FDA18F" stroke="#191816" stroke-width="0.8" stroke-linecap="round" stroke-linejoin="round"/>
<path d="M23.7075 22.9455C24.5701 22.9434 25.4094 22.6652 26.1026 22.1518C26.7958 21.6383 27.3064 20.9165 27.5599 20.0919V20.0919C28.844 20.0919 28.9182 18.0659 27.7653 18.0659V17.2783C27.726 16.2291 27.2815 15.2361 26.5254 14.5078C25.7692 13.7795 24.7602 13.3726 23.7103 13.3726C22.6605 13.3726 21.6515 13.7795 20.8953 14.5078C20.1392 15.2361 19.6947 16.2291 19.6553 17.2783V18.0887C18.5139 18.0887 18.5767 20.1148 19.8608 20.1148C20.1172 20.9346 20.6285 21.6513 21.3203 22.1604C22.0122 22.6695 22.8485 22.9446 23.7075 22.9455V22.9455Z" fill="#FFDCD1" stroke="#191816" stroke-width="0.8" stroke-linecap="round" stroke-linejoin="round"/>
<path d="M22.3898 17.6783C22.2893 17.6783 22.1911 17.708 22.1076 17.7639C22.0241 17.8197 21.9589 17.899 21.9205 17.9918C21.8821 18.0846 21.872 18.1868 21.8916 18.2853C21.9112 18.3838 21.9596 18.4743 22.0306 18.5454C22.1016 18.6164 22.1922 18.6648 22.2907 18.6844C22.3892 18.704 22.4913 18.6939 22.5842 18.6555C22.677 18.617 22.7563 18.5519 22.8121 18.4684C22.8679 18.3849 22.8977 18.2867 22.8977 18.1862C22.8985 18.1193 22.8859 18.0529 22.8606 17.9909C22.8354 17.9289 22.798 17.8726 22.7507 17.8253C22.7033 17.778 22.647 17.7406 22.5851 17.7154C22.5231 17.6901 22.4567 17.6775 22.3898 17.6783V17.6783Z" fill="#191816"/>
<path d="M25.0255 17.6782C24.9251 17.6782 24.8269 17.708 24.7433 17.7638C24.6598 17.8196 24.5947 17.899 24.5562 17.9918C24.5178 18.0846 24.5077 18.1867 24.5273 18.2853C24.5469 18.3838 24.5953 18.4743 24.6664 18.5453C24.7374 18.6164 24.8279 18.6648 24.9264 18.6844C25.025 18.7039 25.1271 18.6939 25.2199 18.6554C25.3127 18.617 25.392 18.5519 25.4479 18.4684C25.5037 18.3848 25.5335 18.2866 25.5335 18.1862C25.5335 18.1195 25.5203 18.0534 25.4948 17.9918C25.4693 17.9302 25.4319 17.8742 25.3847 17.827C25.3375 17.7798 25.2815 17.7424 25.2199 17.7169C25.1583 17.6914 25.0922 17.6782 25.0255 17.6782V17.6782Z" fill="#191816"/>
<path d="M21.6815 19.2993C21.6815 19.3794 21.6578 19.4577 21.6132 19.5244C21.5687 19.591 21.5054 19.643 21.4314 19.6736C21.3573 19.7043 21.2759 19.7123 21.1973 19.6967C21.1187 19.681 21.0464 19.6425 20.9898 19.5858C20.9331 19.5291 20.8945 19.4569 20.8789 19.3783C20.8632 19.2997 20.8713 19.2182 20.9019 19.1442C20.9326 19.0701 20.9845 19.0069 21.0512 18.9623C21.1178 18.9178 21.1962 18.894 21.2763 18.894C21.3838 18.894 21.4868 18.9367 21.5628 19.0127C21.6388 19.0887 21.6815 19.1918 21.6815 19.2993V19.2993Z" fill="#FFCEBF"/>
<path d="M26.5438 19.2993C26.5438 19.3794 26.5201 19.4577 26.4755 19.5244C26.431 19.591 26.3677 19.643 26.2937 19.6736C26.2196 19.7043 26.1382 19.7123 26.0596 19.6967C25.981 19.681 25.9088 19.6425 25.8521 19.5858C25.7954 19.5291 25.7568 19.4569 25.7412 19.3783C25.7255 19.2997 25.7336 19.2182 25.7642 19.1442C25.7949 19.0701 25.8469 19.0069 25.9135 18.9623C25.9801 18.9178 26.0585 18.894 26.1386 18.894C26.2461 18.894 26.3492 18.9367 26.4251 19.0127C26.5011 19.0887 26.5438 19.1918 26.5438 19.2993V19.2993Z" fill="#FFCEBF"/>
<path d="M22.6963 20.5547C22.9968 20.7533 23.3491 20.8591 23.7093 20.8591C24.0695 20.8591 24.4218 20.7533 24.7224 20.5547" stroke="#191816" stroke-width="0.8" stroke-linecap="round" stroke-linejoin="round"/>
<path d="M21.4884 15.6407C23.2633 17.3528 26.3281 17.0789 28.1772 16.4568C28.1359 15.3015 27.6479 14.2073 26.816 13.4046C25.984 12.6019 24.8731 12.1533 23.717 12.1533C22.561 12.1533 21.45 12.6019 20.6181 13.4046C19.7862 14.2073 19.2982 15.3015 19.2568 16.4568V17.8494C19.2568 17.8494 21.4884 17.2787 21.4884 15.6178" fill="#FDA18F"/>
<path d="M21.4884 15.6407C23.2633 17.3528 26.3281 17.0789 28.1772 16.4568C28.1359 15.3015 27.6479 14.2073 26.816 13.4046C25.984 12.6019 24.8731 12.1533 23.717 12.1533C22.561 12.1533 21.45 12.6019 20.6181 13.4046C19.7862 14.2073 19.2982 15.3015 19.2568 16.4568V17.8494C19.2568 17.8494 21.4884 17.2787 21.4884 15.6178" stroke="#191816" stroke-width="0.8" stroke-linecap="round" stroke-linejoin="round"/>
<path d="M23.7199 13.9685C24.5726 13.9699 25.4069 14.2166 26.1234 14.679C26.8398 15.1415 27.4081 15.8002 27.7606 16.5767C27.9033 16.5367 28.046 16.5025 28.1772 16.4568C28.1359 15.3015 27.6479 14.2073 26.816 13.4046C25.984 12.6019 24.8731 12.1533 23.717 12.1533C22.561 12.1533 21.45 12.6019 20.6181 13.4046C19.7862 14.2073 19.2982 15.3015 19.2568 16.4568V17.8494H19.3196C19.4557 16.778 19.9775 15.793 20.7874 15.0786C21.5974 14.3642 22.6399 13.9696 23.7199 13.9685V13.9685Z" fill="#B05056"/>
<path d="M21.4884 15.6407C23.2633 17.3528 26.3281 17.0789 28.1772 16.4568C28.1359 15.3015 27.6479 14.2073 26.816 13.4046C25.984 12.6019 24.8731 12.1533 23.717 12.1533C22.561 12.1533 21.45 12.6019 20.6181 13.4046C19.7862 14.2073 19.2982 15.3015 19.2568 16.4568V17.8494C19.2568 17.8494 21.4884 17.2787 21.4884 15.6178" stroke="#191816" stroke-width="0.8" stroke-linecap="round" stroke-linejoin="round"/>
<path d="M21.4872 15.6406C21.2818 15.4408 21.2532 15.4751 21.082 15.2183" stroke="#191816" stroke-width="0.8" stroke-linecap="round" stroke-linejoin="round"/>
<path d="M28.165 30.1314V29.0698" stroke="#191816" stroke-width="0.8" stroke-linecap="round" stroke-linejoin="round"/>
<path d="M19.2432 30.1257V29.0698" stroke="#191816" stroke-width="0.8" stroke-linecap="round" stroke-linejoin="round"/>
<path d="M25.727 24.5042C24.4084 24.1008 22.9992 24.1008 21.6806 24.5042C21.666 24.7789 21.7075 25.0537 21.8026 25.3119C21.8977 25.5701 22.0443 25.8061 22.2336 26.0058C22.4229 26.2054 22.6509 26.3644 22.9037 26.473C23.1564 26.5817 23.4287 26.6377 23.7038 26.6377C23.9789 26.6377 24.2512 26.5817 24.5039 26.473C24.7567 26.3644 24.9847 26.2054 25.174 26.0058C25.3633 25.8061 25.5099 25.5701 25.605 25.3119C25.7001 25.0537 25.7416 24.7789 25.727 24.5042V24.5042Z" fill="#FFDCD1" stroke="#191816" stroke-width="0.8" stroke-linecap="round" stroke-linejoin="round"/>
</g>
<defs>
<filter id="filter0_d_2046_208817" x="0" y="0" width="48" height="48" filterUnits="userSpaceOnUse" color-interpolation-filters="sRGB">
<feFlood flood-opacity="0" result="BackgroundImageFix"/>
<feColorMatrix in="SourceAlpha" type="matrix" values="0 0 0 0 0 0 0 0 0 0 0 0 0 0 0 0 0 0 127 0" result="hardAlpha"/>
<feOffset dy="4"/>
<feGaussianBlur stdDeviation="2"/>
<feComposite in2="hardAlpha" operator="out"/>
<feColorMatrix type="matrix" values="0 0 0 0 0 0 0 0 0 0 0 0 0 0 0 0 0 0 0.15 0"/>
<feBlend mode="normal" in2="BackgroundImageFix" result="effect1_dropShadow_2046_208817"/>
<feBlend mode="normal" in="SourceGraphic" in2="effect1_dropShadow_2046_208817" result="shape"/>
</filter>
</defs>
</svg>
