<svg width="17" height="17" viewBox="0 0 17 17" fill="none" xmlns="http://www.w3.org/2000/svg">
<path d="M8.21355 15.5832C4.47201 15.5832 1.43909 12.412 1.43909 8.49984C1.43909 4.58771 4.47201 1.4165 8.21355 1.4165C11.9551 1.4165 14.988 4.58771 14.988 8.49984C14.9839 12.4098 11.953 15.5789 8.21355 15.5832ZM8.21355 2.83317C7.14166 2.83317 6.09384 3.16551 5.2026 3.78818C4.31135 4.41084 3.61671 5.29585 3.20652 6.3313C2.79632 7.36675 2.689 8.50612 2.89811 9.60535C3.10723 10.7046 3.62339 11.7143 4.38133 12.5068C5.13927 13.2993 6.10495 13.839 7.15624 14.0576C8.20753 14.2763 9.29723 14.1641 10.2875 13.7352C11.2778 13.3063 12.1242 12.5799 12.7198 11.6481C13.3153 10.7162 13.6331 9.6206 13.6331 8.49984C13.6315 6.99746 13.06 5.5571 12.044 4.49476C11.028 3.43242 9.65041 2.83486 8.21355 2.83317ZM11.6008 9.20817H7.5361V4.95817H8.89099V7.7915H11.6008V9.20817Z" fill="#28C497"/>
</svg>
