<svg width="49" height="30" viewBox="0 0 49 30" fill="none" xmlns="http://www.w3.org/2000/svg">
<path d="M44.7831 12.8035C45.1315 11.3749 45.0289 9.87316 44.4896 8.50565C43.9504 7.13814 43.001 5.97243 41.7728 5.16961C40.5446 4.36679 39.0981 3.9665 37.6333 4.02407C36.1685 4.08163 34.7577 4.59421 33.5958 5.49096C31.7068 3.27489 29.1871 1.69178 26.3751 0.954262C23.5631 0.216747 20.5934 0.360148 17.865 1.3652C15.1366 2.37026 12.7801 4.18883 11.112 6.57667C9.44389 8.96451 8.54409 11.8073 8.53344 14.7231C8.53344 14.7231 8.53344 14.7856 8.53344 14.8124C8.23881 14.7649 7.94161 14.7351 7.64344 14.7231C5.7551 14.7231 3.9441 15.4757 2.60884 16.8152C1.27358 18.1547 0.523438 19.9716 0.523438 21.866C0.523438 23.7604 1.27358 25.5772 2.60884 26.9167C3.9441 28.2563 5.7551 29.0088 7.64344 29.0088H39.63C41.5123 28.9997 43.3433 28.392 44.8597 27.2733C46.3761 26.1546 47.4999 24.5823 48.0695 22.7825C48.6392 20.9827 48.6254 19.048 48.0301 17.2566C47.4348 15.4652 46.2887 13.9092 44.7564 12.8124L44.7831 12.8035Z" fill="white"/>
<path d="M39.6301 24.357H7.5901C6.10939 24.3541 4.66642 23.8881 3.46205 23.0239C2.25768 22.1598 1.35183 20.9404 0.870604 19.5356C0.612495 20.2791 0.480136 21.0607 0.479004 21.8481C0.479004 23.7425 1.22914 25.5593 2.5644 26.8988C3.89966 28.2384 5.71066 28.9909 7.599 28.9909H39.6301C40.993 28.988 42.337 28.6711 43.5585 28.0646C44.78 27.4582 45.8464 26.5784 46.6754 25.4931C47.5044 24.4079 48.0738 23.1461 48.3398 21.8051C48.6059 20.4641 48.5613 19.0798 48.2097 17.7588C47.6998 19.6508 46.5835 21.322 45.0329 22.5144C43.4824 23.7069 41.5838 24.3544 39.6301 24.357Z" fill="#E8F4FA"/>
<path d="M9.03344 14.7242V14.7241C9.04388 11.9103 9.9123 9.1671 11.5219 6.86301C13.1316 4.55874 15.4055 2.80407 18.0378 1.83438C20.6702 0.864706 23.5353 0.726364 26.2482 1.4379C28.9612 2.14945 31.3925 3.67687 33.2153 5.81531C33.3883 6.01829 33.6902 6.04973 33.9013 5.88678C34.9811 5.05339 36.292 4.57717 37.653 4.52368C39.0139 4.4702 40.3579 4.84208 41.4992 5.58813C42.6406 6.3342 43.5231 7.41769 44.0245 8.68908C44.5096 9.91914 44.6146 11.2661 44.3276 12.5552C44.2946 12.6103 44.2719 12.6722 44.262 12.738C44.2341 12.9238 44.3126 13.1096 44.4654 13.219C45.9115 14.2542 46.9935 15.7229 47.5556 17.4143C48.1176 19.1057 48.1307 20.9323 47.5928 22.6316C47.055 24.3309 45.994 25.815 44.5628 26.871C43.1319 27.9266 41.4045 28.4999 39.6288 28.5088H7.64344C5.88822 28.5088 4.20457 27.8093 2.96296 26.5637C1.72129 25.3181 1.02344 23.6283 1.02344 21.866C1.02344 20.1036 1.72129 18.4138 2.96296 17.1682C4.20221 15.925 5.88181 15.2258 7.63342 15.2231C7.90828 15.2346 8.18224 15.2622 8.45387 15.306C8.59852 15.3293 8.74611 15.288 8.85764 15.193C8.96918 15.098 9.03344 14.9589 9.03344 14.8124V14.8122V14.8121V14.8119V14.8118V14.8116V14.8114V14.8113V14.8111V14.8109V14.8108V14.8106V14.8105V14.8103V14.8101V14.8099V14.8098V14.8096V14.8094V14.8093V14.8091V14.8089V14.8087V14.8086V14.8084V14.8082V14.808V14.8079V14.8077V14.8075V14.8073V14.8072V14.807V14.8068V14.8066V14.8064V14.8062V14.8061V14.8059V14.8057V14.8055V14.8053V14.8051V14.8049V14.8048V14.8046V14.8044V14.8042V14.804V14.8038V14.8036V14.8034V14.8032V14.803V14.8028V14.8026V14.8024V14.8023V14.8021V14.8019V14.8017V14.8015V14.8013V14.8011V14.8009V14.8007V14.8005V14.8003V14.8001V14.7999V14.7997V14.7994V14.7992V14.799V14.7988V14.7986V14.7984V14.7982V14.798V14.7978V14.7976V14.7974V14.7972V14.797V14.7968V14.7965V14.7963V14.7961V14.7959V14.7957V14.7955V14.7953V14.7951V14.7948V14.7946V14.7944V14.7942V14.794V14.7938V14.7936V14.7933V14.7931V14.7929V14.7927V14.7925V14.7923V14.792V14.7918V14.7916V14.7914V14.7912V14.7909V14.7907V14.7905V14.7903V14.79V14.7898V14.7896V14.7894V14.7892V14.7889V14.7887V14.7885V14.7883V14.788V14.7878V14.7876V14.7874V14.7871V14.7869V14.7867V14.7865V14.7862V14.786V14.7858V14.7856V14.7853V14.7851V14.7849V14.7846V14.7844V14.7842V14.784V14.7837V14.7835V14.7833V14.783V14.7828V14.7826V14.7824V14.7821V14.7819V14.7817V14.7814V14.7812V14.781V14.7807V14.7805V14.7803V14.78V14.7798V14.7796V14.7794V14.7791V14.7789V14.7787V14.7784V14.7782V14.778V14.7777V14.7775V14.7773V14.777V14.7768V14.7766V14.7763V14.7761V14.7759V14.7756V14.7754V14.7752V14.7749V14.7747V14.7745V14.7742V14.774V14.7738V14.7735V14.7733V14.7731V14.7728V14.7726V14.7724V14.7721V14.7719V14.7717V14.7714V14.7712V14.771V14.7707V14.7705V14.7703V14.77V14.7698V14.7696V14.7693V14.7691V14.7689V14.7686V14.7684V14.7682V14.768V14.7677V14.7675V14.7673V14.767V14.7668V14.7666V14.7663V14.7661V14.7659V14.7656V14.7654V14.7652V14.765V14.7647V14.7645V14.7643V14.764V14.7638V14.7636V14.7633V14.7631V14.7629V14.7627V14.7624V14.7622V14.762V14.7618V14.7615V14.7613V14.7611V14.7608V14.7606V14.7604V14.7602V14.7599V14.7597V14.7595V14.7593V14.759V14.7588V14.7586V14.7584V14.7581V14.7579V14.7577V14.7575V14.7573V14.757V14.7568V14.7566V14.7564V14.7562V14.7559V14.7557V14.7555V14.7553V14.7551V14.7548V14.7546V14.7544V14.7542V14.754V14.7538V14.7535V14.7533V14.7531V14.7529V14.7527V14.7525V14.7523V14.752V14.7518V14.7516V14.7514V14.7512V14.751V14.7508V14.7506V14.7503V14.7501V14.7499V14.7497V14.7495V14.7493V14.7491V14.7489V14.7487V14.7485V14.7483V14.7481V14.7479V14.7477V14.7475V14.7473V14.7471V14.7469V14.7467V14.7465V14.7463V14.7461V14.7459V14.7457V14.7455V14.7453V14.7451V14.7449V14.7447V14.7445V14.7443V14.7441V14.7439V14.7437V14.7435V14.7433V14.7431V14.743V14.7428V14.7426V14.7424V14.7422V14.742V14.7418V14.7416V14.7415V14.7413V14.7411V14.7409V14.7407V14.7405V14.7404V14.7402V14.74V14.7398V14.7396V14.7395V14.7393V14.7391V14.7389V14.7388V14.7386V14.7384V14.7382V14.7381V14.7379V14.7377V14.7376V14.7374V14.7372V14.7371V14.7369V14.7367V14.7366V14.7364V14.7362V14.7361V14.7359V14.7358V14.7356V14.7354V14.7353V14.7351V14.735V14.7348V14.7346V14.7345V14.7343V14.7342V14.734V14.7339V14.7337V14.7336V14.7334V14.7333V14.7331V14.733V14.7329V14.7327V14.7326V14.7324V14.7323V14.7321V14.732V14.7319V14.7317V14.7316V14.7315V14.7313V14.7312V14.731V14.7309V14.7308V14.7307V14.7305V14.7304V14.7303V14.7301V14.73V14.7299V14.7298V14.7296V14.7295V14.7294V14.7293V14.7292V14.729V14.7289V14.7288V14.7287V14.7286V14.7285V14.7284V14.7283V14.7281V14.728V14.7279V14.7278V14.7277V14.7276V14.7275V14.7274V14.7273V14.7272V14.7271V14.727V14.7269V14.7268V14.7267V14.7266V14.7265V14.7264V14.7264V14.7263V14.7262V14.7261V14.726V14.7259V14.7258V14.7258V14.7257V14.7256V14.7255V14.7254V14.7254V14.7253V14.7252V14.7251V14.7251V14.725V14.7249V14.7249V14.7248V14.7247V14.7247V14.7246V14.7245V14.7245V14.7244V14.7244V14.7243V14.7243V14.7242Z" stroke="#191816" stroke-linecap="round" stroke-linejoin="round"/>
</svg>
