<svg width="283" height="283" viewBox="0 0 283 283" fill="none" xmlns="http://www.w3.org/2000/svg">
<path d="M143.63 267.101C214.754 267.101 272.411 209.444 272.411 138.32C272.411 67.1967 214.754 9.53955 143.63 9.53955C72.5067 9.53955 14.8495 67.1967 14.8495 138.32C14.8495 209.444 72.5067 267.101 143.63 267.101Z" fill="#E8F4FA"/>
<path opacity="0.15" d="M197.305 185.222C197.398 184.923 197.43 184.608 197.401 184.296C197.371 183.983 197.279 183.68 197.131 183.404C196.984 183.127 196.782 182.883 196.539 182.684C196.296 182.486 196.016 182.338 195.715 182.249L170.945 174.729V169.641C170.936 169.008 170.678 168.403 170.225 167.959C169.772 167.515 169.162 167.268 168.528 167.273L155.332 167.432L154.712 165.587C154.623 165.283 154.474 165 154.274 164.754C154.074 164.508 153.826 164.305 153.546 164.157C153.266 164.009 152.958 163.918 152.643 163.891C152.327 163.863 152.009 163.9 151.707 163.997L141.087 167.495L118.447 167.75C118.124 167.749 117.804 167.814 117.508 167.941C117.211 168.068 116.943 168.254 116.72 168.487C116.497 168.72 116.323 168.996 116.21 169.299C116.097 169.601 116.047 169.923 116.062 170.246V175.826L104.058 179.801C103.754 179.89 103.47 180.039 103.225 180.239C102.979 180.439 102.776 180.687 102.628 180.967C102.479 181.247 102.389 181.554 102.362 181.87C102.334 182.186 102.37 182.504 102.468 182.806L116.523 225.351L116.682 239.406C116.685 239.732 116.756 240.053 116.888 240.351C117.021 240.648 117.213 240.916 117.453 241.136C117.692 241.357 117.975 241.526 118.283 241.633C118.59 241.74 118.917 241.783 119.242 241.759H122.087L124.313 248.5C124.412 248.798 124.569 249.073 124.774 249.31C124.979 249.547 125.23 249.742 125.51 249.882C125.791 250.022 126.096 250.106 126.409 250.128C126.722 250.15 127.037 250.11 127.334 250.01L145.061 244.16L174.252 253.015C174.551 253.108 174.866 253.141 175.179 253.111C175.491 253.081 175.794 252.989 176.07 252.842C176.347 252.694 176.592 252.492 176.79 252.249C176.988 252.006 177.136 251.726 177.225 251.425L197.305 185.222Z" fill="#191816"/>
<path opacity="0.15" d="M196.764 77.2051H91.8319C86.5635 77.2051 82.2926 81.476 82.2926 86.7444V153.52C82.2926 158.788 86.5635 163.059 91.8319 163.059H196.764C202.033 163.059 206.304 158.788 206.304 153.52V86.7444C206.304 81.476 202.033 77.2051 196.764 77.2051Z" fill="#191816"/>
<path opacity="0.15" d="M57.1462 133.908L38.1811 143.958C35.8535 145.192 34.9665 148.078 36.1999 150.406L57.4166 190.444C58.6501 192.771 61.5369 193.658 63.8644 192.425L82.8296 182.375C85.1572 181.141 86.0442 178.254 84.8108 175.927L63.5941 135.889C62.3606 133.562 59.4738 132.675 57.1462 133.908Z" fill="#191816"/>
<path d="M209.325 23.5464H79.2877C77.6858 23.5445 76.1151 23.99 74.7527 24.8327C73.3904 25.6754 72.2904 26.8818 71.5768 28.3161V30.7009H217.051V28.3161C216.334 26.8817 215.231 25.6757 213.866 24.8333C212.501 23.9908 210.928 23.5452 209.325 23.5464Z" fill="#C0DCEB" stroke="#191816" stroke-linecap="round" stroke-linejoin="round"/>
<path d="M197.432 76.0126H91.1801C89.8153 76.0133 88.4789 75.6229 87.3292 74.8874C86.1795 74.152 85.2648 73.1024 84.6933 71.863L71.7517 31.6229C71.6035 31.2594 71.5467 30.8651 71.5863 30.4746C71.6258 30.084 71.7606 29.7091 71.9787 29.3827C72.1968 29.0564 72.4916 28.7884 72.8373 28.6025C73.183 28.4165 73.5691 28.3181 73.9616 28.3159H214.635C215.029 28.3142 215.417 28.4101 215.765 28.595C216.113 28.7799 216.409 29.0481 216.628 29.3757C216.847 29.7032 216.982 30.0799 217.019 30.4721C217.057 30.8642 216.997 31.2596 216.845 31.6229L203.935 71.863C203.359 73.1024 202.441 74.1515 201.289 74.8867C200.137 75.6219 198.799 76.0125 197.432 76.0126Z" fill="#00B8F0"/>
<path d="M115.696 76.0126L163.107 28.3159H73.9616C73.5691 28.3181 73.183 28.4164 72.8373 28.6024C72.4916 28.7884 72.1968 29.0563 71.9787 29.3827C71.7606 29.7091 71.6258 30.084 71.5863 30.4745C71.5467 30.8651 71.6035 31.2594 71.7517 31.6229L84.6933 71.8629C85.2648 73.1023 86.1795 74.1519 87.3292 74.8874C88.4789 75.6228 89.8153 76.0133 91.1801 76.0126H115.696Z" fill="#4ACFFF"/>
<path d="M197.432 76.0126H91.1801C89.8153 76.0133 88.4789 75.6229 87.3292 74.8874C86.1795 74.152 85.2648 73.1024 84.6933 71.863L71.7517 31.6229C71.6035 31.2594 71.5467 30.8651 71.5863 30.4746C71.6258 30.084 71.7606 29.7091 71.9787 29.3827C72.1968 29.0564 72.4916 28.7884 72.8373 28.6025C73.183 28.4165 73.5691 28.3181 73.9616 28.3159H214.635C215.029 28.3142 215.417 28.4101 215.765 28.595C216.113 28.7799 216.409 29.0481 216.628 29.3757C216.847 29.7032 216.982 30.0799 217.019 30.4721C217.057 30.8642 216.997 31.2596 216.845 31.6229L203.935 71.863C203.359 73.1024 202.441 74.1515 201.289 74.8867C200.137 75.6219 198.799 76.0125 197.432 76.0126V76.0126Z" stroke="#191816" stroke-linecap="round" stroke-linejoin="round"/>
<path d="M197.432 76.0126H91.1801C89.8153 76.0133 88.4789 75.6229 87.3292 74.8874C86.1795 74.152 85.2648 73.1024 84.6933 71.863L71.7517 31.6229C71.6035 31.2594 71.5467 30.8651 71.5863 30.4746C71.6258 30.084 71.7606 29.7091 71.9787 29.3827C72.1968 29.0564 72.4916 28.7884 72.8373 28.6025C73.183 28.4165 73.5691 28.3181 73.9616 28.3159H214.635C215.029 28.3142 215.417 28.4101 215.765 28.595C216.113 28.7799 216.409 29.0481 216.628 29.3757C216.847 29.7032 216.982 30.0799 217.019 30.4721C217.057 30.8642 216.997 31.2596 216.845 31.6229L203.935 71.863C203.359 73.1024 202.441 74.1515 201.289 74.8867C200.137 75.6219 198.799 76.0125 197.432 76.0126V76.0126Z" stroke="#191816" stroke-linecap="round" stroke-linejoin="round"/>
<path d="M197.973 73.6279H90.6554C86.7041 73.6279 83.5009 76.8311 83.5009 80.7824V147.558C83.5009 151.509 86.7041 154.712 90.6554 154.712H197.973C201.924 154.712 205.127 151.509 205.127 147.558V80.7824C205.127 76.8311 201.924 73.6279 197.973 73.6279Z" fill="#C0DCEB" stroke="#191816" stroke-linecap="round" stroke-linejoin="round"/>
<path d="M190.818 73.6279H97.8099V83.1672H190.818V73.6279Z" stroke="#191816" stroke-linecap="round" stroke-linejoin="round"/>
<path d="M190.818 73.6279H97.8099V78.3976H190.818V73.6279Z" fill="#656769" stroke="#191816" stroke-linecap="round" stroke-linejoin="round"/>
<path d="M155.046 128.479H133.582C132.265 128.479 131.198 129.547 131.198 130.864V145.173C131.198 146.49 132.265 147.558 133.582 147.558H155.046C156.363 147.558 157.431 146.49 157.431 145.173V130.864C157.431 129.547 156.363 128.479 155.046 128.479Z" fill="#E8F4FA" stroke="#191816" stroke-linecap="round" stroke-linejoin="round"/>
<path d="M188.433 87.937H100.195C98.8776 87.937 97.8099 89.0047 97.8099 90.3218V121.325C97.8099 122.642 98.8776 123.71 100.195 123.71H188.433C189.751 123.71 190.818 122.642 190.818 121.325V90.3218C190.818 89.0047 189.751 87.937 188.433 87.937Z" fill="#E8F4FA" stroke="#191816" stroke-linecap="round" stroke-linejoin="round"/>
<path d="M104.964 116.555H112.119" stroke="#191816" stroke-linecap="round" stroke-linejoin="round"/>
<path d="M104.964 109.4H112.119" stroke="#191816" stroke-linecap="round" stroke-linejoin="round"/>
<path d="M104.964 102.246H112.119" stroke="#191816" stroke-linecap="round" stroke-linejoin="round"/>
<path d="M104.964 95.0913H112.119" stroke="#191816" stroke-linecap="round" stroke-linejoin="round"/>
<path d="M116.889 109.4H124.043" stroke="#191816" stroke-linecap="round" stroke-linejoin="round"/>
<path d="M116.889 102.246H124.043" stroke="#191816" stroke-linecap="round" stroke-linejoin="round"/>
<path d="M116.889 95.0913H124.043" stroke="#191816" stroke-linecap="round" stroke-linejoin="round"/>
<path d="M128.813 109.4H135.967" stroke="#191816" stroke-linecap="round" stroke-linejoin="round"/>
<path d="M128.813 102.246H135.967" stroke="#191816" stroke-linecap="round" stroke-linejoin="round"/>
<path d="M128.813 95.0913H135.967" stroke="#191816" stroke-linecap="round" stroke-linejoin="round"/>
<path d="M140.737 109.4H147.891" stroke="#191816" stroke-linecap="round" stroke-linejoin="round"/>
<path d="M140.737 102.246H147.891" stroke="#191816" stroke-linecap="round" stroke-linejoin="round"/>
<path d="M140.737 95.0913H147.891" stroke="#191816" stroke-linecap="round" stroke-linejoin="round"/>
<path d="M152.661 109.4H159.816" stroke="#191816" stroke-linecap="round" stroke-linejoin="round"/>
<path d="M152.661 102.246H159.816" stroke="#191816" stroke-linecap="round" stroke-linejoin="round"/>
<path d="M152.661 95.0913H159.816" stroke="#191816" stroke-linecap="round" stroke-linejoin="round"/>
<path d="M164.585 109.4H171.74" stroke="#191816" stroke-linecap="round" stroke-linejoin="round"/>
<path d="M164.585 102.246H171.74" stroke="#191816" stroke-linecap="round" stroke-linejoin="round"/>
<path d="M164.585 95.0913H171.74" stroke="#191816" stroke-linecap="round" stroke-linejoin="round"/>
<path d="M176.509 109.4H183.664" stroke="#191816" stroke-linecap="round" stroke-linejoin="round"/>
<path d="M176.509 102.246H183.664" stroke="#191816" stroke-linecap="round" stroke-linejoin="round"/>
<path d="M176.509 95.0913H183.664" stroke="#191816" stroke-linecap="round" stroke-linejoin="round"/>
<path d="M116.889 116.555H124.043" stroke="#191816" stroke-linecap="round" stroke-linejoin="round"/>
<path d="M128.813 116.555H159.815" stroke="#191816" stroke-linecap="round" stroke-linejoin="round"/>
<path d="M164.585 116.555H171.74" stroke="#191816" stroke-linecap="round" stroke-linejoin="round"/>
<path d="M176.509 116.555H183.664" stroke="#191816" stroke-linecap="round" stroke-linejoin="round"/>
<path d="M205.127 37.8555H83.5009L93.0402 66.4734H195.588L205.127 37.8555Z" fill="#E8F4FA"/>
<path d="M153.567 37.8555H83.5009L93.0402 66.4734H124.949L153.567 37.8555Z" fill="white"/>
<path d="M205.127 37.8555H83.5009L93.0402 66.4734H195.588L205.127 37.8555Z" stroke="#191816" stroke-linecap="round" stroke-linejoin="round"/>
<path d="M93.0402 45.0098H102.58" stroke="#191816" stroke-linecap="round" stroke-linejoin="round"/>
<path d="M100.195 49.7798H112.119" stroke="#191816" stroke-linecap="round" stroke-linejoin="round"/>
<path d="M104.964 54.5493H116.889" stroke="#191816" stroke-linecap="round" stroke-linejoin="round"/>
<path d="M102.58 59.3188H112.119" stroke="#191816" stroke-linecap="round" stroke-linejoin="round"/>
<path d="M180.087 37.8555L176.509 66.4734" stroke="#191816" stroke-linecap="round" stroke-linejoin="round"/>
<path d="M116.889 49.7798H119.273" stroke="#191816" stroke-linecap="round" stroke-linejoin="round"/>
<path d="M107.349 45.0098H109.734" stroke="#191816" stroke-linecap="round" stroke-linejoin="round"/>
<path d="M121.658 54.5493H128.813" stroke="#191816" stroke-linecap="round" stroke-linejoin="round"/>
<path opacity="0.15" d="M232.855 174.999C242.075 174.999 249.549 167.525 249.549 158.305C249.549 149.085 242.075 141.611 232.855 141.611C223.635 141.611 216.161 149.085 216.161 158.305C216.161 167.525 223.635 174.999 232.855 174.999Z" fill="#191816"/>
<path opacity="0.15" d="M208.053 189.865L204.332 202.902C203.886 204.289 203.724 205.751 203.855 207.202C203.986 208.653 204.407 210.062 205.094 211.347C205.781 212.632 206.72 213.765 207.854 214.679C208.988 215.594 210.294 216.271 211.695 216.67C213.096 217.069 214.563 217.182 216.009 217.002C217.454 216.823 218.849 216.354 220.11 215.624C221.371 214.894 222.472 213.918 223.347 212.754C224.223 211.59 224.856 210.262 225.208 208.848L228.928 195.811C229.608 193.077 229.199 190.187 227.788 187.749C226.377 185.311 224.074 183.517 221.365 182.746C218.656 181.974 215.753 182.285 213.269 183.613C210.785 184.942 208.915 187.183 208.053 189.865Z" fill="#191816"/>
<path d="M245.51 168.862C246.187 169.532 247.103 169.906 248.055 169.902C249.008 169.897 249.92 169.515 250.59 168.838C251.261 168.161 251.635 167.246 251.63 166.293C251.626 165.341 251.243 164.429 250.566 163.758L244.668 157.86L239.612 162.916L245.51 168.862Z" fill="white"/>
<path d="M245.51 168.862C246.187 169.532 247.103 169.906 248.055 169.902C249.008 169.897 249.92 169.515 250.59 168.838C251.261 168.161 251.635 167.246 251.63 166.293C251.626 165.341 251.243 164.429 250.566 163.758L244.668 157.86L239.612 162.916L245.51 168.862Z" stroke="#191816" stroke-linecap="round" stroke-linejoin="round"/>
<path d="M232.855 166.652C241.416 166.652 248.356 159.712 248.356 151.151C248.356 142.59 241.416 135.649 232.855 135.649C224.294 135.649 217.354 142.59 217.354 151.151C217.354 159.712 224.294 166.652 232.855 166.652Z" fill="white"/>
<path d="M232.855 161.882C238.782 161.882 243.587 157.078 243.587 151.151C243.587 145.224 238.782 140.419 232.855 140.419C226.928 140.419 222.123 145.224 222.123 151.151C222.123 157.078 226.928 161.882 232.855 161.882Z" fill="#BF8256"/>
<path d="M232.855 145.189C235.276 145.201 237.622 146.032 239.51 147.548C241.398 149.064 242.718 151.174 243.253 153.536C243.624 151.96 243.634 150.321 243.282 148.741C242.931 147.161 242.226 145.682 241.221 144.413C240.216 143.143 238.938 142.118 237.481 141.413C236.024 140.708 234.426 140.342 232.807 140.342C231.189 140.342 229.591 140.708 228.134 141.413C226.677 142.118 225.398 143.143 224.393 144.413C223.389 145.682 222.684 147.161 222.332 148.741C221.98 150.321 221.99 151.96 222.362 153.536C222.903 151.16 224.237 149.039 226.144 147.522C228.051 146.005 230.418 145.182 232.855 145.189Z" fill="#915E3A"/>
<path d="M232.855 166.652C241.416 166.652 248.356 159.712 248.356 151.151C248.356 142.59 241.416 135.649 232.855 135.649C224.294 135.649 217.354 142.59 217.354 151.151C217.354 159.712 224.294 166.652 232.855 166.652Z" stroke="#191816" stroke-linecap="round" stroke-linejoin="round"/>
<path d="M232.855 161.882C238.782 161.882 243.587 157.078 243.587 151.151C243.587 145.224 238.782 140.419 232.855 140.419C226.928 140.419 222.123 145.224 222.123 151.151C222.123 157.078 226.928 161.882 232.855 161.882Z" stroke="#191816" stroke-linecap="round" stroke-linejoin="round"/>
<path d="M208.1 186.748L204.825 198.211C204.478 199.416 204.371 200.677 204.511 201.923C204.65 203.169 205.034 204.376 205.64 205.473C206.246 206.571 207.063 207.539 208.043 208.321C209.023 209.103 210.147 209.685 211.352 210.032C212.556 210.38 213.818 210.487 215.064 210.347C216.31 210.207 217.516 209.823 218.614 209.217C219.711 208.611 220.679 207.795 221.461 206.815C222.243 205.835 222.825 204.71 223.173 203.506L226.448 192.043C227.126 189.614 226.815 187.017 225.583 184.817C224.352 182.617 222.3 180.995 219.875 180.304C217.451 179.612 214.851 179.909 212.645 181.128C210.439 182.348 208.805 184.391 208.1 186.812V186.748Z" fill="#E0E0E0"/>
<path d="M219.881 180.198C217.451 179.507 214.845 179.808 212.636 181.036C210.427 182.264 208.796 184.319 208.1 186.748L206.51 192.488C206.849 191.277 207.423 190.145 208.2 189.157C208.977 188.169 209.941 187.344 211.038 186.73C212.135 186.115 213.343 185.724 214.591 185.578C215.84 185.432 217.105 185.535 218.314 185.879C219.523 186.224 220.652 186.804 221.636 187.587C222.62 188.369 223.439 189.338 224.047 190.438C224.655 191.539 225.04 192.748 225.179 193.998C225.318 195.247 225.209 196.512 224.858 197.719L226.448 191.979C227.139 189.546 226.835 186.938 225.604 184.729C224.372 182.52 222.314 180.89 219.881 180.198Z" fill="#F0F0F0"/>
<path d="M217.592 187.416H217.815C218.017 187.476 218.188 187.613 218.292 187.798C218.358 187.919 218.392 188.056 218.389 188.194C218.387 188.332 218.348 188.467 218.278 188.586C218.207 188.705 218.107 188.803 217.986 188.871C217.866 188.939 217.73 188.975 217.592 188.974H217.369C217.182 188.92 217.02 188.8 216.914 188.637C216.808 188.473 216.764 188.276 216.791 188.083C216.818 187.89 216.914 187.713 217.061 187.584C217.208 187.456 217.397 187.385 217.592 187.385V187.416ZM217.592 185.795C217.279 185.752 216.96 185.771 216.655 185.851C216.349 185.932 216.062 186.071 215.81 186.263C215.559 186.454 215.347 186.693 215.188 186.966C215.028 187.239 214.924 187.54 214.881 187.854C214.838 188.167 214.858 188.485 214.938 188.791C215.018 189.097 215.158 189.384 215.349 189.635C215.541 189.887 215.779 190.099 216.052 190.258C216.325 190.417 216.627 190.522 216.94 190.564C217.541 190.725 218.18 190.65 218.727 190.355C219.274 190.059 219.687 189.565 219.882 188.974C220.06 188.371 219.993 187.722 219.695 187.169C219.397 186.615 218.893 186.201 218.292 186.017C218.08 185.953 217.861 185.921 217.64 185.922L217.592 185.795Z" fill="#191816"/>
<path d="M208.1 186.748L204.825 198.211C204.478 199.416 204.371 200.677 204.511 201.923C204.65 203.169 205.034 204.376 205.64 205.473C206.246 206.571 207.063 207.539 208.043 208.321C209.023 209.103 210.147 209.685 211.352 210.032C212.556 210.38 213.818 210.487 215.064 210.347C216.31 210.207 217.516 209.823 218.614 209.217C219.711 208.611 220.679 207.795 221.461 206.815C222.243 205.835 222.825 204.71 223.173 203.506L226.448 192.043C227.126 189.614 226.815 187.017 225.583 184.817C224.352 182.617 222.3 180.995 219.875 180.304C217.451 179.612 214.851 179.909 212.645 181.128C210.439 182.348 208.805 184.391 208.1 186.812V186.748Z" stroke="#191816" stroke-linecap="round" stroke-linejoin="round"/>
<path d="M144.188 167.203L124.81 231.105C124.428 232.365 125.14 233.697 126.4 234.079L172.044 247.92C173.305 248.303 174.636 247.591 175.019 246.33L194.397 182.429C194.779 181.168 194.067 179.837 192.807 179.454L147.163 165.613C145.902 165.231 144.571 165.942 144.188 167.203Z" fill="#FFF5E3" stroke="#191816" stroke-linecap="round" stroke-linejoin="round"/>
<path d="M149.64 173.854L158.782 176.621" stroke="#191816" stroke-linecap="round" stroke-linejoin="round"/>
<path d="M147.573 180.691L168.115 186.923" stroke="#191816" stroke-linecap="round" stroke-linejoin="round"/>
<path d="M145.491 187.543L159.195 191.693" stroke="#191816" stroke-linecap="round" stroke-linejoin="round"/>
<path d="M143.424 194.38L159.402 199.229" stroke="#191816" stroke-linecap="round" stroke-linejoin="round"/>
<path d="M141.341 201.232L148.193 203.315" stroke="#191816" stroke-linecap="round" stroke-linejoin="round"/>
<path d="M139.274 208.084L164.378 215.7" stroke="#191816" stroke-linecap="round" stroke-linejoin="round"/>
<path d="M137.191 214.921L153.17 219.771" stroke="#191816" stroke-linecap="round" stroke-linejoin="round"/>
<path d="M135.109 221.773L164.792 230.772" stroke="#191816" stroke-linecap="round" stroke-linejoin="round"/>
<path d="M133.042 228.626L146.731 232.776" stroke="#191816" stroke-linecap="round" stroke-linejoin="round"/>
<path d="M163.345 178.004L174.76 181.454" stroke="#191816" stroke-linecap="round" stroke-linejoin="round"/>
<path d="M152.756 204.698L164.172 208.148" stroke="#191816" stroke-linecap="round" stroke-linejoin="round"/>
<path d="M151.294 234.159L162.709 237.625" stroke="#191816" stroke-linecap="round" stroke-linejoin="round"/>
<path d="M151.54 162.591L106.048 176.926C104.792 177.322 104.095 178.661 104.491 179.917L124.559 243.605C124.955 244.862 126.294 245.559 127.551 245.163L173.042 230.828C174.298 230.433 174.996 229.093 174.6 227.837L154.531 164.149C154.135 162.893 152.796 162.195 151.54 162.591Z" fill="#FFF5E3" stroke="#191816" stroke-linecap="round" stroke-linejoin="round"/>
<path d="M112.739 182.312L121.833 179.451" stroke="#191816" stroke-linecap="round" stroke-linejoin="round"/>
<path d="M114.885 189.133L135.363 182.678" stroke="#191816" stroke-linecap="round" stroke-linejoin="round"/>
<path d="M117.048 195.954L130.689 191.661" stroke="#191816" stroke-linecap="round" stroke-linejoin="round"/>
<path d="M119.194 202.774L135.109 197.766" stroke="#191816" stroke-linecap="round" stroke-linejoin="round"/>
<path d="M121.34 209.611L128.161 207.449" stroke="#191816" stroke-linecap="round" stroke-linejoin="round"/>
<path d="M123.487 216.432L148.511 208.546" stroke="#191816" stroke-linecap="round" stroke-linejoin="round"/>
<path d="M125.649 223.252L141.564 218.228" stroke="#191816" stroke-linecap="round" stroke-linejoin="round"/>
<path d="M127.795 230.073L157.367 220.756" stroke="#191816" stroke-linecap="round" stroke-linejoin="round"/>
<path d="M129.942 236.893L143.583 232.601" stroke="#191816" stroke-linecap="round" stroke-linejoin="round"/>
<path d="M126.38 178.004L137.764 174.427" stroke="#191816" stroke-linecap="round" stroke-linejoin="round"/>
<path d="M132.708 206.018L144.092 202.44" stroke="#191816" stroke-linecap="round" stroke-linejoin="round"/>
<path d="M148.146 231.17L159.513 227.577" stroke="#191816" stroke-linecap="round" stroke-linejoin="round"/>
<path d="M169.355 166.636H121.658C120.341 166.636 119.273 167.704 119.273 169.021V235.796C119.273 237.113 120.341 238.181 121.658 238.181H169.355C170.672 238.181 171.74 237.113 171.74 235.796V169.021C171.74 167.704 170.672 166.636 169.355 166.636Z" fill="#FFF5E3" stroke="#191816" stroke-linecap="round" stroke-linejoin="round"/>
<path d="M133.566 183.33C137.518 183.33 140.721 181.194 140.721 178.56C140.721 175.926 137.518 173.791 133.566 173.791C129.615 173.791 126.412 175.926 126.412 178.56C126.412 181.194 129.615 183.33 133.566 183.33Z" stroke="#191816" stroke-linecap="round" stroke-linejoin="round"/>
<path d="M133.566 231.027C137.518 231.027 140.721 228.891 140.721 226.257C140.721 223.623 137.518 221.487 133.566 221.487C129.615 221.487 126.412 223.623 126.412 226.257C126.412 228.891 129.615 231.027 133.566 231.027Z" stroke="#191816" stroke-linecap="round" stroke-linejoin="round"/>
<path d="M133.566 183.33V188.1" stroke="#191816" stroke-linecap="round" stroke-linejoin="round"/>
<path d="M138.336 188.1H128.797V192.869H138.336V188.1Z" stroke="#191816" stroke-linecap="round" stroke-linejoin="round"/>
<path d="M164.569 188.1H155.03V192.869H164.569V188.1Z" stroke="#191816" stroke-linecap="round" stroke-linejoin="round"/>
<path d="M133.566 192.87V197.639" stroke="#191816" stroke-linecap="round" stroke-linejoin="round"/>
<path d="M133.56 197.639L128.793 202.405L133.56 207.172L138.327 202.405L133.56 197.639Z" stroke="#191816" stroke-linecap="round" stroke-linejoin="round"/>
<path d="M159.794 209.572L155.027 214.339L159.794 219.106L164.561 214.339L159.794 209.572Z" stroke="#191816" stroke-linecap="round" stroke-linejoin="round"/>
<path d="M133.566 207.178V211.948" stroke="#191816" stroke-linecap="round" stroke-linejoin="round"/>
<path d="M164.569 204.794H152.645L155.03 200.024H166.954L164.569 204.794Z" stroke="#191816" stroke-linecap="round" stroke-linejoin="round"/>
<path d="M159.8 204.793V209.563" stroke="#191816" stroke-linecap="round" stroke-linejoin="round"/>
<path d="M159.8 192.87V200.024" stroke="#191816" stroke-linecap="round" stroke-linejoin="round"/>
<path d="M155.03 214.333H140.721" stroke="#191816" stroke-linecap="round" stroke-linejoin="round"/>
<path d="M140.721 211.948H126.412V216.718H140.721V211.948Z" stroke="#191816" stroke-linecap="round" stroke-linejoin="round"/>
<path d="M133.566 216.718V221.487" stroke="#191816" stroke-linecap="round" stroke-linejoin="round"/>
<path d="M155.03 190.484H147.875V202.409H138.336" stroke="#191816" stroke-linecap="round" stroke-linejoin="round"/>
<path d="M58.992 128.884L39.3244 139.307C37.7727 140.129 37.1814 142.053 38.0036 143.605L59.5926 184.345C60.4149 185.897 62.3394 186.488 63.8911 185.666L83.5587 175.244C85.1105 174.421 85.7018 172.497 84.8795 170.945L63.2906 130.205C62.4683 128.653 60.5437 128.062 58.992 128.884Z" fill="#F0F0F0"/>
<path d="M58.992 128.884L39.3244 139.307C37.7727 140.129 37.1814 142.053 38.0036 143.605L59.5926 184.345C60.4149 185.897 62.3394 186.488 63.8911 185.666L83.5587 175.244C85.1105 174.421 85.7018 172.497 84.8795 170.945L63.2906 130.205C62.4683 128.653 60.5437 128.062 58.992 128.884Z" stroke="#191816" stroke-linecap="round" stroke-linejoin="round"/>
<path d="M66.2729 135.83L40.986 149.23L55.5027 176.624L80.7896 163.224L66.2729 135.83Z" fill="#00B8F0"/>
<path d="M62.0374 138.066L40.9714 149.243L52.1324 170.309L62.0374 138.066Z" fill="#4ACFFF"/>
<path d="M66.2729 135.83L40.986 149.23L55.5027 176.624L80.7896 163.224L66.2729 135.83Z" stroke="#191816" stroke-linecap="round" stroke-linejoin="round"/>
<path d="M49.2706 139.433L53.4838 137.208" stroke="#191816" stroke-linecap="round" stroke-linejoin="round"/>
<path d="M71.9742 174.649C72.1156 174.926 72.1432 175.248 72.0511 175.545C71.959 175.842 71.7546 176.091 71.4813 176.239C71.3425 176.312 71.1906 176.357 71.0344 176.372C70.8781 176.386 70.7206 176.37 70.5707 176.323C70.4209 176.277 70.2817 176.201 70.161 176.101C70.0404 176 69.9407 175.877 69.8676 175.738C69.7945 175.6 69.7495 175.448 69.7351 175.291C69.7208 175.135 69.7373 174.978 69.7838 174.828C69.8303 174.678 69.9059 174.539 70.0062 174.418C70.1065 174.297 70.2296 174.198 70.3684 174.125C70.5082 174.053 70.6608 174.01 70.8172 173.998C70.9737 173.986 71.1311 174.005 71.2803 174.054C71.4294 174.102 71.5675 174.18 71.6866 174.282C71.8057 174.385 71.9034 174.509 71.9742 174.649V174.649Z" stroke="#191816" stroke-linecap="round" stroke-linejoin="round"/>
</svg>
