<svg width="36" height="37" viewBox="0 0 36 37" fill="none" xmlns="http://www.w3.org/2000/svg">
<ellipse cx="18.0004" cy="18.2793" rx="17.9996" ry="18" fill="#C4C4C4"/>
<mask id="mask0_702_14219" style="mask-type:alpha" maskUnits="userSpaceOnUse" x="0" y="0" width="36" height="36">
<ellipse cx="17.9996" cy="18.1841" rx="17.9996" ry="17.625" fill="#C4C4C4"/>
</mask>
<g mask="url(#mask0_702_14219)">
<path d="M23.7363 33.5586V35.8086" stroke="#191816" stroke-width="0.5" stroke-linecap="round" stroke-linejoin="round"/>
<path d="M25.1996 21.9195C24.5486 21.6345 24.2269 20.5695 24.1579 19.8345V13.8345H11.8263V19.8345C11.765 20.5845 11.4433 21.6345 10.7923 21.9195C10.6896 21.9568 10.6054 22.0313 10.557 22.1275C10.5086 22.2237 10.4996 22.3345 10.5319 22.437C10.6018 22.7016 10.7625 22.9347 10.987 23.0971C11.2115 23.2596 11.4862 23.3416 11.765 23.3295H24.2269C24.5057 23.3416 24.7804 23.2596 25.0049 23.0971C25.2294 22.9347 25.3901 22.7016 25.46 22.437C25.4923 22.3345 25.4833 22.2237 25.4349 22.1275C25.3865 22.0313 25.3023 21.9568 25.1996 21.9195Z" fill="#724F3D" stroke="#191816" stroke-width="0.5" stroke-linecap="round" stroke-linejoin="round"/>
<path d="M24.1579 15.0863C24.1551 14.8418 24.0657 14.6057 23.9051 14.4183C23.7445 14.231 23.5226 14.1039 23.277 14.0589V13.3689C23.277 11.9964 22.7202 10.6801 21.7291 9.70957C20.738 8.73907 19.3937 8.19385 17.9921 8.19385C16.5904 8.19385 15.2461 8.73907 14.255 9.70957C13.2639 10.6801 12.7071 11.9964 12.7071 13.3689V14.0589C12.4507 14.107 12.2207 14.2445 12.0599 14.4459C11.899 14.6473 11.8181 14.8989 11.8321 15.1542C11.8461 15.4095 11.9541 15.6512 12.1361 15.8345C12.3181 16.0178 12.5617 16.1304 12.822 16.1514C13.0696 17.3156 13.7193 18.3608 14.6616 19.1111C15.6039 19.8614 16.7814 20.271 17.9959 20.271C19.2104 20.271 20.3879 19.8614 21.3302 19.1111C22.2725 18.3608 22.9221 17.3156 23.1698 16.1514C23.4407 16.127 23.6924 16.0041 23.8753 15.8069C24.0582 15.6098 24.159 15.3527 24.1579 15.0863Z" fill="#FFDA8F" stroke="#191816" stroke-width="0.5" stroke-linecap="round" stroke-linejoin="round"/>
<path d="M15.135 16.3837C15.4988 16.3837 15.7937 16.095 15.7937 15.7387C15.7937 15.3825 15.4988 15.0938 15.135 15.0938C14.7712 15.0938 14.4763 15.3825 14.4763 15.7387C14.4763 16.095 14.7712 16.3837 15.135 16.3837Z" fill="#FFBE3D"/>
<path d="M20.8567 16.3837C21.2205 16.3837 21.5154 16.095 21.5154 15.7387C21.5154 15.3825 21.2205 15.0938 20.8567 15.0938C20.4929 15.0938 20.198 15.3825 20.198 15.7387C20.198 16.095 20.4929 16.3837 20.8567 16.3837Z" fill="#FFBE3D"/>
<path d="M20.3741 14.2237C20.2317 14.0908 20.0424 14.0166 19.8456 14.0166C19.6488 14.0166 19.4596 14.0908 19.3171 14.2237" stroke="#191816" stroke-width="0.5" stroke-linecap="round" stroke-linejoin="round"/>
<path d="M15.6177 14.2237C15.7601 14.0908 15.9494 14.0166 16.1462 14.0166C16.343 14.0166 16.5322 14.0908 16.6747 14.2237" stroke="#191816" stroke-width="0.5" stroke-linecap="round" stroke-linejoin="round"/>
<path d="M19.3167 17.2466C18.9343 17.5237 18.4711 17.6732 17.9954 17.6732C17.5197 17.6732 17.0566 17.5237 16.6742 17.2466" stroke="#191816" stroke-width="0.5" stroke-linecap="round" stroke-linejoin="round"/>
<path d="M25.9194 29.5094C25.9106 28.5047 25.6975 27.5117 25.2927 26.5885C24.8878 25.6653 24.2992 24.8302 23.5613 24.1321C22.8234 23.4339 21.9509 22.8867 20.9946 22.5222C20.0384 22.1578 19.0177 21.9834 17.9919 22.0094C16.9664 21.9844 15.9461 22.1595 14.9904 22.5243C14.0346 22.8891 13.1625 23.4364 12.4248 24.1344C11.6871 24.8323 11.0985 25.667 10.6933 26.5897C10.288 27.5125 10.0743 28.5049 10.0645 29.5094V38.8094H19.6846C20.5116 38.8085 21.33 38.6467 22.0926 38.3334C22.8551 38.0202 23.5465 37.5617 24.1265 36.9847C24.7066 36.4076 25.1638 35.7235 25.4716 34.9719C25.7793 34.2204 25.9316 33.4165 25.9194 32.6069V29.5094Z" fill="#FF6196"/>
<path d="M25.9194 29.5094C25.9106 28.5046 25.6975 27.5117 25.2927 26.5885C24.8878 25.6653 24.2992 24.8302 23.5613 24.1321C22.8234 23.4339 21.9509 22.8867 20.9946 22.5222C20.0384 22.1578 19.0177 21.9834 17.9919 22.0094C16.9664 21.9844 15.9461 22.1595 14.9904 22.5243C14.0346 22.8891 13.1625 23.4364 12.4248 24.1344C11.6871 24.8323 11.0985 25.667 10.6933 26.5897C10.288 27.5125 10.0743 28.5049 10.0645 29.5094V32.9594C10.0722 31.9544 10.2846 30.961 10.6891 30.0373C11.0936 29.1136 11.6821 28.2781 12.4202 27.5798C13.1584 26.8814 14.0313 26.3342 14.988 25.9701C15.9447 25.6061 16.9659 25.4324 17.9919 25.4594C19.0182 25.4314 20.0399 25.6043 20.997 25.968C21.9542 26.3318 22.8275 26.8789 23.5659 27.5775C24.3042 28.276 24.8927 29.1119 25.2969 30.036C25.701 30.9602 25.9126 31.9541 25.9194 32.9594V29.5094Z" fill="#FF87AF"/>
<path d="M25.9194 29.5094C25.9106 28.5047 25.6975 27.5117 25.2927 26.5885C24.8878 25.6653 24.2992 24.8302 23.5613 24.1321C22.8234 23.4339 21.9509 22.8867 20.9946 22.5222C20.0384 22.1578 19.0177 21.9834 17.9919 22.0094C16.9664 21.9844 15.9461 22.1595 14.9904 22.5243C14.0346 22.8891 13.1625 23.4364 12.4248 24.1344C11.6871 24.8323 11.0985 25.667 10.6933 26.5897C10.288 27.5125 10.0743 28.5049 10.0645 29.5094V38.8094H19.6846C20.5116 38.8085 21.33 38.6467 22.0926 38.3334C22.8551 38.0202 23.5465 37.5617 24.1265 36.9847C24.7066 36.4076 25.1638 35.7235 25.4716 34.9719C25.7793 34.2204 25.9316 33.4165 25.9194 32.6069V29.5094Z" stroke="#191816" stroke-width="0.5" stroke-linecap="round" stroke-linejoin="round"/>
<path d="M12.86 23.7415L17.9918 31.4815L23.1312 23.7415C21.6708 22.6056 19.8607 21.9873 17.9956 21.9873C16.1305 21.9873 14.3204 22.6056 12.86 23.7415Z" fill="white" stroke="#191816" stroke-width="0.5" stroke-linejoin="round"/>
<path d="M13.1514 38.8539V33.5589C13.1514 31.8489 12.0868 31.8339 12.0868 30.2139" stroke="#191816" stroke-width="0.5" stroke-linecap="round" stroke-linejoin="round"/>
<path d="M13.7869 26.7346H22.2123C22.3467 26.7343 22.4792 26.7039 22.5998 26.6456C22.7203 26.5874 22.8257 26.5029 22.9077 26.3987C22.9898 26.2944 23.0464 26.1732 23.0732 26.0442C23.1 25.9153 23.0964 25.782 23.0625 25.6546L22.5033 23.2921C21.1609 22.4402 19.5955 21.9868 17.9958 21.9868C16.3961 21.9868 14.8306 22.4402 13.4882 23.2921L12.9291 25.6546C12.8915 25.7825 12.8859 25.9174 12.9125 26.0479C12.9392 26.1784 12.9974 26.3007 13.0823 26.4046C13.1655 26.5094 13.2725 26.5938 13.3948 26.6511C13.5171 26.7084 13.6514 26.737 13.7869 26.7346Z" fill="white" stroke="#191816" stroke-width="0.5" stroke-linejoin="round"/>
<path d="M15.1423 22.4819L17.9916 28.0244L20.8486 22.4819C19.0062 21.8218 16.9847 21.8218 15.1423 22.4819Z" fill="#FFDA8F" stroke="#191816" stroke-width="0.5" stroke-linecap="round" stroke-linejoin="round"/>
<path d="M17.9922 31.4814V37.9464" stroke="#191816" stroke-width="0.5" stroke-linecap="round" stroke-linejoin="round"/>
<path d="M23.2006 38.8089C23.2509 39.0316 23.209 39.2648 23.0841 39.4574C22.9592 39.6499 22.7615 39.7862 22.5342 39.8364L18.0458 40.8189C17.8183 40.8681 17.5802 40.8271 17.3835 40.7048C17.1869 40.5825 17.0477 40.3889 16.9965 40.1664L15.411 33.2364C15.3859 33.1268 15.3832 33.0134 15.4029 32.9027C15.4226 32.792 15.4644 32.6862 15.5259 32.5914C15.6517 32.3983 15.8496 32.261 16.0774 32.2089L20.5658 31.2264C20.6785 31.201 20.7952 31.1977 20.9092 31.2169C21.0231 31.236 21.1321 31.2771 21.2297 31.3378C21.3274 31.3985 21.4117 31.4776 21.4778 31.5705C21.544 31.6634 21.5907 31.7682 21.6151 31.8789L23.2006 38.8089Z" fill="#BF8256" stroke="#191816" stroke-width="0.5" stroke-linejoin="round"/>
<path d="M22.8406 32.6064C22.8529 33.4401 22.528 34.2446 21.9368 34.8446C21.3457 35.4445 20.5361 35.7912 19.6849 35.8089H17.9922V38.8089H19.6849C20.5118 38.808 21.3303 38.6463 22.0928 38.333C22.8554 38.0198 23.5467 37.5613 24.1268 36.9843C24.7069 36.4072 25.1641 35.723 25.4718 34.9715C25.7796 34.22 25.9318 33.4161 25.9197 32.6064" fill="#FF6196"/>
<path d="M22.8406 32.6064C22.8529 33.4401 22.528 34.2446 21.9368 34.8446C21.3457 35.4445 20.5361 35.7912 19.6849 35.8089H17.9922V38.8089H19.6849C20.5118 38.808 21.3303 38.6463 22.0928 38.333C22.8554 38.0198 23.5467 37.5613 24.1268 36.9843C24.7069 36.4072 25.1641 35.723 25.4718 34.9715C25.7796 34.22 25.9318 33.4161 25.9197 32.6064" stroke="#191816" stroke-width="0.5" stroke-linecap="round" stroke-linejoin="round"/>
<path d="M16.4527 38.8091C16.0464 38.8091 15.6567 38.651 15.3695 38.3697C15.0822 38.0884 14.9208 37.7069 14.9208 37.3091C14.9208 36.9113 15.0822 36.5297 15.3695 36.2484C15.6567 35.9671 16.0464 35.8091 16.4527 35.8091H17.9845V38.8091H16.4527Z" fill="#FFDA8F" stroke="#191816" stroke-width="0.5" stroke-linecap="round" stroke-linejoin="round"/>
<path d="M17.9921 6.46143C16.342 6.54212 14.7865 7.23984 13.6463 8.41067C12.5062 9.5815 11.8685 11.1361 11.8646 12.7539V24.1464C11.865 24.2091 11.8791 24.2709 11.9061 24.3277C11.9331 24.3845 11.9723 24.4349 12.021 24.4755C12.0697 24.5161 12.1268 24.5459 12.1884 24.5629C12.25 24.5799 12.3146 24.5836 12.3778 24.5739C12.8215 24.5502 13.2404 24.3659 13.5531 24.0569C13.8659 23.7479 14.0503 23.3361 14.0705 22.9014V16.2414C14.0633 15.6643 14.1923 15.0933 14.4474 14.5729C14.7025 14.0526 15.0768 13.5969 15.5411 13.2414C16.8335 12.3523 17.7253 11.0089 18.0304 9.49142C18.4571 10.7546 19.2781 11.8547 20.3775 12.6365C21.4769 13.4183 22.7992 13.8424 24.1579 13.8489V12.7539C24.1555 11.1294 23.5131 9.56845 22.3645 8.39624C21.2159 7.22403 19.6497 6.53096 17.9921 6.46143Z" fill="#724F3D"/>
<path d="M17.9921 6.46143C16.342 6.54212 14.7865 7.23984 13.6463 8.41067C12.5062 9.5815 11.8685 11.1361 11.8646 12.7539V14.5239C11.869 12.9007 12.5123 11.3416 13.6607 10.171C14.8091 9.00042 16.3742 8.3084 18.0304 8.23892C19.5746 8.30143 21.0441 8.90678 22.1695 9.94402C23.2949 10.9813 24.0008 12.3809 24.1579 13.8864V12.7539C24.1555 11.1294 23.5131 9.56845 22.3645 8.39624C21.2159 7.22403 19.6497 6.53096 17.9921 6.46143Z" fill="#A86C4D"/>
<path d="M17.9921 6.46143C16.342 6.54212 14.7865 7.23984 13.6463 8.41067C12.5062 9.5815 11.8685 11.1361 11.8646 12.7539V24.1464C11.865 24.2091 11.8791 24.2709 11.9061 24.3277C11.9331 24.3845 11.9723 24.4349 12.021 24.4755C12.0697 24.5161 12.1268 24.5459 12.1884 24.5629C12.25 24.5799 12.3146 24.5836 12.3778 24.5739C12.8215 24.5502 13.2404 24.3659 13.5531 24.0569C13.8659 23.7479 14.0503 23.3361 14.0705 22.9014V16.2414C14.0633 15.6643 14.1923 15.0933 14.4474 14.5729C14.7025 14.0526 15.0768 13.5969 15.5411 13.2414C16.8335 12.3523 17.7253 11.0089 18.0304 9.49142C18.4571 10.7546 19.2781 11.8547 20.3775 12.6365C21.4769 13.4183 22.7992 13.8424 24.1579 13.8489V12.7539C24.1555 11.1294 23.5131 9.56845 22.3645 8.39624C21.2159 7.22403 19.6497 6.53096 17.9921 6.46143Z" stroke="#191816" stroke-width="0.5" stroke-linecap="round" stroke-linejoin="round"/>
</g>
</svg>
