<svg width="20" height="20" viewBox="0 0 20 20" fill="none" xmlns="http://www.w3.org/2000/svg">
<path d="M7.85901 14.6908L7.04901 15.4958C6.70968 15.8298 6.25264 16.017 5.77651 16.017C5.30038 16.017 4.84334 15.8298 4.50401 15.4958C4.33857 15.3319 4.20723 15.1369 4.1176 14.9221C4.02798 14.7072 3.98183 14.4766 3.98183 14.2438C3.98183 14.0109 4.02798 13.7804 4.1176 13.5655C4.20723 13.3506 4.33857 13.1556 4.50401 12.9918L7.48401 10.0368C8.10101 9.42378 9.26301 8.52178 10.11 9.36178C10.2012 9.45898 10.311 9.53681 10.4328 9.59064C10.5547 9.64447 10.6862 9.67319 10.8195 9.67509C10.9527 9.67699 11.0849 9.65203 11.2083 9.60169C11.3317 9.55136 11.4437 9.47669 11.5375 9.38213C11.6314 9.28758 11.7053 9.17508 11.7548 9.05135C11.8042 8.92762 11.8282 8.79519 11.8254 8.66198C11.8225 8.52876 11.7929 8.39748 11.7382 8.27598C11.6835 8.15448 11.6049 8.04524 11.507 7.95478C10.069 6.52678 7.94101 6.79078 6.08801 8.62978L3.10801 11.5858C2.7559 11.9329 2.47656 12.3468 2.28631 12.8032C2.09606 13.2596 1.99873 13.7493 2.00001 14.2438C1.99878 14.7382 2.09614 15.228 2.28638 15.6843C2.47663 16.1407 2.75595 16.5546 3.10801 16.9018C3.81771 17.6057 4.77741 17.9998 5.77701 17.9978C6.74401 17.9978 7.71101 17.6328 8.44601 16.9018L9.25701 16.0968C9.3495 16.0053 9.42301 15.8965 9.47334 15.7765C9.52367 15.6566 9.54981 15.5279 9.55027 15.3978C9.55074 15.2677 9.52551 15.1389 9.47605 15.0186C9.42658 14.8983 9.35384 14.7889 9.26201 14.6968C9.07638 14.5106 8.82463 14.4055 8.56175 14.4044C8.29887 14.4033 8.04623 14.5062 7.85901 14.6908ZM16.891 3.20678C15.344 1.67278 13.182 1.58978 11.752 3.00978L10.743 4.01178C10.5566 4.19691 10.4513 4.44851 10.4504 4.71125C10.4494 4.97399 10.5529 5.22634 10.738 5.41278C10.9231 5.59923 11.1747 5.7045 11.4375 5.70544C11.7002 5.70638 11.9526 5.60291 12.139 5.41778L13.149 4.41678C13.889 3.68078 14.86 3.98578 15.495 4.61378C15.831 4.94878 16.017 5.39278 16.017 5.86578C16.017 6.33878 15.831 6.78278 15.495 7.11678L12.315 10.2708C10.861 11.7118 10.179 11.0368 9.88801 10.7478C9.79569 10.6561 9.68622 10.5835 9.56585 10.5342C9.44548 10.4848 9.31657 10.4597 9.18648 10.4601C9.05638 10.4606 8.92765 10.4867 8.80764 10.5369C8.68762 10.5871 8.57867 10.6605 8.48701 10.7528C8.39535 10.8451 8.32277 10.9546 8.27341 11.0749C8.22406 11.1953 8.19889 11.3242 8.19936 11.4543C8.19982 11.5844 8.2259 11.7131 8.27612 11.8332C8.32633 11.9532 8.39969 12.0621 8.49201 12.1538C9.16001 12.8158 9.92201 13.1438 10.72 13.1438C11.697 13.1438 12.73 12.6518 13.713 11.6768L16.893 8.52378C17.2444 8.17612 17.5231 7.76213 17.7132 7.30584C17.9032 6.84955 18.0007 6.36006 18 5.86578C18.0009 5.37115 17.9033 4.88128 17.7129 4.42476C17.5225 3.96824 17.2431 3.5542 16.891 3.20678Z" fill="black"/>
</svg>
