<svg width="20" height="20" viewBox="0 0 20 20" fill="none" xmlns="http://www.w3.org/2000/svg">
<path d="M7.73133 14.6908L6.95665 15.4958C6.63212 15.8298 6.19501 16.017 5.73964 16.017C5.28427 16.017 4.84716 15.8298 4.52263 15.4958C4.3644 15.3319 4.23879 15.1369 4.15307 14.9221C4.06735 14.7072 4.02322 14.4766 4.02322 14.2438C4.02322 14.0109 4.06735 13.7804 4.15307 13.5655C4.23879 13.3506 4.3644 13.1556 4.52263 12.9918L7.37268 10.0368C7.96278 9.42378 9.07411 8.52178 9.88418 9.36178C9.97135 9.45898 10.0764 9.53681 10.1929 9.59064C10.3095 9.64447 10.4353 9.67319 10.5627 9.67509C10.6901 9.67699 10.8166 9.65203 10.9346 9.60169C11.0526 9.55136 11.1597 9.47669 11.2495 9.38213C11.3392 9.28758 11.4099 9.17508 11.4572 9.05135C11.5045 8.92762 11.5275 8.79519 11.5247 8.66198C11.522 8.52876 11.4936 8.39748 11.4413 8.27598C11.389 8.15448 11.3138 8.04524 11.2203 7.95478C9.84496 6.52678 7.80976 6.79078 6.03756 8.62978L3.1875 11.5858C2.85075 11.9329 2.58358 12.3468 2.40163 12.8032C2.21968 13.2596 2.12659 13.7493 2.12782 14.2438C2.12664 14.7382 2.21975 15.228 2.4017 15.6843C2.58365 16.1407 2.85079 16.5546 3.1875 16.9018C3.86625 17.6057 4.7841 17.9998 5.74012 17.9978C6.66495 17.9978 7.58979 17.6328 8.29274 16.9018L9.06837 16.0968C9.15683 16.0053 9.22713 15.8965 9.27527 15.7765C9.3234 15.6566 9.3484 15.5279 9.34885 15.3978C9.34929 15.2677 9.32516 15.1389 9.27785 15.0186C9.23054 14.8983 9.16098 14.7889 9.07315 14.6968C8.89561 14.5106 8.65484 14.4055 8.40343 14.4044C8.15201 14.4033 7.91039 14.5062 7.73133 14.6908ZM16.3695 3.20678C14.8899 1.67278 12.8222 1.58978 11.4546 3.00978L10.4896 4.01178C10.3113 4.19691 10.2106 4.44851 10.2097 4.71125C10.2088 4.97399 10.3077 5.22634 10.4848 5.41278C10.6618 5.59923 10.9025 5.7045 11.1538 5.70544C11.405 5.70638 11.6464 5.60291 11.8247 5.41778L12.7907 4.41678C13.4984 3.68078 14.427 3.98578 15.0344 4.61378C15.3557 4.94878 15.5336 5.39278 15.5336 5.86578C15.5336 6.33878 15.3557 6.78278 15.0344 7.11678L11.993 10.2708C10.6024 11.7118 9.95017 11.0368 9.67186 10.7478C9.58356 10.6561 9.47887 10.5835 9.36375 10.5342C9.24862 10.4848 9.12533 10.4597 9.00091 10.4601C8.87649 10.4606 8.75337 10.4867 8.63859 10.5369C8.52381 10.5871 8.41961 10.6605 8.33195 10.7528C8.24428 10.8451 8.17487 10.9546 8.12766 11.0749C8.08046 11.1953 8.05639 11.3242 8.05684 11.4543C8.05728 11.5844 8.08223 11.7131 8.13025 11.8332C8.17827 11.9532 8.24844 12.0621 8.33673 12.1538C8.9756 12.8158 9.70437 13.1438 10.4676 13.1438C11.402 13.1438 12.3899 12.6518 13.3301 11.6768L16.3714 8.52378C16.7074 8.17612 16.974 7.76213 17.1558 7.30584C17.3375 6.84955 17.4308 6.36006 17.4301 5.86578C17.431 5.37115 17.3376 4.88128 17.1555 4.42476C16.9734 3.96824 16.7062 3.5542 16.3695 3.20678Z" fill="#BDBDBD"/>
</svg>
