<svg width="48" height="48" viewBox="0 0 48 48" fill="none" xmlns="http://www.w3.org/2000/svg">
<g filter="url(#filter0_d_2009_176184)">
<circle cx="24" cy="20" r="20" fill="#B05056"/>
</g>
<mask id="mask0_2009_176184" style="mask-type:alpha" maskUnits="userSpaceOnUse" x="4" y="0" width="40" height="40">
<circle cx="24" cy="20" r="20" fill="#B05056"/>
</mask>
<g mask="url(#mask0_2009_176184)">
<path d="M28.9682 38.2254H15.4199V7.51603C15.4199 7.39687 15.4435 7.27888 15.4893 7.16887C15.5351 7.05886 15.6022 6.95899 15.6868 6.87504C15.7713 6.79108 15.8717 6.72469 15.982 6.67968C16.0924 6.63468 16.2105 6.61195 16.3297 6.61282H28.0649C28.3045 6.61282 28.5342 6.70798 28.7036 6.87736C28.873 7.04675 28.9682 7.27648 28.9682 7.51603V38.2254Z" fill="#FFCEBF"/>
<path d="M20.1839 21.9673H17.8801C17.5186 21.9673 17.2256 22.2603 17.2256 22.6218V24.9256C17.2256 25.2871 17.5186 25.5801 17.8801 25.5801H20.1839C20.5454 25.5801 20.8384 25.2871 20.8384 24.9256V22.6218C20.8384 22.2603 20.5454 21.9673 20.1839 21.9673Z" fill="#FDA18F"/>
<path d="M20.0858 21.9673H17.9783C17.7792 21.969 17.5887 22.0488 17.4479 22.1896C17.3072 22.3304 17.2273 22.5209 17.2256 22.72V24.8275C17.225 24.9263 17.2445 25.0242 17.2827 25.1153C17.321 25.2064 17.3772 25.2888 17.4481 25.3576L20.6225 22.1898C20.4802 22.0474 20.2871 21.9674 20.0858 21.9673Z" fill="#B05056"/>
<path d="M20.1839 21.9673H17.8801C17.5186 21.9673 17.2256 22.2603 17.2256 22.6218V24.9256C17.2256 25.2871 17.5186 25.5801 17.8801 25.5801H20.1839C20.5454 25.5801 20.8384 25.2871 20.8384 24.9256V22.6218C20.8384 22.2603 20.5454 21.9673 20.1839 21.9673Z" stroke="#191816" stroke-width="0.7" stroke-linecap="round" stroke-linejoin="round"/>
<path d="M26.5062 21.9673H24.2024C23.8409 21.9673 23.5479 22.2603 23.5479 22.6218V24.9256C23.5479 25.2871 23.8409 25.5801 24.2024 25.5801H26.5062C26.8677 25.5801 27.1607 25.2871 27.1607 24.9256V22.6218C27.1607 22.2603 26.8677 21.9673 26.5062 21.9673Z" fill="#FDA18F"/>
<path d="M26.4082 21.9674H24.3006C24.2004 21.9657 24.1008 21.9838 24.0076 22.0208C23.9144 22.0577 23.8294 22.1128 23.7576 22.1828C23.6858 22.2528 23.6286 22.3363 23.5892 22.4285C23.5499 22.5207 23.5292 22.6198 23.5283 22.7201V24.8276C23.5278 24.9264 23.5472 25.0243 23.5855 25.1154C23.6237 25.2065 23.68 25.2889 23.7509 25.3577L26.9252 22.1899C26.7877 22.0522 26.6027 21.9726 26.4082 21.9674Z" fill="#B05056"/>
<path d="M26.5062 21.9673H24.2024C23.8409 21.9673 23.5479 22.2603 23.5479 22.6218V24.9256C23.5479 25.2871 23.8409 25.5801 24.2024 25.5801H26.5062C26.8677 25.5801 27.1607 25.2871 27.1607 24.9256V22.6218C27.1607 22.2603 26.8677 21.9673 26.5062 21.9673Z" stroke="#191816" stroke-width="0.7" stroke-linecap="round" stroke-linejoin="round"/>
<path d="M20.1839 15.645H17.8801C17.5186 15.645 17.2256 15.9381 17.2256 16.2995V18.6034C17.2256 18.9648 17.5186 19.2579 17.8801 19.2579H20.1839C20.5454 19.2579 20.8384 18.9648 20.8384 18.6034V16.2995C20.8384 15.9381 20.5454 15.645 20.1839 15.645Z" fill="#FDA18F"/>
<path d="M20.0858 15.645H17.9783C17.7786 15.645 17.5872 15.7243 17.446 15.8655C17.3049 16.0066 17.2256 16.1981 17.2256 16.3977V18.5052C17.2254 18.604 17.245 18.7017 17.2832 18.7928C17.3214 18.8838 17.3775 18.9663 17.4481 19.0353L20.6225 15.8675C20.4801 15.7251 20.2871 15.6451 20.0858 15.645Z" fill="#B05056"/>
<path d="M20.1839 15.645H17.8801C17.5186 15.645 17.2256 15.9381 17.2256 16.2995V18.6034C17.2256 18.9648 17.5186 19.2579 17.8801 19.2579H20.1839C20.5454 19.2579 20.8384 18.9648 20.8384 18.6034V16.2995C20.8384 15.9381 20.5454 15.645 20.1839 15.645Z" stroke="#191816" stroke-width="0.7" stroke-linecap="round" stroke-linejoin="round"/>
<path d="M37.9999 38.2256H28.9678V12.0454L37.1687 16.1426C37.4189 16.2679 37.6292 16.4604 37.776 16.6986C37.9228 16.9367 38.0004 17.2111 37.9999 17.4909V38.2256Z" fill="#FFCEBF"/>
<path d="M30.7742 12.935L28.9678 12.0317V38.225H30.7742V12.935Z" fill="#FFCEBF"/>
<path d="M37.9999 38.2256H28.9678V12.0454L37.1687 16.1426C37.4189 16.2679 37.6292 16.4604 37.776 16.6986C37.9228 16.9367 38.0004 17.2111 37.9999 17.4909V38.2256Z" stroke="#191816" stroke-width="0.7" stroke-linecap="round" stroke-linejoin="round"/>
<path d="M36.3438 15.717V11.5806" stroke="#191816" stroke-width="0.7" stroke-linecap="round" stroke-linejoin="round"/>
<path d="M28.0637 6.61279H16.3284C16.2098 6.61279 16.0923 6.63615 15.9828 6.68155C15.8732 6.72694 15.7736 6.79347 15.6897 6.87734C15.6059 6.96121 15.5393 7.06078 15.4939 7.17036C15.4485 7.27995 15.4252 7.3974 15.4252 7.51601V9.32244C15.4217 9.20164 15.4425 9.08137 15.4863 8.96875C15.5301 8.85613 15.5961 8.75344 15.6803 8.66678C15.7645 8.58011 15.8653 8.51123 15.9766 8.46421C16.0879 8.41719 16.2076 8.39299 16.3284 8.39304H28.0637C28.1823 8.39304 28.2997 8.41641 28.4093 8.4618C28.5189 8.50719 28.6185 8.57372 28.7023 8.65759C28.7862 8.74146 28.8527 8.84103 28.8981 8.95061C28.9435 9.0602 28.9669 9.17765 28.9669 9.29626V7.51601C28.9669 7.27646 28.8717 7.04672 28.7023 6.87734C28.5329 6.70795 28.3032 6.61279 28.0637 6.61279Z" fill="white"/>
<path d="M28.9682 38.2254H15.4199V7.51603C15.4199 7.39687 15.4435 7.27888 15.4893 7.16887C15.5351 7.05886 15.6022 6.95899 15.6868 6.87504C15.7713 6.79108 15.8717 6.72469 15.982 6.67968C16.0924 6.63468 16.2105 6.61195 16.3297 6.61282H28.0649C28.3045 6.61282 28.5342 6.70798 28.7036 6.87736C28.873 7.04675 28.9682 7.27648 28.9682 7.51603V38.2254Z" stroke="#191816" stroke-width="0.7" stroke-linecap="round" stroke-linejoin="round"/>
<path d="M20.1839 9.32275H17.8801C17.5186 9.32275 17.2256 9.61579 17.2256 9.97726V12.2811C17.2256 12.6426 17.5186 12.9356 17.8801 12.9356H20.1839C20.5454 12.9356 20.8384 12.6426 20.8384 12.2811V9.97726C20.8384 9.61579 20.5454 9.32275 20.1839 9.32275Z" fill="#FDA18F"/>
<path d="M20.0858 9.32275H17.9783C17.7786 9.32275 17.5872 9.40206 17.446 9.54321C17.3049 9.68437 17.2256 9.87581 17.2256 10.0754V12.1829C17.2254 12.2817 17.245 12.3795 17.2832 12.4705C17.3214 12.5616 17.3775 12.6441 17.4481 12.7131L20.6225 9.54529C20.4801 9.40288 20.2871 9.32284 20.0858 9.32275Z" fill="#B05056"/>
<path d="M20.1839 9.32275H17.8801C17.5186 9.32275 17.2256 9.61579 17.2256 9.97726V12.2811C17.2256 12.6426 17.5186 12.9356 17.8801 12.9356H20.1839C20.5454 12.9356 20.8384 12.6426 20.8384 12.2811V9.97726C20.8384 9.61579 20.5454 9.32275 20.1839 9.32275Z" stroke="#191816" stroke-width="0.7" stroke-linecap="round" stroke-linejoin="round"/>
<path d="M26.5062 15.645H24.2024C23.8409 15.645 23.5479 15.9381 23.5479 16.2995V18.6034C23.5479 18.9648 23.8409 19.2579 24.2024 19.2579H26.5062C26.8677 19.2579 27.1607 18.9648 27.1607 18.6034V16.2995C27.1607 15.9381 26.8677 15.645 26.5062 15.645Z" fill="#FDA18F"/>
<path d="M26.4081 15.6453H24.3006C24.2002 15.6427 24.1002 15.6602 24.0066 15.6968C23.913 15.7335 23.8277 15.7885 23.7557 15.8587C23.6837 15.9288 23.6265 16.0127 23.5874 16.1053C23.5484 16.1979 23.5283 16.2974 23.5283 16.398V18.5055C23.5281 18.6042 23.5477 18.702 23.586 18.793C23.6242 18.8841 23.6802 18.9666 23.7509 19.0356L26.9252 15.8678C26.7877 15.7301 26.6026 15.6505 26.4081 15.6453Z" fill="#B05056"/>
<path d="M26.5062 15.645H24.2024C23.8409 15.645 23.5479 15.9381 23.5479 16.2995V18.6034C23.5479 18.9648 23.8409 19.2579 24.2024 19.2579H26.5062C26.8677 19.2579 27.1607 18.9648 27.1607 18.6034V16.2995C27.1607 15.9381 26.8677 15.645 26.5062 15.645Z" stroke="#191816" stroke-width="0.7" stroke-linecap="round" stroke-linejoin="round"/>
<path d="M20.1839 28.29H17.8801C17.5186 28.29 17.2256 28.5831 17.2256 28.9445V31.2484C17.2256 31.6099 17.5186 31.9029 17.8801 31.9029H20.1839C20.5454 31.9029 20.8384 31.6099 20.8384 31.2484V28.9445C20.8384 28.5831 20.5454 28.29 20.1839 28.29Z" fill="#FDA18F"/>
<path d="M20.0858 28.29H17.9783C17.7787 28.29 17.5872 28.3693 17.4461 28.5105C17.3049 28.6516 17.2256 28.8431 17.2256 29.0427V31.1502C17.225 31.249 17.2445 31.3469 17.2827 31.438C17.321 31.5291 17.3772 31.6116 17.4481 31.6804L20.6225 28.5126C20.4802 28.3702 20.2871 28.2901 20.0858 28.29Z" fill="#B05056"/>
<path d="M20.1839 28.29H17.8801C17.5186 28.29 17.2256 28.5831 17.2256 28.9445V31.2484C17.2256 31.6099 17.5186 31.9029 17.8801 31.9029H20.1839C20.5454 31.9029 20.8384 31.6099 20.8384 31.2484V28.9445C20.8384 28.5831 20.5454 28.29 20.1839 28.29Z" stroke="#191816" stroke-width="0.7" stroke-linecap="round" stroke-linejoin="round"/>
<path d="M26.5062 28.29H24.2024C23.8409 28.29 23.5479 28.5831 23.5479 28.9445V31.2484C23.5479 31.6099 23.8409 31.9029 24.2024 31.9029H26.5062C26.8677 31.9029 27.1607 31.6099 27.1607 31.2484V28.9445C27.1607 28.5831 26.8677 28.29 26.5062 28.29Z" fill="#FDA18F"/>
<path d="M26.4082 28.2903H24.3006C24.2002 28.2877 24.1002 28.3052 24.0066 28.3419C23.913 28.3785 23.8277 28.4335 23.7557 28.5037C23.6837 28.5738 23.6265 28.6577 23.5874 28.7503C23.5484 28.8429 23.5283 28.9425 23.5283 29.043V31.1505C23.5278 31.2493 23.5472 31.3472 23.5855 31.4383C23.6237 31.5294 23.68 31.6118 23.7509 31.6806L26.9252 28.5128C26.7877 28.3751 26.6027 28.2955 26.4082 28.2903Z" fill="#B05056"/>
<path d="M26.5062 28.29H24.2024C23.8409 28.29 23.5479 28.5831 23.5479 28.9445V31.2484C23.5479 31.6099 23.8409 31.9029 24.2024 31.9029H26.5062C26.8677 31.9029 27.1607 31.6099 27.1607 31.2484V28.9445C27.1607 28.5831 26.8677 28.29 26.5062 28.29Z" stroke="#191816" stroke-width="0.7" stroke-linecap="round" stroke-linejoin="round"/>
<path d="M17.1543 6.61286V3" stroke="#191816" stroke-width="0.7" stroke-linecap="round" stroke-linejoin="round"/>
<path d="M19.0322 6.61253V4.35449" stroke="#191816" stroke-width="0.7" stroke-linecap="round" stroke-linejoin="round"/>
<path d="M26.5062 9.32275H24.2024C23.8409 9.32275 23.5479 9.61579 23.5479 9.97726V12.2811C23.5479 12.6426 23.8409 12.9356 24.2024 12.9356H26.5062C26.8677 12.9356 27.1607 12.6426 27.1607 12.2811V9.97726C27.1607 9.61579 26.8677 9.32275 26.5062 9.32275Z" fill="#FDA18F"/>
<path d="M26.4081 9.32252H24.3006C24.2002 9.3199 24.1002 9.33743 24.0066 9.37408C23.913 9.41073 23.8277 9.46576 23.7557 9.53591C23.6837 9.60607 23.6265 9.68993 23.5874 9.78256C23.5484 9.87518 23.5283 9.97469 23.5283 10.0752V12.1827C23.5281 12.2815 23.5477 12.3792 23.586 12.4703C23.6242 12.5613 23.6802 12.6438 23.7509 12.7129L26.9252 9.54505C26.7877 9.40736 26.6026 9.3277 26.4081 9.32252Z" fill="#B05056"/>
<path d="M26.5062 9.32275H24.2024C23.8409 9.32275 23.5479 9.61579 23.5479 9.97726V12.2811C23.5479 12.6426 23.8409 12.9356 24.2024 12.9356H26.5062C26.8677 12.9356 27.1607 12.6426 27.1607 12.2811V9.97726C27.1607 9.61579 26.8677 9.32275 26.5062 9.32275Z" stroke="#191816" stroke-width="0.7" stroke-linecap="round" stroke-linejoin="round"/>
<path d="M34.5638 17.5234H32.26C31.8985 17.5234 31.6055 17.8165 31.6055 18.1779V20.4818C31.6055 20.8433 31.8985 21.1363 32.26 21.1363H34.5638C34.9253 21.1363 35.2183 20.8433 35.2183 20.4818V18.1779C35.2183 17.8165 34.9253 17.5234 34.5638 17.5234Z" fill="#FDA18F"/>
<path d="M34.4657 17.5566H32.3581C32.1585 17.5566 31.9671 17.6359 31.8259 17.7771C31.6848 17.9183 31.6055 18.1097 31.6055 18.3093V20.4168C31.6056 20.6182 31.6856 20.8112 31.828 20.9535L34.9958 17.7792C34.9268 17.7086 34.8443 17.6525 34.7532 17.6143C34.6622 17.5761 34.5644 17.5565 34.4657 17.5566Z" fill="#B05056"/>
<path d="M34.5638 17.5234H32.26C31.8985 17.5234 31.6055 17.8165 31.6055 18.1779V20.4818C31.6055 20.8433 31.8985 21.1363 32.26 21.1363H34.5638C34.9253 21.1363 35.2183 20.8433 35.2183 20.4818V18.1779C35.2183 17.8165 34.9253 17.5234 34.5638 17.5234Z" stroke="#191816" stroke-width="0.7" stroke-linecap="round" stroke-linejoin="round"/>
<path d="M34.5638 23.6953H32.26C31.8985 23.6953 31.6055 23.9883 31.6055 24.3498V26.6537C31.6055 27.0151 31.8985 27.3082 32.26 27.3082H34.5638C34.9253 27.3082 35.2183 27.0151 35.2183 26.6537V24.3498C35.2183 23.9883 34.9253 23.6953 34.5638 23.6953Z" fill="#FDA18F"/>
<path d="M34.4657 23.6953H32.3581C32.1585 23.6953 31.9671 23.7746 31.8259 23.9158C31.6848 24.0569 31.6055 24.2484 31.6055 24.448V26.5555C31.6056 26.7568 31.6856 26.9499 31.828 27.0922L34.9958 23.9178C34.9268 23.8472 34.8443 23.7912 34.7532 23.753C34.6622 23.7147 34.5644 23.6951 34.4657 23.6953Z" fill="#B05056"/>
<path d="M34.5638 23.6953H32.26C31.8985 23.6953 31.6055 23.9883 31.6055 24.3498V26.6537C31.6055 27.0151 31.8985 27.3082 32.26 27.3082H34.5638C34.9253 27.3082 35.2183 27.0151 35.2183 26.6537V24.3498C35.2183 23.9883 34.9253 23.6953 34.5638 23.6953Z" stroke="#191816" stroke-width="0.7" stroke-linecap="round" stroke-linejoin="round"/>
<path d="M34.5638 29.8672H32.26C31.8985 29.8672 31.6055 30.1602 31.6055 30.5217V32.8255C31.6055 33.187 31.8985 33.4801 32.26 33.4801H34.5638C34.9253 33.4801 35.2183 33.187 35.2183 32.8255V30.5217C35.2183 30.1602 34.9253 29.8672 34.5638 29.8672Z" fill="#FDA18F"/>
<path d="M34.4661 29.8672H32.3586C32.2575 29.8671 32.1575 29.8874 32.0644 29.9269C31.9713 29.9663 31.8872 30.0241 31.8169 30.0968C31.7467 30.1695 31.6918 30.2556 31.6555 30.35C31.6193 30.4443 31.6024 30.545 31.6059 30.646V32.7536C31.606 32.9549 31.6861 33.1479 31.8285 33.2902L34.9963 30.1159C34.9295 30.0405 34.848 29.9796 34.7568 29.9368C34.6657 29.8941 34.5668 29.8704 34.4661 29.8672Z" fill="#B05056"/>
<path d="M34.5638 29.8672H32.26C31.8985 29.8672 31.6055 30.1602 31.6055 30.5217V32.8255C31.6055 33.187 31.8985 33.4801 32.26 33.4801H34.5638C34.9253 33.4801 35.2183 33.187 35.2183 32.8255V30.5217C35.2183 30.1602 34.9253 29.8672 34.5638 29.8672Z" stroke="#191816" stroke-width="0.7" stroke-linecap="round" stroke-linejoin="round"/>
<path d="M10.7854 15.645H17.3304C17.5387 15.645 17.7385 15.7278 17.8858 15.8751C18.0331 16.0224 18.1159 16.2221 18.1159 16.4304V38.2254H10V16.4304C10 16.2221 10.0827 16.0224 10.23 15.8751C10.3773 15.7278 10.5771 15.645 10.7854 15.645Z" fill="#FFCEBF" stroke="#191816" stroke-width="0.7" stroke-linecap="round" stroke-linejoin="round"/>
<path d="M18.1289 18.2759H10V20.907H18.1289V18.2759Z" fill="#FDA18F"/>
<path d="M10 18.2759V20.9135H12.402L15.1117 18.2759H10Z" fill="#B05056"/>
<path d="M18.1289 18.2759H10V20.907H18.1289V18.2759Z" stroke="#191816" stroke-width="0.7" stroke-linecap="round" stroke-linejoin="round"/>
<path d="M18.1289 23.7739H10V26.4836H18.1289V23.7739Z" fill="#FDA18F"/>
<path d="M10 23.7739V26.4836H12.402L15.1117 23.7739H10Z" fill="#B05056"/>
<path d="M18.1289 23.7739H10V26.4836H18.1289V23.7739Z" stroke="#191816" stroke-width="0.7" stroke-linecap="round" stroke-linejoin="round"/>
<path d="M18.1289 29.1934H10V31.903H18.1289V29.1934Z" fill="#FDA18F"/>
<path d="M10 29.1934V31.903H12.402L15.1117 29.1934H10Z" fill="#B05056"/>
<path d="M18.1289 29.1934H10V31.903H18.1289V29.1934Z" stroke="#191816" stroke-width="0.7" stroke-linecap="round" stroke-linejoin="round"/>
<path d="M27.0962 30.5024H25.5908" stroke="#191816" stroke-width="0.7" stroke-linecap="round" stroke-linejoin="round"/>
<path d="M19.3789 36.5239H20.1316" stroke="#191816" stroke-width="0.7" stroke-linecap="round" stroke-linejoin="round"/>
<path d="M18.627 33.5132H19.3796" stroke="#191816" stroke-width="0.7" stroke-linecap="round" stroke-linejoin="round"/>
</g>
<defs>
<filter id="filter0_d_2009_176184" x="0" y="0" width="48" height="48" filterUnits="userSpaceOnUse" color-interpolation-filters="sRGB">
<feFlood flood-opacity="0" result="BackgroundImageFix"/>
<feColorMatrix in="SourceAlpha" type="matrix" values="0 0 0 0 0 0 0 0 0 0 0 0 0 0 0 0 0 0 127 0" result="hardAlpha"/>
<feOffset dy="4"/>
<feGaussianBlur stdDeviation="2"/>
<feComposite in2="hardAlpha" operator="out"/>
<feColorMatrix type="matrix" values="0 0 0 0 0 0 0 0 0 0 0 0 0 0 0 0 0 0 0.15 0"/>
<feBlend mode="normal" in2="BackgroundImageFix" result="effect1_dropShadow_2009_176184"/>
<feBlend mode="normal" in="SourceGraphic" in2="effect1_dropShadow_2009_176184" result="shape"/>
</filter>
</defs>
</svg>
