<svg width="131" height="131" viewBox="0 0 131 131" fill="none" xmlns="http://www.w3.org/2000/svg">
<path d="M126.906 110.534H69.5938C67.334 110.534 65.5 108.7 65.5 106.44C65.5 104.181 65.5 26.8252 65.5 24.5654C65.5 22.3057 67.334 20.4717 69.5938 20.4717H126.906C129.166 20.4717 131 22.3057 131 24.5654V106.44C131 108.7 129.166 110.534 126.906 110.534Z" fill="#ECEFF1"/>
<path d="M85.9688 45.0342H69.5938C67.334 45.0342 65.5 43.2002 65.5 40.9404C65.5 38.6807 67.334 36.8467 69.5938 36.8467H85.9688C88.2285 36.8467 90.0625 38.6807 90.0625 40.9404C90.0625 43.2002 88.2285 45.0342 85.9688 45.0342Z" fill="#1AB08D"/>
<path d="M85.9688 61.4092H69.5938C67.334 61.4092 65.5 59.5752 65.5 57.3154C65.5 55.0557 67.334 53.2217 69.5938 53.2217H85.9688C88.2285 53.2217 90.0625 55.0557 90.0625 57.3154C90.0625 59.5752 88.2285 61.4092 85.9688 61.4092Z" fill="#1AB08D"/>
<path d="M85.9688 77.7842H69.5938C67.334 77.7842 65.5 75.9502 65.5 73.6904C65.5 71.4307 67.334 69.5967 69.5938 69.5967H85.9688C88.2285 69.5967 90.0625 71.4307 90.0625 73.6904C90.0625 75.9502 88.2285 77.7842 85.9688 77.7842Z" fill="#1AB08D"/>
<path d="M85.9688 94.1592H69.5938C67.334 94.1592 65.5 92.3252 65.5 90.0654C65.5 87.8057 67.334 85.9717 69.5938 85.9717H85.9688C88.2285 85.9717 90.0625 87.8057 90.0625 90.0654C90.0625 92.3252 88.2285 94.1592 85.9688 94.1592Z" fill="#1AB08D"/>
<path d="M110.531 45.0342H102.344C100.084 45.0342 98.25 43.2002 98.25 40.9404C98.25 38.6807 100.084 36.8467 102.344 36.8467H110.531C112.791 36.8467 114.625 38.6807 114.625 40.9404C114.625 43.2002 112.791 45.0342 110.531 45.0342Z" fill="#1AB08D"/>
<path d="M110.531 61.4092H102.344C100.084 61.4092 98.25 59.5752 98.25 57.3154C98.25 55.0557 100.084 53.2217 102.344 53.2217H110.531C112.791 53.2217 114.625 55.0557 114.625 57.3154C114.625 59.5752 112.791 61.4092 110.531 61.4092Z" fill="#1AB08D"/>
<path d="M110.531 77.7842H102.344C100.084 77.7842 98.25 75.9502 98.25 73.6904C98.25 71.4307 100.084 69.5967 102.344 69.5967H110.531C112.791 69.5967 114.625 71.4307 114.625 73.6904C114.625 75.9502 112.791 77.7842 110.531 77.7842Z" fill="#1AB08D"/>
<path d="M110.531 94.1592H102.344C100.084 94.1592 98.25 92.3252 98.25 90.0654C98.25 87.8057 100.084 85.9717 102.344 85.9717H110.531C112.791 85.9717 114.625 87.8057 114.625 90.0654C114.625 92.3252 112.791 94.1592 110.531 94.1592Z" fill="#1AB08D"/>
<path d="M72.2056 5.03814C71.2722 4.26033 70.0195 3.92464 68.8405 4.17027L3.3405 16.4515C1.40006 16.8118 0 18.4984 0 20.4716V110.534C0 112.499 1.40006 114.194 3.3405 114.554L68.8405 126.835C69.0861 126.885 69.3399 126.909 69.5938 126.909C70.5435 126.909 71.4687 126.582 72.2056 125.968C73.1471 125.19 73.6875 124.027 73.6875 122.815V8.19033C73.6875 6.97039 73.1471 5.81596 72.2056 5.03814Z" fill="#1AB08D"/>
<path d="M56.2973 79.1842L43.3529 64.3894L56.4447 47.5559C57.8366 45.771 57.5091 43.2001 55.7324 41.8082C53.9557 40.4164 51.3848 40.7439 49.9848 42.5205L37.8591 58.1095L27.6411 46.4342C26.1427 44.7148 23.5555 44.5592 21.8689 46.0494C20.1659 47.5395 19.9939 50.1267 21.4841 51.8215L32.7419 64.6923L21.3285 79.3643C19.9366 81.1492 20.2641 83.72 22.0408 85.1119C22.7941 85.6932 23.6865 85.9716 24.5626 85.9716C25.7825 85.9716 26.9861 85.4312 27.7966 84.3914L38.2357 70.9639L50.1403 84.5634C50.9509 85.4967 52.0807 85.9716 53.2188 85.9716C54.1768 85.9716 55.1347 85.6359 55.9125 84.9564C57.6155 83.4662 57.7874 80.879 56.2973 79.1842Z" fill="#FAFAFA"/>
</svg>
