<svg width="83" height="48" viewBox="0 0 83 48" fill="none" xmlns="http://www.w3.org/2000/svg">
<path d="M2.3316 11.8477C1.95766 11.8477 1.59902 11.9965 1.3346 12.2615C1.07018 12.5264 0.921631 12.8858 0.921631 13.2604V46.0356C0.924832 46.4093 1.07441 46.7667 1.33814 47.031C1.60187 47.2952 1.95865 47.4451 2.3316 47.4483H50.8101C51.0884 47.4486 51.364 47.3934 51.6208 47.2858C51.8776 47.1782 52.1105 47.0205 52.3058 46.8218L59.5151 39.5862C59.7106 39.3891 59.8654 39.1552 59.9706 38.898C60.0758 38.6409 60.1293 38.3654 60.1281 38.0875V13.2604C60.1297 13.0745 60.0944 12.89 60.0241 12.7179C59.9538 12.5457 59.85 12.3893 59.7188 12.2578C59.5875 12.1263 59.4314 12.0223 59.2596 11.9519C59.0878 11.8815 58.9038 11.8461 58.7181 11.8477H2.3316Z" fill="white"/>
<path d="M50.8106 46.9483H50.8101H2.33393C2.09312 46.9457 1.86266 46.8487 1.69204 46.6778C1.52137 46.5068 1.4242 46.2754 1.42163 46.0332V13.2604C1.42163 13.018 1.51774 12.7858 1.6885 12.6147C1.85923 12.4436 2.09058 12.3477 2.3316 12.3477L58.7181 12.3477L58.7226 12.3477C58.8416 12.3466 58.9597 12.3694 59.07 12.4146C59.1803 12.4598 59.2805 12.5265 59.3649 12.611C59.4492 12.6956 59.516 12.7961 59.5612 12.9069C59.6064 13.0176 59.6292 13.1363 59.6281 13.256V13.2604L59.6281 38.0875L59.6281 38.0897C59.629 38.302 59.5882 38.5124 59.5078 38.7087C59.4275 38.905 59.3094 39.0835 59.1603 39.2339C59.1602 39.234 59.1602 39.234 59.1601 39.2341L51.9516 46.4689L51.9493 46.4713C51.8005 46.6226 51.6232 46.7427 51.4277 46.8246C51.2322 46.9065 51.0224 46.9485 50.8106 46.9483Z" stroke="#98262F" stroke-linecap="round" stroke-linejoin="round"/>
<path d="M60.1403 13.0761V18.6287L0.92152 18.6287V13.0761C0.92152 12.7503 1.05069 12.4378 1.28062 12.2075C1.51056 11.9771 1.82241 11.8477 2.14758 11.8477L58.9142 11.8477C59.2394 11.8477 59.5512 11.9771 59.7812 12.2075C60.0111 12.4378 60.1403 12.7503 60.1403 13.0761Z" fill="#FE3F4E"/>
<path d="M6.84363 29.6475H28.8392" stroke="#98262F" stroke-linecap="round" stroke-linejoin="round"/>
<path d="M6.84363 24.5635H22.9173" stroke="#98262F" stroke-linecap="round" stroke-linejoin="round"/>
<path d="M28.1402 35.582C27.7462 35.9762 27.4553 36.4616 27.2934 36.9954C27.1314 37.5291 27.1035 38.0947 27.2119 38.6418C27.3203 39.189 27.5619 39.7009 27.915 40.1322C28.2682 40.5635 28.7222 40.9007 29.2366 41.1141C29.751 41.3275 30.31 41.4105 30.8641 41.3555C31.4182 41.3006 31.9502 41.1096 32.4129 40.7993C32.8757 40.4891 33.2548 40.0692 33.5168 39.577C33.7789 39.0848 33.9156 38.5354 33.9149 37.9775V38.6532C33.9149 39.3732 34.2004 40.0637 34.7086 40.5729C35.2167 41.082 35.9059 41.368 36.6245 41.368C37.3432 41.368 38.0324 41.082 38.5405 40.5729C39.0487 40.0637 39.3341 39.3732 39.3341 38.6532C39.3341 39.3732 39.6196 40.0637 40.1278 40.5729C40.6359 41.082 41.3251 41.368 42.0437 41.368H44.0667" stroke="#98262F" stroke-linecap="round" stroke-linejoin="round"/>
<path d="M59.6403 13.0761V18.1287L1.42152 18.1287V13.0761C1.42152 12.8826 1.49825 12.6972 1.63452 12.5607C1.77076 12.4242 1.95534 12.3477 2.14758 12.3477L58.9142 12.3477C59.1064 12.3477 59.291 12.4242 59.4273 12.5607C59.5635 12.6972 59.6403 12.8826 59.6403 13.0761Z" stroke="#98262F" stroke-linecap="round" stroke-linejoin="round"/>
<path d="M81.8784 6.39374L55.4078 32.9284L50.1357 27.6337L76.6064 1.0991C77.3088 0.39536 78.2614 -7.41513e-09 79.2547 0C80.248 7.41512e-09 81.2006 0.39536 81.903 1.0991C82.6053 1.80284 82.9999 2.75732 82.9999 3.75256C82.9999 4.7478 82.6053 5.70228 81.903 6.40603L81.8784 6.39374Z" fill="white"/>
<mask id="path-9-inside-1_3181_159738" fill="white">
<path d="M59.9565 38.9727H53.0905C52.7166 38.9727 52.3579 39.1215 52.0935 39.3864C51.8291 39.6514 51.6805 40.0107 51.6805 40.3854V47.2524"/>
</mask>
<path d="M59.9565 39.9727C60.5087 39.9727 60.9565 39.5249 60.9565 38.9727C60.9565 38.4204 60.5087 37.9727 59.9565 37.9727V39.9727ZM50.6805 47.2524C50.6805 47.8047 51.1283 48.2524 51.6805 48.2524C52.2328 48.2524 52.6805 47.8047 52.6805 47.2524H50.6805ZM59.9565 37.9727H53.0905V39.9727H59.9565V37.9727ZM53.0905 37.9727C52.4507 37.9727 51.8375 38.2273 51.3857 38.68L52.8013 40.0929C52.8783 40.0157 52.9824 39.9727 53.0905 39.9727V37.9727ZM51.3857 38.68C50.934 39.1326 50.6805 39.7461 50.6805 40.3854H52.6805C52.6805 40.2753 52.7242 40.1701 52.8013 40.0929L51.3857 38.68ZM50.6805 40.3854V47.2524H52.6805V40.3854H50.6805Z" fill="#98262F" mask="url(#path-9-inside-1_3181_159738)"/>
<path d="M69.9613 7.7207L75.2579 13.0276" stroke="#98262F" stroke-linecap="round" stroke-linejoin="round"/>
<mask id="path-12-inside-2_3181_159738" fill="white">
<path d="M63.3406 7.72071L67.9751 3.07715C68.8533 2.19796 70.044 1.7041 71.2855 1.7041C72.5269 1.7041 73.7176 2.19796 74.5958 3.07715"/>
</mask>
<path d="M62.6328 7.0143C62.2426 7.4052 62.2433 8.03837 62.6342 8.42851C63.0251 8.81865 63.6582 8.81804 64.0484 8.42713L62.6328 7.0143ZM67.9751 3.07715L67.2676 2.37044L67.2673 2.37074L67.9751 3.07715ZM73.8883 3.78387C74.2786 4.17461 74.9118 4.17496 75.3025 3.78465C75.6933 3.39434 75.6936 2.76118 75.3033 2.37044L73.8883 3.78387ZM64.0484 8.42713L68.6829 3.78357L67.2673 2.37074L62.6328 7.0143L64.0484 8.42713ZM68.6826 3.78387C69.3734 3.09225 70.3097 2.7041 71.2855 2.7041V0.704102C69.7783 0.704102 68.3332 1.30368 67.2676 2.37044L68.6826 3.78387ZM71.2855 2.7041C72.2612 2.7041 73.1975 3.09225 73.8883 3.78387L75.3033 2.37044C74.2377 1.30368 72.7926 0.704102 71.2855 0.704102V2.7041Z" fill="#98262F" mask="url(#path-12-inside-2_3181_159738)"/>
<path d="M54.4603 32.71L48.2433 34.7896L50.3284 28.5604L54.4603 32.71Z" fill="#FE3F4E" stroke="#98262F" stroke-linecap="round" stroke-linejoin="round"/>
<path d="M81.6467 5.95065C81.6024 5.97381 81.5611 6.00389 81.5245 6.04062L55.4081 32.2201L50.8417 27.634L76.9603 1.45231C76.9603 1.45228 76.9603 1.45226 76.9604 1.45223C77.569 0.842412 78.3943 0.5 79.2547 0.5C80.1151 0.5 80.9404 0.842444 81.5491 1.45231L81.903 1.0991L81.5491 1.45231C82.1578 2.06221 82.4999 2.88962 82.4999 3.75256C82.4999 4.56824 82.1942 5.35216 81.6467 5.95065Z" stroke="#98262F" stroke-linecap="round" stroke-linejoin="round"/>
</svg>
