<svg width="22" height="22" viewBox="0 0 22 22" fill="none" xmlns="http://www.w3.org/2000/svg">
<g clip-path="url(#clip0_146_722)">
<path d="M11 0C10.7958 0 10.5999 0.0811248 10.4555 0.225528C10.3111 0.369931 10.23 0.565783 10.23 0.77V18.37C10.23 18.5742 10.3111 18.7701 10.4555 18.9145C10.5999 19.0589 10.7958 19.14 11 19.14C11.2042 19.14 11.4 19.0589 11.5445 18.9145C11.6889 18.7701 11.77 18.5742 11.77 18.37V10.34H21.23C21.4342 10.34 21.63 10.2589 21.7745 10.1145C21.9189 9.97007 22 9.77422 22 9.57V0.77C22 0.565783 21.9189 0.369931 21.7745 0.225528C21.63 0.0811248 21.4342 0 21.23 0H11.11C11.0913 5.64628e-05 11.0727 0.00079028 11.0541 0.0022C11.0361 0.000832196 11.018 9.84093e-05 11 0V0Z" fill="white"/>
<path d="M8.3609 16.894C6.03022 17.2236 4.40002 18.0116 4.40002 19.1713C4.40002 20.7333 7.12384 21.9998 11 21.9998C14.8762 21.9998 17.6 20.7335 17.6 19.1713C17.6 18.0114 15.9698 17.2236 13.6394 16.8943L13.3164 17.444C15.0731 17.6876 16.28 18.2 16.28 18.7942C16.28 19.6273 13.9161 20.3027 11 20.3027C8.08392 20.3027 5.72002 19.6273 5.72002 18.7942C5.7198 18.2019 6.91902 17.6902 8.681 17.4456C8.57452 17.2617 8.4676 17.0782 8.3609 16.894Z" fill="white"/>
</g>
<defs>
<clipPath id="clip0_146_722">
<rect width="22" height="22" fill="white"/>
</clipPath>
</defs>
</svg>
