<svg width="16" height="16" viewBox="0 0 16 16" fill="none" xmlns="http://www.w3.org/2000/svg">
<path d="M3.80542 10.5075H11.402" stroke="#130F26" stroke-width="1.5" stroke-linecap="round" stroke-linejoin="round"/>
<path d="M3.01894 1.8964L3.01928 1.89633C4.78979 1.53221 6.02182 1.67983 7.00208 2.20867L7.00226 2.20877C7.38867 2.41709 7.5132 2.63972 7.71751 3.0211L7.72189 3.02928C7.95017 3.45547 8.25436 4.02337 9.05253 4.47733C9.50214 4.73314 9.98621 4.80976 10.4121 4.8341C10.6905 4.85001 11.0048 4.84414 11.2855 4.83889C11.4097 4.83656 11.5273 4.83436 11.6324 4.83423C12.3992 4.83324 12.9228 4.92383 13.3356 5.36925L13.3356 5.36927C13.8741 5.95017 14.1664 6.71355 14.318 7.54775C14.47 8.38476 14.47 9.2286 14.47 9.94483C14.47 12.4968 13.7655 13.6296 12.7586 14.2205C11.6349 14.88 9.94456 15.0035 7.61 15.0035C6.46425 15.0035 5.45568 14.9797 4.57829 14.8665C3.70064 14.7532 3.00277 14.5558 2.45891 14.2394C1.4563 13.6561 0.75 12.5272 0.75 9.94483V5.14149C0.75 3.4496 1.59039 2.1895 3.01894 1.8964Z" stroke="#130F26" stroke-width="1.5" stroke-linecap="round" stroke-linejoin="round"/>
</svg>
