<svg width="19" height="15" viewBox="0 0 19 15" fill="none" xmlns="http://www.w3.org/2000/svg">
<path d="M16.5 2.25H9.5L8.26625 1.01625C7.93375 0.68375 7.4875 0.5 7.02375 0.5H2.5C1.5375 0.5 0.75875 1.2875 0.75875 2.25L0.75 12.75C0.75 13.7125 1.5375 14.5 2.5 14.5H16.5C17.4625 14.5 18.25 13.7125 18.25 12.75V4C18.25 3.0375 17.4625 2.25 16.5 2.25ZM10.375 8.375V11C10.375 11.4812 9.98125 11.875 9.5 11.875C9.01875 11.875 8.625 11.4812 8.625 11V8.375H7.05875C6.665 8.375 6.4725 7.9025 6.7525 7.63125L9.2025 5.19C9.3775 5.015 9.64875 5.02375 9.82375 5.19L12.265 7.63125C12.5275 7.9025 12.335 8.375 11.95 8.375H10.375Z" fill="white"/>
</svg>
