<svg width="45" height="39" viewBox="0 0 45 39" fill="none" xmlns="http://www.w3.org/2000/svg">
<path d="M38.0379 37.4589C37.9729 37.7224 37.8553 37.9703 37.6922 38.1876C37.529 38.405 37.3237 38.5875 37.0883 38.7243C36.853 38.861 36.5924 38.9492 36.3222 38.9836C36.0519 39.0181 35.7774 38.998 35.5151 38.9247L1.59768 29.9206C1.3254 29.8586 1.06865 29.742 0.843114 29.5779C0.617575 29.4138 0.427975 29.2057 0.285887 28.9662C0.143798 28.7267 0.0521949 28.4609 0.0166827 28.1849C-0.0188295 27.909 0.00249079 27.6288 0.0793344 27.3613L7.08707 1.53565C7.15495 1.27375 7.27426 1.02785 7.43811 0.812139C7.60195 0.596431 7.80708 0.415195 8.04165 0.278905C8.27622 0.142615 8.53559 0.0539703 8.80475 0.0180923C9.07392 -0.0177858 9.34756 -0.000189313 9.60985 0.0698714L15.6131 1.67525L18.533 6.65425L42.4527 13.0525C42.7173 13.1173 42.9662 13.2344 43.1844 13.3968C43.4027 13.5593 43.5859 13.7638 43.7232 13.9983C43.8605 14.2327 43.949 14.4922 43.9836 14.7614C44.0181 15.0306 43.998 15.304 43.9244 15.5653L38.0379 37.4589Z" fill="#FFE500"/>
<path d="M43.4567 12.7242L19.6937 6.48467L16.7929 1.61915L10.829 0.064889C10.5653 -0.00226394 10.2904 -0.0174903 10.0205 0.0201204C9.75068 0.0577312 9.49132 0.147416 9.25773 0.283877C9.02415 0.420338 8.82108 0.600818 8.6605 0.814672C8.49992 1.02853 8.38507 1.27142 8.32274 1.52904L7 6.32699C7.06994 6.07546 7.19027 5.83978 7.35411 5.63343C7.51796 5.42708 7.7221 5.25411 7.95487 5.1244C8.18764 4.99469 8.44447 4.91079 8.71067 4.8775C8.97687 4.84422 9.24721 4.8622 9.50625 4.93041L15.447 6.46215L18.3477 11.3502L42.1339 17.5222C42.6651 17.6645 43.1167 18.0048 43.3906 18.4689C43.6644 18.933 43.7382 19.4833 43.5959 20L44.9186 15.1795C44.9954 14.9251 45.0182 14.6582 44.9856 14.395C44.953 14.1318 44.8657 13.8777 44.729 13.6482C44.5924 13.4186 44.4091 13.2184 44.1904 13.0596C43.9717 12.9008 43.7221 12.7867 43.4567 12.7242Z" fill="#FFF48C"/>
<path d="M38.555 37.3291L38.5549 37.329L38.5524 37.3391C38.5035 37.5373 38.4151 37.7238 38.2922 37.8875C38.1694 38.0513 38.0147 38.1888 37.8372 38.2919C37.6596 38.3951 37.463 38.4617 37.259 38.4877C37.0549 38.5136 36.8477 38.4985 36.6497 38.4431L36.6497 38.4431L36.6434 38.4414L2.72597 29.4373C2.72022 29.4358 2.71444 29.4344 2.70864 29.4331C2.50235 29.3861 2.30795 29.2978 2.13727 29.1736C1.9666 29.0495 1.82326 28.892 1.71591 28.7111C1.60855 28.5301 1.5394 28.3294 1.51259 28.1211C1.48579 27.9128 1.50188 27.7013 1.55989 27.4994L1.55995 27.4994L1.56188 27.4922L8.56962 1.66659L8.56965 1.6666L8.57107 1.6611C8.62232 1.46338 8.71242 1.27762 8.83627 1.11457L8.45176 0.822513L8.83627 1.11457C8.96012 0.951518 9.11527 0.8144 9.29284 0.71123C9.47042 0.608055 9.66686 0.540895 9.87082 0.513709C10.0748 0.486522 10.2821 0.49986 10.4808 0.552936L16.2857 2.10525L19.1017 6.90719C19.1682 7.02062 19.2768 7.10329 19.4038 7.13727L43.3235 13.5355L43.3235 13.5356L43.3339 13.5382C43.5336 13.587 43.7213 13.6754 43.8858 13.7979C44.0504 13.9204 44.1884 14.0745 44.2917 14.2509C44.3951 14.4274 44.4617 14.6226 44.4877 14.8251C44.5136 15.0275 44.4985 15.2331 44.4431 15.4296L44.4431 15.4296L44.4415 15.4354L38.555 37.3291Z" stroke="#191816" stroke-linecap="round" stroke-linejoin="round"/>
</svg>
