<svg width="230" height="54" viewBox="0 0 230 54" fill="none" xmlns="http://www.w3.org/2000/svg">
<path d="M18.1627 4.04975C31.5291 0.187303 45.5242 7.80032 49.4172 21.0525C53.3129 34.3047 45.637 48.1802 32.2706 52.0399C18.9016 55.9023 4.90917 48.292 1.01347 35.0399C-2.88229 21.785 4.79635 7.91217 18.1627 4.04975Z" fill="#0688F2"/>
<path d="M18.3399 4.65169C31.3705 0.887787 45.0136 8.30904 48.8125 21.2282C52.6089 34.1474 45.1237 47.674 32.0932 51.4406C19.06 55.2044 5.41957 47.7832 1.62057 34.864C-2.17574 21.9421 5.30942 8.41823 18.3399 4.65169Z" fill="white"/>
<path d="M48.3022 33.0575C46.5097 41.1534 40.4256 48.0521 31.8284 50.5372C29.9141 51.0907 27.9823 51.3935 26.0714 51.4631C15.5042 51.8494 5.62271 45.1248 2.52836 34.5994C-1.12279 22.1805 6.07512 9.17338 18.6054 5.55352C31.1357 1.93366 44.2508 9.06896 47.9019 21.4914C49.047 25.3931 49.1271 29.3506 48.3022 33.0575Z" fill="#0688F2"/>
<path d="M24.8705 32.9113L7.58914 25.4697L13.4575 29.6569V37.8503L26.0714 51.4631C27.9822 51.3934 29.914 51.0907 31.8284 50.5372C40.4255 48.052 46.5096 41.1534 48.3021 33.0575L42.5486 25.0868L24.8705 32.9113Z" fill="url(#paint0_linear_806_24125)"/>
<path d="M42.9986 6.79882C45.3951 6.94265 47.2193 8.98576 47.0743 11.3618C46.9292 13.7379 44.8685 15.5466 42.4719 15.4028C40.0754 15.2589 38.2484 13.2158 38.3963 10.8397C38.5413 8.46369 40.602 6.65233 42.9986 6.79882Z" fill="#0688F2"/>
<path d="M7.95856 24.4647L25.1911 16.9955L42.0905 24.0784L24.952 31.5982L15.3067 27.5919C18.5325 26.2974 21.4059 25.2099 24.6216 23.9213C24.7835 23.8564 24.9214 23.738 24.9983 23.5815C25.3468 22.8726 24.3189 21.9204 23.1223 22.4775L13.2164 26.7315L7.95856 24.4647Z" fill="white"/>
<path d="M23.5844 22.8213L13.8747 26.9022L13.8478 29.4754L13.4583 29.7844V37.978L13.7378 37.9818L13.7484 30.6501L13.9472 30.6449L13.9365 37.9846L14.2047 37.988L14.1729 32.0325L14.3718 32.0299L14.4009 37.9908L14.6158 37.9936L14.584 32.0325L14.7828 32.0299L14.8119 37.9964L15.0515 37.9995L14.9924 29.7603L14.7264 29.4513L14.7506 27.2698C17.7785 26.0765 21.067 24.7978 24.0976 23.6044C24.6135 23.3353 24.2642 22.5949 23.5844 22.8213Z" fill="white"/>
<path d="M16.8032 29.9947L16.7871 35.2317C18.5469 40.173 31.0025 40.4313 33.1142 35.237L32.9584 29.8349L24.8687 33.4496L16.8032 29.9947Z" fill="white"/>
<path d="M7.98808 25.1042C9.78548 25.8633 11.5829 26.6198 13.3776 27.379C13.6759 27.5761 13.4958 28.0503 13.0982 27.9277C11.3088 27.2378 9.47384 26.3694 7.71135 25.5996C7.43466 25.4131 7.67644 25.0003 7.98808 25.1042Z" fill="white"/>
<path d="M15.5001 28.2235L24.8203 32.1498L24.9198 32.1898L25.6183 31.8861C31.083 29.5021 36.5505 27.118 42.0153 24.7339C42.5204 24.4542 42.8804 24.9603 42.2866 25.2267L25.4383 32.648L24.8714 32.8451L24.3636 32.648L15.2583 28.7908C14.858 28.5298 15.1804 28.0929 15.5001 28.2235Z" fill="white"/>
<path d="M42.9636 7.37417C45.0378 7.49936 46.6203 9.2681 46.494 11.3272C46.3677 13.3863 44.5837 14.9526 42.5069 14.8274C40.4301 14.7022 38.8503 12.9334 38.9766 10.8743C39.1029 8.81526 40.8868 7.24897 42.9636 7.37417Z" fill="#FEFEFE"/>
<path d="M71.0715 19.2759C71.0715 18.6493 70.8477 18.161 70.4001 17.811C69.9606 17.4611 69.1834 17.099 68.0685 16.7246C66.9536 16.3503 66.0422 15.9881 65.3342 15.6382C63.0311 14.507 61.8796 12.9526 61.8796 10.9751C61.8796 9.9904 62.1644 9.1237 62.7341 8.375C63.3119 7.61816 64.1257 7.03223 65.1755 6.61719C66.2253 6.19401 67.4053 5.98242 68.7155 5.98242C69.9932 5.98242 71.1366 6.21029 72.1457 6.66602C73.1629 7.12174 73.9523 7.77279 74.5138 8.61914C75.0754 9.45736 75.3561 10.4176 75.3561 11.5H71.0837C71.0837 10.7757 70.8599 10.2142 70.4123 9.81543C69.9728 9.41667 69.3747 9.21729 68.6178 9.21729C67.8529 9.21729 67.2466 9.38818 66.799 9.72998C66.3595 10.0636 66.1398 10.4909 66.1398 11.0117C66.1398 11.4674 66.384 11.8825 66.8722 12.2568C67.3605 12.623 68.2191 13.0055 69.4479 13.4043C70.6768 13.7949 71.6859 14.2181 72.4753 14.6738C74.3958 15.7806 75.3561 17.3065 75.3561 19.2515C75.3561 20.8058 74.7702 22.0265 73.5983 22.9136C72.4264 23.8006 70.8192 24.2441 68.7765 24.2441C67.3361 24.2441 66.03 23.9878 64.8581 23.4751C63.6943 22.9543 62.8154 22.2463 62.2214 21.3511C61.6354 20.4478 61.3425 19.4102 61.3425 18.2383H65.6393C65.6393 19.1904 65.8835 19.8944 66.3717 20.3501C66.8682 20.7977 67.6698 21.0215 68.7765 21.0215C69.4845 21.0215 70.042 20.8709 70.4489 20.5698C70.8639 20.2606 71.0715 19.8293 71.0715 19.2759ZM91.9333 17.9819C91.8763 19.2189 91.5426 20.3135 90.9323 21.2656C90.3219 22.2096 89.4634 22.9421 88.3566 23.4629C87.258 23.9837 86.0007 24.2441 84.5846 24.2441C82.249 24.2441 80.4098 23.4832 79.0671 21.9614C77.7243 20.4396 77.0529 18.2912 77.0529 15.5161V14.6372C77.0529 12.8957 77.354 11.3739 77.9562 10.0718C78.5666 8.76156 79.4414 7.75244 80.5807 7.04443C81.7201 6.32829 83.0384 5.97021 84.5358 5.97021C86.6924 5.97021 88.4258 6.53988 89.736 7.6792C91.0462 8.81038 91.7909 10.3729 91.9699 12.3667H87.6974C87.6649 11.2843 87.3923 10.5072 86.8796 10.0352C86.3669 9.56315 85.5856 9.32715 84.5358 9.32715C83.4697 9.32715 82.6885 9.72591 82.1921 10.5234C81.6956 11.321 81.4352 12.5946 81.4108 14.3442V15.6016C81.4108 17.4977 81.6468 18.8527 82.1188 19.6665C82.599 20.4803 83.4209 20.8872 84.5846 20.8872C85.5693 20.8872 86.3221 20.6553 86.8429 20.1914C87.3638 19.7275 87.6405 18.991 87.673 17.9819H91.9333ZM108.816 24H104.555V16.5781H98.2443V24H93.9596V6.22656H98.2443V13.2822H104.555V6.22656H108.816V24ZM126.589 15.4795C126.589 17.2129 126.268 18.7469 125.625 20.0815C124.982 21.4162 124.066 22.4456 122.878 23.1699C121.698 23.8861 120.351 24.2441 118.838 24.2441C117.324 24.2441 115.981 23.8983 114.809 23.2065C113.637 22.5067 112.722 21.5098 112.063 20.2158C111.412 18.9219 111.07 17.4367 111.037 15.7603V14.7593C111.037 13.0177 111.355 11.4837 111.989 10.1572C112.632 8.82259 113.548 7.79313 114.736 7.06885C115.932 6.34456 117.291 5.98242 118.813 5.98242C120.319 5.98242 121.661 6.34049 122.841 7.05664C124.021 7.77279 124.937 8.79411 125.588 10.1206C126.247 11.439 126.581 12.9526 126.589 14.6616V15.4795ZM122.231 14.7349C122.231 12.9689 121.934 11.6302 121.34 10.7188C120.754 9.79915 119.912 9.33936 118.813 9.33936C116.665 9.33936 115.529 10.9507 115.407 14.1733L115.395 15.4795C115.395 17.221 115.684 18.5597 116.262 19.4956C116.84 20.4315 117.698 20.8994 118.838 20.8994C119.92 20.8994 120.754 20.4396 121.34 19.52C121.926 18.6004 122.223 17.278 122.231 15.5527V14.7349ZM143.85 15.4795C143.85 17.2129 143.528 18.7469 142.885 20.0815C142.243 21.4162 141.327 22.4456 140.139 23.1699C138.959 23.8861 137.612 24.2441 136.098 24.2441C134.585 24.2441 133.242 23.8983 132.07 23.2065C130.898 22.5067 129.983 21.5098 129.323 20.2158C128.672 18.9219 128.331 17.4367 128.298 15.7603V14.7593C128.298 13.0177 128.615 11.4837 129.25 10.1572C129.893 8.82259 130.809 7.79313 131.997 7.06885C133.193 6.34456 134.552 5.98242 136.074 5.98242C137.579 5.98242 138.922 6.34049 140.102 7.05664C141.282 7.77279 142.198 8.79411 142.849 10.1206C143.508 11.439 143.842 12.9526 143.85 14.6616V15.4795ZM139.492 14.7349C139.492 12.9689 139.195 11.6302 138.601 10.7188C138.015 9.79915 137.173 9.33936 136.074 9.33936C133.925 9.33936 132.79 10.9507 132.668 14.1733L132.656 15.4795C132.656 17.221 132.945 18.5597 133.523 19.4956C134.1 20.4315 134.959 20.8994 136.098 20.8994C137.181 20.8994 138.015 20.4396 138.601 19.52C139.187 18.6004 139.484 17.278 139.492 15.5527V14.7349ZM150.344 20.7041H157.802V24H146.059V6.22656H150.344V20.7041Z" fill="#54A9FF"/>
<path d="M173.562 9.53467H168.227V24H163.943V9.53467H158.706V6.22656H173.562V9.53467ZM184.011 20.6797H178.139L177.114 24H172.536L179.055 6.22656H183.083L189.651 24H185.049L184.011 20.6797ZM179.165 17.3716H182.986L181.069 11.207L179.165 17.3716ZM195.241 20.7041H202.7V24H190.957V6.22656H195.241V20.7041ZM210.549 17.3838L208.791 19.3125V24H204.507V6.22656H208.791V14.0635L210.28 11.8052L214.113 6.22656H219.411L213.405 14.0879L219.411 24H214.333L210.549 17.3838Z" fill="#BDBDBD"/>
<path d="M62.52 37.7V41.195H66.33V42.32H62.52V45.92H66.78V47.045H61.155V36.575H66.78V37.7H62.52ZM68.3354 42.905C68.3354 42.065 68.5054 41.33 68.8454 40.7C69.1854 40.06 69.6504 39.565 70.2404 39.215C70.8404 38.865 71.5104 38.69 72.2504 38.69C72.8904 38.69 73.4854 38.84 74.0354 39.14C74.5854 39.43 75.0054 39.815 75.2954 40.295V35.945H76.6754V47.045H75.2954V45.5C75.0254 45.99 74.6254 46.395 74.0954 46.715C73.5654 47.025 72.9454 47.18 72.2354 47.18C71.5054 47.18 70.8404 47 70.2404 46.64C69.6504 46.28 69.1854 45.775 68.8454 45.125C68.5054 44.475 68.3354 43.735 68.3354 42.905ZM75.2954 42.92C75.2954 42.3 75.1704 41.76 74.9204 41.3C74.6704 40.84 74.3304 40.49 73.9004 40.25C73.4804 40 73.0154 39.875 72.5054 39.875C71.9954 39.875 71.5304 39.995 71.1104 40.235C70.6904 40.475 70.3554 40.825 70.1054 41.285C69.8554 41.745 69.7304 42.285 69.7304 42.905C69.7304 43.535 69.8554 44.085 70.1054 44.555C70.3554 45.015 70.6904 45.37 71.1104 45.62C71.5304 45.86 71.9954 45.98 72.5054 45.98C73.0154 45.98 73.4804 45.86 73.9004 45.62C74.3304 45.37 74.6704 45.015 74.9204 44.555C75.1704 44.085 75.2954 43.54 75.2954 42.92ZM86.2721 38.825V47.045H84.9071V45.83C84.6471 46.25 84.2821 46.58 83.8121 46.82C83.3521 47.05 82.8421 47.165 82.2821 47.165C81.6421 47.165 81.0671 47.035 80.5571 46.775C80.0471 46.505 79.6421 46.105 79.3421 45.575C79.0521 45.045 78.9071 44.4 78.9071 43.64V38.825H80.2571V43.46C80.2571 44.27 80.4621 44.895 80.8721 45.335C81.2821 45.765 81.8421 45.98 82.5521 45.98C83.2821 45.98 83.8571 45.755 84.2771 45.305C84.6971 44.855 84.9071 44.2 84.9071 43.34V38.825H86.2721ZM88.0669 42.92C88.0669 42.07 88.2369 41.33 88.5769 40.7C88.9169 40.06 89.3869 39.565 89.9869 39.215C90.5969 38.865 91.2919 38.69 92.0719 38.69C93.0819 38.69 93.9119 38.935 94.5619 39.425C95.2219 39.915 95.6569 40.595 95.8669 41.465H94.3969C94.2569 40.965 93.9819 40.57 93.5719 40.28C93.1719 39.99 92.6719 39.845 92.0719 39.845C91.2919 39.845 90.6619 40.115 90.1819 40.655C89.7019 41.185 89.4619 41.94 89.4619 42.92C89.4619 43.91 89.7019 44.675 90.1819 45.215C90.6619 45.755 91.2919 46.025 92.0719 46.025C92.6719 46.025 93.1719 45.885 93.5719 45.605C93.9719 45.325 94.2469 44.925 94.3969 44.405H95.8669C95.6469 45.245 95.2069 45.92 94.5469 46.43C93.8869 46.93 93.0619 47.18 92.0719 47.18C91.2919 47.18 90.5969 47.005 89.9869 46.655C89.3869 46.305 88.9169 45.81 88.5769 45.17C88.2369 44.53 88.0669 43.78 88.0669 42.92ZM97.1782 42.905C97.1782 42.065 97.3482 41.33 97.6882 40.7C98.0282 40.06 98.4932 39.565 99.0832 39.215C99.6832 38.865 100.348 38.69 101.078 38.69C101.798 38.69 102.423 38.845 102.953 39.155C103.483 39.465 103.878 39.855 104.138 40.325V38.825H105.518V47.045H104.138V45.515C103.868 45.995 103.463 46.395 102.923 46.715C102.393 47.025 101.773 47.18 101.063 47.18C100.333 47.18 99.6732 47 99.0832 46.64C98.4932 46.28 98.0282 45.775 97.6882 45.125C97.3482 44.475 97.1782 43.735 97.1782 42.905ZM104.138 42.92C104.138 42.3 104.013 41.76 103.763 41.3C103.513 40.84 103.173 40.49 102.743 40.25C102.323 40 101.858 39.875 101.348 39.875C100.838 39.875 100.373 39.995 99.9532 40.235C99.5332 40.475 99.1982 40.825 98.9482 41.285C98.6982 41.745 98.5732 42.285 98.5732 42.905C98.5732 43.535 98.6982 44.085 98.9482 44.555C99.1982 45.015 99.5332 45.37 99.9532 45.62C100.373 45.86 100.838 45.98 101.348 45.98C101.858 45.98 102.323 45.86 102.743 45.62C103.173 45.37 103.513 45.015 103.763 44.555C104.013 44.085 104.138 43.54 104.138 42.92ZM109.49 39.95V44.795C109.49 45.195 109.575 45.48 109.745 45.65C109.915 45.81 110.21 45.89 110.63 45.89H111.635V47.045H110.405C109.645 47.045 109.075 46.87 108.695 46.52C108.315 46.17 108.125 45.595 108.125 44.795V39.95H107.06V38.825H108.125V36.755H109.49V38.825H111.635V39.95H109.49ZM113.994 37.49C113.734 37.49 113.514 37.4 113.334 37.22C113.154 37.04 113.064 36.82 113.064 36.56C113.064 36.3 113.154 36.08 113.334 35.9C113.514 35.72 113.734 35.63 113.994 35.63C114.244 35.63 114.454 35.72 114.624 35.9C114.804 36.08 114.894 36.3 114.894 36.56C114.894 36.82 114.804 37.04 114.624 37.22C114.454 37.4 114.244 37.49 113.994 37.49ZM114.654 38.825V47.045H113.289V38.825H114.654ZM120.565 47.18C119.795 47.18 119.095 47.005 118.465 46.655C117.845 46.305 117.355 45.81 116.995 45.17C116.645 44.52 116.47 43.77 116.47 42.92C116.47 42.08 116.65 41.34 117.01 40.7C117.38 40.05 117.88 39.555 118.51 39.215C119.14 38.865 119.845 38.69 120.625 38.69C121.405 38.69 122.11 38.865 122.74 39.215C123.37 39.555 123.865 40.045 124.225 40.685C124.595 41.325 124.78 42.07 124.78 42.92C124.78 43.77 124.59 44.52 124.21 45.17C123.84 45.81 123.335 46.305 122.695 46.655C122.055 47.005 121.345 47.18 120.565 47.18ZM120.565 45.98C121.055 45.98 121.515 45.865 121.945 45.635C122.375 45.405 122.72 45.06 122.98 44.6C123.25 44.14 123.385 43.58 123.385 42.92C123.385 42.26 123.255 41.7 122.995 41.24C122.735 40.78 122.395 40.44 121.975 40.22C121.555 39.99 121.1 39.875 120.61 39.875C120.11 39.875 119.65 39.99 119.23 40.22C118.82 40.44 118.49 40.78 118.24 41.24C117.99 41.7 117.865 42.26 117.865 42.92C117.865 43.59 117.985 44.155 118.225 44.615C118.475 45.075 118.805 45.42 119.215 45.65C119.625 45.87 120.075 45.98 120.565 45.98ZM130.58 38.675C131.58 38.675 132.39 38.98 133.01 39.59C133.63 40.19 133.94 41.06 133.94 42.2V47.045H132.59V42.395C132.59 41.575 132.385 40.95 131.975 40.52C131.565 40.08 131.005 39.86 130.295 39.86C129.575 39.86 129 40.085 128.57 40.535C128.15 40.985 127.94 41.64 127.94 42.5V47.045H126.575V38.825H127.94V39.995C128.21 39.575 128.575 39.25 129.035 39.02C129.505 38.79 130.02 38.675 130.58 38.675ZM143.484 47.15C142.794 47.15 142.174 47.03 141.624 46.79C141.084 46.54 140.659 46.2 140.349 45.77C140.039 45.33 139.879 44.825 139.869 44.255H141.324C141.374 44.745 141.574 45.16 141.924 45.5C142.284 45.83 142.804 45.995 143.484 45.995C144.134 45.995 144.644 45.835 145.014 45.515C145.394 45.185 145.584 44.765 145.584 44.255C145.584 43.855 145.474 43.53 145.254 43.28C145.034 43.03 144.759 42.84 144.429 42.71C144.099 42.58 143.654 42.44 143.094 42.29C142.404 42.11 141.849 41.93 141.429 41.75C141.019 41.57 140.664 41.29 140.364 40.91C140.074 40.52 139.929 40 139.929 39.35C139.929 38.78 140.074 38.275 140.364 37.835C140.654 37.395 141.059 37.055 141.579 36.815C142.109 36.575 142.714 36.455 143.394 36.455C144.374 36.455 145.174 36.7 145.794 37.19C146.424 37.68 146.779 38.33 146.859 39.14H145.359C145.309 38.74 145.099 38.39 144.729 38.09C144.359 37.78 143.869 37.625 143.259 37.625C142.689 37.625 142.224 37.775 141.864 38.075C141.504 38.365 141.324 38.775 141.324 39.305C141.324 39.685 141.429 39.995 141.639 40.235C141.859 40.475 142.124 40.66 142.434 40.79C142.754 40.91 143.199 41.05 143.769 41.21C144.459 41.4 145.014 41.59 145.434 41.78C145.854 41.96 146.214 42.245 146.514 42.635C146.814 43.015 146.964 43.535 146.964 44.195C146.964 44.705 146.829 45.185 146.559 45.635C146.289 46.085 145.889 46.45 145.359 46.73C144.829 47.01 144.204 47.15 143.484 47.15ZM156.262 38.825V47.045H154.897V45.83C154.637 46.25 154.272 46.58 153.802 46.82C153.342 47.05 152.832 47.165 152.272 47.165C151.632 47.165 151.057 47.035 150.547 46.775C150.037 46.505 149.632 46.105 149.332 45.575C149.042 45.045 148.897 44.4 148.897 43.64V38.825H150.247V43.46C150.247 44.27 150.452 44.895 150.862 45.335C151.272 45.765 151.832 45.98 152.542 45.98C153.272 45.98 153.847 45.755 154.267 45.305C154.687 44.855 154.897 44.2 154.897 43.34V38.825H156.262ZM159.932 40.34C160.202 39.87 160.602 39.48 161.132 39.17C161.672 38.85 162.297 38.69 163.007 38.69C163.737 38.69 164.397 38.865 164.987 39.215C165.587 39.565 166.057 40.06 166.397 40.7C166.737 41.33 166.907 42.065 166.907 42.905C166.907 43.735 166.737 44.475 166.397 45.125C166.057 45.775 165.587 46.28 164.987 46.64C164.397 47 163.737 47.18 163.007 47.18C162.307 47.18 161.687 47.025 161.147 46.715C160.617 46.395 160.212 46 159.932 45.53V50.945H158.567V38.825H159.932V40.34ZM165.512 42.905C165.512 42.285 165.387 41.745 165.137 41.285C164.887 40.825 164.547 40.475 164.117 40.235C163.697 39.995 163.232 39.875 162.722 39.875C162.222 39.875 161.757 40 161.327 40.25C160.907 40.49 160.567 40.845 160.307 41.315C160.057 41.775 159.932 42.31 159.932 42.92C159.932 43.54 160.057 44.085 160.307 44.555C160.567 45.015 160.907 45.37 161.327 45.62C161.757 45.86 162.222 45.98 162.722 45.98C163.232 45.98 163.697 45.86 164.117 45.62C164.547 45.37 164.887 45.015 165.137 44.555C165.387 44.085 165.512 43.535 165.512 42.905ZM176.204 42.62C176.204 42.88 176.189 43.155 176.159 43.445H169.589C169.639 44.255 169.914 44.89 170.414 45.35C170.924 45.8 171.539 46.025 172.259 46.025C172.849 46.025 173.339 45.89 173.729 45.62C174.129 45.34 174.409 44.97 174.569 44.51H176.039C175.819 45.3 175.379 45.945 174.719 46.445C174.059 46.935 173.239 47.18 172.259 47.18C171.479 47.18 170.779 47.005 170.159 46.655C169.549 46.305 169.069 45.81 168.719 45.17C168.369 44.52 168.194 43.77 168.194 42.92C168.194 42.07 168.364 41.325 168.704 40.685C169.044 40.045 169.519 39.555 170.129 39.215C170.749 38.865 171.459 38.69 172.259 38.69C173.039 38.69 173.729 38.86 174.329 39.2C174.929 39.54 175.389 40.01 175.709 40.61C176.039 41.2 176.204 41.87 176.204 42.62ZM174.794 42.335C174.794 41.815 174.679 41.37 174.449 41C174.219 40.62 173.904 40.335 173.504 40.145C173.114 39.945 172.679 39.845 172.199 39.845C171.509 39.845 170.919 40.065 170.429 40.505C169.949 40.945 169.674 41.555 169.604 42.335H174.794ZM179.371 40.16C179.611 39.69 179.951 39.325 180.391 39.065C180.841 38.805 181.386 38.675 182.026 38.675V40.085H181.666C180.136 40.085 179.371 40.915 179.371 42.575V47.045H178.006V38.825H179.371V40.16ZM193.78 44.72H189.22L188.38 47.045H186.94L190.72 36.65H192.295L196.06 47.045H194.62L193.78 44.72ZM193.39 43.61L191.5 38.33L189.61 43.61H193.39ZM199.073 40.34C199.343 39.87 199.743 39.48 200.273 39.17C200.813 38.85 201.438 38.69 202.148 38.69C202.878 38.69 203.538 38.865 204.128 39.215C204.728 39.565 205.198 40.06 205.538 40.7C205.878 41.33 206.048 42.065 206.048 42.905C206.048 43.735 205.878 44.475 205.538 45.125C205.198 45.775 204.728 46.28 204.128 46.64C203.538 47 202.878 47.18 202.148 47.18C201.448 47.18 200.828 47.025 200.288 46.715C199.758 46.395 199.353 46 199.073 45.53V50.945H197.708V38.825H199.073V40.34ZM204.653 42.905C204.653 42.285 204.528 41.745 204.278 41.285C204.028 40.825 203.688 40.475 203.258 40.235C202.838 39.995 202.373 39.875 201.863 39.875C201.363 39.875 200.898 40 200.468 40.25C200.048 40.49 199.708 40.845 199.448 41.315C199.198 41.775 199.073 42.31 199.073 42.92C199.073 43.54 199.198 44.085 199.448 44.555C199.708 45.015 200.048 45.37 200.468 45.62C200.898 45.86 201.363 45.98 201.863 45.98C202.373 45.98 202.838 45.86 203.258 45.62C203.688 45.37 204.028 45.015 204.278 44.555C204.528 44.085 204.653 43.535 204.653 42.905ZM209.209 40.34C209.479 39.87 209.879 39.48 210.409 39.17C210.949 38.85 211.574 38.69 212.284 38.69C213.014 38.69 213.674 38.865 214.264 39.215C214.864 39.565 215.334 40.06 215.674 40.7C216.014 41.33 216.184 42.065 216.184 42.905C216.184 43.735 216.014 44.475 215.674 45.125C215.334 45.775 214.864 46.28 214.264 46.64C213.674 47 213.014 47.18 212.284 47.18C211.584 47.18 210.964 47.025 210.424 46.715C209.894 46.395 209.489 46 209.209 45.53V50.945H207.844V38.825H209.209V40.34ZM214.789 42.905C214.789 42.285 214.664 41.745 214.414 41.285C214.164 40.825 213.824 40.475 213.394 40.235C212.974 39.995 212.509 39.875 211.999 39.875C211.499 39.875 211.034 40 210.604 40.25C210.184 40.49 209.844 40.845 209.584 41.315C209.334 41.775 209.209 42.31 209.209 42.92C209.209 43.54 209.334 44.085 209.584 44.555C209.844 45.015 210.184 45.37 210.604 45.62C211.034 45.86 211.499 45.98 211.999 45.98C212.509 45.98 212.974 45.86 213.394 45.62C213.824 45.37 214.164 45.015 214.414 44.555C214.664 44.085 214.789 43.535 214.789 42.905Z" fill="black"/>
<defs>
<linearGradient id="paint0_linear_806_24125" x1="14.5469" y1="18.5119" x2="41.2892" y2="45.2541" gradientUnits="userSpaceOnUse">
<stop stop-color="#0068FF"/>
<stop offset="1" stop-color="#0072D8" stop-opacity="0"/>
</linearGradient>
</defs>
</svg>
