<svg width="42" height="41" viewBox="0 0 42 41" fill="none" xmlns="http://www.w3.org/2000/svg">
<ellipse cx="20.9248" cy="20.5" rx="20.4405" ry="20.5" fill="#D1D1D1"/>
<path fill-rule="evenodd" clip-rule="evenodd" d="M11.368 20.1434C11.368 14.9069 15.4216 10.188 21.0157 10.188C26.4846 10.188 30.6248 14.8173 30.6248 20.1136C30.6248 26.256 25.7721 30.0689 20.9964 30.0689C19.4174 30.0689 17.665 29.6309 16.2593 28.7747C15.7682 28.4661 15.3542 28.2371 14.8246 28.4163L12.8797 29.0137C12.3886 29.1729 11.9457 28.7747 12.0902 28.2371L12.7353 26.0071C12.8412 25.6985 12.8219 25.37 12.6679 25.1112C11.8398 23.5382 11.368 21.8159 11.368 20.1434ZM19.7447 20.1434C19.7447 20.8503 20.2935 21.4177 20.9772 21.4277C21.6608 21.4277 22.2096 20.8503 22.2096 20.1534C22.2096 19.4465 21.6608 18.8791 20.9772 18.8791C20.3032 18.8691 19.7447 19.4465 19.7447 20.1434ZM24.1834 20.1534C24.1834 20.8503 24.7322 21.4277 25.4158 21.4277C26.0995 21.4277 26.6483 20.8503 26.6483 20.1534C26.6483 19.4465 26.0995 18.8791 25.4158 18.8791C24.7322 18.8791 24.1834 19.4465 24.1834 20.1534ZM16.5385 21.4277C15.8645 21.4277 15.306 20.8503 15.306 20.1534C15.306 19.4465 15.8549 18.8791 16.5385 18.8791C17.2221 18.8791 17.7709 19.4465 17.7709 20.1534C17.7709 20.8503 17.2221 21.4177 16.5385 21.4277Z" fill="white"/>
</svg>
