<svg width="42" height="41" viewBox="0 0 42 41" fill="none" xmlns="http://www.w3.org/2000/svg">
<ellipse cx="21.169" cy="20.5" rx="20.4405" ry="20.5" fill="#D1D1D1"/>
<path fill-rule="evenodd" clip-rule="evenodd" d="M28.6562 17.2465C28.6562 18.5815 29.0081 19.3683 29.7823 20.2751C30.369 20.9432 30.5565 21.8007 30.5565 22.731C30.5565 23.6603 30.2521 24.5424 29.6422 25.2587C28.8437 26.1173 27.7177 26.6654 26.5685 26.7607C24.9031 26.9031 23.2367 27.023 21.5481 27.023C19.8585 27.023 18.1931 26.9512 16.5277 26.7607C15.3775 26.6654 14.2514 26.1173 13.454 25.2587C12.8441 24.5424 12.5386 23.6603 12.5386 22.731C12.5386 21.8007 12.7272 20.9432 13.3129 20.2751C14.1113 19.3683 14.44 18.5815 14.44 17.2465V16.7936C14.44 15.0057 14.8845 13.8367 15.7999 12.6922C17.1608 11.0232 19.3423 10.0222 21.5007 10.0222H21.5955C23.8002 10.0222 26.0523 11.0714 27.3901 12.8121C28.2581 13.933 28.6562 15.0529 28.6562 16.7936V17.2465ZM18.4461 28.9038C18.4461 28.3685 18.9359 28.1233 19.3889 28.0184C19.9187 27.906 23.1473 27.906 23.6771 28.0184C24.1301 28.1233 24.6199 28.3685 24.6199 28.9038C24.5935 29.4133 24.2954 29.8651 23.8836 30.152C23.3495 30.5696 22.7228 30.834 22.0676 30.9293C21.7052 30.9764 21.3492 30.9775 20.9995 30.9293C20.3432 30.834 19.7165 30.5696 19.1835 30.151C18.7705 29.8651 18.4724 29.4133 18.4461 28.9038Z" fill="white"/>
</svg>
