<svg width="42" height="41" viewBox="0 0 42 41" fill="none" xmlns="http://www.w3.org/2000/svg">
<ellipse cx="21.1197" cy="20.5" rx="20.4405" ry="20.5" fill="#D1D1D1"/>
<path d="M28.6095 15.3378H27.0423V14.5932C27.0418 14.1984 26.8766 13.8199 26.5828 13.5407C26.2889 13.2615 25.8905 13.1045 25.475 13.1041H16.0714C15.6559 13.1045 15.2575 13.2615 14.9636 13.5407C14.6698 13.8199 14.5045 14.1984 14.5041 14.5932V15.3378H12.9369C12.5213 15.3382 12.1229 15.4952 11.8291 15.7744C11.5353 16.0535 11.37 16.4321 11.3696 16.8269V19.0605C11.3706 19.8501 11.7012 20.6071 12.2888 21.1654C12.8764 21.7237 13.6731 22.0378 14.5041 22.0388H14.7565C15.083 23.1784 15.7518 24.2031 16.681 24.9877C17.6103 25.7723 18.76 26.2828 19.9896 26.4569V29.4843H16.0714V30.9734H25.475V29.4843H21.5568V26.4547C22.8024 26.3084 23.9726 25.8088 24.9148 25.021C25.857 24.2333 26.5274 23.194 26.8385 22.0388H27.0423C27.8733 22.0378 28.6699 21.7237 29.2576 21.1654C29.8452 20.6071 30.1757 19.8501 30.1768 19.0605V16.8269C30.1764 16.4321 30.0111 16.0535 29.7173 15.7744C29.4235 15.4952 29.0251 15.3382 28.6095 15.3378ZM14.5041 20.5496C14.0886 20.5493 13.6902 20.3922 13.3964 20.1131C13.1025 19.8339 12.9373 19.4554 12.9369 19.0605V16.8269H14.5041V20.5496ZM28.6095 19.0605C28.6091 19.4554 28.4439 19.8339 28.15 20.1131C27.8562 20.3922 27.4578 20.5493 27.0423 20.5496V16.8269H28.6095V19.0605Z" fill="white"/>
</svg>
