<svg width="190" height="174" viewBox="0 0 190 174" fill="none" xmlns="http://www.w3.org/2000/svg">
<path d="M162.464 8.01562H69.8C65.6645 8.01562 62.312 11.3831 62.312 15.5371V143.213C62.312 147.367 65.6645 150.735 69.8 150.735H162.464C166.6 150.735 169.952 147.367 169.952 143.213V15.5371C169.952 11.3831 166.6 8.01562 162.464 8.01562Z" fill="white" stroke="#6592BF" stroke-linecap="round" stroke-linejoin="round"/>
<path d="M156.068 25.3145H76.1961C74.4729 25.3145 73.076 26.7176 73.076 28.4484V130.301C73.076 132.032 74.4729 133.435 76.1961 133.435H156.068C157.791 133.435 159.188 132.032 159.188 130.301V28.4484C159.188 26.7176 157.791 25.3145 156.068 25.3145Z" fill="#87C3FF"/>
<path d="M73.076 81.5371L129.08 25.3145H76.6641C75.7125 25.3145 74.7998 25.6942 74.1269 26.37C73.4541 27.0459 73.076 27.9626 73.076 28.9185V81.5371Z" fill="white"/>
<path d="M78.4737 173.08C114.728 173.08 144.118 170.652 144.118 167.658C144.118 164.664 114.728 162.236 78.4737 162.236C42.219 162.236 12.8289 164.664 12.8289 167.658C12.8289 170.652 42.219 173.08 78.4737 173.08Z" fill="#CFE7FF"/>
<path d="M156.068 25.3145H76.1961C74.4729 25.3145 73.076 26.7176 73.076 28.4484V130.301C73.076 132.032 74.4729 133.435 76.1961 133.435H156.068C157.791 133.435 159.188 132.032 159.188 130.301V28.4484C159.188 26.7176 157.791 25.3145 156.068 25.3145Z" stroke="#6592BF" stroke-linecap="round" stroke-linejoin="round"/>
<path d="M85.9929 40.4521V75.0507H144.119" stroke="#6592BF" stroke-linecap="round" stroke-linejoin="round"/>
<path d="M85.9929 75.0504C85.9929 75.0504 121.343 69.0646 137.66 42.6143" stroke="#6592BF" stroke-linecap="round" stroke-linejoin="round"/>
<path d="M126.896 42.6143H137.66V53.4263" stroke="#6592BF" stroke-linecap="round" stroke-linejoin="round"/>
<path d="M105.961 88.0244H87.5529C86.6914 88.0244 85.9929 88.726 85.9929 89.5914V97.2695C85.9929 98.1349 86.6914 98.8365 87.5529 98.8365H105.961C106.822 98.8365 107.521 98.1349 107.521 97.2695V89.5914C107.521 88.726 106.822 88.0244 105.961 88.0244Z" fill="white" stroke="#6592BF" stroke-linecap="round" stroke-linejoin="round"/>
<path d="M138.253 88.0244H119.845C118.983 88.0244 118.285 88.726 118.285 89.5914V97.2695C118.285 98.1349 118.983 98.8365 119.845 98.8365H138.253C139.114 98.8365 139.813 98.1349 139.813 97.2695V89.5914C139.813 88.726 139.114 88.0244 138.253 88.0244Z" fill="white" stroke="#6592BF" stroke-linecap="round" stroke-linejoin="round"/>
<path d="M182.869 53.4264C182.869 54.5734 182.415 55.6734 181.608 56.4845C180.8 57.2955 179.705 57.7512 178.563 57.7512H159.188C158.623 57.7512 158.063 57.6393 157.54 57.422C157.018 57.2046 156.543 56.8861 156.144 56.4845C155.744 56.0829 155.427 55.6061 155.21 55.0814C154.994 54.5567 154.882 53.9943 154.882 53.4264C154.882 52.8584 154.994 52.296 155.21 51.7713C155.427 51.2466 155.744 50.7699 156.144 50.3683C156.543 49.9667 157.018 49.6481 157.54 49.4308C158.063 49.2134 158.623 49.1016 159.188 49.1016H178.563C179.705 49.1016 180.8 49.5572 181.608 50.3683C182.415 51.1793 182.869 52.2794 182.869 53.4264Z" fill="#87C3FF" stroke="#6592BF" stroke-linecap="round" stroke-linejoin="round"/>
<path d="M182.869 62.0758C182.869 63.2228 182.415 64.3229 181.608 65.1339C180.8 65.945 179.705 66.4006 178.563 66.4006H159.188C158.046 66.4006 156.951 65.945 156.144 65.1339C155.336 64.3229 154.882 63.2228 154.882 62.0758C154.882 60.9288 155.336 59.8288 156.144 59.0177C156.951 58.2066 158.046 57.751 159.188 57.751H178.563C179.705 57.751 180.8 58.2066 181.608 59.0177C182.415 59.8288 182.869 60.9288 182.869 62.0758Z" fill="#87C3FF" stroke="#6592BF" stroke-linecap="round" stroke-linejoin="round"/>
<path d="M176.411 66.4004H161.341V67.4659C161.275 68.5008 161.42 69.5383 161.769 70.5144C162.118 71.4905 162.662 72.3844 163.368 73.1408C164.074 73.8973 164.927 74.5002 165.875 74.9124C166.822 75.3246 167.843 75.5373 168.876 75.5373C169.908 75.5373 170.93 75.3246 171.877 74.9124C172.824 74.5002 173.677 73.8973 174.384 73.1408C175.09 72.3844 175.634 71.4905 175.983 70.5144C176.331 69.5383 176.477 68.5008 176.411 67.4659V66.4004Z" fill="#87C3FF" stroke="#6592BF" stroke-linecap="round" stroke-linejoin="round"/>
<path d="M92.4513 16.665H116.132" stroke="#6592BF" stroke-linecap="round" stroke-linejoin="round"/>
<path d="M189.327 19.8928C189.121 14.5833 186.876 9.56033 183.063 5.87716C179.25 2.194 174.165 0.136719 168.876 0.136719C163.586 0.136719 158.501 2.194 154.688 5.87716C150.876 9.56033 148.63 14.5833 148.424 19.8928C148.414 24.7451 150.141 29.4392 153.291 33.1179C157.095 37.5667 159.187 43.2367 159.188 49.101H178.563C178.564 43.2367 180.656 37.5667 184.46 33.1179C187.61 29.4392 189.338 24.7451 189.327 19.8928Z" fill="white"/>
<path d="M153.671 32.793L153.671 32.7927C150.601 29.2074 148.916 24.6327 148.924 19.903C149.128 14.7254 151.318 9.82805 155.036 6.23678C158.756 2.64345 163.716 0.636719 168.876 0.636719C174.036 0.636719 178.996 2.64345 182.715 6.23678C186.433 9.82805 188.623 14.7254 188.827 19.903C188.835 24.6326 187.15 29.2074 184.08 32.7927L184.08 32.793C180.307 37.2059 178.185 42.7961 178.068 48.601H159.683C159.567 42.7961 157.444 37.2059 153.671 32.793Z" stroke="#6592BF" stroke-linecap="round" stroke-linejoin="round"/>
<path d="M128.144 118.299H69.9249C65.7894 118.299 62.4369 121.666 62.4369 125.82V156.188C62.4369 160.342 65.7894 163.709 69.9249 163.709H128.144C132.28 163.709 135.632 160.342 135.632 156.188V125.82C135.632 121.666 132.28 118.299 128.144 118.299Z" fill="white"/>
<path d="M128.019 118.299H69.8C65.6645 118.299 62.312 121.666 62.312 125.82V156.188C62.312 160.342 65.6645 163.709 69.8 163.709H128.019C132.155 163.709 135.507 160.342 135.507 156.188V125.82C135.507 121.666 132.155 118.299 128.019 118.299Z" stroke="#6592BF" stroke-linecap="round" stroke-linejoin="round"/>
<path d="M63.5601 122.529L98.9097 142.085L134.29 122.529C133.524 121.245 132.441 120.181 131.145 119.44C129.85 118.699 128.387 118.306 126.896 118.298H71.0481C69.5398 118.28 68.0535 118.662 66.7389 119.405C65.4243 120.147 64.3278 121.225 63.5601 122.529Z" fill="white"/>
<path d="M63.5601 122.53L97.1937 141.114C97.724 141.407 98.3197 141.561 98.9253 141.561C99.5308 141.561 100.127 141.407 100.657 141.114L134.29 122.53C133.524 121.246 132.441 120.182 131.145 119.441C129.85 118.7 128.387 118.306 126.896 118.299H70.9233C69.4362 118.303 67.9756 118.695 66.6847 119.436C65.3939 120.178 64.3171 121.244 63.5601 122.53Z" stroke="#6592BF" stroke-linecap="round" stroke-linejoin="round"/>
<path d="M42.9368 113.974V124.786L27.3368 128.264C26.8553 128.369 26.3575 128.373 25.8744 128.276C25.3913 128.179 24.9332 127.983 24.5288 127.7C24.1218 127.422 23.778 127.06 23.5199 126.639C23.2618 126.218 23.0953 125.746 23.0312 125.256L21.4088 113.974H42.9368Z" fill="#87C3FF" stroke="#6592BF" stroke-linecap="round" stroke-linejoin="round"/>
<path d="M37.936 96.8442L40.3776 95.3481L42.489 113.552C30.7122 118.033 18.2033 120.261 5.60848 120.118C4.72745 120.063 3.89305 119.7 3.25082 119.09C2.60572 118.477 2.19577 117.656 2.09358 116.769L2.09293 116.764L0.969863 107.833C0.969842 107.833 0.96982 107.833 0.969799 107.833C0.903876 107.299 0.950634 106.758 1.107 106.243C1.26341 105.729 1.52596 105.254 1.87738 104.848C2.22881 104.443 2.6612 104.117 3.14627 103.891C3.63029 103.666 4.156 103.545 4.68927 103.537C9.89397 103.537 16.0609 103.325 21.9901 102.387C27.9079 101.451 33.6357 99.7841 37.936 96.8442Z" fill="#87C3FF" stroke="#6592BF" stroke-linecap="round" stroke-linejoin="round"/>
<path d="M85.9929 161.546C85.9929 162.693 85.5393 163.794 84.7318 164.605C83.9243 165.416 82.8292 165.871 81.6873 165.871H30.0201C28.8782 165.871 27.783 165.416 26.9756 164.605C26.1681 163.794 25.7145 162.693 25.7145 161.546C25.7145 160.399 26.1681 159.299 26.9756 158.488C27.783 157.677 28.8782 157.222 30.0201 157.222H81.6873C82.8292 157.222 83.9243 157.677 84.7318 158.488C85.5393 159.299 85.9929 160.399 85.9929 161.546Z" fill="#87C3FF" stroke="#6592BF" stroke-linecap="round" stroke-linejoin="round"/>
<path d="M73.076 94.5127H40.784C40.784 124.786 30.02 157.191 30.02 157.191H83.84C83.84 157.191 73.076 124.786 73.076 94.5127Z" fill="white"/>
<path d="M73.076 94.5127H40.784C40.784 124.786 30.02 157.191 30.02 157.191H83.84C83.84 157.191 73.076 124.786 73.076 94.5127Z" stroke="#6592BF" stroke-linecap="round" stroke-linejoin="round"/>
<path d="M75.2289 83.7001V92.7258C75.2439 92.8717 75.2439 93.0187 75.2289 93.1646C75.1201 93.5452 74.8906 93.8797 74.5752 94.1173C74.2599 94.3549 73.8759 94.4826 73.4817 94.4808H40.4097C40.0221 94.4709 39.6475 94.3383 39.3394 94.102C39.0312 93.8656 38.8053 93.5376 38.6937 93.1646C38.6784 93.0083 38.6784 92.8508 38.6937 92.6945V83.7001C38.6937 80.2562 40.0535 76.9529 42.475 74.5147C44.8965 72.0765 48.1818 70.7026 51.6105 70.6943H62.3121C65.7407 70.7026 69.026 72.0765 71.4475 74.5147C73.869 76.9529 75.2289 80.2562 75.2289 83.7001Z" fill="#87C3FF"/>
<path d="M75.2289 83.7001V92.7258C75.2439 92.8717 75.2439 93.0187 75.2289 93.1646V93.1646C75.1201 93.5452 74.8906 93.8797 74.5752 94.1173C74.2599 94.3549 73.8759 94.4826 73.4817 94.4808H40.4097C40.0221 94.4709 39.6475 94.3383 39.3394 94.102C39.0312 93.8656 38.8053 93.5376 38.6937 93.1646C38.6784 93.0083 38.6784 92.8508 38.6937 92.6945V83.7001C38.6937 80.2562 40.0535 76.9529 42.475 74.5147C44.8965 72.0765 48.1818 70.7026 51.6105 70.6943H62.3121C65.7407 70.7026 69.026 72.0765 71.4475 74.5147C73.869 76.9529 75.2289 80.2562 75.2289 83.7001Z" stroke="#6592BF" stroke-linecap="round" stroke-linejoin="round"/>
<path d="M50.3624 62.0762H63.56C64.3875 62.0762 65.1811 62.4063 65.7662 62.9941C66.3513 63.5818 66.68 64.3789 66.68 65.2101V70.7258H47.2424V65.2101C47.2424 64.3789 47.5711 63.5818 48.1563 62.9941C48.7414 62.4063 49.535 62.0762 50.3624 62.0762Z" fill="#87C3FF" stroke="#6592BF" stroke-linecap="round" stroke-linejoin="round"/>
<path d="M129.08 14.8477C128.844 14.8477 128.61 14.8949 128.392 14.9867C128.174 15.0784 127.977 15.2128 127.811 15.382C127.646 15.5512 127.515 15.7518 127.428 15.9722C127.34 16.1926 127.298 16.4282 127.302 16.6654C127.302 16.8986 127.348 17.1294 127.438 17.3444C127.527 17.5594 127.659 17.7542 127.824 17.9176C127.99 18.081 128.186 18.2096 128.402 18.2959C128.617 18.3823 128.848 18.4246 129.08 18.4204C129.316 18.4246 129.551 18.3815 129.77 18.2936C129.99 18.2056 130.189 18.0747 130.358 17.9084C130.526 17.7421 130.66 17.5438 130.751 17.325C130.843 17.1062 130.89 16.8713 130.89 16.6341C130.89 16.152 130.699 15.6897 130.36 15.3488C130.02 15.0079 129.56 14.8164 129.08 14.8164V14.8477Z" fill="#6592BF"/>
</svg>
