<svg width="26" height="27" viewBox="0 0 26 27" fill="none" xmlns="http://www.w3.org/2000/svg">
<path d="M13 3.31299C11.0222 3.31299 9.08879 3.89948 7.4443 4.99829C5.79981 6.09711 4.51809 7.65889 3.76121 9.48615C3.00433 11.3134 2.8063 13.3241 3.19215 15.2639C3.578 17.2037 4.53041 18.9855 5.92894 20.3841C7.32746 21.7826 9.10929 22.735 11.0491 23.1208C12.9889 23.5067 14.9996 23.3087 16.8268 22.5518C18.6541 21.7949 20.2159 20.5132 21.3147 18.8687C22.4135 17.2242 23 15.2908 23 13.313C22.9972 10.6617 21.9427 8.11977 20.068 6.24501C18.1932 4.37026 15.6513 3.31579 13 3.31299ZM12.6154 7.92837C12.8436 7.92837 13.0667 7.99604 13.2564 8.12283C13.4462 8.24962 13.5941 8.42982 13.6814 8.64066C13.7687 8.8515 13.7916 9.0835 13.7471 9.30732C13.7025 9.53115 13.5926 9.73674 13.4313 9.89811C13.2699 10.0595 13.0643 10.1694 12.8405 10.2139C12.6167 10.2584 12.3847 10.2356 12.1738 10.1482C11.963 10.0609 11.7828 9.91301 11.656 9.72326C11.5292 9.53351 11.4615 9.31043 11.4615 9.08222C11.4615 8.7762 11.5831 8.48271 11.7995 8.26633C12.0159 8.04994 12.3094 7.92837 12.6154 7.92837ZM13.7692 18.6976C13.3612 18.6976 12.9699 18.5355 12.6814 18.247C12.3929 17.9585 12.2308 17.5672 12.2308 17.1591V13.313C12.0268 13.313 11.8311 13.2319 11.6868 13.0877C11.5426 12.9434 11.4615 12.7478 11.4615 12.5438C11.4615 12.3397 11.5426 12.1441 11.6868 11.9998C11.8311 11.8556 12.0268 11.7745 12.2308 11.7745C12.6388 11.7745 13.0301 11.9366 13.3186 12.2251C13.6071 12.5136 13.7692 12.905 13.7692 13.313V17.1591C13.9732 17.1591 14.1689 17.2402 14.3132 17.3844C14.4574 17.5287 14.5385 17.7244 14.5385 17.9284C14.5385 18.1324 14.4574 18.328 14.3132 18.4723C14.1689 18.6166 13.9732 18.6976 13.7692 18.6976Z" fill="#74C46F"/>
</svg>
