<svg width="26" height="26" viewBox="0 0 26 26" fill="none" xmlns="http://www.w3.org/2000/svg">
<path d="M13 3C11.0222 3 9.08879 3.58649 7.4443 4.6853C5.79981 5.78412 4.51809 7.3459 3.76121 9.17316C3.00433 11.0004 2.8063 13.0111 3.19215 14.9509C3.578 16.8907 4.53041 18.6725 5.92894 20.0711C7.32746 21.4696 9.10929 22.422 11.0491 22.8078C12.9889 23.1937 14.9996 22.9957 16.8268 22.2388C18.6541 21.4819 20.2159 20.2002 21.3147 18.5557C22.4135 16.9112 23 14.9778 23 13C22.9972 10.3487 21.9427 7.80678 20.068 5.93202C18.1932 4.05727 15.6513 3.0028 13 3ZM12.6154 7.61538C12.8436 7.61538 13.0667 7.68306 13.2564 7.80984C13.4462 7.93663 13.5941 8.11683 13.6814 8.32767C13.7687 8.53851 13.7916 8.77051 13.7471 8.99433C13.7025 9.21816 13.5926 9.42375 13.4313 9.58512C13.2699 9.74649 13.0643 9.85638 12.8405 9.9009C12.6167 9.94543 12.3847 9.92258 12.1738 9.83524C11.963 9.74791 11.7828 9.60002 11.656 9.41027C11.5292 9.22052 11.4615 8.99744 11.4615 8.76923C11.4615 8.46321 11.5831 8.16973 11.7995 7.95334C12.0159 7.73695 12.3094 7.61538 12.6154 7.61538ZM13.7692 18.3846C13.3612 18.3846 12.9699 18.2225 12.6814 17.934C12.3929 17.6455 12.2308 17.2542 12.2308 16.8462V13C12.0268 13 11.8311 12.919 11.6868 12.7747C11.5426 12.6304 11.4615 12.4348 11.4615 12.2308C11.4615 12.0268 11.5426 11.8311 11.6868 11.6868C11.8311 11.5426 12.0268 11.4615 12.2308 11.4615C12.6388 11.4615 13.0301 11.6236 13.3186 11.9121C13.6071 12.2007 13.7692 12.592 13.7692 13V16.8462C13.9732 16.8462 14.1689 16.9272 14.3132 17.0715C14.4574 17.2157 14.5385 17.4114 14.5385 17.6154C14.5385 17.8194 14.4574 18.0151 14.3132 18.1593C14.1689 18.3036 13.9732 18.3846 13.7692 18.3846Z" fill="#B05056"/>
</svg>
