<svg width="75" height="75" viewBox="0 0 75 75" fill="none" xmlns="http://www.w3.org/2000/svg">
<g filter="url(#filter0_d_146_6664)">
<circle cx="37.5" cy="33.5" r="27.5" fill="url(#paint0_linear_146_6664)"/>
</g>
<path d="M51.4956 35.2105C51.3401 35.2105 51.0291 35.366 50.8736 35.5215L50.0256 36.3695C49.6351 36.76 49.6351 37.3931 50.0256 37.7837L51.877 39.6351C52.2676 40.0256 52.9007 40.0256 53.2912 39.6351L54.1392 38.7871C54.4502 38.4761 54.4502 37.8541 54.1392 37.5431L52.1176 35.5215C51.9621 35.366 51.8066 35.2105 51.4956 35.2105ZM49.2419 38.6771C48.8511 38.305 48.2356 38.3099 47.851 38.6883L39.3539 47.0461C39.1628 47.2341 39.0551 47.4909 39.0551 47.759V49.6056C39.0551 50.1579 39.5028 50.6056 40.0551 50.6056H41.9065C42.1717 50.6056 42.4261 50.5002 42.6136 50.3127L51.082 41.8443C51.4793 41.447 51.4714 40.8005 51.0646 40.413L49.2419 38.6771ZM51.4956 27.8348C51.4956 28.387 51.0479 28.8348 50.4956 28.8348H40.0551C39.5028 28.8348 39.0551 28.387 39.0551 27.8348V20.5044C39.0551 19.9521 39.5028 19.5044 40.0551 19.5044H50.4956C51.0479 19.5044 51.4956 19.9521 51.4956 20.5044V27.8348ZM40.7611 41.2231C40.1306 41.8515 39.0551 41.405 39.0551 40.5149V32.9449C39.0551 32.3926 39.5028 31.9449 40.0551 31.9449H51.4178C51.4608 31.9449 51.4956 31.9797 51.4956 32.0226C51.4956 32.0656 51.4607 32.1003 51.4178 32.1013C50.2681 32.1278 49.2589 32.7357 48.6809 33.3289L40.7611 41.2231ZM35.945 34.055C35.945 34.6073 35.4973 35.055 34.945 35.055H24.5045C23.9522 35.055 23.5045 34.6073 23.5045 34.055V20.5044C23.5045 19.9521 23.9522 19.5044 24.5045 19.5044H34.945C35.4973 19.5044 35.945 19.9521 35.945 20.5044V34.055ZM35.945 46.4955C35.945 47.0477 35.4973 47.4955 34.945 47.4955H24.5045C23.9522 47.4955 23.5045 47.0477 23.5045 46.4955V39.1651C23.5045 38.6128 23.9522 38.1651 24.5045 38.1651H34.945C35.4973 38.1651 35.945 38.6128 35.945 39.1651V46.4955Z" fill="white"/>
<defs>
<filter id="filter0_d_146_6664" x="0" y="0" width="75" height="75" filterUnits="userSpaceOnUse" color-interpolation-filters="sRGB">
<feFlood flood-opacity="0" result="BackgroundImageFix"/>
<feColorMatrix in="SourceAlpha" type="matrix" values="0 0 0 0 0 0 0 0 0 0 0 0 0 0 0 0 0 0 127 0" result="hardAlpha"/>
<feOffset dy="4"/>
<feGaussianBlur stdDeviation="5"/>
<feComposite in2="hardAlpha" operator="out"/>
<feColorMatrix type="matrix" values="0 0 0 0 0 0 0 0 0 0 0 0 0 0 0 0 0 0 0.25 0"/>
<feBlend mode="normal" in2="BackgroundImageFix" result="effect1_dropShadow_146_6664"/>
<feBlend mode="normal" in="SourceGraphic" in2="effect1_dropShadow_146_6664" result="shape"/>
</filter>
<linearGradient id="paint0_linear_146_6664" x1="37.5" y1="6" x2="37.5" y2="61" gradientUnits="userSpaceOnUse">
<stop stop-color="#54A9FF"/>
<stop offset="1" stop-color="#87C3FF"/>
</linearGradient>
</defs>
</svg>
