<svg fill="none" height="959" viewBox="0 0 945 959" width="945" xmlns="http://www.w3.org/2000/svg"><path clip-rule="evenodd" d="m490.923 48.7503c76.853 25.3007 74.269 155.5667 148.348 188.0937 76.436 33.561 177.963-61.568 246.918-14.54 60.783 41.455 52.464 140.15 44.414 213.23-7.351 66.732-62.871 116.173-87.577 178.608-20.42 51.603-17.967 109.805-45.6 157.941-29.472 51.339-68.312 98.25-119.031 128.837-52.206 31.483-113.738 56.265-174.152 47.972-59.658-8.19-97.378-68.119-152.301-92.787-55.678-25.008-128.928-10.85-172.816-53.238-43.67-42.179-32.422-115.173-58.362-170.042-32.8521-69.491-111.11643-119.822-114.95724-196.577-3.772-75.38 44.58124-146.231 94.99024-202.454 49.244-54.924 120.736-80.896 187.413-112.522 65.659-31.143 133.681-95.2472 202.713-72.5217z" fill="#eef6ff" fill-rule="evenodd"/><path d="m636.222 103.656v-39.5364c-.162-1.8962-.897-3.698-2.107-5.1658-1.211-1.4678-2.839-2.5319-4.669-3.0506-1.83-.5188-3.774-.4677-5.574.1465s-3.37 1.7624-4.502 3.2918l-16.666 26.9821c-24.373-7.704-50.526-7.704-74.899 0l-16.666-26.9821c-1.131-1.5294-2.702-2.6776-4.502-3.2918s-3.744-.6653-5.574-.1465c-1.83.5187-3.458 1.5828-4.669 3.0506-1.21 1.4678-1.945 3.2696-2.107 5.1658v39.5364c-19.849 15.271-19.38 36.913-19.38 60.897 0 0-15.074 135.754 90.441 135.754s90.442-89.285 90.442-135.754c-.187-23.984.281-45.626-19.568-60.897z" fill="#dea47a"/><path d="m565.161 267.984c-18.07-.49-35.709-5.626-51.22-14.913-15.512-9.287-28.374-22.413-37.349-38.114 6.273 38.599 26.683 85.35 88.569 85.35 75.742 0 89.318-45.907 90.91-89.098-8.768 16.675-21.806 30.719-37.78 40.695-15.973 9.976-34.309 15.525-53.13 16.08z" fill="#bf8256"/><path d="m490.729 619.314c116.652 0 211.218-7.257 211.218-16.208s-94.566-16.208-211.218-16.208-211.217 7.257-211.217 16.208 94.565 16.208 211.217 16.208z" fill="#191816" opacity=".15"/><path d="m565.161 112.837c19.249.506 37.964 6.436 53.996 17.109s28.729 25.656 36.633 43.226c0-2.998 0-5.902 0-8.619 0-23.984 0-45.626-19.381-60.897v-39.5364c-.162-1.8962-.897-3.698-2.107-5.1658-1.211-1.4678-2.839-2.5319-4.669-3.0506-1.83-.5188-3.774-.4677-5.574.1465s-3.37 1.7624-4.502 3.2918l-16.665 26.9821c-24.374-7.704-50.527-7.704-74.9 0l-16.665-26.9821c-1.132-1.5294-2.703-2.6776-4.503-3.2918s-3.744-.6653-5.574-.1465c-1.829.5187-3.458 1.5828-4.668 3.0506-1.211 1.4678-1.946 3.2696-2.108 5.1658v39.5364c-19.848 15.271-19.38 36.913-19.38 60.897 0 0 0 3.654-.562 9.369 7.794-17.711 20.445-32.849 36.485-43.66s34.813-16.853 54.144-17.425z" fill="#f0c2a1"/><path d="m636.222 103.656v-39.5364c-.162-1.8962-.897-3.698-2.107-5.1658-1.211-1.4678-2.839-2.5319-4.669-3.0506-1.83-.5188-3.774-.4677-5.574.1465s-3.37 1.7624-4.502 3.2918l-16.665 26.9821c-24.374-7.704-50.527-7.704-74.9 0l-16.666-26.9821c-1.131-1.5294-2.702-2.6776-4.502-3.2918s-3.744-.6653-5.574-.1465c-1.83.5187-3.458 1.5828-4.669 3.0506-1.21 1.4678-1.945 3.2696-2.107 5.1658v39.5364c-19.849 15.271-19.38 36.913-19.38 60.897 0 0-15.074 135.754 90.441 135.754s90.442-89.285 90.442-135.754c-.187-23.984.281-45.626-19.568-60.897z" stroke="#191816" stroke-linecap="round" stroke-linejoin="round" stroke-width="2"/><path d="m510.297 203.433c23.216 0 42.037-18.833 42.037-42.065 0-23.233-18.821-42.066-42.037-42.066-23.217 0-42.038 18.833-42.038 42.066 0 23.232 18.821 42.065 42.038 42.065z" fill="#f0f0f0"/><path d="m510.297 119.302c-7.614.024-15.078 2.121-21.592 6.067-6.513 3.946-11.831 9.592-15.381 16.332-3.551 6.74-5.201 14.321-4.774 21.928.428 7.607 2.916 14.955 7.199 21.254l58.422-58.367c-7.027-4.804-15.364-7.323-23.874-7.214z" fill="#fff"/><path d="m329.226 326.165h329.747c2.951 0 5.873.581 8.599 1.711s5.203 2.786 7.29 4.874c2.086 2.088 3.741 4.567 4.87 7.295 1.13 2.728 1.711 5.652 1.711 8.605v197.306h-374.499v-197.306c0-5.931 2.341-11.622 6.515-15.834 4.173-4.211 9.841-6.602 15.767-6.651z" fill="#f0f0f0" stroke="#191816" stroke-linecap="round" stroke-linejoin="round" stroke-width="2"/><path d="m350.198 364.952h287.803c1.242 0 2.432.493 3.31 1.372.878.878 1.371 2.07 1.371 3.312v176.321h-297.165v-176.321c0-1.242.493-2.434 1.371-3.312.878-.879 2.069-1.372 3.31-1.372z" fill="#00b8f0"/><path d="m350.947 364.952c-1.44 0-2.821.572-3.839 1.591-1.019 1.019-1.591 2.401-1.591 3.843v175.571h3.558l180.883-181.005z" fill="#4acfff"/><path d="m634.162 597.672h-280.031c-12.851.037-25.507-3.151-36.809-9.272-11.301-6.122-20.889-14.981-27.886-25.767-1.082-1.651-1.689-3.567-1.757-5.539-.068-1.973.407-3.926 1.374-5.647.966-1.721 2.385-3.143 4.104-4.111s3.67-1.446 5.641-1.38h391.071c1.971-.066 3.923.412 5.641 1.38 1.719.968 3.139 2.39 4.105 4.111s1.441 3.674 1.374 5.647c-.068 1.972-.676 3.888-1.757 5.539-7.025 10.846-16.671 19.744-28.045 25.868-11.374 6.125-24.109 9.279-37.025 9.171z" fill="#f0f0f0"/><path d="m296.551 571.814h395.097c2.642-2.908 5.023-6.043 7.115-9.369 1.109-1.606 1.756-3.486 1.872-5.435.115-1.95-.305-3.893-1.216-5.62-.914-1.698-2.262-3.122-3.908-4.127-1.645-1.004-3.528-1.552-5.455-1.588h-392.1c-1.927.036-3.81.584-5.455 1.588-1.646 1.005-2.994 2.429-3.908 4.127-.924 1.718-1.361 3.657-1.262 5.606s.73 3.834 1.824 5.449c2.182 3.337 4.657 6.473 7.396 9.369z" fill="#fff"/><path d="m510.297 203.433c23.216 0 42.037-18.833 42.037-42.065 0-23.233-18.821-42.066-42.037-42.066-23.217 0-42.038 18.833-42.038 42.066 0 23.232 18.821 42.065 42.038 42.065z" stroke="#191816" stroke-linecap="round" stroke-linejoin="round" stroke-width="2"/><path d="m620.119 203.433c23.216 0 42.037-18.833 42.037-42.065 0-23.233-18.821-42.066-42.037-42.066-23.217 0-42.038 18.833-42.038 42.066 0 23.232 18.821 42.065 42.038 42.065z" fill="#f0f0f0"/><path d="m620.119 119.302c-7.614.024-15.079 2.121-21.592 6.067s-11.831 9.592-15.381 16.332c-3.551 6.741-5.201 14.321-4.774 21.928s2.916 14.955 7.199 21.254l58.797-57.992c-7.088-5.012-15.571-7.666-24.249-7.589z" fill="#fff"/><g stroke-linecap="round"><path d="m620.119 203.433c23.216 0 42.037-18.833 42.037-42.065 0-23.233-18.821-42.066-42.037-42.066-23.217 0-42.038 18.833-42.038 42.066 0 23.232 18.821 42.065 42.038 42.065z" stroke="#191816" stroke-linejoin="round" stroke-width="2"/><path d="m552.241 151.624h25.84" stroke="#191816" stroke-linejoin="round" stroke-width="2"/><path d="m549.432 209.805c-.978.006-1.937.277-2.774.783s-1.522 1.23-1.983 2.093c-.46.864-.679 1.836-.632 2.814.046.978.355 1.925.895 2.742l15.729 23.609c.46.84 1.137 1.541 1.96 2.03.824.488 1.764.746 2.721.746s1.897-.258 2.721-.746c.823-.489 1.501-1.19 1.96-2.03l15.729-23.609c.536-.81.845-1.749.895-2.719s-.16-1.935-.609-2.796c-.45-.861-1.121-1.586-1.945-2.099s-1.771-.795-2.741-.818z" fill="#ffe500" stroke="#191816" stroke-linejoin="round" stroke-width="2"/><path d="m634.162 597.672h-280.031c-12.851.037-25.507-3.151-36.809-9.272-11.301-6.122-20.889-14.981-27.886-25.767-1.082-1.651-1.689-3.567-1.757-5.539-.068-1.973.407-3.926 1.374-5.647.966-1.721 2.385-3.143 4.104-4.111s3.67-1.446 5.641-1.38h391.071c1.971-.066 3.923.412 5.641 1.38 1.719.968 3.139 2.39 4.105 4.111s1.441 3.674 1.374 5.647c-.068 1.972-.676 3.888-1.757 5.539-7.025 10.846-16.671 19.744-28.045 25.868-11.374 6.125-24.109 9.279-37.025 9.171z" stroke="#191816" stroke-linejoin="round" stroke-width="2"/><path d="m350.198 364.952h287.803c1.242 0 2.432.493 3.31 1.372.878.878 1.371 2.07 1.371 3.312v176.321h-297.165v-176.321c0-1.242.493-2.434 1.371-3.312.878-.879 2.069-1.372 3.31-1.372z" stroke="#191816" stroke-linejoin="round" stroke-width="2"/><path d="m552.241 326.165c0 3.429-1.362 6.717-3.785 9.142-2.423 2.424-5.709 3.787-9.136 3.787-3.426 0-6.712-1.363-9.136-3.787-2.423-2.425-3.784-5.713-3.784-9.142v-19.394c0-3.429 1.361-6.717 3.784-9.142 2.424-2.425 5.71-3.787 9.136-3.787 3.427 0 6.713 1.362 9.136 3.787s3.785 5.713 3.785 9.142z" fill="#ffe500" stroke="#191816" stroke-linejoin="round" stroke-width="2"/><path d="m526.4 326.165c0 3.429-1.361 6.717-3.784 9.142-2.423 2.424-5.709 3.787-9.136 3.787s-6.713-1.363-9.136-3.787c-2.423-2.425-3.784-5.713-3.784-9.142v-19.394c0-3.429 1.361-6.717 3.784-9.142s5.709-3.787 9.136-3.787 6.713 1.362 9.136 3.787 3.784 5.713 3.784 9.142z" fill="#ffe500" stroke="#191816" stroke-linejoin="round" stroke-width="2"/><path d="m629.762 326.165c0 3.429-1.361 6.717-3.784 9.142-2.423 2.424-5.71 3.787-9.136 3.787-3.427 0-6.713-1.363-9.136-3.787-2.423-2.425-3.784-5.713-3.784-9.142v-19.394c0-3.429 1.361-6.717 3.784-9.142s5.709-3.787 9.136-3.787c3.426 0 6.713 1.362 9.136 3.787s3.784 5.713 3.784 9.142z" fill="#ffe500" stroke="#191816" stroke-linejoin="round" stroke-width="2"/><path d="m603.922 326.165c0 3.429-1.362 6.717-3.785 9.142-2.423 2.424-5.709 3.787-9.136 3.787-3.426 0-6.713-1.363-9.136-3.787-2.423-2.425-3.784-5.713-3.784-9.142v-19.394c0-1.698.334-3.379.984-4.947.649-1.569 1.601-2.994 2.8-4.195 1.2-1.2 2.624-2.153 4.192-2.803 1.568-.649 3.248-.984 4.944-.984 1.697 0 3.377.335 4.945.984 1.567.65 2.992 1.603 4.191 2.803 1.2 1.201 2.152 2.626 2.801 4.195.649 1.568.984 3.249.984 4.947z" fill="#ffe500" stroke="#191816" stroke-linejoin="round" stroke-width="2"/><path d="m750.351 356.332h64.601" stroke="#ff4064" stroke-miterlimit="10" stroke-width="7"/><path d="m750.351 382.19h64.601" stroke="#ff4064" stroke-miterlimit="10" stroke-width="7"/><g stroke-linejoin="round"><path d="m163.604 333.754h64.601" stroke="#00aed9" stroke-width="2"/><path d="m163.604 333.754h64.601" stroke="#00aed9" stroke-width="7"/><path d="m195.905 301.431v64.645" stroke="#00aed9" stroke-width="7"/><path d="m244.309 260.489h25.84" stroke="#00aed9" stroke-width="2"/><path d="m244.309 260.489h25.84" stroke="#00aed9" stroke-width="7"/><path d="m257.229 247.561v25.857" stroke="#00aed9" stroke-width="7"/><path d="m351.977 229.198h25.841" stroke="#00aed9" stroke-width="2"/><path d="m351.977 229.198h25.841" stroke="#00aed9" stroke-width="7"/><path d="m364.898 216.269v25.858" stroke="#00aed9" stroke-width="7"/><path d="m708.407 148.438h25.84" stroke="#00aed9" stroke-width="2"/><path d="m708.407 148.438h25.84" stroke="#00aed9" stroke-width="7"/><path d="m721.327 135.51v25.858" stroke="#00aed9" stroke-width="7"/></g><path d="m700.823 256.18h103.362" stroke="#ffb700" stroke-miterlimit="10" stroke-width="7"/></g><path d="m752.504 213.833c.127-.015.255-.002.376.04.12.042.229.11.32.201.09.09.158.199.2.32.042.12.056.249.041.375 0 .249-.099.487-.275.663-.175.176-.413.274-.662.274-.248 0-.486-.098-.662-.274-.175-.176-.274-.414-.274-.663-.015-.126-.001-.255.041-.375.041-.121.11-.23.2-.32.09-.091.199-.159.32-.201.12-.042.249-.055.375-.04zm0-9.369c-2.063-.019-4.085.578-5.808 1.713-1.724 1.136-3.07 2.759-3.868 4.663-.799 1.904-1.012 4.003-.614 6.029s1.389 3.887 2.848 5.347c1.46 1.46 3.32 2.453 5.344 2.851 2.025.398 4.122.184 6.025-.614 1.903-.799 3.525-2.147 4.66-3.871 1.134-1.724 1.731-3.748 1.712-5.813 0-2.733-1.085-5.354-3.016-7.287-1.932-1.932-4.551-3.018-7.283-3.018z" fill="#ffb700"/><path d="m752.504 296.56c.249 0 .487.098.662.274.176.176.275.414.275.663 0 .248-.099.486-.275.662-.175.176-.413.274-.662.274-.248 0-.486-.098-.662-.274-.175-.176-.274-.414-.274-.662 0-.249.099-.487.274-.663.176-.176.414-.274.662-.274zm0-9.369c-2.063-.019-4.085.578-5.808 1.713-1.724 1.136-3.07 2.759-3.868 4.663-.799 1.904-1.012 4.003-.614 6.029s1.389 3.887 2.848 5.347c1.46 1.46 3.32 2.453 5.344 2.851 2.025.398 4.122.184 6.025-.614 1.903-.799 3.525-2.146 4.66-3.871 1.134-1.724 1.731-3.748 1.712-5.812 0-2.734-1.085-5.355-3.016-7.288-1.932-1.932-4.551-3.018-7.283-3.018z" fill="#ffb700"/><g stroke-linecap="round" stroke-linejoin="round"><path d="m236.819 113.962 51.681 68.954 34.454-137.9087h120.588" stroke="#48cf3e" stroke-width="7"/><path d="m416.578 571.814h-19.38" stroke="#191816" stroke-width="2"/><path d="m371.358 571.814h-25.841" stroke="#191816" stroke-width="2"/><path d="m516.757 177.576c8.945 0 16.197-7.257 16.197-16.208 0-8.952-7.252-16.208-16.197-16.208-8.946 0-16.197 7.256-16.197 16.208 0 8.951 7.251 16.208 16.197 16.208z" fill="#00b8f0" stroke="#191816" stroke-width="2"/><path d="m613.659 177.576c8.945 0 16.197-7.257 16.197-16.208 0-8.952-7.252-16.208-16.197-16.208-8.946 0-16.198 7.256-16.198 16.208 0 8.951 7.252 16.208 16.198 16.208z" fill="#00b8f0" stroke="#191816" stroke-width="2"/></g><path d="m306.891 658.895v7.14h8.4v3.255h-8.4v7.455h9.45v3.255h-13.44v-24.36h13.44v3.255zm13.034 11.375c0-1.937.397-3.652 1.19-5.145.817-1.493 1.914-2.648 3.29-3.465 1.4-.84 2.952-1.26 4.655-1.26 1.26 0 2.497.28 3.71.84 1.237.537 2.217 1.26 2.94 2.17v-9.31h4.025v25.9h-4.025v-2.905c-.653.933-1.563 1.703-2.73 2.31-1.143.607-2.461.91-3.955.91-1.68 0-3.22-.42-4.62-1.26-1.376-.863-2.473-2.053-3.29-3.57-.793-1.54-1.19-3.278-1.19-5.215zm15.785.07c0-1.33-.28-2.485-.84-3.465-.536-.98-1.248-1.727-2.135-2.24-.886-.513-1.843-.77-2.87-.77-1.026 0-1.983.257-2.87.77-.886.49-1.61 1.225-2.17 2.205-.536.957-.805 2.1-.805 3.43s.269 2.497.805 3.5c.56 1.003 1.284 1.773 2.17 2.31.91.513 1.867.77 2.87.77 1.027 0 1.984-.257 2.87-.77.887-.513 1.599-1.26 2.135-2.24.56-1.003.84-2.17.84-3.5zm26.731-9.625v19.285h-3.99v-2.275c-.63.793-1.458 1.423-2.485 1.89-1.003.443-2.077.665-3.22.665-1.517 0-2.882-.315-4.095-.945-1.19-.63-2.135-1.563-2.835-2.8-.677-1.237-1.015-2.73-1.015-4.48v-11.34h3.955v10.745c0 1.727.432 3.057 1.295 3.99.863.91 2.042 1.365 3.535 1.365s2.672-.455 3.535-1.365c.887-.933 1.33-2.263 1.33-3.99v-10.745zm3.935 9.625c0-1.983.396-3.722 1.19-5.215.816-1.517 1.936-2.683 3.36-3.5 1.423-.817 3.056-1.225 4.9-1.225 2.333 0 4.258.56 5.775 1.68 1.54 1.097 2.578 2.672 3.115 4.725h-4.305c-.35-.957-.91-1.703-1.68-2.24s-1.739-.805-2.905-.805c-1.634 0-2.94.583-3.92 1.75-.957 1.143-1.435 2.753-1.435 4.83s.478 3.698 1.435 4.865c.98 1.167 2.286 1.75 3.92 1.75 2.31 0 3.838-1.015 4.585-3.045h4.305c-.56 1.96-1.61 3.523-3.15 4.69-1.54 1.143-3.454 1.715-5.74 1.715-1.844 0-3.477-.408-4.9-1.225-1.424-.84-2.544-2.007-3.36-3.5-.794-1.517-1.19-3.267-1.19-5.25zm20.986-.07c0-1.937.397-3.652 1.19-5.145.817-1.493 1.913-2.648 3.29-3.465 1.4-.84 2.94-1.26 4.62-1.26 1.517 0 2.835.303 3.955.91 1.143.583 2.053 1.318 2.73 2.205v-2.8h4.025v19.285h-4.025v-2.87c-.677.91-1.598 1.668-2.765 2.275s-2.497.91-3.99.91c-1.657 0-3.173-.42-4.55-1.26-1.377-.863-2.473-2.053-3.29-3.57-.793-1.54-1.19-3.278-1.19-5.215zm15.785.07c0-1.33-.28-2.485-.84-3.465-.537-.98-1.248-1.727-2.135-2.24s-1.843-.77-2.87-.77-1.983.257-2.87.77c-.887.49-1.61 1.225-2.17 2.205-.537.957-.805 2.1-.805 3.43s.268 2.497.805 3.5c.56 1.003 1.283 1.773 2.17 2.31.91.513 1.867.77 2.87.77 1.027 0 1.983-.257 2.87-.77s1.598-1.26 2.135-2.24c.56-1.003.84-2.17.84-3.5zm13.921-6.37v10.675c0 .723.163 1.248.49 1.575.35.303.933.455 1.75.455h2.45v3.325h-3.15c-1.797 0-3.174-.42-4.13-1.26-.957-.84-1.435-2.205-1.435-4.095v-10.675h-2.275v-3.255h2.275v-4.795h4.025v4.795h4.69v3.255zm10.397-5.81c-.723 0-1.33-.245-1.82-.735s-.735-1.097-.735-1.82.245-1.33.735-1.82 1.097-.735 1.82-.735c.7 0 1.295.245 1.785.735s.735 1.097.735 1.82-.245 1.33-.735 1.82-1.085.735-1.785.735zm1.96 2.555v19.285h-3.99v-19.285zm13.604 19.6c-1.82 0-3.465-.408-4.935-1.225-1.47-.84-2.625-2.007-3.465-3.5-.84-1.517-1.26-3.267-1.26-5.25 0-1.96.431-3.698 1.295-5.215.863-1.517 2.041-2.683 3.535-3.5 1.493-.817 3.161-1.225 5.005-1.225 1.843 0 3.511.408 5.005 1.225 1.493.817 2.671 1.983 3.535 3.5.863 1.517 1.295 3.255 1.295 5.215s-.444 3.698-1.33 5.215c-.887 1.517-2.1 2.695-3.64 3.535-1.517.817-3.197 1.225-5.04 1.225zm0-3.465c1.026 0 1.983-.245 2.87-.735.91-.49 1.645-1.225 2.205-2.205s.84-2.17.84-3.57-.269-2.578-.805-3.535c-.537-.98-1.249-1.715-2.135-2.205-.887-.49-1.844-.735-2.87-.735-1.027 0-1.984.245-2.87.735-.864.49-1.552 1.225-2.065 2.205-.514.957-.77 2.135-.77 3.535 0 2.077.525 3.687 1.575 4.83 1.073 1.12 2.415 1.68 4.025 1.68zm23.684-16.45c1.517 0 2.87.315 4.06.945 1.213.63 2.158 1.563 2.835 2.8s1.015 2.73 1.015 4.48v11.375h-3.955v-10.78c0-1.727-.432-3.045-1.295-3.955-.863-.933-2.042-1.4-3.535-1.4s-2.683.467-3.57 1.4c-.863.91-1.295 2.228-1.295 3.955v10.78h-3.99v-19.285h3.99v2.205c.653-.793 1.482-1.412 2.485-1.855 1.027-.443 2.112-.665 3.255-.665zm30.106 19.845c-1.633 0-3.103-.28-4.41-.84-1.306-.583-2.333-1.4-3.08-2.45-.746-1.05-1.12-2.275-1.12-3.675h4.27c.094 1.05.502 1.913 1.225 2.59.747.677 1.785 1.015 3.115 1.015 1.377 0 2.45-.327 3.22-.98.77-.677 1.155-1.54 1.155-2.59 0-.817-.245-1.482-.735-1.995-.466-.513-1.061-.91-1.785-1.19-.7-.28-1.68-.583-2.94-.91-1.586-.42-2.881-.84-3.885-1.26-.98-.443-1.82-1.12-2.52-2.03s-1.05-2.123-1.05-3.64c0-1.4.35-2.625 1.05-3.675s1.68-1.855 2.94-2.415 2.719-.84 4.375-.84c2.357 0 4.282.595 5.775 1.785 1.517 1.167 2.357 2.777 2.52 4.83h-4.41c-.07-.887-.49-1.645-1.26-2.275s-1.785-.945-3.045-.945c-1.143 0-2.076.292-2.8.875-.723.583-1.085 1.423-1.085 2.52 0 .747.222 1.365.665 1.855.467.467 1.05.84 1.75 1.12s1.657.583 2.87.91c1.61.443 2.917.887 3.92 1.33 1.027.443 1.89 1.132 2.59 2.065.724.91 1.085 2.135 1.085 3.675 0 1.237-.338 2.403-1.015 3.5-.653 1.097-1.621 1.983-2.905 2.66-1.26.653-2.753.98-4.48.98zm30.573-19.53v19.285h-3.99v-2.275c-.63.793-1.458 1.423-2.485 1.89-1.003.443-2.076.665-3.22.665-1.516 0-2.881-.315-4.095-.945-1.19-.63-2.135-1.563-2.835-2.8-.676-1.237-1.015-2.73-1.015-4.48v-11.34h3.955v10.745c0 1.727.432 3.057 1.295 3.99.864.91 2.042 1.365 3.535 1.365 1.494 0 2.672-.455 3.535-1.365.887-.933 1.33-2.263 1.33-3.99v-10.745zm9.255 2.835c.676-.887 1.598-1.633 2.765-2.24 1.166-.607 2.485-.91 3.955-.91 1.68 0 3.208.42 4.585 1.26 1.4.817 2.496 1.972 3.29 3.465.793 1.493 1.19 3.208 1.19 5.145s-.397 3.675-1.19 5.215c-.794 1.517-1.89 2.707-3.29 3.57-1.377.84-2.905 1.26-4.585 1.26-1.47 0-2.777-.292-3.92-.875-1.144-.607-2.077-1.353-2.8-2.24v11.97h-3.99v-28.455h3.99zm11.725 6.72c0-1.33-.28-2.473-.84-3.43-.537-.98-1.26-1.715-2.17-2.205-.887-.513-1.844-.77-2.87-.77-1.004 0-1.96.257-2.87.77-.887.513-1.61 1.26-2.17 2.24-.537.98-.805 2.135-.805 3.465s.268 2.497.805 3.5c.56.98 1.283 1.727 2.17 2.24.91.513 1.866.77 2.87.77 1.026 0 1.983-.257 2.87-.77.91-.537 1.633-1.307 2.17-2.31.56-1.003.84-2.17.84-3.5zm25.68-.385c0 .723-.046 1.377-.14 1.96h-14.735c.117 1.54.689 2.777 1.715 3.71 1.027.933 2.287 1.4 3.78 1.4 2.147 0 3.664-.898 4.55-2.695h4.305c-.583 1.773-1.645 3.232-3.185 4.375-1.516 1.12-3.406 1.68-5.67 1.68-1.843 0-3.5-.408-4.97-1.225-1.446-.84-2.59-2.007-3.43-3.5-.816-1.517-1.225-3.267-1.225-5.25s.397-3.722 1.19-5.215c.817-1.517 1.949-2.683 3.395-3.5 1.47-.817 3.15-1.225 5.04-1.225 1.82 0 3.442.397 4.865 1.19 1.424.793 2.532 1.913 3.325 3.36.794 1.423 1.19 3.068 1.19 4.935zm-4.165-1.26c-.023-1.47-.548-2.648-1.575-3.535-1.026-.887-2.298-1.33-3.815-1.33-1.376 0-2.555.443-3.535 1.33-.98.863-1.563 2.042-1.75 3.535zm12.082-5.11c.583-.98 1.353-1.738 2.31-2.275.98-.56 2.135-.84 3.465-.84v4.13h-1.015c-1.563 0-2.753.397-3.57 1.19-.793.793-1.19 2.17-1.19 4.13v10.15h-3.99v-19.285h3.99zm33.199 11.515h-10.185l-1.75 4.97h-4.165l8.715-24.36h4.62l8.715 24.36h-4.2zm-1.12-3.255-3.955-11.305-3.99 11.305zm14.85-8.225c.676-.887 1.598-1.633 2.765-2.24 1.166-.607 2.485-.91 3.955-.91 1.68 0 3.208.42 4.585 1.26 1.4.817 2.496 1.972 3.29 3.465.793 1.493 1.19 3.208 1.19 5.145s-.397 3.675-1.19 5.215c-.794 1.517-1.89 2.707-3.29 3.57-1.377.84-2.905 1.26-4.585 1.26-1.47 0-2.777-.292-3.92-.875-1.144-.607-2.077-1.353-2.8-2.24v11.97h-3.99v-28.455h3.99zm11.725 6.72c0-1.33-.28-2.473-.84-3.43-.537-.98-1.26-1.715-2.17-2.205-.887-.513-1.844-.77-2.87-.77-1.004 0-1.96.257-2.87.77-.887.513-1.61 1.26-2.17 2.24-.537.98-.805 2.135-.805 3.465s.268 2.497.805 3.5c.56.98 1.283 1.727 2.17 2.24.91.513 1.866.77 2.87.77 1.026 0 1.983-.257 2.87-.77.91-.537 1.633-1.307 2.17-2.31.56-1.003.84-2.17.84-3.5zm11.995-6.72c.677-.887 1.599-1.633 2.765-2.24 1.167-.607 2.485-.91 3.955-.91 1.68 0 3.209.42 4.585 1.26 1.4.817 2.497 1.972 3.29 3.465.794 1.493 1.19 3.208 1.19 5.145s-.396 3.675-1.19 5.215c-.793 1.517-1.89 2.707-3.29 3.57-1.376.84-2.905 1.26-4.585 1.26-1.47 0-2.776-.292-3.92-.875-1.143-.607-2.076-1.353-2.8-2.24v11.97h-3.99v-28.455h3.99zm11.725 6.72c0-1.33-.28-2.473-.84-3.43-.536-.98-1.26-1.715-2.17-2.205-.886-.513-1.843-.77-2.87-.77-1.003 0-1.96.257-2.87.77-.886.513-1.61 1.26-2.17 2.24-.536.98-.805 2.135-.805 3.465s.269 2.497.805 3.5c.56.98 1.284 1.727 2.17 2.24.91.513 1.867.77 2.87.77 1.027 0 1.984-.257 2.87-.77.91-.537 1.634-1.307 2.17-2.31.56-1.003.84-2.17.84-3.5z" fill="#000"/><path d="m249.185 726.538c.456.072.87.258 1.242.558.384.3.684.672.9 1.116.228.444.342.918.342 1.422 0 .636-.162 1.212-.486 1.728-.324.504-.798.906-1.422 1.206-.612.288-1.338.432-2.178.432h-4.68v-12.546h4.5c.852 0 1.578.144 2.178.432.6.276 1.05.654 1.35 1.134s.45 1.02.45 1.62c0 .744-.204 1.362-.612 1.854-.396.48-.924.828-1.584 1.044zm-4.644-.666h2.754c.768 0 1.362-.18 1.782-.54s.63-.858.63-1.494-.21-1.134-.63-1.494-1.026-.54-1.818-.54h-2.718zm2.898 5.778c.816 0 1.452-.192 1.908-.576s.684-.918.684-1.602c0-.696-.24-1.242-.72-1.638-.48-.408-1.122-.612-1.926-.612h-2.844v4.428zm14.999-8.514-5.94 14.508h-1.692l1.944-4.752-3.978-9.756h1.818l3.096 7.992 3.06-7.992zm5.833 3.582c0-1.224.276-2.322.828-3.294.552-.984 1.302-1.752 2.25-2.304.96-.552 2.022-.828 3.186-.828 1.368 0 2.562.33 3.582.99s1.764 1.596 2.232 2.808h-1.962c-.348-.756-.852-1.338-1.512-1.746-.648-.408-1.428-.612-2.34-.612-.876 0-1.662.204-2.358.612s-1.242.99-1.638 1.746c-.396.744-.594 1.62-.594 2.628 0 .996.198 1.872.594 2.628.396.744.942 1.32 1.638 1.728s1.482.612 2.358.612c.912 0 1.692-.198 2.34-.594.66-.408 1.164-.99 1.512-1.746h1.962c-.468 1.2-1.212 2.13-2.232 2.79-1.02.648-2.214.972-3.582.972-1.164 0-2.226-.27-3.186-.81-.948-.552-1.698-1.314-2.25-2.286s-.828-2.07-.828-3.294zm16.154-7.038v13.32h-1.638v-13.32zm3.638 1.854c-.312 0-.576-.108-.792-.324s-.324-.48-.324-.792.108-.576.324-.792.48-.324.792-.324c.3 0 .552.108.756.324.216.216.324.48.324.792s-.108.576-.324.792c-.204.216-.456.324-.756.324zm.792 1.602v9.864h-1.638v-9.864zm2.18 4.914c0-1.02.204-1.908.612-2.664.408-.768.972-1.362 1.692-1.782.732-.42 1.566-.63 2.502-.63 1.212 0 2.208.294 2.988.882.792.588 1.314 1.404 1.566 2.448h-1.764c-.168-.6-.498-1.074-.99-1.422-.48-.348-1.08-.522-1.8-.522-.936 0-1.692.324-2.268.972-.576.636-.864 1.542-.864 2.718 0 1.188.288 2.106.864 2.754s1.332.972 2.268.972c.72 0 1.32-.168 1.8-.504s.81-.816.99-1.44h1.764c-.264 1.008-.792 1.818-1.584 2.43-.792.6-1.782.9-2.97.9-.936 0-1.77-.21-2.502-.63-.72-.42-1.284-1.014-1.692-1.782s-.612-1.668-.612-2.7zm17.053 4.95-3.87-4.356v4.356h-1.638v-13.32h1.638v7.83l3.798-4.374h2.286l-4.644 4.914 4.662 4.95zm4.602-11.466c-.312 0-.576-.108-.792-.324s-.324-.48-.324-.792.108-.576.324-.792.48-.324.792-.324c.3 0 .552.108.756.324.216.216.324.48.324.792s-.108.576-.324.792c-.204.216-.456.324-.756.324zm.792 1.602v9.864h-1.638v-9.864zm7.598-.18c1.2 0 2.172.366 2.916 1.098.744.72 1.116 1.764 1.116 3.132v5.814h-1.62v-5.58c0-.984-.246-1.734-.738-2.25-.492-.528-1.164-.792-2.016-.792-.864 0-1.554.27-2.07.81-.504.54-.756 1.326-.756 2.358v5.454h-1.638v-9.864h1.638v1.404c.324-.504.762-.894 1.314-1.17.564-.276 1.182-.414 1.854-.414zm10.775.018c.852 0 1.596.186 2.232.558.648.372 1.128.84 1.44 1.404v-1.8h1.656v10.08c0 .9-.192 1.698-.576 2.394-.384.708-.936 1.26-1.656 1.656-.708.396-1.536.594-2.484.594-1.296 0-2.376-.306-3.24-.918s-1.374-1.446-1.53-2.502h1.62c.18.6.552 1.08 1.116 1.44.564.372 1.242.558 2.034.558.9 0 1.632-.282 2.196-.846.576-.564.864-1.356.864-2.376v-2.07c-.324.576-.804 1.056-1.44 1.44s-1.38.576-2.232.576c-.876 0-1.674-.216-2.394-.648-.708-.432-1.266-1.038-1.674-1.818s-.612-1.668-.612-2.664c0-1.008.204-1.89.612-2.646.408-.768.966-1.362 1.674-1.782.72-.42 1.518-.63 2.394-.63zm3.672 5.076c0-.744-.15-1.392-.45-1.944s-.708-.972-1.224-1.26c-.504-.3-1.062-.45-1.674-.45s-1.17.144-1.674.432-.906.708-1.206 1.26-.45 1.2-.45 1.944c0 .756.15 1.416.45 1.98.3.552.702.978 1.206 1.278.504.288 1.062.432 1.674.432s1.17-.144 1.674-.432c.516-.3.924-.726 1.224-1.278.3-.564.45-1.218.45-1.962zm10.105-3.51h-1.836l1.728-4.086h1.17zm2.916 0h-1.836l1.728-4.086h1.17zm4.678 7.128h4.392v1.332h-6.03v-12.546h1.638zm10.434 1.494c-.924 0-1.764-.21-2.52-.63-.744-.42-1.332-1.014-1.764-1.782-.42-.78-.63-1.68-.63-2.7 0-1.008.216-1.896.648-2.664.444-.78 1.044-1.374 1.8-1.782.756-.42 1.602-.63 2.538-.63s1.782.21 2.538.63c.756.408 1.35.996 1.782 1.764.444.768.666 1.662.666 2.682s-.228 1.92-.684 2.7c-.444.768-1.05 1.362-1.818 1.782s-1.62.63-2.556.63zm0-1.44c.588 0 1.14-.138 1.656-.414s.93-.69 1.242-1.242c.324-.552.486-1.224.486-2.016s-.156-1.464-.468-2.016-.72-.96-1.224-1.224c-.504-.276-1.05-.414-1.638-.414-.6 0-1.152.138-1.656.414-.492.264-.888.672-1.188 1.224s-.45 1.224-.45 2.016c0 .804.144 1.482.432 2.034.3.552.696.966 1.188 1.242.492.264 1.032.396 1.62.396zm11.279-8.748c.852 0 1.596.186 2.232.558.648.372 1.128.84 1.44 1.404v-1.8h1.656v10.08c0 .9-.192 1.698-.576 2.394-.384.708-.936 1.26-1.656 1.656-.708.396-1.536.594-2.484.594-1.296 0-2.376-.306-3.24-.918s-1.374-1.446-1.53-2.502h1.62c.18.6.552 1.08 1.116 1.44.564.372 1.242.558 2.034.558.9 0 1.632-.282 2.196-.846.576-.564.864-1.356.864-2.376v-2.07c-.324.576-.804 1.056-1.44 1.44s-1.38.576-2.232.576c-.876 0-1.674-.216-2.394-.648-.708-.432-1.266-1.038-1.674-1.818s-.612-1.668-.612-2.664c0-1.008.204-1.89.612-2.646.408-.768.966-1.362 1.674-1.782.72-.42 1.518-.63 2.394-.63zm3.672 5.076c0-.744-.15-1.392-.45-1.944s-.708-.972-1.224-1.26c-.504-.3-1.062-.45-1.674-.45s-1.17.144-1.674.432-.906.708-1.206 1.26-.45 1.2-.45 1.944c0 .756.15 1.416.45 1.98.3.552.702.978 1.206 1.278.504.288 1.062.432 1.674.432s1.17-.144 1.674-.432c.516-.3.924-.726 1.224-1.278.3-.564.45-1.218.45-1.962zm5.27-6.516c-.312 0-.576-.108-.792-.324s-.324-.48-.324-.792.108-.576.324-.792.48-.324.792-.324c.3 0 .552.108.756.324.216.216.324.48.324.792s-.108.576-.324.792c-.204.216-.456.324-.756.324zm.792 1.602v9.864h-1.638v-9.864zm7.598-.18c1.2 0 2.172.366 2.916 1.098.744.72 1.116 1.764 1.116 3.132v5.814h-1.62v-5.58c0-.984-.246-1.734-.738-2.25-.492-.528-1.164-.792-2.016-.792-.864 0-1.554.27-2.07.81-.504.54-.756 1.326-.756 2.358v5.454h-1.638v-9.864h1.638v1.404c.324-.504.762-.894 1.314-1.17.564-.276 1.182-.414 1.854-.414zm6.96-2.502h1.818l-1.728 4.086h-1.152zm2.916 0h1.818l-1.728 4.086h-1.17zm10.106 4.518c.336-.588.828-1.068 1.476-1.44s1.386-.558 2.214-.558c.888 0 1.686.21 2.394.63s1.266 1.014 1.674 1.782c.408.756.612 1.638.612 2.646 0 .996-.204 1.884-.612 2.664s-.972 1.386-1.692 1.818c-.708.432-1.5.648-2.376.648-.852 0-1.602-.186-2.25-.558-.636-.372-1.116-.846-1.44-1.422v1.818h-1.638v-13.32h1.638zm6.696 3.06c0-.744-.15-1.392-.45-1.944s-.708-.972-1.224-1.26c-.504-.288-1.062-.432-1.674-.432-.6 0-1.158.15-1.674.45-.504.288-.912.714-1.224 1.278-.3.552-.45 1.194-.45 1.926 0 .744.15 1.398.45 1.962.312.552.72.978 1.224 1.278.516.288 1.074.432 1.674.432.612 0 1.17-.144 1.674-.432.516-.3.924-.726 1.224-1.278.3-.564.45-1.224.45-1.98zm12.579-4.896v9.864h-1.638v-1.458c-.312.504-.75.9-1.314 1.188-.552.276-1.164.414-1.836.414-.768 0-1.458-.156-2.07-.468-.612-.324-1.098-.804-1.458-1.44-.348-.636-.522-1.41-.522-2.322v-5.778h1.62v5.562c0 .972.246 1.722.738 2.25.492.516 1.164.774 2.016.774.876 0 1.566-.27 2.07-.81s.756-1.326.756-2.358v-5.418zm4.763 1.35v5.814c0 .48.102.822.306 1.026.204.192.558.288 1.062.288h1.206v1.386h-1.476c-.912 0-1.596-.21-2.052-.63s-.684-1.11-.684-2.07v-5.814h-1.278v-1.35h1.278v-2.484h1.638v2.484h2.574v1.35zm6.557 0v5.814c0 .48.102.822.306 1.026.204.192.558.288 1.062.288h1.206v1.386h-1.476c-.912 0-1.596-.21-2.052-.63s-.684-1.11-.684-2.07v-5.814h-1.278v-1.35h1.278v-2.484h1.638v2.484h2.574v1.35zm8.861 8.676c-.924 0-1.764-.21-2.52-.63-.744-.42-1.332-1.014-1.764-1.782-.42-.78-.63-1.68-.63-2.7 0-1.008.216-1.896.648-2.664.444-.78 1.044-1.374 1.8-1.782.756-.42 1.602-.63 2.538-.63s1.782.21 2.538.63c.756.408 1.35.996 1.782 1.764.444.768.666 1.662.666 2.682s-.228 1.92-.684 2.7c-.444.768-1.05 1.362-1.818 1.782s-1.62.63-2.556.63zm0-1.44c.588 0 1.14-.138 1.656-.414s.93-.69 1.242-1.242c.324-.552.486-1.224.486-2.016s-.156-1.464-.468-2.016-.72-.96-1.224-1.224c-.504-.276-1.05-.414-1.638-.414-.6 0-1.152.138-1.656.414-.492.264-.888.672-1.188 1.224s-.45 1.224-.45 2.016c0 .804.144 1.482.432 2.034.3.552.696.966 1.188 1.242.492.264 1.032.396 1.62.396zm12.017-8.766c1.2 0 2.172.366 2.916 1.098.744.72 1.116 1.764 1.116 3.132v5.814h-1.62v-5.58c0-.984-.246-1.734-.738-2.25-.492-.528-1.164-.792-2.016-.792-.864 0-1.554.27-2.07.81-.504.54-.756 1.326-.756 2.358v5.454h-1.638v-9.864h1.638v1.404c.324-.504.762-.894 1.314-1.17.564-.276 1.182-.414 1.854-.414zm8.4 7.776-2.016 4.842h-1.098l1.314-4.842zm15.171-7.596-5.94 14.508h-1.692l1.944-4.752-3.978-9.756h1.818l3.096 7.992 3.06-7.992zm5.949 10.026c-.924 0-1.764-.21-2.52-.63-.744-.42-1.332-1.014-1.764-1.782-.42-.78-.63-1.68-.63-2.7 0-1.008.216-1.896.648-2.664.444-.78 1.044-1.374 1.8-1.782.756-.42 1.602-.63 2.538-.63s1.782.21 2.538.63c.756.408 1.35.996 1.782 1.764.444.768.666 1.662.666 2.682s-.228 1.92-.684 2.7c-.444.768-1.05 1.362-1.818 1.782s-1.62.63-2.556.63zm0-1.44c.588 0 1.14-.138 1.656-.414s.93-.69 1.242-1.242c.324-.552.486-1.224.486-2.016s-.156-1.464-.468-2.016-.72-.96-1.224-1.224c-.504-.276-1.05-.414-1.638-.414-.6 0-1.152.138-1.656.414-.492.264-.888.672-1.188 1.224s-.45 1.224-.45 2.016c0 .804.144 1.482.432 2.034.3.552.696.966 1.188 1.242.492.264 1.032.396 1.62.396zm15.959-8.586v9.864h-1.638v-1.458c-.312.504-.75.9-1.314 1.188-.552.276-1.164.414-1.836.414-.768 0-1.458-.156-2.07-.468-.612-.324-1.098-.804-1.458-1.44-.348-.636-.522-1.41-.522-2.322v-5.778h1.62v5.562c0 .972.246 1.722.738 2.25.492.516 1.164.774 2.016.774.876 0 1.566-.27 2.07-.81s.756-1.326.756-2.358v-5.418zm9.563 1.35v5.814c0 .48.102.822.306 1.026.204.192.558.288 1.062.288h1.206v1.386h-1.476c-.912 0-1.596-.21-2.052-.63s-.684-1.11-.684-2.07v-5.814h-1.278v-1.35h1.278v-2.484h1.638v2.484h2.574v1.35zm6.196.252c.288-.564.696-1.002 1.224-1.314.54-.312 1.194-.468 1.962-.468v1.692h-.432c-1.836 0-2.754.996-2.754 2.988v5.364h-1.638v-9.864h1.638zm13.825-1.602v9.864h-1.638v-1.458c-.312.504-.75.9-1.314 1.188-.552.276-1.164.414-1.836.414-.768 0-1.458-.156-2.07-.468-.612-.324-1.098-.804-1.458-1.44-.348-.636-.522-1.41-.522-2.322v-5.778h1.62v5.562c0 .972.246 1.722.738 2.25.492.516 1.164.774 2.016.774.876 0 1.566-.27 2.07-.81s.756-1.326.756-2.358v-5.418zm4.404-3.456v13.32h-1.638v-13.32zm11.288 3.456-5.94 14.508h-1.692l1.944-4.752-3.978-9.756h1.818l3.096 7.992 3.06-7.992zm9.937 10.026c-.756 0-1.434-.126-2.034-.378-.6-.264-1.074-.624-1.422-1.08-.348-.468-.54-1.002-.576-1.602h1.692c.048.492.276.894.684 1.206.42.312.966.468 1.638.468.624 0 1.116-.138 1.476-.414s.54-.624.54-1.044c0-.432-.192-.75-.576-.954-.384-.216-.978-.426-1.782-.63-.732-.192-1.332-.384-1.8-.576-.456-.204-.852-.498-1.188-.882-.324-.396-.486-.912-.486-1.548 0-.504.15-.966.45-1.386s.726-.75 1.278-.99c.552-.252 1.182-.378 1.89-.378 1.092 0 1.974.276 2.646.828s1.032 1.308 1.08 2.268h-1.638c-.036-.516-.246-.93-.63-1.242-.372-.312-.876-.468-1.512-.468-.588 0-1.056.126-1.404.378s-.522.582-.522.99c0 .324.102.594.306.81.216.204.48.372.792.504.324.12.768.258 1.332.414.708.192 1.284.384 1.728.576.444.18.822.456 1.134.828.324.372.492.858.504 1.458 0 .54-.15 1.026-.45 1.458s-.726.774-1.278 1.026c-.54.24-1.164.36-1.872.36zm7.91-8.676v5.814c0 .48.102.822.306 1.026.204.192.558.288 1.062.288h1.206v1.386h-1.476c-.912 0-1.596-.21-2.052-.63s-.684-1.11-.684-2.07v-5.814h-1.278v-1.35h1.278v-2.484h1.638v2.484h2.574v1.35zm3.947 3.546c0-1.008.204-1.89.612-2.646.408-.768.966-1.362 1.674-1.782.72-.42 1.518-.63 2.394-.63.864 0 1.614.186 2.25.558s1.11.84 1.422 1.404v-1.8h1.656v9.864h-1.656v-1.836c-.324.576-.81 1.056-1.458 1.44-.636.372-1.38.558-2.232.558-.876 0-1.668-.216-2.376-.648s-1.266-1.038-1.674-1.818-.612-1.668-.612-2.664zm8.352.018c0-.744-.15-1.392-.45-1.944s-.708-.972-1.224-1.26c-.504-.3-1.062-.45-1.674-.45s-1.17.144-1.674.432-.906.708-1.206 1.26-.45 1.2-.45 1.944c0 .756.15 1.416.45 1.98.3.552.702.978 1.206 1.278.504.288 1.062.432 1.674.432s1.17-.144 1.674-.432c.516-.3.924-.726 1.224-1.278.3-.564.45-1.218.45-1.962zm6.422-3.564v5.814c0 .48.102.822.306 1.026.204.192.558.288 1.062.288h1.206v1.386h-1.476c-.912 0-1.596-.21-2.052-.63s-.684-1.11-.684-2.07v-5.814h-1.278v-1.35h1.278v-2.484h1.638v2.484h2.574v1.35zm13.559 3.204c0 .312-.018.642-.054.99h-7.884c.06.972.39 1.734.99 2.286.612.54 1.35.81 2.214.81.708 0 1.296-.162 1.764-.486.48-.336.816-.78 1.008-1.332h1.764c-.264.948-.792 1.722-1.584 2.322-.792.588-1.776.882-2.952.882-.936 0-1.776-.21-2.52-.63-.732-.42-1.308-1.014-1.728-1.782-.42-.78-.63-1.68-.63-2.7s.204-1.914.612-2.682.978-1.356 1.71-1.764c.744-.42 1.596-.63 2.556-.63.936 0 1.764.204 2.484.612s1.272.972 1.656 1.692c.396.708.594 1.512.594 2.412zm-1.692-.342c0-.624-.138-1.158-.414-1.602-.276-.456-.654-.798-1.134-1.026-.468-.24-.99-.36-1.566-.36-.828 0-1.536.264-2.124.792-.576.528-.906 1.26-.99 2.196zm10.651-2.862v5.814c0 .48.102.822.306 1.026.204.192.558.288 1.062.288h1.206v1.386h-1.476c-.912 0-1.596-.21-2.052-.63s-.684-1.11-.684-2.07v-5.814h-1.278v-1.35h1.278v-2.484h1.638v2.484h2.574v1.35zm8.86 8.676c-.924 0-1.764-.21-2.52-.63-.744-.42-1.332-1.014-1.764-1.782-.42-.78-.63-1.68-.63-2.7 0-1.008.216-1.896.648-2.664.444-.78 1.044-1.374 1.8-1.782.756-.42 1.602-.63 2.538-.63s1.782.21 2.538.63c.756.408 1.35.996 1.782 1.764.444.768.666 1.662.666 2.682s-.228 1.92-.684 2.7c-.444.768-1.05 1.362-1.818 1.782s-1.62.63-2.556.63zm0-1.44c.588 0 1.14-.138 1.656-.414s.93-.69 1.242-1.242c.324-.552.486-1.224.486-2.016s-.156-1.464-.468-2.016-.72-.96-1.224-1.224c-.504-.276-1.05-.414-1.638-.414-.6 0-1.152.138-1.656.414-.492.264-.888.672-1.188 1.224s-.45 1.224-.45 2.016c0 .804.144 1.482.432 2.034.3.552.696.966 1.188 1.242.492.264 1.032.396 1.62.396zm11.399-3.69c0-1.008.204-1.89.612-2.646.408-.768.966-1.362 1.674-1.782.72-.42 1.518-.63 2.394-.63.864 0 1.614.186 2.25.558s1.11.84 1.422 1.404v-1.8h1.656v9.864h-1.656v-1.836c-.324.576-.81 1.056-1.458 1.44-.636.372-1.38.558-2.232.558-.876 0-1.668-.216-2.376-.648s-1.266-1.038-1.674-1.818-.612-1.668-.612-2.664zm8.352.018c0-.744-.15-1.392-.45-1.944s-.708-.972-1.224-1.26c-.504-.3-1.062-.45-1.674-.45s-1.17.144-1.674.432-.906.708-1.206 1.26-.45 1.2-.45 1.944c0 .756.15 1.416.45 1.98.3.552.702.978 1.206 1.278.504.288 1.062.432 1.674.432s1.17-.144 1.674-.432c.516-.3.924-.726 1.224-1.278.3-.564.45-1.218.45-1.962zm8.492-5.076c.852 0 1.596.186 2.232.558.648.372 1.128.84 1.44 1.404v-1.8h1.656v10.08c0 .9-.192 1.698-.576 2.394-.384.708-.936 1.26-1.656 1.656-.708.396-1.536.594-2.484.594-1.296 0-2.376-.306-3.24-.918s-1.374-1.446-1.53-2.502h1.62c.18.6.552 1.08 1.116 1.44.564.372 1.242.558 2.034.558.9 0 1.632-.282 2.196-.846.576-.564.864-1.356.864-2.376v-2.07c-.324.576-.804 1.056-1.44 1.44s-1.38.576-2.232.576c-.876 0-1.674-.216-2.394-.648-.708-.432-1.266-1.038-1.674-1.818s-.612-1.668-.612-2.664c0-1.008.204-1.89.612-2.646.408-.768.966-1.362 1.674-1.782.72-.42 1.518-.63 2.394-.63zm3.672 5.076c0-.744-.15-1.392-.45-1.944s-.708-.972-1.224-1.26c-.504-.3-1.062-.45-1.674-.45s-1.17.144-1.674.432-.906.708-1.206 1.26-.45 1.2-.45 1.944c0 .756.15 1.416.45 1.98.3.552.702.978 1.206 1.278.504.288 1.062.432 1.674.432s1.17-.144 1.674-.432c.516-.3.924-.726 1.224-1.278.3-.564.45-1.218.45-1.962zm6.062-3.312c.288-.564.696-1.002 1.224-1.314.54-.312 1.194-.468 1.962-.468v1.692h-.432c-1.836 0-2.754.996-2.754 2.988v5.364h-1.638v-9.864h1.638zm14.077 2.952c0 .312-.018.642-.054.99h-7.884c.06.972.39 1.734.99 2.286.612.54 1.35.81 2.214.81.708 0 1.296-.162 1.764-.486.48-.336.816-.78 1.008-1.332h1.764c-.264.948-.792 1.722-1.584 2.322-.792.588-1.776.882-2.952.882-.936 0-1.776-.21-2.52-.63-.732-.42-1.308-1.014-1.728-1.782-.42-.78-.63-1.68-.63-2.7s.204-1.914.612-2.682.978-1.356 1.71-1.764c.744-.42 1.596-.63 2.556-.63.936 0 1.764.204 2.484.612s1.272.972 1.656 1.692c.396.708.594 1.512.594 2.412zm-1.692-.342c0-.624-.138-1.158-.414-1.602-.276-.456-.654-.798-1.134-1.026-.468-.24-.99-.36-1.566-.36-.828 0-1.536.264-2.124.792-.576.528-.906 1.26-.99 2.196zm12.854.342c0 .312-.018.642-.054.99h-7.884c.06.972.39 1.734.99 2.286.612.54 1.35.81 2.214.81.708 0 1.296-.162 1.764-.486.48-.336.816-.78 1.008-1.332h1.764c-.264.948-.792 1.722-1.584 2.322-.792.588-1.776.882-2.952.882-.936 0-1.776-.21-2.52-.63-.732-.42-1.308-1.014-1.728-1.782-.42-.78-.63-1.68-.63-2.7s.204-1.914.612-2.682.978-1.356 1.71-1.764c.744-.42 1.596-.63 2.556-.63.936 0 1.764.204 2.484.612s1.272.972 1.656 1.692c.396.708.594 1.512.594 2.412zm-1.692-.342c0-.624-.138-1.158-.414-1.602-.276-.456-.654-.798-1.134-1.026-.468-.24-.99-.36-1.566-.36-.828 0-1.536.264-2.124.792-.576.528-.906 1.26-.99 2.196zm21.793-4.212-3.078 9.864h-1.692l-2.376-7.83-2.376 7.83h-1.692l-3.096-9.864h1.674l2.268 8.28 2.448-8.28h1.674l2.394 8.298 2.232-8.298zm2.471-1.602c-.312 0-.576-.108-.792-.324s-.324-.48-.324-.792.108-.576.324-.792.48-.324.792-.324c.3 0 .552.108.756.324.216.216.324.48.324.792s-.108.576-.324.792c-.204.216-.456.324-.756.324zm.792 1.602v9.864h-1.638v-9.864zm4.79 1.35v5.814c0 .48.102.822.306 1.026.204.192.558.288 1.062.288h1.206v1.386h-1.476c-.912 0-1.596-.21-2.052-.63s-.684-1.11-.684-2.07v-5.814h-1.278v-1.35h1.278v-2.484h1.638v2.484h2.574v1.35zm9.455-1.53c.744 0 1.416.162 2.016.486.6.312 1.068.786 1.404 1.422.348.636.522 1.41.522 2.322v5.814h-1.62v-5.58c0-.984-.246-1.734-.738-2.25-.492-.528-1.164-.792-2.016-.792-.864 0-1.554.27-2.07.81-.504.54-.756 1.326-.756 2.358v5.454h-1.638v-13.32h1.638v4.86c.324-.504.768-.894 1.332-1.17.576-.276 1.218-.414 1.926-.414z" fill="#000"/><path d="m289.83 766.162c-.828 0-1.626-.096-2.394-.288-.756-.192-1.416-.48-1.98-.864-.228-.156-.366-.342-.414-.558-.048-.228-.03-.432.054-.612.096-.192.234-.324.414-.396.192-.072.408-.03.648.126.54.348 1.11.606 1.71.774.6.156 1.254.234 1.962.234 1.02 0 1.77-.18 2.25-.54.492-.372.738-.852.738-1.44 0-.48-.174-.858-.522-1.134-.348-.288-.93-.516-1.746-.684l-1.926-.396c-1.14-.24-1.992-.636-2.556-1.188-.552-.552-.828-1.296-.828-2.232 0-.756.198-1.422.594-1.998.408-.576.972-1.02 1.692-1.332.72-.324 1.548-.486 2.484-.486.744 0 1.44.096 2.088.288.66.192 1.248.486 1.764.882.204.144.324.318.36.522s.006.396-.09.576c-.096.168-.24.282-.432.342s-.414.012-.666-.144c-.468-.312-.948-.534-1.44-.666-.492-.144-1.026-.216-1.602-.216-.888 0-1.596.198-2.124.594-.516.396-.774.924-.774 1.584 0 .504.162.906.486 1.206s.864.528 1.62.684l1.908.396c1.2.252 2.094.642 2.682 1.17.588.516.882 1.218.882 2.106 0 .744-.198 1.392-.594 1.944s-.954.984-1.674 1.296c-.72.3-1.578.45-2.574.45zm10.639 0c-.9 0-1.68-.186-2.34-.558-.648-.384-1.152-.918-1.512-1.602-.36-.696-.54-1.512-.54-2.448 0-1.392.396-2.49 1.188-3.294s1.86-1.206 3.204-1.206c.42 0 .858.066 1.314.198.468.12.9.324 1.296.612.192.12.3.276.324.468.036.18.006.354-.09.522-.084.156-.21.264-.378.324-.168.048-.36.012-.576-.108-.288-.204-.582-.348-.882-.432-.3-.096-.588-.144-.864-.144-.852 0-1.512.27-1.98.81-.456.528-.684 1.284-.684 2.268s.228 1.758.684 2.322c.468.552 1.128.828 1.98.828.276 0 .558-.042.846-.126.3-.084.6-.228.9-.432.216-.12.402-.15.558-.09.168.06.288.174.36.342.084.156.108.33.072.522-.024.18-.132.33-.324.45-.384.276-.804.474-1.26.594-.444.12-.876.18-1.296.18zm5.433-.036c-.6 0-.9-.306-.9-.918v-11.106c0-.612.3-.918.9-.918.612 0 .918.306.918.918v4.482c.3-.504.702-.882 1.206-1.134.516-.264 1.092-.396 1.728-.396 2.076 0 3.114 1.176 3.114 3.528v4.626c0 .612-.3.918-.9.918-.612 0-.918-.306-.918-.918v-4.518c0-.756-.15-1.308-.45-1.656-.288-.348-.744-.522-1.368-.522-.732 0-1.32.234-1.764.702-.432.456-.648 1.062-.648 1.818v4.176c0 .612-.306.918-.918.918zm13.287.036c-.888 0-1.656-.186-2.304-.558s-1.152-.894-1.512-1.566c-.348-.684-.522-1.494-.522-2.43s.174-1.74.522-2.412c.36-.684.864-1.212 1.512-1.584s1.416-.558 2.304-.558c.864 0 1.62.186 2.268.558s1.152.9 1.512 1.584c.36.672.54 1.476.54 2.412s-.18 1.746-.54 2.43c-.36.672-.864 1.194-1.512 1.566s-1.404.558-2.268.558zm0-1.404c.744 0 1.344-.27 1.8-.81s.684-1.32.684-2.34-.228-1.794-.684-2.322c-.456-.54-1.056-.81-1.8-.81-.756 0-1.362.27-1.818.81-.456.528-.684 1.302-.684 2.322s.228 1.8.684 2.34 1.062.81 1.818.81zm10.177 1.404c-.888 0-1.656-.186-2.304-.558s-1.152-.894-1.512-1.566c-.348-.684-.522-1.494-.522-2.43s.174-1.74.522-2.412c.36-.684.864-1.212 1.512-1.584s1.416-.558 2.304-.558c.864 0 1.62.186 2.268.558s1.152.9 1.512 1.584c.36.672.54 1.476.54 2.412s-.18 1.746-.54 2.43c-.36.672-.864 1.194-1.512 1.566s-1.404.558-2.268.558zm0-1.404c.744 0 1.344-.27 1.8-.81s.684-1.32.684-2.34-.228-1.794-.684-2.322c-.456-.54-1.056-.81-1.8-.81-.756 0-1.362.27-1.818.81-.456.528-.684 1.302-.684 2.322s.228 1.8.684 2.34 1.062.81 1.818.81zm9.188 1.404c-.936 0-1.644-.27-2.124-.81-.468-.54-.702-1.332-.702-2.376v-8.874c0-.612.3-.918.9-.918.612 0 .918.306.918.918v8.766c0 1.188.48 1.782 1.44 1.782.108 0 .204-.006.288-.018s.168-.018.252-.018c.144-.012.246.03.306.126.06.084.09.264.09.54 0 .492-.228.774-.684.846-.12.012-.24.018-.36.018-.108.012-.216.018-.324.018zm11.652-.036c-.624 0-.936-.318-.936-.954v-10.296h-3.816c-.54 0-.81-.264-.81-.792 0-.516.27-.774.81-.774h9.486c.552 0 .828.258.828.774 0 .528-.276.792-.828.792h-3.816v10.296c0 .636-.306.954-.918.954zm8.193.036c-.612 0-1.158-.12-1.638-.36s-.864-.564-1.152-.972c-.276-.408-.414-.87-.414-1.386 0-.648.162-1.158.486-1.53.336-.372.882-.642 1.638-.81.768-.168 1.8-.252 3.096-.252h.612v-.468c0-.684-.144-1.176-.432-1.476s-.762-.45-1.422-.45c-.384 0-.786.048-1.206.144-.408.096-.834.258-1.278.486-.252.12-.462.138-.63.054-.156-.084-.264-.216-.324-.396s-.054-.366.018-.558.222-.336.45-.432c.528-.24 1.05-.414 1.566-.522.516-.12 1.002-.18 1.458-.18 1.2 0 2.088.288 2.664.864.576.564.864 1.452.864 2.664v4.626c0 .612-.282.918-.846.918-.576 0-.864-.306-.864-.918v-.666c-.216.504-.552.9-1.008 1.188s-1.002.432-1.638.432zm.36-1.296c.648 0 1.188-.228 1.62-.684s.648-1.032.648-1.728v-.486h-.594c-.876 0-1.566.042-2.07.126-.492.084-.846.228-1.062.432-.204.192-.306.462-.306.81 0 .456.156.828.468 1.116.312.276.744.414 1.296.414zm9.326 1.296c-.936 0-1.644-.27-2.124-.81-.468-.54-.702-1.332-.702-2.376v-8.874c0-.612.3-.918.9-.918.612 0 .918.306.918.918v8.766c0 1.188.48 1.782 1.44 1.782.108 0 .204-.006.288-.018s.168-.018.252-.018c.144-.012.246.03.306.126.06.084.09.264.09.54 0 .492-.228.774-.684.846-.12.012-.24.018-.36.018-.108.012-.216.018-.324.018zm3.576-.036c-.6 0-.9-.306-.9-.918v-11.106c0-.612.3-.918.9-.918.612 0 .918.306.918.918v6.948h.036l3.366-3.348c.192-.192.366-.342.522-.45s.36-.162.612-.162c.372 0 .612.138.72.414.12.276.048.552-.216.828l-3.15 3.114 3.474 3.438c.192.192.282.384.27.576s-.09.354-.234.486c-.144.12-.324.18-.54.18-.276 0-.498-.054-.666-.162-.156-.108-.342-.27-.558-.486l-3.6-3.492h-.036v3.222c0 .612-.306.918-.918.918zm17.358 0c-.624 0-.936-.318-.936-.954v-10.296h-3.816c-.54 0-.81-.264-.81-.792 0-.516.27-.774.81-.774h9.486c.552 0 .828.258.828.774 0 .528-.276.792-.828.792h-3.816v10.296c0 .636-.306.954-.918.954zm9.507.036c-1.44 0-2.574-.402-3.402-1.206-.828-.816-1.242-1.926-1.242-3.33 0-.9.18-1.692.54-2.376.372-.696.882-1.236 1.53-1.62s1.392-.576 2.232-.576c1.212 0 2.166.39 2.862 1.17.696.768 1.044 1.83 1.044 3.186 0 .408-.24.612-.72.612h-5.724c.132 1.824 1.098 2.736 2.898 2.736.36 0 .738-.042 1.134-.126.396-.096.78-.264 1.152-.504.252-.144.468-.192.648-.144.192.036.33.138.414.306.084.156.096.336.036.54-.048.192-.186.36-.414.504-.408.276-.888.486-1.44.63-.54.132-1.056.198-1.548.198zm-.27-7.83c-.756 0-1.356.234-1.8.702s-.714 1.092-.81 1.872h4.914c-.036-.816-.252-1.446-.648-1.89-.396-.456-.948-.684-1.656-.684zm6.734 7.794c-.612 0-.918-.306-.918-.918v-7.2c0-.612.294-.918.882-.918s.882.306.882.918v.774c.24-.54.6-.954 1.08-1.242.492-.288 1.086-.456 1.782-.504.444-.036.684.204.72.72.048.528-.21.816-.774.864l-.342.036c-1.596.156-2.394.978-2.394 2.466v4.086c0 .612-.306.918-.918.918zm6.733 0c-.6 0-.9-.306-.9-.918v-7.2c0-.612.294-.918.882-.918s.882.306.882.918v.63c.264-.504.63-.894 1.098-1.17s1.014-.414 1.638-.414c1.344 0 2.214.588 2.61 1.764.276-.552.672-.984 1.188-1.296s1.104-.468 1.764-.468c1.968 0 2.952 1.176 2.952 3.528v4.626c0 .612-.306.918-.918.918-.6 0-.9-.306-.9-.918v-4.536c0-.744-.132-1.29-.396-1.638-.252-.348-.672-.522-1.26-.522-.66 0-1.182.234-1.566.702-.384.456-.576 1.08-.576 1.872v4.122c0 .612-.3.918-.9.918-.612 0-.918-.306-.918-.918v-4.536c0-.744-.126-1.29-.378-1.638s-.672-.522-1.26-.522c-.66 0-1.182.234-1.566.702-.372.456-.558 1.08-.558 1.872v4.122c0 .612-.306.918-.918.918zm17.734.036c-.528 0-1.074-.06-1.638-.18s-1.074-.324-1.53-.612c-.204-.12-.33-.27-.378-.45s-.036-.348.036-.504.186-.264.342-.324c.168-.072.354-.054.558.054.468.252.918.432 1.35.54s.858.162 1.278.162c.636 0 1.116-.114 1.44-.342s.486-.534.486-.918c0-.312-.108-.552-.324-.72-.216-.18-.54-.318-.972-.414l-1.71-.342c-1.512-.312-2.268-1.092-2.268-2.34 0-.828.33-1.488.99-1.98s1.524-.738 2.592-.738c1.08 0 2.01.264 2.79.792.192.12.306.27.342.45.036.168.012.33-.072.486-.084.144-.21.246-.378.306-.156.06-.342.036-.558-.072-.36-.216-.72-.372-1.08-.468-.36-.108-.708-.162-1.044-.162-.624 0-1.098.12-1.422.36-.324.228-.486.54-.486.936 0 .6.396.984 1.188 1.152l1.71.342c.78.156 1.368.42 1.764.792.408.372.612.876.612 1.512 0 .84-.33 1.5-.99 1.98-.66.468-1.536.702-2.628.702zm6.632 1.656c-.18.216-.372.312-.576.288-.192-.024-.324-.126-.396-.306-.072-.168-.012-.378.18-.63.144-.18.252-.366.324-.558.084-.18.144-.36.18-.54-.324-.024-.588-.138-.792-.342-.192-.216-.288-.486-.288-.81 0-.336.102-.606.306-.81.204-.216.48-.324.828-.324.36 0 .642.126.846.378.216.24.324.588.324 1.044 0 .396-.066.816-.198 1.26-.12.444-.366.894-.738 1.35zm13.824-1.656c-1.284 0-2.382-.264-3.294-.792s-1.614-1.278-2.106-2.25c-.48-.984-.72-2.142-.72-3.474s.24-2.484.72-3.456c.492-.972 1.194-1.722 2.106-2.25s2.01-.792 3.294-.792c.708 0 1.386.096 2.034.288.66.192 1.23.468 1.71.828.264.168.414.372.45.612.048.228.012.438-.108.63-.108.18-.27.3-.486.36s-.456 0-.72-.18c-.408-.3-.852-.522-1.332-.666-.468-.144-.966-.216-1.494-.216-1.368 0-2.412.42-3.132 1.26s-1.08 2.034-1.08 3.582.36 2.748 1.08 3.6c.72.84 1.764 1.26 3.132 1.26.528 0 1.032-.072 1.512-.216.492-.144.954-.372 1.386-.684.264-.168.498-.222.702-.162.204.048.36.162.468.342s.144.384.108.612c-.036.216-.162.402-.378.558-.504.396-1.092.696-1.764.9-.66.204-1.356.306-2.088.306zm9.461 0c-.888 0-1.656-.186-2.304-.558s-1.152-.894-1.512-1.566c-.348-.684-.522-1.494-.522-2.43s.174-1.74.522-2.412c.36-.684.864-1.212 1.512-1.584s1.416-.558 2.304-.558c.864 0 1.62.186 2.268.558s1.152.9 1.512 1.584c.36.672.54 1.476.54 2.412s-.18 1.746-.54 2.43c-.36.672-.864 1.194-1.512 1.566s-1.404.558-2.268.558zm0-1.404c.744 0 1.344-.27 1.8-.81s.684-1.32.684-2.34-.228-1.794-.684-2.322c-.456-.54-1.056-.81-1.8-.81-.756 0-1.362.27-1.818.81-.456.528-.684 1.302-.684 2.322s.228 1.8.684 2.34 1.062.81 1.818.81zm7.262 1.368c-.6 0-.9-.306-.9-.918v-7.2c0-.612.294-.918.882-.918s.882.306.882.918v.666c.3-.528.708-.93 1.224-1.206.528-.276 1.116-.414 1.764-.414 2.076 0 3.114 1.176 3.114 3.528v4.626c0 .612-.3.918-.9.918-.612 0-.918-.306-.918-.918v-4.518c0-.756-.15-1.308-.45-1.656-.288-.348-.744-.522-1.368-.522-.732 0-1.32.234-1.764.702-.432.456-.648 1.062-.648 1.818v4.176c0 .612-.306.918-.918.918zm12.819.036c-.768 0-1.446-.18-2.034-.54-.576-.372-1.026-.9-1.35-1.584s-.486-1.494-.486-2.43.162-1.74.486-2.412c.324-.684.774-1.212 1.35-1.584s1.254-.558 2.034-.558c.66 0 1.248.144 1.764.432s.9.678 1.152 1.17v-4.554c0-.612.3-.918.9-.918.612 0 .918.306.918.918v11.106c0 .612-.3.918-.9.918s-.9-.306-.9-.918v-.684c-.264.504-.654.906-1.17 1.206-.516.288-1.104.432-1.764.432zm.468-1.404c.744 0 1.344-.27 1.8-.81s.684-1.32.684-2.34-.228-1.794-.684-2.322c-.456-.54-1.056-.81-1.8-.81-.756 0-1.362.27-1.818.81-.456.528-.684 1.302-.684 2.322s.228 1.8.684 2.34 1.062.81 1.818.81zm7.719-9.504c-.36 0-.642-.09-.846-.27-.192-.18-.288-.432-.288-.756 0-.684.378-1.026 1.134-1.026s1.134.342 1.134 1.026-.378 1.026-1.134 1.026zm0 10.854c-.6 0-.9-.33-.9-.99v-7.02c0-.648.3-.972.9-.972.612 0 .918.324.918.972v7.02c0 .66-.306.99-.918.99zm7.221.054c-1.104 0-1.926-.282-2.466-.846s-.81-1.38-.81-2.448v-4.248h-1.08c-.504 0-.756-.234-.756-.702s.252-.702.756-.702h1.08v-1.854c0-.612.306-.918.918-.918.6 0 .9.306.9.918v1.854h2.106c.504 0 .756.234.756.702s-.252.702-.756.702h-2.106v4.104c0 .636.132 1.116.396 1.44.276.324.72.486 1.332.486.216 0 .402-.018.558-.054.156-.048.294-.078.414-.09.132 0 .24.048.324.144.084.084.126.252.126.504 0 .192-.036.366-.108.522-.06.144-.174.24-.342.288-.144.06-.342.108-.594.144-.24.036-.456.054-.648.054zm3.888-10.908c-.36 0-.642-.09-.846-.27-.192-.18-.288-.432-.288-.756 0-.684.378-1.026 1.134-1.026s1.134.342 1.134 1.026-.378 1.026-1.134 1.026zm0 10.854c-.6 0-.9-.33-.9-.99v-7.02c0-.648.3-.972.9-.972.612 0 .918.324.918.972v7.02c0 .66-.306.99-.918.99zm7.293.054c-.888 0-1.656-.186-2.304-.558s-1.152-.894-1.512-1.566c-.348-.684-.522-1.494-.522-2.43s.174-1.74.522-2.412c.36-.684.864-1.212 1.512-1.584s1.416-.558 2.304-.558c.864 0 1.62.186 2.268.558s1.152.9 1.512 1.584c.36.672.54 1.476.54 2.412s-.18 1.746-.54 2.43c-.36.672-.864 1.194-1.512 1.566s-1.404.558-2.268.558zm0-1.404c.744 0 1.344-.27 1.8-.81s.684-1.32.684-2.34-.228-1.794-.684-2.322c-.456-.54-1.056-.81-1.8-.81-.756 0-1.362.27-1.818.81-.456.528-.684 1.302-.684 2.322s.228 1.8.684 2.34 1.062.81 1.818.81zm7.262 1.368c-.6 0-.9-.306-.9-.918v-7.2c0-.612.294-.918.882-.918s.882.306.882.918v.666c.3-.528.708-.93 1.224-1.206.528-.276 1.116-.414 1.764-.414 2.076 0 3.114 1.176 3.114 3.528v4.626c0 .612-.3.918-.9.918-.612 0-.918-.306-.918-.918v-4.518c0-.756-.15-1.308-.45-1.656-.288-.348-.744-.522-1.368-.522-.732 0-1.32.234-1.764.702-.432.456-.648 1.062-.648 1.818v4.176c0 .612-.306.918-.918.918zm10.551 1.692c-.18.216-.372.312-.576.288-.192-.024-.324-.126-.396-.306-.072-.168-.012-.378.18-.63.144-.18.252-.366.324-.558.084-.18.144-.36.18-.54-.324-.024-.588-.138-.792-.342-.192-.216-.288-.486-.288-.81 0-.336.102-.606.306-.81.204-.216.48-.324.828-.324.36 0 .642.126.846.378.216.24.324.588.324 1.044 0 .396-.066.816-.198 1.26-.12.444-.366.894-.738 1.35zm10.746-1.656c-.612 0-1.158-.12-1.638-.36s-.864-.564-1.152-.972c-.276-.408-.414-.87-.414-1.386 0-.648.162-1.158.486-1.53.336-.372.882-.642 1.638-.81.768-.168 1.8-.252 3.096-.252h.612v-.468c0-.684-.144-1.176-.432-1.476s-.762-.45-1.422-.45c-.384 0-.786.048-1.206.144-.408.096-.834.258-1.278.486-.252.12-.462.138-.63.054-.156-.084-.264-.216-.324-.396s-.054-.366.018-.558.222-.336.45-.432c.528-.24 1.05-.414 1.566-.522.516-.12 1.002-.18 1.458-.18 1.2 0 2.088.288 2.664.864.576.564.864 1.452.864 2.664v4.626c0 .612-.282.918-.846.918-.576 0-.864-.306-.864-.918v-.666c-.216.504-.552.9-1.008 1.188s-1.002.432-1.638.432zm.36-1.296c.648 0 1.188-.228 1.62-.684s.648-1.032.648-1.728v-.486h-.594c-.876 0-1.566.042-2.07.126-.492.084-.846.228-1.062.432-.204.192-.306.462-.306.81 0 .456.156.828.468 1.116.312.276.744.414 1.296.414zm7.4 1.26c-.6 0-.9-.306-.9-.918v-7.2c0-.612.294-.918.882-.918s.882.306.882.918v.666c.3-.528.708-.93 1.224-1.206.528-.276 1.116-.414 1.764-.414 2.076 0 3.114 1.176 3.114 3.528v4.626c0 .612-.3.918-.9.918-.612 0-.918-.306-.918-.918v-4.518c0-.756-.15-1.308-.45-1.656-.288-.348-.744-.522-1.368-.522-.732 0-1.32.234-1.764.702-.432.456-.648 1.062-.648 1.818v4.176c0 .612-.306.918-.918.918zm12.819.036c-.768 0-1.446-.18-2.034-.54-.576-.372-1.026-.9-1.35-1.584s-.486-1.494-.486-2.43.162-1.74.486-2.412c.324-.684.774-1.212 1.35-1.584s1.254-.558 2.034-.558c.66 0 1.248.144 1.764.432s.9.678 1.152 1.17v-4.554c0-.612.3-.918.9-.918.612 0 .918.306.918.918v11.106c0 .612-.3.918-.9.918s-.9-.306-.9-.918v-.684c-.264.504-.654.906-1.17 1.206-.516.288-1.104.432-1.764.432zm.468-1.404c.744 0 1.344-.27 1.8-.81s.684-1.32.684-2.34-.228-1.794-.684-2.322c-.456-.54-1.056-.81-1.8-.81-.756 0-1.362.27-1.818.81-.456.528-.684 1.302-.684 2.322s.228 1.8.684 2.34 1.062.81 1.818.81zm12.699 1.368c-.624 0-.936-.318-.936-.954v-10.908c0-.636.318-.954.954-.954h4.302c1.368 0 2.424.342 3.168 1.026.744.672 1.116 1.62 1.116 2.844 0 1.236-.372 2.196-1.116 2.88-.744.672-1.8 1.008-3.168 1.008h-3.384v4.104c0 .636-.312.954-.936.954zm.936-6.552h3.114c1.824 0 2.736-.798 2.736-2.394 0-1.584-.912-2.376-2.736-2.376h-3.114zm10.221 6.552c-.612 0-.918-.306-.918-.918v-7.2c0-.612.294-.918.882-.918s.882.306.882.918v.774c.24-.54.6-.954 1.08-1.242.492-.288 1.086-.456 1.782-.504.444-.036.684.204.72.72.048.528-.21.816-.774.864l-.342.036c-1.596.156-2.394.978-2.394 2.466v4.086c0 .612-.306.918-.918.918zm6.696-10.872c-.36 0-.642-.09-.846-.27-.192-.18-.288-.432-.288-.756 0-.684.378-1.026 1.134-1.026s1.134.342 1.134 1.026-.378 1.026-1.134 1.026zm0 10.854c-.6 0-.9-.33-.9-.99v-7.02c0-.648.3-.972.9-.972.612 0 .918.324.918.972v7.02c0 .66-.306.99-.918.99zm6.879.018c-.504 0-.876-.27-1.116-.81l-3.006-6.984c-.144-.324-.15-.612-.018-.864s.402-.378.81-.378c.216 0 .39.054.522.162.144.108.27.294.378.558l2.466 6.084 2.52-6.084c.108-.264.228-.45.36-.558.144-.108.342-.162.594-.162.324 0 .546.126.666.378s.114.534-.018.846l-3.042 7.002c-.228.54-.6.81-1.116.81zm8.582.036c-.612 0-1.158-.12-1.638-.36s-.864-.564-1.152-.972c-.276-.408-.414-.87-.414-1.386 0-.648.162-1.158.486-1.53.336-.372.882-.642 1.638-.81.768-.168 1.8-.252 3.096-.252h.612v-.468c0-.684-.144-1.176-.432-1.476s-.762-.45-1.422-.45c-.384 0-.786.048-1.206.144-.408.096-.834.258-1.278.486-.252.12-.462.138-.63.054-.156-.084-.264-.216-.324-.396s-.054-.366.018-.558.222-.336.45-.432c.528-.24 1.05-.414 1.566-.522.516-.12 1.002-.18 1.458-.18 1.2 0 2.088.288 2.664.864.576.564.864 1.452.864 2.664v4.626c0 .612-.282.918-.846.918-.576 0-.864-.306-.864-.918v-.666c-.216.504-.552.9-1.008 1.188s-1.002.432-1.638.432zm.36-1.296c.648 0 1.188-.228 1.62-.684s.648-1.032.648-1.728v-.486h-.594c-.876 0-1.566.042-2.07.126-.492.084-.846.228-1.062.432-.204.192-.306.462-.306.81 0 .456.156.828.468 1.116.312.276.744.414 1.296.414zm10.37 1.296c-.9 0-1.68-.186-2.34-.558-.648-.384-1.152-.918-1.512-1.602-.36-.696-.54-1.512-.54-2.448 0-1.392.396-2.49 1.188-3.294s1.86-1.206 3.204-1.206c.42 0 .858.066 1.314.198.468.12.9.324 1.296.612.192.12.3.276.324.468.036.18.006.354-.09.522-.084.156-.21.264-.378.324-.168.048-.36.012-.576-.108-.288-.204-.582-.348-.882-.432-.3-.096-.588-.144-.864-.144-.852 0-1.512.27-1.98.81-.456.528-.684 1.284-.684 2.268s.228 1.758.684 2.322c.468.552 1.128.828 1.98.828.276 0 .558-.042.846-.126.3-.084.6-.228.9-.432.216-.12.402-.15.558-.09.168.06.288.174.36.342.084.156.108.33.072.522-.024.18-.132.33-.324.45-.384.276-.804.474-1.26.594-.444.12-.876.18-1.296.18zm6.708 3.204c-.336 0-.57-.126-.702-.378-.12-.24-.108-.522.036-.846l1.062-2.376-3.204-7.434c-.144-.324-.15-.612-.018-.864.144-.252.42-.378.828-.378.216 0 .39.054.522.162.144.108.27.294.378.558l2.466 6.084 2.502-6.084c.108-.276.234-.462.378-.558.144-.108.342-.162.594-.162.324 0 .546.126.666.378s.114.534-.018.846l-4.5 10.35c-.12.276-.258.462-.414.558-.144.096-.336.144-.576.144zm13.162-3.24c-.624 0-.936-.318-.936-.954v-10.908c0-.636.318-.954.954-.954h4.302c1.368 0 2.424.342 3.168 1.026.744.672 1.116 1.62 1.116 2.844 0 1.236-.372 2.196-1.116 2.88-.744.672-1.8 1.008-3.168 1.008h-3.384v4.104c0 .636-.312.954-.936.954zm.936-6.552h3.114c1.824 0 2.736-.798 2.736-2.394 0-1.584-.912-2.376-2.736-2.376h-3.114zm12.855 6.588c-.888 0-1.656-.186-2.304-.558s-1.152-.894-1.512-1.566c-.348-.684-.522-1.494-.522-2.43s.174-1.74.522-2.412c.36-.684.864-1.212 1.512-1.584s1.416-.558 2.304-.558c.864 0 1.62.186 2.268.558s1.152.9 1.512 1.584c.36.672.54 1.476.54 2.412s-.18 1.746-.54 2.43c-.36.672-.864 1.194-1.512 1.566s-1.404.558-2.268.558zm0-1.404c.744 0 1.344-.27 1.8-.81s.684-1.32.684-2.34-.228-1.794-.684-2.322c-.456-.54-1.056-.81-1.8-.81-.756 0-1.362.27-1.818.81-.456.528-.684 1.302-.684 2.322s.228 1.8.684 2.34 1.062.81 1.818.81zm9.188 1.404c-.936 0-1.644-.27-2.124-.81-.468-.54-.702-1.332-.702-2.376v-8.874c0-.612.3-.918.9-.918.612 0 .918.306.918.918v8.766c0 1.188.48 1.782 1.44 1.782.108 0 .204-.006.288-.018s.168-.018.252-.018c.144-.012.246.03.306.126.06.084.09.264.09.54 0 .492-.228.774-.684.846-.12.012-.24.018-.36.018-.108.012-.216.018-.324.018zm3.576-10.908c-.36 0-.642-.09-.846-.27-.192-.18-.288-.432-.288-.756 0-.684.378-1.026 1.134-1.026s1.134.342 1.134 1.026-.378 1.026-1.134 1.026zm0 10.854c-.6 0-.9-.33-.9-.99v-7.02c0-.648.3-.972.9-.972.612 0 .918.324.918.972v7.02c0 .66-.306.99-.918.99zm7.347.054c-.9 0-1.68-.186-2.34-.558-.648-.384-1.152-.918-1.512-1.602-.36-.696-.54-1.512-.54-2.448 0-1.392.396-2.49 1.188-3.294s1.86-1.206 3.204-1.206c.42 0 .858.066 1.314.198.468.12.9.324 1.296.612.192.12.3.276.324.468.036.18.006.354-.09.522-.084.156-.21.264-.378.324-.168.048-.36.012-.576-.108-.288-.204-.582-.348-.882-.432-.3-.096-.588-.144-.864-.144-.852 0-1.512.27-1.98.81-.456.528-.684 1.284-.684 2.268s.228 1.758.684 2.322c.468.552 1.128.828 1.98.828.276 0 .558-.042.846-.126.3-.084.6-.228.9-.432.216-.12.402-.15.558-.09.168.06.288.174.36.342.084.156.108.33.072.522-.024.18-.132.33-.324.45-.384.276-.804.474-1.26.594-.444.12-.876.18-1.296.18zm6.707 3.204c-.336 0-.57-.126-.702-.378-.12-.24-.108-.522.036-.846l1.062-2.376-3.204-7.434c-.144-.324-.15-.612-.018-.864.144-.252.42-.378.828-.378.216 0 .39.054.522.162.144.108.27.294.378.558l2.466 6.084 2.502-6.084c.108-.276.234-.462.378-.558.144-.108.342-.162.594-.162.324 0 .546.126.666.378s.114.534-.018.846l-4.5 10.35c-.12.276-.258.462-.414.558-.144.096-.336.144-.576.144z" fill="#3498db" fill-opacity=".6"/></svg>