<svg width="301" height="60" viewBox="0 0 301 60" fill="none" xmlns="http://www.w3.org/2000/svg">
<path d="M21.7662 1.20416C37.7845 -3.42461 54.5562 5.69884 59.2216 21.5802C63.8902 37.4617 54.6914 54.0901 38.6732 58.7156C22.6516 63.3444 5.88315 54.2241 1.21454 38.3427C-3.45414 22.4581 5.74795 5.83288 21.7662 1.20416Z" fill="#0688F2"/>
<path d="M21.9787 1.9256C37.5945 -2.58507 53.9444 6.30856 58.4971 21.7909C63.0466 37.2733 54.0764 53.4836 38.4606 57.9974C22.8416 62.5081 6.49489 53.6145 1.94216 38.1321C-2.60734 22.6465 6.36289 6.43942 21.9787 1.9256Z" fill="white"/>
<path d="M57.8854 35.9672C55.7373 45.6694 48.4461 53.9367 38.1432 56.9149C35.8491 57.5782 33.534 57.941 31.244 58.0245C18.5802 58.4875 6.73831 50.4287 3.03003 37.815C-1.34551 22.9322 7.28047 7.34444 22.2968 3.0064C37.313 -1.33165 53.0302 7.2193 57.4058 22.1063C58.778 26.7822 58.874 31.5248 57.8854 35.9672Z" fill="#0688F2"/>
<path d="M29.8048 35.7919L9.09479 26.8739L16.1274 31.8918V41.7108L31.2439 58.0244C33.5339 57.9409 35.8489 57.5781 38.1431 56.9148C48.4459 53.9366 55.7372 45.6693 57.8853 35.9671L50.9902 26.415L29.8048 35.7919Z" fill="url(#paint0_linear_904_22537)"/>
<path d="M51.5294 4.49871C54.4014 4.67107 56.5876 7.11954 56.4137 9.96704C56.2399 12.8145 53.7703 14.982 50.8983 14.8097C48.0263 14.6373 45.8369 12.1888 46.014 9.34134C46.1878 6.49389 48.6573 4.32316 51.5294 4.49871Z" fill="#0688F2"/>
<path d="M9.53748 25.6693L30.189 16.7183L50.4412 25.2065L29.9024 34.2181L18.3435 29.417C22.2093 27.8656 25.6527 26.5624 29.5065 25.0181C29.7005 24.9404 29.8658 24.7984 29.958 24.6109C30.3756 23.7613 29.1437 22.6203 27.7098 23.2879L15.8385 28.3859L9.53748 25.6693Z" fill="white"/>
<path d="M28.2634 23.6998L16.6273 28.5903L16.5951 31.674L16.1282 32.0444V41.8636L16.4632 41.8681L16.476 33.0819L16.7142 33.0756L16.7013 41.8715L17.0227 41.8756L16.9847 34.7386L17.223 34.7354L17.2579 41.8789L17.5154 41.8823L17.4773 34.7386L17.7156 34.7354L17.7505 41.8856L18.0375 41.8893L17.9667 32.0155L17.6479 31.6452L17.6769 29.0308C21.3056 27.6008 25.2465 26.0685 28.8784 24.6383C29.4966 24.3158 29.0781 23.4285 28.2634 23.6998Z" fill="white"/>
<path d="M20.137 32.2965L20.1177 38.5725C22.2266 44.4941 37.1534 44.8037 39.6841 38.5789L39.4974 32.105L29.8027 36.4369L20.137 32.2965Z" fill="white"/>
<path d="M9.57279 26.4358C11.7268 27.3456 13.8808 28.2522 16.0316 29.162C16.389 29.3982 16.1733 29.9664 15.6967 29.8196C13.5524 28.9928 11.3533 27.9521 9.24116 27.0296C8.90956 26.8061 9.19932 26.3113 9.57279 26.4358Z" fill="white"/>
<path d="M18.5752 30.1739L29.7445 34.8793L29.8637 34.9271L30.7008 34.5633C37.2498 31.7062 43.802 28.8491 50.351 25.992C50.9563 25.6569 51.3877 26.2634 50.6762 26.5826L30.4851 35.4762L29.8057 35.7124L29.1972 35.4762L18.2855 30.8538C17.8057 30.541 18.1921 30.0175 18.5752 30.1739Z" fill="white"/>
<path d="M51.4876 5.18809C53.9733 5.33812 55.8698 7.45778 55.7184 9.92539C55.567 12.393 53.4291 14.27 50.9403 14.12C48.4514 13.97 46.5582 11.8503 46.7095 9.38271C46.8608 6.9151 48.9987 5.03806 51.4876 5.18809Z" fill="#FEFEFE"/>
<path d="M83.7144 37.3862C83.7144 36.509 83.401 35.8254 82.7744 35.3354C82.1592 34.8455 81.0711 34.3385 79.5103 33.8145C77.9494 33.2904 76.6733 32.7834 75.6821 32.2935C72.4578 30.7098 70.8457 28.5337 70.8457 25.7651C70.8457 24.3866 71.2445 23.1732 72.042 22.125C72.8509 21.0654 73.9902 20.2451 75.46 19.6641C76.9297 19.0716 78.5817 18.7754 80.416 18.7754C82.2048 18.7754 83.8055 19.0944 85.2183 19.7324C86.6424 20.3704 87.7476 21.2819 88.5337 22.4668C89.3198 23.6403 89.7129 24.9847 89.7129 26.5H83.7314C83.7314 25.486 83.4181 24.6999 82.7915 24.1416C82.1763 23.5833 81.3389 23.3042 80.2793 23.3042C79.2083 23.3042 78.3595 23.5435 77.7329 24.022C77.1177 24.4891 76.8101 25.0872 76.8101 25.8164C76.8101 26.4544 77.1519 27.0355 77.8354 27.5596C78.519 28.0723 79.721 28.6077 81.4414 29.166C83.1618 29.7129 84.5745 30.3053 85.6797 30.9434C88.3685 32.4928 89.7129 34.6291 89.7129 37.3521C89.7129 39.5282 88.8926 41.2371 87.252 42.479C85.6113 43.7209 83.3612 44.3418 80.5015 44.3418C78.4849 44.3418 76.6562 43.9829 75.0156 43.2651C73.3864 42.536 72.1559 41.5448 71.3242 40.2915C70.5039 39.0269 70.0938 37.5742 70.0938 35.9336H76.1094C76.1094 37.2666 76.4512 38.2521 77.1348 38.8901C77.8298 39.5168 78.952 39.8301 80.5015 39.8301C81.4927 39.8301 82.2731 39.6193 82.8428 39.1978C83.4238 38.7648 83.7144 38.161 83.7144 37.3862ZM112.921 35.5747C112.841 37.3065 112.374 38.8389 111.52 40.1719C110.665 41.4935 109.463 42.5189 107.914 43.248C106.375 43.9772 104.615 44.3418 102.633 44.3418C99.363 44.3418 96.7881 43.2765 94.9082 41.146C93.0283 39.0155 92.0884 36.0076 92.0884 32.1226V30.8921C92.0884 28.4539 92.5099 26.3234 93.353 24.5005C94.2075 22.6662 95.4323 21.2534 97.0273 20.2622C98.6224 19.2596 100.468 18.7583 102.564 18.7583C105.584 18.7583 108.01 19.5558 109.845 21.1509C111.679 22.7345 112.722 24.922 112.972 27.7134H106.991C106.945 26.1981 106.563 25.11 105.846 24.4492C105.128 23.7884 104.034 23.458 102.564 23.458C101.072 23.458 99.9782 24.0163 99.2832 25.1328C98.5882 26.2493 98.2236 28.0324 98.1895 30.4819V32.2422C98.1895 34.8968 98.5199 36.7938 99.1807 37.9331C99.8529 39.0724 101.004 39.6421 102.633 39.6421C104.011 39.6421 105.065 39.3174 105.794 38.668C106.524 38.0186 106.911 36.9875 106.957 35.5747H112.921ZM136.556 44H130.592V33.6094H121.756V44H115.758V19.1172H121.756V28.9951H130.592V19.1172H136.556V44ZM161.439 32.0713C161.439 34.498 160.989 36.6457 160.089 38.5142C159.189 40.3826 157.907 41.8239 156.244 42.8379C154.592 43.8405 152.706 44.3418 150.587 44.3418C148.468 44.3418 146.588 43.8576 144.947 42.8892C143.307 41.9093 142.025 40.5137 141.102 38.7021C140.191 36.8906 139.712 34.8114 139.667 32.4644V31.063C139.667 28.6248 140.111 26.4772 141 24.6201C141.9 22.7516 143.181 21.3104 144.845 20.2964C146.52 19.2824 148.422 18.7754 150.553 18.7754C152.66 18.7754 154.54 19.2767 156.192 20.2793C157.844 21.2819 159.126 22.7118 160.038 24.5688C160.96 26.4146 161.428 28.5337 161.439 30.9263V32.0713ZM155.338 31.0288C155.338 28.5565 154.922 26.6823 154.09 25.4062C153.27 24.1188 152.091 23.4751 150.553 23.4751C147.545 23.4751 145.956 25.731 145.785 30.2427L145.768 32.0713C145.768 34.5094 146.172 36.3836 146.981 37.6938C147.79 39.0041 148.992 39.6592 150.587 39.6592C152.102 39.6592 153.27 39.0155 154.09 37.728C154.911 36.4406 155.326 34.5892 155.338 32.1738V31.0288ZM185.604 32.0713C185.604 34.498 185.154 36.6457 184.254 38.5142C183.354 40.3826 182.072 41.8239 180.409 42.8379C178.757 43.8405 176.871 44.3418 174.752 44.3418C172.633 44.3418 170.753 43.8576 169.112 42.8892C167.472 41.9093 166.19 40.5137 165.267 38.7021C164.356 36.8906 163.877 34.8114 163.832 32.4644V31.063C163.832 28.6248 164.276 26.4772 165.165 24.6201C166.065 22.7516 167.346 21.3104 169.01 20.2964C170.685 19.2824 172.587 18.7754 174.718 18.7754C176.826 18.7754 178.705 19.2767 180.357 20.2793C182.009 21.2819 183.291 22.7118 184.203 24.5688C185.125 26.4146 185.593 28.5337 185.604 30.9263V32.0713ZM179.503 31.0288C179.503 28.5565 179.087 26.6823 178.255 25.4062C177.435 24.1188 176.256 23.4751 174.718 23.4751C171.71 23.4751 170.121 25.731 169.95 30.2427L169.933 32.0713C169.933 34.5094 170.337 36.3836 171.146 37.6938C171.955 39.0041 173.157 39.6592 174.752 39.6592C176.267 39.6592 177.435 39.0155 178.255 37.728C179.076 36.4406 179.492 34.5892 179.503 32.1738V31.0288ZM194.696 39.3857H205.138V44H188.697V19.1172H194.696V39.3857Z" fill="#54A9FF"/>
<path d="M227.201 23.7485H219.732V44H213.734V23.7485H206.402V19.1172H227.201V23.7485ZM241.83 39.3516H233.609L232.174 44H225.765L234.891 19.1172H240.531L249.725 44H243.282L241.83 39.3516ZM235.045 34.7202H240.394L237.711 26.0898L235.045 34.7202ZM257.552 39.3857H267.994V44H251.554V19.1172H257.552V39.3857ZM278.983 34.7373L276.522 37.4375V44H270.523V19.1172H276.522V30.0889L278.607 26.9272L283.973 19.1172H291.39L282.982 30.123L291.39 44H284.281L278.983 34.7373Z" fill="#BDBDBD"/>
<defs>
<linearGradient id="paint0_linear_904_22537" x1="17.433" y1="18.5357" x2="49.481" y2="50.5836" gradientUnits="userSpaceOnUse">
<stop stop-color="#0068FF"/>
<stop offset="1" stop-color="#0072D8" stop-opacity="0"/>
</linearGradient>
</defs>
</svg>
