<svg width="33" height="32" viewBox="0 0 33 32" fill="none" xmlns="http://www.w3.org/2000/svg">
<path d="M11.8557 23.6665H20.589C20.8779 23.6665 21.1168 23.5721 21.3057 23.3832C21.4946 23.1943 21.589 22.9554 21.589 22.6665C21.589 22.3776 21.4946 22.1387 21.3057 21.9498C21.1168 21.7609 20.8779 21.6665 20.589 21.6665H11.8557C11.5668 21.6665 11.3279 21.7609 11.139 21.9498C10.9501 22.1387 10.8557 22.3776 10.8557 22.6665C10.8557 22.9554 10.9501 23.1943 11.139 23.3832C11.3279 23.5721 11.5668 23.6665 11.8557 23.6665ZM11.8557 17.9998H20.589C20.8779 17.9998 21.1168 17.9054 21.3057 17.7165C21.4946 17.5276 21.589 17.2887 21.589 16.9998C21.589 16.7109 21.4946 16.4721 21.3057 16.2832C21.1168 16.0943 20.8779 15.9998 20.589 15.9998H11.8557C11.5668 15.9998 11.3279 16.0943 11.139 16.2832C10.9501 16.4721 10.8557 16.7109 10.8557 16.9998C10.8557 17.2887 10.9501 17.5276 11.139 17.7165C11.3279 17.9054 11.5668 17.9998 11.8557 17.9998ZM7.55566 29.3332C7.02233 29.3332 6.55566 29.1332 6.15566 28.7332C5.75566 28.3332 5.55566 27.8665 5.55566 27.3332V4.6665C5.55566 4.13317 5.75566 3.6665 6.15566 3.2665C6.55566 2.8665 7.02233 2.6665 7.55566 2.6665H18.7557C19.0223 2.6665 19.2834 2.72206 19.539 2.83317C19.7946 2.94428 20.0112 3.08873 20.189 3.2665L26.289 9.3665C26.4668 9.54428 26.6112 9.76095 26.7223 10.0165C26.8334 10.2721 26.889 10.5332 26.889 10.7998V27.3332C26.889 27.8665 26.689 28.3332 26.289 28.7332C25.889 29.1332 25.4223 29.3332 24.889 29.3332H7.55566ZM18.589 9.8665V4.6665H7.55566V27.3332H24.889V10.8665H19.589C19.3001 10.8665 19.0612 10.7721 18.8723 10.5832C18.6834 10.3943 18.589 10.1554 18.589 9.8665ZM7.55566 4.6665V10.8665V4.6665V27.3332V4.6665Z" fill="#B05056"/>
</svg>
