<svg width="24" height="23" viewBox="0 0 24 23" fill="none" xmlns="http://www.w3.org/2000/svg">
<path d="M1.82048 21.7895C1.33502 21.7895 0.91024 21.6079 0.546144 21.2447C0.182048 20.8816 0 20.4579 0 19.9737V1.81579C0 1.33158 0.182048 0.907895 0.546144 0.544737C0.91024 0.181579 1.33502 0 1.82048 0H20.0253C20.5107 0 20.9355 0.181579 21.2996 0.544737C21.6637 0.907895 21.8458 1.33158 21.8458 1.81579V10.1079C21.5626 9.94649 21.2693 9.8204 20.9659 9.72961C20.6625 9.63882 20.3489 9.55307 20.0253 9.47237V1.81579H1.82048V18.8539C3.01391 17.7443 4.3641 16.8414 5.87105 16.1454C7.378 15.4493 9.01138 15.0912 10.7712 15.0711C10.6903 15.3535 10.6296 15.6461 10.5891 15.9487C10.5487 16.2513 10.5284 16.564 10.5284 16.8868C9.25411 16.9272 8.02023 17.1844 6.8268 17.6586C5.63338 18.1327 4.52086 18.8136 3.48925 19.7013V19.9737H11.1049C11.2465 20.3167 11.3982 20.6344 11.5601 20.927C11.7219 21.2195 11.914 21.507 12.1365 21.7895H1.82048ZM10.9836 12.6803C11.1454 12.6803 11.3021 12.6752 11.4539 12.6651C11.6056 12.655 11.7623 12.6298 11.9241 12.5895C12.3085 12.0649 12.7484 11.5857 13.244 11.152C13.7396 10.7182 14.2807 10.3601 14.8673 10.0776C14.9684 9.83553 15.0442 9.58333 15.0948 9.32105C15.1454 9.05877 15.1707 8.7864 15.1707 8.50395C15.1707 7.33377 14.7661 6.34518 13.957 5.53816C13.1479 4.73114 12.1568 4.32763 10.9836 4.32763C9.81037 4.32763 8.81922 4.73114 8.01011 5.53816C7.20101 6.34518 6.79646 7.33377 6.79646 8.50395C6.79646 9.67412 7.20101 10.6627 8.01011 11.4697C8.81922 12.2768 9.81037 12.6803 10.9836 12.6803ZM10.9836 10.8645C10.3363 10.8645 9.78003 10.6325 9.31479 10.1684C8.84956 9.70439 8.61694 9.14956 8.61694 8.50395C8.61694 7.85833 8.84956 7.30351 9.31479 6.83947C9.78003 6.37544 10.3363 6.14342 10.9836 6.14342C11.6308 6.14342 12.1871 6.37544 12.6523 6.83947C13.1176 7.30351 13.3502 7.85833 13.3502 8.50395C13.3502 9.14956 13.1176 9.70439 12.6523 10.1684C12.1871 10.6325 11.6308 10.8645 10.9836 10.8645ZM17.3856 23L17.2339 21.5474C16.8293 21.4263 16.4147 21.2498 15.9899 21.0178C15.5651 20.7857 15.2212 20.5285 14.9583 20.2461L13.6839 20.8513L12.622 19.2171L13.775 18.3092C13.6738 17.8452 13.6233 17.4265 13.6233 17.0533C13.6233 16.68 13.6738 16.2614 13.775 15.7974L12.622 14.8895L13.6839 13.225L14.9583 13.8303C15.2212 13.5882 15.5651 13.3461 15.9899 13.1039C16.4147 12.8618 16.8293 12.6803 17.2339 12.5592L17.3856 11.0763H19.2061L19.3881 12.5592C19.7927 12.6803 20.2073 12.8618 20.6321 13.1039C21.0569 13.3461 21.4008 13.5882 21.6637 13.8303L22.9381 13.225L24 14.8895L22.847 15.7974C22.9482 16.2614 22.9987 16.68 22.9987 17.0533C22.9987 17.4265 22.9482 17.8452 22.847 18.3092L24 19.2171L22.9381 20.8513L21.6637 20.2461C21.4008 20.5285 21.0569 20.7857 20.6321 21.0178C20.2073 21.2498 19.7927 21.4263 19.3881 21.5474L19.2061 23H17.3856ZM18.2958 20.125C19.1858 20.125 19.9241 19.8325 20.5107 19.2474C21.0973 18.6623 21.3906 17.9259 21.3906 17.0382C21.3906 16.1504 21.0973 15.414 20.5107 14.8289C19.9241 14.2439 19.1858 13.9513 18.2958 13.9513C17.4058 13.9513 16.6675 14.2439 16.0809 14.8289C15.4943 15.414 15.201 16.1504 15.201 17.0382C15.201 17.9259 15.4943 18.6623 16.0809 19.2474C16.6675 19.8325 17.4058 20.125 18.2958 20.125Z" fill="#B05056"/>
</svg>
