<svg width="24" height="22" viewBox="0 0 24 22" fill="none" xmlns="http://www.w3.org/2000/svg">
<path d="M2.08325 21.5C1.59714 21.5 1.18395 21.3299 0.843669 20.9896C0.503391 20.6493 0.333252 20.2361 0.333252 19.75V2.25C0.333252 1.76389 0.503391 1.35069 0.843669 1.01042C1.18395 0.670139 1.59714 0.5 2.08325 0.5H9.95825C10.4444 0.5 10.8576 0.670139 11.1978 1.01042C11.5381 1.35069 11.7083 1.76389 11.7083 2.25V5.3125H21.9166C22.4027 5.3125 22.8159 5.48264 23.1562 5.82292C23.4964 6.16319 23.6666 6.57639 23.6666 7.0625V19.75C23.6666 20.2361 23.4964 20.6493 23.1562 20.9896C22.8159 21.3299 22.4027 21.5 21.9166 21.5H2.08325ZM2.08325 19.75H5.14575V16.6875H2.08325V19.75ZM2.08325 14.9375H5.14575V11.875H2.08325V14.9375ZM2.08325 10.125H5.14575V7.0625H2.08325V10.125ZM2.08325 5.3125H5.14575V2.25H2.08325V5.3125ZM6.89575 19.75H9.95825V16.6875H6.89575V19.75ZM6.89575 14.9375H9.95825V11.875H6.89575V14.9375ZM6.89575 10.125H9.95825V7.0625H6.89575V10.125ZM6.89575 5.3125H9.95825V2.25H6.89575V5.3125ZM11.7083 19.75H21.9166V7.0625H11.7083V10.125H14.0416V11.875H11.7083V14.9375H14.0416V16.6875H11.7083V19.75ZM17.1041 11.875V10.125H18.8541V11.875H17.1041ZM17.1041 16.6875V14.9375H18.8541V16.6875H17.1041Z" fill="#B05056"/>
</svg>
