<svg width="44" height="44" viewBox="0 0 44 44" fill="none" xmlns="http://www.w3.org/2000/svg">
<g filter="url(#filter0_d_1943_65518)">
<circle cx="22" cy="18" r="18" fill="#B05056"/>
</g>
<mask id="mask0_1943_65518" style="mask-type:alpha" maskUnits="userSpaceOnUse" x="4" y="0" width="36" height="36">
<circle cx="22" cy="18" r="18" fill="#B05056"/>
</mask>
<g mask="url(#mask0_1943_65518)">
<path d="M28.8661 15.2999C28.8643 15.0203 28.7658 14.7499 28.5871 14.5347C28.4085 14.3196 28.1608 14.1729 27.8863 14.1197V13.3329C27.8321 11.807 27.1879 10.3617 26.0892 9.30134C24.9906 8.24101 23.5233 7.64844 21.9964 7.64844C20.4695 7.64844 19.0022 8.24101 17.9036 9.30134C16.8049 10.3617 16.1607 11.807 16.1065 13.3329V14.1197C15.832 14.1729 15.5843 14.3196 15.4057 14.5347C15.227 14.7499 15.1285 15.0203 15.1267 15.2999C15.1308 15.6013 15.2458 15.8907 15.4499 16.1125C15.654 16.3344 15.9327 16.4732 16.2327 16.5024C16.511 17.8259 17.2361 19.0134 18.2863 19.8656C19.3364 20.7178 20.6477 21.183 22.0001 21.183C23.3525 21.183 24.6638 20.7178 25.714 19.8656C26.7641 19.0134 27.4892 17.8259 27.7675 16.5024C28.0668 16.4731 28.3447 16.334 28.5475 16.112C28.7504 15.8899 28.8639 15.6007 28.8661 15.2999Z" fill="#FFDA8F" stroke="#191816" stroke-linecap="round" stroke-linejoin="round"/>
<path d="M18.8086 16.7705C19.2144 16.7705 19.5434 16.4415 19.5434 16.0356C19.5434 15.6298 19.2144 15.3008 18.8086 15.3008C18.4027 15.3008 18.0737 15.6298 18.0737 16.0356C18.0737 16.4415 18.4027 16.7705 18.8086 16.7705Z" fill="#FFBE3D"/>
<path d="M25.1846 16.7705C25.5904 16.7705 25.9194 16.4415 25.9194 16.0356C25.9194 15.6298 25.5904 15.3008 25.1846 15.3008C24.7787 15.3008 24.4497 15.6298 24.4497 16.0356C24.4497 16.4415 24.7787 16.7705 25.1846 16.7705Z" fill="#FFBE3D"/>
<path d="M24.6499 14.3122C24.5727 14.2343 24.4807 14.1725 24.3794 14.1303C24.2782 14.0881 24.1695 14.0664 24.0598 14.0664C23.9501 14.0664 23.8415 14.0881 23.7402 14.1303C23.6389 14.1725 23.547 14.2343 23.4697 14.3122" stroke="#191816" stroke-linecap="round" stroke-linejoin="round"/>
<path d="M19.3428 14.3122C19.4201 14.2343 19.512 14.1725 19.6133 14.1303C19.7145 14.0881 19.8232 14.0664 19.9329 14.0664C20.0426 14.0664 20.1512 14.0881 20.2525 14.1303C20.3538 14.1725 20.4457 14.2343 20.523 14.3122" stroke="#191816" stroke-linecap="round" stroke-linejoin="round"/>
<path d="M23.4852 17.7852C23.0576 18.1079 22.5364 18.2825 22.0006 18.2825C21.4649 18.2825 20.9437 18.1079 20.5161 17.7852" stroke="#191816" stroke-linecap="round" stroke-linejoin="round"/>
<path d="M19.0312 4.5C15.1046 5.98454 15.075 9.33959 15.075 12.3532C15.075 15.7157 15.5129 13.7561 16.9009 14.4464C16.9654 14.4786 17.0361 14.4962 17.1081 14.4979C17.1802 14.4997 17.2517 14.4855 17.3176 14.4565C17.3835 14.4274 17.4422 14.3842 17.4895 14.3298C17.5368 14.2755 17.5716 14.2114 17.5912 14.1421L18.289 11.7148C18.3677 11.4267 18.5541 11.1797 18.8096 11.025C19.0652 10.8703 19.3703 10.8197 19.6622 10.8835C21.1799 11.2659 22.7688 11.2659 24.2865 10.8835C24.4347 10.8443 24.5891 10.8348 24.741 10.8554C24.8928 10.876 25.0391 10.9263 25.1715 11.0035C25.3039 11.0808 25.4198 11.1833 25.5124 11.3054C25.6051 11.4275 25.6728 11.5666 25.7117 11.7148L26.4094 14.1421C26.4302 14.2106 26.4656 14.2739 26.5131 14.3275C26.5606 14.3811 26.6191 14.4238 26.6847 14.4527C26.7502 14.4816 26.8212 14.496 26.8929 14.4949C26.9645 14.4938 27.0351 14.4773 27.0997 14.4464C28.4877 13.7561 28.9257 15.7157 28.9257 12.3532C28.896 3.98783 21.0502 7.66206 19.0312 4.5Z" fill="#614B44"/>
<path d="M18.3335 7.08309C18.5133 6.99261 18.7167 6.95974 18.9159 6.98896C19.1152 7.01818 19.3005 7.10807 19.4469 7.24639C21.7999 9.47319 28.2873 6.97175 28.8588 13.6373C28.8588 13.3404 28.8588 12.8951 28.8588 12.3532C28.8588 3.98783 21.013 7.65464 19.0163 4.5C15.0897 5.98454 15.0601 9.33959 15.0601 12.3532C15.0601 12.7095 15.0601 12.999 15.0601 13.2513C15.1862 10.839 15.639 8.41917 18.3335 7.08309Z" fill="#947063"/>
<path d="M19.0312 4.5C15.1046 5.98454 15.075 9.33959 15.075 12.3532C15.075 15.7157 15.5129 13.7561 16.9009 14.4464C16.9654 14.4786 17.0361 14.4962 17.1081 14.4979C17.1802 14.4997 17.2517 14.4855 17.3176 14.4565C17.3835 14.4274 17.4422 14.3842 17.4895 14.3298C17.5368 14.2755 17.5716 14.2114 17.5912 14.1421L18.289 11.7148C18.3677 11.4267 18.5541 11.1797 18.8096 11.025C19.0652 10.8703 19.3703 10.8197 19.6622 10.8835C21.1799 11.2659 22.7688 11.2659 24.2865 10.8835C24.4347 10.8443 24.5891 10.8348 24.741 10.8554C24.8928 10.876 25.0391 10.9263 25.1715 11.0035C25.3039 11.0808 25.4198 11.1833 25.5124 11.3054C25.6051 11.4275 25.6728 11.5666 25.7117 11.7148L26.4094 14.1421C26.4302 14.2106 26.4656 14.2739 26.5131 14.3275C26.5606 14.3811 26.6191 14.4238 26.6847 14.4527C26.7502 14.4816 26.8212 14.496 26.8929 14.4949C26.9645 14.4938 27.0351 14.4773 27.0997 14.4464C28.4877 13.7561 28.9257 15.7157 28.9257 12.3532C28.896 3.98783 21.0502 7.66206 19.0312 4.5Z" stroke="#191816" stroke-linecap="round" stroke-linejoin="round"/>
<path d="M22.0004 23.1523C16.9307 23.2488 12.1802 26.9676 12.1802 33.455H15.6169V40.7961H28.3765V33.455H31.8132C31.8132 26.9676 27.0626 23.2488 22.0004 23.1523Z" fill="#F0F0F0"/>
<path d="M30.0983 45.7267C29.8725 45.7277 29.6487 45.6841 29.4398 45.5983C29.231 45.5126 29.0411 45.3865 28.881 45.2271C28.721 45.0678 28.5941 44.8785 28.5074 44.67C28.4208 44.4615 28.3762 44.2379 28.3762 44.0121V33.457H31.8129V44.0121C31.8139 44.2375 31.7702 44.4609 31.6844 44.6694C31.5986 44.8779 31.4723 45.0673 31.3129 45.2267C31.1535 45.3861 30.9641 45.5124 30.7556 45.5982C30.5471 45.684 30.3237 45.7277 30.0983 45.7267Z" fill="#FFDA8F" stroke="#191816" stroke-linecap="round" stroke-linejoin="round"/>
<path d="M13.9022 45.7267C13.6764 45.7277 13.4527 45.6841 13.2438 45.5983C13.0349 45.5126 12.845 45.3865 12.685 45.2271C12.525 45.0678 12.398 44.8785 12.3114 44.67C12.2248 44.4615 12.1802 44.2379 12.1802 44.0121V33.457H15.6169V44.0121C15.6169 44.4668 15.4362 44.903 15.1147 45.2245C14.7931 45.5461 14.357 45.7267 13.9022 45.7267Z" fill="#FFDA8F" stroke="#191816" stroke-linecap="round" stroke-linejoin="round"/>
<path d="M22.0004 23.1523C16.9307 23.2488 12.1802 26.9676 12.1802 33.455H15.6169V40.7961H28.3765V33.455H31.8132C31.8132 26.9676 27.0626 23.2488 22.0004 23.1523Z" fill="#FFCEC3" stroke="#191816" stroke-linecap="round" stroke-linejoin="round"/>
<path d="M22.0004 26.0917C24.1706 26.0942 26.2782 26.8193 27.9906 28.1526C29.703 29.486 30.9226 31.3516 31.4569 33.455H31.8132C31.8132 26.9676 27.0626 23.2488 22.0004 23.1523C16.9307 23.2488 12.1802 26.9676 12.1802 33.455H12.5439C13.077 31.3509 14.2963 29.4846 16.0089 28.1511C17.7216 26.8175 19.8298 26.0929 22.0004 26.0917Z" fill="#FDA18F"/>
<path d="M22.0004 23.1523C16.9307 23.2488 12.1802 26.9676 12.1802 33.455H15.6169V40.7961H28.3765V33.455H31.8132C31.8132 26.9676 27.0626 23.2488 22.0004 23.1523Z" stroke="#191816" stroke-linecap="round" stroke-linejoin="round"/>
<path d="M28.3762 33.7516V30.2109" stroke="#191816" stroke-linecap="round" stroke-linejoin="round"/>
<path d="M15.6167 33.7516V30.2109" stroke="#191816" stroke-linecap="round" stroke-linejoin="round"/>
<path d="M19.0312 23.6274C19.1375 24.3299 19.4922 24.971 20.0308 25.4343C20.5695 25.8976 21.2564 26.1524 21.9669 26.1524C22.6774 26.1524 23.3643 25.8976 23.903 25.4343C24.4417 24.971 24.7963 24.3299 24.9026 23.6274C22.9967 22.994 20.9371 22.994 19.0312 23.6274Z" fill="#FFDA8F" stroke="#191816" stroke-linecap="round" stroke-linejoin="round"/>
</g>
<defs>
<filter id="filter0_d_1943_65518" x="0" y="0" width="44" height="44" filterUnits="userSpaceOnUse" color-interpolation-filters="sRGB">
<feFlood flood-opacity="0" result="BackgroundImageFix"/>
<feColorMatrix in="SourceAlpha" type="matrix" values="0 0 0 0 0 0 0 0 0 0 0 0 0 0 0 0 0 0 127 0" result="hardAlpha"/>
<feOffset dy="4"/>
<feGaussianBlur stdDeviation="2"/>
<feComposite in2="hardAlpha" operator="out"/>
<feColorMatrix type="matrix" values="0 0 0 0 0 0 0 0 0 0 0 0 0 0 0 0 0 0 0.15 0"/>
<feBlend mode="normal" in2="BackgroundImageFix" result="effect1_dropShadow_1943_65518"/>
<feBlend mode="normal" in="SourceGraphic" in2="effect1_dropShadow_1943_65518" result="shape"/>
</filter>
</defs>
</svg>
