<svg width="44" height="44" viewBox="0 0 44 44" fill="none" xmlns="http://www.w3.org/2000/svg">
<g filter="url(#filter0_d_1943_65581)">
<circle cx="22" cy="18" r="18" fill="#B05056"/>
</g>
<mask id="mask0_1943_65581" style="mask-type:alpha" maskUnits="userSpaceOnUse" x="4" y="0" width="36" height="36">
<circle cx="22" cy="18" r="18" fill="#B05056"/>
</mask>
<g mask="url(#mask0_1943_65581)">
<path d="M25.6661 18.7713L25.4334 12.5391H25.2949C25.1131 13.3975 24.6419 14.1674 23.9601 14.7199C23.2784 15.2723 22.4275 15.5738 21.55 15.5738C20.6726 15.5738 19.8217 15.2723 19.14 14.7199C18.4582 14.1674 17.987 13.3975 17.8051 12.5391H17.6667L17.434 18.7713C17.431 18.8568 17.4453 18.9421 17.476 19.0219C17.5066 19.1018 17.5531 19.1747 17.6126 19.2362C17.672 19.2977 17.7433 19.3466 17.822 19.38C17.9008 19.4134 17.9855 19.4306 18.0711 19.4306H25.029C25.1146 19.4306 25.1993 19.4134 25.2781 19.38C25.3568 19.3466 25.4281 19.2977 25.4875 19.2362C25.547 19.1747 25.5934 19.1018 25.6241 19.0219C25.6548 18.9421 25.6691 18.8568 25.6661 18.7713Z" fill="#614B44" stroke="#191816" stroke-width="0.5" stroke-linecap="round" stroke-linejoin="round"/>
<path d="M26.0099 11.7841C26.0081 11.6028 25.9437 11.4276 25.8276 11.2883C25.7115 11.149 25.5509 11.0541 25.3728 11.0196V10.51C25.3728 9.49618 24.9701 8.52392 24.2533 7.80707C23.5364 7.09022 22.5642 6.6875 21.5504 6.6875C20.5366 6.6875 19.5644 7.09022 18.8475 7.80707C18.1307 8.52392 17.7279 9.49618 17.7279 10.51V11.0196C17.5426 11.0547 17.3762 11.1558 17.2595 11.304C17.1429 11.4523 17.0838 11.6378 17.0933 11.8262C17.1027 12.0146 17.1801 12.1933 17.311 12.3291C17.4419 12.4649 17.6176 12.5488 17.8055 12.5652C17.9873 13.4237 18.4586 14.1936 19.1403 14.746C19.8221 15.2985 20.6729 15.5999 21.5504 15.5999C22.4279 15.5999 23.2787 15.2985 23.9605 14.746C24.6422 14.1936 25.1134 13.4237 25.2953 12.5652C25.4898 12.5461 25.6703 12.4558 25.8022 12.3116C25.9342 12.1674 26.0081 11.9795 26.0099 11.7841Z" fill="#FFCEBF" stroke="#191816" stroke-width="0.5" stroke-linecap="round" stroke-linejoin="round"/>
<path d="M20.1156 10.5117C20.0214 10.5117 19.9292 10.5397 19.8509 10.592C19.7725 10.6444 19.7115 10.7188 19.6754 10.8058C19.6394 10.8929 19.6299 10.9887 19.6483 11.0811C19.6667 11.1735 19.7121 11.2584 19.7787 11.325C19.8453 11.3916 19.9302 11.437 20.0226 11.4554C20.1151 11.4738 20.2108 11.4644 20.2979 11.4283C20.385 11.3922 20.4594 11.3312 20.5117 11.2528C20.5641 11.1745 20.592 11.0824 20.592 10.9881C20.592 10.8618 20.5418 10.7406 20.4525 10.6513C20.3631 10.5619 20.2419 10.5117 20.1156 10.5117Z" fill="#191816"/>
<path d="M22.9852 10.5118C22.891 10.5118 22.7989 10.5397 22.7205 10.592C22.6422 10.6444 22.5811 10.7188 22.5451 10.8059C22.509 10.8929 22.4996 10.9887 22.5179 11.0811C22.5363 11.1735 22.5817 11.2584 22.6483 11.3251C22.715 11.3917 22.7998 11.4371 22.8923 11.4554C22.9847 11.4738 23.0805 11.4644 23.1675 11.4283C23.2546 11.3923 23.329 11.3312 23.3813 11.2529C23.4337 11.1745 23.4616 11.0824 23.4616 10.9882C23.4624 10.9254 23.4506 10.8631 23.4269 10.805C23.4032 10.7468 23.3681 10.694 23.3237 10.6496C23.2794 10.6052 23.2265 10.5702 23.1684 10.5465C23.1103 10.5228 23.048 10.511 22.9852 10.5118Z" fill="#191816"/>
<path d="M19.9548 12.2616C19.9548 12.3558 19.9269 12.448 19.8745 12.5263C19.8222 12.6046 19.7477 12.6657 19.6607 12.7018C19.5736 12.7378 19.4778 12.7473 19.3854 12.7289C19.293 12.7105 19.2081 12.6651 19.1415 12.5985C19.0749 12.5319 19.0295 12.447 19.0111 12.3546C18.9927 12.2621 19.0022 12.1663 19.0382 12.0793C19.0743 11.9922 19.1353 11.9178 19.2137 11.8655C19.292 11.8131 19.3841 11.7852 19.4784 11.7852C19.5411 11.7844 19.6034 11.7963 19.6616 11.8199C19.7197 11.8436 19.7725 11.8787 19.8169 11.9231C19.8613 11.9675 19.8964 12.0203 19.92 12.0784C19.9437 12.1366 19.9555 12.1988 19.9548 12.2616Z" fill="#FFB59E"/>
<path d="M24.0988 12.2616C24.0988 12.3558 24.0709 12.4479 24.0185 12.5263C23.9662 12.6046 23.8918 12.6657 23.8047 12.7017C23.7177 12.7378 23.6219 12.7472 23.5295 12.7288C23.4371 12.7105 23.3522 12.6651 23.2855 12.5985C23.2189 12.5318 23.1735 12.4469 23.1552 12.3545C23.1368 12.2621 23.1462 12.1663 23.1823 12.0793C23.2183 11.9922 23.2794 11.9178 23.3577 11.8654C23.4361 11.8131 23.5282 11.7852 23.6224 11.7852C23.7488 11.7852 23.87 11.8354 23.9593 11.9247C24.0486 12.014 24.0988 12.1352 24.0988 12.2616Z" fill="#FFB59E"/>
<path d="M20.5916 13.4102C20.8762 13.5972 21.2093 13.6969 21.5499 13.6969C21.8905 13.6969 22.2237 13.5972 22.5083 13.4102" stroke="#191816" stroke-width="0.5" stroke-linecap="round" stroke-linejoin="round"/>
<path d="M23.4114 6.05135C23.292 6.05171 23.1754 6.08777 23.0767 6.1549C22.978 6.22203 22.9016 6.31716 22.8574 6.42806C23.0139 6.65565 23.104 6.92224 23.1178 7.19809C23.1426 7.67299 23.0332 8.14529 22.802 8.56088C22.802 9.02622 24.198 10.461 25.0179 11.0593C25.0627 11.093 25.1157 11.1142 25.1714 11.1207C25.2271 11.1271 25.2835 11.1186 25.3348 11.0961C25.3862 11.0735 25.4306 11.0377 25.4635 10.9923C25.4964 10.9469 25.5166 10.8935 25.522 10.8377L25.7436 8.58304C25.7775 8.25916 25.7421 7.93178 25.6396 7.62268C25.5372 7.31357 25.3701 7.02983 25.1494 6.79032C24.9288 6.55082 24.6597 6.36105 24.36 6.23363C24.0603 6.10622 23.7369 6.04408 23.4114 6.05135Z" fill="#614B44"/>
<path d="M23.4114 6.05084C23.292 6.05119 23.1755 6.08725 23.0767 6.15438C22.978 6.22151 22.9016 6.31665 22.8574 6.42754C23.0139 6.65513 23.104 6.92173 23.1178 7.19757C23.1233 7.26763 23.1233 7.33802 23.1178 7.40808C23.2156 7.35224 23.3265 7.32355 23.4391 7.32499C23.9563 7.32884 24.457 7.50785 24.8594 7.83281C25.2619 8.15777 25.5423 8.60951 25.655 9.11434L25.7104 8.56036C25.7406 8.24106 25.7035 7.91896 25.6015 7.61488C25.4995 7.3108 25.3349 7.0315 25.1183 6.79501C24.9016 6.55851 24.6377 6.37009 24.3437 6.24191C24.0497 6.11373 23.7321 6.04863 23.4114 6.05084Z" fill="#947063"/>
<path d="M23.4114 6.05135C23.292 6.05171 23.1754 6.08777 23.0767 6.1549C22.978 6.22203 22.9016 6.31716 22.8574 6.42806C23.0139 6.65565 23.104 6.92224 23.1178 7.19809C23.1426 7.67299 23.0332 8.14529 22.802 8.56088C22.802 9.02622 24.198 10.461 25.0179 11.0593C25.0627 11.093 25.1157 11.1142 25.1714 11.1207C25.2271 11.1271 25.2835 11.1186 25.3348 11.0961C25.3862 11.0735 25.4306 11.0377 25.4635 10.9923C25.4964 10.9469 25.5166 10.8935 25.522 10.8377L25.7436 8.58304C25.7775 8.25916 25.7421 7.93178 25.6396 7.62268C25.5372 7.31357 25.3701 7.02983 25.1494 6.79032C24.9288 6.55082 24.6597 6.36105 24.36 6.23363C24.0603 6.10622 23.7369 6.04408 23.4114 6.05135Z" stroke="#191816" stroke-width="0.5" stroke-linecap="round" stroke-linejoin="round"/>
<path d="M21.5502 5.7305C21.952 5.72801 22.3397 5.87824 22.6349 6.1508C22.9301 6.42335 23.1107 6.79786 23.1402 7.19854C23.2897 10.4836 17.5339 11.4808 16.8857 10.19C16.6032 9.63605 16.8414 8.7663 17.6115 8.86048C17.6388 8.8632 17.6664 8.85971 17.6922 8.85029C17.718 8.84087 17.7414 8.82574 17.7606 8.80605C17.7797 8.78635 17.7942 8.76259 17.8029 8.73652C17.8116 8.71046 17.8144 8.68277 17.8109 8.65551C17.6945 6.88832 19.423 5.7305 21.5502 5.7305Z" fill="#614B44"/>
<path d="M21.3892 6.61133C21.791 6.60884 22.1787 6.75907 22.4739 7.03162C22.769 7.30417 22.9496 7.67869 22.9791 8.07937C22.9819 8.12549 22.9819 8.17174 22.9791 8.21786C23.0999 7.89225 23.1527 7.54534 23.1343 7.19854C23.1048 6.79786 22.9241 6.42335 22.629 6.1508C22.3338 5.87824 21.9461 5.72801 21.5443 5.7305C19.4725 5.7305 17.7828 6.83846 17.7994 8.50039C18.2759 7.33704 19.7107 6.61133 21.3892 6.61133Z" fill="#947063"/>
<path d="M21.5502 5.7305C21.952 5.72801 22.3397 5.87824 22.6349 6.1508C22.9301 6.42335 23.1107 6.79786 23.1402 7.19854C23.2897 10.4836 17.5339 11.4808 16.8857 10.19C16.6032 9.63605 16.8414 8.7663 17.6115 8.86048C17.6388 8.8632 17.6664 8.85971 17.6922 8.85029C17.718 8.84087 17.7414 8.82574 17.7606 8.80605C17.7797 8.78635 17.7942 8.76259 17.8029 8.73652C17.8116 8.71046 17.8144 8.68277 17.8109 8.65551C17.6945 6.88832 19.423 5.7305 21.5502 5.7305Z" stroke="#191816" stroke-width="0.5" stroke-linecap="round" stroke-linejoin="round"/>
<path d="M18.0432 28.6641L19.3229 40.4527H23.7769L25.0566 28.6641H18.0432Z" fill="#FFCEBF"/>
<path d="M24.1591 36.946L25.0566 28.6641H18.0432L18.9407 36.946H24.1591Z" fill="#FFCEC3"/>
<path d="M24.8461 30.5753L25.0566 28.6641H18.0432L18.2537 30.5753H24.8461Z" fill="#FDA18F"/>
<path d="M21.55 31.2148V40.4552" stroke="#191816" stroke-width="0.5" stroke-linecap="round" stroke-linejoin="round"/>
<path d="M18.0432 28.6641L19.3229 40.4527H23.7769L25.0566 28.6641H18.0432Z" stroke="#191816" stroke-width="0.5" stroke-linecap="round" stroke-linejoin="round"/>
<path d="M27.2838 22.6165C27.2838 21.0958 26.6797 19.6374 25.6044 18.5622C24.5291 17.4869 23.0708 16.8828 21.5501 16.8828C20.0294 16.8828 18.571 17.4869 17.4958 18.5622C16.4205 19.6374 15.8164 21.0958 15.8164 22.6165V23.8906H18.0323V28.6826H25.0568V23.8906H27.2727L27.2838 22.6165Z" fill="#FFCEC3"/>
<path d="M21.5501 16.8828C20.0294 16.8828 18.571 17.4869 17.4958 18.5622C16.4205 19.6374 15.8164 21.0958 15.8164 22.6165V23.8906C15.8164 23.1377 15.9647 22.3921 16.2529 21.6965C16.541 21.0008 16.9633 20.3687 17.4958 19.8363C18.0282 19.3039 18.6603 18.8816 19.3559 18.5934C20.0515 18.3053 20.7971 18.157 21.5501 18.157C22.303 18.157 23.0486 18.3053 23.7443 18.5934C24.4399 18.8816 25.072 19.3039 25.6044 19.8363C26.1368 20.3687 26.5592 21.0008 26.8473 21.6965C27.1355 22.3921 27.2838 23.1377 27.2838 23.8906V22.6165C27.2838 21.0958 26.6797 19.6374 25.6044 18.5622C24.5291 17.4869 23.0708 16.8828 21.5501 16.8828Z" fill="#FDA18F"/>
<path d="M27.2838 22.6165C27.2838 21.0958 26.6797 19.6374 25.6044 18.5622C24.5291 17.4869 23.0708 16.8828 21.5501 16.8828C20.0294 16.8828 18.571 17.4869 17.4958 18.5622C16.4205 19.6374 15.8164 21.0958 15.8164 22.6165V23.8906H18.0323V28.6826H25.0568V23.8906H27.2727L27.2838 22.6165Z" stroke="#191816" stroke-width="0.5" stroke-linecap="round" stroke-linejoin="round"/>
<path d="M21.5499 18.7939C22.0003 18.7936 22.4361 18.6338 22.7799 18.3427C23.1236 18.0517 23.3532 17.6482 23.4279 17.204C22.2125 16.7757 20.8872 16.7757 19.6719 17.204C19.7465 17.6482 19.9761 18.0517 20.3199 18.3427C20.6637 18.6338 21.0994 18.7936 21.5499 18.7939Z" fill="#FFCEBF" stroke="#191816" stroke-width="0.5" stroke-linecap="round" stroke-linejoin="round"/>
<path d="M21.3229 27.5723L19.3951 27.1291C19.0107 27.0422 18.6673 26.827 18.4216 26.5189C18.1759 26.2107 18.0425 25.8281 18.0434 25.434V23.8828H15.8275V25.434C15.8218 26.3346 16.1241 27.2102 16.6843 27.9155C17.2445 28.6208 18.029 29.1135 18.9076 29.3118L20.8299 29.755C20.913 29.7773 20.9987 29.7884 21.0847 29.7882C21.2302 29.8046 21.3775 29.7921 21.5182 29.7516C21.6589 29.711 21.7902 29.6432 21.9047 29.5518C22.0191 29.4605 22.1145 29.3476 22.1853 29.2194C22.2561 29.0913 22.301 28.9504 22.3173 28.8049C22.3337 28.6594 22.3213 28.5121 22.2807 28.3714C22.2401 28.2307 22.1723 28.0994 22.081 27.985C21.9896 27.8705 21.8767 27.7752 21.7485 27.7043C21.6204 27.6335 21.4795 27.5887 21.334 27.5723H21.3229Z" fill="#FFCEBF" stroke="#191816" stroke-width="0.5" stroke-linecap="round" stroke-linejoin="round"/>
<path d="M21.777 27.5723L23.7049 27.1291C24.0893 27.0422 24.4326 26.827 24.6783 26.5189C24.924 26.2107 25.0575 25.8281 25.0566 25.434V23.8828H27.2725V25.434C27.2782 26.3346 26.9758 27.2102 26.4156 27.9155C25.8554 28.6208 25.071 29.1135 24.1924 29.3118L22.2701 29.755C22.187 29.7773 22.1013 29.7884 22.0152 29.7882C21.7214 29.8213 21.4264 29.7363 21.1953 29.5518C20.9641 29.3674 20.8157 29.0988 20.7826 28.8049C20.7496 28.5111 20.8346 28.2161 21.019 27.985C21.2034 27.7538 21.4721 27.6054 21.7659 27.5723H21.777Z" fill="#FFCEBF" stroke="#191816" stroke-width="0.5" stroke-linecap="round" stroke-linejoin="round"/>
<path d="M27.2832 23.8884V22.293" stroke="#191816" stroke-width="0.5" stroke-linecap="round" stroke-linejoin="round"/>
<path d="M14.5425 28.3516V39.7635H11.6729L11.4236 31.8361C11.4046 31.578 11.2886 31.3367 11.099 31.1606C10.9095 30.9844 10.6603 30.8865 10.4015 30.8865C10.1427 30.8865 9.89352 30.9844 9.70393 31.1606C9.51435 31.3367 9.39841 31.578 9.3794 31.8361L9.12457 39.7635H6.2605V28.3516H14.5425Z" fill="#FFCEC3"/>
<path d="M14.5425 28.3516H6.2605V29.947H14.5425V28.3516Z" fill="#FDA18F"/>
<path d="M14.5425 28.3516V39.7635H11.6729L11.4236 31.8361C11.4046 31.578 11.2886 31.3367 11.099 31.1606C10.9095 30.9844 10.6603 30.8865 10.4015 30.8865C10.1427 30.8865 9.89352 30.9844 9.70393 31.1606C9.51435 31.3367 9.39841 31.578 9.3794 31.8361L9.12457 39.7635H6.2605V28.3516H14.5425Z" stroke="#191816" stroke-width="0.5" stroke-linecap="round" stroke-linejoin="round"/>
<path d="M4.03345 23.2536V23.8906H6.24936V28.3225H14.559V23.8906H16.775V23.2536C16.775 21.5639 16.1038 19.9435 14.909 18.7488C13.7143 17.554 12.0938 16.8828 10.4042 16.8828C8.71457 16.8828 7.09415 17.554 5.8994 18.7488C4.70465 19.9435 4.03345 21.5639 4.03345 23.2536Z" fill="#FFCEC3"/>
<path d="M10.4042 16.8828C8.71457 16.8828 7.09415 17.554 5.8994 18.7488C4.70465 19.9435 4.03345 21.5639 4.03345 23.2536V23.8906H4.06115C4.21567 22.3163 4.95038 20.8558 6.12231 19.7933C7.29423 18.7307 8.81954 18.1422 10.4014 18.1422C11.9833 18.1422 13.5086 18.7307 14.6806 19.7933C15.8525 20.8558 16.5872 22.3163 16.7417 23.8906H16.775V23.2536C16.7735 21.5644 16.1018 19.9448 14.9074 18.7504C13.713 17.556 12.0934 16.8843 10.4042 16.8828Z" fill="#FDA18F"/>
<path d="M4.03345 23.2543V23.8913H6.24936V28.3232H14.559V23.8913H16.775V23.2543C16.7719 21.8832 16.3267 20.5496 15.5053 19.4518C14.6839 18.3539 13.5302 17.5504 12.2157 17.1605C11.6286 16.9816 11.0179 16.892 10.4042 16.8946C8.71649 16.8946 7.09774 17.5643 5.90331 18.7566C4.70888 19.949 4.03638 21.5666 4.03345 23.2543V23.2543Z" stroke="#191816" stroke-width="0.5" stroke-linecap="round" stroke-linejoin="round"/>
<path d="M8.72021 17.1097C8.76453 17.4532 9.01382 18.7717 10.3822 18.7717C11.7505 18.7717 12.105 17.5086 12.1937 17.1097C11.6066 16.9308 10.9959 16.8412 10.3822 16.8438C9.81871 16.857 9.25965 16.9465 8.72021 17.1097Z" fill="#D18660" stroke="#191816" stroke-width="0.5" stroke-linecap="round" stroke-linejoin="round"/>
<path d="M6.2605 21.9805V23.8917" stroke="#191816" stroke-width="0.5" stroke-linecap="round" stroke-linejoin="round"/>
<path d="M14.5425 21.9805V23.8917" stroke="#191816" stroke-width="0.5" stroke-linecap="round" stroke-linejoin="round"/>
<path d="M14.8581 11.7851C14.8573 11.6034 14.7933 11.4278 14.6771 11.2882C14.5608 11.1487 14.3995 11.0541 14.221 11.0206V10.5109C14.2406 9.99707 14.1563 9.48455 13.9731 9.00405C13.79 8.52355 13.5118 8.08494 13.1552 7.71448C12.7986 7.34401 12.3709 7.04931 11.8977 6.84802C11.4245 6.64672 10.9156 6.54297 10.4013 6.54297C9.88712 6.54297 9.37819 6.64672 8.905 6.84802C8.43182 7.04931 8.00412 7.34401 7.6475 7.71448C7.29088 8.08494 7.01267 8.52355 6.82953 9.00405C6.64639 9.48455 6.56208 9.99707 6.58166 10.5109V11.0206C6.40315 11.0541 6.24189 11.1487 6.12562 11.2882C6.00935 11.4278 5.94533 11.6034 5.94458 11.7851C5.94638 11.9805 6.02034 12.1683 6.15225 12.3125C6.28417 12.4567 6.46473 12.5471 6.65921 12.5662C6.83835 13.4261 7.30821 14.1982 7.98975 14.7524C8.67129 15.3066 9.52291 15.6091 10.4013 15.6091C11.2798 15.6091 12.1314 15.3066 12.8129 14.7524C13.4945 14.1982 13.9643 13.4261 14.1435 12.5662C14.338 12.5471 14.5185 12.4567 14.6504 12.3125C14.7823 12.1683 14.8563 11.9805 14.8581 11.7851Z" fill="#D18660" stroke="#191816" stroke-width="0.5" stroke-linecap="round" stroke-linejoin="round"/>
<path d="M8.96934 10.5117C8.87511 10.5117 8.783 10.5397 8.70466 10.592C8.62631 10.6444 8.56524 10.7188 8.52919 10.8058C8.49313 10.8929 8.48369 10.9887 8.50207 11.0811C8.52046 11.1735 8.56583 11.2584 8.63246 11.325C8.69909 11.3916 8.78398 11.437 8.8764 11.4554C8.96881 11.4738 9.06461 11.4644 9.15166 11.4283C9.23872 11.3922 9.31312 11.3312 9.36547 11.2528C9.41782 11.1745 9.44576 11.0824 9.44576 10.9881C9.44576 10.8618 9.39557 10.7406 9.30622 10.6513C9.21688 10.5619 9.0957 10.5117 8.96934 10.5117Z" fill="#191816"/>
<path d="M11.8554 10.5118C11.7614 10.5128 11.6699 10.5417 11.5922 10.5947C11.5146 10.6477 11.4544 10.7225 11.4192 10.8097C11.384 10.8968 11.3754 10.9924 11.3944 11.0845C11.4134 11.1765 11.4592 11.2609 11.526 11.327C11.5929 11.393 11.6778 11.4379 11.77 11.4558C11.8623 11.4737 11.9578 11.464 12.0445 11.4278C12.1313 11.3916 12.2053 11.3305 12.2574 11.2523C12.3096 11.1741 12.3374 11.0822 12.3374 10.9882C12.3374 10.9251 12.3249 10.8627 12.3006 10.8046C12.2763 10.7464 12.2407 10.6936 12.1959 10.6493C12.151 10.605 12.0979 10.57 12.0394 10.5464C11.981 10.5228 11.9184 10.511 11.8554 10.5118Z" fill="#191816"/>
<path d="M8.80862 12.2616C8.80971 12.3574 8.78224 12.4513 8.7297 12.5314C8.67717 12.6115 8.60196 12.6742 8.51367 12.7113C8.42538 12.7485 8.32802 12.7585 8.23401 12.7401C8.14001 12.7217 8.05362 12.6757 7.98589 12.6079C7.91815 12.5402 7.87214 12.4538 7.85372 12.3598C7.8353 12.2658 7.84531 12.1684 7.88247 12.0801C7.91964 11.9918 7.98227 11.9166 8.06237 11.8641C8.14247 11.8116 8.23641 11.7841 8.3322 11.7852C8.45855 11.7852 8.57973 11.8354 8.66908 11.9247C8.75842 12.0141 8.80862 12.1353 8.80862 12.2616Z" fill="#BD704A"/>
<path d="M12.9629 12.2616C12.964 12.3572 12.9367 12.4509 12.8844 12.5309C12.8321 12.6108 12.7572 12.6735 12.6693 12.7108C12.5813 12.7481 12.4842 12.7585 12.3904 12.7405C12.2965 12.7225 12.2101 12.6771 12.1422 12.6099C12.0742 12.5427 12.0277 12.4569 12.0087 12.3632C11.9896 12.2696 11.9989 12.1724 12.0352 12.084C12.0715 11.9956 12.1332 11.92 12.2126 11.8668C12.292 11.8136 12.3854 11.7852 12.481 11.7852C12.544 11.7845 12.6065 11.7962 12.665 11.8199C12.7234 11.8435 12.7766 11.8784 12.8214 11.9228C12.8663 11.9671 12.9018 12.0198 12.9261 12.078C12.9504 12.1362 12.9629 12.1986 12.9629 12.2616Z" fill="#BD704A"/>
<path d="M9.4458 13.4102C9.72933 13.5974 10.0616 13.6973 10.4014 13.6973C10.7412 13.6973 11.0735 13.5974 11.357 13.4102" stroke="#191816" stroke-width="0.5" stroke-linecap="round" stroke-linejoin="round"/>
<path d="M14.5421 9.55328C14.5421 8.45135 14.1044 7.39455 13.3252 6.61536C12.546 5.83618 11.4892 5.39844 10.3873 5.39844C9.28533 5.39844 8.22853 5.83618 7.44935 6.61536C6.67016 7.39455 6.23242 8.45135 6.23242 9.55328V10.8274C6.72471 10.7026 7.1812 10.4649 7.56579 10.1332C7.95038 9.80145 8.25253 9.38482 8.44834 8.9162C10.2765 10.1183 12.6309 9.87459 14.5421 9.55328Z" fill="#724F3D"/>
<path d="M10.4039 7.00498C11.23 7.00536 12.0372 7.25301 12.7214 7.71605C13.4056 8.17909 13.9355 8.83632 14.243 9.60314L14.5421 9.55328C14.5421 8.45135 14.1044 7.39455 13.3252 6.61536C12.546 5.83618 11.4892 5.39844 10.3873 5.39844C9.28533 5.39844 8.22853 5.83618 7.44935 6.61536C6.67016 7.39455 6.23242 8.45135 6.23242 9.55328V10.8274C6.31253 9.77976 6.78818 8.8018 7.56285 8.09194C8.33752 7.38208 9.35322 6.99348 10.4039 7.00498Z" fill="#A86C4D"/>
<path d="M14.5421 9.55328C14.5421 8.45135 14.1044 7.39455 13.3252 6.61536C12.546 5.83618 11.4892 5.39844 10.3873 5.39844C9.28533 5.39844 8.22853 5.83618 7.44935 6.61536C6.67016 7.39455 6.23242 8.45135 6.23242 9.55328V10.8274C6.72471 10.7026 7.1812 10.4649 7.56579 10.1332C7.95038 9.80145 8.25253 9.38482 8.44834 8.9162C10.2765 10.1183 12.6309 9.87459 14.5421 9.55328Z" stroke="#191816" stroke-width="0.5" stroke-linecap="round" stroke-linejoin="round"/>
<path d="M7.8501 8.27734C8.01214 8.53467 8.22984 8.75238 8.48717 8.91442" stroke="#191816" stroke-width="0.5" stroke-linecap="round" stroke-linejoin="round"/>
<path d="M14.5421 24.5277C14.5421 24.6967 14.4749 24.8587 14.3555 24.9782C14.236 25.0977 14.074 25.1648 13.905 25.1648H11.8553C11.5614 25.1648 11.2796 25.2815 11.0718 25.4893C10.864 25.6971 10.7473 25.9789 10.7473 26.2727C10.7473 26.5666 10.864 26.8484 11.0718 27.0562C11.2796 27.264 11.5614 27.3807 11.8553 27.3807H13.905C14.2816 27.3814 14.6546 27.3079 15.0027 27.1643C15.3509 27.0207 15.6672 26.8098 15.9338 26.5438C16.2003 26.2778 16.4118 25.9618 16.5561 25.6139C16.7003 25.2661 16.7746 24.8932 16.7746 24.5166V23.8906H14.5587L14.5421 24.5277Z" fill="#D18660" stroke="#191816" stroke-width="0.5" stroke-linecap="round" stroke-linejoin="round"/>
<path d="M6.26023 23.8906V26.306C6.25971 26.7515 6.36977 27.1902 6.58054 27.5828C6.79132 27.9753 7.09622 28.3094 7.46791 28.5551L7.67288 28.6936L6.31563 30.4774L6.21591 30.411C5.5364 29.9628 4.97842 29.3534 4.59176 28.6371C4.2051 27.9208 4.0018 27.12 4 26.306V23.8906H6.26023Z" fill="#D18660" stroke="#191816" stroke-width="0.5" stroke-linecap="round" stroke-linejoin="round"/>
<path d="M28.5576 28.3516V39.7635H31.4272L31.6765 31.8361C31.6955 31.578 31.8115 31.3367 32.001 31.1606C32.1906 30.9844 32.4398 30.8865 32.6986 30.8865C32.9574 30.8865 33.2066 30.9844 33.3962 31.1606C33.5858 31.3367 33.7017 31.578 33.7207 31.8361L33.9755 39.7635H36.8396V28.3516H28.5576Z" fill="#FFCEBF" stroke="#191816" stroke-width="0.5" stroke-linecap="round" stroke-linejoin="round"/>
<path d="M31.5934 34.401L31.6765 31.8582C31.6955 31.6002 31.8115 31.3588 32.001 31.1827C32.1906 31.0066 32.4398 30.9087 32.6986 30.9087C32.9574 30.9087 33.2066 31.0066 33.3962 31.1827C33.5858 31.3588 33.7017 31.6002 33.7207 31.8582L33.8038 34.401H36.8396V28.3516H28.5576V34.401H31.5934Z" fill="#FFCEC3"/>
<path d="M36.8396 28.3516H28.5576V29.947H36.8396V28.3516Z" fill="#FDA18F"/>
<path d="M31.5934 34.401L31.6765 31.8582C31.6955 31.6002 31.8115 31.3588 32.001 31.1827C32.1906 31.0066 32.4398 30.9087 32.6986 30.9087C32.9574 30.9087 33.2066 31.0066 33.3962 31.1827C33.5858 31.3588 33.7017 31.6002 33.7207 31.8582L33.8038 34.401H36.8396V28.3516H28.5576V34.401H31.5934Z" stroke="#191816" stroke-width="0.5" stroke-linecap="round" stroke-linejoin="round"/>
<path d="M31.7879 34.3984H28.5194C28.3664 34.3984 28.2424 34.5224 28.2424 34.6754V35.7169C28.2424 35.8699 28.3664 35.9939 28.5194 35.9939H31.7879C31.9409 35.9939 32.0649 35.8699 32.0649 35.7169V34.6754C32.0649 34.5224 31.9409 34.3984 31.7879 34.3984Z" fill="#F0D5A8" stroke="#191816" stroke-width="0.5" stroke-linecap="round" stroke-linejoin="round"/>
<path d="M36.8785 34.3984H33.61C33.457 34.3984 33.333 34.5224 33.333 34.6754V35.7169C33.333 35.8699 33.457 35.9939 33.61 35.9939H36.8785C37.0314 35.9939 37.1555 35.8699 37.1555 35.7169V34.6754C37.1555 34.5224 37.0314 34.3984 36.8785 34.3984Z" fill="#F0D5A8" stroke="#191816" stroke-width="0.5" stroke-linecap="round" stroke-linejoin="round"/>
<path d="M39.0667 23.2536V23.8906H36.8508V28.3225H28.5577V23.8906H26.3418V23.2536C26.3418 21.5639 27.013 19.9435 28.2077 18.7488C29.4025 17.554 31.0229 16.8828 32.7126 16.8828C34.4022 16.8828 36.0226 17.554 37.2174 18.7488C38.4121 19.9435 39.0833 21.5639 39.0833 23.2536H39.0667Z" fill="#FFCEC3"/>
<path d="M32.696 16.8828C31.0068 16.8843 29.3872 17.556 28.1928 18.7504C26.9983 19.9448 26.3267 21.5644 26.3252 23.2536V23.8906H26.3584C26.513 22.3163 27.2477 20.8558 28.4196 19.7933C29.5915 18.7307 31.1168 18.1422 32.6987 18.1422C34.2806 18.1422 35.8059 18.7307 36.9778 19.7933C38.1498 20.8558 38.8845 22.3163 39.039 23.8906H39.0667V23.2536C39.0667 21.5639 38.3955 19.9435 37.2008 18.7488C36.006 17.554 34.3856 16.8828 32.696 16.8828Z" fill="#FDA18F"/>
<path d="M39.0667 23.2536V23.8906H36.8508V28.3225H28.5577V23.8906H26.3418V23.2536C26.3418 21.5639 27.013 19.9435 28.2077 18.7488C29.4025 17.554 31.0229 16.8828 32.7126 16.8828C34.4022 16.8828 36.0226 17.554 37.2174 18.7488C38.4121 19.9435 39.0833 21.5639 39.0833 23.2536H39.0667Z" stroke="#191816" stroke-width="0.5" stroke-linecap="round" stroke-linejoin="round"/>
<path d="M34.3802 17.1097C34.3359 17.4532 34.0866 18.7717 32.7183 18.7717C31.3499 18.7717 30.9954 17.5086 30.9067 17.1097C31.4938 16.9308 32.1045 16.8412 32.7183 16.8438C33.2817 16.857 33.8407 16.9465 34.3802 17.1097Z" fill="#FFCEBF" stroke="#191816" stroke-width="0.5" stroke-linecap="round" stroke-linejoin="round"/>
<path d="M36.8398 21.9805V23.8917" stroke="#191816" stroke-width="0.5" stroke-linecap="round" stroke-linejoin="round"/>
<path d="M28.5576 21.9805V23.8917" stroke="#191816" stroke-width="0.5" stroke-linecap="round" stroke-linejoin="round"/>
<path d="M28.5577 24.5277C28.5577 24.6967 28.6249 24.8587 28.7443 24.9782C28.8638 25.0977 29.0258 25.1648 29.1948 25.1648H31.2445C31.5384 25.1648 31.8202 25.2815 32.028 25.4893C32.2358 25.6971 32.3525 25.9789 32.3525 26.2727C32.3525 26.5666 32.2358 26.8484 32.028 27.0562C31.8202 27.264 31.5384 27.3807 31.2445 27.3807H29.1948C28.8182 27.3814 28.4452 27.3079 28.0971 27.1643C27.7489 27.0207 27.4326 26.8098 27.166 26.5438C26.8995 26.2778 26.688 25.9618 26.5437 25.6139C26.3995 25.2661 26.3252 24.8932 26.3252 24.5166V23.8906H28.5411L28.5577 24.5277Z" fill="#FFCEBF" stroke="#191816" stroke-width="0.5" stroke-linecap="round" stroke-linejoin="round"/>
<path d="M28.2424 11.7851C28.2432 11.6034 28.3072 11.4278 28.4235 11.2882C28.5397 11.1487 28.701 11.0541 28.8795 11.0206V10.5109C28.8599 9.99707 28.9442 9.48455 29.1274 9.00405C29.3105 8.52355 29.5887 8.08494 29.9453 7.71448C30.302 7.34401 30.7297 7.04931 31.2029 6.84802C31.676 6.64672 32.185 6.54297 32.6992 6.54297C33.2134 6.54297 33.7223 6.64672 34.1955 6.84802C34.6687 7.04931 35.0964 7.34401 35.453 7.71448C35.8097 8.08494 36.0879 8.52355 36.271 9.00405C36.4541 9.48455 36.5384 9.99707 36.5189 10.5109V11.0206C36.6974 11.0541 36.8586 11.1487 36.9749 11.2882C37.0912 11.4278 37.1552 11.6034 37.1559 11.7851C37.1542 11.9805 37.0802 12.1683 36.9483 12.3125C36.8164 12.4567 36.6358 12.5471 36.4413 12.5662C36.2622 13.4261 35.7923 14.1982 35.1108 14.7524C34.4292 15.3066 33.5776 15.6091 32.6992 15.6091C31.8208 15.6091 30.9691 15.3066 30.2876 14.7524C29.6061 14.1982 29.1362 13.4261 28.9571 12.5662C28.7626 12.5471 28.582 12.4567 28.4501 12.3125C28.3182 12.1683 28.2442 11.9805 28.2424 11.7851Z" fill="#FFCEBF" stroke="#191816" stroke-width="0.5" stroke-linecap="round" stroke-linejoin="round"/>
<path d="M34.1305 10.5118C34.0366 10.5128 33.945 10.5417 33.8674 10.5947C33.7898 10.6477 33.7296 10.7225 33.6944 10.8097C33.6592 10.8968 33.6505 10.9924 33.6695 11.0845C33.6885 11.1765 33.7343 11.2609 33.8012 11.327C33.868 11.393 33.9529 11.4379 34.0452 11.4558C34.1374 11.4737 34.2329 11.464 34.3197 11.4278C34.4064 11.3916 34.4805 11.3305 34.5326 11.2523C34.5847 11.1741 34.6125 11.0822 34.6125 10.9882C34.6125 10.9251 34.6 10.8627 34.5757 10.8046C34.5514 10.7464 34.5158 10.6936 34.471 10.6493C34.4262 10.605 34.373 10.57 34.3146 10.5464C34.2561 10.5228 34.1936 10.511 34.1305 10.5118Z" fill="#191816"/>
<path d="M31.2445 10.5117C31.1503 10.5117 31.0581 10.5397 30.9798 10.592C30.9015 10.6444 30.8404 10.7188 30.8043 10.8058C30.7683 10.8929 30.7588 10.9887 30.7772 11.0811C30.7956 11.1735 30.841 11.2584 30.9076 11.325C30.9742 11.3916 31.0591 11.437 31.1515 11.4554C31.244 11.4738 31.3398 11.4644 31.4268 11.4283C31.5139 11.3922 31.5883 11.3312 31.6406 11.2528C31.693 11.1745 31.7209 11.0824 31.7209 10.9881C31.7209 10.8618 31.6707 10.7406 31.5814 10.6513C31.492 10.5619 31.3708 10.5117 31.2445 10.5117Z" fill="#191816"/>
<path d="M34.2915 12.2616C34.2904 12.3574 34.3179 12.4513 34.3704 12.5314C34.423 12.6115 34.4982 12.6742 34.5865 12.7113C34.6748 12.7485 34.7721 12.7585 34.8661 12.7401C34.9601 12.7217 35.0465 12.6757 35.1143 12.6079C35.182 12.5402 35.228 12.4538 35.2464 12.3598C35.2649 12.2658 35.2548 12.1684 35.2177 12.0801C35.1805 11.9918 35.1179 11.9166 35.0378 11.8641C34.9577 11.8116 34.8637 11.7841 34.768 11.7852C34.6416 11.7852 34.5204 11.8354 34.4311 11.9247C34.3417 12.0141 34.2915 12.1353 34.2915 12.2616Z" fill="#FFB59E"/>
<path d="M30.137 12.2616C30.1359 12.3572 30.1632 12.4509 30.2155 12.5309C30.2678 12.6108 30.3427 12.6735 30.4306 12.7108C30.5186 12.7481 30.6157 12.7585 30.7095 12.7405C30.8034 12.7225 30.8898 12.6771 30.9577 12.6099C31.0257 12.5427 31.0722 12.4569 31.0912 12.3632C31.1103 12.2696 31.101 12.1724 31.0647 12.084C31.0284 11.9956 30.9667 11.92 30.8873 11.8668C30.8079 11.8136 30.7145 11.7852 30.619 11.7852C30.5559 11.7845 30.4934 11.7962 30.4349 11.8199C30.3765 11.8435 30.3233 11.8784 30.2785 11.9228C30.2337 11.9671 30.1981 12.0198 30.1738 12.078C30.1495 12.1362 30.137 12.1986 30.137 12.2616Z" fill="#FFB59E"/>
<path d="M31.7432 13.4102C32.0267 13.5974 32.359 13.6973 32.6988 13.6973C33.0386 13.6973 33.3709 13.5974 33.6544 13.4102" stroke="#191816" stroke-width="0.5" stroke-linecap="round" stroke-linejoin="round"/>
<path d="M32.6961 6.68754C33.1983 6.68681 33.6956 6.78518 34.1597 6.97702C34.6238 7.16886 35.0455 7.45039 35.4006 7.80548C35.7557 8.16057 36.0372 8.58225 36.2291 9.04634C36.4209 9.51043 36.5193 10.0078 36.5185 10.51V10.859C36.2403 10.8547 35.9748 10.7414 35.7791 10.5436C35.5834 10.3458 35.4729 10.0792 35.4715 9.8009C35.4564 9.69905 35.4205 9.60139 35.3662 9.51394C35.3118 9.42648 35.2401 9.3511 35.1555 9.29244C35.0709 9.23377 34.9752 9.19308 34.8742 9.17286C34.7732 9.15265 34.6692 9.15334 34.5685 9.1749C33.3235 9.42604 32.0409 9.42604 30.7959 9.1749C30.6964 9.15586 30.5941 9.15708 30.4951 9.17848C30.3961 9.19988 30.3024 9.24104 30.2197 9.29948C30.1369 9.35791 30.0668 9.43244 30.0135 9.51859C29.9603 9.60475 29.9249 9.70076 29.9096 9.8009C29.9082 10.0792 29.7977 10.3458 29.602 10.5436C29.4063 10.7414 29.1408 10.8547 28.8626 10.859V10.51C28.8618 10.0069 28.9606 9.50858 29.1531 9.04377C29.3456 8.57895 29.6281 8.15678 29.9844 7.80155C30.3407 7.44631 30.7637 7.16501 31.229 6.97382C31.6944 6.78264 32.193 6.68535 32.6961 6.68754Z" fill="#A86C4D" stroke="#191816" stroke-width="0.5" stroke-linecap="round" stroke-linejoin="round"/>
<path d="M37.6491 9.95273C37.7125 10.1957 37.7274 10.4488 37.6929 10.6976C37.6584 10.9463 37.5753 11.1858 37.4482 11.4024C37.3211 11.619 37.1526 11.8084 36.9523 11.9599C36.752 12.1113 36.5238 12.2218 36.2807 12.285L35.2891 12.5453C35.2618 12.5509 35.2334 12.548 35.2077 12.5372C35.182 12.5263 35.1602 12.5079 35.1451 12.4844C35.1289 12.4618 35.1201 12.4347 35.1201 12.4069C35.1201 12.379 35.1289 12.3519 35.1451 12.3293C35.3401 12.1366 35.4803 11.8954 35.5514 11.6307C35.6224 11.3659 35.6218 11.0869 35.5495 10.8225C35.4947 10.6571 35.3786 10.5189 35.225 10.4365C35.0715 10.3541 34.8922 10.3336 34.7241 10.3793C34.3787 10.4657 34.0176 10.4677 33.6714 10.385C33.3251 10.3023 33.0039 10.1374 32.7349 9.9042C32.4658 9.67105 32.2569 9.37651 32.1259 9.04553C31.9948 8.71454 31.9454 8.35684 31.9819 8.00272C32.0163 7.54345 32.1959 7.10703 32.4946 6.75651C32.7934 6.40598 33.1958 6.15952 33.6438 6.05272C34.3791 5.86215 35.16 5.9709 35.8152 6.35513C36.4705 6.73935 36.9467 7.3677 37.1394 8.10244L37.6491 9.95273Z" fill="#724F3D"/>
<path d="M37.6491 9.95273C37.7125 10.1957 37.7274 10.4488 37.6929 10.6976C37.6584 10.9463 37.5753 11.1858 37.4482 11.4024C37.3211 11.619 37.1526 11.8084 36.9523 11.9599C36.752 12.1113 36.5238 12.2218 36.2807 12.285L35.2891 12.5453C35.2618 12.5509 35.2334 12.548 35.2077 12.5372C35.182 12.5263 35.1602 12.5079 35.1451 12.4844C35.1289 12.4618 35.1201 12.4347 35.1201 12.4069C35.1201 12.379 35.1289 12.3519 35.1451 12.3293C35.3401 12.1366 35.4803 11.8954 35.5514 11.6307C35.6224 11.3659 35.6218 11.0869 35.5495 10.8225C35.4947 10.6571 35.3786 10.5189 35.225 10.4365C35.0715 10.3541 34.8922 10.3336 34.7241 10.3793C34.3787 10.4657 34.0176 10.4677 33.6714 10.385C33.3251 10.3023 33.0039 10.1374 32.7349 9.9042C32.4658 9.67105 32.2569 9.37651 32.1259 9.04553C31.9948 8.71454 31.9454 8.35684 31.9819 8.00272C32.0163 7.54345 32.1959 7.10703 32.4946 6.75651C32.7934 6.40598 33.1958 6.15952 33.6438 6.05272C34.3791 5.86215 35.16 5.9709 35.8152 6.35513C36.4705 6.73935 36.9467 7.3677 37.1394 8.10244L37.6491 9.95273Z" fill="#724F3D"/>
<path d="M32.0036 8.00272C32.0381 7.54345 32.2176 7.10703 32.5164 6.75651C32.8151 6.40598 33.2176 6.15952 33.6656 6.05272C34.4009 5.86215 35.1817 5.9709 35.837 6.35513C36.4922 6.73935 36.9684 7.3677 37.1612 8.10244L37.6431 9.95273C37.7205 10.2525 37.7205 10.567 37.6431 10.8668L37.2664 9.43199C37.0737 8.69602 36.5967 8.06669 35.9402 7.68232C35.2836 7.29796 34.5014 7.19003 33.7653 7.38226C33.3713 7.49712 33.0149 7.71462 32.7326 8.01248C32.4503 8.31034 32.2523 8.67787 32.1587 9.07744C32.0254 8.73582 31.9723 8.36811 32.0036 8.00272Z" fill="#A86C4D"/>
<path d="M37.6491 9.95273C37.7125 10.1957 37.7274 10.4488 37.6929 10.6976C37.6584 10.9463 37.5753 11.1858 37.4482 11.4024C37.3211 11.619 37.1526 11.8084 36.9523 11.9599C36.752 12.1113 36.5238 12.2218 36.2807 12.285L35.2891 12.5453C35.2618 12.5509 35.2334 12.548 35.2077 12.5372C35.182 12.5263 35.1602 12.5079 35.1451 12.4844C35.1289 12.4618 35.1201 12.4347 35.1201 12.4069C35.1201 12.379 35.1289 12.3519 35.1451 12.3293C35.3401 12.1366 35.4803 11.8954 35.5514 11.6307C35.6224 11.3659 35.6218 11.0869 35.5495 10.8225C35.4947 10.6571 35.3786 10.5189 35.225 10.4365C35.0715 10.3541 34.8922 10.3336 34.7241 10.3793C34.3787 10.4657 34.0176 10.4677 33.6714 10.385C33.3251 10.3023 33.0039 10.1374 32.7349 9.9042C32.4658 9.67105 32.2569 9.37651 32.1259 9.04553C31.9948 8.71454 31.9454 8.35684 31.9819 8.00272C32.0163 7.54345 32.1959 7.10703 32.4946 6.75651C32.7934 6.40598 33.1958 6.15952 33.6438 6.05272C34.3791 5.86215 35.16 5.9709 35.8152 6.35513C36.4705 6.73935 36.9467 7.3677 37.1394 8.10244L37.6491 9.95273Z" stroke="#191816" stroke-width="0.5" stroke-linecap="round" stroke-linejoin="round"/>
<path d="M37.3379 8.73828C37.3688 8.86054 37.4237 8.97544 37.4994 9.07632C37.5751 9.1772 37.6701 9.26205 37.7788 9.32595C37.8876 9.38985 38.0079 9.43152 38.1329 9.44856C38.2578 9.4656 38.3849 9.45767 38.5068 9.42521" stroke="#191816" stroke-width="0.5" stroke-linecap="round" stroke-linejoin="round"/>
<path d="M36.8396 23.8906V26.306C36.8402 26.7515 36.7301 27.1902 36.5193 27.5828C36.3086 27.9753 36.0037 28.3094 35.632 28.5551L35.427 28.6936L36.7842 30.4774L36.884 30.411C37.5635 29.9628 38.1215 29.3534 38.5081 28.6371C38.8948 27.9208 39.0981 27.12 39.0999 26.306V23.8906H36.8396Z" fill="#FFCEBF" stroke="#191816" stroke-width="0.5" stroke-linecap="round" stroke-linejoin="round"/>
<path d="M25.0569 23.8917V21.9805" stroke="#191816" stroke-width="0.5" stroke-linecap="round" stroke-linejoin="round"/>
<path d="M18.0432 23.8917V21.9805" stroke="#191816" stroke-width="0.5" stroke-linecap="round" stroke-linejoin="round"/>
</g>
<defs>
<filter id="filter0_d_1943_65581" x="0" y="0" width="44" height="44" filterUnits="userSpaceOnUse" color-interpolation-filters="sRGB">
<feFlood flood-opacity="0" result="BackgroundImageFix"/>
<feColorMatrix in="SourceAlpha" type="matrix" values="0 0 0 0 0 0 0 0 0 0 0 0 0 0 0 0 0 0 127 0" result="hardAlpha"/>
<feOffset dy="4"/>
<feGaussianBlur stdDeviation="2"/>
<feComposite in2="hardAlpha" operator="out"/>
<feColorMatrix type="matrix" values="0 0 0 0 0 0 0 0 0 0 0 0 0 0 0 0 0 0 0.15 0"/>
<feBlend mode="normal" in2="BackgroundImageFix" result="effect1_dropShadow_1943_65581"/>
<feBlend mode="normal" in="SourceGraphic" in2="effect1_dropShadow_1943_65581" result="shape"/>
</filter>
</defs>
</svg>
