<svg width="44" height="44" viewBox="0 0 44 44" fill="none" xmlns="http://www.w3.org/2000/svg">
<g filter="url(#filter0_d_1943_65670)">
<circle cx="22" cy="18" r="18" fill="#B05056"/>
</g>
<mask id="mask0_1943_65670" style="mask-type:alpha" maskUnits="userSpaceOnUse" x="4" y="0" width="36" height="36">
<circle cx="22" cy="18" r="18" fill="#B05056"/>
</mask>
<g mask="url(#mask0_1943_65670)">
<path d="M37.3001 13.0453C37.3001 13.1783 37.2748 13.3099 37.2256 13.4326C37.1764 13.5554 37.1042 13.667 37.0133 13.761C36.9224 13.855 36.8145 13.9295 36.6957 13.9804C36.5769 14.0312 36.4496 14.0574 36.321 14.0574H31.4254C31.2458 14.0642 31.0678 14.0219 30.9091 13.9347L22.8388 8.65361L14.5667 19.406C14.4761 19.5265 14.36 19.624 14.2273 19.691C14.0946 19.758 13.9489 19.7927 13.8012 19.7924C13.7341 19.7984 13.6666 19.7984 13.5994 19.7924L7.6001 18.4676V16.4189C7.66723 16.413 7.73473 16.413 7.80186 16.4189L13.4095 17.6456L21.8537 6.68468C22.001 6.48798 22.214 6.3551 22.451 6.312C22.688 6.2689 22.9321 6.31867 23.1355 6.4516L31.7102 12.0333H36.321C36.5807 12.0333 36.8297 12.1399 37.0133 12.3297C37.1969 12.5195 37.3001 12.7769 37.3001 13.0453Z" fill="white" stroke="#191816" stroke-miterlimit="10"/>
<path d="M15.9369 23.3984H10.9632C10.7873 23.3984 10.6186 23.4722 10.4943 23.6035C10.3699 23.7347 10.3 23.9128 10.3 24.0984V29.6984H16.6V24.0984C16.6 23.9128 16.5302 23.7347 16.4058 23.6035C16.2814 23.4722 16.1128 23.3984 15.9369 23.3984V23.3984Z" fill="#FFCEC3"/>
<path d="M15.9369 23.3984H10.9632C10.7873 23.3984 10.6186 23.4696 10.4943 23.5961C10.3699 23.7227 10.3 23.8944 10.3 24.0734V26.0984C10.3 25.9194 10.3699 25.7477 10.4943 25.6211C10.6186 25.4946 10.7873 25.4234 10.9632 25.4234H15.9369C16.1128 25.4234 16.2814 25.4946 16.4058 25.6211C16.5302 25.7477 16.6 25.9194 16.6 26.0984V24.0734C16.6 23.8944 16.5302 23.7227 16.4058 23.5961C16.2814 23.4696 16.1128 23.3984 15.9369 23.3984Z" fill="#FDA18F"/>
<path d="M15.9369 23.3984H10.9632C10.7873 23.3984 10.6186 23.4722 10.4943 23.6035C10.3699 23.7347 10.3 23.9128 10.3 24.0984V29.6984H16.6V24.0984C16.6 23.9128 16.5302 23.7347 16.4058 23.6035C16.2814 23.4722 16.1128 23.3984 15.9369 23.3984V23.3984Z" stroke="#191816" stroke-linecap="round" stroke-linejoin="round"/>
<path d="M19.9029 18H24.9972C25.1571 18 25.3104 18.0642 25.4235 18.1785C25.5365 18.2928 25.6 18.4478 25.6 18.6094V29.7H19.3V18.6094C19.3 18.4478 19.3636 18.2928 19.4766 18.1785C19.5897 18.0642 19.743 18 19.9029 18Z" fill="#FFCEC3"/>
<path d="M24.9188 18.0003H19.9451C19.7724 18.005 19.6083 18.0783 19.4878 18.2043C19.3674 18.3304 19.3 18.4993 19.3 18.6752V20.7C19.3 20.521 19.3699 20.3493 19.4943 20.2227C19.6186 20.0962 19.7873 20.0251 19.9632 20.0251H24.9369C25.1128 20.0251 25.2814 20.0962 25.4058 20.2227C25.5302 20.3493 25.6 20.521 25.6 20.7V18.6752C25.6001 18.585 25.5823 18.4957 25.5479 18.4126C25.5134 18.3295 25.463 18.2542 25.3995 18.1913C25.336 18.1284 25.2607 18.0791 25.1781 18.0462C25.0956 18.0134 25.0074 17.9978 24.9188 18.0003V18.0003Z" fill="#FDA18F"/>
<path d="M19.9029 18H24.9972C25.1571 18 25.3104 18.0642 25.4235 18.1785C25.5365 18.2928 25.6 18.4478 25.6 18.6094V29.7H19.3V18.6094C19.3 18.4478 19.3636 18.2928 19.4766 18.1785C19.5897 18.0642 19.743 18 19.9029 18Z" stroke="#191816" stroke-linecap="round" stroke-linejoin="round"/>
<path d="M28.8168 21.5977H33.1833C33.3204 21.5977 33.4518 21.6626 33.5487 21.7781C33.6456 21.8936 33.7 22.0503 33.7 22.2136V29.6977H28.3V22.2136C28.3 22.0503 28.3545 21.8936 28.4514 21.7781C28.5483 21.6626 28.6797 21.5977 28.8168 21.5977Z" fill="#FFCEC3"/>
<path d="M33.1311 21.5977H28.8684C28.7177 21.5977 28.5731 21.6688 28.4665 21.7954C28.3599 21.9219 28.3 22.0936 28.3 22.2727V24.2977C28.3 24.1186 28.3599 23.9469 28.4665 23.8204C28.5731 23.6938 28.7177 23.6227 28.8684 23.6227H33.1311C33.2818 23.6227 33.4264 23.6938 33.533 23.8204C33.6396 23.9469 33.6995 24.1186 33.6995 24.2977V22.3033C33.703 22.2121 33.6908 22.1211 33.6638 22.0356C33.6369 21.9501 33.5955 21.872 33.5424 21.8061C33.4893 21.7401 33.4254 21.6876 33.3547 21.6518C33.284 21.616 33.208 21.5976 33.1311 21.5977V21.5977Z" fill="#FDA18F"/>
<path d="M28.8168 21.5977H33.1833C33.3204 21.5977 33.4518 21.6626 33.5487 21.7781C33.6456 21.8936 33.7 22.0503 33.7 22.2136V29.6977H28.3V22.2136C28.3 22.0503 28.3545 21.8936 28.4514 21.7781C28.5483 21.6626 28.6797 21.5977 28.8168 21.5977Z" stroke="#191816" stroke-linecap="round" stroke-linejoin="round"/>
<path d="M7.6001 5.39844V29.6984H37.3001" stroke="#191816" stroke-linecap="round" stroke-linejoin="round"/>
</g>
<defs>
<filter id="filter0_d_1943_65670" x="0" y="0" width="44" height="44" filterUnits="userSpaceOnUse" color-interpolation-filters="sRGB">
<feFlood flood-opacity="0" result="BackgroundImageFix"/>
<feColorMatrix in="SourceAlpha" type="matrix" values="0 0 0 0 0 0 0 0 0 0 0 0 0 0 0 0 0 0 127 0" result="hardAlpha"/>
<feOffset dy="4"/>
<feGaussianBlur stdDeviation="2"/>
<feComposite in2="hardAlpha" operator="out"/>
<feColorMatrix type="matrix" values="0 0 0 0 0 0 0 0 0 0 0 0 0 0 0 0 0 0 0.15 0"/>
<feBlend mode="normal" in2="BackgroundImageFix" result="effect1_dropShadow_1943_65670"/>
<feBlend mode="normal" in="SourceGraphic" in2="effect1_dropShadow_1943_65670" result="shape"/>
</filter>
</defs>
</svg>
