<svg width="44" height="44" viewBox="0 0 44 44" fill="none" xmlns="http://www.w3.org/2000/svg">
<g filter="url(#filter0_d_1943_27506)">
<circle cx="22" cy="18" r="18" fill="#B05056"/>
</g>
<mask id="mask0_1943_27506" style="mask-type:alpha" maskUnits="userSpaceOnUse" x="4" y="0" width="36" height="36">
<circle cx="22" cy="18" r="18" fill="#B05056"/>
</mask>
<g mask="url(#mask0_1943_27506)">
<path d="M13.0527 5.44467C12.8217 5.44633 12.6007 5.53928 12.4379 5.70323C12.2751 5.86719 12.1838 6.08885 12.1838 6.31989V16.1488C12.1814 16.2653 12.2025 16.3811 12.2457 16.4892C12.289 16.5974 12.3536 16.6958 12.4356 16.7785L25.4632 29.806C25.6497 29.997 25.8725 30.1487 26.1185 30.2523C26.3645 30.3559 26.6287 30.4093 26.8957 30.4093C27.1626 30.4093 27.4268 30.3559 27.6728 30.2523C27.9188 30.1487 28.1416 29.997 28.3281 29.806L36.7592 21.4253C36.9299 21.263 37.0658 21.0676 37.1587 20.8512C37.2516 20.6347 37.2995 20.4016 37.2995 20.166C37.2995 19.9305 37.2516 19.6973 37.1587 19.4809C37.0658 19.2644 36.9299 19.069 36.7592 18.9067L23.5365 5.68394C23.3684 5.51883 23.1424 5.42615 22.9068 5.42578L13.0527 5.44467ZM18.3292 11.5838C17.9648 11.9488 17.5003 12.1975 16.9946 12.2984C16.4888 12.3994 15.9644 12.348 15.4878 12.1508C15.0113 11.9537 14.6039 11.6195 14.3173 11.1908C14.0306 10.762 13.8776 10.2578 13.8776 9.74207C13.8776 9.22631 14.0306 8.72215 14.3173 8.29337C14.6039 7.8646 15.0113 7.53049 15.4878 7.33331C15.9644 7.13614 16.4888 7.08477 16.9946 7.1857C17.5003 7.28663 17.9648 7.53533 18.3292 7.90033C18.8171 8.38907 19.0912 9.05146 19.0912 9.74207C19.0912 10.4327 18.8171 11.0951 18.3292 11.5838Z" fill="#FFCEBF"/>
<path d="M28.347 29.8434L32.7546 25.4358L18.6062 11.2559C18.5227 11.3742 18.4301 11.4858 18.3292 11.5896C17.8407 12.0789 17.1779 12.3542 16.4865 12.3547C15.7951 12.3553 15.1318 12.0813 14.6425 11.5928C14.1533 11.1043 13.878 10.4415 13.8775 9.75013C13.8769 9.05875 14.1509 8.39545 14.6394 7.90616C14.7438 7.80335 14.8576 7.71059 14.9794 7.62911L12.8701 5.48828C12.6888 5.53913 12.5291 5.64788 12.4154 5.79795C12.3018 5.94802 12.2403 6.13116 12.2404 6.31943V16.1483C12.238 16.2648 12.2591 16.3806 12.3024 16.4888C12.3457 16.5969 12.4102 16.6953 12.4923 16.778L25.4632 29.8056C25.6474 30.0019 25.8694 30.1591 26.1157 30.2677C26.3621 30.3762 26.6278 30.434 26.8971 30.4376C27.1663 30.4411 27.4334 30.3903 27.6826 30.2882C27.9317 30.1861 28.1577 30.0348 28.347 29.8434Z" fill="#FDA18F"/>
<path d="M13.0527 5.44467C12.8217 5.44633 12.6007 5.53928 12.4379 5.70323C12.2751 5.86719 12.1838 6.08885 12.1838 6.31989V16.1488C12.1814 16.2653 12.2025 16.3811 12.2457 16.4892C12.289 16.5974 12.3536 16.6958 12.4356 16.7785L25.4632 29.806C25.6497 29.997 25.8725 30.1487 26.1185 30.2523C26.3645 30.3559 26.6287 30.4093 26.8957 30.4093C27.1626 30.4093 27.4268 30.3559 27.6728 30.2523C27.9188 30.1487 28.1416 29.997 28.3281 29.806L36.7592 21.4253C36.9299 21.263 37.0658 21.0676 37.1587 20.8512C37.2516 20.6347 37.2995 20.4016 37.2995 20.166C37.2995 19.9305 37.2516 19.6973 37.1587 19.4809C37.0658 19.2644 36.9299 19.069 36.7592 18.9067L23.5365 5.68394C23.3684 5.51883 23.1424 5.42615 22.9068 5.42578L13.0527 5.44467ZM18.3292 11.5838C17.9648 11.9488 17.5003 12.1975 16.9946 12.2984C16.4888 12.3994 15.9644 12.348 15.4878 12.1508C15.0113 11.9537 14.6039 11.6195 14.3173 11.1908C14.0306 10.762 13.8776 10.2578 13.8776 9.74207C13.8776 9.22631 14.0306 8.72215 14.3173 8.29337C14.6039 7.8646 15.0113 7.53049 15.4878 7.33331C15.9644 7.13614 16.4888 7.08477 16.9946 7.1857C17.5003 7.28663 17.9648 7.53533 18.3292 7.90033C18.8171 8.38907 19.0912 9.05146 19.0912 9.74207C19.0912 10.4327 18.8171 11.0951 18.3292 11.5838V11.5838Z" stroke="#191816" stroke-width="0.5" stroke-linejoin="round"/>
<path d="M17.0948 4.27794C17.0137 4.19259 16.916 4.12463 16.8077 4.07819C16.6995 4.03176 16.583 4.00781 16.4652 4.00781C16.3474 4.00781 16.2308 4.03176 16.1226 4.07819C16.0144 4.12463 15.9167 4.19259 15.8355 4.27794L8.90931 11.2041C8.82726 11.2869 8.76268 11.3852 8.71942 11.4934C8.67615 11.6016 8.65508 11.7173 8.65745 11.8338V30.289C8.64813 30.5582 8.69324 30.8266 8.79008 31.078C8.88692 31.3294 9.03349 31.5587 9.22103 31.7521C9.40857 31.9455 9.63321 32.0991 9.88151 32.2037C10.1298 32.3082 10.3966 32.3616 10.666 32.3606H22.5665C22.798 32.3606 23.0271 32.3144 23.2404 32.2248C23.4538 32.1351 23.6471 32.0037 23.8089 31.8383C23.9708 31.6729 24.098 31.4768 24.1831 31.2616C24.2682 31.0464 24.3094 30.8163 24.3044 30.5849V11.8464C24.3056 11.7295 24.2833 11.6136 24.239 11.5054C24.1947 11.3973 24.1291 11.2991 24.0462 11.2167L17.0948 4.27794ZM16.4652 12.3501C15.9496 12.3501 15.4456 12.1972 15.0169 11.9108C14.5882 11.6244 14.2541 11.2172 14.0568 10.7409C13.8595 10.2646 13.8079 9.74045 13.9085 9.23479C14.0091 8.72912 14.2573 8.26464 14.6219 7.90008C14.9865 7.53551 15.451 7.28724 15.9566 7.18666C16.4623 7.08608 16.9864 7.1377 17.4627 7.335C17.9391 7.5323 18.3462 7.86642 18.6326 8.2951C18.9191 8.72378 19.0719 9.22777 19.0719 9.74335C19.072 10.4314 18.7999 11.0916 18.3151 11.58C17.8303 12.0683 17.1721 12.3451 16.4841 12.3501H16.4652Z" fill="#FDA18F"/>
<path d="M16.8742 12.3152C16.7452 12.3374 16.6147 12.35 16.4838 12.3529C15.7925 12.3529 15.1294 12.0783 14.6406 11.5894C14.1517 11.1006 13.8771 10.4375 13.8771 9.74617C13.8771 9.05481 14.1517 8.39176 14.6406 7.9029C15.1294 7.41404 15.7925 7.13939 16.4838 7.13939C16.6149 7.14439 16.7454 7.15912 16.8742 7.18347V4.13594C16.7126 4.05012 16.528 4.0179 16.3469 4.04393C16.1658 4.06997 15.9976 4.1529 15.8668 4.28076L8.94056 11.207C8.85852 11.2897 8.79394 11.388 8.75067 11.4962C8.7074 11.6044 8.68633 11.7201 8.6887 11.8366V30.2918C8.67946 30.5584 8.72358 30.8242 8.81848 31.0735C8.91338 31.3228 9.05714 31.5507 9.24133 31.7437C9.42551 31.9367 9.6464 32.0909 9.89102 32.1973C10.1356 32.3037 10.3991 32.3602 10.6658 32.3634H16.8742V12.3152Z" fill="#FFCEBF"/>
<path d="M13.0647 3.87033C12.9274 3.58023 12.7239 3.32649 12.4704 3.12959C12.217 2.9327 11.9208 2.79817 11.6058 2.73688C11.2907 2.67559 10.9657 2.68926 10.6569 2.77677C10.3482 2.86429 10.0643 3.0232 9.82827 3.24068C9.59218 3.45977 9.41096 3.73135 9.29926 4.03345C9.18756 4.33556 9.14852 4.65971 9.1853 4.97969C9.22208 5.29968 9.33365 5.60652 9.51097 5.8754C9.6883 6.14428 9.92642 6.36766 10.2061 6.52748L16.5026 9.72613L13.0647 3.87033Z" stroke="#191816" stroke-width="0.5" stroke-linecap="round" stroke-linejoin="round"/>
<path d="M17.0948 4.27794C17.0137 4.19259 16.916 4.12463 16.8077 4.07819C16.6995 4.03176 16.583 4.00781 16.4652 4.00781C16.3474 4.00781 16.2308 4.03176 16.1226 4.07819C16.0144 4.12463 15.9167 4.19259 15.8355 4.27794L8.90931 11.2041C8.82726 11.2869 8.76268 11.3852 8.71942 11.4934C8.67615 11.6016 8.65508 11.7173 8.65745 11.8338V30.289C8.64813 30.5582 8.69324 30.8266 8.79008 31.078C8.88692 31.3294 9.03349 31.5587 9.22103 31.7521C9.40857 31.9455 9.63321 32.0991 9.88151 32.2037C10.1298 32.3082 10.3966 32.3616 10.666 32.3606H22.5665C22.798 32.3606 23.0271 32.3144 23.2404 32.2248C23.4538 32.1351 23.6471 32.0037 23.8089 31.8383C23.9708 31.6729 24.098 31.4768 24.1831 31.2616C24.2682 31.0464 24.3094 30.8163 24.3044 30.5849V11.8464C24.3056 11.7295 24.2833 11.6136 24.239 11.5054C24.1947 11.3973 24.1291 11.2991 24.0462 11.2167L17.0948 4.27794ZM16.4652 12.3501C15.9496 12.3501 15.4456 12.1972 15.0169 11.9108C14.5882 11.6244 14.2541 11.2172 14.0568 10.7409C13.8595 10.2646 13.8079 9.74045 13.9085 9.23479C14.0091 8.72912 14.2573 8.26464 14.6219 7.90008C14.9865 7.53551 15.451 7.28724 15.9566 7.18666C16.4623 7.08608 16.9864 7.1377 17.4627 7.335C17.9391 7.5323 18.3462 7.86642 18.6326 8.2951C18.9191 8.72378 19.0719 9.22777 19.0719 9.74335C19.072 10.4314 18.7999 11.0916 18.3151 11.58C17.8303 12.0683 17.1721 12.3451 16.4841 12.3501H16.4652Z" stroke="#191816" stroke-width="0.5" stroke-linejoin="round"/>
<path d="M16.4846 28.3782C16.2191 28.3782 15.9644 28.2727 15.7767 28.085C15.5889 27.8972 15.4834 27.6426 15.4834 27.3771V26.8355C14.89 26.6277 14.3755 26.2414 14.0102 25.7296C13.645 25.2179 13.447 24.6056 13.4434 23.9769C13.4434 23.7114 13.5488 23.4567 13.7366 23.269C13.9243 23.0812 14.179 22.9758 14.4445 22.9758C14.71 22.9758 14.9647 23.0812 15.1524 23.269C15.3402 23.4567 15.4457 23.7114 15.4457 23.9769C15.4494 24.1818 15.5136 24.381 15.6303 24.5495C15.747 24.718 15.9109 24.8482 16.1014 24.9238C16.2919 24.9993 16.5005 25.0168 16.7009 24.9741C16.9014 24.9314 17.0847 24.8304 17.2279 24.6837C17.371 24.5371 17.4676 24.3514 17.5055 24.15C17.5433 23.9486 17.5208 23.7405 17.4407 23.5518C17.3605 23.3632 17.2264 23.2025 17.0552 23.0899C16.8839 22.9773 16.6832 22.9179 16.4783 22.9191C15.762 22.9175 15.0694 22.6627 14.5229 22.1996C13.9764 21.7365 13.6113 21.0951 13.4922 20.3888C13.3731 19.6825 13.5077 18.9568 13.8721 18.3401C14.2365 17.7235 14.8073 17.2556 15.4834 17.0192V16.484C15.4814 16.352 15.5061 16.221 15.5558 16.0988C15.6056 15.9765 15.6795 15.8656 15.7731 15.7725C15.8653 15.6791 15.9751 15.6048 16.0961 15.5541C16.2172 15.5033 16.347 15.4769 16.4783 15.4766C16.7439 15.4782 16.9983 15.584 17.1867 15.7712C17.3751 15.9584 17.4825 16.2121 17.4857 16.4777V17.0192C17.9174 17.165 18.3096 17.4085 18.6317 17.7307C18.9152 18.0118 19.1401 18.3463 19.2936 18.7148C19.447 19.0834 19.526 19.4786 19.5258 19.8779C19.5258 20.1434 19.4204 20.398 19.2326 20.5858C19.0448 20.7735 18.7902 20.879 18.5247 20.879C18.2592 20.879 18.0045 20.7735 17.8168 20.5858C17.629 20.398 17.5235 20.1434 17.5235 19.8779C17.5203 19.6033 17.4098 19.341 17.2156 19.1468C17.0215 18.9527 16.7591 18.8422 16.4846 18.8389C16.2091 18.8389 15.9448 18.9484 15.75 19.1432C15.5551 19.3381 15.4457 19.6023 15.4457 19.8779C15.4448 20.014 15.4709 20.1489 15.5225 20.275C15.574 20.401 15.6499 20.5156 15.7459 20.6121C15.8419 20.7087 15.956 20.7853 16.0817 20.8376C16.2074 20.8899 16.3422 20.9168 16.4783 20.9168C17.2008 20.9061 17.9032 21.1541 18.4589 21.6159C19.0146 22.0778 19.3868 22.7231 19.5085 23.4353C19.6301 24.1476 19.4931 24.8798 19.1221 25.4999C18.7512 26.12 18.1708 26.587 17.4857 26.8167V27.3582C17.4857 27.4896 17.4599 27.6198 17.4095 27.7413C17.3592 27.8628 17.2855 27.9731 17.1925 28.0661C17.0996 28.159 16.9892 28.2328 16.8677 28.2831C16.7463 28.3334 16.6161 28.3593 16.4846 28.3593V28.3782Z" fill="white" stroke="#191816" stroke-width="0.5" stroke-miterlimit="10"/>
</g>
<defs>
<filter id="filter0_d_1943_27506" x="0" y="0" width="44" height="44" filterUnits="userSpaceOnUse" color-interpolation-filters="sRGB">
<feFlood flood-opacity="0" result="BackgroundImageFix"/>
<feColorMatrix in="SourceAlpha" type="matrix" values="0 0 0 0 0 0 0 0 0 0 0 0 0 0 0 0 0 0 127 0" result="hardAlpha"/>
<feOffset dy="4"/>
<feGaussianBlur stdDeviation="2"/>
<feComposite in2="hardAlpha" operator="out"/>
<feColorMatrix type="matrix" values="0 0 0 0 0 0 0 0 0 0 0 0 0 0 0 0 0 0 0.15 0"/>
<feBlend mode="normal" in2="BackgroundImageFix" result="effect1_dropShadow_1943_27506"/>
<feBlend mode="normal" in="SourceGraphic" in2="effect1_dropShadow_1943_27506" result="shape"/>
</filter>
</defs>
</svg>
