<svg width="44" height="44" viewBox="0 0 44 44" fill="none" xmlns="http://www.w3.org/2000/svg">
<g filter="url(#filter0_d_1943_27366)">
<circle cx="22" cy="18" r="18" fill="#B05056"/>
</g>
<mask id="mask0_1943_27366" style="mask-type:alpha" maskUnits="userSpaceOnUse" x="4" y="0" width="36" height="36">
<circle cx="22" cy="18" r="18" fill="#B05056"/>
</mask>
<g mask="url(#mask0_1943_27366)">
<path d="M37.2996 13.0453C37.2996 13.1783 37.2743 13.3099 37.2251 13.4326C37.1759 13.5554 37.1038 13.667 37.0128 13.761C36.9219 13.855 36.814 13.9295 36.6952 13.9804C36.5764 14.0312 36.4491 14.0574 36.3205 14.0574H31.4249C31.2454 14.0642 31.0673 14.0219 30.9086 13.9347L22.8383 8.65361L14.5662 19.406C14.4756 19.5265 14.3595 19.624 14.2268 19.691C14.0941 19.758 13.9484 19.7927 13.8007 19.7924C13.7336 19.7984 13.6661 19.7984 13.599 19.7924L7.59961 18.4676V16.4189C7.66674 16.413 7.73424 16.413 7.80137 16.4189L13.4091 17.6456L21.8532 6.68468C22.0005 6.48798 22.2135 6.3551 22.4505 6.312C22.6875 6.2689 22.9316 6.31867 23.135 6.4516L31.7097 12.0333H36.3205C36.5802 12.0333 36.8292 12.1399 37.0128 12.3297C37.1965 12.5195 37.2996 12.7769 37.2996 13.0453Z" fill="white" stroke="#191816" stroke-miterlimit="10"/>
<path d="M15.9357 23.3984H10.962C10.7861 23.3984 10.6174 23.4722 10.4931 23.6035C10.3687 23.7347 10.2988 23.9128 10.2988 24.0984V29.6984H16.5988V24.0984C16.5988 23.9128 16.529 23.7347 16.4046 23.6035C16.2802 23.4722 16.1116 23.3984 15.9357 23.3984Z" fill="#FFCEC3"/>
<path d="M15.9357 23.3984H10.962C10.7861 23.3984 10.6174 23.4696 10.4931 23.5961C10.3687 23.7227 10.2988 23.8944 10.2988 24.0734V26.0984C10.2988 25.9194 10.3687 25.7477 10.4931 25.6211C10.6174 25.4946 10.7861 25.4234 10.962 25.4234H15.9357C16.1116 25.4234 16.2802 25.4946 16.4046 25.6211C16.529 25.7477 16.5988 25.9194 16.5988 26.0984V24.0734C16.5988 23.8944 16.529 23.7227 16.4046 23.5961C16.2802 23.4696 16.1116 23.3984 15.9357 23.3984Z" fill="#FDA18F"/>
<path d="M15.9357 23.3984H10.962C10.7861 23.3984 10.6174 23.4722 10.4931 23.6035C10.3687 23.7347 10.2988 23.9128 10.2988 24.0984V29.6984H16.5988V24.0984C16.5988 23.9128 16.529 23.7347 16.4046 23.6035C16.2802 23.4722 16.1116 23.3984 15.9357 23.3984V23.3984Z" stroke="#191816" stroke-linecap="round" stroke-linejoin="round"/>
<path d="M19.9017 18H24.996C25.1558 18 25.3092 18.0642 25.4223 18.1785C25.5353 18.2928 25.5988 18.4478 25.5988 18.6094V29.7H19.2988V18.6094C19.2988 18.4478 19.3623 18.2928 19.4754 18.1785C19.5885 18.0642 19.7418 18 19.9017 18Z" fill="#FFCEC3"/>
<path d="M24.9176 18.0003H19.9439C19.7712 18.005 19.6071 18.0783 19.4866 18.2043C19.3661 18.3304 19.2988 18.4993 19.2988 18.6752V20.7C19.2988 20.521 19.3687 20.3493 19.4931 20.2227C19.6174 20.0962 19.7861 20.0251 19.962 20.0251H24.9357C25.1115 20.0251 25.2802 20.0962 25.4046 20.2227C25.529 20.3493 25.5988 20.521 25.5988 20.7V18.6752C25.5989 18.585 25.5811 18.4957 25.5467 18.4126C25.5122 18.3295 25.4618 18.2542 25.3982 18.1913C25.3347 18.1284 25.2595 18.0791 25.1769 18.0462C25.0944 18.0134 25.0062 17.9978 24.9176 18.0003Z" fill="#FDA18F"/>
<path d="M19.9017 18H24.996C25.1558 18 25.3092 18.0642 25.4223 18.1785C25.5353 18.2928 25.5988 18.4478 25.5988 18.6094V29.7H19.2988V18.6094C19.2988 18.4478 19.3623 18.2928 19.4754 18.1785C19.5885 18.0642 19.7418 18 19.9017 18Z" stroke="#191816" stroke-linecap="round" stroke-linejoin="round"/>
<path d="M28.8156 21.5977H33.1821C33.3191 21.5977 33.4506 21.6626 33.5475 21.7781C33.6444 21.8936 33.6988 22.0503 33.6988 22.2136V29.6977H28.2988V22.2136C28.2988 22.0503 28.3533 21.8936 28.4502 21.7781C28.5471 21.6626 28.6785 21.5977 28.8156 21.5977Z" fill="#FFCEC3"/>
<path d="M33.1299 21.5977H28.8672C28.7164 21.5977 28.5719 21.6688 28.4653 21.7954C28.3587 21.9219 28.2988 22.0936 28.2988 22.2727V24.2977C28.2988 24.1186 28.3587 23.9469 28.4653 23.8204C28.5719 23.6938 28.7164 23.6227 28.8672 23.6227H33.1299C33.2806 23.6227 33.4252 23.6938 33.5318 23.8204C33.6384 23.9469 33.6982 24.1186 33.6982 24.2977V22.3033C33.7017 22.2121 33.6896 22.1211 33.6626 22.0356C33.6356 21.9501 33.5943 21.872 33.5412 21.8061C33.4881 21.7401 33.4242 21.6876 33.3535 21.6518C33.2828 21.616 33.2067 21.5976 33.1299 21.5977Z" fill="#FDA18F"/>
<path d="M28.8156 21.5977H33.1821C33.3191 21.5977 33.4506 21.6626 33.5475 21.7781C33.6444 21.8936 33.6988 22.0503 33.6988 22.2136V29.6977H28.2988V22.2136C28.2988 22.0503 28.3533 21.8936 28.4502 21.7781C28.5471 21.6626 28.6785 21.5977 28.8156 21.5977Z" stroke="#191816" stroke-linecap="round" stroke-linejoin="round"/>
<path d="M7.59961 5.39844V29.6984H37.2996" stroke="#191816" stroke-linecap="round" stroke-linejoin="round"/>
</g>
<defs>
<filter id="filter0_d_1943_27366" x="0" y="0" width="44" height="44" filterUnits="userSpaceOnUse" color-interpolation-filters="sRGB">
<feFlood flood-opacity="0" result="BackgroundImageFix"/>
<feColorMatrix in="SourceAlpha" type="matrix" values="0 0 0 0 0 0 0 0 0 0 0 0 0 0 0 0 0 0 127 0" result="hardAlpha"/>
<feOffset dy="4"/>
<feGaussianBlur stdDeviation="2"/>
<feComposite in2="hardAlpha" operator="out"/>
<feColorMatrix type="matrix" values="0 0 0 0 0 0 0 0 0 0 0 0 0 0 0 0 0 0 0.15 0"/>
<feBlend mode="normal" in2="BackgroundImageFix" result="effect1_dropShadow_1943_27366"/>
<feBlend mode="normal" in="SourceGraphic" in2="effect1_dropShadow_1943_27366" result="shape"/>
</filter>
</defs>
</svg>
