<svg width="26" height="28" viewBox="0 0 26 28" fill="none" xmlns="http://www.w3.org/2000/svg">
<path d="M21.3333 19.7067V12.6667L25.3333 8.66669L20 3.33335L16 7.33335H6.66667V6.00002H10.6667V0.666687H0V6.00002H4V14H0V19.3334H4V26H9.70667C9.93935 26.4031 10.2735 26.7382 10.6758 26.9721C11.0781 27.206 11.5346 27.3305 12 27.3334C12.4688 27.3362 12.93 27.2154 13.3372 26.9831C13.7444 26.7509 14.0832 26.4154 14.3194 26.0105C14.5556 25.6056 14.6809 25.1456 14.6827 24.6768C14.6845 24.208 14.5626 23.7471 14.3295 23.3404C14.0963 22.9337 13.76 22.5957 13.3546 22.3604C12.9492 22.1251 12.4889 22.0008 12.0201 22.0001C11.5513 21.9994 11.0906 22.1222 10.6845 22.3563C10.2783 22.5904 9.94106 22.9274 9.70667 23.3334H6.66667V19.3334H10.6667V14H6.66667V10H16L18.6667 12.6667V19.6934C18.1583 19.9869 17.761 20.4399 17.5363 20.9823C17.3117 21.5246 17.2723 22.1259 17.4242 22.6929C17.5761 23.26 17.9109 23.761 18.3766 24.1184C18.8424 24.4757 19.413 24.6694 20 24.6694C20.587 24.6694 21.1576 24.4757 21.6234 24.1184C22.0891 23.761 22.4239 23.26 22.5758 22.6929C22.7277 22.1259 22.6883 21.5246 22.4637 20.9823C22.239 20.4399 21.8417 19.9869 21.3333 19.6934V19.7067ZM1.33333 4.66669V2.00002H9.33333V4.66669H1.33333ZM12 23.3334C12.2637 23.3334 12.5215 23.4116 12.7408 23.5581C12.96 23.7046 13.1309 23.9128 13.2318 24.1564C13.3328 24.4001 13.3592 24.6682 13.3077 24.9268C13.2563 25.1854 13.1293 25.423 12.9428 25.6095C12.7563 25.796 12.5188 25.923 12.2601 25.9744C12.0015 26.0258 11.7334 25.9994 11.4898 25.8985C11.2461 25.7976 11.0379 25.6267 10.8914 25.4074C10.7449 25.1882 10.6667 24.9304 10.6667 24.6667C10.6667 24.3131 10.8071 23.9739 11.0572 23.7239C11.3072 23.4738 11.6464 23.3334 12 23.3334ZM9.33333 15.3334V18H1.33333V15.3334H9.33333ZM20 5.21335L23.4533 8.66669L20 12.12L16.5467 8.66669L20 5.21335ZM20 23.3334C19.7363 23.3334 19.4785 23.2552 19.2592 23.1086C19.04 22.9621 18.8691 22.7539 18.7682 22.5103C18.6672 22.2666 18.6408 21.9985 18.6923 21.7399C18.7437 21.4813 18.8707 21.2437 19.0572 21.0572C19.2437 20.8707 19.4812 20.7438 19.7399 20.6923C19.9985 20.6409 20.2666 20.6673 20.5102 20.7682C20.7539 20.8691 20.9621 21.04 21.1086 21.2593C21.2551 21.4785 21.3333 21.7363 21.3333 22C21.3333 22.3536 21.1929 22.6928 20.9428 22.9428C20.6928 23.1929 20.3536 23.3334 20 23.3334Z" fill="#B05056"/>
</svg>
