<svg width="30" height="30" viewBox="0 0 30 30" fill="none" xmlns="http://www.w3.org/2000/svg">
<path d="M15 30C22.7727 30 29.1682 24.0818 29.9318 16.5C30.0136 15.6955 29.3727 15 28.5682 15C27.8727 15 27.2864 15.5182 27.2182 16.2C26.6182 22.4182 21.3682 27.2727 15 27.2727C10.7455 27.2727 6.99545 25.1045 4.8 21.8182H6.81818C7.56818 21.8182 8.18182 21.2045 8.18182 20.4545C8.18182 19.7045 7.56818 19.0909 6.81818 19.0909H1.36364C0.613636 19.0909 0 19.7045 0 20.4545V25.9091C0 26.6591 0.613636 27.2727 1.36364 27.2727C2.11364 27.2727 2.72727 26.6591 2.72727 25.9091V23.6318C5.44091 27.4773 9.92727 30 15 30ZM15 0C7.22727 0 0.831818 5.91818 0.0681818 13.5C-6.60392e-08 14.3045 0.627273 15 1.43182 15C2.12727 15 2.71364 14.4818 2.78182 13.8C3.38182 7.58182 8.63182 2.72727 15 2.72727C19.2545 2.72727 23.0045 4.89545 25.2 8.18182H23.1818C22.4318 8.18182 21.8182 8.79545 21.8182 9.54545C21.8182 10.2955 22.4318 10.9091 23.1818 10.9091H28.6364C29.3864 10.9091 30 10.2955 30 9.54545V4.09091C30 3.34091 29.3864 2.72727 28.6364 2.72727C27.8864 2.72727 27.2727 3.34091 27.2727 4.09091V6.36818C24.5591 2.52273 20.0727 0 15 0ZM13.8 6.65455C13.8 5.98636 14.3455 5.45455 15 5.45455C15.6545 5.45455 16.2 5.98636 16.2 6.65455V7.15909C17.6591 7.41818 18.5864 8.19545 19.1455 8.93182C19.6091 9.53182 19.3636 10.4045 18.6545 10.7045C18.1636 10.9091 17.5909 10.7455 17.2636 10.3227C16.8818 9.80455 16.2 9.27273 15.0818 9.27273C14.1273 9.27273 12.6136 9.77727 12.6136 11.1682C12.6136 12.4636 13.7864 12.9545 16.2136 13.7591C19.4864 14.8909 20.3182 16.5545 20.3182 18.4636C20.3182 22.0364 16.9091 22.7318 16.2 22.8545V23.3591C16.2 24.0136 15.6682 24.5591 15 24.5591C14.3318 24.5591 13.8 24.0273 13.8 23.3591V22.7864C12.9409 22.5818 11.1682 21.9545 10.1318 19.9227C9.81818 19.3227 10.1727 18.5318 10.8 18.2864C11.3591 18.0682 12.0273 18.2727 12.3136 18.8045C12.75 19.6364 13.6091 20.6727 15.2045 20.6727C16.4727 20.6727 17.9045 20.0182 17.9045 18.4773C17.9045 17.1682 16.95 16.4864 14.7955 15.7091C13.2955 15.1773 10.2273 14.3045 10.2273 11.1955C10.2273 11.0591 10.2409 7.92273 13.8 7.15909V6.65455Z" fill="#B05056"/>
</svg>
