<svg width="22" height="21" viewBox="0 0 22 21" fill="none" xmlns="http://www.w3.org/2000/svg">
<path d="M2.68921 2.24136C2.37083 2.24136 2.10717 2.1339 1.89823 1.91898C1.68929 1.70405 1.58482 1.43284 1.58482 1.10533C1.58482 0.798294 1.68929 0.537314 1.89823 0.322388C2.10717 0.107463 2.37083 0 2.68921 0H20.2103C20.5088 0 20.7625 0.107463 20.9715 0.322388C21.1804 0.537314 21.2849 0.798294 21.2849 1.10533C21.2849 1.43284 21.1804 1.70405 20.9715 1.91898C20.7625 2.1339 20.5088 2.24136 20.2103 2.24136H2.68921ZM2.80861 20.5714C2.51012 20.5714 2.25641 20.464 2.04747 20.249C1.83853 20.0341 1.73406 19.7731 1.73406 19.4661V12.5885H1.07739C0.719209 12.5885 0.435648 12.4503 0.226708 12.174C0.0177681 11.8977 -0.046904 11.5855 0.0326922 11.2375L1.40573 4.94328C1.44552 4.69765 1.56989 4.49296 1.77883 4.32921C1.98777 4.16546 2.21164 4.08358 2.45043 4.08358H20.4193C20.6581 4.08358 20.8769 4.16546 21.0759 4.32921C21.2749 4.49296 21.4043 4.69765 21.464 4.94328L22.837 11.2375C22.8967 11.5855 22.8221 11.8977 22.6131 12.174C22.4042 12.4503 22.1306 12.5885 21.7923 12.5885H21.1058V19.4354C21.1058 19.7629 21.0013 20.0341 20.7924 20.249C20.5834 20.464 20.3297 20.5714 20.0312 20.5714C19.7128 20.5714 19.4492 20.464 19.2402 20.249C19.0313 20.0341 18.9268 19.7629 18.9268 19.4354V12.5885H13.6138V19.4661C13.6138 19.7731 13.5093 20.0341 13.3004 20.249C13.0914 20.464 12.8377 20.5714 12.5392 20.5714H2.80861ZM3.91301 18.3301H11.4348V12.5885H3.91301V18.3301ZM2.36088 10.3471H20.479H2.36088ZM2.36088 10.3471H20.479L19.6134 6.32495H3.25634L2.36088 10.3471Z" fill="#B05056"/>
</svg>
