<svg width="25" height="25" viewBox="0 0 25 25" fill="none" xmlns="http://www.w3.org/2000/svg">
<path d="M11.9833 17.6104C13.9502 16.019 15.4254 14.4955 16.4088 13.04C17.3923 11.5844 17.884 10.2259 17.884 8.96442C17.884 7.8582 17.6815 6.91695 17.2766 6.14065C16.8716 5.36436 16.3703 4.73362 15.7725 4.24844C15.1747 3.76326 14.5335 3.40907 13.849 3.18589C13.1644 2.96271 12.5425 2.85111 11.9833 2.85111C11.4241 2.85111 10.8022 2.96271 10.1176 3.18589C9.43308 3.40907 8.79191 3.76326 8.19413 4.24844C7.59634 4.73362 7.0998 5.36436 6.70449 6.14065C6.30918 6.91695 6.11153 7.8582 6.11153 8.96442C6.11153 10.2259 6.59843 11.5844 7.57224 13.04C8.54605 14.4955 10.0164 16.019 11.9833 17.6104ZM11.9833 19.9101C11.8483 19.9101 11.7037 19.8956 11.5494 19.8665C11.3952 19.8374 11.2602 19.7743 11.1445 19.6773C8.71478 17.7753 6.9166 15.9414 5.74996 14.1753C4.58332 12.4092 4 10.6723 4 8.96442C4 7.60591 4.24104 6.41721 4.72313 5.39832C5.20521 4.37944 5.8271 3.52552 6.58879 2.83656C7.35048 2.1476 8.20377 1.6236 9.14865 1.26457C10.0935 0.905531 11.0384 0.726013 11.9833 0.726013C12.9089 0.726013 13.849 0.905531 14.8035 1.26457C15.758 1.6236 16.6161 2.1476 17.3778 2.83656C18.1395 3.52552 18.7662 4.37944 19.2579 5.39832C19.7497 6.41721 19.9955 7.60591 19.9955 8.96442C19.9955 10.6723 19.4074 12.4092 18.2311 14.1753C17.0548 15.9414 15.2518 17.7753 12.8221 19.6773C12.7064 19.7743 12.5714 19.8374 12.4172 19.8665C12.2629 19.8956 12.1183 19.9101 11.9833 19.9101ZM11.9833 11.0022C12.6004 11.0022 13.1258 10.7839 13.5597 10.3472C13.9936 9.91053 14.2105 9.39138 14.2105 8.78975C14.2105 8.16872 13.9936 7.63987 13.5597 7.20321C13.1258 6.76654 12.6004 6.54821 11.9833 6.54821C11.3855 6.54821 10.8697 6.76654 10.4358 7.20321C10.0019 7.63987 9.785 8.16872 9.785 8.78975C9.785 9.39138 10.0019 9.91053 10.4358 10.3472C10.8697 10.7839 11.3855 11.0022 11.9833 11.0022ZM5.0413 24.6843C4.75205 24.6843 4.50619 24.5825 4.30371 24.3787C4.10124 24.1749 4 23.9275 4 23.6364C4 23.3452 4.10124 23.0929 4.30371 22.8795C4.50619 22.666 4.75205 22.5592 5.0413 22.5592H18.9253C19.2146 22.5592 19.4652 22.666 19.6774 22.8795C19.8895 23.0929 19.9955 23.3452 19.9955 23.6364C19.9955 23.9275 19.8895 24.1749 19.6774 24.3787C19.4652 24.5825 19.2146 24.6843 18.9253 24.6843H5.0413Z" fill="#5AB255"/>
</svg>
