<svg width="21" height="24" viewBox="0 0 21 24" fill="none" xmlns="http://www.w3.org/2000/svg">
<path d="M8.42768 23.8421H1.70622C1.25812 23.8421 0.861726 23.6484 0.517036 23.2609C0.172345 22.8734 0 22.4278 0 21.9241V4.42977C0 3.92606 0.168037 3.48047 0.50411 3.093C0.840183 2.70552 1.20642 2.51179 1.60281 2.51179H6.66976C6.84211 1.81434 7.18249 1.24766 7.69091 0.811757C8.19933 0.375851 8.78099 0.157898 9.4359 0.157898C10.0736 0.157898 10.6466 0.375851 11.155 0.811757C11.6635 1.24766 12.0125 1.81434 12.202 2.51179H17.269C17.7171 2.51179 18.1135 2.70552 18.4582 3.093C18.8029 3.48047 18.9752 3.92606 18.9752 4.42977V10.5906H17.088V4.6332H14.6321V6.6093C14.6321 7.20988 14.4511 7.7136 14.0892 8.12044C13.7273 8.52729 13.2792 8.73071 12.7449 8.73071H6.23028C5.69601 8.73071 5.24791 8.52729 4.88599 8.12044C4.52406 7.7136 4.3431 7.20988 4.3431 6.6093V4.6332H1.88718V21.7207H8.42768V23.8421ZM13.3654 19.948L18.9494 13.671C19.1217 13.4772 19.3371 13.3852 19.5957 13.3949C19.8542 13.4046 20.0782 13.5063 20.2678 13.7C20.4401 13.9131 20.5263 14.1698 20.5263 14.4701C20.5263 14.7704 20.4401 15.0174 20.2678 15.2112L14.0375 22.2147C13.8479 22.4278 13.6239 22.5344 13.3654 22.5344C13.1069 22.5344 12.8914 22.4278 12.7191 22.2147L9.64272 18.7565C9.45314 18.5628 9.36266 18.3158 9.37127 18.0155C9.37989 17.7152 9.47899 17.4585 9.66857 17.2454C9.84091 17.0517 10.0607 16.9548 10.3278 16.9548C10.5949 16.9548 10.8233 17.0517 11.0129 17.2454L13.3654 19.948ZM9.74612 4.48789C10.0219 4.48789 10.2632 4.3765 10.47 4.1537C10.6768 3.9309 10.7802 3.65483 10.7802 3.32548C10.7802 3.0155 10.6768 2.74427 10.47 2.51179C10.2632 2.27931 10.0219 2.16306 9.74612 2.16306C9.45314 2.16306 9.20754 2.27931 9.00935 2.51179C8.81115 2.74427 8.71205 3.0155 8.71205 3.32548C8.71205 3.65483 8.81115 3.9309 9.00935 4.1537C9.20754 4.3765 9.45314 4.48789 9.74612 4.48789Z" fill="#B05056"/>
</svg>
