<svg width="28" height="28" viewBox="0 0 28 28" fill="none" xmlns="http://www.w3.org/2000/svg">
<path d="M13.0255 0.302534C9.67871 0.541094 6.57603 1.98421 4.20555 4.40873C2.68655 5.95993 1.65587 7.6363 0.988908 9.64865C0.256428 11.8399 0.0884278 14.2376 0.500588 16.4941C1.50411 21.9944 5.81639 26.3773 11.2895 27.4732C12.304 27.6739 12.7976 27.7227 14.0016 27.7227C15.6833 27.7227 16.8114 27.5437 18.3139 27.0445C22.4744 25.6722 25.6748 22.4718 27.0471 18.3113C27.5517 16.7926 27.7253 15.6751 27.7197 13.9719C27.7197 12.4097 27.5676 11.3519 27.1501 9.98494C25.5609 4.82622 21.1128 1.07281 15.7698 0.383734C14.9783 0.286293 13.8065 0.248215 13.0255 0.302534ZM15.5749 3.16105C17.4899 3.42146 19.372 4.24606 20.9179 5.49346C21.4387 5.91121 22.3717 6.88198 22.7732 7.41369C25.3173 10.8093 25.686 15.3766 23.7115 19.1141C22.6645 21.0886 21.0915 22.6617 19.1169 23.7086C16.4861 25.0971 13.4159 25.3522 10.5845 24.4139C8.94623 23.8715 7.67167 23.1013 6.41867 21.897C4.61211 20.1503 3.52207 18.0184 3.15303 15.5177C3.03907 14.7365 3.03907 13.2665 3.15303 12.48C3.84183 7.74466 7.44907 4.02877 12.1575 3.19885C13.1664 3.01994 14.4628 3.00369 15.5749 3.16105Z" fill="#5AB255"/>
<path d="M6.55947 10.0609C6.46175 10.1205 6.34247 10.2507 6.28815 10.3484C6.19603 10.5164 6.19043 10.7606 6.19043 14.0806C6.19043 17.4165 6.19575 17.6444 6.28815 17.8342C6.55387 18.3713 7.27543 18.3713 7.58987 17.8396C7.67667 17.6878 7.68759 17.5086 7.68759 16.1416L7.69291 14.612L8.27335 14.6338C8.80507 14.6501 8.88095 14.6663 9.08703 14.8018C9.41799 15.0242 9.68371 15.3985 10.3781 16.63C11.0997 17.921 11.208 18.0784 11.4684 18.1868C11.8753 18.3548 12.3961 18.1162 12.4829 17.715C12.6077 17.1564 11.425 15.1328 10.6494 14.5633L10.4433 14.4168L10.7309 14.3247C11.4578 14.0859 11.8809 13.7552 12.1413 13.2235C12.3149 12.8763 12.3202 12.8385 12.3202 12.209C12.3202 11.6504 12.2986 11.5093 12.19 11.2327C12.0111 10.7878 11.5174 10.2944 11.0725 10.1152C10.7525 9.99032 10.7144 9.98501 8.74011 9.96877C6.81987 9.95784 6.72775 9.95785 6.55947 10.0609ZM10.1776 11.2705C10.8558 11.5634 11.0347 12.5235 10.5192 13.0605C10.2479 13.3425 9.94439 13.4021 8.76727 13.4021H7.70943L7.69851 12.3443C7.68759 11.7638 7.69319 11.254 7.70943 11.2106C7.75283 11.1025 9.90631 11.1512 10.1776 11.2705Z" fill="#5AB255"/>
<path d="M14.1485 10.0506C13.7688 10.2351 13.785 10.0722 13.785 14.0809C13.785 17.4493 13.7903 17.6991 13.8827 17.8671C14.1594 18.377 14.8319 18.377 15.0599 17.8671C15.1629 17.6448 15.1685 17.4874 15.1685 14.6829C15.1685 13.0612 15.1794 11.7429 15.1957 11.7592C15.2119 11.7701 15.5266 13.0827 15.8954 14.672C16.5951 17.6392 16.671 17.8943 16.9748 18.1166C17.1755 18.263 17.6798 18.2686 17.8915 18.1275C18.2225 17.9105 18.2278 17.8943 19.1011 14.1353C19.3887 12.8985 19.6381 11.8463 19.6597 11.8029C19.6815 11.7595 19.7084 13.0939 19.7249 14.77C19.7521 17.7534 19.7521 17.8184 19.8661 17.9704C19.9257 18.0519 20.0777 18.1549 20.197 18.1981C20.3869 18.2686 20.4465 18.2686 20.6201 18.1981C20.7341 18.1547 20.8752 18.0516 20.9401 17.9704C21.0541 17.8184 21.0541 17.7859 21.065 14.1462C21.0759 11.2767 21.065 10.4468 21.0107 10.3382C20.9726 10.2676 20.8589 10.1483 20.7612 10.0831C20.5932 9.96914 20.5171 9.95822 19.8663 9.95822C18.9659 9.95822 18.8684 10.0069 18.7001 10.5115C18.6405 10.7013 18.3585 11.8026 18.071 12.9688C17.7834 14.1297 17.5286 15.1819 17.4959 15.3012C17.4362 15.5073 17.4037 15.4042 16.8015 12.9688C16.4489 11.564 16.1236 10.3435 16.0799 10.2511C15.9444 10.0016 15.787 9.95822 15.0167 9.95822C14.4901 9.95822 14.284 9.98006 14.1485 10.0506Z" fill="#5AB255"/>
</svg>
