<svg width="18" height="19" viewBox="0 0 18 19" fill="none" xmlns="http://www.w3.org/2000/svg">
<path d="M8.991 0.554688C4.023 0.554688 0 4.58669 0 9.55469C0 14.5227 4.023 18.5547 8.991 18.5547C13.968 18.5547 18 14.5227 18 9.55469C18 4.58669 13.968 0.554688 8.991 0.554688ZM15.228 5.95469H12.573C12.285 4.82969 11.871 3.74969 11.331 2.75069C12.987 3.31769 14.364 4.46969 15.228 5.95469ZM9 2.39069C9.747 3.47069 10.332 4.66769 10.719 5.95469H7.281C7.668 4.66769 8.253 3.47069 9 2.39069ZM2.034 11.3547C1.89 10.7787 1.8 10.1757 1.8 9.55469C1.8 8.93369 1.89 8.33069 2.034 7.75469H5.076C5.004 8.34869 4.95 8.94269 4.95 9.55469C4.95 10.1667 5.004 10.7607 5.076 11.3547H2.034ZM2.772 13.1547H5.427C5.715 14.2797 6.129 15.3597 6.669 16.3587C5.013 15.7917 3.636 14.6487 2.772 13.1547ZM5.427 5.95469H2.772C3.636 4.46069 5.013 3.31769 6.669 2.75069C6.129 3.74969 5.715 4.82969 5.427 5.95469ZM9 16.7187C8.253 15.6387 7.668 14.4417 7.281 13.1547H10.719C10.332 14.4417 9.747 15.6387 9 16.7187ZM11.106 11.3547H6.894C6.813 10.7607 6.75 10.1667 6.75 9.55469C6.75 8.94269 6.813 8.33969 6.894 7.75469H11.106C11.187 8.33969 11.25 8.94269 11.25 9.55469C11.25 10.1667 11.187 10.7607 11.106 11.3547ZM11.331 16.3587C11.871 15.3597 12.285 14.2797 12.573 13.1547H15.228C14.364 14.6397 12.987 15.7917 11.331 16.3587ZM12.924 11.3547C12.996 10.7607 13.05 10.1667 13.05 9.55469C13.05 8.94269 12.996 8.34869 12.924 7.75469H15.966C16.11 8.33069 16.2 8.93369 16.2 9.55469C16.2 10.1757 16.11 10.7787 15.966 11.3547H12.924Z" fill="#B05056"/>
</svg>
