<svg width="19" height="21" viewBox="0 0 19 21" fill="none" xmlns="http://www.w3.org/2000/svg">
<path d="M11.0083 3.0756L10.1443 1.36972C9.94025 0.969715 9.52025 0.722656 9.06425 0.722656H1.40825C0.748252 0.722656 0.208252 1.25207 0.208252 1.89913V19.5462C0.208252 20.1932 0.748252 20.7227 1.40825 20.7227C2.06825 20.7227 2.60825 20.1932 2.60825 19.5462V12.4874H8.60825L9.47225 14.1932C9.67625 14.5932 10.0963 14.8403 10.5403 14.8403H17.0083C17.6683 14.8403 18.2083 14.3109 18.2083 13.6638V4.25207C18.2083 3.60501 17.6683 3.0756 17.0083 3.0756H11.0083ZM15.8083 12.4874H11.0083L9.80825 10.1344H2.60825V3.0756H8.60825L9.80825 5.42854H15.8083V12.4874Z" fill="#74C46F"/>
</svg>
