<svg width="31" height="31" viewBox="0 0 31 31" fill="none" xmlns="http://www.w3.org/2000/svg">
<path d="M15.5 0.1875C7.04395 0.1875 0.1875 7.04395 0.1875 15.5C0.1875 23.9561 7.04395 30.8125 15.5 30.8125C23.9561 30.8125 30.8125 23.9561 30.8125 15.5C30.8125 7.04395 23.9561 0.1875 15.5 0.1875ZM16.2622 22.9238L16.269 24.0073C16.269 24.1577 16.146 24.2842 15.9956 24.2842H15.0249C14.8745 24.2842 14.7515 24.1611 14.7515 24.0107V22.9375C11.7163 22.7119 10.2876 20.9824 10.1338 19.1025C10.1201 18.9419 10.2466 18.8052 10.4072 18.8052H11.9863C12.1196 18.8052 12.2358 18.9009 12.2563 19.0308C12.4307 20.1143 13.2749 20.9243 14.7891 21.126V16.2485L13.9448 16.0332C12.1572 15.606 10.4551 14.4917 10.4551 12.1812C10.4551 9.68945 12.3486 8.34961 14.7686 8.11377V6.98584C14.7686 6.83545 14.8916 6.7124 15.042 6.7124H16.0024C16.1528 6.7124 16.2759 6.83545 16.2759 6.98584V8.10352C18.6172 8.33936 20.374 9.70654 20.5791 11.8359C20.5962 11.9966 20.4697 12.1367 20.3057 12.1367H18.771C18.6343 12.1367 18.5181 12.0342 18.501 11.9009C18.3643 10.9028 17.5645 10.0894 16.2622 9.91162V14.502L17.1304 14.7036C19.3452 15.2505 20.8525 16.3101 20.8525 18.6821C20.8525 21.2559 18.9385 22.6914 16.2622 22.9238ZM12.5811 12.0239C12.5811 12.8921 13.1177 13.5654 14.2729 13.9824C14.4336 14.0474 14.5942 14.0986 14.7856 14.1533V9.91504C13.5244 10.0757 12.5811 10.7832 12.5811 12.0239ZM16.563 16.645C16.4673 16.6245 16.3716 16.6006 16.2622 16.5698V21.1396C17.7183 21.0098 18.7231 20.21 18.7231 18.8701C18.7231 17.8208 18.1797 17.1372 16.563 16.645Z" fill="#B05056"/>
</svg>
