<svg width="44" height="44" viewBox="0 0 44 44" fill="none" xmlns="http://www.w3.org/2000/svg">
<g filter="url(#filter0_d_1943_27561)">
<circle cx="22" cy="18" r="18" fill="#B05056"/>
</g>
<mask id="mask0_1943_27561" style="mask-type:alpha" maskUnits="userSpaceOnUse" x="4" y="0" width="36" height="36">
<circle cx="22" cy="18" r="18" fill="#EBB7BA"/>
</mask>
<g mask="url(#mask0_1943_27561)">
<path d="M24.3481 27.5742H21.7649C21.4083 27.5742 21.1191 27.8633 21.1191 28.22V31.7719C21.1191 32.1285 21.4083 32.4177 21.7649 32.4177H24.3481C24.7048 32.4177 24.9939 32.1285 24.9939 31.7719V28.22C24.9939 27.8633 24.7048 27.5742 24.3481 27.5742Z" fill="#B05056"/>
<path d="M17.443 11.7877C17.2662 11.7868 17.0908 11.8196 16.9264 11.8845C16.8339 11.3296 16.5476 10.8254 16.1184 10.4617C15.6891 10.098 15.1447 9.89844 14.5821 9.89844C14.0195 9.89844 13.4752 10.098 13.0459 10.4617C12.6167 10.8254 12.3303 11.3296 12.2379 11.8845C12.0759 11.819 11.9025 11.7861 11.7277 11.7877C11.3492 11.7877 10.9862 11.938 10.7186 12.2057C10.4509 12.4733 10.3005 12.8363 10.3005 13.2149C10.3005 13.5934 10.4509 13.9564 10.7186 14.224C10.9862 14.4917 11.3492 14.6421 11.7277 14.6421H17.443C17.8215 14.6421 18.1845 14.4917 18.4522 14.224C18.7198 13.9564 18.8702 13.5934 18.8702 13.2149C18.8702 12.8363 18.7198 12.4733 18.4522 12.2057C18.1845 11.938 17.8215 11.7877 17.443 11.7877Z" fill="white" stroke="#191816" stroke-width="0.5" stroke-linejoin="round"/>
<path d="M34.9709 19.281C35.0756 19.2807 35.1787 19.255 35.2712 19.206C35.3637 19.157 35.443 19.0862 35.5021 18.9998C35.5612 18.9133 35.5984 18.8138 35.6105 18.7098C35.6226 18.6058 35.6092 18.5004 35.5715 18.4027L34.564 15.8196C34.0133 14.3458 32.9889 13.0965 31.6515 12.2677L27.7768 9.89121C27.6786 9.83453 27.5672 9.80469 27.4539 9.80469C27.3405 9.80469 27.2292 9.83453 27.131 9.89121L23.2562 12.2677C21.9164 13.0954 20.8896 14.3448 20.3372 15.8196L19.3363 18.4027C19.2986 18.5004 19.2852 18.6058 19.2973 18.7098C19.3094 18.8138 19.3466 18.9133 19.4057 18.9998C19.4648 19.0862 19.544 19.157 19.6366 19.206C19.7291 19.255 19.8321 19.2807 19.9369 19.281H34.9709Z" fill="#FFCEC4"/>
<path d="M27.4158 13.4958C30.1621 13.4526 32.8146 14.4946 34.7972 16.3954L34.5648 15.7883C34.014 14.3145 32.9896 13.0652 31.6522 12.2365L27.7775 9.85996C27.6793 9.80328 27.5679 9.77344 27.4546 9.77344C27.3412 9.77344 27.2299 9.80328 27.1317 9.85996L23.2569 12.2365C21.9171 13.0641 20.8903 14.3135 20.338 15.7883L20.1055 16.3954C22.0713 14.5131 24.6943 13.4727 27.4158 13.4958Z" fill="#FDA18F"/>
<path d="M34.9709 19.281C35.0756 19.2807 35.1787 19.255 35.2712 19.206C35.3637 19.157 35.443 19.0862 35.5021 18.9998C35.5612 18.9133 35.5984 18.8138 35.6105 18.7098C35.6226 18.6058 35.6092 18.5004 35.5715 18.4027L34.564 15.8196C34.0133 14.3458 32.9889 13.0965 31.6515 12.2677L27.7768 9.89121C27.6786 9.83453 27.5672 9.80469 27.4539 9.80469C27.3405 9.80469 27.2292 9.83453 27.131 9.89121L23.2562 12.2677C21.9164 13.0954 20.8896 14.3448 20.3372 15.8196L19.3363 18.4027C19.2986 18.5004 19.2852 18.6058 19.2973 18.7098C19.3094 18.8138 19.3466 18.9133 19.4057 18.9998C19.4648 19.0862 19.544 19.157 19.6366 19.206C19.7291 19.255 19.8321 19.2807 19.9369 19.281H34.9709Z" stroke="#191816" stroke-width="0.5" stroke-linecap="round" stroke-linejoin="round"/>
<path d="M35.0164 19.2812H19.8145V21.703H35.0164V19.2812Z" fill="#F0F0F0"/>
<path d="M35.0164 19.2812H19.8145V20.4953H35.0164V19.2812Z" fill="#BDBEC0"/>
<path d="M35.0164 19.2812H19.8145V21.703H35.0164V19.2812Z" stroke="#191816" stroke-width="0.5" stroke-linecap="round" stroke-linejoin="round"/>
<path d="M35.952 25.1517C35.952 24.7771 35.952 24.4025 35.952 24.0215V22.3489C35.952 22.1776 35.884 22.0134 35.7629 21.8923C35.6418 21.7712 35.4775 21.7031 35.3062 21.7031H19.5618C19.3905 21.7031 19.2263 21.7712 19.1052 21.8923C18.9841 22.0134 18.916 22.1776 18.916 22.3489V24.0215C18.916 24.4025 18.916 24.7771 18.916 25.1517H35.952Z" fill="#FF866E"/>
<path d="M37.8906 34.7804C38.0023 34.7796 38.1119 34.7498 38.2087 34.694C38.3054 34.6382 38.3861 34.5582 38.4427 34.4619C38.4993 34.3656 38.5299 34.2563 38.5317 34.1446C38.5334 34.0329 38.5061 33.9226 38.4525 33.8246C36.7781 30.829 35.9019 27.4533 35.908 24.0215V22.3489C35.908 22.1776 35.84 22.0134 35.7189 21.8923C35.5978 21.7712 35.4335 21.7031 35.2623 21.7031H19.563C19.3918 21.7031 19.2275 21.7712 19.1064 21.8923C18.9853 22.0134 18.9173 22.1776 18.9173 22.3489V24.0215C18.9252 27.4544 18.0465 30.8311 16.3664 33.8246C16.3128 33.9226 16.2855 34.0329 16.2872 34.1446C16.2889 34.2563 16.3196 34.3656 16.3762 34.4619C16.4328 34.5582 16.5134 34.6382 16.6102 34.694C16.7069 34.7498 16.8165 34.7796 16.9282 34.7804H37.8906Z" fill="#FFCEC4"/>
<path d="M37.8906 34.7804C38.0023 34.7796 38.1119 34.7498 38.2087 34.694C38.3054 34.6382 38.3861 34.5582 38.4427 34.4619C38.4993 34.3656 38.5299 34.2563 38.5317 34.1446C38.5334 34.0329 38.5061 33.9226 38.4525 33.8246C36.7781 30.829 35.9019 27.4533 35.908 24.0215V22.3489C35.908 22.1776 35.84 22.0134 35.7189 21.8923C35.5978 21.7712 35.4335 21.7031 35.2623 21.7031H19.563C19.3918 21.7031 19.2275 21.7712 19.1064 21.8923C18.9853 22.0134 18.9173 22.1776 18.9173 22.3489V24.0215C18.9252 27.4544 18.0465 30.8311 16.3664 33.8246C16.3128 33.9226 16.2855 34.0329 16.2872 34.1446C16.2889 34.2563 16.3196 34.3656 16.3762 34.4619C16.4328 34.5582 16.5134 34.6382 16.6102 34.694C16.7069 34.7498 16.8165 34.7796 16.9282 34.7804H37.8906Z" stroke="#191816" stroke-width="0.5" stroke-linecap="round" stroke-linejoin="round"/>
<path d="M37.2509 34.7812H17.5801V39.1985H37.2509V34.7812Z" fill="white"/>
<path d="M37.2509 34.7812H17.5801V36.7767H37.2509V34.7812Z" fill="#E8F4FA"/>
<path d="M37.2509 34.7812H17.5801V39.1985H37.2509V34.7812Z" stroke="#191816" stroke-width="0.5" stroke-linecap="round" stroke-linejoin="round"/>
<path d="M24.3481 27.5742H21.7649C21.4083 27.5742 21.1191 27.8633 21.1191 28.22V31.7719C21.1191 32.1285 21.4083 32.4177 21.7649 32.4177H24.3481C24.7048 32.4177 24.9939 32.1285 24.9939 31.7719V28.22C24.9939 27.8633 24.7048 27.5742 24.3481 27.5742Z" fill="#B05056"/>
<path d="M24.3609 27.5742H21.7454C21.5741 27.5742 21.4099 27.6423 21.2888 27.7634C21.1676 27.8845 21.0996 28.0487 21.0996 28.22V31.7719C21.0993 31.8954 21.1344 32.0164 21.2008 32.1206C21.2672 32.2247 21.3621 32.3077 21.4742 32.3595L24.3609 27.5742Z" fill="#B05056"/>
<path d="M24.3481 27.5742H21.7649C21.4083 27.5742 21.1191 27.8633 21.1191 28.22V31.7719C21.1191 32.1285 21.4083 32.4177 21.7649 32.4177H24.3481C24.7048 32.4177 24.9939 32.1285 24.9939 31.7719V28.22C24.9939 27.8633 24.7048 27.5742 24.3481 27.5742Z" stroke="#191816" stroke-width="0.5" stroke-linecap="round" stroke-linejoin="round"/>
<path d="M21.1191 29.9961H24.9939" stroke="#191816" stroke-width="0.5" stroke-linecap="round" stroke-linejoin="round"/>
<path d="M23.0566 27.5742V32.4177" stroke="#191816" stroke-width="0.5" stroke-linecap="round" stroke-linejoin="round"/>
<path d="M32.7244 39.199H29.8184V37.2616C29.8184 36.8763 29.9714 36.5067 30.2439 36.2342C30.5164 35.9617 30.886 35.8086 31.2714 35.8086C31.6568 35.8086 32.0263 35.9617 32.2988 36.2342C32.5713 36.5067 32.7244 36.8763 32.7244 37.2616V39.199Z" fill="#BF8256" stroke="#191816" stroke-width="0.5" stroke-linecap="round" stroke-linejoin="round"/>
<path d="M25.1232 12.8687L28.4878 9.50413C28.5483 9.4441 28.5963 9.37267 28.6291 9.29398C28.6619 9.21528 28.6788 9.13087 28.6788 9.04562C28.6788 8.96037 28.6619 8.87596 28.6291 8.79726C28.5963 8.71857 28.5483 8.64714 28.4878 8.58711L20.9901 1.08946C20.9301 1.02893 20.8587 0.98089 20.78 0.948104C20.7013 0.915318 20.6169 0.898438 20.5316 0.898438C20.4464 0.898438 20.362 0.915318 20.2833 0.948104C20.2046 0.98089 20.1331 1.02893 20.0731 1.08946L17.5287 3.63388C17.3114 3.85283 17.1895 4.1488 17.1895 4.45727C17.1895 4.76574 17.3114 5.0617 17.5287 5.28065L37.2964 25.0483C37.4053 25.1553 37.4919 25.283 37.5509 25.4238C37.61 25.5646 37.6405 25.7158 37.6405 25.8685C37.6405 26.0212 37.61 26.1724 37.5509 26.3132C37.4919 26.454 37.4053 26.5817 37.2964 26.6887L34.752 29.2395C34.631 29.3598 34.4673 29.4273 34.2967 29.4273C34.1261 29.4273 33.9624 29.3598 33.8414 29.2395L26.3437 21.7354C26.2235 21.6144 26.156 21.4508 26.156 21.2802C26.156 21.1095 26.2235 20.9459 26.3437 20.8249L29.7083 17.4603" stroke="#191816" stroke-width="0.5" stroke-linecap="round" stroke-linejoin="round"/>
<path d="M25.124 17.4606L21.7465 14.0895C21.6255 13.9692 21.4618 13.9017 21.2912 13.9017C21.1206 13.9017 20.9569 13.9692 20.8359 14.0895L13.3512 21.5872C13.2907 21.6472 13.2426 21.7186 13.2098 21.7973C13.177 21.876 13.1602 21.9604 13.1602 22.0457C13.1602 22.1309 13.177 22.2153 13.2098 22.294C13.2426 22.3727 13.2907 22.4442 13.3512 22.5042L15.8956 25.0486C16.1134 25.2655 16.4083 25.3873 16.7158 25.3873C17.0232 25.3873 17.3181 25.2655 17.5359 25.0486L37.2971 5.29383C37.4047 5.18468 37.5329 5.09801 37.6742 5.03885C37.8156 4.97968 37.9673 4.94922 38.1205 4.94922C38.2738 4.94922 38.4255 4.97968 38.5668 5.03885C38.7082 5.09801 38.8364 5.18468 38.9439 5.29383L41.4883 7.83825C41.6086 7.95925 41.6761 8.12293 41.6761 8.29353C41.6761 8.46414 41.6086 8.62782 41.4883 8.74882L34.0165 16.2335C33.9565 16.2941 33.8851 16.3421 33.8064 16.3749C33.7277 16.4077 33.6433 16.4246 33.558 16.4246C33.4728 16.4246 33.3884 16.4077 33.3097 16.3749C33.231 16.3421 33.1595 16.2941 33.0995 16.2335L29.7349 12.869" stroke="#191816" stroke-width="0.5" stroke-linecap="round" stroke-linejoin="round"/>
<path d="M37.2963 26.6881L36.489 27.5018L28.0938 19.1065L29.7276 17.4727L37.2963 25.0478C37.4052 25.1548 37.4918 25.2824 37.5509 25.4232C37.6099 25.5641 37.6404 25.7152 37.6404 25.868C37.6404 26.0207 37.6099 26.1718 37.5509 26.3127C37.4918 26.4535 37.4052 26.5811 37.2963 26.6881Z" fill="#FFF5E3" stroke="#191816" stroke-width="0.5" stroke-linecap="round" stroke-linejoin="round"/>
<path d="M26.756 11.2402L25.1221 12.8741L17.5341 5.2925C17.4249 5.18495 17.3382 5.05676 17.2791 4.91541C17.2199 4.77406 17.1895 4.62235 17.1895 4.46911C17.1895 4.31588 17.2199 4.16417 17.2791 4.02282C17.3382 3.88146 17.4249 3.75328 17.5341 3.64573L18.3478 2.83203L26.756 11.2402Z" fill="#FFF5E3" stroke="#191816" stroke-width="0.5" stroke-linecap="round" stroke-linejoin="round"/>
<path d="M15.8879 25.0488L15.0742 24.2351L23.4695 15.8398L25.1098 17.4802L17.5282 25.0488C17.3104 25.2657 17.0155 25.3875 16.7081 25.3875C16.4007 25.3875 16.1058 25.2657 15.8879 25.0488Z" fill="#FFF5E3" stroke="#191816" stroke-width="0.5" stroke-linecap="round" stroke-linejoin="round"/>
<path d="M31.3409 14.5028L29.707 12.869L37.2951 5.29383C37.4026 5.18468 37.5308 5.09801 37.6722 5.03885C37.8135 4.97968 37.9652 4.94922 38.1185 4.94922C38.2717 4.94922 38.4234 4.97968 38.5648 5.03885C38.7061 5.09801 38.8343 5.18468 38.9419 5.29383L39.7556 6.10753L31.3409 14.5028Z" fill="#FFF5E3" stroke="#191816" stroke-width="0.5" stroke-linecap="round" stroke-linejoin="round"/>
<path d="M30.127 25.5252L32.3162 23.3359" stroke="#191816" stroke-width="0.5" stroke-linecap="round" stroke-linejoin="round"/>
<path d="M32.3105 27.701L34.4998 25.5117" stroke="#191816" stroke-width="0.5" stroke-linecap="round" stroke-linejoin="round"/>
<path d="M27.9512 23.3416L30.1404 21.1523" stroke="#191816" stroke-width="0.5" stroke-linecap="round" stroke-linejoin="round"/>
<path d="M22.5078 6.99002L24.697 4.80078" stroke="#191816" stroke-width="0.5" stroke-linecap="round" stroke-linejoin="round"/>
<path d="M24.6914 9.1697L26.8806 6.98047" stroke="#191816" stroke-width="0.5" stroke-linecap="round" stroke-linejoin="round"/>
<path d="M20.332 4.81033L22.5213 2.62109" stroke="#191816" stroke-width="0.5" stroke-linecap="round" stroke-linejoin="round"/>
<path d="M37.7752 12.447L35.5859 10.2578" stroke="#191816" stroke-width="0.5" stroke-linecap="round" stroke-linejoin="round"/>
<path d="M35.5974 14.6267L33.4082 12.4375" stroke="#191816" stroke-width="0.5" stroke-linecap="round" stroke-linejoin="round"/>
<path d="M39.9568 10.2674L37.7676 8.07812" stroke="#191816" stroke-width="0.5" stroke-linecap="round" stroke-linejoin="round"/>
<path d="M19.117 20.1853L16.9277 17.9961" stroke="#191816" stroke-width="0.5" stroke-linecap="round" stroke-linejoin="round"/>
<path d="M16.9412 22.3689L14.752 20.1797" stroke="#191816" stroke-width="0.5" stroke-linecap="round" stroke-linejoin="round"/>
<path d="M21.3 18.0109L19.1172 15.8281" stroke="#191816" stroke-width="0.5" stroke-linecap="round" stroke-linejoin="round"/>
<path d="M28.2229 13.707H26.6084C26.2518 13.707 25.9626 13.9962 25.9626 14.3528V15.9673C25.9626 16.324 26.2518 16.6131 26.6084 16.6131H28.2229C28.5796 16.6131 28.8687 16.324 28.8687 15.9673V14.3528C28.8687 13.9962 28.5796 13.707 28.2229 13.707Z" fill="#BF8256" stroke="#191816" stroke-width="0.5" stroke-linecap="round" stroke-linejoin="round"/>
<path d="M4.41964 31.9933C4.48713 31.6976 4.63448 31.4271 4.84501 31.2125C5.05554 30.9978 5.32083 30.8476 5.61081 30.7787L7.9989 30.192C8.04307 30.1837 8.08293 30.1597 8.11137 30.1242C8.13982 30.0888 8.15502 30.0442 8.15427 29.9984C8.15418 29.9522 8.13879 29.9073 8.11059 29.8711C8.08239 29.8349 8.04304 29.8095 7.9989 29.7989L5.61081 29.2122C5.32024 29.1447 5.05428 28.9948 4.84355 28.78C4.63282 28.5651 4.48588 28.2939 4.41964 27.9977L3.84419 25.5628C3.83485 25.5188 3.81078 25.4795 3.77613 25.4517C3.74148 25.4239 3.6984 25.4092 3.6543 25.4102C3.60973 25.41 3.56634 25.4248 3.53094 25.4524C3.49553 25.48 3.47011 25.5188 3.45865 25.5628L2.8832 27.9977C2.81804 28.2935 2.67216 28.5645 2.46241 28.7794C2.25266 28.9943 1.98759 29.1443 1.69779 29.2122L-0.690307 29.7989C-0.734446 29.8095 -0.773798 29.8349 -0.801995 29.8711C-0.830191 29.9073 -0.845582 29.9522 -0.845677 29.9984C-0.846424 30.0442 -0.831224 30.0888 -0.802778 30.1242C-0.774332 30.1597 -0.734481 30.1837 -0.690307 30.192L1.69779 30.7787C1.99573 30.8393 2.27029 30.986 2.48866 31.2014C2.70702 31.4168 2.85998 31.6917 2.92924 31.9933L3.50468 34.4282C3.51505 34.4732 3.54 34.5133 3.5755 34.5421C3.61101 34.5708 3.65499 34.5865 3.70033 34.5866C3.74525 34.5874 3.78897 34.5719 3.82374 34.5429C3.85851 34.5139 3.88207 34.4732 3.89023 34.4282L4.41964 31.9933Z" fill="#FFEC60" stroke="#191816" stroke-width="0.5" stroke-linecap="round" stroke-linejoin="round"/>
</g>
<defs>
<filter id="filter0_d_1943_27561" x="0" y="0" width="44" height="44" filterUnits="userSpaceOnUse" color-interpolation-filters="sRGB">
<feFlood flood-opacity="0" result="BackgroundImageFix"/>
<feColorMatrix in="SourceAlpha" type="matrix" values="0 0 0 0 0 0 0 0 0 0 0 0 0 0 0 0 0 0 127 0" result="hardAlpha"/>
<feOffset dy="4"/>
<feGaussianBlur stdDeviation="2"/>
<feComposite in2="hardAlpha" operator="out"/>
<feColorMatrix type="matrix" values="0 0 0 0 0 0 0 0 0 0 0 0 0 0 0 0 0 0 0.15 0"/>
<feBlend mode="normal" in2="BackgroundImageFix" result="effect1_dropShadow_1943_27561"/>
<feBlend mode="normal" in="SourceGraphic" in2="effect1_dropShadow_1943_27561" result="shape"/>
</filter>
</defs>
</svg>
