<svg width="44" height="44" viewBox="0 0 44 44" fill="none" xmlns="http://www.w3.org/2000/svg">
<g filter="url(#filter0_d_1943_65549)">
<circle cx="22" cy="18" r="18" fill="#B05056"/>
</g>
<mask id="mask0_1943_65549" style="mask-type:alpha" maskUnits="userSpaceOnUse" x="4" y="0" width="36" height="36">
<circle cx="22" cy="18" r="18" fill="#B05056"/>
</mask>
<g mask="url(#mask0_1943_65549)">
<path d="M30.913 9.69531H6.88606C5.78913 9.69531 4.8999 10.5845 4.8999 11.6815V28.9224C4.8999 30.0193 5.78913 30.9086 6.88606 30.9086H30.913C32.0099 30.9086 32.8992 30.0193 32.8992 28.9224V11.6815C32.8992 10.5845 32.0099 9.69531 30.913 9.69531Z" fill="#FFCEC3"/>
<path d="M30.3557 9.69531H25.9089C25.4102 10.7936 25.1951 11.9996 25.2835 13.2026C25.3719 14.4056 25.761 15.5672 26.4149 16.5808C27.0689 17.5944 27.9669 18.4277 29.0265 19.0041C30.0861 19.5805 31.2735 19.8816 32.4798 19.8799C32.6232 19.8799 32.7612 19.8799 32.9046 19.8799V12.2442C32.9046 11.5682 32.6361 10.9199 32.1581 10.4419C31.6801 9.96386 31.0317 9.69531 30.3557 9.69531Z" fill="#FDA18F"/>
<path d="M7.44328 9.69531C6.76823 9.69677 6.12132 9.96596 5.64451 10.4438C5.16769 10.9217 4.8999 11.5692 4.8999 12.2442V25.8163C4.90334 25.9032 4.91256 25.9899 4.92749 26.0756L21.3078 9.69531H7.44328Z" fill="#FDA18F"/>
<path d="M30.913 9.69531H6.88606C5.78913 9.69531 4.8999 10.5845 4.8999 11.6815V28.9224C4.8999 30.0193 5.78913 30.9086 6.88606 30.9086H30.913C32.0099 30.9086 32.8992 30.0193 32.8992 28.9224V11.6815C32.8992 10.5845 32.0099 9.69531 30.913 9.69531Z" stroke="#191816" stroke-width="0.5" stroke-linecap="round" stroke-linejoin="round"/>
<path d="M21.4458 34.3032H16.3535L16.7783 30.9102H21.021L21.4458 34.3032Z" fill="#E0E0E0"/>
<path d="M21.1809 32.1846H16.6238L16.7783 30.9102H21.0209L21.1809 32.1846Z" fill="#87898C"/>
<path d="M21.4458 34.3032H16.3535L16.7783 30.9102H21.021L21.4458 34.3032Z" stroke="#191816" stroke-width="0.5" stroke-linecap="round" stroke-linejoin="round"/>
<path d="M23.9949 36H13.8103C13.8103 35.5494 13.9893 35.1172 14.308 34.7985C14.6267 34.4798 15.0589 34.3008 15.5096 34.3008H22.3066C22.7554 34.3037 23.1848 34.484 23.5011 34.8024C23.8174 35.1207 23.9949 35.5513 23.9949 36Z" fill="white" stroke="#191816" stroke-width="0.5" stroke-linecap="round" stroke-linejoin="round"/>
<path d="M30.3558 30.9086C30.6903 30.9094 31.0216 30.8441 31.3308 30.7166C31.64 30.5891 31.921 30.4019 32.1578 30.1657C32.3946 29.9294 32.5824 29.6488 32.7106 29.3398C32.8387 29.0309 32.9047 28.6997 32.9047 28.3653V27.5156H4.8999V28.3653C4.8999 29.0398 5.16786 29.6867 5.64484 30.1637C6.12182 30.6407 6.76874 30.9086 7.44328 30.9086H30.3558Z" fill="white" stroke="#191816" stroke-width="0.5" stroke-linecap="round" stroke-linejoin="round"/>
<path d="M42.9952 20.8612C43.2469 21.1129 43.3883 21.4543 43.3883 21.8102C43.3883 22.1661 43.2469 22.5074 42.9952 22.7591C42.7435 23.0108 42.4022 23.1522 42.0463 23.1522C41.6904 23.1522 41.349 23.0108 41.0973 22.7591L38.0464 19.7192C37.914 19.5868 37.8396 19.4072 37.8396 19.2199C37.8396 19.0326 37.914 18.853 38.0464 18.7206L38.9402 17.8268C39.0735 17.6937 39.2538 17.6184 39.4422 17.6172C39.5347 17.6176 39.6262 17.6364 39.7114 17.6724C39.7967 17.7083 39.8739 17.7608 39.9387 17.8268L42.9952 20.8612Z" fill="#DEA47A" stroke="#191816" stroke-width="0.5" stroke-linecap="round" stroke-linejoin="round"/>
<path d="M36.5984 15.4114L35.6504 16.3594L38.0184 18.7274L38.9664 17.7794L36.5984 15.4114Z" fill="#F0F0F0" stroke="#191816" stroke-width="0.5" stroke-linecap="round" stroke-linejoin="round"/>
<path d="M36.8335 8.06771C37.6766 8.91113 38.2507 9.98561 38.4832 11.1553C38.7157 12.325 38.5962 13.5373 38.1397 14.6391C37.6833 15.7409 36.9104 16.6825 35.9187 17.345C34.9271 18.0075 33.7613 18.3612 32.5688 18.3612C31.3762 18.3612 30.2104 18.0075 29.2188 17.345C28.2272 16.6825 27.4543 15.7409 26.9978 14.6391C26.5413 13.5373 26.4218 12.325 26.6543 11.1553C26.8868 9.98561 27.4609 8.91113 28.304 8.06771C28.864 7.50754 29.5289 7.06317 30.2606 6.76C30.9924 6.45682 31.7767 6.30078 32.5688 6.30078C33.3608 6.30078 34.1451 6.45682 34.8769 6.76C35.6086 7.06317 36.2735 7.50754 36.8335 8.06771Z" fill="white" stroke="#191816" stroke-width="0.5" stroke-linecap="round" stroke-linejoin="round"/>
<path d="M35.6526 9.23621C36.2608 9.84631 36.6745 10.6229 36.8416 11.468C37.0086 12.3131 36.9215 13.1888 36.5912 13.9844C36.2609 14.78 35.7023 15.4599 34.9858 15.9382C34.2694 16.4165 33.4272 16.6718 32.5658 16.6718C31.7043 16.6718 30.8622 16.4165 30.1458 15.9382C29.4293 15.4599 28.8707 14.78 28.5404 13.9844C28.2101 13.1888 28.123 12.3131 28.29 11.468C28.4571 10.6229 28.8708 9.84631 29.479 9.23621C29.8842 8.83068 30.3655 8.50898 30.8951 8.28949C31.4248 8.07 31.9925 7.95703 32.5658 7.95703C33.1391 7.95703 33.7068 8.07 34.2365 8.28949C34.7661 8.50898 35.2473 8.83068 35.6526 9.23621Z" fill="#FDA18F"/>
<path d="M35.6522 9.23873C34.8328 8.42006 33.7217 7.96042 32.5634 7.96094C31.4051 7.96146 30.2945 8.42208 29.4758 9.24149C28.6571 10.0609 28.1975 11.172 28.198 12.3303C28.1985 13.4886 28.6591 14.5992 29.4786 15.4179L29.5448 15.4731L35.7074 9.32149L35.6522 9.23873Z" fill="#FFCEC3"/>
<path d="M35.6526 9.23621C36.2608 9.84631 36.6745 10.6229 36.8416 11.468C37.0086 12.3131 36.9215 13.1888 36.5912 13.9844C36.2609 14.78 35.7023 15.4599 34.9858 15.9382C34.2694 16.4165 33.4272 16.6718 32.5658 16.6718C31.7043 16.6718 30.8622 16.4165 30.1458 15.9382C29.4293 15.4599 28.8707 14.78 28.5404 13.9844C28.2101 13.1888 28.123 12.3131 28.29 11.468C28.4571 10.6229 28.8708 9.84631 29.479 9.23621C29.8842 8.83068 30.3655 8.50898 30.8951 8.28949C31.4248 8.07 31.9925 7.95703 32.5658 7.95703C33.1391 7.95703 33.7068 8.07 34.2365 8.28949C34.7661 8.50898 35.2473 8.83068 35.6526 9.23621Z" stroke="#191816" stroke-width="0.5" stroke-linecap="round" stroke-linejoin="round"/>
<path d="M23.1453 21.1523H28.2375" stroke="#191816" stroke-width="0.5" stroke-linecap="round" stroke-linejoin="round"/>
<path d="M23.1453 22.8477H28.2375" stroke="#191816" stroke-width="0.5" stroke-linecap="round" stroke-linejoin="round"/>
<path d="M23.1453 24.5469H28.2375" stroke="#191816" stroke-width="0.5" stroke-linecap="round" stroke-linejoin="round"/>
<path d="M16.7891 11.3945V17.3309H22.7199C22.7185 15.7579 22.0933 14.2496 20.9816 13.1368C19.8698 12.024 18.3621 11.3975 16.7891 11.3945Z" fill="#E1806D" stroke="#191816" stroke-width="0.5" stroke-linecap="round" stroke-linejoin="round"/>
<path d="M20.1768 15.2139L22.2953 13.0898H24.4194" stroke="#191816" stroke-width="0.5" stroke-linecap="round" stroke-linejoin="round"/>
<path d="M15.0846 13.0977C13.9099 13.0978 12.7615 13.4461 11.7846 14.0987C10.8077 14.7513 10.0462 15.6788 9.59633 16.764C9.14642 17.8492 9.02829 19.0434 9.25688 20.1957C9.48547 21.3481 10.0505 22.4068 10.8806 23.2381L15.0846 19.0396V13.0977Z" fill="#B76554" stroke="#191816" stroke-width="0.5" stroke-linecap="round" stroke-linejoin="round"/>
<path d="M21.0213 19.0312H15.0849L10.8809 23.2298C11.7108 24.0622 12.7692 24.6295 13.9219 24.8598C15.0746 25.0901 16.2697 24.973 17.3558 24.5233C18.4419 24.0737 19.37 23.3117 20.0226 22.3339C20.6751 21.3562 21.0227 20.2067 21.0213 19.0312Z" fill="#FA8B76" stroke="#191816" stroke-width="0.5" stroke-linecap="round" stroke-linejoin="round"/>
<path d="M15.5098 23.2734L17.6283 25.8168H20.5965" stroke="#191816" stroke-width="0.5" stroke-linecap="round" stroke-linejoin="round"/>
<path d="M11.6916 18.6049L9.99238 15.6367H6.59937" stroke="#191816" stroke-width="0.5" stroke-linecap="round" stroke-linejoin="round"/>
<path d="M18.9024 29.5695C19.0974 29.5695 19.2555 29.4114 19.2555 29.2164C19.2555 29.0214 19.0974 28.8633 18.9024 28.8633C18.7074 28.8633 18.5493 29.0214 18.5493 29.2164C18.5493 29.4114 18.7074 29.5695 18.9024 29.5695Z" stroke="#191816" stroke-width="0.5" stroke-linecap="round" stroke-linejoin="round"/>
</g>
<defs>
<filter id="filter0_d_1943_65549" x="0" y="0" width="44" height="44" filterUnits="userSpaceOnUse" color-interpolation-filters="sRGB">
<feFlood flood-opacity="0" result="BackgroundImageFix"/>
<feColorMatrix in="SourceAlpha" type="matrix" values="0 0 0 0 0 0 0 0 0 0 0 0 0 0 0 0 0 0 127 0" result="hardAlpha"/>
<feOffset dy="4"/>
<feGaussianBlur stdDeviation="2"/>
<feComposite in2="hardAlpha" operator="out"/>
<feColorMatrix type="matrix" values="0 0 0 0 0 0 0 0 0 0 0 0 0 0 0 0 0 0 0.15 0"/>
<feBlend mode="normal" in2="BackgroundImageFix" result="effect1_dropShadow_1943_65549"/>
<feBlend mode="normal" in="SourceGraphic" in2="effect1_dropShadow_1943_65549" result="shape"/>
</filter>
</defs>
</svg>
