<svg width="17" height="13" viewBox="0 0 17 13" fill="none" xmlns="http://www.w3.org/2000/svg">
<path d="M16.4996 1.38277C15.4692 0.969668 14.438 0.8125 13.4074 0.8125C10.1357 0.812246 6.86428 2.39535 3.59258 2.39535C2.77206 2.39535 1.95208 2.29582 1.13156 2.04699C1.03939 2.01906 0.946953 2.00586 0.856641 2.00586C0.3995 2.00586 0 2.34406 0 2.81354V10.869C0 11.1896 0.192047 11.4936 0.500437 11.617C1.5308 12.0303 2.56195 12.1875 3.59258 12.1875C6.86428 12.1875 10.136 10.6044 13.4077 10.6044C14.2282 10.6044 15.0482 10.7039 15.8687 10.9528C15.9609 10.9807 16.0533 10.9939 16.1436 10.9939C16.6008 10.9939 17.0003 10.6557 17.0003 10.1862V2.13104C17 1.8101 16.808 1.50643 16.4996 1.38277ZM1.275 3.35715C1.80944 3.48512 2.36725 3.54936 2.941 3.58389C2.78481 4.33012 2.09844 4.89252 1.275 4.89252V3.35715ZM1.275 10.5935V9.38031C2.18795 9.38031 2.92666 10.0727 2.9673 10.9393C2.36884 10.8933 1.80944 10.7791 1.275 10.5935ZM8.5 8.9375C7.3262 8.9375 6.375 7.84596 6.375 6.5C6.375 5.15379 7.32647 4.0625 8.5 4.0625C9.67353 4.0625 10.625 5.15379 10.625 6.5C10.625 7.84646 9.67327 8.9375 8.5 8.9375ZM15.725 9.64285C15.2596 9.53139 14.7765 9.46893 14.2821 9.42855C14.438 8.76637 15.0126 8.26363 15.725 8.1773V9.64285ZM15.725 3.64787C14.9045 3.54859 14.2678 2.89377 14.2425 2.08508C14.7616 2.14018 15.2543 2.24326 15.725 2.40652V3.64787Z" fill="white"/>
</svg>
