<svg width="17" height="17" viewBox="0 0 17 17" fill="none" xmlns="http://www.w3.org/2000/svg">
<path d="M0 8.5C0 10.1811 0.498516 11.8245 1.43251 13.2223C2.3665 14.6202 3.69402 15.7096 5.24719 16.353C6.80036 16.9963 8.50943 17.1646 10.1583 16.8367C11.8071 16.5087 13.3217 15.6992 14.5104 14.5104C15.6992 13.3217 16.5087 11.8071 16.8367 10.1583C17.1646 8.50943 16.9963 6.80036 16.353 5.24719C15.7096 3.69402 14.6202 2.3665 13.2223 1.43251C11.8245 0.498516 10.1811 0 8.5 0C6.24566 0 4.08365 0.895533 2.48959 2.48959C0.895533 4.08365 0 6.24566 0 8.5ZM3.64286 7.89286H11.0196L7.63178 4.48861L8.5 3.64286L13.3571 8.5L8.5 13.3571L7.63178 12.4907L11.0196 9.10714H3.64286V7.89286Z" fill="white"/>
</svg>
