<svg width="74" height="73" viewBox="0 0 74 73" fill="none" xmlns="http://www.w3.org/2000/svg">
<path d="M36.8461 72.8092C57.1107 72.8092 73.5385 56.6881 73.5385 36.8016C73.5385 16.9151 57.1107 0.793945 36.8461 0.793945C16.5815 0.793945 0.153839 16.9151 0.153839 36.8016C0.153839 56.6881 16.5815 72.8092 36.8461 72.8092Z" fill="#E0F6DE"/>
<path d="M30.6761 15.0586H19.3361C17.5467 15.0586 16.0961 16.4817 16.0961 18.2372V40.8845C16.0961 42.64 17.5467 44.0631 19.3361 44.0631H30.6761C32.4655 44.0631 33.9161 42.64 33.9161 40.8845V18.2372C33.9161 16.4817 32.4655 15.0586 30.6761 15.0586Z" fill="#81DA7B"/>
<path d="M30.6761 15.0586H19.3361C17.5467 15.0586 16.0961 16.4817 16.0961 18.2372V39.2952C16.0961 41.0507 17.5467 42.4738 19.3361 42.4738H30.6761C32.4655 42.4738 33.9161 41.0507 33.9161 39.2952V18.2372C33.9161 16.4817 32.4655 15.0586 30.6761 15.0586Z" fill="white" stroke="#4D834A" stroke-linejoin="round"/>
<path d="M17.7161 26.1836H32.2961V40.8845C32.2961 41.306 32.1254 41.7102 31.8216 42.0083C31.5178 42.3063 31.1057 42.4738 30.6761 42.4738H19.3361C18.9064 42.4738 18.4944 42.3063 18.1906 42.0083C17.8868 41.7102 17.7161 41.306 17.7161 40.8845V26.1836Z" fill="#81DA7B" stroke="#4D834A" stroke-linejoin="round"/>
<path d="M30.6761 21.8135H19.3361C18.4414 21.8135 17.7161 22.525 17.7161 23.4028V25.7867C17.7161 26.6644 18.4414 27.376 19.3361 27.376H30.6761C31.5708 27.376 32.2961 26.6644 32.2961 25.7867V23.4028C32.2961 22.525 31.5708 21.8135 30.6761 21.8135Z" fill="#81DA7B"/>
<path d="M19.3361 21.8135C18.9064 21.8135 18.4944 21.9809 18.1906 22.279C17.8868 22.577 17.7161 22.9813 17.7161 23.4028V25.7867C17.7161 26.2082 17.8868 26.6124 18.1906 26.9105C18.4944 27.2085 18.9064 27.376 19.3361 27.376H21.11L26.78 21.8135H19.3361Z" fill="white"/>
<path d="M30.6761 29.7595C30.6761 29.9702 30.5907 30.1724 30.4388 30.3214C30.2869 30.4704 30.0809 30.5541 29.8661 30.5541H20.1461C19.9312 30.5541 19.7252 30.4704 19.5733 30.3214C19.4214 30.1724 19.3361 29.9702 19.3361 29.7595C19.3361 29.5487 19.4214 29.3466 19.5733 29.1976C19.7252 29.0486 19.9312 28.9648 20.1461 28.9648H29.8661C30.0809 28.9648 30.2869 29.0486 30.4388 29.1976C30.5907 29.3466 30.6761 29.5487 30.6761 29.7595Z" fill="white" stroke="#4D834A" stroke-linejoin="round"/>
<path d="M22.9811 40.4876H20.9561C20.5264 40.4876 20.1144 40.3201 19.8106 40.0221C19.5068 39.724 19.3361 39.3198 19.3361 38.8983V38.501H22.9811V40.4876Z" fill="white" stroke="#4D834A" stroke-linejoin="round"/>
<path d="M27.0311 38.501H22.9811V40.4876H27.0311V38.501Z" fill="white" stroke="#4D834A" stroke-linejoin="round"/>
<path d="M30.6761 38.8983C30.6761 39.3198 30.5054 39.724 30.2016 40.0221C29.8978 40.3201 29.4857 40.4876 29.0561 40.4876H27.0311V38.501H30.6761V38.8983Z" fill="white" stroke="#4D834A" stroke-linejoin="round"/>
<path d="M30.6761 21.8135H19.3361C18.4414 21.8135 17.7161 22.525 17.7161 23.4028V25.7867C17.7161 26.6644 18.4414 27.376 19.3361 27.376H30.6761C31.5708 27.376 32.2961 26.6644 32.2961 25.7867V23.4028C32.2961 22.525 31.5708 21.8135 30.6761 21.8135Z" stroke="#4D834A" stroke-linejoin="round"/>
<path d="M30.6761 17.0449H19.3361C18.8887 17.0449 18.5261 17.4007 18.5261 17.8396V18.6342C18.5261 19.0731 18.8887 19.4289 19.3361 19.4289H30.6761C31.1234 19.4289 31.4861 19.0731 31.4861 18.6342V17.8396C31.4861 17.4007 31.1234 17.0449 30.6761 17.0449Z" fill="#81DA7B" stroke="#4D834A" stroke-linejoin="round"/>
<path d="M29.8661 19.4291H20.5511V11.88C20.5511 11.567 20.6139 11.257 20.7361 10.9677C20.8582 10.6785 21.0372 10.4157 21.2628 10.1943C21.4885 9.97296 21.7563 9.79736 22.0512 9.67756C22.346 9.55776 22.662 9.49609 22.9811 9.49609H31.8911C31.354 9.49609 30.839 9.7054 30.4592 10.078C30.0794 10.4505 29.8661 10.9558 29.8661 11.4827V19.4291Z" fill="white"/>
<path d="M29.8661 19.4291H20.5511V11.88C20.5511 11.567 20.6139 11.257 20.7361 10.9677C20.8582 10.6785 21.0372 10.4157 21.2628 10.1943C21.4885 9.97296 21.7563 9.79736 22.0512 9.67756C22.346 9.55776 22.662 9.49609 22.9811 9.49609H31.8911C31.354 9.49609 30.839 9.7054 30.4592 10.078C30.0794 10.4505 29.8661 10.9558 29.8661 11.4827V19.4291Z" stroke="#4D834A" stroke-linejoin="round"/>
<path d="M29.8661 11.4826C29.8657 11.204 29.925 10.9285 30.0402 10.6739C30.1553 10.4193 30.3238 10.1913 30.5346 10.0047C30.7454 9.81814 30.9939 9.67714 31.2639 9.59086C31.5338 9.50458 31.8193 9.47497 32.1017 9.50394C32.6125 9.57389 33.0794 9.82531 33.4139 10.2105C33.7483 10.5957 33.927 11.088 33.9161 11.5938V12.2772C33.9161 12.488 33.8307 12.6901 33.6788 12.8391C33.5269 12.9882 33.3209 13.0719 33.1061 13.0719H29.8661V11.4826Z" fill="white" stroke="#4D834A" stroke-linejoin="round"/>
<path d="M27.0311 28.9648H22.9811V30.5541H27.0311V28.9648Z" stroke="#4D834A" stroke-linejoin="round"/>
<path d="M30.6761 32.9382C30.6761 33.149 30.5907 33.3511 30.4388 33.5001C30.2869 33.6491 30.0809 33.7328 29.8661 33.7328H20.1461C19.9312 33.7328 19.7252 33.6491 19.5733 33.5001C19.4214 33.3511 19.3361 33.149 19.3361 32.9382C19.3361 32.7274 19.4214 32.5253 19.5733 32.3763C19.7252 32.2273 19.9312 32.1436 20.1461 32.1436H29.8661C30.0809 32.1436 30.2869 32.2273 30.4388 32.3763C30.5907 32.5253 30.6761 32.7274 30.6761 32.9382Z" fill="white" stroke="#4D834A" stroke-linejoin="round"/>
<path d="M27.0311 32.1436H22.9811V33.7328H27.0311V32.1436Z" stroke="#4D834A" stroke-linejoin="round"/>
<path d="M30.6761 36.1169C30.6761 36.3277 30.5907 36.5298 30.4388 36.6788C30.2869 36.8278 30.0809 36.9116 29.8661 36.9116H20.1461C19.9312 36.9116 19.7252 36.8278 19.5733 36.6788C19.4214 36.5298 19.3361 36.3277 19.3361 36.1169C19.3361 35.9062 19.4214 35.704 19.5733 35.555C19.7252 35.406 19.9312 35.3223 20.1461 35.3223H29.8661C30.0809 35.3223 30.2869 35.406 30.4388 35.555C30.5907 35.704 30.6761 35.9062 30.6761 36.1169Z" fill="white" stroke="#4D834A" stroke-linejoin="round"/>
<path d="M27.0311 35.3223H22.9811V36.9116H27.0311V35.3223Z" stroke="#4D834A" stroke-linejoin="round"/>
<path d="M44.7215 40.2643C44.4995 40.1566 44.2574 40.0943 44.01 40.0814C43.7627 40.0686 43.5153 40.1053 43.2829 40.1893C43.0504 40.2734 42.8379 40.403 42.6583 40.5704C42.4787 40.7377 42.3357 40.9392 42.2382 41.1626C42.1406 41.3859 42.0905 41.6265 42.0908 41.8695C42.0912 42.1125 42.142 42.3529 42.2402 42.5759C42.3385 42.799 42.482 43.0001 42.6621 43.1669C42.8423 43.3338 43.0551 43.4628 43.2878 43.5462L44.7377 44.1422C44.2977 43.9738 43.8082 43.9795 43.3724 44.1582C42.9366 44.3369 42.5885 44.6746 42.4016 45.1002C42.2146 45.5257 42.2034 46.0059 42.3702 46.4394C42.537 46.8729 42.8689 47.2259 43.2959 47.4241L44.5514 47.9485C44.3287 47.8257 44.0821 47.7501 43.8276 47.7268C43.5732 47.7035 43.3166 47.7329 43.0745 47.8132C42.8324 47.8935 42.6103 48.0228 42.4224 48.1927C42.2346 48.3627 42.0853 48.5695 41.9842 48.7998C41.8832 49.03 41.8326 49.2786 41.8357 49.5292C41.8389 49.7799 41.8958 50.0271 42.0027 50.2548C42.1096 50.4826 42.2641 50.6857 42.4562 50.851C42.6483 51.0163 42.8736 51.1402 43.1177 51.2145L45.2075 52.0966C44.7617 51.9122 44.2596 51.909 43.8114 52.0879C43.3633 52.2667 43.006 52.6128 42.818 53.0501C42.63 53.4875 42.6268 53.9801 42.8091 54.4197C42.9914 54.8594 43.3442 55.2099 43.79 55.3944L49.217 57.6829C53.5262 59.4947 55.0004 58.1756 57.4547 59.2086L63.311 61.672L67.4177 52.2476L64.5179 51.0238C61.1078 49.5855 63.0599 46.2003 62.0312 44.6269C61.4156 43.6734 58.4996 39.9703 58.4996 39.9703C58.3571 39.7825 58.1782 39.624 57.9732 39.504C57.7683 39.384 57.5412 39.3047 57.3051 39.2708C57.0689 39.2368 56.8282 39.2489 56.5968 39.3062C56.3653 39.3635 56.1477 39.465 55.9562 39.6048C55.7647 39.7446 55.6032 39.9201 55.4809 40.1212C55.3585 40.3222 55.2777 40.545 55.2431 40.7767C55.2085 41.0084 55.2208 41.2445 55.2792 41.4715C55.3376 41.6986 55.4411 41.9121 55.5836 42.1L57.7463 44.9527L57.4547 45.6202L44.7215 40.2643Z" fill="white"/>
<path d="M44.7215 40.2643C44.4995 40.1566 44.2574 40.0943 44.01 40.0814C43.7627 40.0686 43.5153 40.1053 43.2829 40.1893C43.0504 40.2734 42.8379 40.403 42.6583 40.5704C42.4787 40.7377 42.3357 40.9392 42.2382 41.1626C42.1406 41.3859 42.0905 41.6265 42.0908 41.8695C42.0912 42.1125 42.142 42.3529 42.2402 42.5759C42.3385 42.799 42.482 43.0001 42.6621 43.1669C42.8423 43.3338 43.0551 43.4628 43.2878 43.5462L44.7377 44.1422C44.2977 43.9738 43.8082 43.9795 43.3724 44.1582C42.9366 44.3369 42.5885 44.6746 42.4016 45.1002C42.2146 45.5257 42.2034 46.0059 42.3702 46.4394C42.537 46.8729 42.8689 47.2259 43.2959 47.4241L44.5514 47.9485C44.3287 47.8257 44.0821 47.7501 43.8276 47.7268C43.5732 47.7035 43.3166 47.7329 43.0745 47.8132C42.8324 47.8935 42.6103 48.0228 42.4224 48.1927C42.2346 48.3627 42.0853 48.5695 41.9842 48.7998C41.8832 49.03 41.8326 49.2786 41.8357 49.5292C41.8389 49.7799 41.8958 50.0271 42.0027 50.2548C42.1096 50.4826 42.2641 50.6857 42.4562 50.851C42.6483 51.0163 42.8736 51.1402 43.1177 51.2145L45.2075 52.0966C44.7617 51.9122 44.2596 51.909 43.8114 52.0879C43.3633 52.2667 43.006 52.6128 42.818 53.0501C42.63 53.4875 42.6268 53.9801 42.8091 54.4197C42.9914 54.8594 43.3442 55.2099 43.79 55.3944L49.217 57.6829C53.5262 59.4947 55.0004 58.1756 57.4547 59.2086L63.311 61.672L67.4177 52.2476L64.5179 51.0238C61.1078 49.5855 63.0599 46.2003 62.0312 44.6269C61.4156 43.6734 58.4996 39.9703 58.4996 39.9703C58.3571 39.7825 58.1782 39.624 57.9732 39.504C57.7683 39.384 57.5412 39.3047 57.3051 39.2708C57.0689 39.2368 56.8282 39.2489 56.5968 39.3062C56.3653 39.3635 56.1477 39.465 55.9562 39.6048C55.7647 39.7446 55.6032 39.9201 55.4809 40.1212C55.3585 40.3222 55.2777 40.545 55.2431 40.7767C55.2085 41.0084 55.2208 41.2445 55.2792 41.4715C55.3376 41.6986 55.4411 41.9121 55.5836 42.1L57.7463 44.9527L57.4547 45.6202L44.7215 40.2643Z" stroke="#4D834A" stroke-linecap="round" stroke-linejoin="round"/>
<path d="M56.2202 29.8682L46.0877 29.7624C45.0723 29.7518 44.2403 30.5507 44.2295 31.5469L43.9856 54.0261C43.9748 55.0223 44.7892 55.8384 45.8046 55.849L55.9371 55.9549C56.9525 55.9655 57.7845 55.1665 57.7953 54.1703L58.0392 31.6911C58.05 30.695 57.2356 29.8788 56.2202 29.8682Z" fill="white"/>
<path d="M58.015 33.9235L44.2053 33.7793L44.0099 51.7849L57.8196 51.9291L58.015 33.9235Z" fill="#81DA7B"/>
<path d="M44.1302 41.1625L52.1249 33.8677L44.2112 33.7803L44.1302 41.1625Z" fill="white"/>
<path d="M56.2202 29.8682L46.0877 29.7624C45.0723 29.7518 44.2403 30.5507 44.2295 31.5469L43.9856 54.0261C43.9748 55.0223 44.7892 55.8384 45.8046 55.849L55.9371 55.9549C56.9525 55.9655 57.7845 55.1665 57.7953 54.1703L58.0392 31.6911C58.05 30.695 57.2356 29.8788 56.2202 29.8682Z" stroke="#4D834A" stroke-linejoin="round"/>
<path d="M58.015 33.9235L44.2053 33.7793L44.0099 51.7849L57.8196 51.9291L58.015 33.9235Z" stroke="#4D834A" stroke-linejoin="round"/>
<path d="M50.4482 31.8252L53.8988 31.8649" stroke="#4D834A" stroke-linecap="round" stroke-linejoin="round"/>
<path d="M48.731 31.4678C48.6487 31.4802 48.5738 31.5211 48.5196 31.583C48.4654 31.645 48.4356 31.7239 48.4356 31.8055C48.4356 31.8871 48.4654 31.966 48.5196 32.028C48.5738 32.0899 48.6487 32.1308 48.731 32.1432C48.7757 32.1432 48.8199 32.1346 48.8612 32.1178C48.9024 32.101 48.9399 32.0765 48.9715 32.0455C49.0031 32.0145 49.0282 31.9777 49.0453 31.9372C49.0624 31.8967 49.0712 31.8533 49.0712 31.8095C49.0723 31.765 49.0643 31.7207 49.0476 31.6793C49.031 31.6379 49.0061 31.6002 48.9744 31.5683C48.9427 31.5365 48.9049 31.5112 48.8631 31.4939C48.8213 31.4766 48.7763 31.4678 48.731 31.4678Z" fill="#4550E5"/>
<path d="M59.666 53.2095C58.4694 52.3901 57.5966 51.1918 57.194 49.8158C56.7914 48.4398 56.8834 46.9698 57.4547 45.6525L57.7463 44.985L55.5836 42.1322C55.4411 41.9444 55.3376 41.7308 55.2792 41.5038C55.2208 41.2767 55.2085 41.0406 55.2431 40.8089C55.2777 40.5772 55.3585 40.3545 55.4809 40.1534C55.6032 39.9523 55.7647 39.7768 55.9562 39.637C56.1477 39.4972 56.3653 39.3957 56.5968 39.3384C56.8282 39.2811 57.0689 39.2691 57.3051 39.303C57.5412 39.337 57.7683 39.4162 57.9732 39.5362C58.1782 39.6563 58.3571 39.8147 58.4996 40.0025C58.4996 40.0025 61.4156 43.7056 62.0312 44.6592C63.0599 46.2484 61.1078 49.6177 64.5179 51.056L67.4177 52.2798L65.3846 56.9205" fill="white"/>
<path d="M59.666 53.2095C58.4694 52.3901 57.5966 51.1918 57.194 49.8158C56.7913 48.4398 56.8834 46.9698 57.4547 45.6525L57.7463 44.985L55.5836 42.1322C55.4411 41.9444 55.3376 41.7308 55.2792 41.5038C55.2208 41.2767 55.2085 41.0406 55.2431 40.8089C55.2777 40.5772 55.3585 40.3545 55.4809 40.1534C55.6032 39.9523 55.7647 39.7768 55.9562 39.637C56.1477 39.4972 56.3653 39.3957 56.5968 39.3384C56.8282 39.2811 57.0689 39.2691 57.3051 39.303C57.5412 39.337 57.7683 39.4162 57.9732 39.5362C58.1782 39.6563 58.3571 39.8147 58.4996 40.0025C58.4996 40.0025 61.4156 43.7056 62.0312 44.6592C63.0599 46.2484 61.1078 49.6177 64.5179 51.056L67.4177 52.2798L65.3846 56.9205" stroke="#4D834A" stroke-linecap="round" stroke-linejoin="round"/>
<path d="M48.1964 47.5439C48.0057 47.9786 47.6471 48.3214 47.1992 48.4972C46.7513 48.673 46.2506 48.6673 45.8069 48.4815L43.2959 47.4247C42.8689 47.2265 42.537 46.8735 42.3702 46.44C42.2034 46.0065 42.2146 45.5263 42.4016 45.1008C42.5885 44.6752 42.9366 44.3375 43.3724 44.1588C43.8082 43.9801 44.2977 43.9744 44.7377 44.1428L47.2406 45.1997C47.6837 45.3868 48.0332 45.7386 48.2123 46.178C48.3915 46.6174 48.3858 47.1086 48.1964 47.5439Z" fill="white" stroke="#4D834A" stroke-miterlimit="10"/>
<path d="M48.0101 51.3495C47.9165 51.5654 47.7804 51.7611 47.6094 51.9252C47.4385 52.0893 47.2362 52.2187 47.0141 52.3058C46.7921 52.393 46.5546 52.4362 46.3155 52.433C46.0763 52.4298 45.8401 52.3802 45.6206 52.2871L43.1177 51.2144C42.885 51.131 42.6721 51.0019 42.492 50.8351C42.3119 50.6683 42.1684 50.4672 42.0701 50.2441C41.9719 50.021 41.9211 49.7806 41.9207 49.5376C41.9203 49.2946 41.9705 49.0541 42.0681 48.8307C42.1656 48.6074 42.3086 48.4059 42.4882 48.2385C42.6678 48.0712 42.8803 47.9415 43.1127 47.8575C43.3452 47.7734 43.5926 47.7367 43.8399 47.7496C44.0873 47.7625 44.3294 47.8247 44.5514 47.9325L47.03 49.0053C47.2523 49.0948 47.4542 49.2267 47.624 49.3934C47.7939 49.5601 47.9283 49.7583 48.0195 49.9764C48.1107 50.1945 48.1568 50.4281 48.1552 50.6638C48.1536 50.8995 48.1043 51.1326 48.0101 51.3495Z" fill="white" stroke="#4D834A" stroke-miterlimit="10"/>
<path d="M47.4107 54.9808C47.22 55.4156 46.8614 55.7584 46.4135 55.9342C45.9656 56.1099 45.4649 56.1043 45.0212 55.9185L43.79 55.3941C43.5573 55.3106 43.3444 55.1816 43.1643 55.0148C42.9842 54.8479 42.8407 54.6468 42.7424 54.4238C42.6442 54.2007 42.5934 53.9603 42.593 53.7173C42.5926 53.4743 42.6428 53.2338 42.7404 53.0104C42.8379 52.787 42.9809 52.5855 43.1605 52.4182C43.3401 52.2509 43.5526 52.1212 43.785 52.0371C44.0175 51.9531 44.2649 51.9164 44.5122 51.9293C44.7596 51.9422 45.0017 52.0044 45.2237 52.1122L46.4792 52.6366C46.9194 52.8265 47.2648 53.1801 47.4395 53.6196C47.6141 54.0592 47.6038 54.5488 47.4107 54.9808Z" fill="white" stroke="#4D834A" stroke-miterlimit="10"/>
<path d="M47.3297 43.2678C47.139 43.7025 46.7804 44.0454 46.3325 44.2211C45.8846 44.3969 45.3839 44.3913 44.9402 44.2055L43.3202 43.5142C43.0875 43.4308 42.8746 43.3017 42.6945 43.1349C42.5144 42.968 42.3709 42.767 42.2726 42.5439C42.1744 42.3208 42.1236 42.0804 42.1232 41.8374C42.1228 41.5944 42.173 41.3539 42.2706 41.1305C42.3681 40.9072 42.5111 40.7057 42.6907 40.5383C42.8703 40.371 43.0828 40.2413 43.3152 40.1573C43.5476 40.0732 43.7951 40.0365 44.0424 40.0494C44.2898 40.0623 44.5319 40.1245 44.7539 40.2323L46.3739 40.9236C46.817 41.1107 47.1665 41.4625 47.3456 41.9019C47.5248 42.3414 47.5191 42.8325 47.3297 43.2678Z" fill="white" stroke="#4D834A" stroke-miterlimit="10"/>
<path d="M66.0867 50.5391L67.8506 51.2823L62.9957 62.3735L61.2318 61.6304C61.0344 61.5472 60.8788 61.3905 60.7991 61.1948C60.7195 60.999 60.7224 60.7803 60.8071 60.5866L65.0228 50.9558C65.1076 50.7621 65.2673 50.6094 65.4668 50.5313C65.6663 50.4532 65.8893 50.456 66.0867 50.5391Z" fill="white" stroke="#4D834A" stroke-linecap="round" stroke-linejoin="round"/>
<path d="M55.7861 23.2671C55.1487 22.6395 54.3913 22.1415 53.5573 21.8018C52.7233 21.462 51.8291 21.2871 50.9261 21.2871C50.0231 21.2871 49.1289 21.462 48.2949 21.8018C47.4609 22.1415 46.7035 22.6395 46.0661 23.2671" stroke="#4D834A" stroke-linecap="round" stroke-linejoin="round"/>
<path d="M54.0932 24.9197C53.2532 24.0957 52.1139 23.6328 50.9261 23.6328C49.7382 23.6328 48.599 24.0957 47.759 24.9197" stroke="#4D834A" stroke-linecap="round" stroke-linejoin="round"/>
<path d="M52.4084 26.5804C52.0168 26.1981 51.4867 25.9834 50.9342 25.9834C50.3817 25.9834 49.8516 26.1981 49.46 26.5804" stroke="#4D834A" stroke-linecap="round" stroke-linejoin="round"/>
<path d="M25.0061 44.8574V56.7771H39.9911" stroke="#4D834A" stroke-linecap="round" stroke-linejoin="round"/>
<path d="M35.5361 56.1815C35.5361 57.6353 35.0967 59.0564 34.2734 60.2652C33.4501 61.474 32.2799 62.4161 30.9108 62.9724C29.5418 63.5288 28.0353 63.6743 26.5819 63.3907C25.1285 63.1071 23.7934 62.407 22.7456 61.3791C21.6977 60.3511 20.9842 59.0414 20.6951 57.6155C20.406 56.1897 20.5543 54.7117 21.1214 53.3686C21.6885 52.0255 22.6488 50.8775 23.881 50.0698C25.1131 49.2622 26.5617 48.8311 28.0436 48.8311C30.0307 48.8311 31.9365 49.6055 33.3416 50.9839C34.7467 52.3624 35.5361 54.232 35.5361 56.1815Z" fill="white"/>
<path d="M35.5361 56.1815C35.5361 57.6353 35.0967 59.0564 34.2734 60.2652C33.4501 61.474 32.2799 62.4161 30.9108 62.9724C29.5418 63.5288 28.0353 63.6743 26.5819 63.3907C25.1285 63.1071 23.7934 62.407 22.7456 61.3791C21.6977 60.3511 20.9842 59.0414 20.6951 57.6155C20.406 56.1897 20.5543 54.7117 21.1214 53.3686C21.6885 52.0255 22.6488 50.8775 23.881 50.0698C25.1131 49.2622 26.5617 48.8311 28.0436 48.8311C30.0307 48.8311 31.9365 49.6055 33.3416 50.9839C34.7467 52.3624 35.5361 54.232 35.5361 56.1815V56.1815Z" stroke="#4D834A" stroke-linecap="round" stroke-linejoin="round"/>
<path d="M27.0311 59.4784C26.846 59.4788 26.6626 59.4432 26.4916 59.3736C26.3206 59.3041 26.1653 59.2019 26.0348 59.0732L24.1556 57.2296C24.0103 57.1048 23.8926 56.9519 23.81 56.7806C23.7274 56.6093 23.6816 56.4231 23.6754 56.2337C23.6692 56.0443 23.7028 55.8557 23.774 55.6795C23.8453 55.5033 23.9526 55.3434 24.0895 55.2097C24.2264 55.0759 24.3898 54.9712 24.5697 54.9021C24.7495 54.8329 24.942 54.8007 25.135 54.8076C25.3281 54.8144 25.5176 54.8602 25.6919 54.9419C25.8662 55.0236 26.0215 55.1396 26.1482 55.2827L27.0311 56.1489L30.1415 53.0895C30.4102 52.8587 30.7582 52.7365 31.1152 52.7478C31.4722 52.759 31.8115 52.9028 32.0645 53.1501C32.3176 53.3973 32.4656 53.7296 32.4785 54.0798C32.4914 54.4299 32.3683 54.7718 32.1341 55.0364L28.0193 59.0732C27.89 59.2013 27.7361 59.3031 27.5665 59.3727C27.3969 59.4423 27.2149 59.4782 27.0311 59.4784Z" fill="#81DA7B" stroke="#4D834A" stroke-linecap="round" stroke-linejoin="round"/>
</svg>
