<svg width="82" height="49" viewBox="0 0 82 49" fill="none" xmlns="http://www.w3.org/2000/svg">
<path d="M1.40874 12.7891C1.03515 12.7891 0.676866 12.9378 0.412699 13.2025C0.148531 13.4672 0.00012207 13.8262 0.00012207 14.2005V46.9443C0.00332052 47.3176 0.152756 47.6747 0.416233 47.9387C0.679711 48.2027 1.03614 48.3524 1.40874 48.3556H49.8408C50.1189 48.3559 50.3942 48.3007 50.6508 48.1933C50.9073 48.0858 51.14 47.9282 51.3351 47.7297L58.5375 40.501C58.7328 40.3041 58.8875 40.0705 58.9926 39.8135C59.0977 39.5566 59.1511 39.2814 59.1499 39.0038V14.2005C59.1515 14.0147 59.1162 13.8304 59.046 13.6584C58.9758 13.4865 58.8721 13.3302 58.741 13.1988C58.6098 13.0675 58.4539 12.9636 58.2823 12.8932C58.1106 12.8229 57.9267 12.7875 57.7413 12.7891H1.40874Z" fill="white"/>
<path d="M49.8413 47.8556H49.8408H1.41107C1.17061 47.853 0.940502 47.7562 0.770132 47.5855C0.599713 47.4147 0.502692 47.1837 0.500122 46.9419V14.2005C0.500122 13.9585 0.596088 13.7265 0.766596 13.5557C0.93707 13.3849 1.16808 13.2891 1.40874 13.2891L57.7413 13.2891L57.7457 13.2891C57.8646 13.288 57.9825 13.3107 58.0926 13.3559C58.2027 13.401 58.3028 13.4677 58.3871 13.5521C58.4713 13.6364 58.5379 13.7368 58.5831 13.8474L59.046 13.6584L58.5831 13.8474C58.6283 13.958 58.651 14.0766 58.6499 14.1961V14.2005L58.6499 39.0038L58.6499 39.006C58.6508 39.218 58.61 39.4281 58.5298 39.6242C58.4496 39.8203 58.3316 39.9985 58.1827 40.1487C58.1826 40.1488 58.1825 40.1489 58.1825 40.1489L50.9809 47.3768L50.9786 47.3792C50.83 47.5303 50.6529 47.6503 50.4576 47.7321C50.2624 47.8138 50.0528 47.8558 49.8413 47.8556Z" stroke="#4D834A" stroke-linecap="round" stroke-linejoin="round"/>
<path d="M59.162 14.0163V19.5636L-4.19617e-05 19.5636V14.0163C-4.19617e-05 13.6908 0.129009 13.3787 0.358719 13.1485C0.588428 12.9184 0.899986 12.7891 1.22485 12.7891L57.9371 12.7891C58.262 12.7891 58.5735 12.9184 58.8032 13.1485C59.0329 13.3787 59.162 13.6908 59.162 14.0163Z" fill="#91DF8B"/>
<path d="M5.9165 30.5723H27.891" stroke="#4D834A" stroke-linecap="round" stroke-linejoin="round"/>
<path d="M5.9165 25.4932H21.9748" stroke="#4D834A" stroke-linecap="round" stroke-linejoin="round"/>
<path d="M27.1927 36.501C26.7991 36.8947 26.5085 37.3797 26.3467 37.913C26.1849 38.4462 26.157 39.0112 26.2653 39.5579C26.3736 40.1045 26.6149 40.6159 26.9678 41.0468C27.3206 41.4776 27.7741 41.8146 28.2881 42.0278C28.802 42.241 29.3605 42.3238 29.914 42.269C30.4676 42.2141 30.999 42.0232 31.4613 41.7133C31.9236 41.4033 32.3025 40.9839 32.5642 40.4921C32.826 40.0004 32.9626 39.4515 32.9619 38.8942V39.5692C32.9619 40.2885 33.2471 40.9784 33.7548 41.487C34.2625 41.9957 34.951 42.2814 35.6689 42.2814C36.3869 42.2814 37.0754 41.9957 37.5831 41.487C38.0907 40.9784 38.3759 40.2885 38.3759 39.5692C38.3759 40.2885 38.6611 40.9784 39.1688 41.487C39.6765 41.9957 40.365 42.2814 41.0829 42.2814H43.104" stroke="#4D834A" stroke-linecap="round" stroke-linejoin="round"/>
<path d="M58.662 14.0163V19.0636L0.499958 19.0636V14.0163C0.499958 13.8231 0.576565 13.6381 0.712616 13.5017C0.848637 13.3655 1.03291 13.2891 1.22485 13.2891L57.9371 13.2891C58.129 13.2891 58.3133 13.3654 58.4493 13.5017C58.5854 13.6381 58.662 13.8231 58.662 14.0163Z" stroke="#4D834A" stroke-linecap="round" stroke-linejoin="round"/>
<path d="M80.8795 7.34075L54.4343 33.85L49.1672 28.5604L75.6125 2.05117C76.3142 1.34811 77.2659 0.953125 78.2583 0.953125C79.2506 0.953125 80.2023 1.34811 80.904 2.05117C81.6057 2.75424 82 3.70781 82 4.7021C82 5.69638 81.6057 6.64995 80.904 7.35302L80.8795 7.34075Z" fill="white"/>
<mask id="path-9-inside-1_3296_2576" fill="white">
<path d="M58.9784 39.8887H52.1191C51.7455 39.8887 51.3872 40.0374 51.123 40.3021C50.8589 40.5667 50.7104 40.9257 50.7104 41.3V48.1605"/>
</mask>
<path d="M58.9784 40.8887C59.5307 40.8887 59.9784 40.441 59.9784 39.8887C59.9784 39.3364 59.5307 38.8887 58.9784 38.8887V40.8887ZM49.7104 48.1605C49.7104 48.7128 50.1582 49.1605 50.7104 49.1605C51.2627 49.1605 51.7104 48.7128 51.7104 48.1605H49.7104ZM58.9784 38.8887H52.1191V40.8887H58.9784V38.8887ZM52.1191 38.8887C51.4796 38.8887 50.8668 39.1432 50.4152 39.5956L51.8308 41.0085C51.9076 40.9315 52.0113 40.8887 52.1191 40.8887V38.8887ZM50.4152 39.5956C49.9637 40.048 49.7104 40.6611 49.7104 41.3H51.7104C51.7104 41.1903 51.754 41.0855 51.8308 41.0085L50.4152 39.5956ZM49.7104 41.3V48.1605H51.7104V41.3H49.7104Z" fill="#4D834A" mask="url(#path-9-inside-1_3296_2576)"/>
<path d="M68.9738 8.66602L74.2653 13.9678" stroke="#4D834A" stroke-linecap="round" stroke-linejoin="round"/>
<mask id="path-12-inside-2_3296_2576" fill="white">
<path d="M62.3594 8.66612L66.9894 4.02701C67.8668 3.14866 69.0564 2.65527 70.2966 2.65527C71.5369 2.65527 72.7265 3.14866 73.6038 4.02701"/>
</mask>
<path d="M61.6516 7.95971C61.2614 8.35061 61.2621 8.98378 61.653 9.37392C62.0439 9.76406 62.677 9.76345 63.0672 9.37254L61.6516 7.95971ZM66.9894 4.02701L66.282 3.32029L66.2817 3.32059L66.9894 4.02701ZM72.8963 4.73373C73.2867 5.12447 73.9198 5.12482 74.3106 4.73451C74.7013 4.3442 74.7016 3.71103 74.3113 3.32029L72.8963 4.73373ZM63.0672 9.37254L67.6972 4.73343L66.2817 3.32059L61.6516 7.95971L63.0672 9.37254ZM67.6969 4.73373C68.387 4.04295 69.3221 3.65527 70.2966 3.65527V1.65527C68.7907 1.65527 67.3467 2.25438 66.282 3.32029L67.6969 4.73373ZM70.2966 3.65527C71.2712 3.65527 72.2063 4.04295 72.8963 4.73373L74.3113 3.32029C73.2466 2.25438 71.8026 1.65527 70.2966 1.65527V3.65527Z" fill="#4D834A" mask="url(#path-12-inside-2_3296_2576)"/>
<path d="M53.4868 33.6317L47.2774 35.7087L49.36 29.4872L53.4868 33.6317Z" fill="#91DF8B" stroke="#4D834A" stroke-linecap="round" stroke-linejoin="round"/>
<path d="M80.6477 6.89769C80.6035 6.92085 80.5622 6.95092 80.5256 6.98762L54.4346 33.1417L49.8732 28.5607L75.9664 2.40438C75.9665 2.40436 75.9665 2.40433 75.9665 2.4043C76.5745 1.79516 77.3989 1.45312 78.2583 1.45312C79.1177 1.45312 79.9421 1.79519 80.5501 2.40438C81.1582 3.01361 81.5 3.8401 81.5 4.7021C81.5 5.51684 81.1946 6.29987 80.6477 6.89769Z" stroke="#4D834A" stroke-linecap="round" stroke-linejoin="round"/>
</svg>
