<svg width="26" height="25" viewBox="0 0 26 25" fill="none" xmlns="http://www.w3.org/2000/svg">
<path d="M5.16016 19.5312C6.47266 18.6146 7.77474 17.9115 9.06641 17.4219C10.3581 16.9323 11.7435 16.6875 13.2227 16.6875C14.7018 16.6875 16.0924 16.9323 17.3945 17.4219C18.6966 17.9115 20.0039 18.6146 21.3164 19.5312C22.2331 18.4062 22.8841 17.2708 23.2695 16.125C23.6549 14.9792 23.8477 13.7708 23.8477 12.5C23.8477 9.47917 22.832 6.95312 20.8008 4.92188C18.7695 2.89062 16.2435 1.875 13.2227 1.875C10.2018 1.875 7.67578 2.89062 5.64453 4.92188C3.61328 6.95312 2.59766 9.47917 2.59766 12.5C2.59766 13.7708 2.79557 14.9792 3.19141 16.125C3.58724 17.2708 4.24349 18.4062 5.16016 19.5312ZM13.2227 13.4375C12.0143 13.4375 10.9987 13.026 10.1758 12.2031C9.35286 11.3802 8.94141 10.3646 8.94141 9.15625C8.94141 7.94792 9.35286 6.93229 10.1758 6.10938C10.9987 5.28646 12.0143 4.875 13.2227 4.875C14.431 4.875 15.4466 5.28646 16.2695 6.10938C17.0924 6.93229 17.5039 7.94792 17.5039 9.15625C17.5039 10.3646 17.0924 11.3802 16.2695 12.2031C15.4466 13.026 14.431 13.4375 13.2227 13.4375ZM13.2227 25C11.5143 25 9.89974 24.6719 8.37891 24.0156C6.85807 23.3594 5.52995 22.4635 4.39453 21.3281C3.25911 20.1927 2.36328 18.8646 1.70703 17.3438C1.05078 15.8229 0.722656 14.2083 0.722656 12.5C0.722656 10.7708 1.05078 9.15104 1.70703 7.64062C2.36328 6.13021 3.25911 4.80729 4.39453 3.67188C5.52995 2.53646 6.85807 1.64062 8.37891 0.984375C9.89974 0.328125 11.5143 0 13.2227 0C14.9518 0 16.5716 0.328125 18.082 0.984375C19.5924 1.64062 20.9154 2.53646 22.0508 3.67188C23.1862 4.80729 24.082 6.13021 24.7383 7.64062C25.3945 9.15104 25.7227 10.7708 25.7227 12.5C25.7227 14.2083 25.3945 15.8229 24.7383 17.3438C24.082 18.8646 23.1862 20.1927 22.0508 21.3281C20.9154 22.4635 19.5924 23.3594 18.082 24.0156C16.5716 24.6719 14.9518 25 13.2227 25ZM13.2227 23.125C14.3685 23.125 15.4883 22.9583 16.582 22.625C17.6758 22.2917 18.7539 21.7083 19.8164 20.875C18.7539 20.125 17.6706 19.5521 16.5664 19.1562C15.4622 18.7604 14.3477 18.5625 13.2227 18.5625C12.0977 18.5625 10.9831 18.7604 9.87891 19.1562C8.77474 19.5521 7.69141 20.125 6.62891 20.875C7.69141 21.7083 8.76953 22.2917 9.86328 22.625C10.957 22.9583 12.0768 23.125 13.2227 23.125ZM13.2227 11.5625C13.931 11.5625 14.5091 11.3385 14.957 10.8906C15.4049 10.4427 15.6289 9.86458 15.6289 9.15625C15.6289 8.44792 15.4049 7.86979 14.957 7.42188C14.5091 6.97396 13.931 6.75 13.2227 6.75C12.5143 6.75 11.9362 6.97396 11.4883 7.42188C11.0404 7.86979 10.8164 8.44792 10.8164 9.15625C10.8164 9.86458 11.0404 10.4427 11.4883 10.8906C11.9362 11.3385 12.5143 11.5625 13.2227 11.5625Z" fill="#B05056"/>
</svg>
