<svg width="85" height="105" viewBox="0 0 85 105" fill="none" xmlns="http://www.w3.org/2000/svg">
<path d="M51.04 104.783C68.1884 104.783 82.09 103.386 82.09 101.663C82.09 99.9394 68.1884 98.5425 51.04 98.5425C33.8916 98.5425 19.99 99.9394 19.99 101.663C19.99 103.386 33.8916 104.783 51.04 104.783Z" fill="#D6DAFF"/>
<path d="M0.835562 17.6692L0.835614 17.6692L0.833631 17.6621C0.77808 17.463 0.762652 17.2548 0.788255 17.0496C0.813859 16.8445 0.879975 16.6465 0.98271 16.4674C1.08544 16.2882 1.22273 16.1313 1.3865 16.006C1.55026 15.8806 1.73725 15.7893 1.93654 15.7371L1.9373 15.7369L57.9875 0.984204C57.9878 0.98413 57.9881 0.984057 57.9883 0.983984C58.3897 0.880181 58.8158 0.939703 59.1736 1.14971C59.5317 1.35988 59.7925 1.70378 59.8985 2.10643L59.8986 2.10673L75.737 62.1153L18.1727 77.3353C18.1723 77.3354 18.172 77.3355 18.1716 77.3355C17.7675 77.4399 17.3385 77.3806 16.9775 77.1703C16.6166 76.96 16.3527 76.6155 16.2431 76.2113C16.243 76.2109 16.2428 76.2104 16.2427 76.21L0.835562 17.6692Z" fill="white" stroke="#4550E5" stroke-linejoin="round"/>
<path d="M11.0457 21.0756L11.0465 21.0754L52.6773 10.0023C52.6778 10.0021 52.6783 10.002 52.6788 10.0019C53.0828 9.89766 53.5116 9.95701 53.8725 10.1673C54.2332 10.3775 54.4972 10.7218 54.6068 11.1258C54.607 11.1264 54.6071 11.127 54.6073 11.1276L64.7214 49.5806L21.5735 60.9954C21.5733 60.9954 21.5732 60.9955 21.573 60.9955C21.1705 61.1006 20.7429 61.0432 20.3822 60.8355C20.0222 60.6283 19.7572 60.2879 19.6445 59.887C19.6442 59.886 19.6439 59.8849 19.6436 59.8838L9.92609 22.9922C9.92599 22.9918 9.92589 22.9914 9.9258 22.991C9.82209 22.5882 9.88169 22.1606 10.0915 21.8017C10.3014 21.4426 10.6446 21.1816 11.0457 21.0756Z" fill="#D6DAFF" stroke="#4550E5" stroke-linejoin="round"/>
<path d="M23.9678 22.8052H82.4679C83.1849 22.8052 83.7679 23.3879 83.7679 24.1087V85.2138C83.7679 85.9346 83.1849 86.5173 82.4679 86.5173H23.9678C23.2508 86.5173 22.6678 85.9346 22.6678 85.2138V24.1087C22.6678 23.3879 23.2508 22.8052 23.9678 22.8052Z" fill="white" stroke="#4550E5" stroke-linejoin="round"/>
<path d="M75.016 29.772H31.42C30.4259 29.772 29.62 30.5795 29.62 31.5755V70.2802C29.62 71.2763 30.4259 72.0838 31.42 72.0838H75.016C76.0101 72.0838 76.816 71.2763 76.816 70.2802V31.5755C76.816 30.5795 76.0101 29.772 75.016 29.772Z" fill="#D6DAFF"/>
<path d="M31.42 30.272H75.016C75.733 30.272 76.316 30.8547 76.316 31.5755V70.2802C76.316 71.0011 75.733 71.5838 75.016 71.5838H31.42C30.703 71.5838 30.12 71.0011 30.12 70.2802V31.5755C30.12 30.8547 30.703 30.272 31.42 30.272Z" stroke="#4550E5" stroke-linejoin="round"/>
<mask id="path-7-inside-1_190_1310" fill="white">
<path d="M39.5559 37.8702C40.1271 37.8678 40.6931 37.9785 41.2215 38.1958C41.7499 38.4132 42.2303 38.733 42.635 39.1368C43.0397 39.5407 43.3609 40.0207 43.58 40.5492C43.7991 41.0777 43.9119 41.6444 43.9119 42.2168"/>
</mask>
<path d="M39.5518 36.8702C38.9995 36.8725 38.5536 37.322 38.5559 37.8743C38.5582 38.4266 39.0078 38.8724 39.5601 38.8701L39.5518 36.8702ZM42.9119 42.2167C42.9119 42.769 43.3596 43.2167 43.9119 43.2168C44.4642 43.2168 44.9119 42.769 44.9119 42.2168L42.9119 42.2167ZM39.5601 38.8701C39.9993 38.8683 40.4346 38.9534 40.8411 39.1206L41.602 37.271C40.9516 37.0035 40.2549 36.8672 39.5518 36.8702L39.5601 38.8701ZM40.8411 39.1206C41.2475 39.2878 41.6171 39.5339 41.9286 39.8447L43.3413 38.429C42.8434 37.9321 42.2523 37.5386 41.602 37.271L40.8411 39.1206ZM41.9286 39.8447C42.2402 40.1556 42.4875 40.5251 42.6562 40.9322L44.5037 40.1662C44.2342 39.5162 43.8393 38.9258 43.3413 38.429L41.9286 39.8447ZM42.6562 40.9322C42.825 41.3393 42.9119 41.7758 42.9119 42.2167L44.9119 42.2168C44.9119 41.513 44.7732 40.8162 44.5037 40.1662L42.6562 40.9322Z" fill="#4550E5" mask="url(#path-7-inside-1_190_1310)"/>
<mask id="path-9-inside-2_190_1310" fill="white">
<path d="M48.2499 37.8701C47.0994 37.8701 45.996 38.3281 45.1824 39.1432C44.3689 39.9584 43.9119 41.0639 43.9119 42.2167"/>
</mask>
<path d="M48.2499 38.8701C48.8022 38.8701 49.2499 38.4224 49.2499 37.8701C49.2499 37.3178 48.8022 36.8701 48.2499 36.8701V38.8701ZM42.9119 42.2167C42.9119 42.769 43.3596 43.2167 43.9119 43.2167C44.4642 43.2167 44.9119 42.769 44.9119 42.2167H42.9119ZM48.2499 36.8701C46.8335 36.8701 45.4756 37.4339 44.4746 38.4368L45.8902 39.8496C46.5164 39.2222 47.3652 38.8701 48.2499 38.8701V36.8701ZM44.4746 38.4368C43.4738 39.4396 42.9119 40.7994 42.9119 42.2167H44.9119C44.9119 41.3285 45.264 40.4771 45.8902 39.8496L44.4746 38.4368Z" fill="#4550E5" mask="url(#path-9-inside-2_190_1310)"/>
<mask id="path-11-inside-3_190_1310" fill="white">
<path d="M35.83 46.5635C36.4074 46.5658 36.9787 46.6827 37.5108 46.9074C38.043 47.1321 38.5255 47.4601 38.9304 47.8726C39.3354 48.2851 39.6548 48.7738 39.8703 49.3106C40.0858 49.8474 40.1931 50.4217 40.186 51.0003"/>
</mask>
<path d="M35.834 45.5635C35.2817 45.5612 34.8322 46.0071 34.83 46.5594C34.8277 47.1117 35.2736 47.5612 35.8259 47.5635L35.834 45.5635ZM39.186 50.9879C39.1792 51.5402 39.6214 51.9934 40.1736 52.0002C40.7259 52.007 41.1791 51.5648 41.1859 51.0126L39.186 50.9879ZM35.8259 47.5635C36.2711 47.5653 36.7115 47.6554 37.1219 47.8286L37.8998 45.9861C37.2459 45.71 36.5438 45.5664 35.834 45.5635L35.8259 47.5635ZM37.1219 47.8286C37.5322 48.0019 37.9044 48.2549 38.2168 48.5732L39.644 47.172C39.1465 46.6653 38.5538 46.2623 37.8998 45.9861L37.1219 47.8286ZM38.2168 48.5732C38.5293 48.8915 38.7759 49.2687 38.9423 49.6832L40.7983 48.9381C40.5337 48.2789 40.1414 47.6787 39.644 47.172L38.2168 48.5732ZM38.9423 49.6832C39.1087 50.0976 39.1915 50.5411 39.186 50.9879L41.1859 51.0126C41.1946 50.3023 41.0629 49.5972 40.7983 48.9381L38.9423 49.6832Z" fill="#4550E5" mask="url(#path-11-inside-3_190_1310)"/>
<mask id="path-13-inside-4_190_1310" fill="white">
<path d="M44.524 46.5635C43.9474 46.5658 43.3769 46.6828 42.8458 46.9077C42.3146 47.1326 41.8333 47.4609 41.4298 47.8737C41.0263 48.2864 40.7085 48.7753 40.495 49.312C40.2815 49.8487 40.1765 50.4226 40.186 51.0003"/>
</mask>
<path d="M44.528 47.5635C45.0803 47.5613 45.5262 47.1118 45.524 46.5595C45.5218 46.0072 45.0723 45.5613 44.52 45.5635L44.528 47.5635ZM39.1862 51.0168C39.1953 51.569 39.6503 52.0092 40.2025 52.0001C40.7547 51.991 41.195 51.536 41.1859 50.9838L39.1862 51.0168ZM44.52 45.5635C43.8107 45.5663 43.1091 45.7102 42.4559 45.9868L43.2357 47.8285C43.6448 47.6553 44.084 47.5652 44.528 47.5635L44.52 45.5635ZM42.4559 45.9868C41.8026 46.2634 41.2109 46.6672 40.7148 47.1746L42.1448 48.5728C42.4558 48.2547 42.8266 48.0018 43.2357 47.8285L42.4559 45.9868ZM40.7148 47.1746C40.2187 47.6819 39.8282 48.2828 39.5658 48.9424L41.4242 49.6816C41.5889 49.2677 41.8338 48.8908 42.1448 48.5728L40.7148 47.1746ZM39.5658 48.9424C39.3035 49.6019 39.1744 50.307 39.1862 51.0168L41.1859 50.9838C41.1785 50.5381 41.2595 50.0955 41.4242 49.6816L39.5658 48.9424Z" fill="#4550E5" mask="url(#path-13-inside-4_190_1310)"/>
<path d="M46.7699 52.6724V52.6724H46.7739H57.2137C57.6693 52.6729 58.111 52.8306 58.4645 53.1192L58.7807 52.7319L58.4645 53.1192C58.8178 53.4077 59.0615 53.8094 59.1542 54.2569C59.9999 58.4087 63.1232 62.9722 65.9733 66.4533C67.4072 68.2047 68.7888 69.7019 69.8117 70.7612C70.1151 71.0753 70.3871 71.3512 70.6198 71.5839H34.4885C34.7006 71.3486 34.9499 71.0683 35.2286 70.7481C36.1477 69.6921 37.389 68.1997 38.6779 66.4539C41.242 62.9809 44.0482 58.4345 44.8175 54.302L44.8175 54.302L44.8182 54.2979C44.8997 53.8392 45.1405 53.4245 45.4978 53.127C45.855 52.8296 46.3057 52.6686 46.7699 52.6724Z" fill="white" stroke="#4550E5" stroke-linejoin="round"/>
<path d="M46.5373 54.1995L46.5375 54.1995L46.5426 54.1887C46.7524 53.741 47.0836 53.3616 47.4981 53.0936C47.9107 52.8269 48.3894 52.6812 48.8801 52.6729L55.0826 52.763V52.763L55.087 52.763C55.5697 52.7658 56.0422 52.9025 56.4522 53.158C56.8622 53.4136 57.1937 53.778 57.4098 54.211C57.6259 54.644 57.7181 55.1286 57.6761 55.611C57.6341 56.0924 57.4602 56.5527 57.1737 56.9411L56.5457 57.7681L56.5456 57.7681L56.5436 57.7709C56.0116 58.4816 55.3219 59.0583 54.5291 59.4555C53.7363 59.8527 52.8621 60.0594 51.9759 60.0594C51.0896 60.0594 50.2154 59.8527 49.4226 59.4555C48.6303 59.0586 47.941 58.4823 47.4092 57.7723L46.7982 56.9441L46.7983 56.944L46.794 56.9385C46.5003 56.5516 46.3204 56.09 46.2751 55.6058C46.2297 55.1216 46.3206 54.6344 46.5373 54.1995Z" fill="white" stroke="#4550E5" stroke-linejoin="round"/>
<path d="M68.2519 40.9735C68.2517 41.859 67.9896 42.7245 67.4987 43.4606C67.0076 44.197 66.3097 44.7708 65.4934 45.1096C64.6771 45.4484 63.7789 45.5371 62.9124 45.3644C62.0459 45.1916 61.2498 44.7653 60.6249 44.1392C60 43.513 59.5743 42.7151 59.4018 41.8463C59.2293 40.9775 59.3179 40.0769 59.6562 39.2586C59.9945 38.4402 60.5673 37.7409 61.302 37.249C62.0365 36.7573 62.8999 36.4948 63.783 36.4946C64.9665 36.4991 66.1005 36.9722 66.9377 37.8111C67.7749 38.65 68.2474 39.7867 68.2519 40.9735Z" fill="white" stroke="#4550E5" stroke-linejoin="round"/>
<path opacity="0.15" d="M50.8241 104.783C67.9725 104.783 81.8741 103.386 81.8741 101.663C81.8741 99.9394 67.9725 98.5425 50.8241 98.5425C33.6756 98.5425 19.774 99.9394 19.774 101.663C19.774 103.386 33.6756 104.783 50.8241 104.783Z" fill="#191816"/>
<path d="M17.9542 77.3359L17.9512 77.3367C17.7537 77.3902 17.5477 77.4041 17.3449 77.3774C17.1421 77.3508 16.9465 77.2843 16.7694 77.1816C16.5923 77.079 16.4371 76.9422 16.3128 76.7791C16.1886 76.616 16.0977 76.4298 16.0455 76.2312L16.0455 76.231L0.61947 17.6691L0.619521 17.6691L0.617567 17.6621C0.562016 17.463 0.546587 17.2548 0.572191 17.0496C0.597794 16.8445 0.663911 16.6465 0.766645 16.4674L0.335964 16.2204L0.766646 16.4674C0.869381 16.2882 1.00666 16.1313 1.17043 16.006L0.866527 15.6089L1.17043 16.006C1.3342 15.8806 1.52118 15.7893 1.72047 15.7371L1.72123 15.7369L57.7714 0.984204C57.7717 0.984129 57.772 0.984055 57.7723 0.98398C58.1736 0.880182 58.5997 0.939705 58.9575 1.14971C59.3157 1.35988 59.5764 1.70378 59.6824 2.10643L59.6825 2.10673L75.521 62.1153L17.9542 77.3359Z" fill="#FFF5EB" stroke="#191816" stroke-linejoin="round"/>
<path d="M9.72731 22.9714L9.72662 22.9688C9.67313 22.7706 9.65928 22.5638 9.68588 22.3602C9.71248 22.1566 9.77901 21.9604 9.88158 21.7827C9.98416 21.6051 10.1208 21.4496 10.2834 21.3251L9.97969 20.928L10.2834 21.3251C10.4461 21.2007 10.6317 21.1098 10.8295 21.0576L10.8302 21.0574L52.4613 10.0023C52.4617 10.0021 52.4622 10.002 52.4627 10.0019C52.8667 9.89765 53.2955 9.957 53.6564 10.1673C54.0172 10.3775 54.2811 10.7218 54.3907 11.1258C54.3909 11.1264 54.391 11.127 54.3912 11.1276L64.5053 49.5806L21.3632 60.9939C20.9683 61.0849 20.5535 61.0212 20.2037 60.8155C19.8534 60.6095 19.595 60.2767 19.4819 59.8853L9.72731 22.9714Z" fill="#00B8F0" stroke="#191816" stroke-linejoin="round"/>
<path d="M23.7519 22.8052H82.2519C82.9689 22.8052 83.5519 23.3879 83.5519 24.1087V85.2138C83.5519 85.9346 82.9689 86.5173 82.2519 86.5173H23.7519C23.0349 86.5173 22.4519 85.9346 22.4519 85.2138V24.1087C22.4519 23.3879 23.0349 22.8052 23.7519 22.8052Z" fill="#FFF5EB" stroke="#191816" stroke-linejoin="round"/>
<path d="M74.7999 29.772H31.2039C30.2098 29.772 29.4039 30.5795 29.4039 31.5755V70.2802C29.4039 71.2763 30.2098 72.0838 31.2039 72.0838H74.7999C75.7941 72.0838 76.5999 71.2763 76.5999 70.2802V31.5755C76.5999 30.5795 75.7941 29.772 74.7999 29.772Z" fill="#4ACFFF"/>
<path d="M31.4739 29.772C30.9264 29.7767 30.4026 29.9967 30.0154 30.3847C29.6282 30.7726 29.4086 31.2975 29.4039 31.8461V59.6391L61.6959 29.772H31.4739Z" fill="#80DDFF"/>
<path d="M31.2039 30.272H74.7999C75.517 30.272 76.0999 30.8547 76.0999 31.5755V70.2802C76.0999 71.0011 75.517 71.5838 74.7999 71.5838H31.2039C30.4869 71.5838 29.9039 71.0011 29.9039 70.2802V31.5755C29.9039 30.8547 30.4869 30.272 31.2039 30.272Z" stroke="#191816" stroke-linejoin="round"/>
<mask id="path-25-inside-5_190_1310" fill="white">
<path d="M39.34 37.8702C39.9112 37.8678 40.4772 37.9785 41.0056 38.1958C41.534 38.4132 42.0143 38.733 42.419 39.1368C42.8238 39.5407 43.1449 40.0207 43.364 40.5492C43.5832 41.0777 43.696 41.6444 43.696 42.2168"/>
</mask>
<path d="M39.3358 36.8702C38.7835 36.8725 38.3377 37.322 38.34 37.8743C38.3423 38.4266 38.7918 38.8724 39.3441 38.8701L39.3358 36.8702ZM42.696 42.2167C42.696 42.769 43.1437 43.2167 43.696 43.2168C44.2482 43.2168 44.696 42.769 44.696 42.2168L42.696 42.2167ZM39.3441 38.8701C39.7834 38.8683 40.2187 38.9534 40.6251 39.1206L41.386 37.271C40.7357 37.0035 40.0389 36.8672 39.3358 36.8702L39.3441 38.8701ZM40.6251 39.1206C41.0316 39.2878 41.4012 39.5339 41.7127 39.8447L43.1254 38.429C42.6274 37.9321 42.0364 37.5386 41.386 37.271L40.6251 39.1206ZM41.7127 39.8447C42.0242 40.1556 42.2715 40.5251 42.4403 40.9322L44.2878 40.1662C44.0183 39.5162 43.6233 38.9258 43.1254 38.429L41.7127 39.8447ZM42.4403 40.9322C42.6091 41.3393 42.696 41.7758 42.696 42.2167L44.696 42.2168C44.696 41.513 44.5573 40.8162 44.2878 40.1662L42.4403 40.9322Z" fill="#191816" mask="url(#path-25-inside-5_190_1310)"/>
<mask id="path-27-inside-6_190_1310" fill="white">
<path d="M48.034 37.8701C46.8835 37.8701 45.7801 38.3281 44.9666 39.1432C44.1531 39.9584 43.696 41.0639 43.696 42.2167"/>
</mask>
<path d="M48.034 38.8701C48.5863 38.8701 49.034 38.4224 49.034 37.8701C49.034 37.3178 48.5863 36.8701 48.034 36.8701V38.8701ZM42.696 42.2167C42.696 42.769 43.1438 43.2167 43.696 43.2167C44.2483 43.2167 44.696 42.769 44.696 42.2167H42.696ZM48.034 36.8701C46.6177 36.8701 45.2597 37.4339 44.2588 38.4368L45.6744 39.8496C46.3006 39.2222 47.1494 38.8701 48.034 38.8701V36.8701ZM44.2588 38.4368C43.258 39.4396 42.696 40.7994 42.696 42.2167H44.696C44.696 41.3285 45.0482 40.4771 45.6744 39.8496L44.2588 38.4368Z" fill="#191816" mask="url(#path-27-inside-6_190_1310)"/>
<mask id="path-29-inside-7_190_1310" fill="white">
<path d="M35.614 46.5816C36.1913 46.5791 36.7633 46.6921 37.2964 46.914C37.8296 47.1358 38.3132 47.4621 38.7189 47.8736C39.1246 48.2852 39.4442 48.7737 39.659 49.3106C39.8739 49.8475 39.9796 50.422 39.97 51.0003"/>
</mask>
<path d="M35.6097 45.5816C35.0574 45.584 34.6117 46.0336 34.614 46.5859C34.6164 47.1382 35.066 47.5839 35.6183 47.5816L35.6097 45.5816ZM38.9702 50.9837C38.961 51.536 39.4012 51.991 39.9534 52.0002C40.5057 52.0093 40.9607 51.5691 40.9699 51.0169L38.9702 50.9837ZM35.6183 47.5816C36.0623 47.5797 36.5022 47.6666 36.9123 47.8372L37.6806 45.9907C37.0244 45.7176 36.3204 45.5785 35.6097 45.5816L35.6183 47.5816ZM36.9123 47.8372C37.3224 48.0079 37.6945 48.2589 38.0067 48.5757L39.431 47.1716C38.9319 46.6653 38.3368 46.2638 37.6806 45.9907L36.9123 47.8372ZM38.0067 48.5757C38.319 48.8924 38.5651 49.2686 38.7306 49.6821L40.5875 48.9391C40.3233 48.2788 39.9301 47.6779 39.431 47.1716L38.0067 48.5757ZM38.7306 49.6821C38.8961 50.0956 38.9775 50.5382 38.9702 50.9837L40.9699 51.0169C40.9817 50.3057 40.8517 49.5993 40.5875 48.9391L38.7306 49.6821Z" fill="#191816" mask="url(#path-29-inside-7_190_1310)"/>
<mask id="path-31-inside-8_190_1310" fill="white">
<path d="M44.3081 46.5815C43.7323 46.5815 43.1623 46.6962 42.6312 46.9192C42.1001 47.1421 41.6187 47.4687 41.2149 47.88C40.8111 48.2913 40.4931 48.779 40.2794 49.3148C40.0657 49.8505 39.9605 50.4234 39.9701 51.0003"/>
</mask>
<path d="M44.3079 47.5815C44.8602 47.5816 45.308 47.134 45.3081 46.5817C45.3082 46.0294 44.8605 45.5816 44.3082 45.5815L44.3079 47.5815ZM38.9702 51.0169C38.9794 51.5691 39.4344 52.0093 39.9866 52.0002C40.5389 51.991 40.9791 51.5359 40.9699 50.9837L38.9702 51.0169ZM44.3082 45.5815C43.5994 45.5814 42.8977 45.7227 42.2441 45.9971L43.0183 47.8412C43.4268 47.6697 43.8652 47.5815 44.3079 47.5815L44.3082 45.5815ZM42.2441 45.9971C41.5905 46.2715 40.9981 46.6735 40.5013 47.1795L41.9285 48.5806C42.2393 48.264 42.6098 48.0127 43.0183 47.8412L42.2441 45.9971ZM40.5013 47.1795C40.0046 47.6855 39.6134 48.2854 39.3506 48.9442L41.2082 49.6853C41.3728 49.2727 41.6177 48.8972 41.9285 48.5806L40.5013 47.1795ZM39.3506 48.9442C39.0878 49.603 38.9585 50.3076 38.9702 51.0169L40.9699 50.9837C40.9626 50.5393 41.0436 50.0979 41.2082 49.6853L39.3506 48.9442Z" fill="#191816" mask="url(#path-31-inside-8_190_1310)"/>
<path d="M58.9377 54.2547L58.938 54.2561C59.7835 58.408 62.907 62.972 65.7573 66.4533C67.1912 68.2047 68.5728 69.7018 69.5958 70.7612C69.8991 71.0753 70.1711 71.3511 70.4038 71.5838H34.3625C34.5747 71.3486 34.8239 71.0683 35.1027 70.748C36.0217 69.6921 37.263 68.1997 38.552 66.4538C41.116 62.9809 43.9223 58.4344 44.6915 54.3019L44.6915 54.3019L44.6923 54.2976C44.7714 53.851 45.0018 53.4456 45.3443 53.1496C45.685 52.8551 46.1161 52.6867 46.5655 52.6724L56.998 52.6724L57.0005 52.6724C57.4561 52.6701 57.8984 52.8265 58.2518 53.115C58.6053 53.4036 58.8478 53.8064 58.9377 54.2547Z" fill="#9CEB60" stroke="#191816" stroke-linejoin="round"/>
<path d="M48.661 52.6724V52.6724H48.6639H54.8724C55.3546 52.6754 55.8267 52.8121 56.2363 53.0674C56.6463 53.323 56.9778 53.6874 57.1939 54.1204C57.4099 54.5534 57.5021 55.038 57.4601 55.5204C57.4182 56.0018 57.2443 56.4621 56.9577 56.8505L56.3297 57.6775L56.3297 57.6775L56.3276 57.6803C55.7957 58.391 55.1059 58.9677 54.3131 59.3649C53.5203 59.7621 52.6462 59.9688 51.7599 59.9688C50.8736 59.9688 49.9995 59.7621 49.2067 59.3649C48.4144 58.968 47.725 58.3917 47.1932 57.6817L46.5823 56.8535L46.5823 56.8534L46.5784 56.8483C46.2853 56.4614 46.106 55.9998 46.061 55.5159C46.016 55.0319 46.1072 54.5451 46.324 54.1104C46.5409 53.6758 46.8748 53.3109 47.2878 53.0568C47.7008 52.8027 48.1765 52.6696 48.661 52.6724Z" fill="white" stroke="#191816" stroke-linejoin="round"/>
<path d="M68.036 40.9725C68.036 41.8583 67.7738 42.7242 67.2827 43.4606C66.7917 44.197 66.0938 44.7708 65.2775 45.1096C64.4612 45.4484 63.563 45.5371 62.6965 45.3644C61.83 45.1916 61.0339 44.7653 60.409 44.1392C59.784 43.513 59.3583 42.7151 59.1859 41.8463C59.0134 40.9774 59.1019 40.0769 59.4402 39.2586C59.7785 38.4402 60.3513 37.7409 61.0861 37.249C61.8208 36.7571 62.6845 36.4946 63.568 36.4946C64.7526 36.4946 65.889 36.9662 66.727 37.8058C67.565 38.6455 68.036 39.7846 68.036 40.9725Z" fill="#FFF48C" stroke="#191816" stroke-linejoin="round"/>
</svg>
