<svg width="48" height="48" viewBox="0 0 48 48" fill="none" xmlns="http://www.w3.org/2000/svg">
<g filter="url(#filter0_d_1528_221262)">
<circle cx="24" cy="20" r="20" fill="#B05056"/>
</g>
<mask id="mask0_1528_221262" style="mask-type:alpha" maskUnits="userSpaceOnUse" x="4" y="0" width="40" height="40">
<circle cx="24" cy="20" r="20" fill="#B05056"/>
</mask>
<g mask="url(#mask0_1528_221262)">
<path d="M35.2922 29.7139C35.2922 27.4894 34.4084 25.3559 32.8354 23.7829C31.2624 22.2099 29.129 21.3262 26.9044 21.3262C24.6798 21.3262 22.5463 22.2099 20.9733 23.7829C19.4003 25.3559 18.5166 27.4894 18.5166 29.7139V33.7725H35.2922V29.7139Z" fill="#FFCEC3"/>
<path d="M26.9044 21.3262C24.6798 21.3262 22.5463 22.2099 20.9733 23.7829C19.4003 25.3559 18.5166 27.4894 18.5166 29.7139V32.6903C18.5166 30.4657 19.4003 28.3322 20.9733 26.7592C22.5463 25.1862 24.6798 24.3025 26.9044 24.3025C29.129 24.3025 31.2624 25.1862 32.8354 26.7592C34.4084 28.3322 35.2922 30.4657 35.2922 32.6903V29.7139C35.2922 27.4894 34.4084 25.3559 32.8354 23.7829C31.2624 22.2099 29.129 21.3262 26.9044 21.3262Z" fill="#FDA18F"/>
<path d="M35.2922 29.7139C35.2922 27.4894 34.4084 25.3559 32.8354 23.7829C31.2624 22.2099 29.129 21.3262 26.9044 21.3262C24.6798 21.3262 22.5463 22.2099 20.9733 23.7829C19.4003 25.3559 18.5166 27.4894 18.5166 29.7139V33.7725H35.2922V29.7139Z" stroke="#191816" stroke-width="0.5" stroke-linecap="round" stroke-linejoin="round"/>
<path d="M30.6923 22.8573C30.693 22.5849 30.6399 22.3151 30.536 22.0633C30.4321 21.8115 30.2794 21.5827 30.0868 21.3901C29.8942 21.1975 29.6655 21.0449 29.4137 20.941C29.1619 20.8371 28.8921 20.784 28.6197 20.7847H25.1888C24.9164 20.784 24.6466 20.8371 24.3948 20.941C24.143 21.0449 23.9143 21.1975 23.7217 21.3901C23.5291 21.5827 23.3764 21.8115 23.2725 22.0633C23.1686 22.3151 23.1155 22.5849 23.1162 22.8573C23.1171 23.0972 23.1592 23.3351 23.2407 23.5608L23.9766 25.5792C24.0036 25.6539 24.0467 25.7216 24.1028 25.7777C24.1589 25.8338 24.2267 25.8769 24.3013 25.9039C24.3764 25.9311 24.4566 25.9413 24.5362 25.9338C24.6157 25.9263 24.6926 25.9013 24.7613 25.8606L26.9259 24.5727L29.0905 25.8606C29.1592 25.9013 29.2361 25.9263 29.3156 25.9338C29.3951 25.9413 29.4753 25.9311 29.5505 25.9039C29.6251 25.8769 29.6928 25.8338 29.7489 25.7777C29.8051 25.7216 29.8481 25.6539 29.8751 25.5792L30.6111 23.5608C30.6779 23.3326 30.7053 23.0947 30.6923 22.8573Z" fill="#FDA18F" stroke="#191816" stroke-width="0.5" stroke-linecap="round" stroke-linejoin="round"/>
<path d="M26.9043 24.5728V33.7722" stroke="#191816" stroke-width="0.5" stroke-linecap="round" stroke-linejoin="round"/>
<path d="M28.7978 22.2298C28.7979 22.3726 28.7698 22.514 28.715 22.6459C28.6602 22.7778 28.5798 22.8975 28.4785 22.9982L26.9038 24.573L25.329 22.9982C25.2278 22.8975 25.1474 22.7778 25.0926 22.6459C25.0378 22.514 25.0097 22.3726 25.0098 22.2298V19.7026H28.7978V22.2298Z" fill="#FFDA8F"/>
<path d="M25.0098 22.1377C26.2456 22.5058 27.5619 22.5058 28.7978 22.1377V20.2437H25.0098V22.1377Z" fill="#FFBE3D"/>
<path d="M28.7978 22.2298C28.7979 22.3726 28.7698 22.514 28.715 22.6459C28.6602 22.7778 28.5798 22.8975 28.4785 22.9982L26.9038 24.573L25.329 22.9982C25.2278 22.8975 25.1474 22.7778 25.0926 22.6459C25.0378 22.514 25.0097 22.3726 25.0098 22.2298V19.7026H28.7978V22.2298Z" stroke="#191816" stroke-width="0.5" stroke-linecap="round" stroke-linejoin="round"/>
<path d="M32.3164 14.0207V12.6678C32.3164 11.2326 31.7462 9.85618 30.7314 8.84133C29.7165 7.82648 28.3401 7.25635 26.9049 7.25635C25.4697 7.25635 24.0933 7.82648 23.0784 8.84133C22.0636 9.85618 21.4934 11.2326 21.4934 12.6678V14.0207C21.2064 14.0207 20.9311 14.1347 20.7281 14.3377C20.5252 14.5406 20.4111 14.8159 20.4111 15.103C20.4111 15.39 20.5252 15.6653 20.7281 15.8683C20.9311 16.0712 21.2064 16.1853 21.4934 16.1853H21.5584C21.7577 17.4601 22.406 18.6218 23.3863 19.4608C24.3667 20.2998 25.6145 20.7609 26.9049 20.7609C28.1952 20.7609 29.4431 20.2998 30.4235 19.4608C31.4038 18.6218 32.0521 17.4601 32.2514 16.1853H32.3164C32.6034 16.1853 32.8787 16.0712 33.0817 15.8683C33.2846 15.6653 33.3987 15.39 33.3987 15.103C33.3987 14.8159 33.2846 14.5406 33.0817 14.3377C32.8787 14.1347 32.6034 14.0207 32.3164 14.0207Z" fill="#FFDA8F" stroke="#191816" stroke-width="0.5" stroke-linecap="round" stroke-linejoin="round"/>
<path d="M29.8803 14.5618C29.8126 14.4025 29.6995 14.2667 29.5552 14.1713C29.4108 14.0758 29.2416 14.0249 29.0686 14.0249C28.8955 14.0249 28.7263 14.0758 28.582 14.1713C28.4376 14.2667 28.3246 14.4025 28.2568 14.5618" stroke="#191816" stroke-width="0.5" stroke-linecap="round" stroke-linejoin="round"/>
<path d="M25.5512 14.5618C25.4835 14.4025 25.3704 14.2667 25.2261 14.1713C25.0817 14.0758 24.9125 14.0249 24.7395 14.0249C24.5664 14.0249 24.3972 14.0758 24.2529 14.1713C24.1085 14.2667 23.9955 14.4025 23.9277 14.5618" stroke="#191816" stroke-width="0.5" stroke-linecap="round" stroke-linejoin="round"/>
<path d="M23.7926 16.9964C24.1662 16.9964 24.4691 16.6936 24.4691 16.32C24.4691 15.9464 24.1662 15.6436 23.7926 15.6436C23.4191 15.6436 23.1162 15.9464 23.1162 16.32C23.1162 16.6936 23.4191 16.9964 23.7926 16.9964Z" fill="#FFBE3D"/>
<path d="M30.0163 16.9964C30.3899 16.9964 30.6927 16.6936 30.6927 16.32C30.6927 15.9464 30.3899 15.6436 30.0163 15.6436C29.6427 15.6436 29.3398 15.9464 29.3398 16.32C29.3398 16.6936 29.6427 16.9964 30.0163 16.9964Z" fill="#FFBE3D"/>
<path d="M25.2754 17.7002C25.715 18.1134 26.2955 18.3435 26.8988 18.3435C27.5021 18.3435 28.0827 18.1134 28.5223 17.7002" stroke="#191816" stroke-width="0.5" stroke-linecap="round" stroke-linejoin="round"/>
<path d="M28.2569 30.5255C28.4063 30.5255 28.5275 30.4044 28.5275 30.2549C28.5275 30.1055 28.4063 29.9844 28.2569 29.9844C28.1075 29.9844 27.9863 30.1055 27.9863 30.2549C27.9863 30.4044 28.1075 30.5255 28.2569 30.5255Z" stroke="#191816" stroke-width="0.5" stroke-linecap="round" stroke-linejoin="round"/>
<path d="M28.2569 28.361C28.4063 28.361 28.5275 28.2398 28.5275 28.0904C28.5275 27.941 28.4063 27.8198 28.2569 27.8198C28.1075 27.8198 27.9863 27.941 27.9863 28.0904C27.9863 28.2398 28.1075 28.361 28.2569 28.361Z" stroke="#191816" stroke-width="0.5" stroke-linecap="round" stroke-linejoin="round"/>
<path d="M28.2569 32.6901C28.4063 32.6901 28.5275 32.5689 28.5275 32.4195C28.5275 32.2701 28.4063 32.1489 28.2569 32.1489C28.1075 32.1489 27.9863 32.2701 27.9863 32.4195C27.9863 32.5689 28.1075 32.6901 28.2569 32.6901Z" stroke="#191816" stroke-width="0.5" stroke-linecap="round" stroke-linejoin="round"/>
<path d="M21.7627 28.9023V33.7727" stroke="#191816" stroke-width="0.5" stroke-linecap="round" stroke-linejoin="round"/>
<path d="M32.0459 28.9023V33.7727" stroke="#191816" stroke-width="0.5" stroke-linecap="round" stroke-linejoin="round"/>
<path d="M22.305 12.6676C22.305 12.6676 26.7587 12.9165 29.7458 9.86445C29.7955 9.81261 29.8569 9.77343 29.9248 9.75022C29.9928 9.727 30.0653 9.72041 30.1363 9.73101C30.2074 9.74162 30.2748 9.76909 30.333 9.81114C30.3912 9.85319 30.4385 9.90859 30.4709 9.97268C31.1711 11.3999 31.5252 12.972 31.5045 14.5616C31.6117 14.5638 31.7183 14.5443 31.8177 14.5043C31.9172 14.4643 32.0076 14.4046 32.0834 14.3288C32.1592 14.253 32.2189 14.1626 32.2589 14.0631C32.299 13.9636 32.3184 13.8571 32.3162 13.7499C32.6924 13.6727 33.0311 13.47 33.2769 13.175C33.5227 12.8801 33.661 12.5103 33.6691 12.1264C33.6691 10.7736 33.6691 7.5267 30.6928 7.5267C30.6928 7.5267 27.4459 4.27982 22.8462 7.25612C21.9459 7.89189 21.2243 8.7484 20.7505 9.74342C20.2766 10.7384 20.0666 11.8386 20.1404 12.9382C20.1382 13.0454 20.1577 13.1519 20.1977 13.2514C20.2377 13.3509 20.2974 13.4412 20.3733 13.5171C20.4491 13.5929 20.5394 13.6526 20.6389 13.6926C20.7384 13.7326 20.8449 13.7521 20.9521 13.7499C21.0308 13.9778 21.1759 14.177 21.3688 14.3217C21.5618 14.4663 21.7936 14.5499 22.0344 14.5616C22.0344 14.5616 22.0344 12.6676 22.305 12.6676Z" fill="#614B44"/>
<path d="M20.1837 13.1979C20.3136 12.3344 20.6164 11.5059 21.0738 10.762C21.5313 10.0182 22.1341 9.37425 22.8462 8.86874C27.4459 5.89243 30.6928 9.13931 30.6928 9.13931C32.9548 9.13931 33.4959 11.0117 33.6258 12.5052C33.654 12.3809 33.6685 12.2539 33.6691 12.1264C33.6691 10.7736 33.6691 7.5267 30.6928 7.5267C30.6928 7.5267 27.4459 4.27982 22.8462 7.25612C21.9459 7.89189 21.2243 8.7484 20.7505 9.74342C20.2766 10.7384 20.0666 11.8386 20.1404 12.9382C20.1435 13.0263 20.158 13.1136 20.1837 13.1979Z" fill="#947063"/>
<path d="M22.305 12.6676C22.305 12.6676 26.7587 12.9165 29.7458 9.86445C29.7955 9.81261 29.8569 9.77343 29.9248 9.75022C29.9928 9.727 30.0653 9.72041 30.1363 9.73101C30.2074 9.74162 30.2748 9.76909 30.333 9.81114C30.3912 9.85319 30.4385 9.90859 30.4709 9.97268C31.1711 11.3999 31.5252 12.972 31.5045 14.5616C31.6117 14.5638 31.7183 14.5443 31.8177 14.5043C31.9172 14.4643 32.0076 14.4046 32.0834 14.3288C32.1592 14.253 32.2189 14.1626 32.2589 14.0631C32.299 13.9636 32.3184 13.8571 32.3162 13.7499C32.6924 13.6727 33.0311 13.47 33.2769 13.175C33.5227 12.8801 33.661 12.5103 33.6691 12.1264C33.6691 10.7736 33.6691 7.5267 30.6928 7.5267C30.6928 7.5267 27.4459 4.27982 22.8462 7.25612C21.9459 7.89189 21.2243 8.7484 20.7505 9.74342C20.2766 10.7384 20.0666 11.8386 20.1404 12.9382C20.1382 13.0454 20.1577 13.1519 20.1977 13.2514C20.2377 13.3509 20.2974 13.4412 20.3733 13.5171C20.4491 13.5929 20.5394 13.6526 20.6389 13.6926C20.7384 13.7326 20.8449 13.7521 20.9521 13.7499C21.0308 13.9778 21.1759 14.177 21.3688 14.3217C21.5618 14.4663 21.7936 14.5499 22.0344 14.5616C22.0344 14.5616 22.0344 12.6676 22.305 12.6676Z" stroke="#191816" stroke-width="0.5" stroke-linecap="round" stroke-linejoin="round"/>
<path d="M11.2171 29.5514L8.61964 27.5762C8.43379 27.4462 8.22694 27.3492 8.00815 27.2894L5.16713 26.4994C4.79374 26.2126 4.82079 26.7104 4.53399 27.0838C4.24718 27.4572 3.5004 28.9724 3.86838 29.2484L7.11526 31.7268L7.23431 32.4682C7.27926 32.6797 7.40314 32.8661 7.58071 32.9894C7.75828 33.1127 7.97619 33.1637 8.19005 33.132C8.4039 33.1002 8.59762 32.9882 8.73173 32.8186C8.86584 32.649 8.93026 32.4347 8.91186 32.2193C9.06548 32.2731 9.23126 32.2819 9.38972 32.2447C9.54818 32.2075 9.69274 32.1259 9.8064 32.0094C9.92006 31.8929 9.99811 31.7464 10.0314 31.587C10.0646 31.4277 10.0517 31.2622 9.99416 31.1099L9.80476 30.6067L10.1619 30.8772C10.2488 30.9537 10.3504 31.0117 10.4605 31.0475C10.5706 31.0833 10.6868 31.0962 10.8021 31.0855C10.9173 31.0748 11.0292 31.0406 11.1308 30.9851C11.2323 30.9296 11.3215 30.8539 11.3928 30.7627C11.4641 30.6714 11.5159 30.5666 11.5452 30.4546C11.5745 30.3426 11.5807 30.2258 11.5632 30.1114C11.5457 29.997 11.5051 29.8873 11.4437 29.7892C11.3823 29.691 11.3016 29.6064 11.2063 29.5406L11.2171 29.5514Z" fill="#FFB59E" stroke="#191816" stroke-width="0.5" stroke-linecap="round" stroke-linejoin="round"/>
<path d="M8.03516 30.7148L8.41937 31.7268C8.45546 31.8358 8.51326 31.9363 8.5893 32.0224C8.66533 32.1084 8.75801 32.1781 8.86175 32.2274C8.96548 32.2766 9.07812 32.3042 9.19285 32.3087C9.30758 32.3132 9.42202 32.2943 9.52927 32.2534C9.63652 32.2124 9.73435 32.15 9.81684 32.0702C9.89934 31.9903 9.96479 31.8946 10.0092 31.7887C10.0537 31.6829 10.0762 31.5691 10.0755 31.4543C10.0748 31.3395 10.0508 31.226 10.0049 31.1207" stroke="#191816" stroke-width="0.5" stroke-miterlimit="10"/>
<path d="M8.27832 29.4536L10.1723 30.8877" stroke="#191816" stroke-width="0.5" stroke-miterlimit="10"/>
<path d="M6.44352 28.4309L5.70215 28.209" stroke="#191816" stroke-width="0.5" stroke-linecap="round" stroke-linejoin="round"/>
<path d="M5.86424 38.1393L1.38354 37.7227C0.658408 32.2138 0.263371 26.299 7.39027 22.6355L7.79613 22.4244C7.99746 22.3234 8.2304 22.3053 8.4449 22.3741C8.65941 22.4429 8.83837 22.5931 8.94336 22.7924C8.99492 22.8911 9.02645 22.999 9.03612 23.11C9.04579 23.2209 9.03342 23.3327 8.99972 23.4388C8.96602 23.5449 8.91165 23.6433 8.83976 23.7284C8.76786 23.8134 8.67985 23.8834 8.58079 23.9342L8.17493 24.1453C6.37833 25.0761 5.13369 26.1421 4.74948 28.1227C4.14339 31.099 5.78307 30.06 6.18893 29.0156L7.15217 26.8077C7.19516 26.7047 7.25803 26.6111 7.33718 26.5324C7.41634 26.4536 7.51023 26.3912 7.61349 26.3488C7.71676 26.3063 7.82737 26.2846 7.93903 26.2849C8.05068 26.2852 8.16118 26.3075 8.26422 26.3505C8.36727 26.3934 8.46083 26.4563 8.53958 26.5355C8.61833 26.6146 8.68071 26.7085 8.72317 26.8118C8.76564 26.915 8.78734 27.0257 8.78705 27.1373C8.78676 27.249 8.76449 27.3595 8.72149 27.4625C7.69331 31.8783 7.95848 32.7008 6.88159 34.1619C6.06987 35.255 6.06987 36.0992 5.86424 38.1393Z" fill="#FFCEBF"/>
<path d="M8.59226 23.0197L8.96024 22.8303V22.7924C8.85525 22.5931 8.67628 22.4429 8.46178 22.3741C8.24727 22.3053 8.01434 22.3234 7.81301 22.4244L7.40715 22.6355C0.26401 26.299 0.659047 32.2138 1.38418 37.7118L2.54765 37.8201C1.83875 32.4194 1.579 26.6237 8.59226 23.0197Z" fill="#FFDCD1"/>
<path d="M5.86424 38.1393L1.38354 37.7227C0.658408 32.2138 0.263371 26.299 7.39027 22.6355L7.79613 22.4244C7.99746 22.3234 8.2304 22.3053 8.4449 22.3741C8.65941 22.4429 8.83837 22.5931 8.94336 22.7924C8.99492 22.8911 9.02645 22.999 9.03612 23.11C9.04579 23.2209 9.03342 23.3327 8.99972 23.4388C8.96602 23.5449 8.91165 23.6433 8.83976 23.7284C8.76786 23.8134 8.67985 23.8834 8.58079 23.9342L8.17493 24.1453C6.37833 25.0761 5.13369 26.1421 4.74948 28.1227C4.14339 31.099 5.78307 30.06 6.18893 29.0156L7.15217 26.8077C7.19516 26.7047 7.25803 26.6111 7.33718 26.5324C7.41634 26.4536 7.51023 26.3912 7.61349 26.3488C7.71676 26.3063 7.82737 26.2846 7.93903 26.2849C8.05068 26.2852 8.16118 26.3075 8.26422 26.3505C8.36727 26.3934 8.46083 26.4563 8.53958 26.5355C8.61833 26.6146 8.68071 26.7085 8.72317 26.8118C8.76563 26.915 8.78734 27.0257 8.78705 27.1373C8.78676 27.249 8.76449 27.3595 8.72149 27.4625C7.69331 31.8783 7.95848 32.7008 6.88159 34.1619C6.06987 35.255 6.06987 36.0992 5.86424 38.1393Z" stroke="#191816" stroke-width="0.5" stroke-linecap="round" stroke-linejoin="round"/>
<path d="M17.6214 18.5681L6.86295 19.7482C6.26878 19.8134 5.83995 20.3479 5.90512 20.9421L7.49831 35.4659C7.56349 36.0601 8.09799 36.4889 8.69216 36.4237L19.4506 35.2436C20.0447 35.1784 20.4736 34.6439 20.4084 34.0497L18.8152 19.5259C18.75 18.9317 18.2155 18.5029 17.6214 18.5681Z" fill="#FF8A14" stroke="#191816" stroke-width="0.5" stroke-linecap="round" stroke-linejoin="round"/>
<path d="M7.81722 21.0045L16.9619 20.0014C17.1045 19.9857 17.2476 20.0274 17.3595 20.1172C17.4715 20.207 17.5431 20.3376 17.5588 20.4803L18.8569 32.3145C18.9039 32.7425 18.7789 33.1716 18.5094 33.5075C18.24 33.8433 17.8482 34.0583 17.4202 34.1053L8.81347 35.0494L7.3383 21.6014C7.32265 21.4587 7.36432 21.3157 7.45413 21.2037C7.54395 21.0918 7.67455 21.0201 7.81722 21.0045Z" fill="white" stroke="#191816" stroke-width="0.5" stroke-linecap="round" stroke-linejoin="round"/>
<path d="M13.2567 18.501C13.2411 18.3589 13.1976 18.2212 13.1288 18.0959C13.0599 17.9706 12.9671 17.86 12.8555 17.7706C12.6302 17.59 12.3424 17.5062 12.0554 17.5378C11.7683 17.5694 11.5056 17.7137 11.3249 17.939C11.1443 18.1643 11.0605 18.4521 11.0921 18.7391L10.0098 18.8582C9.72514 18.8895 9.46447 19.0324 9.28494 19.2555C9.1054 19.4787 9.02164 19.7639 9.052 20.0487L9.11153 20.5898C9.11959 20.6606 9.14153 20.7291 9.17611 20.7913C9.21068 20.8536 9.25721 20.9084 9.31301 20.9526C9.36881 20.9969 9.4328 21.0297 9.5013 21.0491C9.5698 21.0686 9.64147 21.0744 9.7122 21.0661L15.0912 20.4762C15.233 20.4599 15.3627 20.3882 15.4519 20.2767C15.5411 20.1652 15.5826 20.0229 15.5674 19.8809L15.5079 19.3398C15.4766 19.0551 15.3337 18.7944 15.1105 18.6149C14.8874 18.4354 14.6022 18.3516 14.3174 18.382L13.2567 18.501Z" fill="#DAEDF7"/>
<path d="M12.0604 17.5431C11.9189 17.5586 11.7819 17.6019 11.6571 17.6704C11.5324 17.7389 11.4224 17.8314 11.3334 17.9424C11.2444 18.0535 11.1782 18.1811 11.1386 18.3178C11.099 18.4545 11.0868 18.5976 11.1025 18.7391L10.0202 18.8581C9.78302 18.8855 9.56151 18.9906 9.39022 19.157C9.21894 19.3234 9.10749 19.5417 9.07324 19.7781L15.4534 19.0746C15.3686 18.851 15.2122 18.6618 15.0086 18.5365C14.8049 18.4112 14.5656 18.3568 14.3278 18.3819L13.2455 18.501C13.2141 18.2173 13.072 17.9575 12.8501 17.7782C12.6281 17.5988 12.3443 17.5143 12.0604 17.5431Z" fill="#E8F4FA"/>
<path d="M13.2567 18.501C13.2411 18.3589 13.1976 18.2212 13.1288 18.0959C13.0599 17.9706 12.9671 17.86 12.8555 17.7706C12.6302 17.59 12.3424 17.5062 12.0554 17.5378C11.7683 17.5694 11.5056 17.7137 11.3249 17.939C11.1443 18.1643 11.0605 18.4521 11.0921 18.7391L10.0098 18.8582C9.72514 18.8895 9.46447 19.0324 9.28494 19.2555C9.1054 19.4787 9.02164 19.7639 9.052 20.0487L9.11153 20.5898C9.11959 20.6606 9.14153 20.7291 9.17611 20.7913C9.21068 20.8536 9.25721 20.9084 9.31301 20.9526C9.36881 20.9969 9.4328 21.0297 9.5013 21.0491C9.5698 21.0686 9.64147 21.0744 9.7122 21.0661L15.0912 20.4762C15.233 20.4599 15.3627 20.3882 15.4519 20.2767C15.5411 20.1652 15.5826 20.0229 15.5674 19.8809L15.5079 19.3398C15.4766 19.0551 15.3337 18.7944 15.1105 18.6149C14.8874 18.4354 14.6022 18.3516 14.3174 18.382L13.2567 18.501Z" stroke="#191816" stroke-width="0.5" stroke-linecap="round" stroke-linejoin="round"/>
<path d="M14.1492 21.6729L10.9217 22.0269C10.6246 22.0595 10.4102 22.3268 10.4428 22.6239L10.8263 26.1203C10.8589 26.4174 11.1262 26.6318 11.4233 26.5993L14.6508 26.2452C14.9479 26.2126 15.1623 25.9454 15.1297 25.6483L14.7462 22.1518C14.7136 21.8547 14.4463 21.6403 14.1492 21.6729Z" fill="#D9FDFF" stroke="#191816" stroke-width="0.5" stroke-linecap="round" stroke-linejoin="round"/>
<path d="M12.0214 23.7122C12.0586 23.8832 12.1577 24.0343 12.2997 24.1366C12.4416 24.2388 12.6164 24.285 12.7903 24.2662C12.9642 24.2474 13.125 24.165 13.2418 24.0347C13.3586 23.9045 13.4232 23.7357 13.423 23.5607L13.3905 23.2198C13.3608 23.0422 13.2642 22.8828 13.1205 22.7743C12.9768 22.6659 12.797 22.6166 12.6181 22.6367C12.4392 22.6568 12.2748 22.7448 12.1587 22.8824C12.0427 23.0201 11.9839 23.197 11.9944 23.3767L12.0214 23.7122Z" fill="#80DDFF"/>
<path d="M11.3741 26.3315V26.2449C11.3267 25.8144 11.4523 25.3826 11.7233 25.0447C11.9942 24.7067 12.3884 24.4903 12.8189 24.4429C13.2495 24.3955 13.6812 24.5212 14.0192 24.7921C14.3571 25.0631 14.5736 25.4572 14.6209 25.8878V25.9743L11.3741 26.3315Z" fill="#80DDFF"/>
<path d="M8.80877 35.049C8.59661 35.0723 8.38194 35.0535 8.17705 34.9937C7.97215 34.934 7.78105 34.8344 7.61469 34.7007C7.44832 34.567 7.30994 34.4018 7.20748 34.2146C7.10503 34.0273 7.04049 33.8217 7.01758 33.6095L15.1348 32.7221C15.2581 32.7084 15.3824 32.7374 15.4868 32.8044C15.5912 32.8714 15.6695 32.9722 15.7084 33.09C15.8408 33.4283 16.0829 33.7124 16.3958 33.8968C16.7088 34.0813 17.0746 34.1554 17.4347 34.1074L8.80877 35.049Z" fill="white" stroke="#191816" stroke-width="0.5" stroke-linecap="round" stroke-linejoin="round"/>
<path d="M11.6981 28.2036L9.98224 28.3925C9.68516 28.4252 9.47084 28.6925 9.50353 28.9896L9.69236 30.7055C9.72505 31.0025 9.99238 31.2169 10.2895 31.1842L12.0054 30.9953C12.3024 30.9626 12.5168 30.6953 12.4841 30.3982L12.2952 28.6823C12.2625 28.3853 11.9952 28.1709 11.6981 28.2036Z" stroke="#191816" stroke-width="0.5" stroke-linecap="round" stroke-linejoin="round"/>
<path d="M16.0438 27.7578L14.3279 27.9467C14.0309 27.9794 13.8165 28.2467 13.8492 28.5438L14.0381 30.2597C14.0708 30.5567 14.3381 30.7711 14.6352 30.7384L16.3511 30.5495C16.6481 30.5168 16.8625 30.2495 16.8298 29.9524L16.6409 28.2365C16.6082 27.9395 16.3409 27.7251 16.0438 27.7578Z" stroke="#191816" stroke-width="0.5" stroke-linecap="round" stroke-linejoin="round"/>
<path d="M10.3994 29.6053L11.1516 30.2059L12.8779 27.2783" stroke="#FF6242" stroke-width="0.5" stroke-linecap="round" stroke-linejoin="round"/>
<path d="M4.89043 30.0327C5.27465 30.2546 5.97272 29.6377 6.18918 29.0154L7.15243 26.8075C7.19542 26.7045 7.25829 26.6109 7.33744 26.5321C7.4166 26.4534 7.51049 26.391 7.61375 26.3485C7.71701 26.3061 7.82763 26.2844 7.93928 26.2847C8.05094 26.285 8.16144 26.3072 8.26448 26.3502C8.36753 26.3932 8.46109 26.4561 8.53984 26.5352C8.61858 26.6144 8.68097 26.7083 8.72343 26.8116C8.76589 26.9148 8.7876 27.0254 8.78731 27.1371C8.78702 27.2487 8.76474 27.3592 8.72175 27.4623C7.69357 31.878 7.95873 32.7006 6.88185 34.1617C6.07554 35.244 6.0539 36.099 5.8645 38.1391L3.67285 37.9335" fill="#FFCEBF"/>
<path d="M4.89043 30.0327C5.27465 30.2546 5.97272 29.6377 6.18918 29.0154L7.15242 26.8075C7.19542 26.7045 7.25829 26.6109 7.33744 26.5321C7.4166 26.4534 7.51049 26.391 7.61375 26.3485C7.71701 26.3061 7.82763 26.2844 7.93928 26.2847C8.05094 26.285 8.16144 26.3072 8.26448 26.3502C8.36752 26.3932 8.46109 26.4561 8.53984 26.5352C8.61858 26.6144 8.68097 26.7083 8.72343 26.8116C8.76589 26.9148 8.7876 27.0254 8.78731 27.1371C8.78702 27.2487 8.76474 27.3592 8.72175 27.4623C7.69357 31.878 7.95873 32.7006 6.88185 34.1617C6.07554 35.244 6.0539 36.099 5.8645 38.1391L3.67285 37.9335" stroke="#191816" stroke-width="0.5" stroke-linecap="round" stroke-linejoin="round"/>
<path d="M0.226207 38.1511L0.0502682 40.0369C0.0225058 40.3345 0.241232 40.5982 0.538807 40.626L6.01847 41.1372C6.31605 41.1649 6.57978 40.9462 6.60755 40.6486L6.78349 38.7628C6.81125 38.4652 6.59252 38.2015 6.29495 38.1737L0.815282 37.6625C0.517707 37.6348 0.253969 37.8535 0.226207 38.1511Z" fill="#009FD9"/>
<path d="M0.226207 38.1511L0.0502682 40.0369C0.0225058 40.3345 0.241232 40.5982 0.538807 40.626L6.01847 41.1372C6.31605 41.1649 6.57978 40.9462 6.60755 40.6486L6.78349 38.7628C6.81125 38.4652 6.59252 38.2015 6.29495 38.1737L0.815282 37.6625C0.517707 37.6348 0.253969 37.8535 0.226207 38.1511Z" stroke="#191816" stroke-width="0.5" stroke-linejoin="round"/>
<path d="M6.47219 37.4602L6.40383 38.193L0.692471 37.6601L0.760836 36.9274C0.774168 36.7845 0.84372 36.6527 0.954193 36.5611C1.06467 36.4695 1.20701 36.4255 1.34991 36.4388L5.98365 36.8711C6.12655 36.8845 6.25831 36.954 6.34993 37.0645C6.44154 37.1749 6.48552 37.3173 6.47219 37.4602Z" fill="white" stroke="#191816" stroke-width="0.5" stroke-linecap="round" stroke-linejoin="round"/>
<path d="M28.7981 34.0752C29.0167 34.0809 29.2243 34.1728 29.3753 34.331C29.5264 34.4892 29.6088 34.7007 29.6044 34.9194L29.5395 37.5872C29.5037 37.7793 29.4008 37.9523 29.2491 38.0754C29.0974 38.1985 28.9069 38.2636 28.7116 38.259C28.5163 38.2545 28.3291 38.1806 28.1833 38.0505C28.0375 37.9205 27.9428 37.7429 27.916 37.5494L27.981 34.8761C27.9866 34.6626 28.075 34.4598 28.2275 34.3103C28.3799 34.1608 28.5846 34.0765 28.7981 34.0752Z" fill="#FFB59E" stroke="#191816" stroke-width="0.5" stroke-miterlimit="10"/>
<path d="M27.9217 33.8425C28.1114 33.9401 28.2561 34.1071 28.3256 34.3087C28.3952 34.5104 28.3843 34.7311 28.2951 34.9248L27.3698 36.8621C27.325 36.964 27.2601 37.0558 27.1789 37.1319C27.0977 37.208 27.0019 37.2669 26.8973 37.3049C26.7927 37.3428 26.6814 37.3592 26.5703 37.353C26.4592 37.3467 26.3505 37.318 26.2508 37.2685C26.1511 37.219 26.0625 37.1498 25.9903 37.0651C25.9182 36.9804 25.8639 36.8819 25.8309 36.7756C25.7979 36.6693 25.7868 36.5574 25.7983 36.4467C25.8098 36.336 25.8437 36.2288 25.8978 36.1316L26.8232 34.1943C26.9236 34.0033 27.095 33.8594 27.3005 33.7936C27.506 33.7278 27.7291 33.7454 27.9217 33.8425Z" fill="#FFB59E" stroke="#191816" stroke-width="0.5" stroke-miterlimit="10"/>
<path d="M30.877 37.3438C31.8772 37.6214 32.8021 38.1208 33.5828 38.8049L34.4324 39.5084L37.9336 35.7907L37.1111 35.1251C35.8394 34.2484 35.5688 32.073 33.2906 30.9691C30.4225 29.5946 26.9267 30.0491 23.9666 33.9833C23.8346 34.1569 23.7769 34.3759 23.8064 34.5921C23.8358 34.8083 23.9499 35.0039 24.1235 35.1359C24.2972 35.2679 24.5162 35.3256 24.7324 35.2962C24.9485 35.2667 25.1441 35.1526 25.2762 34.979C25.471 34.7192 25.6712 34.4811 25.866 34.2538C26.2491 33.8232 26.6673 33.425 27.1161 33.0633C28.035 32.2777 29.2279 31.8885 30.4333 31.981C30.603 31.9742 30.7714 32.0124 30.9216 32.0916C31.0718 32.1709 31.1983 32.2885 31.2884 32.4324C31.3785 32.5764 31.429 32.7415 31.4347 32.9113C31.4403 33.081 31.4011 33.2492 31.3208 33.3988C31.0597 33.7357 30.6889 33.9705 30.2727 34.0625C29.8565 34.1544 29.4213 34.0977 29.0426 33.9021L27.1161 33.0904C26.6673 33.452 26.2491 33.8502 25.866 34.2809C25.9408 34.356 26.0289 34.4166 26.1258 34.4595C29.416 36.7485 30.0761 37.057 30.877 37.3438Z" fill="#FFCEBF"/>
<path d="M24.3873 34.8383C27.1742 30.915 30.4211 30.4604 33.1268 31.8782C35.1074 32.901 35.4754 34.8437 36.4657 35.8232L37.2125 36.5916L37.9485 35.8069L37.1097 35.1251C35.838 34.2484 35.5674 32.073 33.2892 30.9691C30.4211 29.5946 26.9253 30.0491 23.9652 33.9833C23.8379 34.1567 23.7831 34.3728 23.8124 34.586C23.8417 34.7991 23.9528 34.9924 24.1222 35.1251L24.2412 35.2008C24.2646 35.0713 24.3144 34.9479 24.3873 34.8383Z" fill="#FFDCD1"/>
<path d="M31.3199 33.3719C31.0589 33.7088 30.688 33.9436 30.2718 34.0355C29.8557 34.1275 29.4204 34.0707 29.0417 33.8752L27.1152 33.0635C28.0342 32.2779 29.2271 31.8887 30.4325 31.9812C30.5984 31.977 30.7626 32.0157 30.9091 32.0936C31.0557 32.1715 31.1796 32.286 31.2689 32.4259C31.3582 32.5659 31.4098 32.7265 31.4188 32.8922C31.4277 33.058 31.3937 33.2232 31.3199 33.3719Z" fill="#FFB59E" stroke="#191816" stroke-width="0.5" stroke-linejoin="round"/>
<path d="M30.877 37.3438C31.8772 37.6214 32.8021 38.1208 33.5828 38.8049L34.4324 39.5084L37.9336 35.7907L37.1111 35.1251C35.8394 34.2484 35.5688 32.073 33.2906 30.9691C30.4225 29.5946 26.9267 30.0491 23.9666 33.9833C23.8346 34.1569 23.7769 34.3759 23.8064 34.5921C23.8358 34.8083 23.9499 35.0039 24.1235 35.1359C24.2972 35.2679 24.5162 35.3256 24.7324 35.2962C24.9485 35.2667 25.1441 35.1526 25.2762 34.979C25.471 34.7192 25.6712 34.4811 25.866 34.2538C26.2491 33.8232 26.6673 33.425 27.1161 33.0633C28.035 32.2777 29.2279 31.8885 30.4333 31.981C30.603 31.9742 30.7714 32.0124 30.9216 32.0916C31.0718 32.1709 31.1983 32.2885 31.2884 32.4324C31.3785 32.5764 31.429 32.7415 31.4347 32.9113C31.4403 33.081 31.4011 33.2492 31.3208 33.3988C31.0597 33.7357 30.6889 33.9705 30.2727 34.0625C29.8565 34.1544 29.4213 34.0977 29.0426 33.9021L27.1161 33.0904C26.6673 33.452 26.2491 33.8502 25.866 34.2809V34.2809C25.9408 34.356 26.0289 34.4166 26.1258 34.4595C29.416 36.7485 30.0761 37.057 30.877 37.3438Z" stroke="#191816" stroke-width="0.5" stroke-linecap="round" stroke-linejoin="round"/>
<path d="M34.3538 40.3973L35.6617 41.629C35.8793 41.8339 36.2218 41.8236 36.4267 41.606L40.0512 37.757C40.2561 37.5395 40.2458 37.197 40.0283 36.9921L38.7203 35.7604C38.5027 35.5555 38.1603 35.5658 37.9554 35.7834L34.3308 39.6324C34.1259 39.8499 34.1362 40.1924 34.3538 40.3973Z" fill="#009FD9"/>
<path d="M38.0527 35.6665C38.1297 35.5902 38.2337 35.5474 38.3422 35.5474C38.4506 35.5474 38.5547 35.5902 38.6317 35.6665L40.1253 37.0735C40.2019 37.1514 40.2449 37.2564 40.2449 37.3657C40.2449 37.4751 40.2019 37.58 40.1253 37.6579L39.6978 38.1071L37.6035 36.1319L38.0527 35.6665Z" fill="#00B8F0"/>
<path d="M34.3538 40.3973L35.6617 41.629C35.8793 41.8339 36.2218 41.8236 36.4267 41.606L40.0512 37.757C40.2561 37.5395 40.2458 37.197 40.0283 36.9921L38.7203 35.7604C38.5027 35.5555 38.1603 35.5658 37.9554 35.7834L34.3308 39.6324C34.1259 39.8499 34.1362 40.1924 34.3538 40.3973Z" stroke="#191816" stroke-width="0.5" stroke-linejoin="round"/>
<path d="M37.5424 35.2143L38.0467 35.6891L34.244 39.7272L33.7397 39.2524C33.6353 39.154 33.5741 39.0181 33.5698 38.8746C33.5655 38.7312 33.6184 38.5919 33.7168 38.4874L36.7774 35.2372C36.8758 35.1327 37.0117 35.0716 37.1552 35.0673C37.2986 35.063 37.4379 35.1159 37.5424 35.2143Z" fill="white" stroke="#191816" stroke-width="0.5" stroke-linecap="round" stroke-linejoin="round"/>
<path d="M32.5735 32.533L31.6064 30.9678L24.1716 35.5614L25.1387 37.1267L32.5735 32.533Z" fill="#EBCB00"/>
<path d="M31.6019 30.9674L24.167 35.561L24.6505 36.3437L32.0854 31.75L31.6019 30.9674Z" fill="#FFE500"/>
<path d="M24.1717 35.5635C24.1284 35.5635 22.6943 37.5549 22.6943 37.5549L25.1349 37.1274L24.1717 35.5635Z" fill="#F7E5C6"/>
<path d="M32.5735 32.533L31.6064 30.9678L24.1716 35.5614L25.1387 37.1267L32.5735 32.533Z" stroke="#191816" stroke-width="0.5" stroke-linecap="round" stroke-linejoin="round"/>
<path d="M33.356 32.0485L32.3887 30.4834L31.6061 30.9671L32.5735 32.5321L33.356 32.0485Z" fill="#DAEDF7"/>
<path d="M32.3861 30.4779L31.6035 30.9614L32.0899 31.7486L32.8725 31.2651L32.3861 30.4779Z" fill="#E8F4FA"/>
<path d="M33.356 32.0485L32.3887 30.4834L31.6061 30.9671L32.5735 32.5321L33.356 32.0485Z" stroke="#191816" stroke-width="0.5" stroke-linecap="round" stroke-linejoin="round"/>
<path d="M33.9398 31.6887C34.1479 31.5602 34.2965 31.3544 34.3528 31.1164C34.4091 30.8784 34.3686 30.6278 34.2401 30.4197C34.1117 30.2116 33.9058 30.063 33.6679 30.0067C33.4299 29.9504 33.1793 29.9909 32.9712 30.1194L32.3867 30.4819L33.3554 32.0513L33.9398 31.6887Z" fill="#FFA694"/>
<path d="M34.2374 30.4227C34.1743 30.3196 34.0914 30.23 33.9935 30.1589C33.8957 30.0879 33.7847 30.0368 33.6671 30.0087C33.5495 29.9805 33.4275 29.9758 33.3081 29.9949C33.1887 30.0139 33.0742 30.0563 32.9712 30.1197L32.3867 30.4823L32.8738 31.2723L34.2429 30.4227H34.2374Z" fill="#FFCABF"/>
<path d="M33.9398 31.6887C34.1479 31.5602 34.2965 31.3544 34.3528 31.1164C34.4091 30.8784 34.3686 30.6278 34.2401 30.4197C34.1117 30.2116 33.9058 30.063 33.6679 30.0067C33.4299 29.9504 33.1793 29.9909 32.9712 30.1194L32.3867 30.4819L33.3554 32.0513L33.9398 31.6887Z" stroke="#191816" stroke-width="0.5" stroke-linecap="round" stroke-linejoin="round"/>
<path d="M22.6933 37.5547L22.3037 37.7928" stroke="#191816" stroke-width="0.5" stroke-linecap="round" stroke-linejoin="round"/>
<path d="M24.6537 36.3427L24.1721 35.5635C24.1288 35.5635 22.711 37.5278 22.7002 37.5495L24.6537 36.3427Z" fill="#FFF5E3"/>
<path d="M24.1717 35.5635C24.1284 35.5635 22.6943 37.5549 22.6943 37.5549L25.1349 37.1274L24.1717 35.5635Z" stroke="#191816" stroke-width="0.5" stroke-linecap="round" stroke-linejoin="round"/>
<path d="M31.3206 33.3718C31.0595 33.7087 30.6887 33.9435 30.2725 34.0354C29.8563 34.1273 29.4211 34.0706 29.0424 33.875L26.7641 32.9172C26.6645 32.8737 26.5571 32.8506 26.4483 32.8492C26.3396 32.8478 26.2317 32.8681 26.1309 32.9089C26.0301 32.9497 25.9384 33.0102 25.8613 33.0869C25.7842 33.1636 25.7232 33.255 25.6819 33.3555C25.5971 33.5572 25.5956 33.7843 25.6777 33.9871C25.7599 34.1899 25.9189 34.352 26.1202 34.4378C29.4104 36.7756 30.0706 37.0624 30.8714 37.3492" fill="#FFCEBF"/>
<path d="M27.0553 33.9833L29.339 34.9466C29.5354 35.0344 29.7496 35.0751 29.9645 35.0654C30.1795 35.0557 30.3891 34.9959 30.5768 34.8908C30.7645 34.7856 30.925 34.638 31.0456 34.4598C31.1661 34.2816 31.2432 34.0776 31.2709 33.8643L31.325 33.3881C31.0639 33.725 30.6931 33.9598 30.2769 34.0517C29.8607 34.1436 29.4255 34.0869 29.0468 33.8913L26.7685 32.9335C26.5769 32.8402 26.3564 32.8255 26.1541 32.8925C25.9518 32.9594 25.7836 33.1028 25.6855 33.292C25.5874 33.4812 25.5671 33.7012 25.6289 33.9052C25.6907 34.1091 25.8297 34.2809 26.0163 34.3838C26.1068 34.198 26.2643 34.0535 26.4571 33.9792C26.6498 33.9049 26.8636 33.9064 27.0553 33.9833Z" fill="#FFDCD1"/>
<path d="M31.3206 33.3718C31.0595 33.7087 30.6887 33.9435 30.2725 34.0354C29.8563 34.1273 29.4211 34.0706 29.0424 33.875L26.7641 32.9172C26.6645 32.8737 26.5571 32.8506 26.4483 32.8492C26.3396 32.8478 26.2317 32.8681 26.1309 32.9089C26.0301 32.9497 25.9384 33.0102 25.8613 33.0869C25.7842 33.1636 25.7232 33.255 25.6819 33.3555C25.5971 33.5572 25.5956 33.7843 25.6777 33.9871C25.7599 34.1899 25.9189 34.352 26.1202 34.4378C29.4104 36.7756 30.0706 37.0624 30.8714 37.3492" stroke="#191816" stroke-width="0.5" stroke-linecap="round" stroke-linejoin="round"/>
<path d="M31.3206 33.3718C31.0595 33.7087 30.6887 33.9435 30.2725 34.0354C29.8563 34.1273 29.4211 34.0706 29.0424 33.875L26.7641 32.9172C26.6645 32.8737 26.5571 32.8506 26.4483 32.8492C26.3396 32.8478 26.2317 32.8681 26.1309 32.9089C26.0301 32.9497 25.9384 33.0102 25.8613 33.0869C25.7842 33.1636 25.7232 33.255 25.6819 33.3555C25.5971 33.5572 25.5956 33.7843 25.6777 33.9871C25.7599 34.1899 25.9189 34.352 26.1202 34.4378C29.4104 36.7756 30.0706 37.0624 30.8714 37.3492" fill="#FFCEBF"/>
<path d="M27.0553 33.9833L29.339 34.9466C29.5354 35.0344 29.7496 35.0751 29.9645 35.0654C30.1795 35.0557 30.3891 34.9959 30.5768 34.8908C30.7645 34.7856 30.925 34.638 31.0456 34.4598C31.1661 34.2816 31.2432 34.0776 31.2709 33.8643L31.325 33.3881C31.0639 33.725 30.6931 33.9598 30.2769 34.0517C29.8607 34.1436 29.4255 34.0869 29.0468 33.8913L26.7685 32.9335C26.5769 32.8402 26.3564 32.8255 26.1541 32.8925C25.9518 32.9594 25.7836 33.1028 25.6855 33.292C25.5874 33.4812 25.5671 33.7012 25.6289 33.9052C25.6907 34.1091 25.8297 34.2809 26.0163 34.3838C26.1068 34.198 26.2643 34.0535 26.4571 33.9792C26.6498 33.9049 26.8636 33.9064 27.0553 33.9833Z" fill="#FFDCD1"/>
<path d="M31.3206 33.3718C31.0595 33.7087 30.6887 33.9435 30.2725 34.0354C29.8563 34.1273 29.4211 34.0706 29.0424 33.875L26.7641 32.9172C26.6645 32.8737 26.5571 32.8506 26.4483 32.8492C26.3396 32.8478 26.2317 32.8681 26.1309 32.9089C26.0301 32.9497 25.9384 33.0102 25.8613 33.0869C25.7842 33.1636 25.7232 33.255 25.6819 33.3555C25.5971 33.5572 25.5956 33.7843 25.6777 33.9871C25.7599 34.1899 25.9189 34.352 26.1202 34.4378C29.4104 36.7756 30.0706 37.0624 30.8714 37.3492" stroke="#191816" stroke-width="0.5" stroke-linecap="round" stroke-linejoin="round"/>
</g>
<defs>
<filter id="filter0_d_1528_221262" x="0" y="0" width="48" height="48" filterUnits="userSpaceOnUse" color-interpolation-filters="sRGB">
<feFlood flood-opacity="0" result="BackgroundImageFix"/>
<feColorMatrix in="SourceAlpha" type="matrix" values="0 0 0 0 0 0 0 0 0 0 0 0 0 0 0 0 0 0 127 0" result="hardAlpha"/>
<feOffset dy="4"/>
<feGaussianBlur stdDeviation="2"/>
<feComposite in2="hardAlpha" operator="out"/>
<feColorMatrix type="matrix" values="0 0 0 0 0 0 0 0 0 0 0 0 0 0 0 0 0 0 0.15 0"/>
<feBlend mode="normal" in2="BackgroundImageFix" result="effect1_dropShadow_1528_221262"/>
<feBlend mode="normal" in="SourceGraphic" in2="effect1_dropShadow_1528_221262" result="shape"/>
</filter>
</defs>
</svg>
