<svg width="17" height="17" viewBox="0 0 17 17" fill="none" xmlns="http://www.w3.org/2000/svg">
<path d="M17 8.5C17 10.1811 16.5015 11.8245 15.5675 13.2223C14.6335 14.6202 13.306 15.7096 11.7528 16.353C10.1996 16.9963 8.49057 17.1646 6.84173 16.8367C5.1929 16.5087 3.67834 15.6992 2.4896 14.5104C1.30085 13.3217 0.491302 11.8071 0.163328 10.1583C-0.164646 8.50943 0.00368309 6.80036 0.647028 5.24719C1.29037 3.69402 2.37984 2.3665 3.77766 1.43251C5.17547 0.498516 6.81886 0 8.5 0C10.7543 0 12.9163 0.895533 14.5104 2.48959C16.1045 4.08365 17 6.24566 17 8.5ZM13.3571 7.89286H5.98036L9.36822 4.48861L8.5 3.64286L3.64286 8.5L8.5 13.3571L9.36822 12.4907L5.98036 9.10714H13.3571V7.89286Z" fill="white"/>
</svg>
