<svg width="26" height="25" viewBox="0 0 26 25" fill="none" xmlns="http://www.w3.org/2000/svg">
<path d="M15.1602 12.9375C15.3477 12.9375 15.5143 12.8698 15.6602 12.7344C15.806 12.599 15.8997 12.4271 15.9414 12.2188C16.0039 11.8854 16.1185 11.5938 16.2852 11.3438C16.4518 11.0938 16.7435 10.7708 17.1602 10.375C17.7227 9.83333 18.1133 9.35938 18.332 8.95312C18.5508 8.54688 18.6602 8.07292 18.6602 7.53125C18.6602 6.57292 18.332 5.79167 17.6758 5.1875C17.0195 4.58333 16.1602 4.28125 15.0977 4.28125C14.431 4.28125 13.8164 4.43229 13.2539 4.73438C12.6914 5.03646 12.2435 5.46875 11.9102 6.03125C11.806 6.19792 11.7956 6.38021 11.8789 6.57812C11.9622 6.77604 12.1081 6.92708 12.3164 7.03125C12.4831 7.11458 12.6706 7.11979 12.8789 7.04688C13.0872 6.97396 13.2539 6.84375 13.3789 6.65625C13.6081 6.34375 13.8633 6.10938 14.1445 5.95312C14.4258 5.79688 14.7435 5.71875 15.0977 5.71875C15.7227 5.71875 16.2279 5.89583 16.6133 6.25C16.9987 6.60417 17.1914 7.05208 17.1914 7.59375C17.1914 8.01042 17.0977 8.375 16.9102 8.6875C16.7227 9 16.3893 9.33333 15.9102 9.6875C15.3685 10.1875 14.9987 10.599 14.8008 10.9219C14.6029 11.2448 14.4831 11.6771 14.4414 12.2188C14.4206 12.4271 14.4831 12.599 14.6289 12.7344C14.7747 12.8698 14.9518 12.9375 15.1602 12.9375ZM15.1914 16.875C15.5456 16.875 15.8477 16.75 16.0977 16.5C16.3477 16.25 16.4727 15.9479 16.4727 15.5938C16.4727 15.2396 16.3477 14.9375 16.0977 14.6875C15.8477 14.4375 15.5456 14.3125 15.1914 14.3125C14.8372 14.3125 14.5352 14.4375 14.2852 14.6875C14.0352 14.9375 13.9102 15.2396 13.9102 15.5938C13.9102 15.9479 14.0352 16.25 14.2852 16.5C14.5352 16.75 14.8372 16.875 15.1914 16.875ZM6.34766 21.25C5.84766 21.25 5.41016 21.0625 5.03516 20.6875C4.66016 20.3125 4.47266 19.875 4.47266 19.375V1.875C4.47266 1.375 4.66016 0.9375 5.03516 0.5625C5.41016 0.1875 5.84766 0 6.34766 0H23.8477C24.3477 0 24.7852 0.1875 25.1602 0.5625C25.5352 0.9375 25.7227 1.375 25.7227 1.875V19.375C25.7227 19.875 25.5352 20.3125 25.1602 20.6875C24.7852 21.0625 24.3477 21.25 23.8477 21.25H6.34766ZM6.34766 19.375H23.8477V1.875H6.34766V19.375ZM2.59766 25C2.09766 25 1.66016 24.8125 1.28516 24.4375C0.910156 24.0625 0.722656 23.625 0.722656 23.125V4.6875C0.722656 4.41667 0.811198 4.19271 0.988281 4.01562C1.16536 3.83854 1.38932 3.75 1.66016 3.75C1.93099 3.75 2.15495 3.83854 2.33203 4.01562C2.50911 4.19271 2.59766 4.41667 2.59766 4.6875V23.125H21.0352C21.306 23.125 21.5299 23.2135 21.707 23.3906C21.8841 23.5677 21.9727 23.7917 21.9727 24.0625C21.9727 24.3333 21.8841 24.5573 21.707 24.7344C21.5299 24.9115 21.306 25 21.0352 25H2.59766Z" fill="#74C46F"/>
<rect x="6.72266" y="2" width="17" height="17" fill="white"/>
<path d="M13.1547 7.8V6.252H16.0467V15H14.3187V7.8H13.1547Z" fill="#74C46F"/>
</svg>
