<svg width="48" height="48" viewBox="0 0 48 48" fill="none" xmlns="http://www.w3.org/2000/svg">
<g filter="url(#filter0_d_1615_112330)">
<circle cx="24" cy="20" r="20" fill="#6CB4FE"/>
</g>
<mask id="mask0_1615_112330" style="mask-type:alpha" maskUnits="userSpaceOnUse" x="4" y="0" width="40" height="40">
<circle cx="24" cy="20" r="20" fill="#6CB4FE"/>
</mask>
<g mask="url(#mask0_1615_112330)">
<path d="M26.7735 5.74593C26.8485 5.41741 27.0122 5.11687 27.2461 4.87837C27.48 4.63986 27.7748 4.47292 28.097 4.39646L30.7504 3.74454C30.7995 3.7353 30.8438 3.70861 30.8754 3.66922C30.907 3.62983 30.9239 3.5803 30.9231 3.52941C30.923 3.47804 30.9059 3.42822 30.8745 3.38799C30.8432 3.34777 30.7995 3.3195 30.7504 3.30776L28.097 2.65584C27.7741 2.5808 27.4786 2.41433 27.2445 2.17559C27.0103 1.93685 26.8471 1.63555 26.7735 1.30637L26.1341 -1.39909C26.1237 -1.44793 26.097 -1.49156 26.0585 -1.52249C26.02 -1.55342 25.9721 -1.56972 25.9231 -1.56859C25.8736 -1.56884 25.8254 -1.55234 25.786 -1.52167C25.7467 -1.49099 25.7184 -1.44788 25.7057 -1.39909L25.0663 1.30637C24.9939 1.63505 24.8318 1.93615 24.5988 2.17493C24.3657 2.41371 24.0712 2.58043 23.7492 2.65584L21.0958 3.30776C21.0467 3.3195 21.003 3.34777 20.9717 3.38799C20.9403 3.42822 20.9232 3.47804 20.9231 3.52941C20.9223 3.5803 20.9392 3.62983 20.9708 3.66922C21.0024 3.70861 21.0467 3.7353 21.0958 3.74454L23.7492 4.39646C24.0802 4.46374 24.3853 4.62677 24.6279 4.86606C24.8706 5.10536 25.0405 5.41081 25.1175 5.74593L25.7569 8.45139C25.7684 8.50139 25.7961 8.54598 25.8355 8.57792C25.875 8.60986 25.9239 8.6273 25.9742 8.62741C26.0242 8.62825 26.0727 8.61103 26.1114 8.57881C26.15 8.54658 26.1762 8.50143 26.1852 8.45139L26.7735 5.74593Z" fill="#FFEC60" stroke="#191816" stroke-width="0.5" stroke-linecap="round" stroke-linejoin="round"/>
<path d="M4.46574 35.5499C4.54072 35.2214 4.70445 34.9208 4.93837 34.6823C5.17229 34.4438 5.46706 34.2769 5.78926 34.2004L8.44269 33.5485C8.49178 33.5392 8.53606 33.5125 8.56766 33.4732C8.59927 33.4338 8.61616 33.3842 8.61533 33.3334C8.61522 33.282 8.59812 33.2322 8.56679 33.1919C8.53546 33.1517 8.49174 33.1234 8.44269 33.1117L5.78926 32.4598C5.46641 32.3847 5.1709 32.2183 4.93675 31.9795C4.7026 31.7408 4.53933 31.4395 4.46574 31.1103L3.82635 28.4049C3.81597 28.356 3.78923 28.3124 3.75073 28.2814C3.71222 28.2505 3.66436 28.2342 3.61536 28.2354C3.56583 28.2351 3.51763 28.2516 3.47829 28.2823C3.43895 28.3129 3.4107 28.3561 3.39797 28.4049L2.75858 31.1103C2.68618 31.439 2.5241 31.7401 2.29104 31.9789C2.05799 32.2176 1.76346 32.3844 1.44146 32.4598L-1.21198 33.1117C-1.26102 33.1234 -1.30475 33.1517 -1.33608 33.1919C-1.36741 33.2322 -1.38451 33.282 -1.38461 33.3334C-1.38544 33.3842 -1.36856 33.4338 -1.33695 33.4732C-1.30534 33.5125 -1.26106 33.5392 -1.21198 33.5485L1.44146 34.2004C1.77251 34.2677 2.07757 34.4307 2.3202 34.67C2.56283 34.9093 2.73278 35.2147 2.80974 35.5499L3.44912 38.2553C3.46063 38.3053 3.48836 38.3499 3.52781 38.3819C3.56726 38.4138 3.61613 38.4312 3.66651 38.4313C3.71641 38.4322 3.765 38.415 3.80363 38.3827C3.84226 38.3505 3.86843 38.3054 3.8775 38.2553L4.46574 35.5499Z" fill="#FFEC60" stroke="#191816" stroke-width="0.5" stroke-linecap="round" stroke-linejoin="round"/>
<path d="M22.0413 14.2377L8.89113 17.4517C8.16705 17.6287 7.72078 18.3706 7.89435 19.1089L12.936 40.5536C13.1096 41.2919 13.8373 41.7469 14.5613 41.5699L27.7115 38.3559C28.4356 38.1789 28.8819 37.437 28.7083 36.6987L23.6666 15.254C23.4931 14.5157 22.7654 14.0607 22.0413 14.2377Z" fill="#FFF5E3" stroke="#191816" stroke-width="0.5" stroke-linecap="round" stroke-linejoin="round"/>
<path d="M40.4347 9.73223L27.2846 12.9463C26.5605 13.1232 26.1142 13.8652 26.2878 14.6034L31.3294 36.0482C31.503 36.7865 32.2307 37.2415 32.9548 37.0645L46.1049 33.8505C46.829 33.6735 47.2753 32.9316 47.1017 32.1933L42.0601 10.7485C41.8865 10.0103 41.1588 9.55526 40.4347 9.73223Z" fill="#FFF5E3" stroke="#191816" stroke-width="0.5" stroke-linecap="round" stroke-linejoin="round"/>
<path d="M22.6591 16.9207L27.9129 15.6294" stroke="#191816" stroke-width="0.5" stroke-linecap="round" stroke-linejoin="round"/>
<path d="M23.2882 19.5947L28.5421 18.3117" stroke="#191816" stroke-width="0.5" stroke-linecap="round" stroke-linejoin="round"/>
<path d="M23.9174 22.2776L29.1794 20.9946" stroke="#191816" stroke-width="0.5" stroke-linecap="round" stroke-linejoin="round"/>
<path d="M24.5465 24.9601L29.8085 23.6688" stroke="#191816" stroke-width="0.5" stroke-linecap="round" stroke-linejoin="round"/>
<path d="M25.1757 27.6341L30.4377 26.3511" stroke="#191816" stroke-width="0.5" stroke-linecap="round" stroke-linejoin="round"/>
<path d="M25.813 30.3165L31.0668 29.0336" stroke="#191816" stroke-width="0.5" stroke-linecap="round" stroke-linejoin="round"/>
<path d="M26.4421 32.9908L31.696 31.7078" stroke="#191816" stroke-width="0.5" stroke-linecap="round" stroke-linejoin="round"/>
<path d="M27.0713 35.6731L32.3251 34.3901" stroke="#191816" stroke-width="0.5" stroke-linecap="round" stroke-linejoin="round"/>
<path d="M8.83399 23.127L6.20298 23.7685L5.57383 21.0943C5.49258 20.7376 5.55253 20.3626 5.74068 20.0507C5.92882 19.7388 6.22998 19.515 6.57885 19.428L7.88618 19.1115L8.83399 23.127Z" fill="#FF6242" stroke="#191816" stroke-width="0.5" stroke-linecap="round" stroke-linejoin="round"/>
<path d="M9.78183 27.1507L8.46633 27.4673C8.11765 27.5515 7.75047 27.4916 7.44497 27.3007C7.14394 27.1147 6.92675 26.8155 6.84033 26.4676L6.203 23.785L8.83401 23.1435L9.78183 27.1507Z" fill="#FF8A14" stroke="#191816" stroke-width="0.5" stroke-linecap="round" stroke-linejoin="round"/>
<path d="M47.5146 22.1777L44.8918 22.8192L43.944 18.8036L45.2595 18.4787C45.4323 18.4353 45.6118 18.4272 45.7876 18.4548C45.9635 18.4825 46.1323 18.5454 46.2842 18.6399C46.4361 18.7344 46.5682 18.8586 46.6728 19.0054C46.7774 19.1521 46.8524 19.3186 46.8936 19.4951L47.5146 22.1777Z" fill="#6DD627" stroke="#191816" stroke-width="0.5" stroke-linecap="round" stroke-linejoin="round"/>
<path d="M16.5472 20.5363C16.589 20.7141 16.5601 20.9017 16.4667 21.0578C16.3733 21.2139 16.223 21.326 16.0487 21.3694L12.1022 22.3358C11.9278 22.3785 11.7439 22.349 11.5908 22.2538C11.4376 22.1585 11.3277 22.0053 11.2851 21.8276L10.9746 20.4863C10.9536 20.3977 10.9501 20.3056 10.9641 20.2156C10.9781 20.1255 11.0095 20.0391 11.0564 19.9615C11.1508 19.8075 11.3002 19.6969 11.4731 19.6532L15.4196 18.6951C15.505 18.6714 15.5943 18.6666 15.6817 18.681C15.7691 18.6953 15.8524 18.7286 15.9262 18.7785C16.0028 18.824 16.0692 18.8852 16.1213 18.9584C16.1733 19.0315 16.2098 19.115 16.2285 19.2033L16.5472 20.5363Z" stroke="#191816" stroke-width="0.5" stroke-linecap="round" stroke-linejoin="round"/>
<path d="M21.8657 31.2758L16.6056 32.5615C15.8815 32.7384 15.4353 33.4804 15.6088 34.2187L16.2393 36.9003C16.4128 37.6385 17.1405 38.0935 17.8646 37.9166L23.1247 36.631C23.8487 36.454 24.295 35.7121 24.1214 34.9738L23.491 32.2922C23.3174 31.5539 22.5898 31.0989 21.8657 31.2758Z" stroke="#191816" stroke-width="0.5" stroke-linecap="round" stroke-linejoin="round"/>
<path d="M14.717 24.5266L21.2946 22.9187" stroke="#191816" stroke-width="0.5" stroke-linecap="round" stroke-linejoin="round"/>
<path d="M12.7233 27.8422L21.9236 25.6011" stroke="#191816" stroke-width="0.5" stroke-linecap="round" stroke-linejoin="round"/>
<path d="M13.3524 30.5247L22.5528 28.2754" stroke="#191816" stroke-width="0.5" stroke-linecap="round" stroke-linejoin="round"/>
<path d="M35.1196 16.7033C35.246 17.2331 35.5235 17.7127 35.9171 18.0817C36.3108 18.4506 36.8028 18.6924 37.3311 18.7763C37.8595 18.8602 38.4003 18.7826 38.8854 18.5532C39.3705 18.3239 39.778 17.9531 40.0564 17.4876C40.3348 17.0222 40.4717 16.4831 40.4498 15.9384C40.4278 15.3937 40.248 14.8678 39.933 14.4272C39.6181 13.9867 39.1821 13.6512 38.6802 13.4632C38.1783 13.2752 37.6331 13.2431 37.1133 13.3709C36.767 13.4549 36.4406 13.608 36.1526 13.8213C35.8647 14.0346 35.6211 14.304 35.4357 14.6138C35.2504 14.9235 35.127 15.2677 35.0728 15.6263C35.0185 15.985 35.0344 16.351 35.1196 16.7033Z" stroke="#191816" stroke-width="0.5" stroke-linecap="round" stroke-linejoin="round"/>
<path d="M34.327 31.0663C34.4534 31.596 34.7309 32.0757 35.1245 32.4446C35.5182 32.8136 36.0102 33.0553 36.5385 33.1393C37.0669 33.2232 37.6077 33.1456 38.0928 32.9162C38.5778 32.6868 38.9854 32.316 39.2638 31.8506C39.5422 31.3852 39.6791 30.846 39.6572 30.3013C39.6352 29.7566 39.4554 29.2307 39.1405 28.7902C38.8255 28.3496 38.3895 28.0142 37.8876 27.8261C37.3857 27.6381 36.8405 27.606 36.3207 27.7339C35.9744 27.8179 35.648 27.971 35.36 28.1843C35.0721 28.3976 34.8285 28.6669 34.6431 28.9767C34.4578 29.2865 34.3344 29.6306 34.2802 29.9893C34.2259 30.3479 34.2418 30.714 34.327 31.0663V31.0663Z" stroke="#191816" stroke-width="0.5" stroke-linecap="round" stroke-linejoin="round"/>
<path d="M35.1114 16.7038L33.8041 17.0288L36.3207 27.7425" stroke="#191816" stroke-width="0.5" stroke-linecap="round" stroke-linejoin="round"/>
<path d="M35.3728 23.7273L38.0038 23.0858" stroke="#191816" stroke-width="0.5" stroke-linecap="round" stroke-linejoin="round"/>
<path d="M42.1056 22.7939C42.144 22.9704 42.1148 23.1552 42.0239 23.3105C41.9301 23.4651 41.7804 23.5758 41.6072 23.6187L38.9762 24.2602C38.8017 24.3029 38.6178 24.2734 38.4647 24.1781C38.3116 24.0829 38.2017 23.9297 38.1591 23.752L37.8486 22.4107C37.8267 22.3226 37.8223 22.2309 37.8356 22.1411C37.849 22.0512 37.8797 21.965 37.9261 21.8874C37.9726 21.8098 38.0337 21.7424 38.106 21.6892C38.1782 21.636 38.2602 21.5981 38.347 21.5776L40.978 20.9361C41.0645 20.9126 41.1547 20.9072 41.2432 20.9203C41.3317 20.9333 41.4168 20.9646 41.4931 21.0121C41.5695 21.0596 41.6356 21.1224 41.6875 21.1966C41.7394 21.2709 41.776 21.3552 41.7951 21.4443L42.1056 22.7939Z" stroke="#191816" stroke-width="0.5" stroke-linecap="round" stroke-linejoin="round"/>
<path d="M12.1581 15.1577C12.2331 14.8292 12.3968 14.5287 12.6308 14.2901C12.8647 14.0516 13.1594 13.8847 13.4816 13.8082L16.1351 13.1563C16.1842 13.1471 16.2284 13.1204 16.26 13.081C16.2917 13.0416 16.3085 12.9921 16.3077 12.9412C16.3076 12.8898 16.2905 12.84 16.2592 12.7998C16.2278 12.7596 16.1841 12.7313 16.1351 12.7195L13.4816 12.0676C13.1588 11.9926 12.8633 11.8261 12.6291 11.5874C12.395 11.3486 12.2317 11.0473 12.1581 10.7182L11.5187 8.01269C11.5084 7.96385 11.4816 7.92022 11.4431 7.88929C11.4046 7.85836 11.3567 7.84206 11.3077 7.8432C11.2582 7.84294 11.21 7.85944 11.1707 7.89011C11.1313 7.92079 11.1031 7.9639 11.0903 8.01269L10.451 10.7182C10.3786 11.0468 10.2165 11.3479 9.98343 11.5867C9.75037 11.8255 9.45584 11.9922 9.13384 12.0676L6.4804 12.7195C6.43136 12.7313 6.38763 12.7596 6.3563 12.7998C6.32498 12.84 6.30787 12.8898 6.30777 12.9412C6.30694 12.9921 6.32383 13.0416 6.35543 13.081C6.38704 13.1204 6.43132 13.1471 6.4804 13.1563L9.13384 13.8082C9.46489 13.8755 9.76995 14.0385 10.0126 14.2778C10.2552 14.5171 10.4252 14.8226 10.5021 15.1577L11.1415 17.8632C11.153 17.9132 11.1807 17.9578 11.2202 17.9897C11.2596 18.0216 11.3085 18.0391 11.3589 18.0392C11.4088 18.04 11.4574 18.0228 11.496 17.9906C11.5346 17.9584 11.5608 17.9132 11.5699 17.8632L12.1581 15.1577Z" fill="#FFEC60" stroke="#191816" stroke-width="0.5" stroke-linecap="round" stroke-linejoin="round"/>
</g>
<defs>
<filter id="filter0_d_1615_112330" x="0" y="0" width="48" height="48" filterUnits="userSpaceOnUse" color-interpolation-filters="sRGB">
<feFlood flood-opacity="0" result="BackgroundImageFix"/>
<feColorMatrix in="SourceAlpha" type="matrix" values="0 0 0 0 0 0 0 0 0 0 0 0 0 0 0 0 0 0 127 0" result="hardAlpha"/>
<feOffset dy="4"/>
<feGaussianBlur stdDeviation="2"/>
<feComposite in2="hardAlpha" operator="out"/>
<feColorMatrix type="matrix" values="0 0 0 0 0 0 0 0 0 0 0 0 0 0 0 0 0 0 0.15 0"/>
<feBlend mode="normal" in2="BackgroundImageFix" result="effect1_dropShadow_1615_112330"/>
<feBlend mode="normal" in="SourceGraphic" in2="effect1_dropShadow_1615_112330" result="shape"/>
</filter>
</defs>
</svg>
