<svg width="48" height="48" viewBox="0 0 48 48" fill="none" xmlns="http://www.w3.org/2000/svg">
<g filter="url(#filter0_d_1615_112256)">
<circle cx="24" cy="20" r="20" fill="#6CB4FE"/>
</g>
<mask id="mask0_1615_112256" style="mask-type:alpha" maskUnits="userSpaceOnUse" x="4" y="0" width="40" height="40">
<circle cx="24" cy="20" r="20" fill="#6CB4FE"/>
</mask>
<g mask="url(#mask0_1615_112256)">
<path d="M31.3382 35.1373H2.39479C2.00448 35.1373 1.63014 34.9792 1.35415 34.6978C1.07815 34.4164 0.923096 34.0347 0.923096 33.6367V13.1291H32.8099V33.6367C32.8099 34.0347 32.6548 34.4164 32.3788 34.6978C32.1028 34.9792 31.7285 35.1373 31.3382 35.1373Z" fill="#00B8F0"/>
<path d="M4.84762 35.1373L26.4325 13.1291H0.923096V33.6367C0.923096 34.0347 1.07815 34.4164 1.35415 34.6978C1.63014 34.9792 2.00448 35.1373 2.39479 35.1373H4.84762Z" fill="#4ACFFF"/>
<path d="M19.8098 29.135C20.5905 29.135 21.3391 28.8189 21.8911 28.256C22.4431 27.6932 22.7532 26.9299 22.7532 26.1339V20.1317C22.755 19.3087 22.5908 18.494 22.2707 17.7384C21.9506 16.9828 21.4816 16.3024 20.8927 15.7395C20.3038 15.1766 19.6076 14.7432 18.8475 14.4662C18.0873 14.1892 17.2794 14.0746 16.474 14.1295C14.9553 14.266 13.5439 14.9844 12.5242 16.1401C11.5046 17.2957 10.9527 18.8026 10.9796 20.3568V26.1339C10.9796 26.9299 11.2898 27.6932 11.8417 28.256C12.3937 28.8189 13.1424 29.135 13.923 29.135H19.8098Z" fill="#724F3D"/>
<path d="M16.4741 14.1395C14.9571 14.2758 13.5471 14.9929 12.5277 16.1464C11.5083 17.2999 10.9552 18.8043 10.9797 20.3568V21.8573C10.9552 20.3048 11.5083 18.8005 12.5277 17.647C13.5471 16.4935 14.9571 15.7764 16.4741 15.64C17.2795 15.5852 18.0874 15.6998 18.8475 15.9767C19.6077 16.2537 20.3038 16.6871 20.8928 17.2501C21.4817 17.813 21.9507 18.4934 22.2708 19.249C22.5909 20.0046 22.7551 20.8192 22.7533 21.6423V20.1417C22.7551 19.3186 22.5909 18.504 22.2708 17.7484C21.9507 16.9928 21.4817 16.3124 20.8928 15.7495C20.3038 15.1866 19.6077 14.7532 18.8475 14.4762C18.0874 14.1992 17.2795 14.0846 16.4741 14.1395Z" fill="#A86C4D"/>
<path d="M19.8098 29.135C20.5905 29.135 21.3391 28.8189 21.8911 28.256C22.4431 27.6932 22.7532 26.9299 22.7532 26.1339V20.1317C22.755 19.3087 22.5908 18.494 22.2707 17.7384C21.9506 16.9828 21.4816 16.3024 20.8927 15.7395C20.3038 15.1766 19.6076 14.7432 18.8475 14.4662C18.0873 14.1892 17.2794 14.0746 16.474 14.1295C14.9553 14.266 13.5439 14.9844 12.5242 16.1401C11.5046 17.2957 10.9527 18.8026 10.9796 20.3568V26.1339C10.9796 26.9299 11.2898 27.6932 11.8417 28.256C12.3937 28.8189 13.1424 29.135 13.923 29.135H19.8098Z" stroke="#191816" stroke-width="0.5" stroke-linecap="round" stroke-linejoin="round"/>
<path d="M24.3722 35.1373C24.083 33.32 23.1691 31.667 21.7939 30.474C20.4188 29.281 18.6721 28.6258 16.8665 28.6258C15.0609 28.6258 13.3142 29.281 11.9391 30.474C10.5639 31.667 9.64996 33.32 9.36084 35.1373H24.3722Z" fill="#FFB0CA"/>
<path d="M10.2095 35.1373C10.8676 33.925 11.8321 32.9146 13.0028 32.211C14.1735 31.5074 15.5076 31.1363 16.8665 31.1363C18.2254 31.1363 19.5596 31.5074 20.7302 32.211C21.9009 32.9146 22.8654 33.925 23.5235 35.1373H24.3722C24.083 33.32 23.1691 31.667 21.7939 30.474C20.4188 29.281 18.6721 28.6258 16.8665 28.6258C15.0609 28.6258 13.3142 29.281 11.9391 30.474C10.5639 31.667 9.64996 33.32 9.36084 35.1373H10.2095Z" fill="#FFCCDD"/>
<path d="M24.3722 35.1373C24.083 33.32 23.1691 31.667 21.7939 30.474C20.4188 29.281 18.6721 28.6258 16.8665 28.6258C15.0609 28.6258 13.3142 29.281 11.9391 30.474C10.5639 31.667 9.64996 33.32 9.36084 35.1373H24.3722Z" stroke="#191816" stroke-width="0.5" stroke-linecap="round" stroke-linejoin="round"/>
<path d="M20.3005 30.0454C20.3005 29.7941 20.2518 29.5452 20.1574 29.313C20.0629 29.0809 19.9244 28.87 19.7499 28.6926C19.5753 28.5151 19.3682 28.3744 19.1403 28.2787C18.9123 28.183 18.6681 28.134 18.4216 28.1347H15.3114C15.0649 28.134 14.8207 28.183 14.5928 28.2787C14.3649 28.3744 14.1577 28.5151 13.9832 28.6926C13.8086 28.87 13.6702 29.0809 13.5757 29.313C13.4812 29.5452 13.4326 29.7941 13.4326 30.0454C13.4329 30.2688 13.4711 30.4905 13.5454 30.7006L14.4137 33.1365L16.8665 31.636L19.3193 33.1365L20.1877 30.7006C20.262 30.4905 20.3001 30.2688 20.3005 30.0454Z" fill="#FFB0CA" stroke="#191816" stroke-width="0.5" stroke-linecap="round" stroke-linejoin="round"/>
<path d="M16.8665 31.6359V35.1372" stroke="#191816" stroke-width="0.5" stroke-linecap="round" stroke-linejoin="round"/>
<path d="M18.5835 29.8852L16.8665 31.6359L15.1495 29.8852V27.1342H18.5835V29.8852Z" fill="#FFCEBF"/>
<path d="M15.1495 28.8598C16.2688 29.2078 17.4643 29.2078 18.5835 28.8598V27.1342H15.1495V28.8598Z" fill="#FFB59E"/>
<path d="M18.5835 29.8852L16.8665 31.6359L15.1495 29.8852V27.1342H18.5835V29.8852Z" stroke="#191816" stroke-width="0.5" stroke-linecap="round" stroke-linejoin="round"/>
<path d="M21.7721 21.8824V20.6319C21.7721 20.5119 21.7721 20.3969 21.7721 20.2818C21.0133 20.6788 20.1722 20.8847 19.3193 20.882C18.5111 20.8818 17.7134 20.6965 16.9849 20.3399C16.2563 19.9832 15.6157 19.4642 15.1102 18.8213C15.0561 19.1839 14.9305 19.5317 14.7411 19.8436C14.5518 20.1555 14.3025 20.4252 14.0083 20.6364C13.7141 20.8476 13.3811 20.9959 13.0292 21.0725C12.6774 21.1491 12.3139 21.1524 11.9608 21.0821V21.8824C11.7006 21.8824 11.451 21.9878 11.267 22.1754C11.083 22.363 10.9797 22.6175 10.9797 22.8828C10.9797 23.1481 11.083 23.4025 11.267 23.5901C11.451 23.7778 11.7006 23.8831 11.9608 23.8831H12.0197C12.2003 25.0615 12.788 26.1353 13.6768 26.9108C14.5655 27.6863 15.6967 28.1124 16.8665 28.1124C18.0362 28.1124 19.1675 27.6863 20.0562 26.9108C20.9449 26.1353 21.5326 25.0615 21.7133 23.8831H21.7721C22.0323 23.8831 22.2819 23.7778 22.4659 23.5901C22.6499 23.4025 22.7533 23.1481 22.7533 22.8828C22.7533 22.6175 22.6499 22.363 22.4659 22.1754C22.2819 21.9878 22.0323 21.8824 21.7721 21.8824Z" fill="#FFCEBF" stroke="#191816" stroke-width="0.5" stroke-linecap="round" stroke-linejoin="round"/>
<path d="M15.3948 25.2786C15.7921 25.6628 16.3189 25.877 16.8665 25.877C17.4141 25.877 17.9408 25.6628 18.3382 25.2786" stroke="#191816" stroke-width="0.5" stroke-linecap="round" stroke-linejoin="round"/>
<path d="M19.5647 22.3826C19.5033 22.2354 19.4008 22.1098 19.2699 22.0216C19.1391 21.9334 18.9857 21.8863 18.8288 21.8863C18.6719 21.8863 18.5185 21.9334 18.3877 22.0216C18.2568 22.1098 18.1543 22.2354 18.093 22.3826" stroke="#191816" stroke-width="0.5" stroke-linecap="round" stroke-linejoin="round"/>
<path d="M15.645 22.3826C15.5836 22.2354 15.4811 22.1098 15.3502 22.0216C15.2194 21.9334 15.066 21.8863 14.9091 21.8863C14.7523 21.8863 14.5989 21.9334 14.468 22.0216C14.3372 22.1098 14.2347 22.2354 14.1733 22.3826" stroke="#191816" stroke-width="0.5" stroke-linecap="round" stroke-linejoin="round"/>
<path d="M14.0458 24.6333C14.3844 24.6333 14.659 24.3534 14.659 24.0081C14.659 23.6628 14.3844 23.3829 14.0458 23.3829C13.7071 23.3829 13.4326 23.6628 13.4326 24.0081C13.4326 24.3534 13.7071 24.6333 14.0458 24.6333Z" fill="#FFB59E"/>
<path d="M19.6872 24.6333C20.0259 24.6333 20.3005 24.3534 20.3005 24.0081C20.3005 23.6628 20.0259 23.3829 19.6872 23.3829C19.3486 23.3829 19.074 23.6628 19.074 24.0081C19.074 24.3534 19.3486 24.6333 19.6872 24.6333Z" fill="#FFB59E"/>
<path d="M31.3382 8.62746H2.39479C2.00448 8.62746 1.63014 8.78555 1.35415 9.06696C1.07815 9.34837 0.923096 9.73004 0.923096 10.128V13.1291H32.8099V10.128C32.8099 9.73004 32.6548 9.34837 32.3788 9.06696C32.1028 8.78555 31.7285 8.62746 31.3382 8.62746Z" fill="white" stroke="#191816" stroke-width="0.5" stroke-linecap="round" stroke-linejoin="round"/>
<path d="M3.13062 11.6286C3.53702 11.6286 3.86647 11.2926 3.86647 10.8783C3.86647 10.4639 3.53702 10.128 3.13062 10.128C2.72423 10.128 2.39478 10.4639 2.39478 10.8783C2.39478 11.2926 2.72423 11.6286 3.13062 11.6286Z" fill="#FF6242" stroke="#191816" stroke-width="0.5" stroke-linecap="round" stroke-linejoin="round"/>
<path d="M5.58344 11.6286C5.98984 11.6286 6.31929 11.2926 6.31929 10.8783C6.31929 10.4639 5.98984 10.128 5.58344 10.128C5.17705 10.128 4.8476 10.4639 4.8476 10.8783C4.8476 11.2926 5.17705 11.6286 5.58344 11.6286Z" fill="#FFE500" stroke="#191816" stroke-width="0.5" stroke-linecap="round" stroke-linejoin="round"/>
<path d="M8.03626 11.6286C8.44266 11.6286 8.77211 11.2926 8.77211 10.8783C8.77211 10.4639 8.44266 10.128 8.03626 10.128C7.62987 10.128 7.30042 10.4639 7.30042 10.8783C7.30042 11.2926 7.62987 11.6286 8.03626 11.6286Z" fill="#6DD627" stroke="#191816" stroke-width="0.5" stroke-linecap="round" stroke-linejoin="round"/>
<path d="M31.3382 35.1373H2.39479C2.00448 35.1373 1.63014 34.9792 1.35415 34.6978C1.07815 34.4164 0.923096 34.0347 0.923096 33.6367V13.1291H32.8099V33.6367C32.8099 34.0347 32.6548 34.4164 32.3788 34.6978C32.1028 34.9792 31.7285 35.1373 31.3382 35.1373Z" stroke="#191816" stroke-width="0.5" stroke-linecap="round" stroke-linejoin="round"/>
<path d="M31.3382 27.1342H24.4703C24.1994 27.1342 23.9797 27.3581 23.9797 27.6344V33.1364C23.9797 33.4127 24.1994 33.6366 24.4703 33.6366H31.3382C31.6092 33.6366 31.8288 33.4127 31.8288 33.1364V27.6344C31.8288 27.3581 31.6092 27.1342 31.3382 27.1342Z" fill="#E0E0E0" stroke="#191816" stroke-width="0.5" stroke-linecap="round" stroke-linejoin="round"/>
<path d="M30.1118 30.8857V30.3855C30.1118 29.7886 29.8792 29.2161 29.4652 28.7939C29.0512 28.3718 28.4897 28.1347 27.9042 28.1347C27.3188 28.1347 26.7573 28.3718 26.3433 28.7939C25.9293 29.2161 25.6967 29.7886 25.6967 30.3855V30.8857C25.5666 30.8857 25.4418 30.9384 25.3498 31.0322C25.2578 31.126 25.2061 31.2532 25.2061 31.3859C25.2061 31.5185 25.2578 31.6458 25.3498 31.7396C25.4418 31.8334 25.5666 31.8861 25.6967 31.8861C25.7146 31.8883 25.7327 31.8883 25.7506 31.8861C25.8564 32.3884 26.1279 32.8386 26.5198 33.1615C26.9117 33.4844 27.4003 33.6606 27.9042 33.6606C28.4081 33.6606 28.8968 33.4844 29.2887 33.1615C29.6806 32.8386 29.9521 32.3884 30.0578 31.8861C30.0757 31.8883 30.0939 31.8883 30.1118 31.8861C30.2419 31.8861 30.3667 31.8334 30.4587 31.7396C30.5507 31.6458 30.6023 31.5185 30.6023 31.3859C30.6023 31.2532 30.5507 31.126 30.4587 31.0322C30.3667 30.9384 30.2419 30.8857 30.1118 30.8857Z" fill="#FFCEBF" stroke="#191816" stroke-width="0.5" stroke-linecap="round" stroke-linejoin="round"/>
<path d="M28.3016 32.2162C28.2496 32.2697 28.1877 32.3122 28.1195 32.3412C28.0513 32.3702 27.9781 32.3852 27.9042 32.3852C27.8303 32.3852 27.7571 32.3702 27.6889 32.3412C27.6207 32.3122 27.5588 32.2697 27.5068 32.2162" stroke="#191816" stroke-width="0.5" stroke-linecap="round" stroke-linejoin="round"/>
<path d="M27.0653 31.5309C27.0641 31.6061 27.0342 31.6779 26.982 31.7311C26.9299 31.7843 26.8595 31.8147 26.7857 31.816C26.7115 31.816 26.6404 31.786 26.588 31.7325C26.5355 31.679 26.5061 31.6065 26.5061 31.5309C26.5054 31.4933 26.5122 31.4559 26.526 31.421C26.5398 31.3861 26.5604 31.3544 26.5865 31.3278C26.6126 31.3012 26.6437 31.2802 26.6779 31.2661C26.7121 31.252 26.7488 31.2451 26.7857 31.2458C26.8599 31.2458 26.931 31.2758 26.9834 31.3293C27.0359 31.3828 27.0653 31.4553 27.0653 31.5309Z" fill="#FFB59E"/>
<path d="M29.3023 31.5309C29.3023 31.6065 29.2729 31.679 29.2204 31.7325C29.168 31.786 29.0969 31.816 29.0227 31.816C28.949 31.8147 28.8786 31.7843 28.8264 31.7311C28.7742 31.6779 28.7444 31.6061 28.7431 31.5309C28.7431 31.4553 28.7726 31.3828 28.825 31.3293C28.8774 31.2758 28.9486 31.2458 29.0227 31.2458C29.0596 31.2451 29.0963 31.252 29.1305 31.2661C29.1647 31.2802 29.1958 31.3012 29.2219 31.3278C29.248 31.3544 29.2686 31.3861 29.2824 31.421C29.2962 31.4559 29.303 31.4933 29.3023 31.5309Z" fill="#FFB59E"/>
<path d="M27.2028 30.6756C27.1286 30.6756 27.0575 30.7057 27.005 30.7591C26.9526 30.8126 26.9231 30.8851 26.9231 30.9607C26.9222 31.0185 26.9382 31.0753 26.969 31.1237C26.9999 31.1722 27.0443 31.2102 27.0965 31.2327C27.1487 31.2553 27.2063 31.2615 27.2619 31.2504C27.3176 31.2394 27.3687 31.2117 27.4088 31.1708C27.4489 31.1299 27.4761 31.0778 27.4869 31.0211C27.4977 30.9643 27.4917 30.9056 27.4696 30.8524C27.4474 30.7992 27.4102 30.7539 27.3627 30.7224C27.3151 30.6909 27.2594 30.6746 27.2028 30.6756Z" fill="#191816"/>
<path d="M28.6058 30.6756C28.5689 30.6749 28.5322 30.6818 28.498 30.6959C28.4638 30.71 28.4327 30.731 28.4066 30.7576C28.3805 30.7842 28.3599 30.8159 28.3461 30.8508C28.3323 30.8857 28.3255 30.9231 28.3262 30.9607C28.3262 31.0363 28.3556 31.1089 28.4081 31.1623C28.4605 31.2158 28.5316 31.2458 28.6058 31.2458C28.6795 31.2445 28.7499 31.2141 28.8021 31.1609C28.8543 31.1077 28.8841 31.0359 28.8854 30.9607C28.8854 30.8851 28.8559 30.8126 28.8035 30.7591C28.7511 30.7057 28.6799 30.6756 28.6058 30.6756Z" fill="#191816"/>
<path d="M27.9041 28.1347C27.6141 28.134 27.3267 28.1918 27.0586 28.3047C26.7905 28.4176 26.5469 28.5833 26.3417 28.7925C26.1366 29.0016 25.974 29.25 25.8633 29.5234C25.7526 29.7968 25.696 30.0898 25.6966 30.3855V30.6356C25.9175 30.6355 26.1341 30.5727 26.322 30.4543C26.51 30.336 26.662 30.1667 26.7611 29.9654C26.8048 29.8752 26.8769 29.8026 26.9658 29.7591C27.0547 29.7156 27.1554 29.7037 27.2517 29.7253C27.67 29.8354 28.1089 29.8354 28.5272 29.7253C28.6235 29.7037 28.7241 29.7156 28.813 29.7591C28.9019 29.8026 28.974 29.8752 29.0177 29.9654C29.119 30.1713 29.2756 30.3437 29.4693 30.4623C29.663 30.581 29.8858 30.6411 30.1117 30.6356V30.3855C30.1123 30.0898 30.0557 29.7968 29.945 29.5234C29.8343 29.25 29.6717 29.0016 29.4666 28.7925C29.2614 28.5833 29.0178 28.4176 28.7497 28.3047C28.4816 28.1918 28.1942 28.134 27.9041 28.1347Z" fill="#FFDF3D" stroke="#191816" stroke-width="0.5" stroke-linecap="round" stroke-linejoin="round"/>
<path d="M29.8664 17.6307C30.6792 17.6307 31.3381 16.9589 31.3381 16.1302C31.3381 15.3014 30.6792 14.6296 29.8664 14.6296C29.0536 14.6296 28.3947 15.3014 28.3947 16.1302C28.3947 16.9589 29.0536 17.6307 29.8664 17.6307Z" fill="#FF6242" stroke="#191816" stroke-width="0.5" stroke-linecap="round" stroke-linejoin="round"/>
<path d="M33.6965 11.7988C33.7715 11.445 33.9352 11.1214 34.1691 10.8645C34.4031 10.6076 34.6978 10.4279 35.02 10.3455L37.6735 9.64346C37.7226 9.6335 37.7668 9.60476 37.7984 9.56234C37.83 9.51993 37.8469 9.46658 37.8461 9.41178C37.846 9.35646 37.8289 9.3028 37.7976 9.25948C37.7662 9.21617 37.7225 9.18572 37.6735 9.17308L35.02 8.47101C34.6972 8.3902 34.4017 8.21092 34.1675 7.95382C33.9334 7.69672 33.7701 7.37224 33.6965 7.01774L33.0571 4.10417C33.0467 4.05157 33.02 4.00458 32.9815 3.97127C32.943 3.93796 32.8951 3.92041 32.8461 3.92163C32.7966 3.92135 32.7484 3.93913 32.7091 3.97216C32.6697 4.00519 32.6415 4.05162 32.6287 4.10417L31.9894 7.01774C31.917 7.3717 31.7549 7.69597 31.5218 7.95311C31.2888 8.21026 30.9942 8.3898 30.6722 8.47101L28.0188 9.17308C27.9697 9.18572 27.926 9.21617 27.8947 9.25948C27.8634 9.3028 27.8463 9.35646 27.8462 9.41178C27.8453 9.46658 27.8622 9.51993 27.8938 9.56234C27.9254 9.60476 27.9697 9.6335 28.0188 9.64346L30.6722 10.3455C31.0033 10.418 31.3083 10.5935 31.551 10.8513C31.7936 11.109 31.9636 11.4379 32.0405 11.7988L32.6799 14.7124C32.6914 14.7662 32.7191 14.8142 32.7586 14.8486C32.798 14.883 32.8469 14.9018 32.8973 14.9019C32.9472 14.9028 32.9958 14.8843 33.0344 14.8496C33.073 14.8149 33.0992 14.7663 33.1083 14.7124L33.6965 11.7988Z" fill="#FFEC60" stroke="#191816" stroke-width="0.5" stroke-linecap="round" stroke-linejoin="round"/>
<path d="M42.9273 29.0537C43.0023 28.6999 43.166 28.3762 43.3999 28.1194C43.6338 27.8625 43.9286 27.6828 44.2508 27.6004L46.9042 26.8984C46.9533 26.8884 46.9976 26.8597 47.0292 26.8172C47.0608 26.7748 47.0777 26.7215 47.0769 26.6667C47.0768 26.6114 47.0597 26.5577 47.0283 26.5144C46.997 26.4711 46.9533 26.4406 46.9042 26.428L44.2508 25.7259C43.928 25.6451 43.6324 25.4658 43.3983 25.2087C43.1642 24.9516 43.0009 24.6271 42.9273 24.2726L42.2879 21.3591C42.2775 21.3065 42.2508 21.2595 42.2123 21.2262C42.1738 21.1928 42.1259 21.1753 42.0769 21.1765C42.0274 21.1762 41.9792 21.194 41.9398 21.227C41.9005 21.2601 41.8722 21.3065 41.8595 21.3591L41.2201 24.2726C41.1477 24.6266 40.9856 24.9509 40.7526 25.208C40.5195 25.4651 40.225 25.6447 39.903 25.7259L37.2496 26.428C37.2005 26.4406 37.1568 26.4711 37.1255 26.5144C37.0941 26.5577 37.077 26.6114 37.0769 26.6667C37.0761 26.7215 37.093 26.7748 37.1246 26.8172C37.1562 26.8597 37.2005 26.8884 37.2496 26.8984L39.903 27.6004C40.2341 27.6729 40.5391 27.8484 40.7817 28.1061C41.0244 28.3638 41.1943 28.6928 41.2713 29.0537L41.9107 31.9673C41.9222 32.0211 41.9499 32.0691 41.9894 32.1035C42.0288 32.1379 42.0777 32.1567 42.1281 32.1568C42.178 32.1577 42.2265 32.1392 42.2652 32.1045C42.3038 32.0698 42.33 32.0212 42.3391 31.9673L42.9273 29.0537Z" fill="#FFEC60" stroke="#191816" stroke-width="0.5" stroke-linecap="round" stroke-linejoin="round"/>
</g>
<defs>
<filter id="filter0_d_1615_112256" x="0" y="0" width="48" height="48" filterUnits="userSpaceOnUse" color-interpolation-filters="sRGB">
<feFlood flood-opacity="0" result="BackgroundImageFix"/>
<feColorMatrix in="SourceAlpha" type="matrix" values="0 0 0 0 0 0 0 0 0 0 0 0 0 0 0 0 0 0 127 0" result="hardAlpha"/>
<feOffset dy="4"/>
<feGaussianBlur stdDeviation="2"/>
<feComposite in2="hardAlpha" operator="out"/>
<feColorMatrix type="matrix" values="0 0 0 0 0 0 0 0 0 0 0 0 0 0 0 0 0 0 0.15 0"/>
<feBlend mode="normal" in2="BackgroundImageFix" result="effect1_dropShadow_1615_112256"/>
<feBlend mode="normal" in="SourceGraphic" in2="effect1_dropShadow_1615_112256" result="shape"/>
</filter>
</defs>
</svg>
