<svg width="48" height="48" viewBox="0 0 48 48" fill="none" xmlns="http://www.w3.org/2000/svg">
<g filter="url(#filter0_d_1615_112415)">
<circle cx="24" cy="20" r="20" fill="#6CB4FE"/>
</g>
<mask id="mask0_1615_112415" style="mask-type:alpha" maskUnits="userSpaceOnUse" x="4" y="0" width="40" height="40">
<circle cx="24" cy="20" r="20" fill="#6CB4FE"/>
</mask>
<g mask="url(#mask0_1615_112415)">
<path d="M21.3888 3.17136C21.4638 2.81757 21.6275 2.49391 21.8615 2.23706C22.0954 1.98021 22.3902 1.80042 22.7124 1.71808L25.3658 1.01602C25.4149 1.00606 25.4592 0.977321 25.4908 0.934903C25.5224 0.892485 25.5393 0.839137 25.5384 0.784338C25.5383 0.729022 25.5212 0.675362 25.4899 0.632043C25.4586 0.588724 25.4148 0.55828 25.3658 0.545636L22.7124 -0.156429C22.3895 -0.237243 22.094 -0.416518 21.8598 -0.673621C21.6257 -0.930723 21.4624 -1.2552 21.3888 -1.6097L20.7494 -4.52327C20.7391 -4.57587 20.7123 -4.62286 20.6738 -4.65617C20.6353 -4.68948 20.5875 -4.70703 20.5385 -4.70581C20.4889 -4.70609 20.4407 -4.68832 20.4014 -4.65528C20.362 -4.62225 20.3338 -4.57582 20.3211 -4.52327L19.6817 -1.6097C19.6093 -1.25574 19.4472 -0.931476 19.2141 -0.67433C18.9811 -0.417185 18.6866 -0.237644 18.3646 -0.156429L15.7111 0.545636C15.6621 0.55828 15.6183 0.588724 15.587 0.632043C15.5557 0.675362 15.5386 0.729022 15.5385 0.784338C15.5377 0.839137 15.5545 0.892485 15.5861 0.934903C15.6178 0.977321 15.662 1.00606 15.7111 1.01602L18.3646 1.71808C18.6956 1.79054 19.0007 1.96611 19.2433 2.22381C19.4859 2.48151 19.6559 2.81046 19.7328 3.17136L20.3722 6.08493C20.3837 6.13878 20.4115 6.18679 20.4509 6.22119C20.4904 6.25559 20.5392 6.27437 20.5896 6.27449C20.6395 6.2754 20.6881 6.25686 20.7267 6.22215C20.7654 6.18744 20.7915 6.13882 20.8006 6.08493L21.3888 3.17136Z" fill="#FFEC60" stroke="#191816" stroke-width="0.5" stroke-linecap="round" stroke-linejoin="round"/>
<path d="M5.49666 25.8141C5.59472 25.3593 5.80882 24.9431 6.11472 24.6129C6.42062 24.2827 6.80607 24.0515 7.22742 23.9457L10.6973 23.043C10.7615 23.0302 10.8194 22.9932 10.8607 22.9387C10.902 22.8842 10.9241 22.8156 10.923 22.7451C10.9229 22.674 10.9005 22.605 10.8596 22.5493C10.8186 22.4936 10.7614 22.4545 10.6973 22.4382L7.22742 21.5356C6.80522 21.4317 6.41879 21.2012 6.1126 20.8706C5.80641 20.54 5.5929 20.1229 5.49666 19.6671L4.66054 15.921C4.64696 15.8534 4.61199 15.793 4.56164 15.7502C4.51129 15.7074 4.4487 15.6848 4.38462 15.6864C4.31986 15.686 4.25682 15.7089 4.20538 15.7513C4.15394 15.7938 4.11699 15.8535 4.10034 15.921L3.26423 19.6671C3.16955 20.1222 2.95759 20.5391 2.65283 20.8697C2.34806 21.2003 1.96291 21.4311 1.54183 21.5356L-1.92805 22.4382C-1.99218 22.4545 -2.04936 22.4936 -2.09033 22.5493C-2.1313 22.605 -2.15366 22.674 -2.1538 22.7451C-2.15489 22.8156 -2.1328 22.8842 -2.09147 22.9387C-2.05014 22.9932 -1.99223 23.0302 -1.92805 23.043L1.54183 23.9457C1.97474 24.0388 2.37367 24.2645 2.69096 24.5959C3.00824 24.9272 3.23048 25.3501 3.33112 25.8141L4.16723 29.5602C4.18229 29.6294 4.21855 29.6911 4.27014 29.7354C4.32173 29.7796 4.38563 29.8037 4.45151 29.8039C4.51678 29.8051 4.58031 29.7812 4.63082 29.7366C4.68134 29.692 4.71557 29.6295 4.72743 29.5602L5.49666 25.8141Z" fill="#FFEC60" stroke="#191816" stroke-width="0.5" stroke-linecap="round" stroke-linejoin="round"/>
<path d="M16.6426 14.5951C16.7061 14.2918 16.8446 14.0144 17.0426 13.7942C17.2405 13.5741 17.4899 13.42 17.7625 13.3494L20.0078 12.7476C20.0493 12.7391 20.0868 12.7144 20.1135 12.6781C20.1402 12.6417 20.1545 12.596 20.1538 12.549C20.1537 12.5016 20.1393 12.4556 20.1128 12.4185C20.0863 12.3814 20.0493 12.3553 20.0078 12.3444L17.7625 11.7427C17.4894 11.6734 17.2393 11.5197 17.0412 11.2994C16.8431 11.079 16.7049 10.8009 16.6426 10.497L16.1016 7.99965C16.0928 7.95457 16.0702 7.91429 16.0376 7.88574C16.0051 7.85719 15.9646 7.84214 15.9231 7.84319C15.8812 7.84296 15.8404 7.85819 15.8071 7.8865C15.7738 7.91481 15.7499 7.95461 15.7391 7.99965L15.1981 10.497C15.1369 10.8004 14.9997 11.0783 14.8025 11.2987C14.6053 11.5192 14.3561 11.673 14.0836 11.7427L11.8384 12.3444C11.7969 12.3553 11.7599 12.3814 11.7334 12.4185C11.7069 12.4556 11.6924 12.5016 11.6923 12.549C11.6916 12.596 11.7059 12.6417 11.7327 12.6781C11.7594 12.7144 11.7969 12.7391 11.8384 12.7476L14.0836 13.3494C14.3638 13.4115 14.6219 13.562 14.8272 13.7829C15.0325 14.0038 15.1763 14.2857 15.2414 14.5951L15.7824 17.0924C15.7922 17.1386 15.8156 17.1797 15.849 17.2092C15.8824 17.2387 15.9237 17.2548 15.9664 17.2549C16.0086 17.2557 16.0497 17.2398 16.0824 17.21C16.1151 17.1803 16.1372 17.1386 16.1449 17.0924L16.6426 14.5951Z" fill="#FFEC60" stroke="#191816" stroke-width="0.5" stroke-linecap="round" stroke-linejoin="round"/>
<path d="M32.0488 29.6394C31.5123 29.6394 30.9977 29.8567 30.6183 30.2436C30.2389 30.6304 30.0257 31.1551 30.0257 31.7022C30.0257 32.2492 30.2389 32.7739 30.6183 33.1608C30.9977 33.5476 31.5123 33.7649 32.0488 33.7649H46.2105C46.3226 33.7548 46.4355 33.7685 46.5421 33.8052C46.6486 33.842 46.7465 33.9009 46.8295 33.9784C46.9125 34.0558 46.9788 34.15 47.0241 34.255C47.0695 34.3599 47.0929 34.4734 47.0929 34.5881C47.0929 34.7028 47.0695 34.8162 47.0241 34.9212C46.9788 35.0262 46.9125 35.1204 46.8295 35.1978C46.7465 35.2752 46.6486 35.3342 46.5421 35.3709C46.4355 35.4077 46.3226 35.4214 46.2105 35.4112H32.0488C31.1096 35.3711 30.2218 34.9625 29.5711 34.2707C28.9205 33.5789 28.5572 32.6574 28.5572 31.6989C28.5572 30.7404 28.9205 29.8189 29.5711 29.1271C30.2218 28.4353 31.1096 28.0267 32.0488 27.9866H46.2105C46.4255 27.9866 46.6317 28.0736 46.7837 28.2286C46.9357 28.3836 47.021 28.5938 47.021 28.813C47.021 29.0322 46.9357 29.2424 46.7837 29.3973C46.6317 29.5523 46.4255 29.6394 46.2105 29.6394H32.0488Z" fill="#9F5AE5"/>
<path d="M28.4111 31.7022C28.4195 30.7235 28.8063 29.7877 29.4874 29.0981C30.1685 28.4085 31.089 28.0208 32.0489 28.0191H46.2106C46.4255 28.0191 46.6317 28.1062 46.7837 28.2612C46.9357 28.4161 47.0211 28.6263 47.0211 28.8455C47.0211 29.0647 46.9357 29.2749 46.7837 29.4299C46.6317 29.5849 46.4255 29.6719 46.2106 29.6719H32.0489C31.5123 29.6719 30.9977 29.8892 30.6183 30.2761C30.2389 30.6629 30.0258 31.1876 30.0258 31.7347L28.4111 31.7022Z" fill="#BF8DF2"/>
<path d="M32.0488 29.6394C31.5123 29.6394 30.9977 29.8567 30.6183 30.2436C30.2389 30.6304 30.0257 31.1551 30.0257 31.7022C30.0257 32.2492 30.2389 32.7739 30.6183 33.1608C30.9977 33.5476 31.5123 33.7649 32.0488 33.7649H46.2105C46.3226 33.7548 46.4355 33.7685 46.5421 33.8052C46.6486 33.842 46.7465 33.9009 46.8295 33.9784C46.9125 34.0558 46.9788 34.15 47.0241 34.255C47.0695 34.3599 47.0929 34.4734 47.0929 34.5881C47.0929 34.7028 47.0695 34.8162 47.0241 34.9212C46.9788 35.0262 46.9125 35.1204 46.8295 35.1978C46.7465 35.2752 46.6486 35.3342 46.5421 35.3709C46.4355 35.4077 46.3226 35.4214 46.2105 35.4112H32.0488C31.1096 35.3711 30.2218 34.9625 29.5711 34.2707C28.9205 33.5789 28.5572 32.6574 28.5572 31.6989C28.5572 30.7404 28.9205 29.8189 29.5711 29.1271C30.2218 28.4353 31.1096 28.0267 32.0488 27.9866H46.2105C46.4255 27.9866 46.6317 28.0736 46.7837 28.2286C46.9357 28.3836 47.021 28.5938 47.021 28.813C47.021 29.0322 46.9357 29.2424 46.7837 29.3973C46.6317 29.5523 46.4255 29.6394 46.2105 29.6394H32.0488Z" stroke="#191816" stroke-width="0.5" stroke-linecap="round" stroke-linejoin="round"/>
<path d="M46.2106 33.7649V29.6394H32.0489C31.5123 29.6394 30.9977 29.8567 30.6183 30.2435C30.2389 30.6304 30.0258 31.1551 30.0258 31.7021C30.0258 32.2492 30.2389 32.7739 30.6183 33.1607C30.9977 33.5476 31.5123 33.7649 32.0489 33.7649H46.2106Z" fill="#FFF5E3" stroke="#191816" stroke-width="0.5" stroke-linecap="round" stroke-linejoin="round"/>
<path d="M46.2106 31.2857H40.5433" stroke="#191816" stroke-width="0.5" stroke-linecap="round" stroke-linejoin="round"/>
<path d="M38.9287 31.2857H37.3076" stroke="#191816" stroke-width="0.5" stroke-linecap="round" stroke-linejoin="round"/>
<path d="M30.8171 23.0411C30.4965 23.0411 30.1791 23.1055 29.8829 23.2306C29.5868 23.3557 29.3176 23.539 29.091 23.7701C28.8643 24.0013 28.6845 24.2756 28.5618 24.5776C28.4391 24.8796 28.376 25.2033 28.376 25.5301C28.376 25.857 28.4391 26.1806 28.5618 26.4826C28.6845 26.7846 28.8643 27.059 29.091 27.2901C29.3176 27.5212 29.5868 27.7046 29.8829 27.8296C30.1791 27.9547 30.4965 28.0191 30.8171 28.0191H42.1643C42.2705 28.02 42.3757 27.9994 42.474 27.9586C42.5723 27.9178 42.6617 27.8575 42.7371 27.7813C42.8124 27.7051 42.8722 27.6144 42.913 27.5145C42.9538 27.4146 42.9749 27.3074 42.9749 27.1992V26.3403H30.8171C30.6021 26.3403 30.396 26.2532 30.244 26.0982C30.092 25.9432 30.0066 25.733 30.0066 25.5139C30.0066 25.2947 30.092 25.0845 30.244 24.9295C30.396 24.7745 30.6021 24.6874 30.8171 24.6874H42.9429V23.861C42.9429 23.7528 42.9219 23.6457 42.8811 23.5458C42.8403 23.4459 42.7805 23.3552 42.7052 23.279C42.6298 23.2027 42.5404 23.1425 42.4421 23.1017C42.3438 23.0608 42.2386 23.0403 42.1324 23.0411H30.8171Z" fill="#00B8F0"/>
<path d="M30.0257 25.5139C30.0257 25.298 30.1084 25.0907 30.2563 24.9363C30.4042 24.7819 30.6055 24.6925 30.8171 24.6874H42.9429V23.861C42.943 23.7528 42.9219 23.6457 42.8811 23.5458C42.8403 23.4459 42.7805 23.3552 42.7052 23.279C42.6298 23.2027 42.5404 23.1425 42.4421 23.1017C42.3438 23.0608 42.2386 23.0403 42.1324 23.0411H30.8171C30.1739 23.0411 29.5571 23.3017 29.1023 23.7654C28.6474 24.2291 28.3919 24.858 28.3919 25.5139H30.0257Z" fill="#4ACFFF"/>
<path d="M30.8171 23.0411C30.4965 23.0411 30.1791 23.1055 29.8829 23.2306C29.5868 23.3557 29.3176 23.539 29.091 23.7701C28.8643 24.0013 28.6845 24.2756 28.5618 24.5776C28.4391 24.8796 28.376 25.2033 28.376 25.5301C28.376 25.857 28.4391 26.1806 28.5618 26.4826C28.6845 26.7846 28.8643 27.059 29.091 27.2901C29.3176 27.5212 29.5868 27.7046 29.8829 27.8296C30.1791 27.9547 30.4965 28.0191 30.8171 28.0191H42.1643C42.2705 28.02 42.3757 27.9994 42.474 27.9586C42.5723 27.9178 42.6617 27.8575 42.7371 27.7813C42.8124 27.7051 42.8722 27.6144 42.913 27.5145C42.9538 27.4146 42.9749 27.3074 42.9749 27.1992V26.3403H30.8171C30.6021 26.3403 30.396 26.2532 30.244 26.0982C30.092 25.9432 30.0066 25.733 30.0066 25.5139C30.0066 25.2947 30.092 25.0845 30.244 24.9295C30.396 24.7745 30.6021 24.6874 30.8171 24.6874H42.9429V23.861C42.9429 23.7528 42.9219 23.6457 42.8811 23.5458C42.8403 23.4459 42.7805 23.3552 42.7052 23.279C42.6298 23.2027 42.5404 23.1425 42.4421 23.1017C42.3438 23.0608 42.2386 23.0403 42.1324 23.0411H30.8171Z" stroke="#191816" stroke-width="0.5" stroke-linecap="round" stroke-linejoin="round"/>
<path d="M42.1643 26.3403V24.6874H30.8171C30.6021 24.6874 30.396 24.7745 30.244 24.9295C30.092 25.0845 30.0066 25.2947 30.0066 25.5138C30.0066 25.733 30.092 25.9432 30.244 26.0982C30.396 26.2532 30.6021 26.3403 30.8171 26.3403H42.1643Z" fill="#FFF5E3" stroke="#191816" stroke-width="0.5" stroke-linecap="round" stroke-linejoin="round"/>
<path d="M25.5465 17.1955L16.5486 38.396C16.3708 38.8149 16.5598 39.3014 16.9706 39.4827L20.684 41.1211C21.0948 41.3024 21.572 41.1097 21.7497 40.6909L30.7476 19.4904C30.9254 19.0715 30.7365 18.585 30.3256 18.4037L26.6122 16.7653C26.2014 16.584 25.7242 16.7766 25.5465 17.1955Z" fill="#B89558"/>
<path d="M18.3977 40.1094L16.9681 39.4587C16.771 39.3715 16.6158 39.208 16.5368 39.0042C16.4578 38.8005 16.4615 38.573 16.5469 38.372L25.5456 17.1717C25.6311 16.9706 25.7914 16.8125 25.9912 16.7319C26.1911 16.6514 26.4142 16.6551 26.6113 16.7422L28.0345 17.3929L18.3977 40.1094Z" fill="#DEBB7E"/>
<path d="M25.5465 17.1955L16.5486 38.396C16.3708 38.8149 16.5598 39.3014 16.9706 39.4827L20.684 41.1211C21.0948 41.3024 21.572 41.1097 21.7497 40.6909L30.7476 19.4904C30.9254 19.0715 30.7365 18.585 30.3256 18.4037L26.6122 16.7653C26.2014 16.584 25.7242 16.7766 25.5465 17.1955Z" stroke="#191816" stroke-width="0.5" stroke-linecap="round" stroke-linejoin="round"/>
<path d="M29.4574 22.5175L24.2563 20.2226L22.9713 23.2504L28.1724 25.5453L29.4574 22.5175Z" fill="#F0D5A8" stroke="#191816" stroke-width="0.5" stroke-linecap="round" stroke-linejoin="round"/>
<path d="M19.1628 19.8846L8.26603 38.2301C8.03414 38.6205 8.15656 39.1286 8.53945 39.3651L11.3071 41.0741C11.69 41.3106 12.1884 41.1857 12.4203 40.7953L23.3171 22.4498C23.549 22.0594 23.4265 21.5513 23.0436 21.3148L20.276 19.6058C19.8931 19.3694 19.3947 19.4942 19.1628 19.8846Z" fill="#FF8A14"/>
<path d="M9.49478 39.9533L8.53748 39.3611C8.35418 39.2478 8.22238 39.065 8.17095 38.8528C8.11952 38.6406 8.15264 38.4162 8.26305 38.2289L19.1572 19.8787C19.2706 19.6924 19.4515 19.5593 19.6605 19.5081C19.8696 19.4569 20.09 19.4919 20.274 19.6054L21.2441 20.2105L9.49478 39.9533Z" fill="#FFAA54"/>
<path d="M19.1628 19.8846L8.26603 38.2301C8.03414 38.6205 8.15656 39.1286 8.53945 39.3651L11.3071 41.0741C11.69 41.3106 12.1884 41.1857 12.4203 40.7953L23.3171 22.4498C23.549 22.0594 23.4265 21.5513 23.0436 21.3148L20.276 19.6058C19.8931 19.3694 19.3947 19.4942 19.1628 19.8846Z" stroke="#191816" stroke-width="0.5" stroke-linecap="round" stroke-linejoin="round"/>
<path d="M21.6292 25.2713L17.4749 22.7061L15.7987 25.528L19.953 28.0933L21.6292 25.2713Z" fill="#FFCC99" stroke="#191816" stroke-width="0.5" stroke-linecap="round" stroke-linejoin="round"/>
<path d="M47.8316 35.4112H25.1754C24.7277 35.4112 24.3649 35.7812 24.3649 36.2376V40.3632C24.3649 40.8196 24.7277 41.1896 25.1754 41.1896H47.8316C48.2792 41.1896 48.6421 40.8196 48.6421 40.3632V36.2376C48.6421 35.7812 48.2792 35.4112 47.8316 35.4112Z" fill="#6DD627"/>
<path d="M48.6357 37.474V36.2376C48.6365 36.1294 48.6164 36.0221 48.5763 35.9219C48.5363 35.8216 48.4772 35.7305 48.4024 35.6537C48.3277 35.5768 48.2388 35.5159 48.1408 35.4742C48.0428 35.4326 47.9377 35.4112 47.8316 35.4112H25.1754C24.9604 35.4112 24.7543 35.4983 24.6023 35.6533C24.4503 35.8083 24.3649 36.0185 24.3649 36.2376V37.474H48.6357Z" fill="#9CEB60"/>
<path d="M47.8316 35.4112H25.1754C24.7277 35.4112 24.3649 35.7812 24.3649 36.2376V40.3632C24.3649 40.8196 24.7277 41.1896 25.1754 41.1896H47.8316C48.2792 41.1896 48.6421 40.8196 48.6421 40.3632V36.2376C48.6421 35.7812 48.2792 35.4112 47.8316 35.4112Z" stroke="#191816" stroke-width="0.5" stroke-linecap="round" stroke-linejoin="round"/>
<path d="M43.7854 41.1896V35.4112H40.5497V41.1896H43.7854Z" fill="#C8FFA1" stroke="#191816" stroke-width="0.5" stroke-linecap="round" stroke-linejoin="round"/>
<path d="M36.095 13.5082C40.1412 11.4454 41.3538 14.6729 41.3538 17.6337C41.3538 20.5945 38.9287 24.7916 36.095 22.2863C33.2614 24.7655 30.8171 20.5945 30.8171 17.6077C30.8171 14.6209 32.0488 11.4454 36.095 13.5082Z" fill="#FF6242"/>
<path d="M36.0951 15.2C37.9634 15.164 39.7943 15.7361 41.3219 16.8333C41.1113 14.1328 39.7775 11.6276 36.0951 13.5081C32.4126 11.6341 31.0788 14.1589 30.8682 16.8333C32.3963 15.7369 34.2269 15.1649 36.0951 15.2Z" fill="#FF866E"/>
<path d="M36.095 13.5082C40.1412 11.4454 41.3538 14.6729 41.3538 17.6337C41.3538 20.5945 38.9287 24.7916 36.095 22.2863C33.2614 24.7655 30.8171 20.5945 30.8171 17.6077C30.8171 14.6209 32.0488 11.4454 36.095 13.5082Z" stroke="#191816" stroke-width="0.5" stroke-linecap="round" stroke-linejoin="round"/>
<path d="M38.9287 7.87945C38.9287 7.87945 39.6754 8.93361 38.4947 10.6125C37.314 12.2913 36.095 11.9139 36.095 11.9139C36.095 11.9139 35.3483 10.8597 36.5226 9.18088C37.6969 7.50203 38.9287 7.87945 38.9287 7.87945Z" fill="#6DD627" stroke="#191816" stroke-width="0.5" stroke-linecap="round" stroke-linejoin="round"/>
<path d="M45.6361 34.5913L44.0406 28.1362L42.0814 28.6373L43.5492 34.5913H45.6361Z" fill="#FFE500" stroke="#191816" stroke-width="0.5" stroke-linecap="round" stroke-linejoin="round"/>
<path d="M44.0424 28.1407L42.0804 28.6439L42.4759 30.2468L44.4378 29.7436L44.0424 28.1407Z" fill="#E0E0E0" stroke="#191816" stroke-width="0.5" stroke-linecap="round" stroke-linejoin="round"/>
<path d="M42.2018 26.4799L42.9259 26.2943C43.0901 26.2522 43.2639 26.2783 43.4092 26.3669C43.5544 26.4555 43.6592 26.5993 43.7005 26.7667L44.0381 28.1362L42.076 28.639L41.7384 27.2696C41.6971 27.1022 41.7228 26.925 41.8097 26.7769C41.8966 26.6288 42.0376 26.5219 42.2018 26.4799Z" fill="#FF6242" stroke="#191816" stroke-width="0.5" stroke-linecap="round" stroke-linejoin="round"/>
<path d="M42.943 34.5913H51.8778V42.3349C51.8778 42.68 51.7433 43.011 51.5039 43.2551C51.2646 43.4992 50.9399 43.6363 50.6014 43.6363H44.2194C43.8808 43.6363 43.5562 43.4992 43.3168 43.2551C43.0774 43.011 42.943 42.68 42.943 42.3349V34.5913Z" fill="#DAEDF7"/>
<path d="M42.943 34.5913H51.8778V42.3349C51.8778 42.68 51.7433 43.011 51.5039 43.2551C51.2646 43.4992 50.9399 43.6363 50.6014 43.6363H44.2194C43.8808 43.6363 43.5562 43.4992 43.3168 43.2551C43.0774 43.011 42.943 42.68 42.943 42.3349V34.5913Z" stroke="#191816" stroke-width="0.5" stroke-linecap="round" stroke-linejoin="round"/>
</g>
<defs>
<filter id="filter0_d_1615_112415" x="0" y="0" width="48" height="48" filterUnits="userSpaceOnUse" color-interpolation-filters="sRGB">
<feFlood flood-opacity="0" result="BackgroundImageFix"/>
<feColorMatrix in="SourceAlpha" type="matrix" values="0 0 0 0 0 0 0 0 0 0 0 0 0 0 0 0 0 0 127 0" result="hardAlpha"/>
<feOffset dy="4"/>
<feGaussianBlur stdDeviation="2"/>
<feComposite in2="hardAlpha" operator="out"/>
<feColorMatrix type="matrix" values="0 0 0 0 0 0 0 0 0 0 0 0 0 0 0 0 0 0 0.15 0"/>
<feBlend mode="normal" in2="BackgroundImageFix" result="effect1_dropShadow_1615_112415"/>
<feBlend mode="normal" in="SourceGraphic" in2="effect1_dropShadow_1615_112415" result="shape"/>
</filter>
</defs>
</svg>
