<svg width="48" height="48" viewBox="0 0 48 48" fill="none" xmlns="http://www.w3.org/2000/svg">
<g filter="url(#filter0_d_1615_112464)">
<circle cx="24" cy="20" r="20" fill="#6CB4FE"/>
</g>
<mask id="mask0_1615_112464" style="mask-type:alpha" maskUnits="userSpaceOnUse" x="4" y="0" width="40" height="40">
<circle cx="24" cy="20" r="20" fill="#6CB4FE"/>
</mask>
<g mask="url(#mask0_1615_112464)">
<path d="M12.0155 16.2055C12.5203 15.1017 13.8776 13.7292 15.6613 12.6712C16.3103 11.2763 17.0938 9.95066 18.0001 8.71381C18.2016 8.39175 18.2737 8.003 18.2017 7.62815C18.1296 7.25331 17.9187 6.92114 17.6129 6.70051C17.3071 6.47988 16.9297 6.38772 16.559 6.44314C16.1884 6.49855 15.8528 6.6973 15.622 6.99817C12.5315 11.436 12.1501 13.4662 11.4827 17.1548C11.4434 17.3835 11.3985 17.618 11.3537 17.8582C11.5163 17.3893 11.7295 16.8174 12.0155 16.2055Z" fill="#FFB59E" stroke="#191816" stroke-width="0.5" stroke-linecap="round" stroke-linejoin="round"/>
<path d="M19.9801 11.0986C20.8446 10.5652 21.7552 10.1135 22.7003 9.74897C22.89 9.68809 23.0653 9.58832 23.2158 9.45581C23.3662 9.32329 23.4884 9.16081 23.575 8.97836C23.6616 8.79591 23.7107 8.59734 23.7192 8.39484C23.7278 8.19235 23.6957 7.9902 23.6248 7.80083C23.554 7.61145 23.4459 7.43885 23.3073 7.29361C23.1686 7.14837 23.0023 7.03357 22.8185 6.95626C22.6348 6.87896 22.4374 6.84077 22.2387 6.84405C22.0399 6.84733 21.8439 6.89201 21.6627 6.97535C16.3175 9.05128 13.6982 12.5912 12.4137 15.5021C13.6533 13.7236 16.6821 11.5733 19.9801 11.0986Z" fill="#FFB59E" stroke="#191816" stroke-width="0.5" stroke-linecap="round" stroke-linejoin="round"/>
<path d="M3.31082 27.0722L0.602003 29.8342C0.354489 30.0865 0.354488 30.4957 0.602002 30.7481L7.68934 37.9744C7.93685 38.2267 8.33815 38.2267 8.58566 37.9744L11.2945 35.2124C11.542 34.9601 11.542 34.5509 11.2945 34.2985L4.20714 27.0722C3.95963 26.8199 3.55833 26.8199 3.31082 27.0722Z" fill="#009FD9" stroke="#191816" stroke-width="0.5" stroke-linejoin="round"/>
<path d="M4.27529 27.1456C4.20757 27.0765 4.12714 27.0216 4.03859 26.9842C3.95005 26.9467 3.85514 26.9274 3.75928 26.9274C3.66343 26.9274 3.56851 26.9467 3.47997 26.9842C3.39142 27.0216 3.31099 27.0765 3.24327 27.1456L0.668808 29.7706C0.533514 29.9098 0.457611 30.0979 0.457611 30.2938C0.457611 30.4898 0.533514 30.6779 0.668808 30.8171L1.44283 31.6063L5.04931 27.9291L4.27529 27.1456Z" fill="#00B8F0"/>
<path d="M3.31082 27.0722L0.602003 29.8342C0.354489 30.0865 0.354488 30.4957 0.602002 30.7481L7.68934 37.9744C7.93685 38.2267 8.33815 38.2267 8.58566 37.9744L11.2945 35.2124C11.542 34.9601 11.542 34.5509 11.2945 34.2985L4.20714 27.0722C3.95963 26.8199 3.55833 26.8199 3.31082 27.0722Z" stroke="#191816" stroke-width="0.5" stroke-linejoin="round"/>
<path d="M12.3406 33.0993L11.2301 34.2316L4.27764 27.1428L5.38814 26.0105C5.507 25.8893 5.66821 25.8213 5.8363 25.8213C6.0044 25.8213 6.1656 25.8893 6.28446 26.0105L12.3406 32.1854C12.4595 32.3066 12.5263 32.471 12.5263 32.6424C12.5263 32.8138 12.4595 32.9782 12.3406 33.0993Z" fill="white" stroke="#191816" stroke-width="0.5" stroke-linecap="round" stroke-linejoin="round"/>
<path d="M24.0409 25.4643C19.9969 27.5002 15.7005 23.6914 15.7566 20.0943C15.8407 14.7815 20.5129 13.5463 24.0352 14.6271C25.516 15.0846 26.0544 12.4826 24.6634 11.802C19.4753 9.26858 13.2326 13.5177 12.0155 16.2055C9.77196 21.1523 12.2511 20.3345 6.46835 26.2306L12.2567 32.1324C18.0843 26.1906 20.6699 31.938 25.8469 27.7976C27.3557 26.5852 25.774 24.595 24.0409 25.4643Z" fill="#FFCEBF"/>
<path d="M13.3504 17.7553C14.5283 15.1761 18.9592 11.0357 25.4655 13.1345C25.4638 12.8589 25.3882 12.589 25.2468 12.3542C25.1054 12.1193 24.9037 11.9283 24.6634 11.802C19.4753 9.26858 13.2326 13.5177 12.0155 16.2055C9.77196 21.1523 12.2511 20.3345 6.46835 26.2306L7.893 27.6832C13.5523 21.89 11.1125 22.6735 13.3504 17.7553Z" fill="#FFDCD1"/>
<path d="M24.0409 25.4643C19.9969 27.5002 15.7005 23.6914 15.7566 20.0943C15.8407 14.7815 20.5129 13.5463 24.0353 14.6271C25.516 15.0846 26.0544 12.4826 24.6634 11.802C19.4753 9.26858 13.2326 13.5177 12.0155 16.2055C9.77196 21.1523 12.2511 20.3345 6.46835 26.2306L12.2567 32.1324C18.0843 26.1906 20.6699 31.938 25.8469 27.7976C27.3557 26.5852 25.774 24.595 24.0409 25.4643Z" stroke="#191816" stroke-width="0.5" stroke-miterlimit="10"/>
<path d="M36.4611 7.8702C36.5415 7.51699 36.7178 7.194 36.9699 6.93822C37.222 6.68245 37.5396 6.50422 37.8864 6.42394L40.744 5.72188C40.7955 5.71047 40.8416 5.68111 40.8743 5.63884C40.907 5.59656 40.9242 5.544 40.923 5.4902C40.9233 5.43582 40.9058 5.38288 40.8734 5.33969C40.841 5.29649 40.7955 5.26547 40.744 5.25149L37.8864 4.54943C37.5384 4.46939 37.2197 4.29037 36.9674 4.03314C36.7152 3.77591 36.5396 3.45101 36.4611 3.09615L35.7725 0.18959C35.7601 0.135738 35.7303 0.0877269 35.6878 0.0533264C35.6453 0.0189259 35.5927 0.000148227 35.5384 3.21116e-05C35.4847 -0.000879996 35.4323 0.0176646 35.3907 0.0523703C35.3491 0.0870761 35.3209 0.135696 35.3112 0.18959L34.6226 3.09615C34.5434 3.45065 34.3675 3.77513 34.1154 4.03223C33.8632 4.28934 33.545 4.46861 33.1973 4.54943L30.3398 5.25149C30.2869 5.26414 30.2398 5.29458 30.2061 5.3379C30.1724 5.38122 30.154 5.43488 30.1538 5.4902C30.1529 5.54499 30.1711 5.59834 30.2052 5.64076C30.2392 5.68318 30.2869 5.71192 30.3398 5.72188L33.1973 6.42394C33.5443 6.50628 33.8617 6.68607 34.1136 6.94292C34.3655 7.19977 34.5419 7.52343 34.6226 7.87722L35.3112 10.7908C35.3209 10.8447 35.3491 10.8933 35.3907 10.928C35.4323 10.9627 35.4847 10.9813 35.5384 10.9804C35.5927 10.9802 35.6453 10.9615 35.6878 10.9271C35.7303 10.8927 35.7601 10.8447 35.7725 10.7908L36.4611 7.8702Z" fill="#FFEC60" stroke="#191816" stroke-width="0.5" stroke-linecap="round" stroke-linejoin="round"/>
<path d="M35.2507 37.3581L39.1444 36.0402C39.215 36.013 39.2758 35.9646 39.3187 35.9014C39.3616 35.8382 39.3846 35.7631 39.3846 35.6863C39.3846 35.6094 39.3616 35.5344 39.3187 35.4712C39.2758 35.408 39.215 35.3596 39.1444 35.3324L35.9456 34.2464C35.7313 34.1724 35.5366 34.0491 35.3767 33.8862C35.2167 33.7232 35.0957 33.525 35.0231 33.3067L33.9568 30.0486C33.9301 29.9767 33.8826 29.9147 33.8205 29.871C33.7585 29.8273 33.6848 29.8039 33.6093 29.8039C33.5339 29.8039 33.4602 29.8273 33.3982 29.871C33.3361 29.9147 33.2886 29.9767 33.2619 30.0486L32.2076 33.3067C32.135 33.525 32.014 33.7232 31.854 33.8862C31.694 34.0491 31.4994 34.1724 31.2851 34.2464L28.0863 35.3324C28.0157 35.3596 27.9549 35.408 27.912 35.4712C27.8691 35.5344 27.8461 35.6094 27.8461 35.6863C27.8461 35.7631 27.8691 35.8382 27.912 35.9014C27.9549 35.9646 28.0157 36.013 28.0863 36.0402L31.2851 37.1262C31.4994 37.2002 31.694 37.3235 31.854 37.4864C32.014 37.6493 32.135 37.8476 32.2076 38.0659L33.2739 41.324C33.3005 41.3959 33.3481 41.4578 33.4101 41.5015C33.4722 41.5452 33.5459 41.5686 33.6213 41.5686C33.6968 41.5686 33.7704 41.5452 33.8325 41.5015C33.8946 41.4578 33.9421 41.3959 33.9688 41.324L35.2507 37.3581Z" fill="#FFEC60" stroke="#191816" stroke-width="0.5" stroke-linecap="round" stroke-linejoin="round"/>
<path d="M36.8851 14.7243H24.1586C23.22 14.7243 22.4591 15.5001 22.4591 16.4571V23.5141C22.4591 24.4711 23.22 25.2469 24.1586 25.2469H36.8851C37.8237 25.2469 38.5846 24.4711 38.5846 23.5141V16.4571C38.5846 15.5001 37.8237 14.7243 36.8851 14.7243Z" fill="#EBCB00"/>
<path d="M30.2498 14.7243H24.1586C23.7124 14.7243 23.2844 14.9051 22.9688 15.2268C22.6533 15.5486 22.476 15.9849 22.476 16.44V22.6678L30.2498 14.7243Z" fill="#FFE500"/>
<path d="M24.7195 22.9423H27.6193" stroke="#191816" stroke-width="0.5" stroke-linecap="round" stroke-linejoin="round"/>
<path d="M26.9743 18.3386H25.3645C25.0083 18.3386 24.7195 18.633 24.7195 18.9962V19.9799C24.7195 20.3431 25.0083 20.6375 25.3645 20.6375H26.9743C27.3305 20.6375 27.6193 20.3431 27.6193 19.9799V18.9962C27.6193 18.633 27.3305 18.3386 26.9743 18.3386Z" fill="#F9E481" stroke="#191816" stroke-width="0.5" stroke-linecap="round" stroke-linejoin="round"/>
<path d="M36.8851 14.7243H24.1586C23.22 14.7243 22.4591 15.5001 22.4591 16.4571V23.5141C22.4591 24.4711 23.22 25.2469 24.1586 25.2469H36.8851C37.8237 25.2469 38.5846 24.4711 38.5846 23.5141V16.4571C38.5846 15.5001 37.8237 14.7243 36.8851 14.7243Z" stroke="#191816" stroke-width="0.5" stroke-linecap="round" stroke-linejoin="round"/>
<path d="M32.942 23.5998C33.9209 23.5998 34.7144 22.7908 34.7144 21.7927C34.7144 20.7946 33.9209 19.9855 32.942 19.9855C31.9632 19.9855 31.1696 20.7946 31.1696 21.7927C31.1696 22.7908 31.9632 23.5998 32.942 23.5998Z" fill="#FF6242" stroke="#191816" stroke-width="0.5" stroke-linecap="round" stroke-linejoin="round"/>
<path d="M35.1968 23.5998C36.1757 23.5998 36.9692 22.7908 36.9692 21.7927C36.9692 20.7946 36.1757 19.9855 35.1968 19.9855C34.2179 19.9855 33.4244 20.7946 33.4244 21.7927C33.4244 22.7908 34.2179 23.5998 35.1968 23.5998Z" fill="#F9E481" stroke="#191816" stroke-width="0.5" stroke-linecap="round" stroke-linejoin="round"/>
<path d="M33.4244 21.7929C33.4247 22.0596 33.4826 22.3229 33.5941 22.5641C33.7056 22.8052 33.8679 23.0184 34.0694 23.1883C34.2715 23.0188 34.4342 22.8057 34.5459 22.5645C34.6576 22.3232 34.7156 22.0597 34.7156 21.7929C34.7156 21.5261 34.6576 21.2626 34.5459 21.0214C34.4342 20.7801 34.2715 20.5671 34.0694 20.3975C33.8679 20.5674 33.7056 20.7806 33.5941 21.0218C33.4826 21.263 33.4247 21.5263 33.4244 21.7929Z" fill="#F4A766" stroke="#191816" stroke-width="0.5" stroke-linecap="round" stroke-linejoin="round"/>
</g>
<defs>
<filter id="filter0_d_1615_112464" x="0" y="0" width="48" height="48" filterUnits="userSpaceOnUse" color-interpolation-filters="sRGB">
<feFlood flood-opacity="0" result="BackgroundImageFix"/>
<feColorMatrix in="SourceAlpha" type="matrix" values="0 0 0 0 0 0 0 0 0 0 0 0 0 0 0 0 0 0 127 0" result="hardAlpha"/>
<feOffset dy="4"/>
<feGaussianBlur stdDeviation="2"/>
<feComposite in2="hardAlpha" operator="out"/>
<feColorMatrix type="matrix" values="0 0 0 0 0 0 0 0 0 0 0 0 0 0 0 0 0 0 0.15 0"/>
<feBlend mode="normal" in2="BackgroundImageFix" result="effect1_dropShadow_1615_112464"/>
<feBlend mode="normal" in="SourceGraphic" in2="effect1_dropShadow_1615_112464" result="shape"/>
</filter>
</defs>
</svg>
