<svg width="48" height="48" viewBox="0 0 48 48" fill="none" xmlns="http://www.w3.org/2000/svg">
<g filter="url(#filter0_d_1615_112364)">
<circle cx="24" cy="20" r="20" fill="#6CB4FE"/>
</g>
<mask id="mask0_1615_112364" style="mask-type:alpha" maskUnits="userSpaceOnUse" x="4" y="0" width="40" height="40">
<circle cx="24" cy="20" r="20" fill="#6CB4FE"/>
</mask>
<g mask="url(#mask0_1615_112364)">
<path d="M26.6085 30.6388H23.7383C23.342 30.6388 23.0207 30.9601 23.0207 31.3564V35.3029C23.0207 35.6992 23.342 36.0204 23.7383 36.0204H26.6085C27.0047 36.0204 27.326 35.6992 27.326 35.3029V31.3564C27.326 30.9601 27.0047 30.6388 26.6085 30.6388Z" fill="#00B8F0"/>
<path d="M18.9361 13.0991C18.7397 13.0981 18.5448 13.1347 18.3621 13.2068C18.2594 12.5901 17.9413 12.03 17.4643 11.6259C16.9873 11.2218 16.3825 11 15.7574 11C15.1323 11 14.5274 11.2218 14.0505 11.6259C13.5735 12.03 13.2554 12.5901 13.1527 13.2068C12.9726 13.134 12.78 13.0974 12.5858 13.0991C12.1653 13.0991 11.7619 13.2662 11.4645 13.5636C11.1671 13.861 11 14.2643 11 14.6849C11 15.1055 11.1671 15.5088 11.4645 15.8062C11.7619 16.1036 12.1653 16.2707 12.5858 16.2707H18.9361C19.3567 16.2707 19.76 16.1036 20.0574 15.8062C20.3548 15.5088 20.5219 15.1055 20.5219 14.6849C20.5219 14.2643 20.3548 13.861 20.0574 13.5636C19.76 13.2662 19.3567 13.0991 18.9361 13.0991Z" fill="white" stroke="#191816" stroke-width="0.5" stroke-linejoin="round"/>
<path d="M38.4119 21.4256C38.5282 21.4252 38.6427 21.3966 38.7455 21.3422C38.8483 21.2877 38.9364 21.2091 39.002 21.1131C39.0677 21.017 39.1091 20.9065 39.1225 20.7909C39.1359 20.6753 39.1211 20.5582 39.0792 20.4497L37.9598 17.5795C37.3479 15.9419 36.2097 14.5538 34.7237 13.633L30.4184 10.9924C30.3093 10.9295 30.1856 10.8963 30.0596 10.8963C29.9337 10.8963 29.8099 10.9295 29.7008 10.9924L25.3956 13.633C23.9069 14.5526 22.766 15.9409 22.1523 17.5795L21.0401 20.4497C20.9982 20.5582 20.9833 20.6753 20.9967 20.7909C21.0102 20.9065 21.0515 21.017 21.1172 21.1131C21.1829 21.2091 21.2709 21.2877 21.3737 21.3422C21.4765 21.3966 21.591 21.4252 21.7074 21.4256H38.4119Z" fill="#FF6242"/>
<path d="M30.0167 14.9963C33.0681 14.9484 36.0153 16.1061 38.2183 18.2181L37.9599 17.5436C37.348 15.906 36.2098 14.5179 34.7238 13.5971L30.4185 10.9565C30.3094 10.8936 30.1857 10.8604 30.0598 10.8604C29.9338 10.8604 29.8101 10.8936 29.701 10.9565L25.3957 13.5971C23.907 14.5167 22.7662 15.905 22.1524 17.5436L21.8941 18.2181C24.0783 16.1267 26.9928 14.9707 30.0167 14.9963Z" fill="#FF866E"/>
<path d="M38.4119 21.4256C38.5282 21.4252 38.6427 21.3966 38.7455 21.3422C38.8483 21.2877 38.9364 21.2091 39.002 21.1131C39.0677 21.017 39.1091 20.9065 39.1225 20.7909C39.1359 20.6753 39.1211 20.5582 39.0792 20.4497L37.9598 17.5795C37.3479 15.9419 36.2097 14.5538 34.7237 13.633L30.4184 10.9924C30.3093 10.9295 30.1856 10.8963 30.0596 10.8963C29.9337 10.8963 29.8099 10.9295 29.7008 10.9924L25.3956 13.633C23.9069 14.5526 22.766 15.9409 22.1523 17.5795L21.0401 20.4497C20.9982 20.5582 20.9833 20.6753 20.9967 20.7909C21.0102 20.9065 21.0515 21.017 21.1172 21.1131C21.1829 21.2091 21.2709 21.2877 21.3737 21.3422C21.4765 21.3966 21.591 21.4252 21.7074 21.4256H38.4119Z" stroke="#191816" stroke-width="0.5" stroke-linecap="round" stroke-linejoin="round"/>
<path d="M38.4623 21.4255H21.5712V24.1163H38.4623V21.4255Z" fill="#F0F0F0"/>
<path d="M38.4623 21.4255H21.5712V22.7745H38.4623V21.4255Z" fill="#BDBEC0"/>
<path d="M38.4623 21.4255H21.5712V24.1163H38.4623V21.4255Z" stroke="#191816" stroke-width="0.5" stroke-linecap="round" stroke-linejoin="round"/>
<path d="M39.5027 27.948C39.5027 27.5319 39.5027 27.1157 39.5027 26.6923V24.8339C39.5027 24.6436 39.4271 24.4611 39.2925 24.3265C39.1579 24.1919 38.9754 24.1163 38.7851 24.1163H21.2913C21.101 24.1163 20.9185 24.1919 20.784 24.3265C20.6494 24.4611 20.5738 24.6436 20.5738 24.8339V26.6923C20.5738 27.1157 20.5738 27.5319 20.5738 27.948H39.5027Z" fill="#FF866E"/>
<path d="M41.6552 38.6467C41.7793 38.6458 41.9011 38.6127 42.0086 38.5507C42.1161 38.4886 42.2057 38.3998 42.2686 38.2928C42.3315 38.1858 42.3656 38.0643 42.3675 37.9402C42.3694 37.8161 42.3391 37.6936 42.2795 37.5847C40.4191 34.2562 39.4456 30.5054 39.4523 26.6923V24.8339C39.4523 24.6436 39.3768 24.4611 39.2422 24.3265C39.1076 24.1919 38.9251 24.1163 38.7348 24.1163H21.2912C21.1009 24.1163 20.9184 24.1919 20.7839 24.3265C20.6493 24.4611 20.5737 24.6436 20.5737 24.8339V26.6923C20.5825 30.5066 19.6062 34.2585 17.7394 37.5847C17.6798 37.6936 17.6495 37.8161 17.6514 37.9402C17.6533 38.0643 17.6874 38.1858 17.7503 38.2928C17.8132 38.3998 17.9028 38.4886 18.0103 38.5507C18.1178 38.6127 18.2395 38.6458 18.3636 38.6467H41.6552Z" fill="#FF6242"/>
<path d="M41.6552 38.6467C41.7793 38.6458 41.9011 38.6127 42.0086 38.5507C42.1161 38.4886 42.2057 38.3998 42.2686 38.2928C42.3315 38.1858 42.3656 38.0643 42.3675 37.9402C42.3694 37.8161 42.3391 37.6936 42.2795 37.5847C40.4191 34.2562 39.4456 30.5054 39.4523 26.6923V24.8339C39.4523 24.6436 39.3768 24.4611 39.2422 24.3265C39.1076 24.1919 38.9251 24.1163 38.7348 24.1163H21.2912C21.1009 24.1163 20.9184 24.1919 20.7839 24.3265C20.6493 24.4611 20.5737 24.6436 20.5737 24.8339V26.6923C20.5825 30.5066 19.6062 34.2585 17.7394 37.5847C17.6798 37.6936 17.6495 37.8161 17.6514 37.9402C17.6533 38.0643 17.6874 38.1858 17.7503 38.2928C17.8132 38.3998 17.9028 38.4886 18.0103 38.5507C18.1178 38.6127 18.2395 38.6458 18.3636 38.6467H41.6552Z" stroke="#191816" stroke-width="0.5" stroke-linecap="round" stroke-linejoin="round"/>
<path d="M40.945 38.6467H19.0885V43.5547H40.945V38.6467Z" fill="white"/>
<path d="M40.945 38.6467H19.0885V40.8639H40.945V38.6467Z" fill="#E8F4FA"/>
<path d="M40.945 38.6467H19.0885V43.5547H40.945V38.6467Z" stroke="#191816" stroke-width="0.5" stroke-linecap="round" stroke-linejoin="round"/>
<path d="M26.6085 30.6388H23.7383C23.342 30.6388 23.0207 30.9601 23.0207 31.3564V35.3029C23.0207 35.6992 23.342 36.0204 23.7383 36.0204H26.6085C27.0047 36.0204 27.326 35.6992 27.326 35.3029V31.3564C27.326 30.9601 27.0047 30.6388 26.6085 30.6388Z" fill="#00B8F0"/>
<path d="M26.6229 30.6388H23.7168C23.5265 30.6388 23.344 30.7144 23.2094 30.849C23.0749 30.9836 22.9993 31.1661 22.9993 31.3564V35.3029C22.9989 35.4401 23.038 35.5746 23.1117 35.6903C23.1855 35.8061 23.2909 35.8982 23.4155 35.9559L26.6229 30.6388Z" fill="#4ACFFF"/>
<path d="M26.6085 30.6388H23.7383C23.342 30.6388 23.0207 30.9601 23.0207 31.3564V35.3029C23.0207 35.6992 23.342 36.0204 23.7383 36.0204H26.6085C27.0047 36.0204 27.326 35.6992 27.326 35.3029V31.3564C27.326 30.9601 27.0047 30.6388 26.6085 30.6388Z" stroke="#191816" stroke-width="0.5" stroke-linecap="round" stroke-linejoin="round"/>
<path d="M23.0207 33.3297H27.326" stroke="#191816" stroke-width="0.5" stroke-linecap="round" stroke-linejoin="round"/>
<path d="M25.1733 30.6388V36.0204" stroke="#191816" stroke-width="0.5" stroke-linecap="round" stroke-linejoin="round"/>
<path d="M35.915 43.5547H32.686V41.402C32.686 40.9739 32.8561 40.5632 33.1589 40.2604C33.4617 39.9577 33.8723 39.7876 34.3005 39.7876C34.7287 39.7876 35.1393 39.9577 35.4421 40.2604C35.7449 40.5632 35.915 40.9739 35.915 41.402V43.5547Z" fill="#BF8256" stroke="#191816" stroke-width="0.5" stroke-linecap="round" stroke-linejoin="round"/>
<path d="M27.4694 14.3003L31.2078 10.5619C31.2751 10.4952 31.3285 10.4158 31.3649 10.3284C31.4013 10.2409 31.4201 10.1471 31.4201 10.0524C31.4201 9.9577 31.4013 9.86391 31.3649 9.77647C31.3285 9.68903 31.2751 9.60967 31.2078 9.54297L22.8771 1.21225C22.8104 1.14499 22.731 1.09161 22.6436 1.05518C22.5562 1.01876 22.4624 1 22.3677 1C22.2729 1 22.1791 1.01876 22.0917 1.05518C22.0043 1.09161 21.9249 1.14499 21.8582 1.21225L19.0311 4.03938C18.7896 4.28266 18.6541 4.61151 18.6541 4.95426C18.6541 5.297 18.7896 5.62585 19.0311 5.86913L40.9952 27.8332C41.1162 27.9521 41.2124 28.0939 41.278 28.2504C41.3437 28.4069 41.3775 28.5748 41.3775 28.7445C41.3775 28.9142 41.3437 29.0822 41.278 29.2386C41.2124 29.3951 41.1162 29.5369 40.9952 29.6558L38.168 32.4901C38.0336 32.6238 37.8517 32.6988 37.6622 32.6988C37.4726 32.6988 37.2907 32.6238 37.1563 32.4901L28.8256 24.1522C28.6919 24.0178 28.6169 23.8359 28.6169 23.6463C28.6169 23.4568 28.6919 23.2749 28.8256 23.1405L32.564 19.4021" stroke="#191816" stroke-width="0.5" stroke-linecap="round" stroke-linejoin="round"/>
<path d="M27.4695 19.402L23.7167 15.6565C23.5823 15.5228 23.4004 15.4478 23.2108 15.4478C23.0213 15.4478 22.8394 15.5228 22.705 15.6565L14.3886 23.9872C14.3214 24.0539 14.268 24.1332 14.2315 24.2207C14.1951 24.3081 14.1764 24.4019 14.1764 24.4966C14.1764 24.5914 14.1951 24.6851 14.2315 24.7726C14.268 24.86 14.3214 24.9394 14.3886 25.0061L17.2157 27.8332C17.4578 28.0742 17.7855 28.2095 18.127 28.2095C18.4686 28.2095 18.7963 28.0742 19.0383 27.8332L40.9952 5.88347C41.1147 5.76219 41.2572 5.66588 41.4142 5.60015C41.5713 5.53442 41.7399 5.50056 41.9101 5.50056C42.0804 5.50056 42.2489 5.53442 42.406 5.60015C42.5631 5.66588 42.7055 5.76219 42.825 5.88347L45.6521 8.7106C45.7858 8.84504 45.8608 9.02691 45.8608 9.21647C45.8608 9.40604 45.7858 9.5879 45.6521 9.72234L37.3501 18.0387C37.2834 18.106 37.204 18.1593 37.1166 18.1958C37.0292 18.2322 36.9354 18.251 36.8406 18.251C36.7459 18.251 36.6521 18.2322 36.5647 18.1958C36.4773 18.1593 36.3979 18.106 36.3312 18.0387L32.5928 14.3003" stroke="#191816" stroke-width="0.5" stroke-linecap="round" stroke-linejoin="round"/>
<path d="M40.9952 29.6558L40.0982 30.5599L30.7701 21.2318L32.5855 19.4164L40.9952 27.8332C41.1162 27.9521 41.2124 28.0939 41.278 28.2504C41.3437 28.4069 41.3775 28.5748 41.3775 28.7445C41.3775 28.9142 41.3437 29.0822 41.278 29.2386C41.2124 29.3951 41.1162 29.5369 40.9952 29.6558Z" fill="#FFF5E3" stroke="#191816" stroke-width="0.5" stroke-linecap="round" stroke-linejoin="round"/>
<path d="M29.2849 12.4921L27.4695 14.3075L19.0383 5.8835C18.917 5.76399 18.8207 5.62157 18.755 5.46451C18.6892 5.30745 18.6554 5.13889 18.6554 4.96862C18.6554 4.79836 18.6892 4.6298 18.755 4.47274C18.8207 4.31568 18.917 4.17326 19.0383 4.05375L19.9424 3.14964L29.2849 12.4921Z" fill="#FFF5E3" stroke="#191816" stroke-width="0.5" stroke-linecap="round" stroke-linejoin="round"/>
<path d="M17.2084 27.8332L16.3043 26.9291L25.6324 17.601L27.455 19.4236L19.031 27.8332C18.7889 28.0742 18.4613 28.2095 18.1197 28.2095C17.7781 28.2095 17.4505 28.0742 17.2084 27.8332Z" fill="#FFF5E3" stroke="#191816" stroke-width="0.5" stroke-linecap="round" stroke-linejoin="round"/>
<path d="M34.3795 16.1157L32.5641 14.3003L40.9953 5.88347C41.1148 5.76219 41.2572 5.66588 41.4143 5.60015C41.5714 5.53442 41.7399 5.50056 41.9102 5.50056C42.0805 5.50056 42.249 5.53442 42.4061 5.60015C42.5631 5.66588 42.7056 5.76219 42.8251 5.88347L43.7292 6.78758L34.3795 16.1157Z" fill="#FFF5E3" stroke="#191816" stroke-width="0.5" stroke-linecap="round" stroke-linejoin="round"/>
<path d="M33.0304 28.3642L35.4629 25.9317" stroke="#191816" stroke-width="0.5" stroke-linecap="round" stroke-linejoin="round"/>
<path d="M35.4558 30.7824L37.8883 28.3499" stroke="#191816" stroke-width="0.5" stroke-linecap="round" stroke-linejoin="round"/>
<path d="M30.6123 25.9389L33.0448 23.5064" stroke="#191816" stroke-width="0.5" stroke-linecap="round" stroke-linejoin="round"/>
<path d="M24.5633 7.77062L26.9958 5.33813" stroke="#191816" stroke-width="0.5" stroke-linecap="round" stroke-linejoin="round"/>
<path d="M26.9888 10.1888L29.4213 7.75629" stroke="#191816" stroke-width="0.5" stroke-linecap="round" stroke-linejoin="round"/>
<path d="M22.1453 5.34531L24.5778 2.91283" stroke="#191816" stroke-width="0.5" stroke-linecap="round" stroke-linejoin="round"/>
<path d="M41.5263 13.8339L39.0938 11.4014" stroke="#191816" stroke-width="0.5" stroke-linecap="round" stroke-linejoin="round"/>
<path d="M39.108 16.252L36.6755 13.8195" stroke="#191816" stroke-width="0.5" stroke-linecap="round" stroke-linejoin="round"/>
<path d="M43.9515 11.4086L41.519 8.9761" stroke="#191816" stroke-width="0.5" stroke-linecap="round" stroke-linejoin="round"/>
<path d="M20.7963 22.4301L18.3638 19.9976" stroke="#191816" stroke-width="0.5" stroke-linecap="round" stroke-linejoin="round"/>
<path d="M18.3781 24.8554L15.9456 22.4229" stroke="#191816" stroke-width="0.5" stroke-linecap="round" stroke-linejoin="round"/>
<path d="M23.2215 20.012L20.7962 17.5867" stroke="#191816" stroke-width="0.5" stroke-linecap="round" stroke-linejoin="round"/>
<path d="M30.9138 15.2331H29.12C28.7237 15.2331 28.4024 15.5544 28.4024 15.9507V17.7445C28.4024 18.1408 28.7237 18.4621 29.12 18.4621H30.9138C31.3101 18.4621 31.6314 18.1408 31.6314 17.7445V15.9507C31.6314 15.5544 31.3101 15.2331 30.9138 15.2331Z" fill="#BF8256" stroke="#191816" stroke-width="0.5" stroke-linecap="round" stroke-linejoin="round"/>
<path d="M10.8504 7.31457C10.9254 6.98605 11.0891 6.68551 11.323 6.44701C11.5569 6.2085 11.8517 6.04156 12.1739 5.9651L14.8273 5.31318C14.8764 5.30394 14.9207 5.27725 14.9523 5.23786C14.9839 5.19847 15.0008 5.14894 15 5.09805C14.9999 5.04669 14.9828 4.99686 14.9514 4.95663C14.9201 4.91641 14.8764 4.88814 14.8273 4.8764L12.1739 4.22448C11.851 4.14944 11.5555 3.98297 11.3214 3.74423C11.0872 3.5055 10.924 3.20419 10.8504 2.87501L10.211 0.169555C10.2006 0.120711 10.1739 0.0770777 10.1354 0.0461477C10.0969 0.0152178 10.049 -0.00107906 10 5.54784e-05C9.95048 -0.000199606 9.90227 0.016302 9.86293 0.0469746C9.82359 0.0776472 9.79534 0.120759 9.78261 0.169555L9.14323 2.87501C9.07082 3.20369 8.90874 3.5048 8.67569 3.74357C8.44263 3.98235 8.1481 4.14907 7.8261 4.22448L5.17266 4.8764C5.12362 4.88814 5.07989 4.91641 5.04857 4.95663C5.01724 4.99686 5.00013 5.04669 5.00003 5.09805C4.9992 5.14894 5.01609 5.19847 5.04769 5.23786C5.0793 5.27725 5.12358 5.30394 5.17266 5.31318L7.8261 5.9651C8.15715 6.03239 8.46221 6.19541 8.70484 6.43471C8.94748 6.674 9.11742 6.97945 9.19438 7.31457L9.83376 10.02C9.84528 10.07 9.873 10.1146 9.91245 10.1466C9.9519 10.1785 10.0008 10.1959 10.0512 10.196C10.1011 10.1969 10.1496 10.1797 10.1883 10.1474C10.2269 10.1152 10.2531 10.0701 10.2621 10.02L10.8504 7.31457Z" fill="#FFEC60" stroke="#191816" stroke-width="0.5" stroke-linecap="round" stroke-linejoin="round"/>
<path d="M4.46574 35.5499C4.54072 35.2213 4.70445 34.9208 4.93837 34.6823C5.17229 34.4438 5.46706 34.2769 5.78926 34.2004L8.44269 33.5485C8.49178 33.5392 8.53606 33.5125 8.56766 33.4732C8.59927 33.4338 8.61616 33.3842 8.61533 33.3333C8.61522 33.282 8.59812 33.2322 8.56679 33.1919C8.53546 33.1517 8.49174 33.1234 8.44269 33.1117L5.78926 32.4598C5.46641 32.3847 5.1709 32.2183 4.93675 31.9795C4.7026 31.7408 4.53933 31.4395 4.46574 31.1103L3.82635 28.4048C3.81597 28.356 3.78923 28.3124 3.75073 28.2814C3.71222 28.2505 3.66436 28.2342 3.61536 28.2353C3.56583 28.2351 3.51763 28.2516 3.47829 28.2823C3.43895 28.3129 3.4107 28.356 3.39797 28.4048L2.75858 31.1103C2.68618 31.439 2.5241 31.7401 2.29104 31.9789C2.05799 32.2176 1.76346 32.3844 1.44146 32.4598L-1.21198 33.1117C-1.26102 33.1234 -1.30475 33.1517 -1.33608 33.1919C-1.36741 33.2322 -1.38451 33.282 -1.38461 33.3333C-1.38544 33.3842 -1.36856 33.4338 -1.33695 33.4732C-1.30534 33.5125 -1.26106 33.5392 -1.21198 33.5485L1.44146 34.2004C1.77251 34.2677 2.07757 34.4307 2.3202 34.67C2.56283 34.9093 2.73278 35.2147 2.80974 35.5499L3.44912 38.2553C3.46063 38.3053 3.48836 38.3499 3.52781 38.3819C3.56726 38.4138 3.61613 38.4312 3.66651 38.4313C3.71641 38.4322 3.765 38.415 3.80363 38.3827C3.84226 38.3505 3.86843 38.3054 3.8775 38.2553L4.46574 35.5499Z" fill="#FFEC60" stroke="#191816" stroke-width="0.5" stroke-linecap="round" stroke-linejoin="round"/>
<path d="M6.85038 28.3146C6.92537 27.9861 7.0891 27.6855 7.32302 27.447C7.55694 27.2085 7.8517 27.0416 8.1739 26.9651L10.8273 26.3132C10.8764 26.3039 10.9207 26.2773 10.9523 26.2379C10.9839 26.1985 11.0008 26.1489 11 26.0981C10.9999 26.0467 10.9828 25.9969 10.9514 25.9566C10.9201 25.9164 10.8764 25.8881 10.8273 25.8764L8.1739 25.2245C7.85105 25.1494 7.55554 24.983 7.32139 24.7442C7.08725 24.5055 6.92398 24.2042 6.85038 23.875L6.211 21.1696C6.20061 21.1207 6.17387 21.0771 6.13537 21.0461C6.09687 21.0152 6.049 20.9989 6 21.0001C5.95048 20.9998 5.90227 21.0163 5.86293 21.047C5.82359 21.0776 5.79534 21.1208 5.78261 21.1696L5.14323 23.875C5.07082 24.2037 4.90874 24.5048 4.67569 24.7436C4.44263 24.9824 4.1481 25.1491 3.8261 25.2245L1.17266 25.8764C1.12362 25.8881 1.07989 25.9164 1.04857 25.9566C1.01724 25.9969 1.00013 26.0467 1.00003 26.0981C0.999199 26.1489 1.01609 26.1985 1.04769 26.2379C1.0793 26.2773 1.12358 26.3039 1.17266 26.3132L3.8261 26.9651C4.15715 27.0324 4.46221 27.1954 4.70484 27.4347C4.94748 27.674 5.11742 27.9795 5.19438 28.3146L5.83376 31.02C5.84528 31.07 5.873 31.1146 5.91245 31.1466C5.9519 31.1785 6.00077 31.1959 6.05115 31.196C6.10106 31.1969 6.14964 31.1797 6.18827 31.1474C6.2269 31.1152 6.25308 31.0701 6.26215 31.02L6.85038 28.3146Z" fill="#FFEC60" stroke="#191816" stroke-width="0.5" stroke-linecap="round" stroke-linejoin="round"/>
</g>
<defs>
<filter id="filter0_d_1615_112364" x="0" y="0" width="48" height="48" filterUnits="userSpaceOnUse" color-interpolation-filters="sRGB">
<feFlood flood-opacity="0" result="BackgroundImageFix"/>
<feColorMatrix in="SourceAlpha" type="matrix" values="0 0 0 0 0 0 0 0 0 0 0 0 0 0 0 0 0 0 127 0" result="hardAlpha"/>
<feOffset dy="4"/>
<feGaussianBlur stdDeviation="2"/>
<feComposite in2="hardAlpha" operator="out"/>
<feColorMatrix type="matrix" values="0 0 0 0 0 0 0 0 0 0 0 0 0 0 0 0 0 0 0.15 0"/>
<feBlend mode="normal" in2="BackgroundImageFix" result="effect1_dropShadow_1615_112364"/>
<feBlend mode="normal" in="SourceGraphic" in2="effect1_dropShadow_1615_112364" result="shape"/>
</filter>
</defs>
</svg>
