<svg width="273" height="316" viewBox="0 0 273 316" fill="none" xmlns="http://www.w3.org/2000/svg">
<path d="M144.59 241.242C146.988 240.829 149.559 240.513 152.291 240.322C149.219 242.518 146.043 244.565 142.774 246.457C137.064 249.712 133.058 251.075 130.839 251.139C130.653 251.146 130.468 251.141 130.284 251.122C130.217 250.875 130.172 250.622 130.151 250.367C129.945 248.527 130.532 247.049 132.612 245.523C134.972 243.765 138.96 242.235 144.59 241.242ZM187.756 231.069C185.953 230.792 184.164 230.521 182.345 230.286C186.643 226.367 190.832 222.33 194.907 218.18C195.581 223.127 196.46 228.045 197.541 232.92C194.325 232.224 191.049 231.602 187.756 231.069ZM218.258 257.58C216.738 255.001 215.419 252.309 214.313 249.527C217.488 250.801 220.291 252.126 222.622 253.515C226.773 255.988 228.39 258.038 228.793 259.184C228.932 259.513 228.942 259.883 228.821 260.219C228.399 261.192 227.748 262.047 226.923 262.711C226.382 263.289 225.702 263.718 224.948 263.957C224.592 264.025 224.222 263.971 223.9 263.803C222.652 263.286 220.625 261.515 218.258 257.58ZM212.059 179.193C210.209 182.408 207.777 185.981 204.875 189.778C205.002 187.996 205.194 186.218 205.451 184.45C206.247 179.092 207.554 175.144 209.143 172.664C210.611 170.379 211.997 169.762 213.389 169.725C214.144 169.682 214.901 169.751 215.636 169.928C215.661 170.418 215.544 171.368 215.041 172.877C214.467 174.617 213.481 176.73 212.053 179.207L212.059 179.193Z" fill="#FE7983"/>
<path fill-rule="evenodd" clip-rule="evenodd" d="M188.763 58.7369L263.091 86.669C266.814 88.0693 269.829 90.8913 271.472 94.5144L303.966 166.133C305.61 169.755 305.748 173.883 304.349 177.607L255.309 308.104C252.509 315.553 246.866 321.585 239.62 324.872C232.373 328.16 224.118 328.434 216.669 325.635L104.329 283.418C96.88 280.619 90.8484 274.975 87.5608 267.729C84.2731 260.483 83.9987 252.227 86.7979 244.778L150.124 76.2677C152.923 68.8191 158.567 62.7875 165.813 59.4998C173.059 56.2122 181.315 55.9378 188.763 58.7369ZM258.082 108.825L247.527 136.91C246.128 140.635 246.265 144.762 247.909 148.386C249.553 152.009 252.568 154.83 256.293 156.23L284.378 166.784L258.082 108.825ZM118.952 251.541C119.266 254.544 120.372 257.572 122.892 259.737C125.403 261.882 128.466 262.472 131.195 262.376C136.346 262.229 142.412 259.605 148.346 256.225C155.138 252.351 162.829 246.812 170.652 240.409C180.836 241.137 190.936 242.755 200.837 245.246C203.029 252.208 205.641 258.478 208.603 263.389C211.374 267.956 214.944 272.23 219.518 274.173C222.003 275.25 224.764 275.514 227.408 274.927C230.117 274.327 232.503 272.883 234.574 270.953C236.793 268.887 238.563 266.523 239.483 263.776C240.398 261.07 240.372 258.135 239.408 255.446C237.659 250.462 233.15 246.684 228.381 243.85C222.542 240.56 216.339 237.96 209.898 236.103C207.422 226.651 205.794 216.997 205.034 207.256C212.027 199.307 217.946 191.531 221.803 184.808C223.459 181.936 224.824 179.116 225.717 176.439C226.685 173.812 227.046 171 226.773 168.214C226.595 166.665 226.074 165.176 225.248 163.854C224.423 162.533 223.314 161.411 222.001 160.571C219.391 158.901 216.244 158.407 213.155 158.481C207.069 158.598 202.586 162.041 199.67 166.602C196.851 170.991 195.225 176.726 194.321 182.797C193.415 188.963 193.188 195.961 193.526 203.252C185.182 212.357 176.276 220.93 166.86 228.92C158.768 228.477 150.651 228.892 142.645 230.157C136.289 231.294 130.297 233.208 125.896 236.475C121.227 239.944 118.267 245.05 118.952 251.541Z" fill="#FE7983"/>
</svg>
