<svg width="737" height="833" viewBox="0 0 737 833" fill="none" xmlns="http://www.w3.org/2000/svg">
<g opacity="0.1">
<path d="M84.7549 539.219H659.615" stroke="#4F4A45" stroke-linecap="round" stroke-linejoin="round"/>
<path d="M51.5898 539.219H70.0148" stroke="#4F4A45" stroke-linecap="round" stroke-linejoin="round"/>
<path d="M674.355 539.219H692.78" stroke="#4F4A45" stroke-linecap="round" stroke-linejoin="round"/>
<path d="M567.49 483.438C567.49 452.864 555.455 423.542 534.031 401.922C512.608 380.303 483.552 368.157 453.255 368.157C422.958 368.157 393.902 380.303 372.479 401.922C351.055 423.542 339.02 452.864 339.02 483.438V539.22H567.49V483.438Z" fill="#F0F0F0"/>
<path d="M453.255 368.157C422.958 368.157 393.902 380.303 372.479 401.922C351.055 423.542 339.02 452.864 339.02 483.438V524.345C339.02 493.77 351.055 464.448 372.479 442.829C393.902 421.209 422.958 409.063 453.255 409.063C483.552 409.063 512.608 421.209 534.031 442.829C555.455 464.448 567.49 493.77 567.49 524.345V483.438C567.49 452.864 555.455 423.542 534.031 401.922C512.608 380.303 483.552 368.157 453.255 368.157Z" fill="white"/>
<path d="M567.49 483.438C567.49 452.864 555.455 423.542 534.031 401.922C512.608 380.303 483.552 368.157 453.255 368.157C422.958 368.157 393.902 380.303 372.479 401.922C351.055 423.542 339.02 452.864 339.02 483.438V539.22H567.49V483.438Z" stroke="#191816" stroke-linecap="round" stroke-linejoin="round"/>
<path d="M504.845 389.205C504.855 385.462 504.131 381.753 502.716 378.293C501.301 374.832 499.222 371.688 496.599 369.041C493.976 366.394 490.861 364.296 487.432 362.868C484.002 361.44 480.328 360.71 476.618 360.72H429.892C426.183 360.71 422.508 361.44 419.079 362.868C415.65 364.296 412.534 366.394 409.911 369.041C407.288 371.688 405.209 374.832 403.794 378.293C402.379 381.753 401.655 385.462 401.665 389.205C401.677 392.503 402.251 395.773 403.36 398.874L413.383 426.616C413.751 427.642 414.338 428.573 415.102 429.344C415.866 430.115 416.789 430.707 417.805 431.079C418.828 431.452 419.921 431.593 421.004 431.49C422.087 431.387 423.134 431.043 424.07 430.484L453.55 412.782L483.03 430.484C483.966 431.043 485.013 431.387 486.096 431.49C487.179 431.593 488.271 431.452 489.294 431.079C490.311 430.707 491.234 430.115 491.998 429.344C492.762 428.573 493.349 427.642 493.716 426.616L503.74 398.874C504.649 395.738 505.023 392.468 504.845 389.205Z" fill="white" stroke="#191816" stroke-linecap="round" stroke-linejoin="round"/>
<path d="M453.255 412.782V539.22" stroke="#191816" stroke-linecap="round" stroke-linejoin="round"/>
<path d="M479.05 380.578C479.052 382.541 478.668 384.484 477.922 386.297C477.176 388.11 476.081 389.755 474.702 391.139L453.255 412.782L431.808 391.139C430.429 389.755 429.334 388.11 428.588 386.297C427.842 384.484 427.458 382.541 427.46 380.578V345.845H479.05V380.578Z" fill="#FFDA8F"/>
<path d="M427.46 379.314C444.291 384.373 462.219 384.373 479.05 379.314V353.282H427.46V379.314Z" fill="#FFBE3D"/>
<path d="M479.05 380.578C479.052 382.541 478.668 384.484 477.922 386.297C477.176 388.11 476.081 389.755 474.702 391.139L453.255 412.782L431.808 391.139C430.429 389.755 429.334 388.11 428.588 386.297C427.842 384.484 427.458 382.541 427.46 380.578V345.845H479.05V380.578Z" stroke="#191816" stroke-linecap="round" stroke-linejoin="round"/>
<path d="M526.955 267.751V249.157C526.955 229.432 519.19 210.514 505.369 196.566C491.547 182.618 472.801 174.782 453.255 174.782C433.708 174.782 414.963 182.618 401.141 196.566C387.32 210.514 379.555 229.432 379.555 249.157V267.751C375.646 267.751 371.896 269.318 369.132 272.108C366.368 274.897 364.815 278.681 364.815 282.626C364.815 286.571 366.368 290.355 369.132 293.144C371.896 295.934 375.646 297.501 379.555 297.501H380.439C383.154 315.023 391.983 330.989 405.334 342.52C418.686 354.051 435.681 360.388 453.255 360.388C470.829 360.388 487.824 354.051 501.175 342.52C514.527 330.989 523.356 315.023 526.07 297.501H526.955C530.864 297.501 534.613 295.934 537.378 293.144C540.142 290.355 541.695 286.571 541.695 282.626C541.695 278.681 540.142 274.897 537.378 272.108C534.613 269.318 530.864 267.751 526.955 267.751Z" fill="#FFDA8F" stroke="#191816" stroke-linecap="round" stroke-linejoin="round"/>
<path d="M493.79 275.187C492.868 272.999 491.328 271.132 489.362 269.82C487.397 268.508 485.092 267.809 482.735 267.809C480.378 267.809 478.074 268.508 476.108 269.82C474.142 271.132 472.602 272.999 471.68 275.187" stroke="#191816" stroke-linecap="round" stroke-linejoin="round"/>
<path d="M434.83 275.187C433.908 272.999 432.368 271.132 430.402 269.82C428.437 268.508 426.132 267.809 423.775 267.809C421.418 267.809 419.114 268.508 417.148 269.82C415.182 271.132 413.643 272.999 412.72 275.187" stroke="#191816" stroke-linecap="round" stroke-linejoin="round"/>
<path d="M410.878 308.657C415.966 308.657 420.09 304.495 420.09 299.36C420.09 294.226 415.966 290.063 410.878 290.063C405.79 290.063 401.665 294.226 401.665 299.36C401.665 304.495 405.79 308.657 410.878 308.657Z" fill="#FFBE3D"/>
<path d="M495.632 308.657C500.72 308.657 504.845 304.495 504.845 299.36C504.845 294.226 500.72 290.063 495.632 290.063C490.544 290.063 486.42 294.226 486.42 299.36C486.42 304.495 490.544 308.657 495.632 308.657Z" fill="#FFBE3D"/>
<path d="M431.072 318.325C437.058 324.004 444.965 327.166 453.182 327.166C461.398 327.166 469.305 324.004 475.291 318.325" stroke="#191816" stroke-linecap="round" stroke-linejoin="round"/>
<path d="M471.68 494.595C473.715 494.595 475.365 492.93 475.365 490.876C475.365 488.822 473.715 487.157 471.68 487.157C469.645 487.157 467.995 488.822 467.995 490.876C467.995 492.93 469.645 494.595 471.68 494.595Z" stroke="#191816" stroke-linecap="round" stroke-linejoin="round"/>
<path d="M471.68 464.845C473.715 464.845 475.365 463.18 475.365 461.126C475.365 459.072 473.715 457.407 471.68 457.407C469.645 457.407 467.995 459.072 467.995 461.126C467.995 463.18 469.645 464.845 471.68 464.845Z" stroke="#191816" stroke-linecap="round" stroke-linejoin="round"/>
<path d="M471.68 524.345C473.715 524.345 475.365 522.68 475.365 520.626C475.365 518.572 473.715 516.907 471.68 516.907C469.645 516.907 467.995 518.572 467.995 520.626C467.995 522.68 469.645 524.345 471.68 524.345Z" stroke="#191816" stroke-linecap="round" stroke-linejoin="round"/>
<path d="M383.24 472.282V539.22" stroke="#191816" stroke-linecap="round" stroke-linejoin="round"/>
<path d="M523.27 472.282V539.22" stroke="#191816" stroke-linecap="round" stroke-linejoin="round"/>
<path d="M390.61 249.157C390.61 249.157 451.265 252.578 491.948 210.63C492.625 209.918 493.461 209.379 494.386 209.06C495.312 208.741 496.3 208.651 497.267 208.796C498.234 208.942 499.153 209.32 499.946 209.898C500.739 210.476 501.383 211.237 501.824 212.118C511.36 231.734 516.182 253.341 515.9 275.188C517.36 275.218 518.811 274.95 520.166 274.401C521.521 273.851 522.752 273.03 523.785 271.988C524.817 270.946 525.63 269.704 526.175 268.337C526.72 266.969 526.985 265.505 526.955 264.032C532.078 262.971 536.691 260.185 540.039 256.131C543.387 252.077 545.27 246.995 545.38 241.719C545.38 223.125 545.38 178.5 504.845 178.5C504.845 178.5 460.625 133.875 397.98 174.782C385.72 183.52 375.892 195.291 369.439 208.967C362.986 222.643 360.125 237.763 361.13 252.875C361.1 254.349 361.366 255.813 361.911 257.18C362.455 258.548 363.269 259.79 364.301 260.832C365.334 261.874 366.565 262.694 367.919 263.244C369.274 263.794 370.725 264.062 372.185 264.032C373.257 267.165 375.233 269.902 377.861 271.89C380.488 273.879 383.645 275.027 386.925 275.188C386.925 275.188 386.925 249.157 390.61 249.157Z" fill="#614B44"/>
<path d="M361.72 256.445C363.489 244.577 367.612 233.19 373.843 222.967C380.073 212.743 388.283 203.893 397.98 196.945C460.625 156.039 504.845 200.664 504.845 200.664C535.652 200.664 543.022 226.398 544.791 246.925C545.174 245.217 545.372 243.471 545.38 241.719C545.38 223.125 545.38 178.5 504.845 178.5C504.845 178.5 460.625 133.875 397.98 174.782C385.72 183.52 375.892 195.291 369.439 208.967C362.986 222.643 360.125 237.763 361.13 252.875C361.172 254.086 361.37 255.286 361.72 256.445Z" fill="#947063"/>
<path d="M390.61 249.157C390.61 249.157 451.265 252.578 491.948 210.63C492.625 209.918 493.461 209.379 494.386 209.06C495.312 208.741 496.3 208.651 497.267 208.796C498.234 208.942 499.153 209.32 499.946 209.898C500.739 210.476 501.383 211.237 501.824 212.118C511.36 231.734 516.182 253.341 515.9 275.188C517.36 275.218 518.811 274.95 520.166 274.401C521.521 273.851 522.752 273.03 523.785 271.988C524.817 270.946 525.63 269.704 526.175 268.337C526.72 266.969 526.985 265.505 526.955 264.032C532.078 262.971 536.691 260.185 540.039 256.131C543.387 252.077 545.27 246.995 545.38 241.719C545.38 223.125 545.38 178.5 504.845 178.5C504.845 178.5 460.625 133.875 397.98 174.782C385.72 183.52 375.892 195.291 369.439 208.967C362.986 222.643 360.125 237.763 361.13 252.875C361.1 254.349 361.366 255.813 361.911 257.18C362.455 258.548 363.269 259.79 364.301 260.832C365.334 261.874 366.565 262.694 367.919 263.244C369.274 263.794 370.725 264.062 372.185 264.032C373.257 267.165 375.233 269.902 377.861 271.89C380.488 273.879 383.645 275.027 386.925 275.188C386.925 275.188 386.925 249.157 390.61 249.157Z" stroke="#191816" stroke-linecap="round" stroke-linejoin="round"/>
<path d="M239.599 481.206L204.223 454.059C201.691 452.272 198.874 450.939 195.895 450.117L157.202 439.258C152.117 435.317 152.485 442.159 148.579 447.291C144.673 452.423 134.502 473.248 139.514 477.041L183.734 511.105L185.355 521.294C185.968 524.2 187.655 526.762 190.073 528.457C192.492 530.152 195.459 530.853 198.372 530.417C201.284 529.98 203.923 528.44 205.749 526.11C207.576 523.779 208.453 520.833 208.202 517.873C210.295 518.612 212.552 518.733 214.71 518.222C216.869 517.711 218.837 516.589 220.385 514.988C221.933 513.387 222.996 511.373 223.449 509.183C223.902 506.993 223.726 504.718 222.942 502.626L220.363 495.709L225.227 499.428C226.41 500.479 227.794 501.275 229.293 501.767C230.793 502.26 232.376 502.437 233.946 502.29C235.515 502.142 237.039 501.673 238.422 500.91C239.806 500.147 241.02 499.107 241.991 497.853C242.961 496.599 243.668 495.159 244.067 493.619C244.466 492.08 244.549 490.475 244.312 488.902C244.074 487.329 243.52 485.822 242.684 484.473C241.848 483.124 240.748 481.962 239.451 481.057L239.599 481.206Z" fill="#FFB59E" stroke="#191816" stroke-linecap="round" stroke-linejoin="round"/>
<path d="M196.263 497.2L201.496 511.108C201.987 512.606 202.775 513.988 203.81 515.171C204.846 516.353 206.108 517.312 207.521 517.988C208.934 518.664 210.468 519.045 212.03 519.106C213.593 519.168 215.151 518.909 216.612 518.345C218.073 517.782 219.405 516.926 220.528 515.828C221.652 514.73 222.543 513.414 223.149 511.959C223.754 510.505 224.061 508.941 224.051 507.363C224.041 505.785 223.714 504.225 223.09 502.778" stroke="#191816" stroke-miterlimit="10"/>
<path d="M199.58 479.869L225.375 499.578" stroke="#191816" stroke-miterlimit="10"/>
<path d="M174.595 465.813L164.499 462.764" stroke="#191816" stroke-linecap="round" stroke-linejoin="round"/>
<path d="M166.709 599.241L105.686 593.514C95.81 517.8 90.4299 436.508 187.493 386.156L193.02 383.256C195.762 381.867 198.935 381.618 201.856 382.564C204.777 383.51 207.215 385.574 208.645 388.313C209.347 389.67 209.776 391.153 209.908 392.678C210.04 394.202 209.871 395.738 209.412 397.197C208.953 398.655 208.213 400.008 207.234 401.177C206.254 402.345 205.056 403.307 203.707 404.006L198.179 406.907C173.711 419.699 156.76 434.351 151.527 461.572C143.273 502.479 165.604 488.199 171.131 473.844L184.25 443.499C184.836 442.083 185.692 440.797 186.77 439.715C187.848 438.633 189.127 437.775 190.533 437.192C191.939 436.608 193.446 436.31 194.966 436.314C196.487 436.318 197.992 436.624 199.395 437.215C200.799 437.806 202.073 438.67 203.146 439.758C204.218 440.845 205.068 442.136 205.646 443.555C206.224 444.974 206.52 446.495 206.516 448.029C206.512 449.564 206.209 451.083 205.623 452.499C191.62 513.189 195.231 524.494 180.565 544.575C169.51 559.599 169.51 571.201 166.709 599.241Z" fill="#FFCEBF"/>
<path d="M203.854 391.437L208.866 388.834V388.313C207.436 385.574 204.998 383.51 202.077 382.564C199.156 381.618 195.983 381.867 193.241 383.256L187.714 386.156C90.4297 436.508 95.8098 517.8 105.686 593.365L121.531 594.853C111.876 520.626 108.339 440.971 203.854 391.437Z" fill="#FFDCD1"/>
<path d="M166.709 599.241L105.686 593.514C95.81 517.8 90.4299 436.508 187.493 386.156L193.02 383.256C195.762 381.867 198.935 381.618 201.856 382.564C204.777 383.51 207.215 385.574 208.645 388.313C209.347 389.67 209.776 391.153 209.908 392.678C210.04 394.202 209.871 395.738 209.412 397.197C208.953 398.655 208.213 400.008 207.234 401.177C206.254 402.345 205.056 403.307 203.707 404.006L198.179 406.907C173.711 419.699 156.76 434.351 151.527 461.572C143.273 502.479 165.604 488.199 171.131 473.844L184.25 443.499C184.836 442.083 185.692 440.797 186.77 439.715C187.848 438.633 189.127 437.775 190.533 437.192C191.939 436.608 193.446 436.31 194.966 436.314C196.487 436.318 197.992 436.624 199.395 437.215C200.799 437.806 202.073 438.67 203.146 439.758C204.218 440.845 205.068 442.136 205.646 443.555C206.224 444.974 206.52 446.495 206.516 448.029C206.512 449.564 206.209 451.083 205.623 452.499C191.62 513.189 195.231 524.494 180.565 544.575C169.51 559.599 169.51 571.201 166.709 599.241Z" stroke="#191816" stroke-linecap="round" stroke-linejoin="round"/>
<path d="M326.827 330.253L180.306 346.473C172.214 347.369 166.374 354.715 167.261 362.881L188.959 562.496C189.847 570.662 197.126 576.556 205.219 575.661L351.74 559.441C359.832 558.545 365.672 551.199 364.785 543.032L343.087 343.417C342.199 335.251 334.919 329.357 326.827 330.253Z" fill="#FF8A14" stroke="#191816" stroke-linecap="round" stroke-linejoin="round"/>
<path d="M193.304 363.741L317.847 349.954C319.79 349.739 321.738 350.312 323.263 351.546C324.787 352.78 325.764 354.575 325.977 356.536L343.656 519.185C344.296 525.068 342.594 530.966 338.924 535.581C335.254 540.197 329.918 543.153 324.089 543.798L206.872 556.774L186.782 371.945C186.569 369.984 187.136 368.018 188.359 366.48C189.582 364.941 191.361 363.956 193.304 363.741Z" fill="white" stroke="#191816" stroke-linecap="round" stroke-linejoin="round"/>
<path d="M267.384 329.334C267.171 327.381 266.579 325.489 265.641 323.767C264.704 322.044 263.439 320.525 261.92 319.295C258.852 316.813 254.932 315.662 251.022 316.096C247.113 316.53 243.535 318.513 241.074 321.609C238.614 324.706 237.474 328.662 237.904 332.607L223.164 334.243C219.286 334.674 215.736 336.637 213.291 339.704C210.846 342.771 209.705 346.691 210.119 350.606L210.929 358.043C211.039 359.016 211.338 359.957 211.809 360.812C212.28 361.668 212.913 362.421 213.673 363.029C214.433 363.637 215.305 364.088 216.238 364.356C217.171 364.623 218.147 364.702 219.11 364.588L292.368 356.481C294.3 356.257 296.066 355.271 297.281 353.739C298.495 352.206 299.061 350.251 298.854 348.3L298.043 340.863C297.616 336.95 295.67 333.367 292.631 330.9C289.592 328.432 285.708 327.281 281.829 327.698L267.384 329.334Z" fill="#DAEDF7"/>
<path d="M251.096 316.169C249.169 316.382 247.303 316.976 245.604 317.918C243.905 318.86 242.407 320.13 241.195 321.657C239.984 323.184 239.082 324.937 238.543 326.815C238.003 328.694 237.836 330.662 238.051 332.606L223.311 334.242C220.08 334.618 217.064 336.063 214.731 338.349C212.398 340.636 210.88 343.638 210.414 346.886L297.306 337.217C296.152 334.144 294.022 331.544 291.248 329.822C288.475 328.099 285.215 327.352 281.977 327.697L267.237 329.333C266.809 325.435 264.874 321.864 261.851 319.399C258.828 316.933 254.963 315.773 251.096 316.169Z" fill="#E8F4FA"/>
<path d="M267.384 329.334C267.171 327.381 266.579 325.489 265.641 323.767C264.704 322.044 263.439 320.525 261.92 319.295C258.852 316.813 254.932 315.662 251.022 316.096C247.113 316.53 243.535 318.513 241.074 321.609C238.614 324.706 237.474 328.662 237.904 332.607L223.164 334.243C219.286 334.674 215.736 336.637 213.291 339.704C210.846 342.771 209.705 346.691 210.119 350.606L210.929 358.043C211.039 359.016 211.338 359.957 211.809 360.812C212.28 361.668 212.913 362.421 213.673 363.029C214.433 363.637 215.305 364.088 216.238 364.356C217.171 364.623 218.147 364.702 219.11 364.588L292.368 356.481C294.3 356.257 296.066 355.271 297.281 353.739C298.495 352.206 299.061 350.251 298.854 348.3L298.043 340.863C297.616 336.95 295.67 333.367 292.631 330.9C289.592 328.432 285.708 327.281 281.829 327.698L267.384 329.334Z" stroke="#191816" stroke-linecap="round" stroke-linejoin="round"/>
<path d="M279.551 372.924L235.595 377.79C231.549 378.237 228.629 381.911 229.073 385.994L234.296 434.049C234.74 438.132 238.38 441.079 242.426 440.631L286.382 435.765C290.428 435.318 293.349 431.644 292.905 427.561L287.681 379.506C287.237 375.423 283.598 372.476 279.551 372.924Z" fill="#D9FDFF" stroke="#191816" stroke-linecap="round" stroke-linejoin="round"/>
<path d="M250.58 400.959C251.087 403.308 252.437 405.385 254.37 406.791C256.303 408.196 258.683 408.831 261.052 408.572C263.42 408.314 265.611 407.181 267.201 405.391C268.792 403.601 269.671 401.28 269.669 398.876L269.226 394.191C268.822 391.75 267.506 389.559 265.549 388.068C263.592 386.577 261.143 385.9 258.706 386.177C256.27 386.453 254.031 387.662 252.451 389.554C250.87 391.446 250.069 393.877 250.212 396.347L250.58 400.959Z" fill="#80DDFF"/>
<path d="M241.736 436.955V435.765C241.091 429.847 242.802 423.913 246.493 419.269C250.183 414.624 255.55 411.649 261.414 410.998C267.278 410.347 273.158 412.074 277.761 415.798C282.363 419.522 285.311 424.938 285.956 430.856V432.046L241.736 436.955Z" fill="#80DDFF"/>
<path d="M206.802 556.774C203.913 557.094 200.989 556.836 198.199 556.015C195.408 555.193 192.806 553.825 190.54 551.987C188.274 550.149 186.389 547.879 184.994 545.306C183.599 542.732 182.72 539.907 182.408 536.99L292.958 524.793C294.637 524.604 296.33 525.004 297.752 525.925C299.174 526.845 300.24 528.231 300.77 529.85C302.574 534.499 305.87 538.404 310.132 540.939C314.395 543.473 319.376 544.493 324.28 543.833L206.802 556.774Z" fill="white" stroke="#191816" stroke-linecap="round" stroke-linejoin="round"/>
<path d="M246.152 462.685L222.783 465.28C218.737 465.73 215.818 469.404 216.263 473.487L218.835 497.07C219.28 501.153 222.921 504.098 226.967 503.649L250.336 501.054C254.382 500.605 257.301 496.93 256.856 492.847L254.284 469.264C253.839 465.181 250.198 462.236 246.152 462.685Z" stroke="#191816" stroke-linecap="round" stroke-linejoin="round"/>
<path d="M305.349 456.56L281.98 459.155C277.934 459.605 275.015 463.279 275.46 467.362L278.032 490.945C278.477 495.028 282.118 497.973 286.164 497.524L309.533 494.929C313.579 494.48 316.498 490.805 316.052 486.722L313.481 463.139C313.036 459.056 309.395 456.111 305.349 456.56Z" stroke="#191816" stroke-linecap="round" stroke-linejoin="round"/>
<path d="M228.47 481.951L238.715 490.207L262.225 449.97" stroke="#FF6242" stroke-linecap="round" stroke-linejoin="round"/>
<path d="M153.444 487.828C158.676 490.877 168.184 482.398 171.132 473.845L184.25 443.5C184.836 442.084 185.692 440.798 186.77 439.716C187.848 438.633 189.127 437.776 190.533 437.192C191.939 436.609 193.446 436.311 194.967 436.314C196.487 436.318 197.992 436.625 199.396 437.216C200.799 437.806 202.073 438.671 203.146 439.758C204.218 440.846 205.068 442.137 205.646 443.556C206.224 444.975 206.52 446.496 206.516 448.03C206.512 449.565 206.209 451.083 205.623 452.5C191.62 513.19 195.231 524.495 180.565 544.576C169.584 559.451 169.289 571.202 166.71 599.241L136.861 596.415" fill="#FFCEBF"/>
<path d="M153.444 487.828C158.676 490.877 168.184 482.398 171.132 473.845L184.25 443.5C184.836 442.084 185.692 440.798 186.77 439.716C187.848 438.633 189.127 437.776 190.533 437.192C191.939 436.609 193.446 436.311 194.967 436.314C196.487 436.318 197.992 436.625 199.396 437.216C200.799 437.806 202.073 438.671 203.146 439.758C204.218 440.846 205.068 442.137 205.646 443.556C206.224 444.975 206.52 446.496 206.516 448.03C206.512 449.565 206.209 451.083 205.623 452.5C191.62 513.19 195.231 524.495 180.565 544.576C169.584 559.451 169.289 571.202 166.71 599.241L136.861 596.415" stroke="#191816" stroke-linecap="round" stroke-linejoin="round"/>
<path d="M89.9201 599.402L87.524 625.32C87.1459 629.41 90.1248 633.035 94.1775 633.416L168.806 640.443C172.859 640.824 176.451 637.818 176.829 633.728L179.225 607.81C179.603 603.72 176.624 600.095 172.572 599.713L97.9429 592.687C93.8901 592.306 90.2982 595.312 89.9201 599.402Z" fill="#009FD9"/>
<path d="M92.5672 633.305C91.0339 633.154 89.6223 632.396 88.6415 631.197C87.6607 629.999 87.1908 628.456 87.3345 626.909L90.0614 597.828C90.2106 596.3 90.9537 594.895 92.1279 593.919C93.302 592.943 94.8116 592.477 96.3259 592.622L104.949 593.365L101.19 634.123L92.5672 633.305Z" fill="#00B8F0"/>
<path d="M89.9201 599.402L87.524 625.32C87.1459 629.41 90.1248 633.035 94.1775 633.416L168.806 640.443C172.859 640.824 176.451 637.818 176.829 633.728L179.225 607.81C179.603 603.72 176.624 600.095 172.572 599.713L97.9429 592.687C93.8901 592.306 90.2982 595.312 89.9201 599.402Z" stroke="#191816" stroke-linejoin="round"/>
<path d="M174.968 589.905L174.037 599.977L96.2529 592.653L97.1839 582.582C97.3655 580.618 98.3128 578.807 99.8173 577.548C101.322 576.289 103.261 575.684 105.207 575.868L168.315 581.809C170.261 581.992 172.055 582.948 173.303 584.467C174.551 585.985 175.15 587.941 174.968 589.905Z" fill="white" stroke="#191816" stroke-linecap="round" stroke-linejoin="round"/>
<path d="M479.05 543.387C482.028 543.465 484.854 544.729 486.912 546.903C488.969 549.077 490.091 551.984 490.031 554.989L489.147 591.656C488.66 594.296 487.258 596.674 485.192 598.366C483.127 600.057 480.532 600.952 477.872 600.889C475.213 600.827 472.662 599.811 470.677 598.024C468.692 596.237 467.401 593.795 467.037 591.136L467.921 554.394C467.998 551.461 469.202 548.672 471.278 546.618C473.355 544.564 476.142 543.405 479.05 543.387Z" fill="#FFB59E" stroke="#191816" stroke-miterlimit="10"/>
<path d="M467.111 540.188C469.694 541.529 471.664 543.824 472.611 546.595C473.559 549.366 473.41 552.4 472.196 555.063L459.593 581.689C458.984 583.09 458.1 584.351 456.994 585.397C455.888 586.443 454.583 587.252 453.158 587.774C451.734 588.296 450.219 588.521 448.705 588.435C447.192 588.349 445.712 587.954 444.354 587.274C442.996 586.594 441.789 585.643 440.806 584.479C439.824 583.314 439.085 581.961 438.636 580.5C438.186 579.039 438.035 577.501 438.192 575.98C438.348 574.458 438.809 572.985 439.547 571.648L452.149 545.022C453.517 542.397 455.851 540.419 458.65 539.515C461.448 538.611 464.487 538.852 467.111 540.188Z" fill="#FFB59E" stroke="#191816" stroke-miterlimit="10"/>
<path d="M507.351 588.308C520.973 592.124 533.568 598.988 544.201 608.39L555.772 618.058L603.456 566.963L592.253 557.814C574.934 545.766 571.249 515.867 540.221 500.694C501.16 481.803 453.55 488.051 413.236 542.121C411.438 544.508 410.653 547.518 411.053 550.489C411.454 553.46 413.008 556.148 415.373 557.963C417.738 559.778 420.721 560.57 423.665 560.166C426.609 559.761 429.273 558.193 431.071 555.806C433.725 552.236 436.451 548.964 439.105 545.84C444.322 539.921 450.017 534.448 456.129 529.478C468.644 518.681 484.891 513.332 501.307 514.603C503.618 514.509 505.913 515.033 507.958 516.123C510.003 517.212 511.727 518.828 512.954 520.806C514.181 522.785 514.868 525.055 514.945 527.388C515.022 529.72 514.487 532.032 513.394 534.089C509.838 538.719 504.788 541.946 499.12 543.21C493.452 544.473 487.524 543.694 482.366 541.006L456.129 529.849C450.017 534.82 444.322 540.293 439.105 546.212C440.123 547.244 441.322 548.077 442.642 548.666C487.452 580.127 496.443 584.366 507.351 588.308Z" fill="#FFCEBF"/>
<path d="M418.984 553.873C456.94 499.951 501.16 493.703 538.01 513.189C564.984 527.246 569.996 553.947 583.483 567.409L593.653 577.97L603.677 567.186L592.253 557.814C574.934 545.766 571.249 515.867 540.221 500.694C501.16 481.803 453.55 488.051 413.236 542.121C411.502 544.505 410.755 547.476 411.154 550.405C411.553 553.334 413.066 555.991 415.373 557.814L416.994 558.856C417.313 557.075 417.991 555.379 418.984 553.873Z" fill="#FFDCD1"/>
<path d="M513.394 533.718C509.838 538.349 504.788 541.576 499.12 542.839C493.452 544.103 487.524 543.323 482.366 540.635L456.129 529.479C468.644 518.682 484.891 513.333 501.307 514.604C503.567 514.546 505.803 515.078 507.799 516.149C509.795 517.22 511.483 518.794 512.699 520.717C513.915 522.64 514.618 524.847 514.74 527.125C514.862 529.403 514.398 531.674 513.394 533.718Z" fill="#FFB59E" stroke="#191816" stroke-linejoin="round"/>
<path d="M507.351 588.308C520.973 592.124 533.568 598.988 544.201 608.39L555.772 618.058L603.456 566.963L592.253 557.814C574.934 545.766 571.249 515.867 540.221 500.695C501.16 481.803 453.55 488.051 413.236 542.121C411.438 544.508 410.653 547.518 411.053 550.489C411.454 553.46 413.008 556.148 415.373 557.963C417.738 559.778 420.721 560.57 423.665 560.166C426.609 559.761 429.273 558.193 431.071 555.806C433.725 552.236 436.451 548.964 439.105 545.84C444.322 539.921 450.017 534.448 456.129 529.478C468.644 518.681 484.891 513.332 501.307 514.603C503.618 514.509 505.913 515.033 507.958 516.123C510.003 517.212 511.727 518.828 512.954 520.806C514.181 522.785 514.868 525.055 514.945 527.388C515.022 529.72 514.487 532.032 513.394 534.089C509.838 538.719 504.788 541.946 499.12 543.21C493.452 544.473 487.524 543.694 482.366 541.006L456.129 529.849C450.017 534.82 444.322 540.293 439.105 546.212V546.212C440.123 547.244 441.322 548.077 442.642 548.666C487.452 580.127 496.443 584.366 507.351 588.308Z" stroke="#191816" stroke-linecap="round" stroke-linejoin="round"/>
<path d="M554.711 630.273L572.524 647.201C575.488 650.017 580.152 649.876 582.942 646.885L632.306 593.985C635.097 590.994 634.957 586.287 631.994 583.471L614.18 566.543C611.217 563.727 606.553 563.868 603.762 566.859L554.398 619.759C551.608 622.75 551.748 627.457 554.711 630.273Z" fill="#009FD9"/>
<path d="M605.077 565.252C606.126 564.203 607.543 563.614 609.02 563.614C610.497 563.614 611.914 564.203 612.963 565.252L633.304 584.59C634.348 585.661 634.934 587.103 634.934 588.606C634.934 590.108 634.348 591.551 633.304 592.622L627.482 598.795L598.96 571.648L605.077 565.252Z" fill="#00B8F0"/>
<path d="M554.711 630.273L572.524 647.201C575.488 650.017 580.152 649.876 582.942 646.885L632.306 593.985C635.097 590.994 634.957 586.287 631.994 583.471L614.18 566.543C611.217 563.727 606.553 563.868 603.762 566.859L554.398 619.759C551.608 622.75 551.748 627.457 554.711 630.273Z" stroke="#191816" stroke-linejoin="round"/>
<path d="M598.137 559.04L605.005 565.567L553.216 621.066L546.348 614.54C544.925 613.188 544.093 611.32 544.034 609.349C543.975 607.377 544.695 605.462 546.035 604.026L587.719 559.356C589.059 557.92 590.91 557.08 592.864 557.021C594.817 556.962 596.714 557.688 598.137 559.04Z" fill="white" stroke="#191816" stroke-linecap="round" stroke-linejoin="round"/>
<path d="M530.466 522.184L517.295 500.672L416.038 563.807L429.209 585.32L530.466 522.184Z" fill="#EBCB00"/>
<path d="M517.232 500.669L415.975 563.804L422.56 574.56L523.818 511.425L517.232 500.669Z" fill="#FFE500"/>
<path d="M416.037 563.839C415.447 563.839 395.917 591.209 395.917 591.209L429.155 585.333L416.037 563.839Z" fill="#F7E5C6"/>
<path d="M530.466 522.184L517.295 500.672L416.038 563.807L429.209 585.32L530.466 522.184Z" stroke="#191816" stroke-linecap="round" stroke-linejoin="round"/>
<path d="M541.121 515.53L527.947 494.02L517.289 500.667L530.464 522.177L541.121 515.53Z" fill="#DAEDF7"/>
<path d="M527.915 493.94L517.257 500.586L523.881 511.405L534.539 504.76L527.915 493.94Z" fill="#E8F4FA"/>
<path d="M541.121 515.53L527.947 494.02L517.289 500.667L530.464 522.177L541.121 515.53Z" stroke="#191816" stroke-linecap="round" stroke-linejoin="round"/>
<path d="M549.065 510.585C551.899 508.819 553.922 505.99 554.69 502.719C555.457 499.448 554.905 496.004 553.155 493.144C551.406 490.284 548.602 488.242 545.361 487.468C542.12 486.694 538.707 487.251 535.873 489.016L527.913 493.999L541.105 515.568L549.065 510.585Z" fill="#FFA694"/>
<path d="M553.119 493.181C552.258 491.764 551.129 490.531 549.796 489.555C548.464 488.578 546.953 487.877 545.351 487.49C543.75 487.103 542.088 487.039 540.461 487.3C538.835 487.562 537.276 488.145 535.873 489.016L527.913 493.999L534.546 504.858L553.192 493.181H553.119Z" fill="#FFCABF"/>
<path d="M549.065 510.585C551.899 508.819 553.922 505.99 554.69 502.719C555.457 499.448 554.905 496.004 553.155 493.144C551.406 490.284 548.602 488.242 545.361 487.468C542.12 486.694 538.707 487.251 535.873 489.016L527.913 493.999L541.105 515.568L549.065 510.585Z" stroke="#191816" stroke-linecap="round" stroke-linejoin="round"/>
<path d="M395.916 591.209L390.61 594.482" stroke="#191816" stroke-linecap="round" stroke-linejoin="round"/>
<path d="M422.596 574.549L416.037 563.839C415.447 563.839 396.138 590.837 395.99 591.135L422.596 574.549Z" fill="#FFF5E3"/>
<path d="M416.037 563.839C415.447 563.839 395.917 591.209 395.917 591.209L429.155 585.333L416.037 563.839Z" stroke="#191816" stroke-linecap="round" stroke-linejoin="round"/>
<path d="M513.394 533.718C509.838 538.349 504.788 541.576 499.12 542.839C493.452 544.103 487.524 543.323 482.366 540.635L451.339 527.471C449.981 526.874 448.519 526.556 447.038 526.536C445.557 526.516 444.087 526.795 442.714 527.356C441.341 527.917 440.093 528.75 439.043 529.804C437.993 530.858 437.162 532.113 436.599 533.495C435.444 536.268 435.424 539.388 436.543 542.176C437.661 544.963 439.828 547.19 442.568 548.37C487.378 580.5 496.369 584.442 507.277 588.384" fill="#FFCEBF"/>
<path d="M455.319 542.12L486.42 555.359C489.095 556.566 492.012 557.126 494.939 556.993C497.866 556.859 500.722 556.037 503.279 554.592C505.835 553.147 508.021 551.119 509.662 548.669C511.303 546.219 512.354 543.416 512.731 540.484L513.468 533.939C509.912 538.569 504.862 541.796 499.193 543.06C493.525 544.323 487.598 543.544 482.44 540.856L451.412 527.691C448.803 526.409 445.8 526.207 443.044 527.128C440.289 528.048 437.999 530.018 436.663 532.618C435.326 535.219 435.049 538.243 435.891 541.046C436.733 543.849 438.626 546.21 441.168 547.624C442.4 545.071 444.545 543.084 447.171 542.063C449.796 541.042 452.707 541.062 455.319 542.12Z" fill="#FFDCD1"/>
<path d="M513.394 533.718C509.838 538.349 504.788 541.576 499.12 542.839C493.452 544.103 487.524 543.323 482.366 540.635L451.339 527.471C449.981 526.874 448.519 526.556 447.038 526.536C445.557 526.516 444.087 526.795 442.714 527.356C441.341 527.917 440.093 528.75 439.043 529.804C437.993 530.858 437.162 532.113 436.599 533.495C435.444 536.268 435.424 539.388 436.543 542.176C437.661 544.963 439.828 547.19 442.568 548.37C487.378 580.5 496.369 584.442 507.277 588.384" stroke="#191816" stroke-linecap="round" stroke-linejoin="round"/>
<path d="M513.394 533.718C509.838 538.349 504.788 541.576 499.12 542.839C493.452 544.103 487.524 543.323 482.366 540.635L451.339 527.471C449.981 526.874 448.519 526.556 447.038 526.536C445.557 526.516 444.087 526.795 442.714 527.356C441.341 527.917 440.093 528.75 439.043 529.804C437.993 530.858 437.162 532.113 436.599 533.495C435.444 536.268 435.424 539.388 436.543 542.176C437.661 544.963 439.828 547.19 442.568 548.37C487.378 580.5 496.369 584.442 507.277 588.384" fill="#FFCEBF"/>
<path d="M455.319 542.12L486.42 555.359C489.095 556.566 492.012 557.126 494.939 556.993C497.866 556.859 500.722 556.037 503.279 554.592C505.835 553.147 508.021 551.119 509.662 548.669C511.303 546.219 512.354 543.416 512.731 540.484L513.468 533.939C509.912 538.569 504.862 541.796 499.193 543.06C493.525 544.323 487.598 543.544 482.44 540.856L451.412 527.691C448.803 526.409 445.8 526.207 443.044 527.128C440.289 528.048 437.999 530.018 436.663 532.618C435.326 535.219 435.049 538.243 435.891 541.046C436.733 543.849 438.626 546.21 441.168 547.624C442.4 545.071 444.545 543.084 447.171 542.063C449.796 541.042 452.707 541.062 455.319 542.12Z" fill="#FFDCD1"/>
<path d="M513.394 533.718C509.838 538.349 504.788 541.576 499.12 542.839C493.452 544.103 487.524 543.323 482.366 540.635L451.339 527.471C449.981 526.874 448.519 526.556 447.038 526.536C445.557 526.516 444.087 526.795 442.714 527.356C441.341 527.917 440.093 528.75 439.043 529.804C437.993 530.858 437.162 532.113 436.599 533.495C435.444 536.268 435.424 539.388 436.543 542.176C437.661 544.963 439.828 547.19 442.568 548.37C487.378 580.5 496.369 584.442 507.277 588.384" stroke="#191816" stroke-linecap="round" stroke-linejoin="round"/>
</g>
</svg>
