<svg width="24" height="24" viewBox="0 0 24 24" fill="none" xmlns="http://www.w3.org/2000/svg">
<path fill-rule="evenodd" clip-rule="evenodd" d="M4.51 2.96375C3.65635 2.96375 2.96375 3.66799 2.96375 4.53493V5.45965C2.96375 6.10183 3.20795 6.71938 3.64477 7.18389L8.43195 12.2742L8.43406 12.271C9.35823 13.2171 9.87821 14.4961 9.87821 15.8297V20.3463C9.87821 20.6481 10.194 20.8407 10.4561 20.6984L13.1823 19.2128C13.5939 18.9881 13.8507 18.5514 13.8507 18.0773V15.8179C13.8507 14.4918 14.3633 13.2182 15.279 12.2742L20.0662 7.18389C20.502 6.71938 20.7462 6.10183 20.7462 5.45965V4.53493C20.7462 3.66799 20.0546 2.96375 19.201 2.96375H4.51Z" stroke="#54A9FF" stroke-width="2" stroke-linecap="round" stroke-linejoin="round"/>
</svg>
