<svg width="37" height="38" viewBox="0 0 37 38" fill="none" xmlns="http://www.w3.org/2000/svg">
<path d="M25.7198 29.9256L21.6102 25.5229C22.9361 23.7078 23.6556 21.4665 23.6529 19.1591C23.6529 17.1042 23.0858 15.0954 22.0233 13.3868C20.9608 11.6782 19.4506 10.3465 17.6837 9.56017C15.9168 8.77379 13.9726 8.56804 12.0968 8.96893C10.2211 9.36982 8.49814 10.3594 7.14582 11.8124C5.7935 13.2654 4.87255 15.1167 4.49945 17.1322C4.12634 19.1476 4.31783 21.2366 5.04971 23.1351C5.78158 25.0336 7.02096 26.6563 8.61112 27.7979C10.2013 28.9396 12.0708 29.5489 13.9833 29.5489C16.1307 29.5518 18.2167 28.7788 19.9059 27.3541L24.0034 31.7697C24.1158 31.8915 24.2495 31.9881 24.3968 32.054C24.5441 32.12 24.7021 32.1539 24.8616 32.1539C25.0212 32.1539 25.1792 32.12 25.3265 32.054C25.4738 31.9881 25.6074 31.8915 25.7198 31.7697C25.8331 31.649 25.923 31.5054 25.9844 31.3471C26.0457 31.1888 26.0773 31.0191 26.0773 30.8476C26.0773 30.6762 26.0457 30.5064 25.9844 30.3482C25.923 30.1899 25.8331 30.0463 25.7198 29.9256ZM6.73106 19.1591C6.73106 17.6179 7.15639 16.1114 7.95328 14.8299C8.75016 13.5485 9.8828 12.5497 11.208 11.9599C12.5331 11.3701 13.9913 11.2158 15.3981 11.5165C16.8049 11.8171 18.0971 12.5593 19.1114 13.6491C20.1256 14.7389 20.8163 16.1273 21.0962 17.6389C21.376 19.1505 21.2324 20.7172 20.6835 22.1411C20.1346 23.565 19.205 24.782 18.0124 25.6382C16.8198 26.4945 15.4176 26.9515 13.9833 26.9515C12.0599 26.9515 10.2152 26.1305 8.85518 24.6691C7.49513 23.2078 6.73106 21.2258 6.73106 19.1591Z" fill="#BDBDBD"/>
</svg>
