<svg width="100" height="117" viewBox="0 0 100 117" fill="none" xmlns="http://www.w3.org/2000/svg">
<g opacity="0.7">
<path d="M106.412 80.7096L109.811 93.8607L48.9617 109.586L45.563 96.4352L35.9862 98.9102L46.1824 138.363L55.7592 135.888L50.6611 116.162L111.51 100.436L116.608 120.163L126.185 117.688L115.989 78.2346L106.412 80.7096Z" fill="#C0DCEB"/>
<path d="M44.7536 96.6443L35.9862 98.9102L37.6856 105.486L46.453 103.22L44.7536 96.6443Z" fill="#ADC4D9"/>
<path d="M5.89416 28.3567L107.032 2.21896C108.444 1.8541 109.943 2.06478 111.199 2.80463C112.455 3.54448 113.366 4.75291 113.73 6.16407L131.331 74.2701L24.8704 101.784C23.4586 102.148 21.9598 101.938 20.7036 101.198C19.4475 100.458 18.5369 99.2497 18.1722 97.8385L1.94619 35.0532C1.5815 33.642 1.79256 32.1437 2.53295 30.8879C3.27334 29.6321 4.4824 28.7216 5.89416 28.3567Z" fill="#F0F0F0"/>
<path d="M13.5995 80.1449L50.9836 16.704L5.95418 28.3412C4.5265 28.7102 3.30379 29.6309 2.55502 30.9008C1.80626 32.1707 1.59278 33.6857 1.96155 35.1126L13.5995 80.1449Z" fill="white"/>
<path d="M5.89416 28.3567L107.032 2.21896C108.444 1.85411 109.943 2.06478 111.199 2.80463C112.455 3.54448 113.366 4.75291 113.73 6.16407L131.331 74.2701L24.8704 101.784C23.4586 102.148 21.9598 101.938 20.7036 101.198C19.4475 100.458 18.5369 99.2497 18.1722 97.8385L1.94619 35.0532C1.5815 33.642 1.79256 32.1437 2.53295 30.8879C3.27334 29.6321 4.4824 28.7216 5.89416 28.3567Z" stroke="#191816" stroke-linecap="round" stroke-linejoin="round"/>
<path d="M106.412 80.7096L109.811 93.8607L48.9617 109.586L45.563 96.4352L35.9862 98.9102L46.1824 138.363L55.7592 135.888L50.6611 116.162L111.51 100.436L116.608 120.163L126.185 117.688L115.989 78.2346L106.412 80.7096Z" stroke="#191816" stroke-linecap="round" stroke-linejoin="round"/>
<path d="M63.5439 42.6858L71.6709 28.8943" stroke="#191816" stroke-linecap="round" stroke-linejoin="round"/>
<path d="M75.7898 28.997C78.5135 28.2931 80.1508 25.5145 79.4469 22.7908C78.743 20.0671 75.9644 18.4298 73.2407 19.1337C70.5171 19.8376 68.8797 22.6162 69.5836 25.3399C70.2875 28.0635 73.0661 29.7009 75.7898 28.997Z" fill="#FFE500" stroke="#191816" stroke-linecap="round" stroke-linejoin="round"/>
<path d="M70.2672 59.6523L84.0587 67.7793" stroke="#191816" stroke-linecap="round" stroke-linejoin="round"/>
<path d="M89.0646 75.8407C91.7882 75.1368 93.4256 72.3582 92.7217 69.6346C92.0178 66.9109 89.2392 65.2735 86.5155 65.9774C83.7918 66.6813 82.1545 69.4599 82.8584 72.1836C83.5623 74.9073 86.3409 76.5446 89.0646 75.8407Z" fill="#FFE500" stroke="#191816" stroke-linecap="round" stroke-linejoin="round"/>
<path d="M47.105 46.9332L37.1677 40.1484" stroke="#191816" stroke-linecap="round" stroke-linejoin="round"/>
<path d="M33.3504 43.4752C36.982 42.5366 39.1651 38.8318 38.2266 35.2003C37.2881 31.5687 33.5833 29.3855 29.9517 30.3241C26.3201 31.2626 24.137 34.9674 25.0755 38.599C26.0141 42.2306 29.7189 44.4137 33.3504 43.4752Z" fill="#6DD627" stroke="#191816" stroke-linecap="round" stroke-linejoin="round"/>
<path d="M50.5408 64.7517L42.4138 78.5432" stroke="#191816" stroke-linecap="round" stroke-linejoin="round"/>
<path d="M40.8437 88.3017C43.5674 87.5978 45.2048 84.8192 44.5009 82.0955C43.797 79.3718 41.0184 77.7345 38.2947 78.4384C35.571 79.1423 33.9337 81.9209 34.6376 84.6445C35.3415 87.3682 38.1201 89.0056 40.8437 88.3017Z" fill="#FFE500" stroke="#191816" stroke-linecap="round" stroke-linejoin="round"/>
<path d="M60.9889 66.7284C67.9494 64.9296 72.1338 57.8287 70.3349 50.8682C68.5361 43.9077 61.4352 39.7233 54.4747 41.5222C47.5142 43.321 43.3298 50.4219 45.1287 57.3824C46.9275 64.3429 54.0284 68.5273 60.9889 66.7284Z" fill="#FF6242" stroke="#191816" stroke-linecap="round" stroke-linejoin="round"/>
<path d="M70.4766 51.416L80.3399 48.867" stroke="#191816" stroke-linecap="round" stroke-linejoin="round"/>
<path d="M90.5418 54.4123C95.0813 53.2391 97.8102 48.6081 96.637 44.0687C95.4639 39.5292 90.8329 36.8003 86.2934 37.9735C81.7539 39.1466 79.025 43.7776 80.1982 48.3171C81.3713 52.8565 86.0023 55.5855 90.5418 54.4123Z" fill="#00B8F0" stroke="#191816" stroke-linecap="round" stroke-linejoin="round"/>
</g>
</svg>
