<svg width="129" height="143" viewBox="0 0 129 143" fill="none" xmlns="http://www.w3.org/2000/svg">
<path d="M64.9643 127C96.9771 127 122.929 101.033 122.929 69C122.929 36.9675 96.9771 11 64.9643 11C32.9515 11 7 36.9675 7 69C7 101.033 32.9515 127 64.9643 127Z" fill="#FFB2B8"/>
<path d="M108.235 88.7906C108.265 88.6761 108.272 88.5565 108.254 88.4394C108.237 88.3222 108.196 88.2098 108.133 88.1091C108.07 88.0109 107.987 87.9269 107.89 87.862C107.792 87.7972 107.683 87.7529 107.568 87.7321C106.25 87.5257 104.917 87.4335 103.583 87.4566C102.737 87.4377 101.9 87.6322 101.149 88.0221C100.328 88.5465 99.7419 89.367 99.511 90.3131C99.1389 90.151 98.7326 90.0834 98.3281 90.1162C97.9236 90.1491 97.5335 90.2815 97.1925 90.5016L69.9058 107.902C69.2847 108.316 68.8476 108.955 68.6857 109.684C68.5237 110.414 68.6493 111.178 69.0363 111.817L70.1086 113.513C70.3088 113.827 70.569 114.098 70.8743 114.311C71.1795 114.524 71.5238 114.675 71.8873 114.754C72.2508 114.834 72.6265 114.84 72.9927 114.774C73.3589 114.708 73.7084 114.57 74.0212 114.369L101.322 96.9686C101.655 96.7538 101.933 96.4631 102.132 96.1203C102.331 95.7775 102.446 95.3924 102.467 94.9966C102.761 95.0693 103.064 95.0986 103.366 95.0836C104.044 95.0555 104.704 94.8506 105.278 94.4891C106.858 93.4741 108.017 89.5591 108.235 88.7906Z" fill="#FE7983"/>
<path d="M26.1137 88.2699C26.3464 89.2956 26.7788 90.2653 27.3862 91.1236C27.9936 91.9819 28.7641 92.7121 29.6537 93.2723C30.5433 93.8325 31.5345 94.2118 32.5706 94.3884C33.6068 94.5651 34.6675 94.5357 35.6923 94.3019L107.829 77.8009C108.335 77.6706 108.77 77.3473 109.041 76.9002C109.312 76.4531 109.397 75.9176 109.278 75.4084L101.308 40.2894C101.178 39.7831 100.855 39.3479 100.408 39.0769C99.9609 38.8059 99.4258 38.7207 98.9169 38.8394L26.7803 55.2824C24.7129 55.7559 22.918 57.0315 21.7902 58.8288C20.6625 60.6261 20.2943 62.798 20.7665 64.8669L26.1137 88.2699Z" fill="#FE7983"/>
<path d="M72.659 110.745C72.4343 110.88 72.1848 110.969 71.9253 111.006C71.6658 111.043 71.4014 111.029 71.1477 110.962C70.894 110.896 70.656 110.78 70.4478 110.621C70.2395 110.461 70.0651 110.262 69.9347 110.034L68.9204 108.309C68.787 108.082 68.6996 107.832 68.6632 107.571C68.6267 107.311 68.6419 107.046 68.7078 106.791C68.7737 106.537 68.8892 106.298 69.0475 106.088C69.2058 105.878 69.4039 105.702 69.6304 105.568L95.8013 90.2275C95.9882 90.1134 96.1966 90.039 96.4135 90.0091C96.6305 89.9792 96.8512 89.9943 97.062 90.0535C97.487 90.1681 97.8508 90.4437 98.0764 90.822L99.4241 93.1275C99.5359 93.3156 99.6092 93.5241 99.6398 93.7408C99.6705 93.9575 99.6578 94.1782 99.6025 94.39C99.5472 94.6017 99.4505 94.8004 99.3179 94.9745C99.1852 95.1486 99.0194 95.2945 98.8299 95.404L72.659 110.745Z" fill="white"/>
<path d="M78.2526 100.508L81.2957 105.684" stroke="#E53946" stroke-linecap="round" stroke-linejoin="round"/>
<path d="M69.6304 105.567C69.3653 105.114 69.1925 104.612 69.1219 104.091C69.0513 103.57 69.0842 103.041 69.2189 102.533C69.3536 102.025 69.5873 101.548 69.9066 101.131C70.2259 100.714 70.6246 100.364 71.0796 100.101L81.4262 94.0254" stroke="#E53946" stroke-linecap="round" stroke-linejoin="round"/>
<path d="M102.873 93.0684C102.181 93.4703 101.358 93.5807 100.585 93.3754C99.8119 93.1701 99.1519 92.6659 98.7502 91.9736C98.3486 91.2814 98.2383 90.4579 98.4434 89.6843C98.6486 88.9107 99.1525 88.2503 99.8443 87.8484C101.293 87.0074 105.641 87.8484 105.641 87.8484C105.641 87.8484 104.308 92.1984 102.873 93.0684Z" fill="#FE7983"/>
<path d="M102.873 93.0684C102.181 93.4703 101.358 93.5807 100.585 93.3754C99.8119 93.1701 99.1519 92.6659 98.7502 91.9736C98.3486 91.2814 98.2383 90.4579 98.4434 89.6843C98.6486 88.9107 99.1525 88.2503 99.8443 87.8484C101.293 87.0074 105.641 87.8484 105.641 87.8484C105.641 87.8484 104.308 92.1984 102.873 93.0684Z" stroke="#E53946" stroke-linecap="round" stroke-linejoin="round"/>
<path d="M72.659 110.745C72.4343 110.88 72.1848 110.969 71.9253 111.006C71.6658 111.043 71.4014 111.029 71.1477 110.962C70.894 110.896 70.656 110.78 70.4478 110.621C70.2395 110.461 70.0651 110.262 69.9347 110.034L68.9204 108.309C68.787 108.082 68.6996 107.832 68.6632 107.571C68.6267 107.311 68.6419 107.046 68.7078 106.791C68.7737 106.537 68.8892 106.298 69.0475 106.088C69.2058 105.878 69.4039 105.702 69.6304 105.568L95.8013 90.2275C95.9882 90.1134 96.1966 90.039 96.4135 90.0091C96.6305 89.9792 96.8512 89.9943 97.062 90.0535C97.487 90.1681 97.8508 90.4437 98.0764 90.822L99.4241 93.1275C99.5359 93.3156 99.6092 93.5241 99.6398 93.7408C99.6705 93.9575 99.6578 94.1782 99.6025 94.39C99.5472 94.6017 99.4505 94.8004 99.3179 94.9745C99.1852 95.1486 99.0194 95.2945 98.8299 95.404L72.659 110.745Z" stroke="#E53946" stroke-linecap="round" stroke-linejoin="round"/>
<path d="M30.3596 51.9037L28.2004 42.1307C28.1425 41.8642 28.0196 41.6161 27.8426 41.4086C27.6656 41.2012 27.44 41.0408 27.186 40.9417C26.9299 40.8415 26.6529 40.8062 26.3798 40.8391C26.1068 40.872 25.8461 40.972 25.621 41.1302C24.6503 41.8099 23.9024 42.762 23.4717 43.8665C23.0411 44.9709 22.9469 46.1783 23.201 47.3362L31.4029 84.4562C31.5728 85.2267 31.8927 85.9561 32.3445 86.6028C32.7963 87.2495 33.3711 87.8007 34.0359 88.2249C34.7008 88.6491 35.4427 88.938 36.2193 89.0751C36.9958 89.2121 37.7917 89.1947 38.5615 89.0237L107.22 73.8422C107.636 73.7387 107.995 73.4791 108.225 73.1173C108.454 72.7556 108.535 72.3194 108.452 71.8992L101.018 37.9982C100.972 37.7839 100.883 37.5808 100.759 37.4006C100.634 37.2204 100.474 37.0666 100.29 36.9481C100.106 36.8296 99.8996 36.7486 99.6839 36.7098C99.4681 36.6711 99.2469 36.6753 99.0328 36.7222L30.3596 51.9037Z" fill="white"/>
<path d="M101.699 68.9258L72.4127 75.3928" stroke="#E53946" stroke-linecap="round" stroke-linejoin="round"/>
<path d="M62.6023 58.8491C62.5532 58.6372 62.5472 58.4177 62.5845 58.2035C62.6219 57.9893 62.7018 57.7848 62.8196 57.6021C62.9357 57.4156 63.0878 57.2542 63.2669 57.1272C63.4461 57.0003 63.6487 56.9103 63.863 56.8626L95.7434 49.8156C95.9566 49.7665 96.1774 49.7602 96.3931 49.7972C96.6087 49.8342 96.8149 49.9137 96.9996 50.031C97.1843 50.1484 97.3438 50.3013 97.469 50.4809C97.5941 50.6604 97.6824 50.8631 97.7286 51.0771L99.1778 57.6021C99.2729 58.0327 99.1936 58.4835 98.9573 58.8558C98.721 59.2281 98.347 59.4916 97.917 59.5886L66.0367 66.6356C65.8226 66.6825 65.6013 66.6867 65.3856 66.6479C65.1698 66.6092 64.9639 66.5282 64.7795 66.4097C64.5951 66.2912 64.4358 66.1374 64.3109 65.9572C64.1859 65.777 64.0978 65.5739 64.0514 65.3596L62.6023 58.8491Z" stroke="#E53946" stroke-linecap="round" stroke-linejoin="round"/>
<path d="M96.0912 43.5215L88.2805 45.247" stroke="#E53946" stroke-linecap="round" stroke-linejoin="round"/>
<path d="M39.0108 72.5352L39.8658 76.4356" stroke="#E53946" stroke-linecap="round" stroke-linejoin="round"/>
<path d="M42.9234 71.668L43.7783 75.583" stroke="#E53946" stroke-linecap="round" stroke-linejoin="round"/>
<path d="M46.8215 70.8105L47.6909 74.711" stroke="#E53946" stroke-linecap="round" stroke-linejoin="round"/>
<path d="M50.734 69.9414L51.589 73.8564" stroke="#E53946" stroke-linecap="round" stroke-linejoin="round"/>
<path d="M54.6321 69.0879L55.5016 72.9884" stroke="#E53946" stroke-linecap="round" stroke-linejoin="round"/>
<path d="M30.9682 82.4988L58.3129 76.4668" stroke="#E53946" stroke-linecap="round" stroke-linejoin="round"/>
<path d="M34.2432 69.4923L55.719 64.7363" stroke="#E53946" stroke-linecap="round" stroke-linejoin="round"/>
<path d="M30.3596 51.9037L99.0328 36.7222C99.2469 36.6753 99.4681 36.6711 99.6839 36.7098C99.8996 36.7486 100.106 36.8296 100.29 36.9481C100.474 37.0666 100.634 37.2204 100.759 37.4006C100.884 37.5808 100.972 37.7839 101.018 37.9982L108.452 71.8992C108.499 72.1134 108.503 72.3348 108.464 72.5507C108.426 72.7666 108.345 72.9726 108.226 73.1572C108.108 73.3417 107.954 73.501 107.774 73.626C107.594 73.7511 107.391 73.8393 107.177 73.8857L38.5615 89.0237C37.1049 89.3777 35.5686 89.1733 34.2551 88.4506C32.9416 87.728 31.946 86.5395 31.4644 85.1192C30.9828 83.6988 31.05 82.1495 31.6527 80.7763C32.2555 79.403 33.3503 78.3053 34.7214 77.6992C35.0657 77.5397 35.3453 77.2673 35.5139 76.9272C35.6826 76.5871 35.7302 76.1996 35.6488 75.8287L28.2004 42.1307C28.1425 41.8642 28.0196 41.6161 27.8426 41.4086C27.6656 41.2012 27.44 41.0408 27.186 40.9417C26.9299 40.8415 26.6529 40.8062 26.3798 40.8391C26.1068 40.872 25.8461 40.972 25.621 41.1302C24.6503 41.8099 23.9024 42.762 23.4717 43.8665C23.0411 44.9709 22.9469 46.1783 23.201 47.3362L31.4029 84.4562" stroke="#E53946" stroke-linecap="round" stroke-linejoin="round"/>
<path d="M67.0075 60.1973L67.4423 62.1548" stroke="#E53946" stroke-linecap="round" stroke-linejoin="round"/>
<path d="M72.8619 58.9062L73.2966 60.8493" stroke="#E53946" stroke-linecap="round" stroke-linejoin="round"/>
<path d="M76.7745 58.0371L77.1948 59.9946" stroke="#E53946" stroke-linecap="round" stroke-linejoin="round"/>
<path d="M80.6726 57.1797L81.1073 59.1227" stroke="#E53946" stroke-linecap="round" stroke-linejoin="round"/>
<path d="M86.527 55.877L86.9618 57.8345" stroke="#E53946" stroke-linecap="round" stroke-linejoin="round"/>
<path d="M90.4396 55.0195L90.8744 56.9625" stroke="#E53946" stroke-linecap="round" stroke-linejoin="round"/>
<path d="M94.3522 54.1523L94.7724 56.1098" stroke="#E53946" stroke-linecap="round" stroke-linejoin="round"/>
<path d="M54.067 57.256C54.1161 57.4679 54.1221 57.6874 54.0847 57.9016C54.0474 58.1158 53.9675 58.3203 53.8496 58.503C53.6083 58.8732 53.2353 59.1376 52.8063 59.2425L32.9535 63.5925L31.6493 57.7925L51.5021 53.4425C51.7153 53.3934 51.9361 53.3872 52.1518 53.4242C52.3674 53.4611 52.5736 53.5406 52.7583 53.658C52.943 53.7753 53.1025 53.9282 53.2277 54.1078C53.3529 54.2874 53.4411 54.49 53.4874 54.704L54.067 57.256Z" fill="#FE7983" stroke="#E53946" stroke-linecap="round" stroke-linejoin="round"/>
<path d="M79.238 73.8853C78.6588 74.0116 78.0551 73.9635 77.5032 73.7468C76.9513 73.5301 76.4759 73.1546 76.1372 72.6677C75.7984 72.1809 75.6114 71.6045 75.5998 71.0114C75.5882 70.4183 75.7525 69.835 76.072 69.3353C76.3915 68.8356 76.8518 68.4418 77.3948 68.2036C77.9378 67.9655 78.5391 67.8937 79.1229 67.9973C79.7066 68.1009 80.2466 68.3753 80.6746 68.7858C81.1026 69.1963 81.3994 69.7246 81.5276 70.3038" stroke="#E53946" stroke-linecap="round" stroke-linejoin="round"/>
<path d="M93.0335 66.7363C93.2019 67.5149 93.0556 68.3284 92.6267 68.9994C92.1977 69.6704 91.5209 70.1444 90.7439 70.3178" stroke="#E53946" stroke-linecap="round" stroke-linejoin="round"/>
<path d="M81.745 71.2885C81.5722 70.5117 81.7148 69.6981 82.1415 69.0265C82.5681 68.3548 83.2438 67.8803 84.0201 67.707" stroke="#E53946" stroke-linecap="round" stroke-linejoin="round"/>
<path d="M86.6285 70.2026C86.4557 69.4258 86.5983 68.6121 87.025 67.9405C87.4516 67.2689 88.1273 66.7943 88.9036 66.6211" stroke="#E53946" stroke-linecap="round" stroke-linejoin="round"/>
<path d="M65.0513 126.626C97.3245 126.626 123.487 100.723 123.487 68.771C123.487 36.8186 97.3245 10.916 65.0513 10.916C32.778 10.916 6.61539 36.8186 6.61539 68.771C6.61539 100.723 32.778 126.626 65.0513 126.626Z" fill="#E0F6DE"/>
<path d="M55.2249 33.834H37.1649C34.3151 33.834 32.0049 36.1205 32.0049 38.9411V75.3295C32.0049 78.1501 34.3151 80.4367 37.1649 80.4367H55.2249C58.0747 80.4367 60.3849 78.1501 60.3849 75.3295V38.9411C60.3849 36.1205 58.0747 33.834 55.2249 33.834Z" fill="#81DA7B"/>
<path d="M55.2249 33.834H37.1649C34.3151 33.834 32.0049 36.1205 32.0049 38.9411V72.776C32.0049 75.5966 34.3151 77.8831 37.1649 77.8831H55.2249C58.0747 77.8831 60.3849 75.5966 60.3849 72.776V38.9411C60.3849 36.1205 58.0747 33.834 55.2249 33.834Z" fill="white" stroke="#4D834A" stroke-linejoin="round"/>
<path d="M34.5849 51.709H57.8049V75.3295C57.8049 76.0068 57.5331 76.6563 57.0492 77.1352C56.5654 77.6141 55.9092 77.8831 55.2249 77.8831H37.1649C36.4806 77.8831 35.8244 77.6141 35.3406 77.1352C34.8567 76.6563 34.5849 76.0068 34.5849 75.3295V51.709Z" fill="#81DA7B" stroke="#4D834A" stroke-linejoin="round"/>
<path d="M55.2249 44.6875H37.1649C35.74 44.6875 34.5849 45.8308 34.5849 47.2411V51.0714C34.5849 52.4817 35.74 53.625 37.1649 53.625H55.2249C56.6498 53.625 57.8049 52.4817 57.8049 51.0714V47.2411C57.8049 45.8308 56.6498 44.6875 55.2249 44.6875Z" fill="#81DA7B"/>
<path d="M37.1649 44.6875C36.4806 44.6875 35.8244 44.9565 35.3406 45.4354C34.8567 45.9143 34.5849 46.5638 34.5849 47.2411V51.0714C34.5849 51.7487 34.8567 52.3982 35.3406 52.8771C35.8244 53.356 36.4806 53.625 37.1649 53.625H39.99L49.02 44.6875H37.1649Z" fill="white"/>
<path d="M55.2249 57.4545C55.2249 57.7931 55.089 58.1179 54.8471 58.3573C54.6051 58.5968 54.277 58.7313 53.9349 58.7313H38.4549C38.1128 58.7313 37.7846 58.5968 37.5427 58.3573C37.3008 58.1179 37.1649 57.7931 37.1649 57.4545C37.1649 57.1159 37.3008 56.7911 37.5427 56.5517C37.7846 56.3123 38.1128 56.1777 38.4549 56.1777H53.9349C54.277 56.1777 54.6051 56.3123 54.8471 56.5517C55.089 56.7911 55.2249 57.1159 55.2249 57.4545Z" fill="white" stroke="#4D834A" stroke-linejoin="round"/>
<path d="M42.9699 74.692H39.7449C39.0606 74.692 38.4044 74.4229 37.9206 73.944C37.4367 73.4651 37.1649 72.8156 37.1649 72.1384V71.5H42.9699V74.692Z" fill="white" stroke="#4D834A" stroke-linejoin="round"/>
<path d="M49.4199 71.5H42.9699V74.692H49.4199V71.5Z" fill="white" stroke="#4D834A" stroke-linejoin="round"/>
<path d="M55.2249 72.1384C55.2249 72.8156 54.9531 73.4651 54.4692 73.944C53.9854 74.4229 53.3292 74.692 52.6449 74.692H49.4199V71.5H55.2249V72.1384Z" fill="white" stroke="#4D834A" stroke-linejoin="round"/>
<path d="M55.2249 44.6875H37.1649C35.74 44.6875 34.5849 45.8308 34.5849 47.2411V51.0714C34.5849 52.4817 35.74 53.625 37.1649 53.625H55.2249C56.6498 53.625 57.8049 52.4817 57.8049 51.0714V47.2411C57.8049 45.8308 56.6498 44.6875 55.2249 44.6875Z" stroke="#4D834A" stroke-linejoin="round"/>
<path d="M55.2249 37.0273H37.1649C36.4525 37.0273 35.8749 37.599 35.8749 38.3041V39.5809C35.8749 40.2861 36.4525 40.8577 37.1649 40.8577H55.2249C55.9374 40.8577 56.5149 40.2861 56.5149 39.5809V38.3041C56.5149 37.599 55.9374 37.0273 55.2249 37.0273Z" fill="#81DA7B" stroke="#4D834A" stroke-linejoin="round"/>
<path d="M53.9349 40.8563H39.0999V28.7268C39.0999 28.2238 39.2 27.7257 39.3945 27.261C39.589 26.7963 39.874 26.3741 40.2334 26.0184C40.5928 25.6627 41.0194 25.3805 41.4889 25.1881C41.9584 24.9956 42.4617 24.8965 42.9699 24.8965H57.1599C56.3046 24.8965 55.4843 25.2328 54.8795 25.8314C54.2747 26.43 53.9349 27.2419 53.9349 28.0884V40.8563Z" fill="white"/>
<path d="M53.9349 40.8563H39.0999V28.7268C39.0999 28.2238 39.2 27.7257 39.3945 27.261C39.589 26.7963 39.874 26.3741 40.2334 26.0184C40.5928 25.6627 41.0194 25.3805 41.4889 25.1881C41.9584 24.9956 42.4617 24.8965 42.9699 24.8965H57.1599C56.3046 24.8965 55.4843 25.2328 54.8795 25.8314C54.2747 26.43 53.9349 27.2419 53.9349 28.0884V40.8563Z" stroke="#4D834A" stroke-linejoin="round"/>
<path d="M53.9349 28.0891C53.9343 27.6415 54.0287 27.1988 54.2121 26.7898C54.3956 26.3807 54.6639 26.0143 54.9996 25.7145C55.3354 25.4147 55.7311 25.1882 56.161 25.0495C56.591 24.9109 57.0456 24.8633 57.4953 24.9099C58.3088 25.0223 59.0524 25.4262 59.585 26.0452C60.1177 26.6641 60.4023 27.455 60.3849 28.2678V29.3659C60.3849 29.7045 60.249 30.0292 60.0071 30.2687C59.7652 30.5081 59.437 30.6427 59.0949 30.6427H53.9349V28.0891Z" fill="white" stroke="#4D834A" stroke-linejoin="round"/>
<path d="M49.4199 56.1777H42.9699V58.7313H49.4199V56.1777Z" stroke="#4D834A" stroke-linejoin="round"/>
<path d="M55.2249 62.5619C55.2249 62.9006 55.089 63.2253 54.8471 63.4648C54.6051 63.7042 54.277 63.8387 53.9349 63.8387H38.4549C38.1128 63.8387 37.7846 63.7042 37.5427 63.4648C37.3008 63.2253 37.1649 62.9006 37.1649 62.5619C37.1649 62.2233 37.3008 61.8986 37.5427 61.6591C37.7846 61.4197 38.1128 61.2852 38.4549 61.2852H53.9349C54.277 61.2852 54.6051 61.4197 54.8471 61.6591C55.089 61.8986 55.2249 62.2233 55.2249 62.5619Z" fill="white" stroke="#4D834A" stroke-linejoin="round"/>
<path d="M49.4199 61.2852H42.9699V63.8387H49.4199V61.2852Z" stroke="#4D834A" stroke-linejoin="round"/>
<path d="M55.2249 67.6694C55.2249 68.008 55.089 68.3327 54.8471 68.5722C54.6051 68.8116 54.277 68.9461 53.9349 68.9461H38.4549C38.1128 68.9461 37.7846 68.8116 37.5427 68.5722C37.3008 68.3327 37.1649 68.008 37.1649 67.6694C37.1649 67.3307 37.3008 67.006 37.5427 66.7665C37.7846 66.5271 38.1128 66.3926 38.4549 66.3926H53.9349C54.277 66.3926 54.6051 66.5271 54.8471 66.7665C55.089 67.006 55.2249 67.3307 55.2249 67.6694Z" fill="white" stroke="#4D834A" stroke-linejoin="round"/>
<path d="M49.4199 66.3926H42.9699V68.9461H49.4199V66.3926Z" stroke="#4D834A" stroke-linejoin="round"/>
<path d="M77.5935 74.3356C77.2399 74.1625 76.8544 74.0625 76.4605 74.0418C76.0665 74.021 75.6725 74.08 75.3023 74.2151C74.9322 74.3502 74.5938 74.5585 74.3077 74.8274C74.0217 75.0962 73.794 75.42 73.6386 75.7789C73.4832 76.1377 73.4033 76.5242 73.4039 76.9146C73.4045 77.3051 73.4855 77.6913 73.6419 78.0498C73.7983 78.4082 74.027 78.7313 74.3138 78.9993C74.6007 79.2674 74.9397 79.4747 75.3102 79.6088L77.6193 80.5663C76.9185 80.2957 76.139 80.3049 75.4449 80.5921C74.7509 80.8792 74.1966 81.4219 73.8988 82.1056C73.6011 82.7893 73.5832 83.5608 73.8489 84.2573C74.1146 84.9538 74.6431 85.5211 75.3231 85.8395L77.3226 86.6822C76.9679 86.4847 76.5752 86.3633 76.17 86.3259C75.7648 86.2884 75.3561 86.3357 74.9706 86.4647C74.585 86.5936 74.2312 86.8014 73.9321 87.0745C73.6329 87.3476 73.3951 87.6799 73.2342 88.0499C73.0732 88.4198 72.9926 88.8192 72.9977 89.2219C73.0028 89.6247 73.0933 90.0219 73.2636 90.3878C73.4338 90.7537 73.6799 91.08 73.9858 91.3457C74.2917 91.6113 74.6506 91.8103 75.0393 91.9297L78.3675 93.347C77.6576 93.0507 76.8578 93.0456 76.1442 93.333C75.4305 93.6203 74.8614 94.1765 74.562 94.8791C74.2627 95.5818 74.2576 96.3733 74.5479 97.0797C74.8382 97.7861 75.4001 98.3493 76.11 98.6456L84.753 102.323C91.6158 105.234 93.9636 103.114 97.8723 104.774L107.199 108.732L113.739 93.5896L109.121 91.6233C103.69 89.3123 106.799 83.8732 105.161 81.3452C104.18 79.813 99.5364 73.8632 99.5364 73.8632C99.3094 73.5614 99.0246 73.3068 98.6982 73.114C98.3717 72.9211 98.0102 72.7938 97.634 72.7392C97.2579 72.6847 96.8746 72.704 96.506 72.7961C96.1374 72.8882 95.7907 73.0512 95.4858 73.2759C95.1809 73.5006 94.9237 73.7825 94.7288 74.1056C94.534 74.4286 94.4053 74.7865 94.3502 75.1588C94.2951 75.5311 94.3146 75.9105 94.4077 76.2753C94.5007 76.6401 94.6654 76.9832 94.8924 77.285L98.3367 81.8687L97.8723 82.9412L77.5935 74.3356Z" fill="white"/>
<path d="M77.5935 74.3356C77.2399 74.1625 76.8544 74.0625 76.4605 74.0418C76.0665 74.021 75.6725 74.08 75.3023 74.2151C74.9322 74.3502 74.5938 74.5585 74.3077 74.8274C74.0217 75.0962 73.794 75.42 73.6386 75.7789C73.4832 76.1377 73.4033 76.5242 73.4039 76.9146C73.4045 77.3051 73.4855 77.6913 73.6419 78.0498C73.7983 78.4082 74.027 78.7313 74.3138 78.9993C74.6007 79.2674 74.9397 79.4747 75.3102 79.6088L77.6193 80.5663C76.9185 80.2957 76.139 80.3049 75.4449 80.5921C74.7509 80.8792 74.1966 81.4219 73.8988 82.1056C73.6011 82.7893 73.5832 83.5608 73.8489 84.2573C74.1146 84.9538 74.6431 85.5211 75.3231 85.8395L77.3226 86.6822C76.9679 86.4847 76.5752 86.3633 76.17 86.3259C75.7648 86.2884 75.3561 86.3357 74.9706 86.4647C74.585 86.5936 74.2312 86.8014 73.9321 87.0745C73.6329 87.3476 73.3951 87.6799 73.2342 88.0499C73.0732 88.4198 72.9926 88.8192 72.9977 89.2219C73.0028 89.6247 73.0933 90.0219 73.2636 90.3878C73.4338 90.7537 73.6799 91.08 73.9858 91.3457C74.2917 91.6113 74.6506 91.8103 75.0393 91.9297L78.3675 93.347C77.6576 93.0507 76.8578 93.0456 76.1442 93.333C75.4305 93.6203 74.8614 94.1765 74.562 94.8791C74.2627 95.5818 74.2576 96.3733 74.5479 97.0797C74.8382 97.7861 75.4001 98.3493 76.11 98.6456L84.753 102.323C91.6158 105.234 93.9636 103.114 97.8723 104.774L107.199 108.732L113.739 93.5896L109.121 91.6233C103.69 89.3123 106.799 83.8732 105.161 81.3452C104.18 79.813 99.5364 73.8632 99.5364 73.8632C99.3094 73.5614 99.0246 73.3068 98.6982 73.114C98.3717 72.9211 98.0102 72.7938 97.634 72.7392C97.2579 72.6847 96.8746 72.704 96.506 72.7961C96.1374 72.8882 95.7907 73.0512 95.4858 73.2759C95.1809 73.5006 94.9237 73.7825 94.7288 74.1056C94.534 74.4286 94.4053 74.7865 94.3502 75.1588C94.2951 75.5311 94.3146 75.9105 94.4077 76.2753C94.5007 76.6401 94.6654 76.9832 94.8924 77.285L98.3367 81.8687L97.8723 82.9412L77.5935 74.3356Z" stroke="#4D834A" stroke-linecap="round" stroke-linejoin="round"/>
<path d="M95.9063 57.6306L79.7693 57.4605C78.1522 57.4435 76.8272 58.7272 76.81 60.3278L76.4215 96.4461C76.4043 98.0467 77.7013 99.358 79.3184 99.3751L95.4554 99.5451C97.0726 99.5622 98.3975 98.2784 98.4147 96.6778L98.8033 60.5596C98.8205 58.959 97.5235 57.6476 95.9063 57.6306Z" fill="white"/>
<path d="M98.7647 64.1478L76.7714 63.916L76.4602 92.8463L98.4535 93.0781L98.7647 64.1478Z" fill="#81DA7B"/>
<path d="M76.6518 75.7774L89.3841 64.0565L76.7808 63.916L76.6518 75.7774Z" fill="white"/>
<path d="M95.9063 57.6306L79.7693 57.4605C78.1522 57.4435 76.8272 58.7272 76.81 60.3278L76.4215 96.4461C76.4043 98.0467 77.7013 99.358 79.3184 99.3751L95.4554 99.5451C97.0726 99.5622 98.3975 98.2784 98.4147 96.6778L98.8033 60.5596C98.8205 58.959 97.5235 57.6476 95.9063 57.6306Z" stroke="#4D834A" stroke-linejoin="round"/>
<path d="M98.7647 64.1478L76.7714 63.916L76.4602 92.8463L98.4535 93.0781L98.7647 64.1478Z" stroke="#4D834A" stroke-linejoin="round"/>
<path d="M86.7138 60.7773L92.2092 60.8407" stroke="#4D834A" stroke-linecap="round" stroke-linejoin="round"/>
<path d="M83.979 60.2012C83.848 60.2211 83.7286 60.2868 83.6423 60.3863C83.5561 60.4859 83.5086 60.6127 83.5086 60.7438C83.5086 60.8749 83.5561 61.0018 83.6423 61.1013C83.7286 61.2008 83.848 61.2665 83.979 61.2864C84.0501 61.2864 84.1206 61.2726 84.1863 61.2456C84.2521 61.2187 84.3118 61.1792 84.3621 61.1294C84.4124 61.0796 84.4523 61.0205 84.4796 60.9554C84.5068 60.8903 84.5208 60.8206 84.5208 60.7502C84.5225 60.6787 84.5098 60.6076 84.4833 60.541C84.4569 60.4745 84.4172 60.4139 84.3667 60.3627C84.3163 60.3116 84.2559 60.2709 84.1894 60.2432C84.1228 60.2154 84.0512 60.2012 83.979 60.2012Z" fill="#4550E5"/>
<path d="M101.394 95.1342C99.4884 93.8175 98.0984 91.8922 97.4571 89.6813C96.8159 87.4704 96.9625 85.1085 97.8723 82.9919L98.3367 81.9195L94.8924 77.3358C94.6654 77.034 94.5007 76.6909 94.4077 76.3261C94.3146 75.9612 94.2951 75.5819 94.3502 75.2096C94.4053 74.8373 94.534 74.4794 94.7288 74.1563C94.9237 73.8333 95.1809 73.5514 95.4858 73.3267C95.7907 73.102 96.1374 72.939 96.506 72.8469C96.8746 72.7548 97.2579 72.7355 97.634 72.79C98.0101 72.8446 98.3717 72.9719 98.6982 73.1647C99.0246 73.3576 99.3094 73.6122 99.5364 73.914C99.5364 73.914 104.18 79.8638 105.161 81.396C106.799 83.9495 103.69 89.3631 109.121 91.6741L113.739 93.6403L110.501 101.097" fill="white"/>
<path d="M101.394 95.1342C99.4884 93.8175 98.0984 91.8922 97.4571 89.6813C96.8159 87.4704 96.9625 85.1085 97.8723 82.9919L98.3367 81.9195L94.8924 77.3358C94.6654 77.034 94.5007 76.6909 94.4077 76.3261C94.3146 75.9612 94.2951 75.5819 94.3502 75.2096C94.4053 74.8373 94.534 74.4794 94.7288 74.1563C94.9237 73.8333 95.1809 73.5514 95.4858 73.3267C95.7907 73.102 96.1374 72.939 96.506 72.8469C96.8746 72.7548 97.2579 72.7355 97.634 72.79C98.0101 72.8446 98.3717 72.9719 98.6982 73.1647C99.0246 73.3576 99.3094 73.6122 99.5364 73.914C99.5364 73.914 104.18 79.8638 105.161 81.396C106.799 83.9495 103.69 89.3631 109.121 91.6741L113.739 93.6403L110.501 101.097" stroke="#4D834A" stroke-linecap="round" stroke-linejoin="round"/>
<path d="M83.1276 86.0303C82.8239 86.7288 82.2528 87.2796 81.5395 87.562C80.8261 87.8444 80.0287 87.8354 79.3221 87.5369L75.3231 85.8388C74.6431 85.5204 74.1146 84.9531 73.8489 84.2566C73.5832 83.56 73.6011 82.7886 73.8988 82.1049C74.1966 81.4211 74.7509 80.8785 75.4449 80.5914C76.139 80.3042 76.9185 80.295 77.6193 80.5656L81.6054 82.2638C82.3111 82.5643 82.8677 83.1296 83.153 83.8356C83.4383 84.5417 83.4292 85.3309 83.1276 86.0303Z" fill="white" stroke="#4D834A" stroke-miterlimit="10"/>
<path d="M82.8309 92.1475C82.6819 92.4944 82.465 92.8088 82.1928 93.0725C81.9206 93.3363 81.5984 93.5441 81.2447 93.6841C80.8911 93.8241 80.5129 93.8936 80.132 93.8884C79.7512 93.8833 79.3751 93.8036 79.0254 93.6541L75.0393 91.9304C74.6688 91.7964 74.3297 91.589 74.0429 91.321C73.7561 91.053 73.5274 90.7299 73.371 90.3714C73.2146 90.013 73.1336 89.6267 73.133 89.2363C73.1324 88.8458 73.2123 88.4594 73.3677 88.1005C73.5231 87.7416 73.7508 87.4179 74.0368 87.149C74.3229 86.8801 74.6613 86.6718 75.0314 86.5367C75.4016 86.4017 75.7956 86.3427 76.1896 86.3634C76.5835 86.3842 76.969 86.4841 77.3226 86.6573L81.27 88.3809C81.624 88.5248 81.9456 88.7368 82.2161 89.0047C82.4866 89.2725 82.7007 89.5909 82.8459 89.9413C82.9911 90.2917 83.0646 90.6671 83.062 91.0459C83.0594 91.4246 82.9809 91.799 82.8309 92.1475Z" fill="white" stroke="#4D834A" stroke-miterlimit="10"/>
<path d="M81.8763 97.9813C81.5726 98.6798 81.0015 99.2307 80.2882 99.5131C79.5748 99.7955 78.7774 99.7864 78.0708 99.4879L76.11 98.6453C75.7395 98.5113 75.4004 98.3039 75.1136 98.0358C74.8268 97.7678 74.5981 97.4447 74.4417 97.0863C74.2853 96.7278 74.2043 96.3416 74.2037 95.9511C74.2031 95.5607 74.283 95.1742 74.4384 94.8153C74.5938 94.4565 74.8215 94.1327 75.1075 93.8638C75.3936 93.595 75.732 93.3867 76.1021 93.2516C76.4723 93.1165 76.8663 93.0575 77.2603 93.0783C77.6542 93.099 78.0397 93.199 78.3933 93.3721L80.3928 94.2148C81.0939 94.5199 81.644 95.0879 81.9221 95.7942C82.2003 96.5004 82.1838 97.2871 81.8763 97.9813Z" fill="white" stroke="#4D834A" stroke-miterlimit="10"/>
<path d="M81.7473 79.1616C81.4436 79.86 80.8725 80.4109 80.1592 80.6933C79.4458 80.9757 78.6484 80.9667 77.9418 80.6682L75.3618 79.5574C74.9913 79.4233 74.6523 79.216 74.3654 78.9479C74.0786 78.6799 73.8499 78.3568 73.6935 77.9984C73.5371 77.6399 73.4561 77.2537 73.4555 76.8632C73.4549 76.4728 73.5348 76.0863 73.6902 75.7275C73.8456 75.3686 74.0733 75.0448 74.3593 74.776C74.6454 74.5071 74.9838 74.2988 75.3539 74.1637C75.7241 74.0286 76.1181 73.9697 76.5121 73.9904C76.906 74.0111 77.2915 74.1111 77.6451 74.2842L80.2251 75.395C80.9308 75.6956 81.4874 76.2609 81.7727 76.9669C82.058 77.673 82.0489 78.4622 81.7473 79.1616Z" fill="white" stroke="#4D834A" stroke-miterlimit="10"/>
<path d="M111.62 90.8456L114.429 92.0396L106.697 109.86L103.888 108.666C103.573 108.533 103.325 108.281 103.199 107.966C103.072 107.652 103.076 107.3 103.211 106.989L109.925 91.515C110.06 91.2038 110.315 90.9585 110.632 90.833C110.95 90.7074 111.305 90.712 111.62 90.8456Z" fill="white" stroke="#4D834A" stroke-linecap="round" stroke-linejoin="round"/>
<path d="M95.2149 47.025C94.1998 46.0167 92.9935 45.2166 91.6653 44.6707C90.3371 44.1248 88.9131 43.8438 87.4749 43.8438C86.0367 43.8438 84.6127 44.1248 83.2845 44.6707C81.9563 45.2166 80.75 46.0167 79.7349 47.025" stroke="#4D834A" stroke-linecap="round" stroke-linejoin="round"/>
<path d="M92.5188 49.6809C91.181 48.357 89.3667 47.6133 87.4749 47.6133C85.5831 47.6133 83.7688 48.357 82.431 49.6809" stroke="#4D834A" stroke-linecap="round" stroke-linejoin="round"/>
<path d="M89.8356 52.3499C89.2119 51.7355 88.3678 51.3906 87.4878 51.3906C86.6079 51.3906 85.7637 51.7355 85.14 52.3499" stroke="#4D834A" stroke-linecap="round" stroke-linejoin="round"/>
<path d="M46.1949 81.7148V100.867H70.0599" stroke="#4D834A" stroke-linecap="round" stroke-linejoin="round"/>
<path d="M62.9649 99.9099C62.9649 102.246 62.2651 104.529 60.9539 106.471C59.6428 108.413 57.7792 109.927 55.5988 110.821C53.4184 111.715 51.0192 111.949 48.7045 111.493C46.3898 111.038 44.2636 109.913 42.5949 108.261C40.9261 106.609 39.7896 104.505 39.3292 102.214C38.8688 99.923 39.1051 97.5483 40.0082 95.3903C40.9114 93.2322 42.4408 91.3877 44.4031 90.09C46.3654 88.7923 48.6724 88.0996 51.0324 88.0996C54.1971 88.0996 57.2322 89.3439 59.47 91.5588C61.7077 93.7736 62.9649 96.7776 62.9649 99.9099Z" fill="white"/>
<path d="M62.9649 99.9099C62.9649 102.246 62.2651 104.529 60.9539 106.471C59.6428 108.413 57.7792 109.927 55.5988 110.821C53.4184 111.715 51.0192 111.949 48.7045 111.493C46.3898 111.038 44.2636 109.913 42.5949 108.261C40.9261 106.609 39.7896 104.505 39.3292 102.214C38.8688 99.923 39.1051 97.5483 40.0082 95.3903C40.9114 93.2322 42.4408 91.3877 44.4031 90.09C46.3654 88.7923 48.6724 88.0996 51.0324 88.0996C54.1971 88.0996 57.2322 89.3439 59.47 91.5588C61.7077 93.7736 62.9649 96.7776 62.9649 99.9099V99.9099Z" stroke="#4D834A" stroke-linecap="round" stroke-linejoin="round"/>
<path d="M49.4199 105.208C49.1251 105.209 48.8331 105.151 48.5607 105.04C48.2884 104.928 48.0411 104.764 47.8332 104.557L44.8404 101.595C44.6089 101.394 44.4216 101.149 44.2901 100.873C44.1585 100.598 44.0855 100.299 44.0757 99.9947C44.0658 99.6904 44.1192 99.3873 44.2327 99.1042C44.3462 98.8212 44.5172 98.5642 44.7352 98.3493C44.9532 98.1345 45.2135 97.9662 45.4999 97.8551C45.7863 97.744 46.0928 97.6923 46.4002 97.7033C46.7077 97.7143 47.0096 97.7878 47.2872 97.9191C47.5647 98.0504 47.8121 98.2368 48.0138 98.4667L49.4199 99.8584L54.3735 94.9428C54.8014 94.5719 55.3557 94.3757 55.9242 94.3937C56.4927 94.4118 57.0331 94.6428 57.4361 95.0401C57.8392 95.4374 58.0748 95.9713 58.0953 96.5339C58.1159 97.0965 57.9199 97.6459 57.5469 98.0709L50.9937 104.557C50.7878 104.763 50.5427 104.926 50.2726 105.038C50.0024 105.15 49.7127 105.208 49.4199 105.208Z" fill="#81DA7B" stroke="#4D834A" stroke-linecap="round" stroke-linejoin="round"/>
</svg>
