<svg width="15" height="17" viewBox="0 0 15 17" fill="none" xmlns="http://www.w3.org/2000/svg">
<path d="M1.01119 14.7632H13.1491C13.4054 14.7633 13.6521 14.8489 13.8393 15.0026C14.0266 15.1564 14.1405 15.3669 14.1579 15.5915C14.1754 15.8162 14.0952 16.0384 13.9335 16.2131C13.7717 16.3878 13.5406 16.502 13.2867 16.5327L13.1491 16.541H1.01119C0.754909 16.5409 0.508216 16.4554 0.320953 16.3016C0.133691 16.1479 0.0198217 15.9374 0.00235393 15.7127C-0.0151139 15.488 0.0651221 15.2659 0.22685 15.0912C0.388577 14.9165 0.619738 14.8022 0.873623 14.7715L1.01119 14.7632H13.1491H1.01119ZM6.94259 0.549312L7.08015 0.541016C7.32458 0.541025 7.56073 0.618814 7.74495 0.759999C7.92916 0.901183 8.04896 1.09621 8.0822 1.30902L8.09165 1.4299V10.5416L11.1329 7.8702C11.3044 7.71953 11.5318 7.62802 11.7736 7.61236C12.0155 7.5967 12.2557 7.65792 12.4505 7.78487L12.5638 7.8702C12.7353 8.02092 12.8394 8.22076 12.8572 8.43331C12.875 8.64585 12.8054 8.85695 12.6609 9.02813L12.5638 9.12768L7.79494 13.3173C7.62368 13.4679 7.39662 13.5594 7.15507 13.5753C6.91351 13.5911 6.67349 13.5303 6.47865 13.4038L6.36536 13.3173L1.5965 9.12768C1.41552 8.96908 1.30958 8.75614 1.29998 8.53168C1.29037 8.30723 1.37782 8.0879 1.54473 7.9178C1.71165 7.74769 1.94565 7.63943 2.1997 7.61477C2.45375 7.59011 2.70901 7.65088 2.91414 7.78487L3.02743 7.8702L6.06866 10.544V1.4299C6.06867 1.2151 6.15719 1.00757 6.31784 0.84569C6.4785 0.683808 6.70043 0.578525 6.94259 0.549312L7.08015 0.541016L6.94259 0.549312Z" fill="#54A9FF"/>
</svg>
