<svg width="250" height="255" viewBox="0 0 250 255" fill="none" xmlns="http://www.w3.org/2000/svg">
<path d="M125.125 218.35C163.854 218.35 195.25 216.503 195.25 214.225C195.25 211.947 163.854 210.1 125.125 210.1C86.396 210.1 55 211.947 55 214.225C55 216.503 86.396 218.35 125.125 218.35Z" fill="#CFE7FF"/>
<path d="M176.875 100.1H73.3749C70.0612 100.1 67.3749 102.786 67.3749 106.1V191.45C67.3749 194.764 70.0612 197.45 73.3749 197.45H176.875C180.189 197.45 182.875 194.764 182.875 191.45V106.1C182.875 102.786 180.189 100.1 176.875 100.1Z" fill="white" stroke="#6592BF" stroke-linejoin="round"/>
<path d="M73.375 100.1H176.875C177.663 100.1 178.443 100.255 179.171 100.557C179.899 100.858 180.56 101.3 181.118 101.857C181.675 102.415 182.117 103.076 182.418 103.804C182.72 104.532 182.875 105.312 182.875 106.1V129.775H67.45V106.1C67.4498 104.522 68.0717 103.007 69.1807 101.884C70.2898 100.761 71.7967 100.12 73.375 100.1V100.1Z" fill="#87C3FF"/>
<path d="M182.875 149.6V190.85C182.875 192.6 182.18 194.279 180.942 195.517C179.704 196.755 178.026 197.45 176.275 197.45H130.075C130.075 197.45 156.475 189.2 182.875 149.6Z" fill="white"/>
<path d="M182.875 149.6V190.85C182.875 192.6 182.18 194.279 180.942 195.517C179.704 196.755 178.026 197.45 176.275 197.45H130.075C130.075 197.45 156.475 189.2 182.875 149.6Z" stroke="#6592BF" stroke-linejoin="round"/>
<path d="M73.375 100.1H176.875C177.663 100.1 178.443 100.255 179.171 100.557C179.899 100.858 180.56 101.3 181.118 101.857C181.675 102.415 182.117 103.076 182.418 103.804C182.72 104.532 182.875 105.312 182.875 106.1V129.775H67.45V106.1C67.4498 104.522 68.0717 103.007 69.1807 101.884C70.2898 100.761 71.7967 100.12 73.375 100.1V100.1Z" stroke="#6592BF" stroke-linejoin="round"/>
<path d="M92.125 110C90.1472 110 88.2138 109.414 86.5693 108.315C84.9248 107.216 83.6431 105.654 82.8862 103.827C82.1293 102 81.9313 99.9889 82.3172 98.0491C82.703 96.1093 83.6554 94.3275 85.0539 92.9289C86.4525 91.5304 88.2343 90.578 90.1741 90.1922C92.1139 89.8063 94.1246 90.0043 95.9518 90.7612C97.7791 91.5181 99.3409 92.7998 100.44 94.4443C101.539 96.0888 102.125 98.0222 102.125 100" stroke="#6592BF" stroke-linecap="round" stroke-linejoin="round"/>
<path d="M126.775 110C124.797 110 122.864 109.414 121.219 108.315C119.575 107.216 118.293 105.654 117.536 103.827C116.779 102 116.581 99.9889 116.967 98.0491C117.353 96.1093 118.305 94.3275 119.704 92.9289C121.102 91.5304 122.884 90.578 124.824 90.1922C126.764 89.8063 128.774 90.0043 130.602 90.7612C132.429 91.5181 133.991 92.7998 135.09 94.4443C136.188 96.0888 136.775 98.0222 136.775 100" stroke="#6592BF" stroke-linecap="round" stroke-linejoin="round"/>
<path d="M161.425 110C159.447 110 157.514 109.414 155.869 108.315C154.225 107.216 152.943 105.654 152.186 103.827C151.429 102 151.231 99.9889 151.617 98.0491C152.003 96.1093 152.955 94.3275 154.354 92.9289C155.752 91.5304 157.534 90.578 159.474 90.1922C161.414 89.8063 163.425 90.0043 165.252 90.7612C167.079 91.5181 168.641 92.7998 169.74 94.4443C170.838 96.0888 171.425 98.0222 171.425 100" stroke="#6592BF" stroke-linecap="round" stroke-linejoin="round"/>
<path d="M67.3749 146.3H182.875" stroke="#6592BF" stroke-linecap="round" stroke-linejoin="round"/>
<path d="M67.3749 162.8H136.4" stroke="#6592BF" stroke-linecap="round" stroke-linejoin="round"/>
<path d="M67.3749 179.3H136.4" stroke="#6592BF" stroke-linecap="round" stroke-linejoin="round"/>
<path d="M90.4749 129.8V197.45" stroke="#6592BF" stroke-linecap="round" stroke-linejoin="round"/>
<path d="M113.575 129.8V197.45" stroke="#6592BF" stroke-linecap="round" stroke-linejoin="round"/>
<path d="M136.675 129.8V152.2" stroke="#6592BF" stroke-linecap="round" stroke-linejoin="round"/>
<path d="M159.775 129.8V155.2" stroke="#6592BF" stroke-linecap="round" stroke-linejoin="round"/>
<path d="M90.4749 146.3H67.3749V162.8H90.4749V146.3Z" fill="#87C3FF" stroke="#6592BF" stroke-linejoin="round"/>
<path d="M113.575 179.3H90.4749V197.45H113.575V179.3Z" fill="#87C3FF" stroke="#6592BF" stroke-linejoin="round"/>
<path d="M136.675 129.8H113.575V146.3H136.675V129.8Z" fill="#87C3FF" stroke="#6592BF" stroke-linejoin="round"/>
<path d="M182.875 149.6C156.475 189.2 130.075 197.45 130.075 197.45C133.827 190.882 136.14 183.591 136.86 176.062C137.58 168.532 136.69 160.935 134.25 153.775C134.166 153.541 134.147 153.288 134.195 153.044C134.243 152.799 134.356 152.573 134.523 152.388C134.69 152.203 134.904 152.067 135.142 151.995C135.38 151.922 135.633 151.915 135.875 151.975C143.5 154.05 166.5 159.15 182.875 149.6Z" fill="white" stroke="#6592BF" stroke-linecap="round" stroke-linejoin="round"/>
<path d="M108.625 119.9H141.625" stroke="#6592BF" stroke-linecap="round" stroke-linejoin="round"/>
<path d="M159.775 119.9H172.975" stroke="#6592BF" stroke-linecap="round" stroke-linejoin="round"/>
<path d="M90.475 119.9H77.275" stroke="#6592BF" stroke-linecap="round" stroke-linejoin="round"/>
</svg>
