<svg width="477" height="324" viewBox="0 0 477 324" fill="none" xmlns="http://www.w3.org/2000/svg">
<g opacity="0.25">
<path d="M41.2322 63.4862C39.265 63.1434 37.2379 63.5914 35.5966 64.7316C33.9554 65.8718 32.8346 67.6108 32.4808 69.5661L1.53022 240.608C1.19418 242.561 1.64349 244.564 2.78134 246.185C3.91919 247.805 5.65453 248.915 7.61349 249.273L262.641 293.716C264.105 293.973 265.607 293.937 267.06 293.611C268.512 293.285 269.886 292.676 271.101 291.818L315.859 260.667C317.074 259.817 318.109 258.739 318.906 257.493C319.702 256.247 320.243 254.859 320.5 253.408L343.944 123.844C344.129 122.875 344.117 121.88 343.91 120.917C343.703 119.954 343.304 119.043 342.738 118.236C342.172 117.43 341.449 116.744 340.611 116.219C339.774 115.694 338.839 115.34 337.861 115.179L41.2322 63.4862Z" fill="white"/>
<path d="M262.73 293.224L262.73 293.224L7.70673 248.782C7.70615 248.782 7.70557 248.782 7.705 248.782C5.87495 248.446 4.25435 247.41 3.1919 245.896C2.12958 244.383 1.7102 242.514 2.02319 240.692L32.9734 69.652C33.3035 67.8279 34.3491 66.2052 35.881 65.1409C37.413 64.0766 39.3059 63.6581 41.1432 63.9783L337.772 115.671L337.777 115.672C338.689 115.822 339.562 116.152 340.343 116.642C341.125 117.132 341.799 117.772 342.327 118.525C342.856 119.277 343.227 120.127 343.42 121.025C343.613 121.923 343.624 122.85 343.453 123.754L343.452 123.758L320.007 253.322L320.007 253.324C319.762 254.71 319.245 256.036 318.484 257.226C317.724 258.416 316.735 259.446 315.574 260.258C315.574 260.258 315.574 260.258 315.574 260.258L270.817 291.409L270.814 291.411C269.653 292.23 268.34 292.812 266.953 293.124C265.565 293.435 264.129 293.469 262.73 293.224Z" stroke="#4D834A" stroke-linecap="round" stroke-linejoin="round"/>
<path d="M344.181 123.144L338.933 152.241L27.1461 97.7282L32.394 68.632C32.7019 66.9247 33.6773 65.4063 35.1056 64.4107C36.534 63.4152 38.2982 63.024 40.0102 63.3234L338.887 115.578C340.599 115.878 342.119 116.843 343.112 118.262C344.104 119.681 344.489 121.437 344.181 123.144Z" fill="#81DA7B"/>
<path d="M48.0283 160.332L163.86 180.666" stroke="#4D834A" stroke-linecap="round" stroke-linejoin="round"/>
<path d="M52.7839 133.859L137.43 148.719" stroke="#4D834A" stroke-linecap="round" stroke-linejoin="round"/>
<path d="M154.683 210.904C152.237 212.601 150.247 214.871 148.891 217.511C147.534 220.152 146.853 223.081 146.907 226.039C146.96 228.998 147.748 231.894 149.199 234.472C150.651 237.049 152.721 239.228 155.227 240.816C157.732 242.403 160.596 243.349 163.564 243.571C166.532 243.792 169.512 243.282 172.241 242.086C174.969 240.89 177.361 239.044 179.205 236.713C181.049 234.381 182.288 231.636 182.812 228.721L182.173 232.251C181.493 236.013 182.343 239.883 184.536 243.01C186.73 246.137 190.087 248.264 193.869 248.924C197.651 249.583 201.548 248.721 204.703 246.527C207.859 244.333 210.014 240.987 210.694 237.225C210.014 240.987 210.864 244.857 213.057 247.984C215.25 251.111 218.607 253.238 222.389 253.898L233.036 255.755" stroke="#4D834A" stroke-linecap="round" stroke-linejoin="round"/>
<path d="M343.689 123.058L338.53 151.662L27.7274 97.3223L32.8865 68.7181C33.1708 67.1416 34.0715 65.7394 35.3908 64.8198C36.71 63.9003 38.3398 63.5389 39.9215 63.8154L338.798 116.07C340.38 116.347 341.784 117.239 342.701 118.549C343.618 119.86 343.973 121.482 343.689 123.058Z" stroke="#4D834A" stroke-linecap="round" stroke-linejoin="round"/>
<path d="M464.874 108.427L300.662 222.539L277.941 190.102L442.153 75.9896C446.51 72.9634 451.892 71.7745 457.114 72.6843C462.336 73.5942 466.971 76.5283 470 80.8412C473.029 85.1541 474.202 90.4924 473.263 95.6819C472.324 100.871 469.348 105.487 464.991 108.513L464.874 108.427Z" fill="white"/>
<mask id="path-9-inside-1_2516_43635" fill="white">
<path d="M319.009 257.903L282.911 251.614C280.945 251.271 278.919 251.719 277.279 252.858C275.638 253.997 274.518 255.735 274.165 257.689L267.684 293.496"/>
</mask>
<path d="M318.831 258.887C319.375 258.982 319.896 258.618 319.994 258.075C320.092 257.531 319.731 257.014 319.187 256.919L318.831 258.887ZM266.699 293.324C266.6 293.867 266.962 294.385 267.506 294.48C268.05 294.574 268.571 294.211 268.669 293.667L266.699 293.324ZM319.187 256.919L283.089 250.63L282.733 252.598L318.831 258.887L319.187 256.919ZM283.089 250.63C280.863 250.242 278.569 250.749 276.71 252.039L277.847 253.677C279.269 252.689 281.027 252.301 282.733 252.598L283.089 250.63ZM276.71 252.039C274.851 253.331 273.581 255.301 273.18 257.517L275.15 257.86C275.456 256.169 276.426 254.664 277.847 253.677L276.71 252.039ZM273.18 257.517L266.699 293.324L268.669 293.667L275.15 257.86L273.18 257.517Z" fill="#4D834A" mask="url(#path-9-inside-1_2516_43635)"/>
<path d="M400.966 104.533L423.805 137.057" stroke="#4D834A" stroke-linecap="round" stroke-linejoin="round"/>
<mask id="path-12-inside-2_2516_43635" fill="white">
<path d="M366.056 98.4918L394.824 78.5028C400.275 74.7188 407.006 73.2327 413.537 74.3711C420.069 75.5095 425.867 79.1792 429.657 84.5737"/>
</mask>
<path d="M365.487 97.6732C365.032 97.9893 364.918 98.6121 365.232 99.0642C365.546 99.5163 366.169 99.6265 366.624 99.3104L365.487 97.6732ZM394.824 78.5028L394.256 77.6839L394.255 77.6842L394.824 78.5028ZM428.836 85.1504C429.153 85.6009 429.777 85.7078 430.23 85.3893C430.683 85.0708 430.794 84.4475 430.478 83.997L428.836 85.1504ZM366.624 99.3104L395.393 79.3214L394.255 77.6842L365.487 97.6732L366.624 99.3104ZM395.392 79.3216C400.625 75.6892 407.087 74.262 413.359 75.3551L413.715 73.3871C406.924 72.2035 399.925 73.7484 394.256 77.6839L395.392 79.3216ZM413.359 75.3551C419.631 76.4483 425.198 79.972 428.836 85.1504L430.478 83.997C426.536 78.3864 420.507 74.5707 413.715 73.3871L413.359 75.3551Z" fill="#4D834A" mask="url(#path-12-inside-2_2516_43635)"/>
<path d="M299.657 221.892L257.245 228.195L277.86 190.774L299.657 221.892Z" fill="#81DA7B" stroke="#4D834A" stroke-linecap="round" stroke-linejoin="round"/>
<path d="M464.95 107.932C464.827 107.914 464.697 107.943 464.59 108.017L300.788 221.845L278.638 190.224L442.438 76.3988C446.685 73.4486 451.932 72.2891 457.025 73.1763C462.117 74.0636 466.637 76.9247 469.589 81.1295C472.542 85.3341 473.686 90.5379 472.77 95.5961C471.872 100.557 469.065 104.981 464.95 107.932Z" stroke="#4D834A" stroke-linecap="round" stroke-linejoin="round"/>
</g>
</svg>
