<svg width="116" height="116" viewBox="0 0 116 116" fill="none" xmlns="http://www.w3.org/2000/svg">
<path d="M57.9643 116C89.9771 116 115.929 90.0325 115.929 58C115.929 25.9675 89.9771 0 57.9643 0C25.9515 0 0 25.9675 0 58C0 90.0325 25.9515 116 57.9643 116Z" fill="#FFB2B8"/>
<path d="M101.235 77.7906C101.265 77.6761 101.272 77.5565 101.254 77.4394C101.237 77.3222 101.196 77.2098 101.133 77.1091C101.07 77.0109 100.987 76.9269 100.89 76.862C100.792 76.7972 100.683 76.7529 100.568 76.7321C99.2501 76.5257 97.9168 76.4335 96.583 76.4566C95.737 76.4377 94.8997 76.6322 94.1485 77.0221C93.3284 77.5465 92.7419 78.367 92.511 79.3131C92.1389 79.151 91.7326 79.0834 91.3281 79.1162C90.9236 79.1491 90.5335 79.2815 90.1925 79.5016L62.9058 96.9016C62.2847 97.3164 61.8476 97.9551 61.6857 98.6844C61.5237 99.4138 61.6493 100.178 62.0363 100.817L63.1086 102.513C63.3088 102.827 63.569 103.098 63.8743 103.311C64.1795 103.524 64.5238 103.675 64.8873 103.754C65.2508 103.834 65.6265 103.84 65.9927 103.774C66.3589 103.708 66.7084 103.57 67.0212 103.369L94.3224 85.9686C94.6554 85.7538 94.9327 85.4631 95.1317 85.1203C95.3307 84.7775 95.4457 84.3924 95.4672 83.9966C95.7609 84.0693 96.0635 84.0986 96.3657 84.0836C97.0441 84.0555 97.7035 83.8506 98.2785 83.4891C99.858 82.4741 101.017 78.5591 101.235 77.7906Z" fill="#FE7983"/>
<path d="M19.1137 77.2699C19.3464 78.2956 19.7788 79.2653 20.3862 80.1236C20.9936 80.9819 21.7641 81.7121 22.6537 82.2723C23.5433 82.8325 24.5345 83.2118 25.5706 83.3884C26.6068 83.5651 27.6675 83.5357 28.6923 83.3019L100.829 66.8009C101.335 66.6706 101.77 66.3473 102.041 65.9002C102.312 65.4531 102.397 64.9176 102.278 64.4084L94.3079 29.2894C94.1777 28.7831 93.8546 28.3479 93.4077 28.0769C92.9609 27.8059 92.4258 27.7207 91.9169 27.8394L19.7803 44.2824C17.7129 44.7559 15.918 46.0315 14.7902 47.8288C13.6625 49.6261 13.2943 51.798 13.7665 53.8669L19.1137 77.2699Z" fill="#FE7983"/>
<path d="M65.659 99.745C65.4343 99.88 65.1848 99.9688 64.9253 100.006C64.6658 100.043 64.4014 100.029 64.1477 99.9624C63.894 99.8963 63.656 99.7801 63.4478 99.6208C63.2395 99.4614 63.0651 99.2621 62.9347 99.0345L61.9204 97.309C61.787 97.0824 61.6996 96.8318 61.6632 96.5714C61.6267 96.311 61.6419 96.046 61.7078 95.7915C61.7737 95.537 61.8892 95.2979 62.0475 95.0881C62.2058 94.8782 62.4039 94.7017 62.6304 94.5685L88.8013 79.2275C88.9882 79.1134 89.1966 79.039 89.4135 79.0091C89.6305 78.9792 89.8512 78.9943 90.062 79.0535C90.487 79.1681 90.8508 79.4437 91.0764 79.822L92.4241 82.1275C92.5359 82.3156 92.6092 82.5241 92.6398 82.7408C92.6705 82.9575 92.6578 83.1782 92.6025 83.39C92.5472 83.6017 92.4505 83.8004 92.3179 83.9745C92.1852 84.1486 92.0194 84.2945 91.8299 84.404L65.659 99.745Z" fill="white"/>
<path d="M71.2526 89.5078L74.2957 94.6843" stroke="#E53946" stroke-linecap="round" stroke-linejoin="round"/>
<path d="M62.6304 94.5674C62.3653 94.1136 62.1925 93.6119 62.1219 93.0911C62.0513 92.5703 62.0842 92.0406 62.2189 91.5326C62.3536 91.0246 62.5873 90.5482 62.9066 90.1309C63.2259 89.7135 63.6246 89.3635 64.0796 89.1009L74.4262 83.0254" stroke="#E53946" stroke-linecap="round" stroke-linejoin="round"/>
<path d="M95.873 82.0684C95.1812 82.4703 94.3582 82.5807 93.585 82.3754C92.8119 82.1701 92.1519 81.6659 91.7502 80.9736C91.3486 80.2814 91.2383 79.4579 91.4434 78.6843C91.6486 77.9107 92.1525 77.2503 92.8443 76.8484C94.2934 76.0074 98.6407 76.8484 98.6407 76.8484C98.6407 76.8484 97.3076 81.1984 95.873 82.0684Z" fill="#FE7983"/>
<path d="M95.873 82.0684C95.1812 82.4703 94.3582 82.5807 93.585 82.3754C92.8119 82.1701 92.1519 81.6659 91.7502 80.9736C91.3486 80.2814 91.2383 79.4579 91.4434 78.6843C91.6486 77.9107 92.1525 77.2503 92.8443 76.8484C94.2934 76.0074 98.6407 76.8484 98.6407 76.8484C98.6407 76.8484 97.3076 81.1984 95.873 82.0684Z" stroke="#E53946" stroke-linecap="round" stroke-linejoin="round"/>
<path d="M65.659 99.745C65.4343 99.88 65.1848 99.9688 64.9253 100.006C64.6658 100.043 64.4014 100.029 64.1477 99.9624C63.894 99.8963 63.656 99.7801 63.4478 99.6208C63.2395 99.4614 63.0651 99.2621 62.9347 99.0345L61.9204 97.309C61.787 97.0824 61.6996 96.8318 61.6632 96.5714C61.6267 96.311 61.6419 96.046 61.7078 95.7915C61.7737 95.537 61.8892 95.2979 62.0475 95.0881C62.2058 94.8782 62.4039 94.7017 62.6304 94.5685L88.8013 79.2275C88.9882 79.1134 89.1966 79.039 89.4135 79.0091C89.6305 78.9792 89.8512 78.9943 90.062 79.0535C90.487 79.1681 90.8508 79.4437 91.0764 79.822L92.4241 82.1275C92.5359 82.3156 92.6092 82.5241 92.6398 82.7408C92.6705 82.9575 92.6578 83.1782 92.6025 83.39C92.5472 83.6017 92.4505 83.8004 92.3179 83.9745C92.1852 84.1486 92.0194 84.2945 91.8299 84.404L65.659 99.745Z" stroke="#E53946" stroke-linecap="round" stroke-linejoin="round"/>
<path d="M23.3596 40.9037L21.2004 31.1307C21.1425 30.8642 21.0196 30.6161 20.8426 30.4086C20.6656 30.2012 20.44 30.0408 20.186 29.9417C19.9299 29.8415 19.6529 29.8062 19.3798 29.8391C19.1068 29.872 18.8461 29.972 18.621 30.1302C17.6503 30.8099 16.9024 31.762 16.4717 32.8665C16.0411 33.9709 15.9469 35.1783 16.201 36.3362L24.4029 73.4562C24.5728 74.2267 24.8927 74.9561 25.3445 75.6028C25.7963 76.2495 26.3711 76.8007 27.0359 77.2249C27.7008 77.6491 28.4427 77.938 29.2193 78.0751C29.9958 78.2121 30.7917 78.1947 31.5615 78.0237L100.22 62.8422C100.636 62.7387 100.995 62.4791 101.225 62.1173C101.454 61.7556 101.535 61.3194 101.452 60.8992L94.0181 26.9982C93.9717 26.7839 93.8835 26.5808 93.7586 26.4006C93.6336 26.2204 93.4744 26.0666 93.29 25.9481C93.1056 25.8296 92.8996 25.7486 92.6839 25.7098C92.4681 25.6711 92.2469 25.6753 92.0328 25.7222L23.3596 40.9037Z" fill="white"/>
<path d="M94.6992 57.9258L65.4127 64.3928" stroke="#E53946" stroke-linecap="round" stroke-linejoin="round"/>
<path d="M55.6023 47.8491C55.5532 47.6372 55.5472 47.4177 55.5845 47.2035C55.6219 46.9893 55.7018 46.7848 55.8196 46.6021C55.9357 46.4156 56.0878 46.2542 56.2669 46.1272C56.4461 46.0003 56.6487 45.9103 56.863 45.8626L88.7434 38.8156C88.9566 38.7665 89.1774 38.7602 89.3931 38.7972C89.6087 38.8342 89.8149 38.9137 89.9996 39.031C90.1843 39.1484 90.3438 39.3013 90.469 39.4809C90.5941 39.6604 90.6824 39.8631 90.7286 40.0771L92.1778 46.6021C92.2729 47.0327 92.1936 47.4835 91.9573 47.8558C91.721 48.2281 91.347 48.4916 90.917 48.5886L59.0367 55.6356C58.8226 55.6825 58.6013 55.6867 58.3856 55.6479C58.1698 55.6092 57.9639 55.5282 57.7795 55.4097C57.5951 55.2912 57.4358 55.1374 57.3109 54.9572C57.1859 54.777 57.0978 54.5739 57.0514 54.3596L55.6023 47.8491Z" stroke="#E53946" stroke-linecap="round" stroke-linejoin="round"/>
<path d="M89.0912 32.5215L81.2805 34.247" stroke="#E53946" stroke-linecap="round" stroke-linejoin="round"/>
<path d="M32.0108 61.5352L32.8658 65.4356" stroke="#E53946" stroke-linecap="round" stroke-linejoin="round"/>
<path d="M35.9234 60.668L36.7783 64.583" stroke="#E53946" stroke-linecap="round" stroke-linejoin="round"/>
<path d="M39.8215 59.8105L40.6909 63.711" stroke="#E53946" stroke-linecap="round" stroke-linejoin="round"/>
<path d="M43.734 58.9414L44.589 62.8564" stroke="#E53946" stroke-linecap="round" stroke-linejoin="round"/>
<path d="M47.6321 58.0879L48.5016 61.9884" stroke="#E53946" stroke-linecap="round" stroke-linejoin="round"/>
<path d="M23.9682 71.4988L51.3129 65.4668" stroke="#E53946" stroke-linecap="round" stroke-linejoin="round"/>
<path d="M27.2432 58.4923L48.719 53.7363" stroke="#E53946" stroke-linecap="round" stroke-linejoin="round"/>
<path d="M23.3596 40.9037L92.0328 25.7222C92.2469 25.6753 92.4681 25.6711 92.6839 25.7098C92.8996 25.7486 93.1056 25.8296 93.29 25.9481C93.4744 26.0666 93.6336 26.2204 93.7586 26.4006C93.8835 26.5808 93.9717 26.7839 94.0181 26.9982L101.452 60.8992C101.499 61.1134 101.503 61.3348 101.464 61.5507C101.426 61.7666 101.345 61.9726 101.226 62.1572C101.108 62.3417 100.954 62.501 100.774 62.626C100.594 62.7511 100.391 62.8393 100.177 62.8857L31.5615 78.0237C30.1049 78.3777 28.5686 78.1733 27.2551 77.4506C25.9416 76.728 24.946 75.5395 24.4644 74.1192C23.9828 72.6988 24.05 71.1495 24.6527 69.7763C25.2555 68.403 26.3503 67.3053 27.7214 66.6992C28.0657 66.5397 28.3453 66.2673 28.5139 65.9272C28.6826 65.5871 28.7302 65.1996 28.6488 64.8287L21.2004 31.1307C21.1425 30.8642 21.0196 30.6161 20.8426 30.4086C20.6656 30.2012 20.44 30.0408 20.186 29.9417C19.9299 29.8415 19.6529 29.8062 19.3798 29.8391C19.1068 29.872 18.8461 29.972 18.621 30.1302C17.6503 30.8099 16.9024 31.762 16.4717 32.8665C16.0411 33.9709 15.9469 35.1783 16.201 36.3362L24.4029 73.4562" stroke="#E53946" stroke-linecap="round" stroke-linejoin="round"/>
<path d="M60.0075 49.1973L60.4423 51.1548" stroke="#E53946" stroke-linecap="round" stroke-linejoin="round"/>
<path d="M65.8619 47.9062L66.2966 49.8493" stroke="#E53946" stroke-linecap="round" stroke-linejoin="round"/>
<path d="M69.7745 47.0371L70.1948 48.9946" stroke="#E53946" stroke-linecap="round" stroke-linejoin="round"/>
<path d="M73.6726 46.1797L74.1073 48.1227" stroke="#E53946" stroke-linecap="round" stroke-linejoin="round"/>
<path d="M79.527 44.877L79.9618 46.8345" stroke="#E53946" stroke-linecap="round" stroke-linejoin="round"/>
<path d="M83.4396 44.0195L83.8744 45.9625" stroke="#E53946" stroke-linecap="round" stroke-linejoin="round"/>
<path d="M87.3522 43.1523L87.7724 45.1098" stroke="#E53946" stroke-linecap="round" stroke-linejoin="round"/>
<path d="M47.067 46.256C47.116 46.4679 47.1221 46.6874 47.0847 46.9016C47.0474 47.1158 46.9675 47.3203 46.8496 47.503C46.6083 47.8732 46.2353 48.1376 45.8063 48.2425L25.9535 52.5925L24.6493 46.7925L44.5021 42.4425C44.7153 42.3934 44.9361 42.3872 45.1518 42.4242C45.3674 42.4611 45.5736 42.5406 45.7583 42.658C45.943 42.7753 46.1025 42.9282 46.2277 43.1078C46.3529 43.2874 46.4411 43.49 46.4874 43.704L47.067 46.256Z" fill="#FE7983" stroke="#E53946" stroke-linecap="round" stroke-linejoin="round"/>
<path d="M72.238 62.8853C71.6588 63.0116 71.0551 62.9635 70.5032 62.7468C69.9513 62.5301 69.4759 62.1546 69.1372 61.6677C68.7984 61.1809 68.6114 60.6045 68.5998 60.0114C68.5882 59.4183 68.7525 58.835 69.072 58.3353C69.3915 57.8356 69.8518 57.4418 70.3948 57.2036C70.9378 56.9655 71.5391 56.8937 72.1229 56.9973C72.7066 57.1009 73.2466 57.3753 73.6746 57.7858C74.1026 58.1963 74.3994 58.7246 74.5276 59.3038" stroke="#E53946" stroke-linecap="round" stroke-linejoin="round"/>
<path d="M86.0335 55.7363C86.2019 56.5149 86.0556 57.3284 85.6267 57.9994C85.1977 58.6704 84.5209 59.1444 83.7439 59.3178" stroke="#E53946" stroke-linecap="round" stroke-linejoin="round"/>
<path d="M74.745 60.2885C74.5722 59.5117 74.7148 58.6981 75.1415 58.0265C75.5681 57.3548 76.2438 56.8803 77.0201 56.707" stroke="#E53946" stroke-linecap="round" stroke-linejoin="round"/>
<path d="M79.6285 59.2026C79.4557 58.4258 79.5983 57.6121 80.025 56.9405C80.4516 56.2689 81.1273 55.7943 81.9036 55.6211" stroke="#E53946" stroke-linecap="round" stroke-linejoin="round"/>
</svg>
