<svg width="124" height="124" viewBox="0 0 124 124" fill="none" xmlns="http://www.w3.org/2000/svg">
<g filter="url(#filter0_d_816_11707)">
<circle cx="62" cy="58" r="32" fill="#81DA7B"/>
<mask id="mask0_816_11707" style="mask-type:alpha" maskUnits="userSpaceOnUse" x="31" y="29" width="62" height="61">
<circle cx="61.6893" cy="59.6552" r="30.3448" fill="#C4C4C4"/>
</mask>
<g mask="url(#mask0_816_11707)">
<path d="M74.1977 58.2152C74.1944 57.6912 74.0097 57.1846 73.675 56.7814C73.3403 56.3783 72.8763 56.1036 72.3619 56.0039V54.5297C72.2604 51.6708 71.0533 48.9628 68.9948 46.9761C66.9364 44.9894 64.1873 43.8792 61.3265 43.8792C58.4657 43.8792 55.7166 44.9894 53.6581 46.9761C51.5997 48.9628 50.3926 51.6708 50.2911 54.5297V56.0039C49.7767 56.1036 49.3126 56.3783 48.978 56.7814C48.6433 57.1846 48.4586 57.6912 48.4553 58.2152C48.4629 58.7799 48.6785 59.322 49.0608 59.7377C49.4432 60.1533 49.9654 60.4134 50.5275 60.4681C51.049 62.9478 52.4075 65.1727 54.3751 66.7695C56.3426 68.3663 58.7995 69.2378 61.3334 69.2378C63.8674 69.2378 66.3242 68.3663 68.2918 66.7695C70.2593 65.1727 71.6178 62.9478 72.1394 60.4681C72.7002 60.4132 73.2208 60.1526 73.6008 59.7366C73.9809 59.3206 74.1935 58.7786 74.1977 58.2152Z" fill="#FFDA8F" stroke="#191816" stroke-linecap="round" stroke-linejoin="round"/>
<path d="M55.3532 60.9686C56.1136 60.9686 56.73 60.3522 56.73 59.5918C56.73 58.8314 56.1136 58.215 55.3532 58.215C54.5928 58.215 53.9764 58.8314 53.9764 59.5918C53.9764 60.3522 54.5928 60.9686 55.3532 60.9686Z" fill="#FFBE3D"/>
<path d="M67.2996 60.9686C68.06 60.9686 68.6764 60.3522 68.6764 59.5918C68.6764 58.8314 68.06 58.215 67.2996 58.215C66.5392 58.215 65.9228 58.8314 65.9228 59.5918C65.9228 60.3522 66.5392 60.9686 67.2996 60.9686Z" fill="#FFBE3D"/>
<path d="M66.2983 56.3659C66.1535 56.22 65.9812 56.1041 65.7915 56.0251C65.6017 55.9461 65.3982 55.9054 65.1927 55.9054C64.9871 55.9054 64.7836 55.9461 64.5938 56.0251C64.4041 56.1041 64.2318 56.22 64.087 56.3659" stroke="#191816" stroke-linecap="round" stroke-linejoin="round"/>
<path d="M56.3546 56.3659C56.4994 56.22 56.6717 56.1041 56.8614 56.0251C57.0512 55.9461 57.2547 55.9054 57.4603 55.9054C57.6658 55.9054 57.8694 55.9461 58.0591 56.0251C58.2489 56.1041 58.4211 56.22 58.5659 56.3659" stroke="#191816" stroke-linecap="round" stroke-linejoin="round"/>
<path d="M64.1148 62.8741C63.3136 63.4788 62.3371 63.806 61.3333 63.806C60.3295 63.806 59.3531 63.4788 58.5519 62.8741" stroke="#191816" stroke-linecap="round" stroke-linejoin="round"/>
<path d="M55.7706 37.9803C48.4137 40.7618 48.358 47.0479 48.358 52.6942C48.358 58.9942 49.1786 55.3227 51.7792 56.6161C51.9 56.6765 52.0325 56.7094 52.1675 56.7127C52.3024 56.716 52.4364 56.6894 52.5599 56.635C52.6835 56.5805 52.7934 56.4995 52.8821 56.3977C52.9707 56.2959 53.0357 56.1757 53.0726 56.0459L54.3799 51.4982C54.5274 50.9583 54.8766 50.4957 55.3554 50.2058C55.8342 49.9159 56.406 49.821 56.9527 49.9406C59.7964 50.6571 62.7733 50.6571 65.617 49.9406C65.8946 49.8672 66.184 49.8493 66.4685 49.8879C66.753 49.9265 67.0272 50.0208 67.2752 50.1655C67.5232 50.3102 67.7403 50.5024 67.9139 50.7311C68.0876 50.9598 68.2144 51.2204 68.2872 51.4982L69.5945 56.0459C69.6334 56.1743 69.6997 56.2929 69.7887 56.3933C69.8777 56.4938 69.9874 56.5738 70.1102 56.628C70.2331 56.6821 70.3661 56.7091 70.5003 56.707C70.6345 56.705 70.7667 56.674 70.8878 56.6161C73.4885 55.3227 74.309 58.9942 74.309 52.6942C74.2534 37.0207 59.5534 43.9048 55.7706 37.9803Z" fill="#614B44"/>
<path d="M54.4633 42.8201C54.8003 42.6505 55.1814 42.589 55.5546 42.6437C55.9279 42.6984 56.2752 42.8669 56.5494 43.126C60.958 47.2982 73.113 42.6115 74.1838 55.1002C74.1838 54.5439 74.1838 53.7095 74.1838 52.6942C74.1838 37.0207 59.4838 43.8909 55.7428 37.9803C48.3858 40.7618 48.3302 47.0479 48.3302 52.6942C48.3302 53.3618 48.3302 53.9042 48.3302 54.377C48.5666 49.8572 49.415 45.3234 54.4633 42.8201Z" fill="#947063"/>
<path d="M55.7706 37.9803C48.4137 40.7618 48.358 47.0479 48.358 52.6942C48.358 58.9942 49.1786 55.3227 51.7792 56.6161C51.9 56.6765 52.0325 56.7094 52.1675 56.7127C52.3024 56.716 52.4364 56.6894 52.5599 56.635C52.6835 56.5805 52.7934 56.4995 52.8821 56.3977C52.9707 56.2959 53.0357 56.1757 53.0726 56.0459L54.3799 51.4982C54.5274 50.9583 54.8766 50.4957 55.3554 50.2058C55.8342 49.9159 56.406 49.821 56.9527 49.9406C59.7964 50.6571 62.7733 50.6571 65.617 49.9406C65.8946 49.8672 66.184 49.8493 66.4685 49.8879C66.753 49.9265 67.0272 50.0208 67.2752 50.1655C67.5232 50.3102 67.7403 50.5024 67.9139 50.7311C68.0876 50.9598 68.2144 51.2204 68.2872 51.4982L69.5945 56.0459C69.6334 56.1743 69.6997 56.2929 69.7887 56.3933C69.8777 56.4938 69.9874 56.5738 70.1102 56.628C70.2331 56.6821 70.3661 56.7091 70.5003 56.707C70.6345 56.705 70.7667 56.674 70.8878 56.6161C73.4885 55.3227 74.309 58.9942 74.309 52.6942C74.2534 37.0207 59.5534 43.9048 55.7706 37.9803Z" stroke="#191816" stroke-linecap="round" stroke-linejoin="round"/>
<path d="M61.3335 72.9291C51.8348 73.1099 42.9342 80.0774 42.9342 92.2324H49.3733V105.987H73.2799V92.2324H79.7189C79.7189 80.0774 70.8183 73.1099 61.3335 72.9291Z" fill="#F0F0F0"/>
<path d="M61.3335 72.9291C51.8348 73.1099 42.9342 80.0774 42.9342 92.2324H49.3733V105.987H73.2799V92.2324H79.7189C79.7189 80.0774 70.8183 73.1099 61.3335 72.9291Z" fill="#54A9FF" stroke="#0688F2" stroke-linecap="round" stroke-linejoin="round"/>
<path d="M61.3335 78.4364C65.3997 78.441 69.3486 79.7996 72.5569 82.2977C75.7653 84.7959 78.0503 88.2913 79.0514 92.2324H79.7189C79.7189 80.0774 70.8183 73.1099 61.3335 72.9291C51.8348 73.1099 42.9342 80.0774 42.9342 92.2324H43.6156C44.6146 88.2902 46.899 84.7934 50.1078 82.2948C53.3166 79.7963 57.2667 78.4386 61.3335 78.4364Z" fill="#A9D4FB"/>
<path d="M61.3335 72.9291C51.8348 73.1099 42.9342 80.0774 42.9342 92.2324H49.3733V105.987H73.2799V92.2324H79.7189C79.7189 80.0774 70.8183 73.1099 61.3335 72.9291Z" stroke="#191816" stroke-linecap="round" stroke-linejoin="round"/>
<path d="M73.2797 92.7886V86.1549" stroke="#191816" stroke-linecap="round" stroke-linejoin="round"/>
<path d="M49.3732 92.7886V86.1549" stroke="#191816" stroke-linecap="round" stroke-linejoin="round"/>
<path d="M55.7704 73.8192C55.9695 75.1354 56.634 76.3366 57.6433 77.2046C58.6525 78.0727 59.9396 78.55 61.2707 78.55C62.6019 78.55 63.889 78.0727 64.8982 77.2046C65.9075 76.3366 66.572 75.1354 66.7711 73.8192C63.2002 72.6324 59.3413 72.6324 55.7704 73.8192Z" fill="#FFDA8F" stroke="#191816" stroke-linecap="round" stroke-linejoin="round"/>
</g>
</g>
<defs>
<filter id="filter0_d_816_11707" x="0" y="0" width="124" height="124" filterUnits="userSpaceOnUse" color-interpolation-filters="sRGB">
<feFlood flood-opacity="0" result="BackgroundImageFix"/>
<feColorMatrix in="SourceAlpha" type="matrix" values="0 0 0 0 0 0 0 0 0 0 0 0 0 0 0 0 0 0 127 0" result="hardAlpha"/>
<feOffset dy="4"/>
<feGaussianBlur stdDeviation="15"/>
<feComposite in2="hardAlpha" operator="out"/>
<feColorMatrix type="matrix" values="0 0 0 0 0 0 0 0 0 0 0 0 0 0 0 0 0 0 0.1 0"/>
<feBlend mode="normal" in2="BackgroundImageFix" result="effect1_dropShadow_816_11707"/>
<feBlend mode="normal" in="SourceGraphic" in2="effect1_dropShadow_816_11707" result="shape"/>
</filter>
</defs>
</svg>
