<svg width="132" height="76" viewBox="0 0 132 76" fill="none" xmlns="http://www.w3.org/2000/svg">
<path d="M3.16104 18.8165C2.56715 18.8165 1.99757 19.0529 1.57763 19.4736C1.15768 19.8944 0.921753 20.4651 0.921753 21.0601V73.113C0.926838 73.7065 1.1644 74.2742 1.58325 74.6939C2.0021 75.1135 2.56872 75.3516 3.16104 75.3567H80.1536C80.5956 75.3571 81.0334 75.2694 81.4412 75.0985C81.8491 74.9277 82.2189 74.6772 82.5291 74.3616L93.9787 62.8702C94.2893 62.5571 94.5351 62.1857 94.7022 61.7773C94.8693 61.3688 94.9543 60.9314 94.9523 60.49V21.0601C94.9549 20.7648 94.8988 20.4719 94.7871 20.1985C94.6755 19.9251 94.5107 19.6767 94.3022 19.4678C94.0938 19.259 93.8459 19.0938 93.573 18.982C93.3002 18.8701 93.0078 18.8139 92.713 18.8165H3.16104Z" fill="white"/>
<path d="M80.1541 74.8567H80.1536H3.16327C2.70312 74.8522 2.26286 74.667 1.93714 74.3407L1.5852 74.6919L1.93714 74.3407C1.61138 74.0143 1.42624 73.5727 1.42175 73.1107V21.0601C1.42175 20.5974 1.60524 20.1538 1.93152 19.8269C2.25778 19.5 2.70007 19.3165 3.16104 19.3165L92.713 19.3165L92.7174 19.3165C92.9457 19.3145 93.1721 19.358 93.3834 19.4446C93.5947 19.5312 93.7868 19.6592 93.9483 19.8211C94.1099 19.9829 94.2377 20.1755 94.3242 20.3875C94.4108 20.5995 94.4543 20.8266 94.4523 21.0558V21.0601L94.4523 60.49L94.4523 60.4922C94.454 60.868 94.3816 61.2403 94.2394 61.588C94.0972 61.9356 93.8881 62.2516 93.6239 62.5179C93.6239 62.518 93.6238 62.518 93.6237 62.5181L82.1749 74.0087L82.1726 74.0111C81.9089 74.2793 81.5946 74.4922 81.2481 74.6374C80.9015 74.7825 80.5296 74.8571 80.1541 74.8567Z" stroke="#98262F" stroke-linecap="round" stroke-linejoin="round"/>
<path d="M94.9716 20.7674V29.5859L0.921524 29.5859V20.7674C0.921524 20.25 1.12667 19.7537 1.49184 19.3878C1.85702 19.022 2.35229 18.8164 2.86873 18.8164L93.0244 18.8164C93.5408 18.8164 94.0361 19.022 94.4012 19.3878C94.7664 19.7537 94.9716 20.25 94.9716 20.7674Z" fill="#FE3F4E"/>
<path d="M10.3269 47.0859H45.2598" stroke="#98262F" stroke-linecap="round" stroke-linejoin="round"/>
<path d="M10.3269 39.0098H35.8548" stroke="#98262F" stroke-linecap="round" stroke-linejoin="round"/>
<path d="M44.1497 56.5098C43.524 57.1357 43.062 57.9067 42.8048 58.7544C42.5477 59.6021 42.5032 60.5003 42.6754 61.3693C42.8477 62.2383 43.2312 63.0513 43.7921 63.7363C44.3531 64.4212 45.074 64.9568 45.891 65.2958C46.708 65.6347 47.5958 65.7664 48.4758 65.6791C49.3558 65.5919 50.2007 65.2885 50.9356 64.7958C51.6705 64.3031 52.2727 63.6363 52.6888 62.8545C53.1049 62.0728 53.3221 61.2002 53.3211 60.3142V61.3873C53.3211 62.5308 53.7745 63.6275 54.5815 64.4361C55.3885 65.2447 56.4831 65.699 57.6244 65.699C58.7657 65.699 59.8603 65.2447 60.6673 64.4361C61.4743 63.6275 61.9277 62.5308 61.9277 61.3873C61.9277 62.5308 62.3811 63.6275 63.1881 64.4361C63.9952 65.2447 65.0897 65.699 66.2311 65.699H69.4439" stroke="#98262F" stroke-linecap="round" stroke-linejoin="round"/>
<path d="M94.4716 20.7674V29.0859L1.42152 29.0859V20.7674C1.42152 20.3823 1.57423 20.0131 1.84574 19.7411C2.11723 19.469 2.48522 19.3164 2.86873 19.3164L93.0244 19.3164C93.4079 19.3164 93.7759 19.469 94.0473 19.7411C94.3188 20.0131 94.4716 20.3823 94.4716 20.7674Z" stroke="#98262F" stroke-linecap="round" stroke-linejoin="round"/>
<path d="M129.496 10.1544L87.4556 52.2962L79.0826 43.8873L121.123 1.74557C122.238 0.627903 123.751 -1.17766e-08 125.329 0C126.906 1.17766e-08 128.419 0.627903 129.535 1.74557C130.65 2.86324 131.277 4.37913 131.277 5.95975C131.277 7.54037 130.65 9.05625 129.535 10.1739L129.496 10.1544Z" fill="white"/>
<mask id="path-9-inside-1_2472_140387" fill="white">
<path d="M94.6797 61.8945H83.7753C83.1814 61.8945 82.6118 62.1309 82.1919 62.5517C81.7719 62.9725 81.536 63.5431 81.536 64.1382V75.0443"/>
</mask>
<path d="M94.6797 62.8945C95.2319 62.8945 95.6797 62.4468 95.6797 61.8945C95.6797 61.3422 95.2319 60.8945 94.6797 60.8945V62.8945ZM80.536 75.0443C80.536 75.5966 80.9837 76.0443 81.536 76.0443C82.0883 76.0443 82.536 75.5966 82.536 75.0443H80.536ZM94.6797 60.8945H83.7753V62.8945H94.6797V60.8945ZM83.7753 60.8945C82.9155 60.8945 82.0914 61.2368 81.4841 61.8453L82.8997 63.2581C83.1322 63.0251 83.4473 62.8945 83.7753 62.8945V60.8945ZM81.4841 61.8453C80.8768 62.4537 80.536 63.2785 80.536 64.1382H82.536C82.536 63.8077 82.667 63.4912 82.8997 63.2581L81.4841 61.8453ZM80.536 64.1382V75.0443H82.536V64.1382H80.536Z" fill="#98262F" mask="url(#path-9-inside-1_2472_140387)"/>
<path d="M110.569 12.2617L118.981 20.6901" stroke="#98262F" stroke-linecap="round" stroke-linejoin="round"/>
<mask id="path-12-inside-2_2472_140387" fill="white">
<path d="M100.054 12.2605L107.415 4.88573C108.809 3.48942 110.7 2.70508 112.672 2.70508C114.644 2.70508 116.535 3.48942 117.929 4.88573"/>
</mask>
<path d="M99.3463 11.5541C98.9561 11.945 98.9568 12.5782 99.3477 12.9683C99.7386 13.3585 100.372 13.3579 100.762 12.967L99.3463 11.5541ZM107.415 4.88573L106.707 4.17902L106.707 4.17932L107.415 4.88573ZM117.222 5.59245C117.612 5.98319 118.245 5.98354 118.636 5.59323C119.027 5.20292 119.027 4.56975 118.637 4.17902L117.222 5.59245ZM100.762 12.967L108.122 5.59215L106.707 4.17932L99.3463 11.5541L100.762 12.967ZM108.122 5.59245C109.329 4.38371 110.966 3.70508 112.672 3.70508V1.70508C110.435 1.70508 108.289 2.59514 106.707 4.17902L108.122 5.59245ZM112.672 3.70508C114.378 3.70508 116.015 4.38371 117.222 5.59245L118.637 4.17902C117.055 2.59514 114.909 1.70508 112.672 1.70508V3.70508Z" fill="#98262F" mask="url(#path-12-inside-2_2472_140387)"/>
<path d="M86.4938 52.0791L75.611 55.7194L79.261 44.8153L86.4938 52.0791Z" fill="#FE3F4E" stroke="#98262F" stroke-linecap="round" stroke-linejoin="round"/>
<path d="M129.305 9.69225C129.245 9.71693 129.189 9.75348 129.142 9.80129L87.456 51.5879L79.7886 43.8877L121.477 2.09878C121.477 2.09875 121.477 2.09873 121.477 2.0987C122.499 1.07496 123.884 0.5 125.329 0.5C126.773 0.5 128.159 1.07499 129.181 2.09878C130.203 3.12261 130.777 4.51142 130.777 5.95975C130.777 7.34837 130.249 8.68228 129.305 9.69225Z" stroke="#98262F" stroke-linecap="round" stroke-linejoin="round"/>
</svg>
