<svg width="27" height="22" viewBox="0 0 27 22" fill="none" xmlns="http://www.w3.org/2000/svg">
<path d="M22.7533 0.73604C22.7296 0.759419 22.7074 0.784304 22.6868 0.810542L11.1462 15.7954L4.19122 8.70429C3.71878 8.25565 3.09391 8.01141 2.44825 8.02302C1.8026 8.03463 1.18657 8.30118 0.729954 8.76652C0.273336 9.23186 0.0117801 9.85965 0.000388279 10.5176C-0.0110035 11.1756 0.228658 11.8124 0.668883 12.2939L9.46143 21.2577C9.6983 21.4987 9.98036 21.6886 10.2908 21.816C10.6012 21.9435 10.9337 22.0059 11.2683 21.9996C11.6029 21.9932 11.9328 21.9183 12.2384 21.7792C12.544 21.6401 12.819 21.4397 13.0469 21.19L26.3121 4.29178C26.7638 3.80864 27.0108 3.16375 26.9996 2.49653C26.9885 1.82931 26.7201 1.19337 26.2525 0.726201C25.7849 0.259031 25.1557 -0.00183144 24.5009 9.67988e-06C23.8461 0.0018508 23.2183 0.266248 22.7533 0.73604Z" fill="#6CB4FE"/>
</svg>
