<svg width="41" height="41" viewBox="0 0 41 41" fill="none" xmlns="http://www.w3.org/2000/svg">
<ellipse cx="20.4405" cy="20.5" rx="20.4405" ry="20.5" fill="#54A9FF"/>
<g clip-path="url(#clip0_917_27090)">
<path d="M30.4546 26.0709C30.6527 25.9162 30.8106 25.7158 30.9149 25.4867C31.0192 25.2577 31.0668 25.0067 31.0536 24.7553C31.0404 24.5038 30.9669 24.2592 30.8393 24.0424C30.7116 23.8256 30.5337 23.6428 30.3205 23.5098L30.3143 18.7575L28.7552 19.8051V23.5066C28.5445 23.6396 28.3686 23.8213 28.2421 24.0364C28.1157 24.2514 28.0424 24.4938 28.0283 24.7431C28.0143 24.9924 28.0599 25.2414 28.1614 25.4694C28.2629 25.6974 28.4174 25.8977 28.6118 26.0537L28.0225 26.8386C27.4984 27.5073 27.2081 28.3303 27.1962 29.1808V31.0915H28.4668C28.7721 31.0914 29.0686 30.9893 29.3094 30.8013C29.5503 30.6133 29.7217 30.35 29.7967 30.0533L30.3127 27.9644V31.0915H31.8717V29.1996C31.8598 28.3447 31.5672 27.5176 31.0392 26.8464L30.4546 26.0709Z" fill="white"/>
<path d="M19.8494 10.6485C19.5673 10.5071 19.235 10.5071 18.9529 10.6485L8.51826 15.881C7.82117 16.2306 7.77466 17.2081 8.43541 17.6222L18.87 24.1629C19.1948 24.3665 19.6074 24.3665 19.9322 24.1629L30.3669 17.6222C31.0276 17.2081 30.9811 16.2306 30.284 15.881L19.8494 10.6485Z" fill="white"/>
<path d="M19.4011 26.0593L11.606 20.8527V23.5263C11.606 24.9492 16.1896 29.1864 19.4011 29.1864C22.6127 29.1864 27.1962 24.9492 27.1962 23.5263V20.8527L19.4011 26.0593Z" fill="white"/>
</g>
<defs>
<clipPath id="clip0_917_27090">
<rect width="24.9443" height="25.0169" fill="white" transform="translate(6.92899 10.4237)"/>
</clipPath>
</defs>
</svg>
