<svg width="17" height="16" viewBox="0 0 17 16" fill="none" xmlns="http://www.w3.org/2000/svg">
<path fill-rule="evenodd" clip-rule="evenodd" d="M6.21622 6.95301C5.87177 6.95301 5.59941 7.20914 5.59941 7.53306C5.59941 7.84945 5.87177 8.1131 6.21622 8.1131H11.0226V11.7139C11.0226 13.5595 9.42847 15.0661 7.45787 15.0661H3.55671C1.59411 15.0661 0 13.567 0 11.7214V3.35221C0 1.49908 1.60212 0 3.56472 0H7.47389C9.42847 0 11.0226 1.49908 11.0226 3.34468V6.95301H6.21622ZM13.8808 4.9268L16.1798 7.11892C16.2979 7.23192 16.3608 7.37505 16.3608 7.53324C16.3608 7.6839 16.2979 7.83456 16.1798 7.94003L13.8808 10.1321C13.7627 10.2451 13.6052 10.3054 13.4556 10.3054C13.2981 10.3054 13.1407 10.2451 13.0226 10.1321C12.7864 9.90615 12.7864 9.53703 13.0226 9.31104L14.2823 8.11329H11.0228V6.9532H14.2823L13.0226 5.75544C12.7864 5.52945 12.7864 5.16033 13.0226 4.93434C13.2588 4.70081 13.6446 4.70081 13.8808 4.9268Z" fill="white"/>
</svg>
