<?xml version="1.0" encoding="utf-8"?>
<!-- Generator: Adobe Illustrator 23.1.0, SVG Export Plug-In . SVG Version: 6.00 Build 0)  -->
<svg version="1.1" id="Layer_1" xmlns="http://www.w3.org/2000/svg" xmlns:xlink="http://www.w3.org/1999/xlink" x="0px" y="0px"
	 viewBox="0 0 41 41" style="enable-background:new 0 0 41 41;" xml:space="preserve">
<style type="text/css">
	.st0{fill:#D1D1D1;}
	.st1{clip-path:url(#SVGID_2_);}
	.st2{fill:#FFFFFF;}
</style>
<ellipse class="st0" cx="20.4" cy="20.5" rx="20.4" ry="20.5"/>
<g>
	<defs>
		<rect id="SVGID_1_" x="6.9" y="10.4" width="24.9" height="25"/>
	</defs>
	<clipPath id="SVGID_2_">
		<use xlink:href="#SVGID_1_"  style="overflow:visible;"/>
	</clipPath>
	<g class="st1">
		<path class="st2" d="M30.5,26.1c0.2-0.2,0.4-0.4,0.5-0.6c0.1-0.2,0.2-0.5,0.1-0.7c0-0.3-0.1-0.5-0.2-0.7c-0.1-0.2-0.3-0.4-0.5-0.5
			l0-4.8l-1.6,1v3.7c-0.2,0.1-0.4,0.3-0.5,0.5c-0.1,0.2-0.2,0.5-0.2,0.7c0,0.2,0,0.5,0.1,0.7c0.1,0.2,0.3,0.4,0.5,0.6L28,26.8
			c-0.5,0.7-0.8,1.5-0.8,2.3v1.9h1.3c0.3,0,0.6-0.1,0.8-0.3c0.2-0.2,0.4-0.5,0.5-0.7l0.5-2.1v3.1h1.6v-1.9c0-0.9-0.3-1.7-0.8-2.4
			L30.5,26.1z"/>
		<path class="st2" d="M19.8,10.6c-0.3-0.1-0.6-0.1-0.9,0L8.5,15.9c-0.7,0.3-0.7,1.3-0.1,1.7l10.4,6.5c0.3,0.2,0.7,0.2,1.1,0
			l10.4-6.5c0.7-0.4,0.6-1.4-0.1-1.7L19.8,10.6z"/>
		<path class="st2" d="M19.4,26.1l-7.8-5.2v2.7c0,1.4,4.6,5.7,7.8,5.7c3.2,0,7.8-4.2,7.8-5.7v-2.7L19.4,26.1z"/>
	</g>
</g>
</svg>
