<svg width="89" height="82" viewBox="0 0 89 82" fill="none" xmlns="http://www.w3.org/2000/svg">
<mask id="mask0_924_30357" style="mask-type:alpha" maskUnits="userSpaceOnUse" x="0" y="0" width="89" height="82">
<path d="M0 20C0 8.95431 8.95431 0 20 0H89V82H20C8.95431 82 0 73.0457 0 62V20Z" fill="#C4C4C4"/>
</mask>
<g mask="url(#mask0_924_30357)">
<path d="M117.398 -11.8812C118.42 -10.8634 119 -9.48929 119 -8.04733V96.5714C119 99.5741 116.563 102 113.545 102H4.45455C1.4375 102 -1 99.5741 -1 96.5714V-44.5714C-1 -47.5741 1.4375 -50 4.45455 -50H76.8466C78.2955 -50 79.6932 -49.4232 80.7159 -48.4054L117.398 -11.8812V-11.8812ZM106.42 -5.55357L74.3409 -37.4804V-5.55357H106.42Z" fill="#87C3FF"/>
<path d="M62.5594 31.5328C62.8406 31.8141 63 32.1937 63 32.5922V61.5C63 62.3297 62.3297 63 61.5 63H31.5C30.6703 63 30 62.3297 30 61.5V22.5C30 21.6703 30.6703 21 31.5 21H51.4078C51.8063 21 52.1906 21.1594 52.4719 21.4406L62.5594 31.5328V31.5328ZM59.5406 33.2812L50.7188 24.4594V33.2812H59.5406Z" fill="white"/>
</g>
</svg>
