<svg width="37" height="37" viewBox="0 0 37 37" fill="none" xmlns="http://www.w3.org/2000/svg">
<g clip-path="url(#clip0_777_13167)">
<path d="M31.1318 5.23262C27.6727 1.88884 23.1212 0 18.274 0C4.36178 0 -4.37392 15.0728 2.57307 27.0628L0 36.4114L9.6111 33.9051C13.7984 36.1672 17.2287 35.9669 18.2831 36.1004C34.4149 36.1004 42.4451 16.5839 31.109 5.29179L31.1318 5.23262Z" fill="#ECEFF1"/>
<path d="M18.3074 32.9992L18.2983 32.9977H18.274C13.4465 32.9977 10.3621 30.7113 10.0587 30.5793L4.36942 32.0586L5.89415 26.5286L5.53155 25.9596C4.02958 23.5686 3.23157 20.815 3.23157 17.9795C3.23157 4.63925 19.5333 -2.03163 28.9669 7.39741C38.3777 16.7278 31.7705 32.9992 18.3074 32.9992Z" fill="#4CAF50"/>
<path d="M26.5607 21.7055L26.547 21.8193C26.0903 21.5917 23.8662 20.5039 23.452 20.3537C22.522 20.0093 22.7845 20.2991 20.9988 22.3442C20.7333 22.6401 20.4693 22.6628 20.0187 22.458C19.5636 22.2304 18.1026 21.7525 16.3731 20.2051C15.0258 18.9989 14.1216 17.5197 13.8546 17.0646C13.4101 16.2969 14.3401 16.1877 15.1866 14.5856C15.3384 14.267 15.261 14.0166 15.1487 13.7906C15.0349 13.563 14.1292 11.3328 13.7499 10.4438C13.3858 9.55775 13.0111 9.67002 12.7304 9.67002C11.8565 9.59417 11.2178 9.6063 10.6549 10.1919C8.20627 12.8833 8.82375 15.6597 10.9189 18.6121C15.0364 24.0009 17.2302 24.9932 21.2416 26.3707C22.3248 26.7151 23.3125 26.6666 24.0938 26.5543C24.9646 26.4162 26.7746 25.4604 27.1523 24.3909C27.5392 23.3213 27.5392 22.4337 27.4254 22.2289C27.3132 22.0241 27.0158 21.9103 26.5607 21.7055Z" fill="#FAFAFA"/>
</g>
<defs>
<clipPath id="clip0_777_13167">
<rect width="36.4114" height="36.4114" fill="white"/>
</clipPath>
</defs>
</svg>
