<svg width="35" height="35" viewBox="0 0 35 35" fill="none" xmlns="http://www.w3.org/2000/svg">
<path d="M12.4085 0.686466C21.5402 -1.95231 31.1015 3.2488 33.7611 12.3025C36.4226 21.3562 31.1785 30.8358 22.0468 33.4727C12.9133 36.1114 3.35387 30.9122 0.692388 21.8585C-1.96914 12.8029 3.2768 3.32522 12.4085 0.686466Z" fill="#0688F2"/>
<path d="M12.5296 1.09775C21.4319 -1.4737 30.7527 3.5964 33.3481 12.4226C35.9416 21.2488 30.8279 30.49 21.9256 33.0632C13.0215 35.6347 3.70259 30.5646 1.10717 21.7384C-1.48642 12.9103 3.62734 3.671 12.5296 1.09775Z" fill="white"/>
<path d="M32.9995 20.5042C31.7749 26.0352 27.6183 30.7483 21.7448 32.4461C20.437 32.8242 19.1172 33.0311 17.8117 33.0787C10.5923 33.3426 3.84145 28.7485 1.72744 21.5576C-0.766979 13.0732 4.15053 4.18691 12.711 1.71387C21.2715 -0.759166 30.2316 4.11557 32.726 12.6024C33.5083 15.268 33.563 17.9717 32.9995 20.5042Z" fill="#0688F2"/>
<path d="M16.9912 20.4043L5.18481 15.3203L9.19398 18.1809V23.7786L17.8116 33.0786C19.1171 33.031 20.4368 32.8242 21.7447 32.4461C27.6182 30.7482 31.7748 26.0352 32.9994 20.5042L29.0686 15.0587L16.9912 20.4043Z" fill="url(#paint0_linear_904_22560)"/>
<path d="M29.3758 2.56463C31.013 2.66289 32.2594 4.05871 32.1603 5.68202C32.0611 7.30532 30.6533 8.54097 29.016 8.44271C27.3787 8.34443 26.1306 6.94863 26.2316 5.32532C26.3306 3.70204 27.7385 2.46455 29.3758 2.56463Z" fill="#0688F2"/>
<path d="M5.43677 14.6337L17.2098 9.53088L28.7552 14.3698L17.0464 19.5072L10.4569 16.7702C12.6607 15.8858 14.6238 15.1429 16.8207 14.2625C16.9313 14.2181 17.0256 14.1372 17.0781 14.0303C17.3162 13.546 16.6139 12.8955 15.7964 13.2761L9.02887 16.1824L5.43677 14.6337Z" fill="white"/>
<path d="M16.1126 13.5109L9.47907 16.2989L9.46071 18.0569L9.19458 18.268V23.8658L9.38554 23.8683L9.39281 18.8595L9.52865 18.8559L9.52129 23.8703L9.70451 23.8726L9.68282 19.8039L9.81868 19.8021L9.83855 23.8745L9.98541 23.8764L9.96365 19.8039L10.0995 19.8021L10.1194 23.8783L10.283 23.8804L10.2427 18.2516L10.0609 18.0405L10.0775 16.5501C12.1461 15.7348 14.3928 14.8613 16.4632 14.046C16.8157 13.8621 16.577 13.3563 16.1126 13.5109Z" fill="white"/>
<path d="M11.4795 18.4116L11.4685 21.9894C12.6708 25.3652 21.1803 25.5417 22.623 21.993L22.5165 18.3024L16.9898 20.7719L11.4795 18.4116Z" fill="white"/>
<path d="M5.45718 15.0706C6.68513 15.5893 7.91309 16.1061 9.13923 16.6248C9.34298 16.7594 9.22 17.0834 8.94833 16.9996C7.72587 16.5283 6.47222 15.935 5.26812 15.4091C5.07908 15.2817 5.24427 14.9996 5.45718 15.0706Z" fill="white"/>
<path d="M10.5893 17.2017L16.9568 19.8841L17.0247 19.9114L17.5019 19.704C21.2354 18.0752 24.9707 16.4465 28.7041 14.8177C29.0492 14.6266 29.2951 14.9724 28.8895 15.1544L17.3789 20.2245L16.9916 20.3591L16.6447 20.2245L10.4242 17.5893C10.1506 17.411 10.3709 17.1125 10.5893 17.2017Z" fill="white"/>
<path d="M29.352 2.95767C30.7691 3.0432 31.8502 4.25158 31.7639 5.65832C31.6776 7.06505 30.4588 8.13512 29.04 8.04959C27.6211 7.96406 26.5418 6.75568 26.6281 5.34894C26.7144 3.94221 27.9331 2.87214 29.352 2.95767Z" fill="#FEFEFE"/>
<defs>
<linearGradient id="paint0_linear_904_22560" x1="9.93829" y1="10.5668" x2="28.2082" y2="28.8367" gradientUnits="userSpaceOnUse">
<stop stop-color="#0068FF"/>
<stop offset="1" stop-color="#0072D8" stop-opacity="0"/>
</linearGradient>
</defs>
</svg>
