<svg width="30" height="30" viewBox="0 0 30 30" fill="none" xmlns="http://www.w3.org/2000/svg">
<g clip-path="url(#clip0_881_29119)">
<circle cx="16.0007" cy="15.864" r="13.9909" fill="#FAFAFA"/>
<path d="M15.2644 28.014C11.8467 28.014 8.56901 26.6564 6.15235 24.2397C3.73569 21.823 2.37802 18.5453 2.37802 15.1277C2.37802 11.71 3.73569 8.43229 6.15235 6.01563C8.56901 3.59897 11.8467 2.2413 15.2644 2.2413C18.6821 2.2413 21.9598 3.59897 24.3764 6.01563C26.7931 8.43229 28.1507 11.71 28.1507 15.1277C28.1507 18.5453 26.7931 21.823 24.3764 24.2397C21.9598 26.6564 18.6821 28.014 15.2644 28.014ZM15.2644 29.8549C19.1703 29.8549 22.9162 28.3033 25.6781 25.5414C28.44 22.7795 29.9917 19.0336 29.9917 15.1277C29.9917 11.2217 28.44 7.47581 25.6781 4.71391C22.9162 1.95201 19.1703 0.400391 15.2644 0.400391C11.3585 0.400391 7.61253 1.95201 4.85063 4.71391C2.08873 7.47581 0.537109 11.2217 0.537109 15.1277C0.537109 19.0336 2.08873 22.7795 4.85063 25.5414C7.61253 28.3033 11.3585 29.8549 15.2644 29.8549Z" fill="#FAFAFA"/>
<path d="M20.7322 9.54954C20.7191 9.56225 20.7068 9.57577 20.6954 9.59004L14.3019 17.7361L10.4489 13.8812C10.1871 13.6373 9.84097 13.5045 9.48328 13.5109C9.12559 13.5172 8.78431 13.6621 8.53135 13.915C8.27838 14.168 8.13348 14.5093 8.12717 14.867C8.12086 15.2247 8.25363 15.5708 8.49751 15.8326L13.3686 20.7054C13.4998 20.8364 13.656 20.9396 13.828 21.0089C14 21.0782 14.1842 21.1121 14.3695 21.1087C14.5549 21.1053 14.7377 21.0645 14.907 20.9889C15.0763 20.9133 15.2286 20.8044 15.3549 20.6686L22.7038 11.4825C22.954 11.2199 23.0909 10.8693 23.0847 10.5066C23.0785 10.1439 22.9298 9.79815 22.6708 9.54419C22.4117 9.29023 22.0631 9.14842 21.7004 9.14942C21.3376 9.15042 20.9898 9.29415 20.7322 9.54954Z" fill="#6CB4FE"/>
</g>
<defs>
<clipPath id="clip0_881_29119">
<rect width="29.4545" height="29.4545" fill="white" transform="translate(0.537109 0.400391)"/>
</clipPath>
</defs>
</svg>
