<svg width="30" height="30" viewBox="0 0 30 30" fill="none" xmlns="http://www.w3.org/2000/svg">
<path d="M3.23254 1.97427C3.0756 1.89578 2.89978 1.8629 2.72509 1.87939C2.55039 1.89588 2.38383 1.96106 2.24435 2.06753C2.10486 2.174 1.99806 2.31747 1.93609 2.48164C1.87412 2.6458 1.85946 2.82406 1.89379 2.99614L4.52441 12.0899C4.57346 12.2594 4.66934 12.4116 4.80101 12.529C4.93269 12.6464 5.09483 12.7243 5.26879 12.7536L15.9375 14.5405C16.44 14.6399 16.44 15.3599 15.9375 15.4593L5.26879 17.2461C5.09483 17.2755 4.93269 17.3534 4.80101 17.4708C4.66934 17.5882 4.57346 17.7404 4.52441 17.9099L1.89379 27.0036C1.85946 27.1757 1.87412 27.354 1.93609 27.5182C1.99806 27.6823 2.10486 27.8258 2.24435 27.9323C2.38383 28.0387 2.55039 28.1039 2.72509 28.1204C2.89978 28.1369 3.0756 28.104 3.23254 28.0255L27.6075 15.838C27.7631 15.7601 27.8938 15.6404 27.9852 15.4924C28.0766 15.3444 28.125 15.1738 28.125 14.9999C28.125 14.8259 28.0766 14.6554 27.9852 14.5074C27.8938 14.3594 27.7631 14.2397 27.6075 14.1618L3.23254 1.97427Z" fill="black"/>
</svg>
