<svg width="21" height="20" viewBox="0 0 21 20" fill="none" xmlns="http://www.w3.org/2000/svg">
<mask id="mask0_1615_3756" style="mask-type:alpha" maskUnits="userSpaceOnUse" x="0" y="0" width="21" height="20">
<path fill-rule="evenodd" clip-rule="evenodd" d="M0 0H20.4725V19.501H0V0Z" fill="white"/>
</mask>
<g mask="url(#mask0_1615_3756)">
<path fill-rule="evenodd" clip-rule="evenodd" d="M1.82371 9.12312C3.22571 13.4851 8.76471 17.0121 10.2367 17.8851C11.7137 17.0031 17.2927 13.4371 18.6497 9.12712C19.5407 6.34112 18.7137 2.81212 15.4277 1.75312C13.8357 1.24212 11.9787 1.55312 10.6967 2.54512C10.4287 2.75112 10.0567 2.75512 9.78671 2.55112C8.42871 1.53012 6.65471 1.23112 5.03771 1.75312C1.75671 2.81112 0.932712 6.34012 1.82371 9.12312M10.2377 19.5011C10.1137 19.5011 9.99071 19.4711 9.87871 19.4101C9.56571 19.2391 2.19271 15.1751 0.395713 9.58112C0.394713 9.58112 0.394713 9.58012 0.394713 9.58012C-0.733288 6.05812 0.522713 1.63212 4.57771 0.325118C6.48171 -0.290882 8.55671 -0.019882 10.2347 1.03912C11.8607 0.0111181 14.0207 -0.272882 15.8867 0.325118C19.9457 1.63412 21.2057 6.05912 20.0787 9.58012C18.3397 15.1101 10.9127 19.2351 10.5977 19.4081C10.4857 19.4701 10.3617 19.5011 10.2377 19.5011" fill="#BDBDBD"/>
</g>
<path fill-rule="evenodd" clip-rule="evenodd" d="M16.1537 7.62429C15.7667 7.62429 15.4387 7.32729 15.4067 6.93529C15.3407 6.11329 14.7907 5.41929 14.0077 5.16629C13.6127 5.03829 13.3967 4.61529 13.5237 4.22229C13.6527 3.82829 14.0717 3.61429 14.4677 3.73829C15.8307 4.17929 16.7857 5.38629 16.9027 6.81329C16.9357 7.22629 16.6287 7.58829 16.2157 7.62129C16.1947 7.62329 16.1747 7.62429 16.1537 7.62429Z" fill="#BDBDBD"/>
</svg>
