<svg fill="none" height="26" viewBox="0 0 20 26" width="20" xmlns="http://www.w3.org/2000/svg"><g fill="#bdbdbd"><path d="m14.9118 12.6357c-.3149.4179-.6688.8037-1.0751 1.1519 2.3196 1.4021 3.8856 4.038 3.8856 7.0522 0 1.6286-3.3865 2.9044-7.7096 2.9044-4.32314 0-7.70962-1.2758-7.70962-2.9044 0-3.0142 1.56601-5.6501 3.88562-7.0522-.40632-.3482-.76014-.7339-1.07513-1.1519-2.58316 1.719-4.302657 4.7537-4.302657 8.2041 0 1.0452.543127 2.5018 3.130737 3.5057 1.61407.6263 3.77014.9711 6.07105.9711 2.301 0 4.457-.3448 6.0711-.9711 2.5876-1.0039 3.1308-2.4605 3.1308-3.5057-.0002-3.4504-1.7196-6.4851-4.3028-8.2041z"/><path d="m10.0126 13.6717c2.9 0 5.1332-2.9538 5.1332-6.44666 0-3.49446-2.2343-6.44672-5.1332-6.44672-2.89996 0-5.13308 2.95382-5.13308 6.44667 0 3.49451 2.2343 6.44671 5.13308 6.44671zm0-11.32103c2.0076 0 3.641 2.1866 3.641 4.87432s-1.6334 4.87431-3.641 4.87431c-2.00755 0-3.64091-2.18659-3.64091-4.87431s1.63336-4.87432 3.64091-4.87432z"/></g></svg>