<svg width="1919" height="1080" viewBox="0 0 1919 1080" fill="none" xmlns="http://www.w3.org/2000/svg">
<g opacity="0.05" clip-path="url(#clip0_777_13150)">
<path d="M957.924 88.6613L958.726 -29.4565L840.656 -30.2573L839.855 87.8605L957.924 88.6613Z" fill="#9DCEFF"/>
<path d="M956.615 281.773L957.924 88.7021L839.854 87.9014L838.545 280.972L956.615 281.773Z" fill="#54A9FF"/>
<path d="M955.634 426.417L956.615 281.77L721.658 280.177L720.677 424.824L955.634 426.417Z" fill="#C2E0FF"/>
<path d="M954.861 540.282L955.634 426.417L840.629 425.637L839.857 539.502L954.861 540.282Z" fill="#54A9FF"/>
<path d="M839.857 539.502L840.629 425.637L720.677 424.824L719.905 538.688L839.857 539.502Z" fill="#9DCEFF"/>
<path d="M839.346 162.807L840.656 -30.2578L723.36 -31.0533L722.05 162.011L839.346 162.807Z" fill="#C2E0FF"/>
<path d="M838.545 280.969L839.346 162.807L722.107 162.012L721.305 280.174L838.545 280.969Z" fill="#9DCEFF"/>
<path d="M720.538 424.823L721.697 253.966L601.175 253.149L600.016 424.005L720.538 424.823Z" fill="#54A9FF"/>
<path d="M719.766 538.688L720.538 424.823L600.016 424.005L599.244 537.87L719.766 538.688Z" fill="#C2E0FF"/>
<path d="M599.244 537.87L600.409 366.147L475.162 365.298L473.997 537.021L599.244 537.87Z" fill="#9DCEFF"/>
<path d="M722.962 44.2796L723.47 -30.7563L602.81 -31.5747L602.301 43.4612L722.962 44.2796Z" fill="#54A9FF"/>
<path d="M722.07 158.639L722.846 44.2788L602.301 43.4613L601.525 157.821L722.07 158.639Z" fill="#9DCEFF"/>
<path d="M721.483 253.965L722.13 158.64L601.765 157.823L601.119 253.149L721.483 253.965Z" fill="#C2E0FF"/>
<path d="M477.286 139.533L478.45 -32.1895L357.312 -33.011L356.148 138.711L477.286 139.533Z" fill="#9DCEFF"/>
<path d="M378.915 536.376L380.079 364.653L260.127 363.84L258.963 535.562L378.915 536.376Z" fill="#9DCEFF"/>
<path d="M356.146 138.94L357.314 -33.2393L118.133 -34.8614L116.965 137.318L356.146 138.94Z" fill="#54A9FF"/>
<path d="M601.883 140.446L603.05 -31.5728L572.941 -31.777L571.774 140.242L601.883 140.446Z" fill="#C2E0FF"/>
<path d="M116.965 137.317L117.94 -6.46973L-2.01232 -7.28326L-2.9875 136.504L116.965 137.317Z" fill="#C2E0FF"/>
<path d="M571.774 140.242L572.938 -31.3442L477.856 -31.9891L476.692 139.597L571.774 140.242Z" fill="#54A9FF"/>
<path d="M601.331 186.472L601.643 140.445L356.147 138.78L355.835 184.807L601.331 186.472Z" fill="#C2E0FF"/>
<path d="M474.312 490.605L475.475 319.019L380.393 318.374L379.23 489.96L474.312 490.605Z" fill="#54A9FF"/>
<path d="M473.997 537.021L474.311 490.753L379.229 490.109L378.915 536.376L473.997 537.021Z" fill="#C2E0FF"/>
<path d="M600.686 325.261L601.629 186.177L476.382 185.328L475.439 324.411L600.686 325.261Z" fill="#9DCEFF"/>
<path d="M68.7311 534.204L69.8948 362.618L-4.51761 362.113L-5.68132 533.699L68.7311 534.204Z" fill="#54A9FF"/>
<path d="M600.706 365.992L600.982 325.259L475.439 324.408L475.163 365.141L600.706 365.992Z" fill="#C2E0FF"/>
<path d="M114.271 534.512L116.965 137.317L71.4249 137.009L68.7311 534.204L114.271 534.512Z" fill="#9DCEFF"/>
<path d="M70.4473 281.149L70.7611 234.882L-3.65129 234.377L-3.96508 280.644L70.4473 281.149Z" fill="#C2E0FF"/>
<path d="M70.6616 249.551L71.4249 137.009L-2.9875 136.504L-3.75077 249.046L70.6616 249.551Z" fill="#54A9FF"/>
<path d="M69.8963 362.392L70.4473 281.149L-3.96507 280.644L-4.51607 361.888L69.8963 362.392Z" fill="#9DCEFF"/>
<path d="M294.953 317.795L296.17 138.233L176.218 137.42L175 316.981L294.953 317.795Z" fill="#9DCEFF"/>
<path d="M475.475 319.019L476.38 185.624L381.298 184.979L380.393 318.374L475.475 319.019Z" fill="#C2E0FF"/>
<path d="M380.393 318.374L381.3 184.683L295.859 184.103L294.953 317.795L380.393 318.374Z" fill="#54A9FF"/>
<path d="M355.837 184.51L356.148 138.64L296.17 138.233L295.859 184.103L355.837 184.51Z" fill="#9DCEFF"/>
<path d="M380.079 364.653L380.393 318.374L175 316.981L174.686 363.26L380.079 364.653Z" fill="#C2E0FF"/>
<path d="M174.157 534.919L174.92 422.377L115.034 421.971L114.271 534.513L174.157 534.919Z" fill="#54A9FF"/>
<path d="M258.963 535.494L260.127 363.908L174.686 363.328L173.522 534.914L258.963 535.494Z" fill="#C2E0FF"/>
<path d="M175.023 394.044L176.191 221.864L116.397 221.459L115.229 393.638L175.023 394.044Z" fill="#54A9FF"/>
<path d="M176.28 221.865L176.853 137.424L116.875 137.018L116.302 221.458L176.28 221.865Z" fill="#C2E0FF"/>
<path d="M174.286 422.376L174.478 394.043L114.945 393.639L114.753 421.972L174.286 422.376Z" fill="#C2E0FF"/>
</g>
<g opacity="0.05" clip-path="url(#clip1_777_13150)">
<path d="M1918.2 92.8332L1919 -25.2847L1800.93 -26.0854L1800.13 92.0324L1918.2 92.8332Z" fill="#9DCEFF"/>
<path d="M1916.89 285.945L1918.2 92.874L1800.13 92.0733L1798.82 285.144L1916.89 285.945Z" fill="#54A9FF"/>
<path d="M1915.91 430.589L1916.89 285.942L1681.93 284.348L1680.95 428.996L1915.91 430.589Z" fill="#C2E0FF"/>
<path d="M1915.14 544.454L1915.91 430.589L1800.91 429.809L1800.13 543.674L1915.14 544.454Z" fill="#54A9FF"/>
<path d="M1800.13 543.674L1800.91 429.809L1680.95 428.996L1680.18 542.86L1800.13 543.674Z" fill="#9DCEFF"/>
<path d="M1799.62 166.979L1800.93 -26.0859L1683.64 -26.8815L1682.33 166.183L1799.62 166.979Z" fill="#C2E0FF"/>
<path d="M1798.82 285.141L1799.62 166.979L1682.38 166.183L1681.58 284.346L1798.82 285.141Z" fill="#9DCEFF"/>
<path d="M1680.81 428.995L1681.97 258.138L1561.45 257.321L1560.29 428.177L1680.81 428.995Z" fill="#54A9FF"/>
<path d="M1680.04 542.859L1680.81 428.995L1560.29 428.177L1559.52 542.042L1680.04 542.859Z" fill="#C2E0FF"/>
<path d="M1559.52 542.042L1560.69 370.319L1435.44 369.47L1434.27 541.192L1559.52 542.042Z" fill="#9DCEFF"/>
<path d="M1683.24 48.4515L1683.75 -26.5845L1563.09 -27.4028L1562.58 47.6331L1683.24 48.4515Z" fill="#54A9FF"/>
<path d="M1682.35 162.811L1683.12 48.4507L1562.58 47.6331L1561.8 161.993L1682.35 162.811Z" fill="#9DCEFF"/>
<path d="M1681.76 258.137L1682.41 162.812L1562.04 161.995L1561.4 257.32L1681.76 258.137Z" fill="#C2E0FF"/>
<path d="M1437.56 143.705L1438.73 -28.0176L1317.59 -28.8392L1316.42 142.883L1437.56 143.705Z" fill="#9DCEFF"/>
<path d="M1339.19 540.548L1340.36 368.825L1220.4 368.012L1219.24 539.734L1339.19 540.548Z" fill="#9DCEFF"/>
<path d="M1316.42 143.112L1317.59 -29.0674L1078.41 -30.6895L1077.24 141.49L1316.42 143.112Z" fill="#54A9FF"/>
<path d="M1562.16 144.618L1563.33 -27.4009L1533.22 -27.6051L1532.05 144.414L1562.16 144.618Z" fill="#C2E0FF"/>
<path d="M1077.24 141.489L1078.22 -2.29785L958.264 -3.11138L957.289 140.676L1077.24 141.489Z" fill="#C2E0FF"/>
<path d="M1532.05 144.414L1533.21 -27.1724L1438.13 -27.8172L1436.97 143.769L1532.05 144.414Z" fill="#54A9FF"/>
<path d="M1561.61 190.644L1561.92 144.617L1316.42 142.952L1316.11 188.979L1561.61 190.644Z" fill="#C2E0FF"/>
<path d="M1434.59 494.777L1435.75 323.191L1340.67 322.546L1339.51 494.132L1434.59 494.777Z" fill="#54A9FF"/>
<path d="M1434.27 541.193L1434.59 494.925L1339.51 494.28L1339.19 540.548L1434.27 541.193Z" fill="#C2E0FF"/>
<path d="M1560.96 329.433L1561.91 190.349L1436.66 189.5L1435.72 328.583L1560.96 329.433Z" fill="#9DCEFF"/>
<path d="M1029.01 538.376L1030.17 366.79L955.759 366.285L954.595 537.871L1029.01 538.376Z" fill="#54A9FF"/>
<path d="M1560.98 370.164L1561.26 329.431L1435.72 328.58L1435.44 369.313L1560.98 370.164Z" fill="#C2E0FF"/>
<path d="M1074.55 538.684L1077.24 141.489L1031.7 141.18L1029.01 538.375L1074.55 538.684Z" fill="#9DCEFF"/>
<path d="M1030.72 285.321L1031.04 239.054L956.625 238.549L956.311 284.816L1030.72 285.321Z" fill="#C2E0FF"/>
<path d="M1030.94 253.723L1031.7 141.181L957.289 140.676L956.526 253.218L1030.94 253.723Z" fill="#54A9FF"/>
<path d="M1030.17 366.564L1030.72 285.321L956.311 284.816L955.76 366.06L1030.17 366.564Z" fill="#9DCEFF"/>
<path d="M1255.23 321.967L1256.45 142.405L1136.49 141.592L1135.28 321.153L1255.23 321.967Z" fill="#9DCEFF"/>
<path d="M1435.75 323.191L1436.66 189.796L1341.57 189.151L1340.67 322.546L1435.75 323.191Z" fill="#C2E0FF"/>
<path d="M1340.67 322.546L1341.58 188.854L1256.14 188.275L1255.23 321.966L1340.67 322.546Z" fill="#54A9FF"/>
<path d="M1316.11 188.682L1316.42 142.812L1256.45 142.405L1256.14 188.275L1316.11 188.682Z" fill="#9DCEFF"/>
<path d="M1340.36 368.825L1340.67 322.546L1135.28 321.153L1134.96 367.432L1340.36 368.825Z" fill="#C2E0FF"/>
<path d="M1134.43 539.091L1135.2 426.549L1075.31 426.143L1074.55 538.685L1134.43 539.091Z" fill="#54A9FF"/>
<path d="M1219.24 539.666L1220.4 368.08L1134.96 367.5L1133.8 539.086L1219.24 539.666Z" fill="#C2E0FF"/>
<path d="M1135.3 398.215L1136.47 226.036L1076.67 225.631L1075.51 397.81L1135.3 398.215Z" fill="#54A9FF"/>
<path d="M1136.56 226.037L1137.13 141.596L1077.15 141.189L1076.58 225.63L1136.56 226.037Z" fill="#C2E0FF"/>
<path d="M1134.56 426.548L1134.75 398.215L1075.22 397.811L1075.03 426.144L1134.56 426.548Z" fill="#C2E0FF"/>
</g>
<g opacity="0.05" clip-path="url(#clip2_777_13150)">
<path d="M957.924 658.117L958.726 539.999L840.656 539.198L839.855 657.316L957.924 658.117Z" fill="#9DCEFF"/>
<path d="M956.615 851.228L957.924 658.158L839.854 657.357L838.545 850.428L956.615 851.228Z" fill="#54A9FF"/>
<path d="M955.634 995.873L956.615 851.226L721.658 849.632L720.677 994.279L955.634 995.873Z" fill="#C2E0FF"/>
<path d="M954.861 1109.74L955.634 995.873L840.629 995.093L839.857 1108.96L954.861 1109.74Z" fill="#54A9FF"/>
<path d="M839.857 1108.96L840.629 995.093L720.677 994.279L719.905 1108.14L839.857 1108.96Z" fill="#9DCEFF"/>
<path d="M839.346 732.263L840.656 539.198L723.36 538.402L722.05 731.467L839.346 732.263Z" fill="#C2E0FF"/>
<path d="M838.545 850.425L839.346 732.262L722.107 731.467L721.305 849.629L838.545 850.425Z" fill="#9DCEFF"/>
<path d="M720.538 994.278L721.697 823.422L601.175 822.604L600.016 993.461L720.538 994.278Z" fill="#54A9FF"/>
<path d="M719.766 1108.14L720.538 994.278L600.016 993.461L599.244 1107.33L719.766 1108.14Z" fill="#C2E0FF"/>
<path d="M599.244 1107.33L600.409 935.603L475.162 934.754L473.997 1106.48L599.244 1107.33Z" fill="#9DCEFF"/>
<path d="M722.962 613.735L723.47 538.699L602.81 537.881L602.301 612.917L722.962 613.735Z" fill="#54A9FF"/>
<path d="M722.07 728.094L722.846 613.734L602.301 612.917L601.525 727.277L722.07 728.094Z" fill="#9DCEFF"/>
<path d="M721.483 823.42L722.13 728.095L601.765 727.279L601.119 822.604L721.483 823.42Z" fill="#C2E0FF"/>
<path d="M477.286 708.989L478.45 537.266L357.312 536.445L356.148 708.167L477.286 708.989Z" fill="#9DCEFF"/>
<path d="M378.915 1105.83L380.079 934.109L260.127 933.295L258.963 1105.02L378.915 1105.83Z" fill="#9DCEFF"/>
<path d="M117.94 562.986L118.133 534.594L-1.81977 533.78L-2.01232 562.172L117.94 562.986Z" fill="#9DCEFF"/>
<path d="M356.146 708.396L357.314 536.216L118.133 534.594L116.965 706.773L356.146 708.396Z" fill="#54A9FF"/>
<path d="M601.883 709.902L603.05 537.883L572.941 537.679L571.774 709.698L601.883 709.902Z" fill="#C2E0FF"/>
<path d="M116.965 706.773L117.94 562.986L-2.01232 562.172L-2.9875 705.959L116.965 706.773Z" fill="#C2E0FF"/>
<path d="M571.774 709.697L572.938 538.111L477.856 537.466L476.692 709.053L571.774 709.697Z" fill="#54A9FF"/>
<path d="M601.331 755.927L601.643 709.9L356.147 708.235L355.835 754.262L601.331 755.927Z" fill="#C2E0FF"/>
<path d="M474.312 1060.06L475.475 888.475L380.393 887.83L379.23 1059.42L474.312 1060.06Z" fill="#54A9FF"/>
<path d="M473.997 1106.48L474.311 1060.21L379.229 1059.56L378.915 1105.83L473.997 1106.48Z" fill="#C2E0FF"/>
<path d="M600.686 894.716L601.629 755.633L476.382 754.783L475.439 893.867L600.686 894.716Z" fill="#9DCEFF"/>
<path d="M68.7311 1103.66L69.8948 932.073L-4.51761 931.569L-5.68132 1103.15L68.7311 1103.66Z" fill="#54A9FF"/>
<path d="M600.706 935.448L600.982 894.715L475.439 893.863L475.163 934.596L600.706 935.448Z" fill="#C2E0FF"/>
<path d="M114.271 1103.97L116.965 706.773L71.4249 706.464L68.7311 1103.66L114.271 1103.97Z" fill="#9DCEFF"/>
<path d="M70.4473 850.605L70.7611 804.337L-3.65129 803.833L-3.96508 850.1L70.4473 850.605Z" fill="#C2E0FF"/>
<path d="M70.6616 819.006L71.4249 706.464L-2.9875 705.96L-3.75077 818.502L70.6616 819.006Z" fill="#54A9FF"/>
<path d="M69.8963 931.848L70.4473 850.604L-3.96507 850.1L-4.51607 931.343L69.8963 931.848Z" fill="#9DCEFF"/>
<path d="M294.953 887.25L296.17 707.689L176.218 706.875L175 886.437L294.953 887.25Z" fill="#9DCEFF"/>
<path d="M475.475 888.474L476.38 755.08L381.298 754.435L380.393 887.83L475.475 888.474Z" fill="#C2E0FF"/>
<path d="M380.393 887.83L381.3 754.138L295.859 753.559L294.953 887.25L380.393 887.83Z" fill="#54A9FF"/>
<path d="M355.837 753.965L356.148 708.096L296.17 707.689L295.859 753.559L355.837 753.965Z" fill="#9DCEFF"/>
<path d="M380.079 934.109L380.393 887.83L175 886.437L174.686 932.716L380.079 934.109Z" fill="#C2E0FF"/>
<path d="M174.157 1104.37L174.92 991.833L115.034 991.426L114.271 1103.97L174.157 1104.37Z" fill="#54A9FF"/>
<path d="M258.963 1104.95L260.127 933.363L174.686 932.784L173.522 1104.37L258.963 1104.95Z" fill="#C2E0FF"/>
<path d="M175.023 963.499L176.191 791.32L116.397 790.914L115.229 963.094L175.023 963.499Z" fill="#54A9FF"/>
<path d="M176.28 791.321L176.853 706.88L116.875 706.473L116.302 790.914L176.28 791.321Z" fill="#C2E0FF"/>
<path d="M174.286 991.831L174.478 963.499L114.945 963.095L114.753 991.427L174.286 991.831Z" fill="#C2E0FF"/>
</g>
<g opacity="0.05" clip-path="url(#clip3_777_13150)">
<path d="M1918.2 662.289L1919 544.171L1800.93 543.37L1800.13 661.488L1918.2 662.289Z" fill="#9DCEFF"/>
<path d="M1916.89 855.4L1918.2 662.33L1800.13 661.529L1798.82 854.599L1916.89 855.4Z" fill="#54A9FF"/>
<path d="M1915.91 1000.04L1916.89 855.397L1681.93 853.804L1680.95 998.451L1915.91 1000.04Z" fill="#C2E0FF"/>
<path d="M1915.14 1113.91L1915.91 1000.04L1800.91 999.264L1800.13 1113.13L1915.14 1113.91Z" fill="#54A9FF"/>
<path d="M1800.13 1113.13L1800.91 999.265L1680.95 998.451L1680.18 1112.32L1800.13 1113.13Z" fill="#9DCEFF"/>
<path d="M1799.62 736.434L1800.93 543.37L1683.64 542.574L1682.33 735.639L1799.62 736.434Z" fill="#C2E0FF"/>
<path d="M1798.82 854.596L1799.62 736.434L1682.38 735.639L1681.58 853.801L1798.82 854.596Z" fill="#9DCEFF"/>
<path d="M1680.81 998.45L1681.97 827.594L1561.45 826.776L1560.29 997.633L1680.81 998.45Z" fill="#54A9FF"/>
<path d="M1680.04 1112.32L1680.81 998.45L1560.29 997.633L1559.52 1111.5L1680.04 1112.32Z" fill="#C2E0FF"/>
<path d="M1559.52 1111.5L1560.69 939.775L1435.44 938.925L1434.27 1110.65L1559.52 1111.5Z" fill="#9DCEFF"/>
<path d="M1683.24 617.907L1683.75 542.871L1563.09 542.053L1562.58 617.089L1683.24 617.907Z" fill="#54A9FF"/>
<path d="M1682.35 732.266L1683.12 617.906L1562.58 617.089L1561.8 731.449L1682.35 732.266Z" fill="#9DCEFF"/>
<path d="M1681.76 827.592L1682.41 732.267L1562.04 731.451L1561.4 826.776L1681.76 827.592Z" fill="#C2E0FF"/>
<path d="M1437.56 713.16L1438.73 541.438L1317.59 540.616L1316.42 712.339L1437.56 713.16Z" fill="#9DCEFF"/>
<path d="M1339.19 1110L1340.36 938.281L1220.4 937.467L1219.24 1109.19L1339.19 1110Z" fill="#9DCEFF"/>
<path d="M1078.22 567.158L1078.41 538.766L958.457 537.952L958.264 566.344L1078.22 567.158Z" fill="#9DCEFF"/>
<path d="M1316.42 712.567L1317.59 540.388L1078.41 538.766L1077.24 710.945L1316.42 712.567Z" fill="#54A9FF"/>
<path d="M1562.16 714.074L1563.33 542.055L1533.22 541.85L1532.05 713.87L1562.16 714.074Z" fill="#C2E0FF"/>
<path d="M1077.24 710.945L1078.22 567.158L958.264 566.344L957.289 710.131L1077.24 710.945Z" fill="#C2E0FF"/>
<path d="M1532.05 713.869L1533.21 542.283L1438.13 541.638L1436.97 713.224L1532.05 713.869Z" fill="#54A9FF"/>
<path d="M1561.61 760.099L1561.92 714.072L1316.42 712.407L1316.11 758.434L1561.61 760.099Z" fill="#C2E0FF"/>
<path d="M1434.59 1064.23L1435.75 892.646L1340.67 892.002L1339.51 1063.59L1434.59 1064.23Z" fill="#54A9FF"/>
<path d="M1434.27 1110.65L1434.59 1064.38L1339.51 1063.74L1339.19 1110L1434.27 1110.65Z" fill="#C2E0FF"/>
<path d="M1560.96 898.888L1561.91 759.805L1436.66 758.955L1435.72 898.039L1560.96 898.888Z" fill="#9DCEFF"/>
<path d="M1029.01 1107.83L1030.17 936.245L955.759 935.74L954.595 1107.33L1029.01 1107.83Z" fill="#54A9FF"/>
<path d="M1560.98 939.62L1561.26 898.887L1435.72 898.035L1435.44 938.768L1560.98 939.62Z" fill="#C2E0FF"/>
<path d="M1074.55 1108.14L1077.24 710.945L1031.7 710.636L1029.01 1107.83L1074.55 1108.14Z" fill="#9DCEFF"/>
<path d="M1030.72 854.777L1031.04 808.509L956.625 808.005L956.311 854.272L1030.72 854.777Z" fill="#C2E0FF"/>
<path d="M1030.94 823.178L1031.7 710.636L957.289 710.132L956.526 822.674L1030.94 823.178Z" fill="#54A9FF"/>
<path d="M1030.17 936.02L1030.72 854.776L956.311 854.272L955.76 935.515L1030.17 936.02Z" fill="#9DCEFF"/>
<path d="M1255.23 891.422L1256.45 711.861L1136.49 711.047L1135.28 890.609L1255.23 891.422Z" fill="#9DCEFF"/>
<path d="M1435.75 892.646L1436.66 759.251L1341.57 758.607L1340.67 892.001L1435.75 892.646Z" fill="#C2E0FF"/>
<path d="M1340.67 892.002L1341.58 758.31L1256.14 757.731L1255.23 891.422L1340.67 892.002Z" fill="#54A9FF"/>
<path d="M1316.11 758.137L1316.42 712.268L1256.45 711.861L1256.14 757.731L1316.11 758.137Z" fill="#9DCEFF"/>
<path d="M1340.36 938.281L1340.67 892.001L1135.28 890.608L1134.96 936.888L1340.36 938.281Z" fill="#C2E0FF"/>
<path d="M1134.43 1108.55L1135.2 996.004L1075.31 995.598L1074.55 1108.14L1134.43 1108.55Z" fill="#54A9FF"/>
<path d="M1219.24 1109.12L1220.4 937.535L1134.96 936.956L1133.8 1108.54L1219.24 1109.12Z" fill="#C2E0FF"/>
<path d="M1135.3 967.671L1136.47 795.492L1076.67 795.086L1075.51 967.265L1135.3 967.671Z" fill="#54A9FF"/>
<path d="M1136.56 795.492L1137.13 711.052L1077.15 710.645L1076.58 795.086L1136.56 795.492Z" fill="#C2E0FF"/>
<path d="M1134.56 996.003L1134.75 967.67L1075.22 967.267L1075.03 995.599L1134.56 996.003Z" fill="#C2E0FF"/>
</g>
<defs>
<clipPath id="clip0_777_13150">
<rect width="569.456" height="960.565" fill="white" transform="translate(958.724 -29.1606) rotate(90.3886)"/>
</clipPath>
<clipPath id="clip1_777_13150">
<rect width="569.456" height="960.565" fill="white" transform="translate(1919 -24.9888) rotate(90.3886)"/>
</clipPath>
<clipPath id="clip2_777_13150">
<rect width="569.456" height="960.565" fill="white" transform="translate(958.724 540.295) rotate(90.3886)"/>
</clipPath>
<clipPath id="clip3_777_13150">
<rect width="569.456" height="960.565" fill="white" transform="translate(1919 544.467) rotate(90.3886)"/>
</clipPath>
</defs>
</svg>
