<svg width="21" height="22" viewBox="0 0 21 22" fill="none" xmlns="http://www.w3.org/2000/svg">
<g clip-path="url(#clip0_924_30727)">
<path d="M11.1591 13.4417C11.2081 13.441 11.2467 13.4587 11.2748 13.4949C11.3029 13.5311 11.3087 13.5745 11.2921 13.625L9.98635 15.9227C9.77659 16.2918 9.50457 16.6207 9.17029 16.9093C8.83601 17.1979 8.47229 17.4205 8.07912 17.5773C7.68596 17.7341 7.27519 17.8363 6.84683 17.8838C6.41846 17.9313 5.99871 17.8781 5.58759 17.724C5.09323 17.5666 4.66839 17.319 4.31308 16.9811C3.95777 16.6433 3.70667 16.2718 3.55979 15.8668C3.41291 15.4618 3.34571 15.0236 3.35819 14.5522C3.37067 14.0808 3.50496 13.6305 3.76107 13.2012L5.79046 9.63013C6.11558 9.05802 6.55034 8.57121 7.09473 8.16971C7.63913 7.7682 8.24681 7.51216 8.91778 7.40158C9.50991 7.30132 10.0049 7.30771 10.4029 7.42078C10.8008 7.53384 11.1427 7.70263 11.4287 7.92715C11.4804 7.98585 11.4932 8.03828 11.467 8.08442C11.4408 8.13055 11.4097 8.17448 11.3739 8.21618C11.338 8.25789 11.2991 8.31565 11.2571 8.38947L11.147 8.58325C11.0465 8.78146 10.8921 8.91413 10.6837 8.98127C10.4752 9.0484 10.2601 9.031 10.0383 8.92906C9.8165 8.82711 9.58819 8.76873 9.35336 8.75391C9.11854 8.73908 8.87678 8.77926 8.62809 8.87444C8.3794 8.96962 8.16708 9.0757 7.99114 9.19268C7.8152 9.30965 7.65382 9.49733 7.50699 9.7557L5.1787 13.8528C5.04236 14.0927 4.96692 14.3431 4.9524 14.6041C4.93787 14.8651 4.98289 15.1069 5.08746 15.3295C5.19203 15.5522 5.34127 15.7604 5.53517 15.9543C5.72907 16.1481 5.982 16.2702 6.29398 16.3205C6.74097 16.4328 7.16933 16.3853 7.57908 16.1779C7.98882 15.9706 8.30077 15.6892 8.51492 15.3337L9.52835 13.5825C9.54493 13.5319 9.58739 13.5107 9.65574 13.5189C10.1596 13.5526 10.6607 13.5269 11.1591 13.4417ZM14.0277 1.07423C14.5221 1.23161 14.9447 1.47241 15.2957 1.79661C15.6466 2.12082 15.9051 2.48986 16.0713 2.90372C16.2374 3.31759 16.3068 3.76262 16.2795 4.23883C16.2521 4.71503 16.1104 5.16777 15.8543 5.59703L13.8249 9.16811C13.4998 9.74022 13.0628 10.2202 12.514 10.608C11.9652 10.9959 11.3501 11.2543 10.6686 11.3834C10.0809 11.4973 9.59332 11.4885 9.20588 11.357C8.81844 11.2255 8.47651 11.0567 8.18009 10.8506C8.13271 10.8056 8.12476 10.7553 8.15622 10.7L8.43939 10.2017C8.55915 10.0123 8.72325 9.8841 8.93168 9.81697C9.14011 9.74984 9.34076 9.76059 9.53363 9.84924C9.76508 9.95561 10.0057 10.0138 10.2554 10.0238C10.5051 10.0339 10.749 10.0005 10.9872 9.9238C11.2255 9.84708 11.443 9.73177 11.6399 9.57788C11.8368 9.42399 11.9908 9.23871 12.1017 9.02205L14.4366 4.94549C14.573 4.70557 14.6462 4.44828 14.6563 4.17363C14.6665 3.89898 14.6192 3.65035 14.5147 3.42772C14.4101 3.20509 14.2556 3.00608 14.0512 2.83068C13.8469 2.65528 13.5939 2.53321 13.2924 2.46447C12.8647 2.361 12.4438 2.40612 12.0297 2.59982C11.6155 2.79352 11.2983 3.08415 11.0781 3.47171L10.087 5.21573C10.0555 5.27109 10.0131 5.29231 9.9596 5.27937C9.48995 5.24972 8.98663 5.26861 8.44965 5.33603C8.3901 5.35521 8.35153 5.33748 8.33393 5.28284C8.31633 5.2282 8.31277 5.19166 8.32326 5.1732L9.62899 2.87553C9.83875 2.50643 10.1108 2.17758 10.445 1.88898C10.7793 1.60038 11.1334 1.37326 11.5073 1.2076C11.8812 1.04194 12.2941 0.946619 12.7462 0.92163C13.1982 0.89664 13.6254 0.947506 14.0277 1.07423Z" fill="white"/>
</g>
<defs>
<clipPath id="clip0_924_30727">
<rect width="15.9537" height="17.4365" fill="white" transform="translate(0 4.89111) rotate(-17.8537)"/>
</clipPath>
</defs>
</svg>
