<svg width="17" height="17" viewBox="0 0 17 17" fill="none" xmlns="http://www.w3.org/2000/svg">
<path d="M8.50002 15.5833C4.5879 15.5833 1.41669 12.4121 1.41669 8.49996C1.41669 4.58783 4.5879 1.41663 8.50002 1.41663C12.4121 1.41663 15.5834 4.58783 15.5834 8.49996C15.5791 12.41 12.41 15.579 8.50002 15.5833ZM8.50002 2.83329C7.37926 2.83329 6.28367 3.16564 5.35179 3.7883C4.41991 4.41096 3.6936 5.29597 3.2647 6.33142C2.83581 7.36687 2.72359 8.50625 2.94224 9.60547C3.16089 10.7047 3.70058 11.7144 4.49308 12.5069C5.28558 13.2994 6.29528 13.8391 7.39451 14.0577C8.49373 14.2764 9.63311 14.1642 10.6686 13.7353C11.704 13.3064 12.589 12.5801 13.2117 11.6482C13.8343 10.7163 14.1667 9.62072 14.1667 8.49996C14.165 6.99758 13.5674 5.55723 12.5051 4.49488C11.4428 3.43254 10.0024 2.83498 8.50002 2.83329ZM12.0417 9.20829H7.79169V4.95829H9.20835V7.79163H12.0417V9.20829Z" fill="#28C497"/>
</svg>
