<svg width="25" height="25" viewBox="0 0 25 25" fill="none" xmlns="http://www.w3.org/2000/svg">
<g clip-path="url(#clip0_873_27257)">
<path d="M10.1565 0C9.9493 0 9.75058 0.08231 9.60407 0.228823C9.45756 0.375336 9.37525 0.57405 9.37525 0.78125C9.37525 0.98845 9.45756 1.18716 9.60407 1.33368C9.75058 1.48019 9.9493 1.5625 10.1565 1.5625H10.9377V3.23438C8.20095 3.62994 5.71551 5.0473 3.9815 7.2013C2.24748 9.35529 1.39357 12.0861 1.59157 14.8442C1.78957 17.6023 3.02479 20.1832 5.0487 22.0674C7.07261 23.9516 9.73502 24.9994 12.5002 25C14.597 24.9999 16.6495 24.3972 18.4133 23.2635C20.1772 22.1299 21.578 20.5132 22.449 18.6059C23.32 16.6987 23.6244 14.5813 23.326 12.5059C23.0276 10.4305 22.1389 8.48461 20.7659 6.9C20.7727 6.89386 20.7795 6.88761 20.7862 6.88125L21.3393 6.32813L21.8909 6.88125C21.9629 6.95587 22.0491 7.01538 22.1445 7.05633C22.2398 7.09727 22.3423 7.11883 22.446 7.11973C22.5498 7.12063 22.6526 7.10086 22.7486 7.06158C22.8447 7.0223 22.9319 6.96429 23.0052 6.89093C23.0786 6.81758 23.1366 6.73035 23.1759 6.63434C23.2152 6.53833 23.2349 6.43545 23.234 6.33172C23.2331 6.22798 23.2116 6.12547 23.1706 6.03015C23.1297 5.93484 23.0702 5.84863 22.9956 5.77656L20.7862 3.56563C20.7141 3.49101 20.6279 3.43149 20.5326 3.39055C20.4373 3.3496 20.3348 3.32805 20.231 3.32715C20.1273 3.32625 20.0244 3.34601 19.9284 3.3853C19.8324 3.42458 19.7452 3.48259 19.6718 3.55594C19.5985 3.6293 19.5404 3.71652 19.5012 3.81254C19.4619 3.90855 19.4421 4.01142 19.443 4.11516C19.4439 4.21889 19.4655 4.32141 19.5064 4.41672C19.5474 4.51204 19.6069 4.59824 19.6815 4.67031L20.2346 5.22344L19.6815 5.77656C19.6752 5.78274 19.6689 5.78899 19.6627 5.79531C18.081 4.42152 16.1367 3.5329 14.0627 3.23594V1.5625H14.844C15.0512 1.5625 15.2499 1.48019 15.3964 1.33368C15.5429 1.18716 15.6252 0.98845 15.6252 0.78125C15.6252 0.57405 15.5429 0.375336 15.3964 0.228823C15.2499 0.08231 15.0512 0 14.844 0L10.1565 0ZM13.2815 8.75V14.0625C13.2815 14.2697 13.1992 14.4684 13.0527 14.6149C12.9062 14.7614 12.7074 14.8438 12.5002 14.8438H7.0315C6.8243 14.8438 6.62558 14.7614 6.47907 14.6149C6.33256 14.4684 6.25025 14.2697 6.25025 14.0625C6.25025 13.8553 6.33256 13.6566 6.47907 13.5101C6.62558 13.3636 6.8243 13.2812 7.0315 13.2812H11.719V8.75C11.719 8.5428 11.8013 8.34409 11.9478 8.19757C12.0943 8.05106 12.293 7.96875 12.5002 7.96875C12.7074 7.96875 12.9062 8.05106 13.0527 8.19757C13.1992 8.34409 13.2815 8.5428 13.2815 8.75Z" fill="black"/>
</g>
<defs>
<clipPath id="clip0_873_27257">
<rect width="25" height="25" fill="white"/>
</clipPath>
</defs>
</svg>
