<svg width="89" height="82" viewBox="0 0 89 82" fill="none" xmlns="http://www.w3.org/2000/svg">
<mask id="mask0_924_30357" style="mask-type:alpha" maskUnits="userSpaceOnUse" x="0" y="0" width="89" height="82">
<path d="M0 20C0 8.95431 8.95431 0 20 0H89V82H20C8.95431 82 0 73.0457 0 62V20Z" fill="#C4C4C4"/>
</mask>
<g mask="url(#mask0_924_30357)">
<path d="M117.398 -11.8812C118.42 -10.8634 119 -9.48929 119 -8.04733V96.5714C119 99.5741 116.563 102 113.545 102H4.45455C1.4375 102 -1 99.5741 -1 96.5714V-44.5714C-1 -47.5741 1.4375 -50 4.45455 -50H76.8466C78.2955 -50 79.6932 -49.4232 80.7159 -48.4054L117.398 -11.8812V-11.8812ZM106.42 -5.55357L74.3409 -37.4804V-5.55357H106.42Z" fill="#FFBE3D"/>
<path d="M35.6472 28.9202L57.075 25.0157C58.1444 24.8595 59 25.8942 59 26.968V51.2149C59 55.0022 55.9472 58.0478 52.1944 58.0478C48.4417 58.0478 45.3889 55.0022 45.3889 51.2149C45.3889 47.447 48.4417 44.382 52.1944 44.382C53.2444 44.382 54.2167 44.6553 55.1111 45.0653V32.8247L37.6111 36.7292V54.1433C37.1444 57.4621 34.2278 60 30.8056 60C27.0528 60 24 56.9545 24 53.1671C24 49.3993 27.0528 46.3343 30.8056 46.3343C31.8556 46.3343 32.8278 46.6076 33.7222 47.0175V30.8724C33.7222 29.7987 34.5778 29.0959 35.6472 28.9202Z" fill="white"/>
</g>
</svg>
