<svg width="21" height="21" viewBox="0 0 21 21" fill="none" xmlns="http://www.w3.org/2000/svg">
<path d="M12.4 17C15.9824 17 17.7741 17 18.8866 15.828C20 14.657 20 12.771 20 9C20 5.229 20 3.343 18.8866 2.172C17.7741 1 15.9824 1 12.4 1H8.6C5.01755 1 3.22585 1 2.1134 2.172C1 3.343 1 5.229 1 9C1 12.771 1 14.657 2.1134 15.828C2.73375 16.482 3.565 16.771 4.8 16.898" stroke="black" stroke-width="1.5" stroke-linecap="round" stroke-linejoin="round"/>
<path d="M13 17.5116C11.7146 17.5116 10.2982 18.0155 9.00552 18.6655C6.92769 19.7105 5.88877 20.2335 5.37711 19.9C4.86545 19.5674 4.96217 18.5345 5.15664 16.4696L5.20032 16" stroke="black" stroke-width="1.5" stroke-linecap="round"/>
</svg>
