<svg width="16" height="16" viewBox="0 0 16 16" fill="none" xmlns="http://www.w3.org/2000/svg">
<path d="M13.6 1.6H12.8V0.8C12.8 0.32 12.48 0 12 0C11.52 0 11.2 0.32 11.2 0.8V1.6H4.8V0.8C4.8 0.32 4.48 0 4 0C3.52 0 3.2 0.32 3.2 0.8V1.6H2.4C1.04 1.6 0 2.64 0 4V4.8H16V4C16 2.64 14.96 1.6 13.6 1.6ZM0 13.6C0 14.96 1.04 16 2.4 16H13.6C14.96 16 16 14.96 16 13.6V6.4H0V13.6ZM12 8C12.48 8 12.8 8.32 12.8 8.8C12.8 9.28 12.48 9.6 12 9.6C11.52 9.6 11.2 9.28 11.2 8.8C11.2 8.32 11.52 8 12 8ZM12 11.2C12.48 11.2 12.8 11.52 12.8 12C12.8 12.48 12.48 12.8 12 12.8C11.52 12.8 11.2 12.48 11.2 12C11.2 11.52 11.52 11.2 12 11.2ZM8 8C8.48 8 8.8 8.32 8.8 8.8C8.8 9.28 8.48 9.6 8 9.6C7.52 9.6 7.2 9.28 7.2 8.8C7.2 8.32 7.52 8 8 8ZM8 11.2C8.48 11.2 8.8 11.52 8.8 12C8.8 12.48 8.48 12.8 8 12.8C7.52 12.8 7.2 12.48 7.2 12C7.2 11.52 7.52 11.2 8 11.2ZM4 8C4.48 8 4.8 8.32 4.8 8.8C4.8 9.28 4.48 9.6 4 9.6C3.52 9.6 3.2 9.28 3.2 8.8C3.2 8.32 3.52 8 4 8ZM4 11.2C4.48 11.2 4.8 11.52 4.8 12C4.8 12.48 4.48 12.8 4 12.8C3.52 12.8 3.2 12.48 3.2 12C3.2 11.52 3.52 11.2 4 11.2Z" fill="black"/>
</svg>
