<svg width="89" height="82" viewBox="0 0 89 82" fill="none" xmlns="http://www.w3.org/2000/svg">
<mask id="mask0_776_10563" style="mask-type:alpha" maskUnits="userSpaceOnUse" x="0" y="0" width="89" height="82">
<path d="M0 20C0 8.95431 8.95431 0 20 0H89V82H20C8.95431 82 0 73.0457 0 62V20Z" fill="#C4C4C4"/>
</mask>
<g mask="url(#mask0_776_10563)">
<path d="M27.0115 59.9179C28.0849 59.2892 29.2579 58.6759 30.5305 58.0932C29.4554 59.6961 28.3041 61.2466 27.0805 62.7392C24.9339 65.3229 23.2625 66.6952 22.2122 67.1246C22.125 67.1614 22.0353 67.1922 21.9439 67.2166C21.8674 67.1104 21.8006 66.9975 21.7445 66.8792C21.3152 66.0359 21.3305 65.2232 22.0512 64.1192C22.8639 62.8542 24.4969 61.4052 27.0115 59.9179ZM45.8332 47.2909C44.9209 47.4826 44.0162 47.6742 43.1039 47.8889C44.4552 45.2412 45.7335 42.5569 46.9372 39.8389C48.1491 42.0846 49.4536 44.2792 50.8472 46.4169C49.1835 46.6622 47.5045 46.9536 45.8332 47.2909ZM65.1915 54.4899C64.0007 53.5294 62.8857 52.4785 61.8565 51.3466C63.6045 51.3849 65.1839 51.5152 66.5485 51.7606C68.9789 52.1976 70.1212 52.8876 70.5199 53.3629C70.6455 53.4956 70.7167 53.6708 70.7192 53.8536C70.6923 54.3944 70.5345 54.9206 70.2592 55.3869C70.1046 55.7604 69.8564 56.0878 69.5385 56.3376C69.3803 56.4347 69.1938 56.4752 69.0096 56.4526C68.3195 56.4296 67.0315 55.9466 65.1915 54.4899ZM48.1332 18.1039C47.8265 19.9746 47.3052 22.1212 46.5999 24.4596C46.34 23.584 46.1124 22.6992 45.9175 21.8069C45.3349 19.1006 45.2505 16.9769 45.5649 15.5049C45.8562 14.1479 46.4082 13.6036 47.0675 13.3352C47.4212 13.1794 47.7957 13.076 48.1792 13.0286C48.2789 13.2586 48.3939 13.7339 48.4245 14.5466C48.4629 15.4819 48.3709 16.6702 48.1332 18.1116V18.1039Z" fill="#FE7983"/>
<path fill-rule="evenodd" clip-rule="evenodd" d="M15.3333 -35.3335H55.913C57.9462 -35.3331 59.8959 -34.525 61.3333 -33.0872L89.7537 -4.66683C91.1915 -3.22939 91.9996 -1.27966 92 0.753498V71.9998C92 76.0665 90.3845 79.9666 87.509 82.8421C84.6334 85.7177 80.7333 87.3332 76.6667 87.3332H15.3333C11.2667 87.3332 7.36659 85.7177 4.49103 82.8421C1.61547 79.9666 0 76.0665 0 71.9998V-20.0002C0 -24.0668 1.61547 -27.9669 4.49103 -30.8425C7.36659 -33.718 11.2667 -35.3335 15.3333 -35.3335ZM57.5 -23.8335V-8.50017C57.5 -6.46684 58.3077 -4.51679 59.7455 -3.07901C61.1833 -1.64124 63.1333 -0.833496 65.1667 -0.833496H80.5L57.5 -23.8335ZM16.5983 69.4545C17.2883 70.8345 18.3617 72.0842 19.9563 72.6668C21.5433 73.2418 23.115 72.9735 24.403 72.4368C26.841 71.4402 29.2713 69.0942 31.5023 66.4108C34.0553 63.3365 36.7387 59.3038 39.33 54.8342C44.3327 53.3514 49.4558 52.3099 54.6403 51.7215C56.9403 54.6578 59.317 57.1878 61.617 59.0048C63.7637 60.6915 66.24 62.0945 68.7777 62.2018C70.16 62.2703 71.5285 61.9 72.6877 61.1438C73.876 60.3695 74.7577 59.2502 75.4017 57.9545C76.0917 56.5668 76.5133 55.1178 76.4597 53.6382C76.4111 52.1793 75.8707 50.7798 74.9263 49.6668C73.1937 47.5968 70.357 46.6002 67.5663 46.1018C64.1811 45.5775 60.7463 45.4489 57.3313 45.7185C54.4476 41.6418 51.9332 37.316 49.818 32.7925C51.7347 27.7325 53.1683 22.9485 53.8047 19.0385C54.0807 17.3672 54.2263 15.7725 54.1727 14.3312C54.1631 12.9005 53.8303 11.4904 53.199 10.2065C52.8353 9.49792 52.3184 8.87919 51.6859 8.39518C51.0533 7.91116 50.321 7.57401 49.542 7.40817C47.9933 7.0785 46.3987 7.40817 44.9343 7.9985C42.044 9.1485 40.5183 11.6018 39.9433 14.3082C39.3837 16.9148 39.6367 19.9508 40.296 23.0175C40.9707 26.1302 42.1207 29.5188 43.5927 32.9458C41.2381 38.8016 38.5188 44.504 35.4507 50.0195C31.4996 51.2626 27.6911 52.9202 24.0887 54.9645C21.252 56.6512 18.7297 58.6445 17.2117 60.9982C15.6017 63.4975 15.1033 66.4722 16.5983 69.4545Z" fill="#FE7983"/>
</g>
</svg>
