<svg width="241" height="273" viewBox="0 0 241 273" fill="none" xmlns="http://www.w3.org/2000/svg">
<path d="M216.9 136.5C216.898 121.951 213.677 107.586 207.473 94.4589C201.269 81.332 192.239 69.776 181.044 60.638C169.85 51.5 156.776 45.0118 142.78 41.6491C128.784 38.2864 114.221 38.1344 100.16 41.2043C86.098 44.2742 72.894 50.4882 61.5157 59.3905C50.1374 68.2929 40.8732 79.6581 34.4025 92.6526C27.9318 105.647 24.4185 119.942 24.1203 134.488C23.8221 149.035 26.7466 163.464 32.6792 176.719H208.296C213.971 164.088 216.904 150.374 216.9 136.5Z" fill="#E8F4FA"/>
<path d="M32.6797 176.719C40.3265 193.79 52.6756 208.27 68.2486 218.426C83.8216 228.581 101.958 233.983 120.488 233.983C139.018 233.983 157.154 228.581 172.727 218.426C188.3 208.27 200.65 193.79 208.296 176.719H32.6797Z" fill="white"/>
<path d="M26.4854 176.719H214.465" stroke="#4F4A45" stroke-linecap="round" stroke-linejoin="round"/>
<path d="M15.6406 176.719H21.6656" stroke="#4F4A45" stroke-linecap="round" stroke-linejoin="round"/>
<path d="M219.285 176.719H225.31" stroke="#4F4A45" stroke-linecap="round" stroke-linejoin="round"/>
<path opacity="0.15" d="M206.802 204.896C208.923 203.945 210.056 202.922 210.056 201.874C210.056 195.487 167.664 190.295 115.343 190.295C63.0218 190.295 20.6299 195.487 20.6299 201.874C20.6299 208.26 63.0218 213.476 115.343 213.476C132.213 213.476 148.191 212.915 161.952 211.965C169.616 214.238 177.588 215.266 185.57 215.012C200.753 215.012 213.068 212.257 213.068 208.845C213.117 207.334 210.755 205.969 206.802 204.896Z" fill="#191816"/>
<path d="M127.561 154.757C125.535 154.757 123.592 155.571 122.159 157.02C120.727 158.469 119.922 160.434 119.922 162.484C119.922 164.533 120.727 166.498 122.159 167.947C123.592 169.396 125.535 170.21 127.561 170.21H181.039C181.462 170.172 181.889 170.224 182.291 170.361C182.694 170.499 183.063 170.72 183.377 171.01C183.69 171.3 183.94 171.653 184.112 172.046C184.283 172.439 184.371 172.864 184.371 173.294C184.371 173.724 184.283 174.148 184.112 174.542C183.94 174.935 183.69 175.288 183.377 175.578C183.063 175.868 182.694 176.089 182.291 176.226C181.889 176.364 181.462 176.415 181.039 176.377H127.561C124.014 176.227 120.662 174.696 118.205 172.105C115.748 169.513 114.376 166.062 114.376 162.471C114.376 158.881 115.748 155.429 118.205 152.838C120.662 150.246 124.014 148.716 127.561 148.565H181.039C181.851 148.565 182.629 148.892 183.203 149.472C183.777 150.053 184.1 150.84 184.1 151.661C184.1 152.482 183.777 153.269 183.203 153.85C182.629 154.431 181.851 154.757 181.039 154.757H127.561Z" fill="#9F5AE5"/>
<path d="M113.824 162.484C113.856 158.818 115.316 155.313 117.889 152.729C120.461 150.146 123.937 148.694 127.561 148.688H181.039C181.851 148.688 182.629 149.014 183.203 149.594C183.777 150.175 184.1 150.962 184.1 151.783C184.1 152.604 183.777 153.392 183.203 153.972C182.629 154.553 181.851 154.879 181.039 154.879H127.561C125.535 154.879 123.592 155.693 122.159 157.142C120.726 158.591 119.922 160.556 119.922 162.606L113.824 162.484Z" fill="#BF8DF2"/>
<path d="M127.561 154.757C125.535 154.757 123.592 155.571 122.159 157.02C120.727 158.469 119.922 160.434 119.922 162.484C119.922 164.533 120.727 166.498 122.159 167.947C123.592 169.396 125.535 170.21 127.561 170.21H181.039C181.462 170.172 181.889 170.224 182.291 170.361C182.694 170.499 183.063 170.72 183.377 171.01C183.69 171.3 183.94 171.653 184.112 172.046C184.283 172.439 184.371 172.864 184.371 173.294C184.371 173.724 184.283 174.148 184.112 174.542C183.94 174.935 183.69 175.288 183.377 175.578C183.063 175.868 182.694 176.089 182.291 176.226C181.889 176.364 181.462 176.415 181.039 176.377H127.561C124.014 176.227 120.662 174.696 118.205 172.105C115.748 169.513 114.376 166.062 114.376 162.471C114.376 158.881 115.748 155.429 118.205 152.838C120.662 150.246 124.014 148.716 127.561 148.565H181.039C181.851 148.565 182.629 148.892 183.203 149.472C183.777 150.053 184.1 150.84 184.1 151.661C184.1 152.482 183.777 153.269 183.203 153.85C182.629 154.431 181.851 154.757 181.039 154.757H127.561Z" stroke="#191816" stroke-linecap="round" stroke-linejoin="round"/>
<path d="M181.039 170.211V154.757H127.562C125.535 154.757 123.592 155.571 122.159 157.02C120.727 158.469 119.922 160.434 119.922 162.484C119.922 164.533 120.727 166.498 122.159 167.947C123.592 169.396 125.535 170.211 127.562 170.211H181.039Z" fill="#FFF5E3" stroke="#191816" stroke-linecap="round" stroke-linejoin="round"/>
<path d="M181.04 160.924H159.639" stroke="#191816" stroke-linecap="round" stroke-linejoin="round"/>
<path d="M153.541 160.924H147.42" stroke="#191816" stroke-linecap="round" stroke-linejoin="round"/>
<path d="M122.911 130.041C121.7 130.041 120.501 130.282 119.383 130.75C118.265 131.219 117.248 131.906 116.392 132.771C115.536 133.637 114.857 134.665 114.394 135.796C113.931 136.927 113.692 138.14 113.692 139.364C113.692 140.588 113.931 141.801 114.394 142.932C114.857 144.063 115.536 145.091 116.392 145.957C117.248 146.823 118.265 147.509 119.383 147.978C120.501 148.446 121.7 148.688 122.911 148.688H165.76C166.161 148.691 166.559 148.614 166.93 148.461C167.301 148.308 167.639 148.082 167.923 147.797C168.208 147.511 168.434 147.171 168.588 146.797C168.742 146.423 168.821 146.022 168.821 145.616V142.399H122.911C122.099 142.399 121.32 142.073 120.746 141.492C120.172 140.912 119.85 140.124 119.85 139.303C119.85 138.482 120.172 137.695 120.746 137.114C121.32 136.534 122.099 136.208 122.911 136.208H168.701V133.112C168.701 132.706 168.621 132.305 168.467 131.931C168.313 131.557 168.087 131.217 167.803 130.932C167.518 130.646 167.181 130.42 166.809 130.267C166.438 130.114 166.041 130.037 165.64 130.041H122.911Z" fill="#00B8F0"/>
<path d="M119.922 139.303C119.921 138.495 120.234 137.718 120.792 137.14C121.351 136.561 122.111 136.227 122.91 136.208H168.7V133.112C168.7 132.706 168.621 132.305 168.466 131.931C168.312 131.557 168.087 131.217 167.802 130.932C167.517 130.646 167.18 130.42 166.809 130.267C166.437 130.114 166.04 130.037 165.639 130.041H122.91C120.481 130.041 118.152 131.016 116.434 132.754C114.717 134.491 113.752 136.847 113.752 139.303H119.922Z" fill="#4ACFFF"/>
<path d="M122.911 130.041C121.7 130.041 120.501 130.282 119.383 130.75C118.265 131.219 117.248 131.906 116.392 132.771C115.536 133.637 114.857 134.665 114.394 135.796C113.931 136.927 113.692 138.14 113.692 139.364C113.692 140.588 113.931 141.801 114.394 142.932C114.857 144.063 115.536 145.091 116.392 145.957C117.248 146.823 118.265 147.509 119.383 147.978C120.501 148.446 121.7 148.688 122.911 148.688H165.76C166.161 148.691 166.559 148.614 166.93 148.461C167.301 148.308 167.639 148.082 167.923 147.797C168.208 147.511 168.434 147.171 168.588 146.797C168.742 146.423 168.821 146.022 168.821 145.616V142.399H122.911C122.099 142.399 121.32 142.073 120.746 141.492C120.172 140.912 119.85 140.124 119.85 139.303C119.85 138.482 120.172 137.695 120.746 137.114C121.32 136.534 122.099 136.208 122.911 136.208H168.701V133.112C168.701 132.706 168.621 132.305 168.467 131.931C168.313 131.557 168.087 131.217 167.803 130.932C167.518 130.646 167.181 130.42 166.809 130.267C166.438 130.114 166.041 130.037 165.64 130.041H122.911Z" stroke="#191816" stroke-linecap="round" stroke-linejoin="round"/>
<path d="M165.76 142.399V136.208H122.91C122.099 136.208 121.32 136.534 120.746 137.114C120.172 137.695 119.85 138.482 119.85 139.303C119.85 140.124 120.172 140.912 120.746 141.492C121.32 142.073 122.099 142.399 122.91 142.399H165.76Z" fill="#FFF5E3" stroke="#191816" stroke-linecap="round" stroke-linejoin="round"/>
<path d="M103.007 108.143L69.029 187.558C68.3577 189.127 69.0711 190.949 70.6224 191.628L84.6452 197.766C86.1965 198.445 87.9984 197.723 88.6697 196.154L122.648 116.74C123.319 115.171 122.606 113.348 121.054 112.669L107.032 106.532C105.48 105.853 103.678 106.574 103.007 108.143Z" fill="#B89558"/>
<path d="M76.0118 193.976L70.6133 191.539C69.8688 191.212 69.283 190.6 68.9847 189.836C68.6865 189.073 68.7001 188.221 69.0227 187.468L103.004 108.054C103.327 107.301 103.932 106.709 104.687 106.407C105.442 106.105 106.284 106.119 107.028 106.446L112.403 108.883L76.0118 193.976Z" fill="#DEBB7E"/>
<path d="M103.007 108.143L69.029 187.558C68.3577 189.127 69.0711 190.949 70.6224 191.628L84.6452 197.766C86.1965 198.445 87.9984 197.723 88.6697 196.154L122.648 116.74C123.319 115.171 122.606 113.348 121.054 112.669L107.032 106.532C105.48 105.853 103.678 106.574 103.007 108.143Z" stroke="#191816" stroke-linecap="round" stroke-linejoin="round"/>
<path d="M117.775 128.079L98.1348 119.483L93.2821 130.825L112.923 139.421L117.775 128.079Z" fill="#F0D5A8" stroke="#191816" stroke-linecap="round" stroke-linejoin="round"/>
<path d="M78.9013 118.217L37.7525 186.937C36.8769 188.399 37.3391 190.302 38.785 191.188L49.2364 197.59C50.6823 198.476 52.5643 198.008 53.44 196.546L94.5887 127.826C95.4644 126.363 95.0021 124.46 93.5562 123.574L83.1048 117.172C81.6589 116.287 79.7769 116.754 78.9013 118.217Z" fill="#FF8A14"/>
<path d="M42.3922 193.391L38.7772 191.173C38.085 190.749 37.5873 190.064 37.3931 189.269C37.1989 188.474 37.3239 187.634 37.7409 186.932L78.8796 118.194C79.3079 117.497 79.9909 116.998 80.7804 116.806C81.57 116.615 82.4024 116.746 83.0971 117.171L86.7603 119.438L42.3922 193.391Z" fill="#FFAA54"/>
<path d="M78.9013 118.217L37.7525 186.937C36.8769 188.399 37.3391 190.302 38.785 191.188L49.2364 197.59C50.6823 198.476 52.5643 198.008 53.44 196.546L94.5887 127.826C95.4644 126.363 95.0021 124.46 93.5562 123.574L83.1048 117.172C81.6589 116.287 79.7769 116.754 78.9013 118.217Z" stroke="#191816" stroke-linecap="round" stroke-linejoin="round"/>
<path d="M88.2148 138.395L72.5273 128.786L66.1977 139.356L81.8852 148.965L88.2148 138.395Z" fill="#FFCC99" stroke="#191816" stroke-linecap="round" stroke-linejoin="round"/>
<path d="M187.161 176.377H101.606C99.9152 176.377 98.5449 177.763 98.5449 179.473V194.927C98.5449 196.637 99.9152 198.022 101.606 198.022H187.161C188.851 198.022 190.221 196.637 190.221 194.927V179.473C190.221 177.763 188.851 176.377 187.161 176.377Z" fill="#6DD627"/>
<path d="M190.197 184.104V179.473C190.2 179.068 190.124 178.666 189.973 178.29C189.822 177.915 189.599 177.573 189.316 177.286C189.034 176.998 188.698 176.769 188.328 176.614C187.958 176.458 187.561 176.377 187.161 176.377H101.606C100.794 176.377 100.015 176.704 99.4414 177.284C98.8674 177.865 98.5449 178.652 98.5449 179.473V184.104H190.197Z" fill="#9CEB60"/>
<path d="M187.161 176.377H101.606C99.9152 176.377 98.5449 177.763 98.5449 179.473V194.927C98.5449 196.637 99.9152 198.022 101.606 198.022H187.161C188.851 198.022 190.221 196.637 190.221 194.927V179.473C190.221 177.763 188.851 176.377 187.161 176.377Z" stroke="#191816" stroke-linecap="round" stroke-linejoin="round"/>
<path d="M171.882 198.022V176.377H159.663V198.022H171.882Z" fill="#C8FFA1" stroke="#191816" stroke-linecap="round" stroke-linejoin="round"/>
<path d="M142.841 94.3312C158.12 86.6043 162.699 98.6943 162.699 109.785C162.699 120.876 153.541 136.597 142.841 127.213C132.14 136.5 122.91 120.876 122.91 109.687C122.91 98.4993 127.561 86.6043 142.841 94.3312Z" fill="#FF6242"/>
<path d="M142.841 100.669C149.897 100.534 156.81 102.677 162.579 106.787C161.784 96.6712 156.747 87.2868 142.841 94.3312C128.936 87.3112 123.899 96.7687 123.104 106.787C128.874 102.68 135.787 100.537 142.841 100.669Z" fill="#FF866E"/>
<path d="M142.841 94.3312C158.12 86.6043 162.699 98.6943 162.699 109.785C162.699 120.876 153.541 136.597 142.841 127.213C132.14 136.5 122.91 120.876 122.91 109.687C122.91 98.4993 127.561 86.6043 142.841 94.3312Z" stroke="#191816" stroke-linecap="round" stroke-linejoin="round"/>
<path d="M153.541 73.2468C153.541 73.2468 156.361 77.1956 151.902 83.4843C147.444 89.7731 142.841 88.3594 142.841 88.3594C142.841 88.3594 140.021 84.4106 144.455 78.1218C148.89 71.8331 153.541 73.2468 153.541 73.2468Z" fill="#6DD627" stroke="#191816" stroke-linecap="round" stroke-linejoin="round"/>
<path d="M187.16 173.306H181.039V148.687C181.039 147.866 181.362 147.079 181.936 146.498C182.51 145.918 183.288 145.592 184.1 145.592C184.912 145.592 185.69 145.918 186.264 146.498C186.838 147.079 187.16 147.866 187.16 148.687V173.306Z" fill="#00C9D4" stroke="#191816" stroke-linecap="round" stroke-linejoin="round"/>
<path d="M187.16 151.661H181.039V157.852H187.16V151.661Z" fill="#656769" stroke="#191816" stroke-linecap="round" stroke-linejoin="round"/>
<path d="M184.101 140.863V145.494" stroke="#191816" stroke-linecap="round" stroke-linejoin="round"/>
<path d="M187.161 148.688H187.981C188.997 148.688 189.971 149.096 190.69 149.823C191.409 150.549 191.812 151.535 191.812 152.563V156.414" stroke="#191816" stroke-linecap="round" stroke-linejoin="round"/>
<path d="M178.871 173.306L172.846 149.126L165.447 151.003L170.99 173.306H178.871Z" fill="#FFE500" stroke="#191816" stroke-linecap="round" stroke-linejoin="round"/>
<path d="M172.852 149.143L165.443 151.028L166.937 157.032L174.346 155.147L172.852 149.143Z" fill="#E0E0E0" stroke="#191816" stroke-linecap="round" stroke-linejoin="round"/>
<path d="M165.902 142.921L168.636 142.226C169.256 142.069 169.913 142.166 170.461 142.498C171.01 142.83 171.405 143.369 171.561 143.996L172.836 149.126L165.427 151.009L164.152 145.88C163.996 145.253 164.093 144.589 164.421 144.034C164.749 143.479 165.282 143.079 165.902 142.921Z" fill="#FF6242" stroke="#191816" stroke-linecap="round" stroke-linejoin="round"/>
<path d="M201.259 173.306L206.681 154.83L196.439 151.734L190.101 173.306H201.259Z" fill="white" stroke="#191816" stroke-linecap="round" stroke-linejoin="round"/>
<path d="M206.682 154.83L196.439 151.734L197.307 148.785L201.115 146.713L205.501 148.029L207.55 151.856L206.682 154.83Z" fill="#FF6242" stroke="#191816" stroke-linecap="round" stroke-linejoin="round"/>
<path d="M168.7 173.306H202.44V202.312C202.44 203.605 201.932 204.845 201.028 205.76C200.125 206.674 198.899 207.187 197.62 207.187H173.52C172.242 207.187 171.016 206.674 170.112 205.76C169.208 204.845 168.7 203.605 168.7 202.312V173.306Z" fill="#DAEDF7"/>
<path d="M196.318 201.118H174.918C173.311 201.112 171.771 200.467 170.63 199.322C169.489 198.178 168.839 196.625 168.82 195V201.191C168.864 202.797 169.526 204.322 170.665 205.442C171.803 206.562 173.329 207.188 174.918 207.188H196.318C197.921 207.188 199.46 206.552 200.605 205.417C201.749 204.283 202.408 202.739 202.44 201.118V195C202.421 196.629 201.767 198.185 200.622 199.331C199.476 200.476 197.929 201.118 196.318 201.118Z" fill="#ADC4D9"/>
<path d="M168.7 173.306H202.44V202.312C202.44 203.605 201.932 204.845 201.028 205.76C200.125 206.674 198.899 207.187 197.62 207.187H173.52C172.242 207.187 171.016 206.674 170.112 205.76C169.208 204.845 168.7 203.605 168.7 202.312V173.306Z" stroke="#191816" stroke-linecap="round" stroke-linejoin="round"/>
<path d="M193.258 173.306H177.979V207.309H193.258V173.306Z" stroke="#191816" stroke-linecap="round" stroke-linejoin="round"/>
</svg>
