<svg width="30" height="28" viewBox="0 0 30 28" fill="none" xmlns="http://www.w3.org/2000/svg">
<path d="M25.971 21.3276C25.9731 21.4799 25.9444 21.6312 25.8867 21.7724C25.829 21.9136 25.7434 22.0418 25.6351 22.1495C25.5267 22.2571 25.3977 22.342 25.2559 22.399C25.114 22.4561 24.9621 22.4842 24.8093 22.4816L5.1149 22.4074C4.95826 22.4124 4.8023 22.3856 4.65655 22.3285C4.51079 22.2714 4.3783 22.1853 4.26715 22.0754C4.156 21.9655 4.06853 21.8342 4.01007 21.6894C3.95162 21.5446 3.92342 21.3895 3.92717 21.2333L4.06607 6.21595C4.06575 6.06411 4.09563 5.91365 4.15397 5.77327C4.21231 5.63289 4.29796 5.50536 4.40598 5.39806C4.514 5.29076 4.64224 5.20581 4.7833 5.14812C4.92435 5.09043 5.07543 5.06114 5.22779 5.06195L8.7153 5.08142L11.0075 7.37038L24.9035 7.4489C25.0564 7.44651 25.2081 7.47477 25.3497 7.532C25.4912 7.58924 25.6198 7.67429 25.7276 7.78208C25.8354 7.88987 25.9203 8.01822 25.9773 8.15948C26.0343 8.30074 26.0622 8.45203 26.0593 8.60436L25.971 21.3276Z" fill="#FFE500"/>
<path d="M25.402 7.1282L11.6136 7.11358L9.34792 4.88352L5.88903 4.88622C5.73631 4.88719 5.58489 4.91794 5.44371 4.97667C5.30252 5.0354 5.17442 5.12092 5.06696 5.22817C4.95951 5.33542 4.87486 5.46225 4.81803 5.60116C4.7612 5.74007 4.73332 5.88826 4.73605 6.03699L4.69893 8.82991C4.7012 8.68341 4.73308 8.53836 4.79275 8.40305C4.85242 8.26775 4.93871 8.14486 5.04669 8.04138C5.15466 7.93791 5.2822 7.8559 5.42202 7.80004C5.56183 7.74417 5.71117 7.71556 5.8615 7.71583L9.3046 7.70419L11.5735 9.94648L25.3649 9.92112C25.6735 9.92299 25.967 10.0436 26.1816 10.2567C26.3962 10.4699 26.5143 10.7582 26.5104 11.059L26.5443 8.25381C26.5499 8.10477 26.5244 7.95661 26.4693 7.81832C26.4143 7.68002 26.3308 7.55446 26.224 7.44924C26.1172 7.34401 25.9893 7.2613 25.848 7.20612C25.7067 7.15093 25.555 7.12443 25.402 7.1282Z" fill="#FFF48C"/>
<path d="M26.514 21.1855C26.5161 21.3378 26.4874 21.4891 26.4297 21.6303C26.372 21.7715 26.2864 21.8997 26.178 22.0074C26.0696 22.115 25.9407 22.1999 25.7988 22.257C25.657 22.314 25.5051 22.3421 25.3522 22.3395L5.65787 22.2653C5.50123 22.2703 5.34527 22.2435 5.19952 22.1864C5.05376 22.1293 4.92127 22.0432 4.81012 21.9333C4.69897 21.8235 4.61149 21.6921 4.55304 21.5473C4.49459 21.4026 4.46638 21.2474 4.47014 21.0912L4.60904 6.07386C4.60872 5.92202 4.63859 5.77156 4.69694 5.63118C4.75528 5.4908 4.84093 5.36327 4.94895 5.25597C5.05697 5.14867 5.18521 5.06372 5.32627 5.00603C5.46732 4.94834 5.6184 4.91905 5.77076 4.91986L9.25827 4.93933L11.5505 7.22829L25.4465 7.30681C25.5993 7.30442 25.7511 7.33268 25.8926 7.38991C26.0342 7.44715 26.1627 7.5322 26.2705 7.63999C26.3784 7.74778 26.4633 7.87613 26.5203 8.01739C26.5773 8.15865 26.6051 8.30994 26.6022 8.46227L26.514 21.1855Z" stroke="#191816" stroke-linecap="round" stroke-linejoin="round"/>
</svg>
