<svg width="25" height="25" viewBox="0 0 25 25" fill="none" xmlns="http://www.w3.org/2000/svg">
<g clip-path="url(#clip0_866_20511)">
<path d="M10.1563 0C9.94905 0 9.75034 0.08231 9.60383 0.228823C9.45731 0.375336 9.375 0.57405 9.375 0.78125C9.375 0.98845 9.45731 1.18716 9.60383 1.33368C9.75034 1.48019 9.94905 1.5625 10.1563 1.5625H10.9375V3.23438C8.20071 3.62994 5.71527 5.0473 3.98126 7.2013C2.24724 9.35529 1.39333 12.0861 1.59133 14.8442C1.78933 17.6023 3.02455 20.1832 5.04845 22.0674C7.07236 23.9516 9.73477 24.9994 12.5 25C14.5967 24.9999 16.6492 24.3972 18.4131 23.2635C20.1769 22.1299 21.5778 20.5132 22.4488 18.6059C23.3197 16.6987 23.6242 14.5813 23.3257 12.5059C23.0273 10.4305 22.1387 8.48461 20.7656 6.9C20.7725 6.89386 20.7793 6.88761 20.7859 6.88125L21.3391 6.32813L21.8906 6.88125C21.9627 6.95587 22.0489 7.01538 22.1442 7.05633C22.2395 7.09727 22.342 7.11883 22.4458 7.11973C22.5495 7.12063 22.6524 7.10086 22.7484 7.06158C22.8444 7.0223 22.9316 6.96429 23.005 6.89093C23.0784 6.81758 23.1364 6.73035 23.1756 6.63434C23.2149 6.53833 23.2347 6.43545 23.2338 6.33172C23.2329 6.22798 23.2113 6.12547 23.1704 6.03015C23.1294 5.93484 23.0699 5.84863 22.9953 5.77656L20.7859 3.56563C20.7139 3.49101 20.6277 3.43149 20.5323 3.39055C20.437 3.3496 20.3345 3.32805 20.2308 3.32715C20.1271 3.32625 20.0242 3.34601 19.9282 3.3853C19.8321 3.42458 19.7449 3.48259 19.6716 3.55594C19.5982 3.6293 19.5402 3.71652 19.5009 3.81254C19.4616 3.90855 19.4419 4.01142 19.4428 4.11516C19.4437 4.21889 19.4652 4.32141 19.5062 4.41672C19.5471 4.51204 19.6066 4.59824 19.6813 4.67031L20.2344 5.22344L19.6813 5.77656C19.6749 5.78274 19.6687 5.78899 19.6625 5.79531C18.0807 4.42152 16.1364 3.5329 14.0625 3.23594V1.5625H14.8438C15.051 1.5625 15.2497 1.48019 15.3962 1.33368C15.5427 1.18716 15.625 0.98845 15.625 0.78125C15.625 0.57405 15.5427 0.375336 15.3962 0.228823C15.2497 0.08231 15.051 0 14.8438 0L10.1563 0ZM13.2813 8.75V14.0625C13.2813 14.2697 13.1989 14.4684 13.0524 14.6149C12.9059 14.7614 12.7072 14.8438 12.5 14.8438H7.03125C6.82405 14.8438 6.62534 14.7614 6.47883 14.6149C6.33231 14.4684 6.25 14.2697 6.25 14.0625C6.25 13.8553 6.33231 13.6566 6.47883 13.5101C6.62534 13.3636 6.82405 13.2812 7.03125 13.2812H11.7188V8.75C11.7188 8.5428 11.8011 8.34409 11.9476 8.19757C12.0941 8.05106 12.2928 7.96875 12.5 7.96875C12.7072 7.96875 12.9059 8.05106 13.0524 8.19757C13.1989 8.34409 13.2813 8.5428 13.2813 8.75Z" fill="#54A9FF"/>
</g>
<defs>
<clipPath id="clip0_866_20511">
<rect width="25" height="25" fill="white"/>
</clipPath>
</defs>
</svg>
