<svg width="26" height="26" viewBox="0 0 26 26" fill="none" xmlns="http://www.w3.org/2000/svg">
<path d="M23.75 13C23.75 10.1489 22.6174 7.41462 20.6014 5.3986C18.5854 3.38259 15.8511 2.25 13 2.25C10.1489 2.25 7.41462 3.38259 5.3986 5.3986C3.38259 7.41462 2.25 10.1489 2.25 13C2.25 15.8511 3.38259 18.5854 5.3986 20.6014C7.41462 22.6174 10.1489 23.75 13 23.75C15.8511 23.75 18.5854 22.6174 20.6014 20.6014C22.6174 18.5854 23.75 15.8511 23.75 13ZM25.65 13C25.65 16.355 24.3172 19.5726 21.9449 21.9449C19.5726 24.3172 16.355 25.65 13 25.65C11.3388 25.65 9.69382 25.3228 8.15905 24.6871C6.62429 24.0514 5.22976 23.1196 4.0551 21.9449C1.68276 19.5726 0.35 16.355 0.35 13C0.35 9.64501 1.68276 6.42743 4.0551 4.0551C6.42743 1.68276 9.64501 0.35 13 0.35C14.6612 0.35 16.3062 0.677202 17.8409 1.31292C19.3757 1.94865 20.7702 2.88044 21.9449 4.0551C23.1196 5.22976 24.0514 6.62429 24.6871 8.15905C25.3228 9.69382 25.65 11.3388 25.65 13ZM10.05 9.75C10.05 10.5967 9.2967 11.35 8.45 11.35C7.6033 11.35 6.85 10.5967 6.85 9.75C6.85 8.9033 7.6033 8.15 8.45 8.15C9.2967 8.15 10.05 8.9033 10.05 9.75ZM19.15 9.75C19.15 10.5967 18.3967 11.35 17.55 11.35C16.7033 11.35 15.95 10.5967 15.95 9.75C15.95 8.9033 16.7033 8.15 17.55 8.15C18.3967 8.15 19.15 8.9033 19.15 9.75ZM13 19.449C10.9523 19.449 9.15372 18.6469 8.03356 17.4604L9.36069 16.1333C10.1192 17.0048 11.4921 17.549 13 17.549C14.5079 17.549 15.8808 17.0048 16.6393 16.1333L17.9664 17.4604C16.8463 18.6469 15.0477 19.449 13 19.449Z" fill="black" stroke="white" stroke-width="0.7" stroke-linejoin="round"/>
</svg>
