<svg width="128" height="158" viewBox="0 0 128 158" fill="none" xmlns="http://www.w3.org/2000/svg">
<path d="M77.4695 157.523C103.192 157.523 124.045 155.428 124.045 152.843C124.045 150.258 103.192 148.163 77.4695 148.163C51.7469 148.163 30.8945 150.258 30.8945 152.843C30.8945 155.428 51.7469 157.523 77.4695 157.523Z" fill="#D6DAFF"/>
<path d="M115.432 94.0552L28.3567 117.078C27.5584 117.285 26.711 117.168 25.9983 116.752C25.2856 116.337 24.7651 115.657 24.5497 114.859L1.43765 27.0436C1.32761 26.6492 1.29705 26.2368 1.34776 25.8304C1.39848 25.4241 1.52944 25.032 1.73302 24.6769C1.9366 24.3218 2.20872 24.0109 2.5335 23.7623C2.85827 23.5137 3.22921 23.3324 3.62465 23.229L87.7027 1.09918C88.4974 0.893151 89.3413 1.01087 90.0496 1.4266C90.758 1.84233 91.2733 2.52222 91.4827 3.31757L115.432 94.0552Z" fill="white" stroke="#4550E5" stroke-linejoin="round"/>
<path d="M98.9079 75.2528L33.4599 92.5671C32.6653 92.7748 31.8211 92.6616 31.109 92.2517C30.3969 91.8418 29.874 91.1682 29.6529 90.3757L15.0729 35.0241C14.8672 34.2278 14.9847 33.3823 15.3996 32.6725C15.8145 31.9627 16.4931 31.4465 17.2869 31.2366L79.7379 14.6257C80.5361 14.419 81.3835 14.536 82.0962 14.9513C82.8089 15.3666 83.3294 16.0467 83.5449 16.8441L98.9079 75.2528Z" fill="#D6DAFF" stroke="#4550E5" stroke-linejoin="round"/>
<path d="M124.612 33.8071H36.8616C35.3705 33.8071 34.1616 35.0184 34.1616 36.5125V128.17C34.1616 129.664 35.3705 130.875 36.8616 130.875H124.612C126.103 130.875 127.312 129.664 127.312 128.17V36.5125C127.312 35.0184 126.103 33.8071 124.612 33.8071Z" fill="white" stroke="#4550E5" stroke-linejoin="round"/>
<path d="M113.434 45.0073H48.0398C46.5487 45.0073 45.3398 46.2186 45.3398 47.7127V105.77C45.3398 107.264 46.5487 108.475 48.0398 108.475H113.434C114.925 108.475 116.134 107.264 116.134 105.77V47.7127C116.134 46.2186 114.925 45.0073 113.434 45.0073Z" fill="#D6DAFF"/>
<path d="M113.434 45.0073H48.0398C46.5487 45.0073 45.3398 46.2186 45.3398 47.7127V105.77C45.3398 107.264 46.5487 108.475 48.0398 108.475H113.434C114.925 108.475 116.134 107.264 116.134 105.77V47.7127C116.134 46.2186 114.925 45.0073 113.434 45.0073Z" stroke="#4550E5" stroke-linejoin="round"/>
<path d="M60.2437 57.1544C61.1004 57.1508 61.9495 57.3168 62.7421 57.6429C63.5346 57.9689 64.2552 58.4486 64.8622 59.0544C65.4693 59.6602 65.9511 60.3801 66.2797 61.1729C66.6084 61.9657 66.7776 62.8158 66.7776 63.6742" stroke="#4550E5" stroke-linecap="round" stroke-linejoin="round"/>
<path d="M73.2846 57.1543C71.5588 57.1543 69.9037 57.8412 68.6834 59.0639C67.4631 60.2867 66.7776 61.945 66.7776 63.6742" stroke="#4550E5" stroke-linecap="round" stroke-linejoin="round"/>
<path d="M54.6548 70.1938C55.521 70.1974 56.3779 70.3727 57.1761 70.7097C57.9743 71.0467 58.698 71.5388 59.3055 72.1575C59.9129 72.7763 60.3921 73.5094 60.7154 74.3146C61.0386 75.1198 61.1995 75.9812 61.1888 76.849" stroke="#4550E5" stroke-linecap="round" stroke-linejoin="round"/>
<path d="M67.6956 70.1938C66.8307 70.1973 65.975 70.3728 65.1783 70.7102C64.3816 71.0475 63.6596 71.54 63.0543 72.1591C62.449 72.7782 61.9724 73.5116 61.6521 74.3166C61.3319 75.1217 61.1743 75.9825 61.1886 76.849" stroke="#4550E5" stroke-linecap="round" stroke-linejoin="round"/>
<path d="M108.682 108.475C108.682 108.475 92.8327 93.6493 90.3757 81.5834C90.202 80.7433 89.7447 79.9887 89.0808 79.4467C88.417 78.9047 87.5871 78.6084 86.7307 78.6075H71.0707C70.1969 78.6004 69.3487 78.9035 68.6766 79.463C68.0045 80.0226 67.5518 80.8025 67.3987 81.6646C65.1577 93.7034 50.9287 108.475 50.9287 108.475H108.682Z" fill="white" stroke="#4550E5" stroke-linejoin="round"/>
<path d="M74.2297 78.6079C73.3492 78.6205 72.4899 78.8809 71.75 79.3592C71.01 79.8375 70.4191 80.5146 70.0447 81.3133C69.6571 82.091 69.4946 82.9619 69.5758 83.8273C69.6569 84.6928 69.9783 85.5182 70.5037 86.21L71.4217 87.4544C72.2894 88.6136 73.4145 89.5544 74.7079 90.2024C76.0013 90.8504 77.4276 91.1878 78.8737 91.1878C80.3198 91.1878 81.7461 90.8504 83.0395 90.2024C84.3329 89.5544 85.458 88.6136 86.3257 87.4544L87.2707 86.21C87.7845 85.5153 88.0961 84.6916 88.1712 83.8303C88.2462 82.9689 88.0816 82.1036 87.6957 81.3303C87.3098 80.557 86.7177 79.9058 85.9849 79.4492C85.2522 78.9925 84.4076 78.7481 83.5447 78.7432L74.2297 78.6079Z" fill="white" stroke="#4550E5" stroke-linejoin="round"/>
<path d="M104.038 61.8071C104.038 63.2839 103.601 64.7275 102.782 65.9554C101.963 67.1833 100.799 68.1404 99.4375 68.7055C98.0759 69.2707 96.5775 69.4185 95.132 69.1304C93.6864 68.8423 92.3586 68.1312 91.3164 67.0869C90.2743 66.0427 89.5645 64.7122 89.277 63.2638C88.9894 61.8154 89.137 60.3141 89.701 58.9497C90.2651 57.5853 91.2202 56.4192 92.4457 55.5987C93.6712 54.7783 95.1119 54.3403 96.5858 54.3403C98.56 54.3475 100.451 55.1364 101.847 56.5352C103.243 57.9339 104.031 59.829 104.038 61.8071Z" fill="white" stroke="#4550E5" stroke-linejoin="round"/>
<path opacity="0.15" d="M77.1458 157.523C102.868 157.523 123.721 155.428 123.721 152.843C123.721 150.258 102.868 148.163 77.1458 148.163C51.4231 148.163 30.5708 150.258 30.5708 152.843C30.5708 155.428 51.4231 157.523 77.1458 157.523Z" fill="#191816"/>
<path d="M115.108 94.0552L28.0327 117.078C27.6409 117.184 27.2319 117.211 26.8295 117.159C26.427 117.106 26.039 116.974 25.6876 116.77C25.3363 116.567 25.0287 116.295 24.7824 115.972C24.5361 115.649 24.3561 115.28 24.2527 114.886L1.11367 27.0436C1.00363 26.6492 0.973076 26.2368 1.02379 25.8304C1.0745 25.4241 1.20547 25.032 1.40905 24.6769C1.61263 24.3218 1.88474 24.0109 2.20952 23.7623C2.53429 23.5137 2.90523 23.3324 3.30067 23.229L87.3787 1.09918C88.1734 0.893151 89.0173 1.01087 89.7257 1.4266C90.434 1.84233 90.9493 2.52222 91.1587 3.31757L115.108 94.0552Z" fill="#FFF5EB" stroke="#191816" stroke-linejoin="round"/>
<path d="M98.5837 75.2528L33.1357 92.5671C32.3526 92.7511 31.5289 92.6262 30.8352 92.2182C30.1416 91.8102 29.6311 91.1505 29.4097 90.3757L14.7757 34.9971C14.6697 34.6045 14.6423 34.1948 14.695 33.7915C14.7477 33.3883 14.8795 32.9994 15.0827 32.6474C15.286 32.2954 15.5567 31.9871 15.8794 31.7404C16.202 31.4936 16.5702 31.3132 16.9627 31.2096L79.4137 14.6257C80.2119 14.419 81.0593 14.536 81.772 14.9513C82.4847 15.3666 83.0053 16.0467 83.2207 16.8441L98.5837 75.2528Z" fill="#00B8F0" stroke="#191816" stroke-linejoin="round"/>
<path d="M124.288 33.8071H36.5376C35.0465 33.8071 33.8376 35.0184 33.8376 36.5125V128.17C33.8376 129.664 35.0465 130.875 36.5376 130.875H124.288C125.779 130.875 126.988 129.664 126.988 128.17V36.5125C126.988 35.0184 125.779 33.8071 124.288 33.8071Z" fill="#FFF5EB" stroke="#191816" stroke-linejoin="round"/>
<path d="M113.11 45.0073H47.7156C46.2245 45.0073 45.0156 46.2186 45.0156 47.7127V105.77C45.0156 107.264 46.2245 108.475 47.7156 108.475H113.11C114.601 108.475 115.81 107.264 115.81 105.77V47.7127C115.81 46.2186 114.601 45.0073 113.11 45.0073Z" fill="#4ACFFF"/>
<path d="M48.1206 45.0073C47.2993 45.0144 46.5136 45.3444 45.9329 45.9264C45.3521 46.5083 45.0227 47.2955 45.0156 48.1185V89.808L93.4537 45.0073H48.1206Z" fill="#80DDFF"/>
<path d="M113.11 45.0073H47.7156C46.2245 45.0073 45.0156 46.2186 45.0156 47.7127V105.77C45.0156 107.264 46.2245 108.475 47.7156 108.475H113.11C114.601 108.475 115.81 107.264 115.81 105.77V47.7127C115.81 46.2186 114.601 45.0073 113.11 45.0073Z" stroke="#191816" stroke-linejoin="round"/>
<path d="M59.9197 57.1544C60.7765 57.1508 61.6255 57.3168 62.4181 57.6429C63.2107 57.9689 63.9312 58.4486 64.5383 59.0544C65.1454 59.6602 65.6271 60.3801 65.9558 61.1729C66.2845 61.9657 66.4537 62.8158 66.4537 63.6742" stroke="#191816" stroke-linecap="round" stroke-linejoin="round"/>
<path d="M72.9606 57.1543C71.2349 57.1543 69.5798 57.8412 68.3595 59.0639C67.1392 60.2867 66.4536 61.945 66.4536 63.6742" stroke="#191816" stroke-linecap="round" stroke-linejoin="round"/>
<path d="M54.3308 70.2213C55.1968 70.2175 56.0547 70.387 56.8545 70.7198C57.6542 71.0526 58.3796 71.542 58.9881 72.1593C59.5966 72.7766 60.0761 73.5094 60.3984 74.3148C60.7206 75.1201 60.8792 75.9818 60.8648 76.8494" stroke="#191816" stroke-linecap="round" stroke-linejoin="round"/>
<path d="M67.3717 70.2212C66.508 70.2211 65.6529 70.3932 64.8563 70.7276C64.0598 71.062 63.3376 71.552 62.7319 72.1689C62.1262 72.7859 61.6492 73.5174 61.3286 74.321C61.0081 75.1246 60.8503 75.984 60.8647 76.8493" stroke="#191816" stroke-linecap="round" stroke-linejoin="round"/>
<path d="M108.357 108.475C108.357 108.475 92.5085 93.6493 90.0515 81.5834C89.8825 80.7408 89.4265 79.9833 88.7616 79.4405C88.0967 78.8976 87.2642 78.6032 86.4065 78.6075H70.7465C69.896 78.6317 69.0798 78.949 68.4355 79.5058C67.7912 80.0627 67.3582 80.8251 67.2095 81.6645C64.9685 93.7034 50.7395 108.475 50.7395 108.475H108.357Z" fill="#9CEB60" stroke="#191816" stroke-linejoin="round"/>
<path d="M73.9058 78.6075C73.0387 78.6024 72.1876 78.8407 71.4487 79.2952C70.7098 79.7498 70.1127 80.4026 69.7249 81.1796C69.3371 81.9567 69.1742 82.827 69.2546 83.6921C69.335 84.5571 69.6555 85.3823 70.1798 86.0743L71.0978 87.3187C71.9654 88.4779 73.0905 89.4188 74.384 90.0668C75.6774 90.7148 77.1037 91.0521 78.5498 91.0521C79.9959 91.0521 81.4221 90.7148 82.7156 90.0668C84.009 89.4188 85.1341 88.4779 86.0018 87.3187L86.9468 86.0743C87.4605 85.3796 87.7722 84.5559 87.8472 83.6946C87.9222 82.8333 87.7577 81.9679 87.3718 81.1946C86.9859 80.4213 86.3937 79.7702 85.661 79.3135C84.9283 78.8568 84.0837 78.6125 83.2208 78.6075H73.9058Z" fill="white" stroke="#191816" stroke-linejoin="round"/>
<path d="M103.714 61.8071C103.714 63.2839 103.277 64.7275 102.458 65.9554C101.639 67.1833 100.475 68.1404 99.1136 68.7055C97.7519 69.2707 96.2536 69.4185 94.808 69.1304C93.3625 68.8423 92.0346 68.1312 90.9925 67.0869C89.9503 66.0427 89.2405 64.7122 88.953 63.2638C88.6655 61.8154 88.813 60.3141 89.3771 58.9497C89.9411 57.5853 90.8962 56.4192 92.1217 55.5987C93.3472 54.7783 94.788 54.3403 96.2618 54.3403C98.2382 54.3403 100.134 55.127 101.531 56.5273C102.929 57.9276 103.714 59.8268 103.714 61.8071Z" fill="#FFF48C" stroke="#191816" stroke-linejoin="round"/>
</svg>
