<svg width="55" height="55" viewBox="0 0 55 55" fill="none" xmlns="http://www.w3.org/2000/svg">
<ellipse cx="27.5001" cy="27.5" rx="27.4999" ry="27.5" fill="#C4C4C4"/>
<mask id="mask0_768_9565" style="mask-type:alpha" maskUnits="userSpaceOnUse" x="0" y="0" width="55" height="55">
<ellipse cx="27.4999" cy="27.3546" rx="27.4999" ry="26.9271" fill="#C4C4C4"/>
</mask>
<g mask="url(#mask0_768_9565)">
<path d="M36.2649 50.8442V54.2817" stroke="#191816" stroke-width="0.5" stroke-linecap="round" stroke-linejoin="round"/>
<path d="M38.5003 33.0616C37.5056 32.6261 37.0141 30.9991 36.9088 29.8761V20.7095H18.0684V29.8761C17.9748 31.022 17.4833 32.6261 16.4886 33.0616C16.3317 33.1187 16.2031 33.2324 16.1291 33.3794C16.0551 33.5264 16.0414 33.6956 16.0908 33.8522C16.1976 34.2565 16.4431 34.6125 16.7861 34.8608C17.1291 35.109 17.5487 35.2343 17.9748 35.2157H37.0141C37.4402 35.2343 37.8598 35.109 38.2028 34.8608C38.5458 34.6125 38.7913 34.2565 38.8981 33.8522C38.9475 33.6956 38.9337 33.5264 38.8598 33.3794C38.7858 33.2324 38.6571 33.1187 38.5003 33.0616Z" fill="#724F3D" stroke="#191816" stroke-width="0.5" stroke-linecap="round" stroke-linejoin="round"/>
<path d="M36.9087 22.6229C36.9044 22.2492 36.768 21.8885 36.5226 21.6023C36.2772 21.316 35.9381 21.122 35.563 21.0531V19.9989C35.563 17.902 34.7123 15.8911 33.198 14.4083C31.6838 12.9256 29.63 12.0927 27.4885 12.0927C25.347 12.0927 23.2933 12.9256 21.779 14.4083C20.2648 15.8911 19.4141 17.902 19.4141 19.9989V21.0531C19.0223 21.1267 18.671 21.3367 18.4253 21.6444C18.1795 21.952 18.0559 22.3365 18.0773 22.7265C18.0987 23.1165 18.2637 23.4858 18.5418 23.7659C18.8198 24.0459 19.192 24.2179 19.5896 24.2499C19.968 26.0287 20.9605 27.6255 22.4002 28.7718C23.8399 29.9181 25.6388 30.5439 27.4944 30.5439C29.3499 30.5439 31.1489 29.9181 32.5885 28.7718C34.0282 27.6255 35.0207 26.0287 35.3991 24.2499C35.813 24.2127 36.1975 24.025 36.477 23.7238C36.7564 23.4226 36.9104 23.0298 36.9087 22.6229Z" fill="#FFDA8F" stroke="#191816" stroke-width="0.5" stroke-linecap="round" stroke-linejoin="round"/>
<path d="M23.1237 24.6053C23.6795 24.6053 24.1301 24.1642 24.1301 23.6199C24.1301 23.0757 23.6795 22.6345 23.1237 22.6345C22.5679 22.6345 22.1173 23.0757 22.1173 23.6199C22.1173 24.1642 22.5679 24.6053 23.1237 24.6053Z" fill="#FFBE3D"/>
<path d="M31.8651 24.6053C32.4209 24.6053 32.8714 24.1642 32.8714 23.6199C32.8714 23.0757 32.4209 22.6345 31.8651 22.6345C31.3093 22.6345 30.8587 23.0757 30.8587 23.6199C30.8587 24.1642 31.3093 24.6053 31.8651 24.6053Z" fill="#FFBE3D"/>
<path d="M31.1279 21.305C30.9103 21.1018 30.6212 20.9885 30.3205 20.9885C30.0198 20.9885 29.7307 21.1018 29.513 21.305" stroke="#191816" stroke-width="0.5" stroke-linecap="round" stroke-linejoin="round"/>
<path d="M23.8609 21.305C24.0785 21.1018 24.3677 20.9885 24.6684 20.9885C24.969 20.9885 25.2582 21.1018 25.4758 21.305" stroke="#191816" stroke-width="0.5" stroke-linecap="round" stroke-linejoin="round"/>
<path d="M29.5125 25.9225C28.9282 26.3458 28.2206 26.5743 27.4939 26.5743C26.7671 26.5743 26.0595 26.3458 25.4753 25.9225" stroke="#191816" stroke-width="0.5" stroke-linecap="round" stroke-linejoin="round"/>
<path d="M39.6001 44.6571C39.5867 43.1222 39.2612 41.6052 38.6426 40.1947C38.0241 38.7842 37.1249 37.5084 35.9975 36.4418C34.87 35.3752 33.537 34.5392 32.0761 33.9824C30.6152 33.4256 29.0556 33.1592 27.4885 33.1988C25.9217 33.1607 24.3629 33.4282 22.9027 33.9855C21.4425 34.5429 20.1101 35.3791 18.983 36.4454C17.8559 37.5117 16.9566 38.7868 16.3375 40.1966C15.7184 41.6064 15.3919 43.1226 15.3768 44.6571V58.8655H30.0746C31.338 58.8641 32.5885 58.6169 33.7535 58.1384C34.9185 57.6598 35.9748 56.9594 36.861 56.0778C37.7472 55.1961 38.4457 54.1509 38.916 53.0027C39.3862 51.8545 39.6187 50.6263 39.6001 49.3894V44.6571Z" fill="#FF6196"/>
<path d="M39.6001 44.6571C39.5867 43.1222 39.2612 41.6052 38.6426 40.1947C38.0241 38.7842 37.1249 37.5084 35.9975 36.4418C34.87 35.3752 33.537 34.5392 32.0761 33.9824C30.6152 33.4256 29.0556 33.1592 27.4885 33.1988C25.9217 33.1607 24.3629 33.4282 22.9027 33.9855C21.4425 34.5429 20.1101 35.3791 18.983 36.4454C17.8559 37.5117 16.9566 38.7868 16.3375 40.1966C15.7184 41.6064 15.3919 43.1226 15.3768 44.6571V49.928C15.3887 48.3925 15.7131 46.8748 16.3311 45.4636C16.9491 44.0524 17.8483 42.7761 18.976 41.7092C20.1038 40.6422 21.4375 39.8062 22.8991 39.25C24.3607 38.6938 25.9209 38.4285 27.4885 38.4696C29.0565 38.4269 30.6174 38.6911 32.0797 39.2468C33.542 39.8025 34.8764 40.6384 36.0044 41.7056C37.1325 42.7728 38.0316 44.0498 38.6491 45.4618C39.2665 46.8737 39.5898 48.3921 39.6001 49.928V44.6571Z" fill="#FF87AF"/>
<path d="M39.6001 44.6571C39.5867 43.1222 39.2612 41.6052 38.6426 40.1947C38.0241 38.7842 37.1249 37.5084 35.9975 36.4418C34.87 35.3752 33.537 34.5392 32.0761 33.9824C30.6152 33.4256 29.0556 33.1592 27.4885 33.1988C25.9217 33.1607 24.3629 33.4282 22.9027 33.9855C21.4425 34.5429 20.1101 35.3791 18.983 36.4454C17.8559 37.5117 16.9566 38.7868 16.3375 40.1966C15.7184 41.6064 15.3919 43.1226 15.3768 44.6571V58.8655H30.0746C31.338 58.8641 32.5885 58.6169 33.7535 58.1384C34.9185 57.6598 35.9748 56.9594 36.861 56.0778C37.7472 55.1961 38.4457 54.1509 38.916 53.0027C39.3862 51.8545 39.6187 50.6263 39.6001 49.3894V44.6571Z" stroke="#191816" stroke-width="0.5" stroke-linecap="round" stroke-linejoin="round"/>
<path d="M19.6478 35.8454L27.4882 47.6705L35.3403 35.8454C33.1091 34.11 30.3435 33.1654 27.494 33.1654C24.6445 33.1654 21.879 34.11 19.6478 35.8454Z" fill="white" stroke="#191816" stroke-width="0.5" stroke-linejoin="round"/>
<path d="M20.0929 58.9339V50.8443C20.0929 48.2318 18.4663 48.2089 18.4663 45.7339" stroke="#191816" stroke-width="0.5" stroke-linecap="round" stroke-linejoin="round"/>
<path d="M21.0639 40.4179H33.9362C34.1415 40.4174 34.3441 40.3709 34.5282 40.2819C34.7124 40.193 34.8733 40.0639 34.9987 39.9047C35.1241 39.7454 35.2106 39.5602 35.2515 39.3631C35.2925 39.1661 35.2869 38.9625 35.2351 38.7679L34.3809 35.1585C32.33 33.8569 29.9382 33.1643 27.4942 33.1643C25.0502 33.1643 22.6584 33.8569 20.6075 35.1585L19.7532 38.7679C19.6959 38.9633 19.6872 39.1693 19.7279 39.3687C19.7686 39.5681 19.8576 39.755 19.9873 39.9137C20.1144 40.0738 20.2779 40.2027 20.4648 40.2903C20.6517 40.3778 20.8568 40.4215 21.0639 40.4179Z" fill="white" stroke="#191816" stroke-width="0.5" stroke-linejoin="round"/>
<path d="M23.1348 33.9207L27.488 42.3884L31.8529 33.9207C29.0381 32.9122 25.9496 32.9122 23.1348 33.9207Z" fill="#FFDA8F" stroke="#191816" stroke-width="0.5" stroke-linecap="round" stroke-linejoin="round"/>
<path d="M27.4886 47.6708V57.5479" stroke="#191816" stroke-width="0.5" stroke-linecap="round" stroke-linejoin="round"/>
<path d="M35.4462 58.8657C35.523 59.206 35.459 59.5623 35.2682 59.8565C35.0774 60.1507 34.7753 60.3589 34.4281 60.4355L27.5707 61.9366C27.2231 62.0118 26.8593 61.9491 26.5589 61.7623C26.2584 61.5754 26.0458 61.2797 25.9675 60.9397L23.5452 50.3522C23.5069 50.1847 23.5027 50.0114 23.5328 49.8424C23.5629 49.6733 23.6268 49.5117 23.7207 49.3668C23.9129 49.0718 24.2153 48.862 24.5632 48.7824L31.4207 47.2813C31.5928 47.2425 31.7712 47.2376 31.9453 47.2668C32.1195 47.2961 32.286 47.3589 32.4351 47.4516C32.5843 47.5443 32.7131 47.6652 32.8142 47.8071C32.9152 47.949 32.9865 48.1091 33.0239 48.2782L35.4462 58.8657Z" fill="#BF8256" stroke="#191816" stroke-width="0.5" stroke-linejoin="round"/>
<path d="M34.896 49.3895C34.9149 50.6631 34.4185 51.8923 33.5153 52.8089C32.6121 53.7255 31.3753 54.2551 30.0748 54.2822H27.4886V58.8656H30.0748C31.3381 58.8642 32.5886 58.617 33.7536 58.1385C34.9186 57.6599 35.9749 56.9595 36.8611 56.0779C37.7473 55.1962 38.4459 54.151 38.9161 53.0028C39.3863 51.8546 39.6189 50.6264 39.6003 49.3895" fill="#FF6196"/>
<path d="M34.896 49.3895C34.9149 50.6631 34.4185 51.8923 33.5153 52.8089C32.6121 53.7255 31.3753 54.2551 30.0748 54.2822H27.4886V58.8656H30.0748C31.3381 58.8642 32.5886 58.617 33.7536 58.1385C34.9186 57.6599 35.9749 56.9595 36.8611 56.0779C37.7473 55.1962 38.4459 54.151 38.9161 53.0028C39.3863 51.8546 39.6189 50.6264 39.6003 49.3895" stroke="#191816" stroke-width="0.5" stroke-linecap="round" stroke-linejoin="round"/>
<path d="M25.1367 58.8657C24.516 58.8657 23.9207 58.6242 23.4818 58.1945C23.0429 57.7647 22.7963 57.1818 22.7963 56.574C22.7963 55.9662 23.0429 55.3833 23.4818 54.9536C23.9207 54.5238 24.516 54.2823 25.1367 54.2823H27.4772V58.8657H25.1367Z" fill="#FFDA8F" stroke="#191816" stroke-width="0.5" stroke-linecap="round" stroke-linejoin="round"/>
<path d="M27.4887 9.44568C24.9676 9.56896 22.591 10.6349 20.8491 12.4237C19.1072 14.2125 18.1328 16.5876 18.127 19.0592V36.4644C18.1275 36.5601 18.1491 36.6546 18.1903 36.7414C18.2316 36.8282 18.2915 36.9052 18.3659 36.9672C18.4403 37.0292 18.5276 37.0748 18.6217 37.1007C18.7158 37.1267 18.8145 37.1324 18.911 37.1175C19.5889 37.0813 20.2288 36.7998 20.7067 36.3277C21.1846 35.8555 21.4663 35.2264 21.4972 34.5623V24.3873C21.4862 23.5056 21.6832 22.6333 22.0729 21.8383C22.4626 21.0433 23.0345 20.3471 23.744 19.804C25.7184 18.4456 27.0809 16.3931 27.5472 14.0748C28.1991 16.0047 29.4533 17.6854 31.133 18.8798C32.8127 20.0743 34.833 20.7222 36.9088 20.7321V19.0592C36.9051 16.5773 35.9236 14.1925 34.1688 12.4016C32.4139 10.6108 30.021 9.55192 27.4887 9.44568Z" fill="#724F3D"/>
<path d="M27.4887 9.44568C24.9676 9.56896 22.591 10.6349 20.8491 12.4237C19.1072 14.2125 18.1328 16.5876 18.127 19.0592V21.7634C18.1337 19.2835 19.1166 16.9016 20.8711 15.1131C22.6257 13.3247 25.0168 12.2674 27.5472 12.1613C29.9064 12.2568 32.1515 13.1816 33.8709 14.7663C35.5903 16.351 36.6688 18.4893 36.9088 20.7894V19.0592C36.9051 16.5773 35.9236 14.1925 34.1688 12.4016C32.4139 10.6108 30.021 9.55192 27.4887 9.44568Z" fill="#A86C4D"/>
<path d="M27.4887 9.44568C24.9676 9.56896 22.591 10.6349 20.8491 12.4237C19.1072 14.2125 18.1328 16.5876 18.127 19.0592V36.4644C18.1275 36.5601 18.1491 36.6546 18.1903 36.7414C18.2316 36.8282 18.2915 36.9052 18.3659 36.9672C18.4403 37.0292 18.5276 37.0748 18.6217 37.1007C18.7158 37.1267 18.8145 37.1324 18.911 37.1175C19.5889 37.0813 20.2288 36.7998 20.7067 36.3277C21.1846 35.8555 21.4663 35.2264 21.4972 34.5623V24.3873C21.4862 23.5056 21.6832 22.6333 22.0729 21.8383C22.4626 21.0433 23.0345 20.3471 23.744 19.804C25.7184 18.4456 27.0809 16.3931 27.5472 14.0748C28.1991 16.0047 29.4533 17.6854 31.133 18.8798C32.8127 20.0743 34.833 20.7222 36.9088 20.7321V19.0592C36.9051 16.5773 35.9236 14.1925 34.1688 12.4016C32.4139 10.6108 30.021 9.55192 27.4887 9.44568Z" stroke="#191816" stroke-width="0.5" stroke-linecap="round" stroke-linejoin="round"/>
</g>
</svg>
