<svg width="28" height="28" viewBox="0 0 28 28" fill="none" xmlns="http://www.w3.org/2000/svg">
<path d="M14 0C6.22222 0 0 6.22222 0 14C0 21.7778 6.22222 28 14 28C21.7778 28 28 21.7778 28 14C28 6.22222 21.7778 0 14 0ZM19.9829 19.9829C19.3846 20.5812 18.547 20.5812 17.9487 19.9829L14 15.9145L9.93162 19.9829C9.33333 20.5812 8.49573 20.5812 7.89744 19.9829C7.29914 19.3846 7.29914 18.547 7.89744 17.9487L11.9658 13.8803L8.01709 9.93162C7.4188 9.33333 7.4188 8.49573 8.01709 7.89744C8.61539 7.29914 9.45299 7.29914 10.0513 7.89744L14.1197 11.9658L18.188 7.89744C18.7863 7.29914 19.6239 7.29914 20.2222 7.89744C20.8205 8.49573 20.8205 9.33333 20.2222 9.93162L16.0342 14L20.1026 18.0684C20.5812 18.547 20.5812 19.5043 19.9829 19.9829Z" fill="white"/>
</svg>
