<svg width="22" height="30" viewBox="0 0 22 30" fill="none" xmlns="http://www.w3.org/2000/svg">
<path d="M19.0899 11.4844V8.37891C19.0899 3.75873 15.5448 0 11.1873 0C6.8297 0 3.28462 3.75873 3.28462 8.37891V11.4844H0.687256V18.8672C0.687256 25.0058 5.3975 30 11.1873 30C16.977 30 21.6873 25.0058 21.6873 18.8672V11.4844H19.0899ZM4.94252 8.37891C4.94252 4.72799 7.74386 1.75781 11.1873 1.75781C14.6306 1.75781 17.432 4.72799 17.432 8.37891V11.4844H4.94252V8.37891ZM20.0294 18.8672C20.0294 24.0366 16.0628 28.2422 11.1873 28.2422C6.31166 28.2422 2.34515 24.0366 2.34515 18.8672V13.2422H20.0294V18.8672Z" fill="#BDBDBD"/>
<path d="M10.3583 21.9094V24.6484H12.0162V21.9094C13.2906 21.5259 14.2267 20.281 14.2267 18.8086C14.2267 17.0316 12.8632 15.5859 11.1872 15.5859C9.51127 15.5859 8.14777 17.0316 8.14777 18.8086C8.14777 20.281 9.08392 21.5259 10.3583 21.9094ZM11.1872 17.3437C11.949 17.3437 12.5688 18.0009 12.5688 18.8086C12.5688 19.6163 11.949 20.2734 11.1872 20.2734C10.4254 20.2734 9.80566 19.6163 9.80566 18.8086C9.80566 18.0009 10.4254 17.3437 11.1872 17.3437Z" fill="#BDBDBD"/>
</svg>
