<svg width="89" height="82" viewBox="0 0 89 82" fill="none" xmlns="http://www.w3.org/2000/svg">
<mask id="mask0_1999_129202" style="mask-type:alpha" maskUnits="userSpaceOnUse" x="0" y="0" width="89" height="82">
<path d="M0 20C0 8.95431 8.95431 0 20 0H89V82H20C8.95431 82 0 73.0457 0 62V20Z" fill="#C4C4C4"/>
</mask>
<g mask="url(#mask0_1999_129202)">
<path d="M27.0115 59.9177C28.0849 59.289 29.2579 58.6757 30.5305 58.093C29.4554 59.6959 28.3041 61.2463 27.0805 62.739C24.9339 65.3227 23.2625 66.695 22.2122 67.1243C22.125 67.1612 22.0353 67.1919 21.9439 67.2163C21.8674 67.1101 21.8006 66.9972 21.7445 66.879C21.3152 66.0357 21.3305 65.223 22.0512 64.119C22.8639 62.854 24.4969 61.405 27.0115 59.9177ZM45.8332 47.2907C44.9209 47.4823 44.0162 47.674 43.1039 47.8886C44.4552 45.241 45.7335 42.5566 46.9372 39.8387C48.1491 42.0844 49.4536 44.279 50.8472 46.4167C49.1835 46.662 47.5045 46.9533 45.8332 47.2907ZM65.1915 54.4896C64.0007 53.5292 62.8857 52.4783 61.8565 51.3463C63.6045 51.3847 65.1839 51.515 66.5485 51.7603C68.9789 52.1973 70.1212 52.8873 70.5199 53.3627C70.6455 53.4954 70.7167 53.6705 70.7192 53.8533C70.6923 54.3941 70.5345 54.9203 70.2592 55.3867C70.1046 55.7602 69.8564 56.0876 69.5385 56.3373C69.3803 56.4344 69.1938 56.475 69.0096 56.4523C68.3196 56.4293 67.0315 55.9463 65.1915 54.4896ZM48.1332 18.1037C47.8265 19.9743 47.3052 22.121 46.5999 24.4593C46.34 23.5838 46.1124 22.6989 45.9175 21.8067C45.3349 19.1003 45.2505 16.9767 45.5649 15.5047C45.8562 14.1477 46.4082 13.6033 47.0675 13.335C47.4212 13.1791 47.7957 13.0758 48.1792 13.0283C48.2789 13.2583 48.3939 13.7337 48.4245 14.5463C48.4629 15.4817 48.3709 16.67 48.1332 18.1113V18.1037Z" fill="#FE7983"/>
<path fill-rule="evenodd" clip-rule="evenodd" d="M15.3333 -35.3335H55.913C57.9462 -35.3331 59.8959 -34.525 61.3333 -33.0872L89.7537 -4.66683C91.1915 -3.22939 91.9996 -1.27966 92 0.7535V71.9998C92 76.0665 90.3845 79.9666 87.509 82.8421C84.6334 85.7177 80.7333 87.3332 76.6667 87.3332H15.3333C11.2667 87.3332 7.36659 85.7177 4.49103 82.8421C1.61547 79.9666 0 76.0665 0 71.9998V-20.0002C0 -24.0668 1.61547 -27.9669 4.49103 -30.8425C7.36659 -33.718 11.2667 -35.3335 15.3333 -35.3335ZM57.5 -23.8335V-8.50017C57.5 -6.46684 58.3077 -4.51679 59.7455 -3.07901C61.1833 -1.64123 63.1333 -0.833497 65.1667 -0.833497H80.5L57.5 -23.8335ZM16.5983 69.4545C17.2883 70.8345 18.3617 72.0842 19.9563 72.6668C21.5433 73.2418 23.115 72.9735 24.403 72.4368C26.841 71.4402 29.2713 69.0942 31.5023 66.4108C34.0553 63.3365 36.7387 59.3038 39.33 54.8342C44.3327 53.3514 49.4558 52.3099 54.6403 51.7215C56.9403 54.6578 59.317 57.1878 61.617 59.0048C63.7637 60.6915 66.24 62.0945 68.7777 62.2018C70.1599 62.2703 71.5285 61.9 72.6877 61.1438C73.876 60.3695 74.7577 59.2502 75.4017 57.9545C76.0917 56.5668 76.5133 55.1178 76.4597 53.6382C76.4111 52.1793 75.8707 50.7798 74.9263 49.6668C73.1937 47.5968 70.357 46.6002 67.5663 46.1018C64.1811 45.5775 60.7463 45.4489 57.3313 45.7185C54.4476 41.6418 51.9332 37.316 49.818 32.7925C51.7347 27.7325 53.1683 22.9485 53.8047 19.0385C54.0807 17.3672 54.2263 15.7725 54.1727 14.3312C54.1631 12.9005 53.8303 11.4904 53.199 10.2065C52.8353 9.49793 52.3184 8.87919 51.6859 8.39518C51.0533 7.91116 50.321 7.57401 49.542 7.40817C47.9933 7.0785 46.3987 7.40817 44.9343 7.9985C42.044 9.1485 40.5183 11.6018 39.9433 14.3082C39.3837 16.9148 39.6367 19.9508 40.296 23.0175C40.9707 26.1302 42.1207 29.5188 43.5927 32.9458C41.2381 38.8016 38.5188 44.504 35.4507 50.0195C31.4996 51.2626 27.6911 52.9202 24.0887 54.9645C21.252 56.6512 18.7297 58.6445 17.2117 60.9982C15.6017 63.4975 15.1033 66.4722 16.5983 69.4545Z" fill="#54A9FF"/>
<rect x="13" y="5" width="66" height="72" fill="#54A9FF"/>
<path fill-rule="evenodd" clip-rule="evenodd" d="M24 40.875C24 46.4114 26.1993 51.721 30.1141 55.6359C34.029 59.5507 39.3386 61.75 44.875 61.75C50.4114 61.75 55.721 59.5507 59.6359 55.6359C63.5507 51.721 65.75 46.4114 65.75 40.875C65.75 35.3386 63.5507 30.029 59.6359 26.1141C55.721 22.1993 50.4114 20 44.875 20C39.3386 20 34.029 22.1993 30.1141 26.1141C26.1993 30.029 24 35.3386 24 40.875V40.875ZM62.1714 40.875C62.1714 45.4623 60.3491 49.8617 57.1054 53.1054C53.8617 56.3491 49.4623 58.1714 44.875 58.1714C40.2877 58.1714 35.8883 56.3491 32.6446 53.1054C29.4009 49.8617 27.5786 45.4623 27.5786 40.875C27.5786 36.2877 29.4009 31.8883 32.6446 28.6446C35.8883 25.4009 40.2877 23.5786 44.875 23.5786C49.4623 23.5786 53.8617 25.4009 57.1054 28.6446C60.3491 31.8883 62.1714 36.2877 62.1714 40.875V40.875Z" fill="white"/>
<path fill-rule="evenodd" clip-rule="evenodd" d="M35.9286 40.875C35.9286 51.6632 39.4857 60.5572 44.875 60.5572C50.2643 60.5572 53.8214 51.6632 53.8214 40.875C53.8214 30.0868 50.2643 21.1929 44.875 21.1929C39.4857 21.1929 35.9286 30.0868 35.9286 40.875ZM50.2429 40.875C50.2429 49.8501 47.3919 56.9786 44.875 56.9786C42.3581 56.9786 39.5072 49.8501 39.5072 40.875C39.5072 31.9 42.3581 24.7714 44.875 24.7714C47.3919 24.7714 50.2429 31.9 50.2429 40.875Z" fill="white"/>
<path d="M29.6112 30.0606L32.0112 27.4077C32.2498 27.6224 32.5098 27.8371 32.7866 28.0447C35.8188 30.3159 40.6594 31.7187 45.9438 31.7187C50.4552 31.7187 54.6564 30.7 57.7078 28.956C58.4426 28.5362 59.0962 28.0805 59.6617 27.5962L61.9853 30.3183C61.209 30.9768 60.3719 31.5599 59.4851 32.0599C55.8684 34.1307 51.054 35.2949 45.9438 35.2949C39.927 35.2949 34.3373 33.6774 30.6394 30.9076C30.2839 30.6412 29.9408 30.3586 29.6112 30.0606V30.0606ZM29.6112 51.7277L32.0112 54.3806C32.2498 54.1635 32.5098 53.9512 32.7866 53.7436C35.8188 51.4724 40.6594 50.0696 45.9438 50.0696C50.4552 50.0696 54.6564 51.0883 57.7078 52.8323C58.4426 53.2522 59.0962 53.7078 59.6617 54.1921L61.9853 51.47C61.2081 50.8128 60.371 50.2297 59.4851 49.7285C55.8684 47.6577 51.054 46.4934 45.9438 46.4934C39.927 46.4934 34.3373 48.1109 30.6394 50.8808C30.2839 51.1471 29.9408 51.4297 29.6112 51.7277V51.7277ZM25.1929 42.6644V39.0858H64.5571V42.6644H25.1929Z" fill="white"/>
</g>
</svg>
