<svg width="89" height="82" viewBox="0 0 89 82" fill="none" xmlns="http://www.w3.org/2000/svg">
<mask id="mask0_924_30357" style="mask-type:alpha" maskUnits="userSpaceOnUse" x="0" y="0" width="89" height="82">
<path d="M0 20C0 8.95431 8.95431 0 20 0H89V82H20C8.95431 82 0 73.0457 0 62V20Z" fill="#C4C4C4"/>
</mask>
<g mask="url(#mask0_924_30357)">
<path d="M117.398 -11.8812C118.42 -10.8634 119 -9.48929 119 -8.04733V96.5714C119 99.5741 116.563 102 113.545 102H4.45455C1.4375 102 -1 99.5741 -1 96.5714V-44.5714C-1 -47.5741 1.4375 -50 4.45455 -50H76.8466C78.2955 -50 79.6932 -49.4232 80.7159 -48.4054L117.398 -11.8812V-11.8812ZM106.42 -5.55357L74.3409 -37.4804V-5.55357H106.42Z" fill="#BC8CED"/>
<path d="M38.1313 33.1562C38.1313 34.4243 37.6276 35.6404 36.731 36.5371C35.8343 37.4338 34.6182 37.9375 33.3501 37.9375C32.082 37.9375 30.8659 37.4338 29.9692 36.5371C29.0726 35.6404 28.5688 34.4243 28.5688 33.1562C28.5688 31.8882 29.0726 30.6721 29.9692 29.7754C30.8659 28.8787 32.082 28.375 33.3501 28.375C34.6182 28.375 35.8343 28.8787 36.731 29.7754C37.6276 30.6721 38.1313 31.8882 38.1313 33.1562V33.1562Z" fill="white"/>
<path d="M23.7812 22C22.5132 22 21.2971 22.5037 20.4004 23.4004C19.5037 24.2971 19 25.5132 19 26.7812V55.4688C19 56.7368 19.5037 57.9529 20.4004 58.8496C21.2971 59.7463 22.5132 60.25 23.7812 60.25H65.2188C66.4868 60.25 67.7029 59.7463 68.5996 58.8496C69.4963 57.9529 70 56.7368 70 55.4688V26.7812C70 25.5132 69.4963 24.2971 68.5996 23.4004C67.7029 22.5037 66.4868 22 65.2188 22H23.7812ZM65.2188 25.1875C65.6414 25.1875 66.0468 25.3554 66.3457 25.6543C66.6446 25.9532 66.8125 26.3586 66.8125 26.7812V45.9062L54.7797 39.7002C54.4808 39.5505 54.1423 39.4985 53.8123 39.5517C53.4822 39.6049 53.1772 39.7606 52.9405 39.9966L41.1149 51.8222L32.6361 46.174C32.33 45.9702 31.9628 45.8785 31.5968 45.9145C31.2308 45.9506 30.8885 46.112 30.628 46.3716L22.1939 53.875V55.5962C22.1901 55.5539 22.1879 55.5113 22.1875 55.4688V26.7812C22.1875 26.3586 22.3554 25.9532 22.6543 25.6543C22.9532 25.3554 23.3586 25.1875 23.7812 25.1875H65.2188Z" fill="white"/>
</g>
</svg>
