<svg width="29" height="18" viewBox="0 0 29 18" fill="none" xmlns="http://www.w3.org/2000/svg">
<path d="M25.9047 7.79779C26.1005 6.99479 26.0429 6.1506 25.7398 5.3819C25.4366 4.61319 24.903 3.95791 24.2126 3.50663C23.5222 3.05535 22.7091 2.83034 21.8857 2.8627C21.0623 2.89506 20.2692 3.18319 19.6161 3.68727C18.5543 2.44156 17.1379 1.55166 15.5572 1.13709C13.9765 0.722518 12.3072 0.803127 10.7735 1.36809C9.23977 1.93305 7.91513 2.95531 6.97745 4.29757C6.03978 5.63983 5.53398 7.2378 5.52799 8.87686C5.52799 8.87686 5.52799 8.91199 5.52799 8.92705C5.36237 8.90036 5.19531 8.88359 5.0277 8.87686C3.96622 8.87686 2.94822 9.29989 2.19764 10.0529C1.44706 10.8059 1.02539 11.8271 1.02539 12.892C1.02539 13.9569 1.44706 14.9782 2.19764 15.7312C2.94822 16.4842 3.96622 16.9072 5.0277 16.9072H23.0081C24.0661 16.902 25.0954 16.5605 25.9478 15.9316C26.8002 15.3027 27.4319 14.4189 27.7521 13.4072C28.0723 12.3955 28.0645 11.308 27.7299 10.301C27.3953 9.29401 26.751 8.41937 25.8897 7.80281L25.9047 7.79779Z" fill="white"/>
<path d="M23.0077 14.2925H4.99731C4.16496 14.2909 3.35384 14.0289 2.67684 13.5432C1.99983 13.0574 1.49064 12.372 1.22013 11.5823C1.07504 12.0002 1.00064 12.4396 1 12.8822C1 13.9471 1.42167 14.9683 2.17225 15.7213C2.92283 16.4743 3.94083 16.8973 5.00231 16.8973H23.0077C23.7738 16.8957 24.5293 16.7175 25.216 16.3766C25.9026 16.0357 26.502 15.5412 26.968 14.9311C27.434 14.3211 27.7541 13.6118 27.9036 12.858C28.0532 12.1042 28.0281 11.3261 27.8305 10.5835C27.5438 11.6471 26.9163 12.5865 26.0447 13.2568C25.1732 13.9271 24.1059 14.291 23.0077 14.2925Z" fill="#E8F4FA"/>
<path d="M25.9047 7.79779C26.1005 6.99479 26.0429 6.1506 25.7398 5.3819C25.4366 4.61319 24.903 3.95791 24.2126 3.50663C23.5222 3.05535 22.7091 2.83034 21.8857 2.8627C21.0623 2.89506 20.2692 3.18319 19.6161 3.68727C18.5543 2.44156 17.1379 1.55166 15.5572 1.13709C13.9765 0.722518 12.3072 0.803127 10.7735 1.36809C9.23977 1.93305 7.91513 2.95531 6.97745 4.29757C6.03978 5.63983 5.53398 7.2378 5.52799 8.87686C5.52799 8.87686 5.52799 8.91199 5.52799 8.92705C5.36237 8.90036 5.19531 8.88359 5.0277 8.87686C3.96622 8.87686 2.94822 9.29989 2.19764 10.0529C1.44706 10.8059 1.02539 11.8271 1.02539 12.892C1.02539 13.9569 1.44706 14.9782 2.19764 15.7312C2.94822 16.4842 3.96622 16.9072 5.0277 16.9072H23.0081C24.0661 16.902 25.0954 16.5605 25.9478 15.9316C26.8002 15.3027 27.4319 14.4189 27.7521 13.4072C28.0723 12.3955 28.0645 11.308 27.7299 10.301C27.3953 9.29401 26.751 8.41937 25.8897 7.80281L25.9047 7.79779Z" stroke="#191816" stroke-linecap="round" stroke-linejoin="round"/>
</svg>
