<svg width="251" height="251" viewBox="0 0 251 251" fill="none" xmlns="http://www.w3.org/2000/svg">
<path d="M127.39 236.899C190.471 236.899 241.609 185.761 241.609 122.68C241.609 59.5983 190.471 8.46069 127.39 8.46069C64.3081 8.46069 13.1704 59.5983 13.1704 122.68C13.1704 185.761 64.3081 236.899 127.39 236.899Z" fill="#E8F4FA"/>
<path opacity="0.15" d="M174.995 164.278C175.077 164.012 175.106 163.733 175.08 163.456C175.053 163.179 174.972 162.91 174.841 162.665C174.71 162.42 174.531 162.203 174.316 162.027C174.1 161.851 173.852 161.72 173.585 161.641L151.615 154.971V150.459C151.608 149.897 151.378 149.36 150.977 148.967C150.575 148.573 150.034 148.354 149.472 148.358L137.768 148.499L137.218 146.863C137.139 146.593 137.007 146.342 136.829 146.124C136.652 145.906 136.432 145.726 136.184 145.595C135.935 145.463 135.663 145.383 135.383 145.359C135.103 145.334 134.82 145.366 134.553 145.453L125.133 148.555L105.053 148.781C104.767 148.781 104.484 148.839 104.22 148.951C103.957 149.063 103.719 149.228 103.522 149.435C103.324 149.642 103.17 149.887 103.07 150.155C102.97 150.423 102.925 150.709 102.938 150.995V155.944L92.2918 159.47C92.0219 159.548 91.7706 159.681 91.5527 159.858C91.3347 160.036 91.1547 160.256 91.0232 160.504C90.8917 160.753 90.8114 161.025 90.7871 161.305C90.7628 161.585 90.795 161.867 90.8817 162.135L103.347 199.869L103.488 212.335C103.491 212.624 103.553 212.909 103.671 213.173C103.789 213.437 103.959 213.674 104.172 213.87C104.384 214.065 104.635 214.215 104.908 214.31C105.181 214.405 105.47 214.443 105.758 214.422H108.283L110.257 220.401C110.344 220.665 110.483 220.909 110.665 221.119C110.848 221.33 111.069 221.502 111.318 221.626C111.567 221.751 111.838 221.825 112.116 221.845C112.393 221.864 112.672 221.829 112.936 221.74L128.659 216.551L154.548 224.405C154.814 224.488 155.093 224.517 155.37 224.49C155.647 224.464 155.916 224.383 156.161 224.251C156.407 224.12 156.624 223.942 156.799 223.726C156.975 223.51 157.106 223.262 157.185 222.995L174.995 164.278Z" fill="#191816"/>
<path opacity="0.15" d="M174.516 68.4751H81.4481C76.7754 68.4751 72.9874 72.2631 72.9874 76.9358V136.16C72.9874 140.833 76.7754 144.621 81.4481 144.621H174.516C179.188 144.621 182.976 140.833 182.976 136.16V76.9358C182.976 72.2631 179.188 68.4751 174.516 68.4751Z" fill="#191816"/>
<path opacity="0.15" d="M50.6845 118.767L33.8638 127.68C31.7994 128.774 31.0127 131.335 32.1066 133.399L50.9243 168.909C52.0183 170.974 54.5786 171.76 56.643 170.666L73.4637 161.753C75.5281 160.659 76.3148 158.099 75.2209 156.034L56.4032 120.524C55.3092 118.459 52.7489 117.673 50.6845 118.767Z" fill="#191816"/>
<path d="M185.655 20.8838H70.3223C68.9015 20.8821 67.5085 21.2772 66.3001 22.0246C65.0918 22.7721 64.1162 23.8421 63.4833 25.1141V27.2293H192.509V25.1141C191.872 23.842 190.894 22.7724 189.683 22.0252C188.473 21.278 187.078 20.8827 185.655 20.8838Z" fill="#C0DCEB" stroke="#191816" stroke-linecap="round" stroke-linejoin="round"/>
<path d="M175.108 67.4175H80.87C79.6595 67.4182 78.4742 67.0719 77.4545 66.4196C76.4348 65.7673 75.6235 64.8364 75.1167 63.7371L63.6384 28.0472C63.507 27.7248 63.4566 27.3751 63.4917 27.0287C63.5268 26.6823 63.6463 26.3498 63.8398 26.0603C64.0332 25.7708 64.2947 25.5332 64.6013 25.3683C64.9079 25.2033 65.2503 25.1161 65.5984 25.1142H190.365C190.715 25.1126 191.059 25.1976 191.367 25.3616C191.676 25.5257 191.939 25.7636 192.133 26.0541C192.327 26.3446 192.447 26.6787 192.48 27.0265C192.514 27.3743 192.46 27.725 192.325 28.0472L180.875 63.7371C180.364 64.8364 179.55 65.7669 178.529 66.4189C177.507 67.071 176.32 67.4174 175.108 67.4175Z" fill="#00B8F0"/>
<path d="M102.614 67.4175L144.663 25.1141H65.5984C65.2503 25.116 64.9079 25.2033 64.6013 25.3683C64.2947 25.5332 64.0332 25.7708 63.8398 26.0603C63.6463 26.3498 63.5268 26.6823 63.4917 27.0287C63.4566 27.3751 63.507 27.7248 63.6384 28.0472L75.1167 63.7371C75.6235 64.8364 76.4348 65.7673 77.4545 66.4196C78.4742 67.0719 79.6595 67.4182 80.8699 67.4175H102.614Z" fill="#4ACFFF"/>
<path d="M175.108 67.4175H80.87C79.6595 67.4182 78.4742 67.0719 77.4545 66.4196C76.4348 65.7673 75.6235 64.8364 75.1167 63.7371L63.6384 28.0472C63.507 27.7248 63.4566 27.3751 63.4917 27.0287C63.5268 26.6823 63.6463 26.3498 63.8398 26.0603C64.0332 25.7708 64.2947 25.5332 64.6013 25.3683C64.9079 25.2033 65.2503 25.1161 65.5984 25.1142H190.365C190.715 25.1126 191.059 25.1976 191.367 25.3616C191.676 25.5257 191.939 25.7636 192.133 26.0541C192.327 26.3446 192.447 26.6787 192.48 27.0265C192.514 27.3743 192.46 27.725 192.325 28.0472L180.875 63.7371C180.364 64.8364 179.55 65.7669 178.529 66.4189C177.507 67.071 176.32 67.4175 175.108 67.4175V67.4175Z" stroke="#191816" stroke-linecap="round" stroke-linejoin="round"/>
<path d="M175.108 67.4175H80.87C79.6595 67.4182 78.4742 67.0719 77.4545 66.4196C76.4348 65.7673 75.6235 64.8364 75.1167 63.7371L63.6384 28.0472C63.507 27.7248 63.4566 27.3751 63.4917 27.0287C63.5268 26.6823 63.6463 26.3498 63.8398 26.0603C64.0332 25.7708 64.2947 25.5332 64.6013 25.3683C64.9079 25.2033 65.2503 25.1161 65.5984 25.1142H190.365C190.715 25.1126 191.059 25.1976 191.367 25.3616C191.676 25.5257 191.939 25.7636 192.133 26.0541C192.327 26.3446 192.447 26.6787 192.48 27.0265C192.514 27.3743 192.46 27.725 192.325 28.0472L180.875 63.7371C180.364 64.8364 179.55 65.7669 178.529 66.4189C177.507 67.071 176.32 67.4175 175.108 67.4175V67.4175Z" stroke="#191816" stroke-linecap="round" stroke-linejoin="round"/>
<path d="M175.587 65.3024H80.4046C76.9001 65.3024 74.0591 68.1433 74.0591 71.6479V130.873C74.0591 134.377 76.9001 137.218 80.4046 137.218H175.587C179.092 137.218 181.933 134.377 181.933 130.873V71.6479C181.933 68.1433 179.092 65.3024 175.587 65.3024Z" fill="#C0DCEB" stroke="#191816" stroke-linecap="round" stroke-linejoin="round"/>
<path d="M169.242 65.3024H86.7501V73.763H169.242V65.3024Z" stroke="#191816" stroke-linecap="round" stroke-linejoin="round"/>
<path d="M169.242 65.3024H86.7501V69.5327H169.242V65.3024Z" fill="#656769" stroke="#191816" stroke-linecap="round" stroke-linejoin="round"/>
<path d="M137.514 113.951H118.478C117.309 113.951 116.362 114.898 116.362 116.066V128.757C116.362 129.926 117.309 130.873 118.478 130.873H137.514C138.682 130.873 139.629 129.926 139.629 128.757V116.066C139.629 114.898 138.682 113.951 137.514 113.951Z" fill="#E8F4FA" stroke="#191816" stroke-linecap="round" stroke-linejoin="round"/>
<path d="M167.126 77.9933H88.8653C87.6971 77.9933 86.7501 78.9403 86.7501 80.1085V107.606C86.7501 108.774 87.6971 109.721 88.8653 109.721H167.126C168.295 109.721 169.242 108.774 169.242 107.606V80.1085C169.242 78.9403 168.295 77.9933 167.126 77.9933Z" fill="#E8F4FA" stroke="#191816" stroke-linecap="round" stroke-linejoin="round"/>
<path d="M93.0956 103.375H99.4411" stroke="#191816" stroke-linecap="round" stroke-linejoin="round"/>
<path d="M93.0956 97.0298H99.4411" stroke="#191816" stroke-linecap="round" stroke-linejoin="round"/>
<path d="M93.0956 90.6843H99.4411" stroke="#191816" stroke-linecap="round" stroke-linejoin="round"/>
<path d="M93.0956 84.3389H99.4411" stroke="#191816" stroke-linecap="round" stroke-linejoin="round"/>
<path d="M103.671 97.0298H110.017" stroke="#191816" stroke-linecap="round" stroke-linejoin="round"/>
<path d="M103.671 90.6843H110.017" stroke="#191816" stroke-linecap="round" stroke-linejoin="round"/>
<path d="M103.671 84.3389H110.017" stroke="#191816" stroke-linecap="round" stroke-linejoin="round"/>
<path d="M114.247 97.0298H120.593" stroke="#191816" stroke-linecap="round" stroke-linejoin="round"/>
<path d="M114.247 90.6843H120.593" stroke="#191816" stroke-linecap="round" stroke-linejoin="round"/>
<path d="M114.247 84.3389H120.593" stroke="#191816" stroke-linecap="round" stroke-linejoin="round"/>
<path d="M124.823 97.0298H131.169" stroke="#191816" stroke-linecap="round" stroke-linejoin="round"/>
<path d="M124.823 90.6843H131.169" stroke="#191816" stroke-linecap="round" stroke-linejoin="round"/>
<path d="M124.823 84.3389H131.169" stroke="#191816" stroke-linecap="round" stroke-linejoin="round"/>
<path d="M135.399 97.0298H141.744" stroke="#191816" stroke-linecap="round" stroke-linejoin="round"/>
<path d="M135.399 90.6843H141.744" stroke="#191816" stroke-linecap="round" stroke-linejoin="round"/>
<path d="M135.399 84.3389H141.744" stroke="#191816" stroke-linecap="round" stroke-linejoin="round"/>
<path d="M145.975 97.0298H152.32" stroke="#191816" stroke-linecap="round" stroke-linejoin="round"/>
<path d="M145.975 90.6843H152.32" stroke="#191816" stroke-linecap="round" stroke-linejoin="round"/>
<path d="M145.975 84.3389H152.32" stroke="#191816" stroke-linecap="round" stroke-linejoin="round"/>
<path d="M156.551 97.0298H162.896" stroke="#191816" stroke-linecap="round" stroke-linejoin="round"/>
<path d="M156.551 90.6843H162.896" stroke="#191816" stroke-linecap="round" stroke-linejoin="round"/>
<path d="M156.551 84.3389H162.896" stroke="#191816" stroke-linecap="round" stroke-linejoin="round"/>
<path d="M103.671 103.375H110.017" stroke="#191816" stroke-linecap="round" stroke-linejoin="round"/>
<path d="M114.247 103.375H141.744" stroke="#191816" stroke-linecap="round" stroke-linejoin="round"/>
<path d="M145.975 103.375H152.32" stroke="#191816" stroke-linecap="round" stroke-linejoin="round"/>
<path d="M156.551 103.375H162.896" stroke="#191816" stroke-linecap="round" stroke-linejoin="round"/>
<path d="M181.933 33.5748H74.0591L82.5198 58.9569H173.472L181.933 33.5748Z" fill="#E8F4FA"/>
<path d="M136.203 33.5748H74.0591L82.5198 58.9569H110.821L136.203 33.5748Z" fill="white"/>
<path d="M181.933 33.5748H74.0591L82.5198 58.9569H173.472L181.933 33.5748Z" stroke="#191816" stroke-linecap="round" stroke-linejoin="round"/>
<path d="M82.5198 39.9203H90.9804" stroke="#191816" stroke-linecap="round" stroke-linejoin="round"/>
<path d="M88.8653 44.1506H99.4411" stroke="#191816" stroke-linecap="round" stroke-linejoin="round"/>
<path d="M93.0956 48.381H103.671" stroke="#191816" stroke-linecap="round" stroke-linejoin="round"/>
<path d="M90.9805 52.6113H99.4412" stroke="#191816" stroke-linecap="round" stroke-linejoin="round"/>
<path d="M159.723 33.5748L156.551 58.9569" stroke="#191816" stroke-linecap="round" stroke-linejoin="round"/>
<path d="M103.671 44.1506H105.787" stroke="#191816" stroke-linecap="round" stroke-linejoin="round"/>
<path d="M95.2108 39.9203H97.326" stroke="#191816" stroke-linecap="round" stroke-linejoin="round"/>
<path d="M107.902 48.381H114.247" stroke="#191816" stroke-linecap="round" stroke-linejoin="round"/>
<path opacity="0.15" d="M206.525 155.211C214.702 155.211 221.331 148.582 221.331 140.405C221.331 132.228 214.702 125.599 206.525 125.599C198.348 125.599 191.719 132.228 191.719 140.405C191.719 148.582 198.348 155.211 206.525 155.211Z" fill="#191816"/>
<path opacity="0.15" d="M184.527 168.396L181.228 179.959C180.832 181.189 180.688 182.486 180.804 183.772C180.92 185.059 181.294 186.31 181.903 187.449C182.513 188.588 183.345 189.593 184.351 190.404C185.357 191.215 186.515 191.816 187.758 192.17C189 192.524 190.302 192.624 191.584 192.465C192.866 192.305 194.103 191.89 195.221 191.242C196.339 190.595 197.316 189.729 198.093 188.697C198.869 187.664 199.43 186.486 199.742 185.232L203.042 173.669C203.645 171.245 203.283 168.681 202.031 166.519C200.78 164.357 198.737 162.766 196.334 162.081C193.932 161.397 191.357 161.673 189.154 162.851C186.951 164.029 185.292 166.017 184.527 168.396Z" fill="#191816"/>
<path d="M217.75 149.768C218.35 150.363 219.162 150.694 220.007 150.69C220.851 150.687 221.66 150.347 222.255 149.747C222.849 149.147 223.181 148.335 223.177 147.49C223.173 146.645 222.834 145.836 222.234 145.242L217.002 140.01L212.518 144.494L217.75 149.768Z" fill="white"/>
<path d="M217.75 149.768C218.35 150.363 219.162 150.694 220.007 150.69C220.851 150.687 221.66 150.347 222.255 149.747C222.849 149.147 223.181 148.335 223.177 147.49C223.173 146.645 222.834 145.836 222.234 145.242L217.002 140.01L212.518 144.494L217.75 149.768Z" stroke="#191816" stroke-linecap="round" stroke-linejoin="round"/>
<path d="M206.525 147.808C214.118 147.808 220.274 141.653 220.274 134.059C220.274 126.466 214.118 120.311 206.525 120.311C198.932 120.311 192.776 126.466 192.776 134.059C192.776 141.653 198.932 147.808 206.525 147.808Z" fill="white"/>
<path d="M206.525 143.578C211.782 143.578 216.043 139.316 216.043 134.059C216.043 128.803 211.782 124.541 206.525 124.541C201.268 124.541 197.007 128.803 197.007 134.059C197.007 139.316 201.268 143.578 206.525 143.578Z" fill="#BF8256"/>
<path d="M206.525 128.772C208.673 128.782 210.753 129.52 212.428 130.864C214.102 132.208 215.272 134.08 215.747 136.175C216.076 134.777 216.085 133.324 215.773 131.922C215.461 130.521 214.836 129.208 213.945 128.083C213.054 126.957 211.92 126.048 210.628 125.423C209.335 124.798 207.918 124.473 206.483 124.473C205.047 124.473 203.63 124.798 202.338 125.423C201.045 126.048 199.911 126.957 199.02 128.083C198.129 129.208 197.504 130.521 197.192 131.922C196.88 133.324 196.889 134.777 197.218 136.175C197.699 134.067 198.882 132.186 200.573 130.841C202.265 129.495 204.364 128.766 206.525 128.772Z" fill="#915E3A"/>
<path d="M206.525 147.808C214.118 147.808 220.274 141.653 220.274 134.059C220.274 126.466 214.118 120.311 206.525 120.311C198.932 120.311 192.776 126.466 192.776 134.059C192.776 141.653 198.932 147.808 206.525 147.808Z" stroke="#191816" stroke-linecap="round" stroke-linejoin="round"/>
<path d="M206.525 143.578C211.782 143.578 216.043 139.316 216.043 134.059C216.043 128.803 211.782 124.541 206.525 124.541C201.268 124.541 197.007 128.803 197.007 134.059C197.007 139.316 201.268 143.578 206.525 143.578Z" stroke="#191816" stroke-linecap="round" stroke-linejoin="round"/>
<path d="M184.57 165.632L181.665 175.799C181.356 176.867 181.262 177.986 181.386 179.091C181.51 180.196 181.85 181.266 182.388 182.24C182.925 183.213 183.649 184.071 184.518 184.765C185.388 185.459 186.385 185.975 187.453 186.283C188.522 186.591 189.641 186.686 190.746 186.562C191.851 186.438 192.921 186.098 193.894 185.56C194.868 185.023 195.726 184.299 196.42 183.429C197.113 182.56 197.629 181.563 197.937 180.494L200.842 170.328C201.444 168.174 201.168 165.87 200.076 163.919C198.983 161.968 197.163 160.529 195.013 159.916C192.863 159.303 190.557 159.566 188.6 160.648C186.644 161.729 185.194 163.541 184.57 165.688V165.632Z" fill="#E0E0E0"/>
<path d="M195.019 159.822C192.863 159.209 190.551 159.476 188.592 160.565C186.633 161.655 185.186 163.477 184.57 165.632L183.159 170.722C183.459 169.648 183.968 168.644 184.658 167.768C185.347 166.891 186.202 166.16 187.175 165.615C188.148 165.07 189.219 164.723 190.326 164.594C191.434 164.465 192.556 164.555 193.628 164.861C194.7 165.167 195.702 165.681 196.574 166.375C197.447 167.069 198.174 167.929 198.713 168.905C199.253 169.88 199.594 170.953 199.717 172.061C199.841 173.169 199.744 174.291 199.432 175.362L200.842 170.271C201.455 168.113 201.186 165.8 200.094 163.841C199.002 161.881 197.176 160.436 195.019 159.822Z" fill="#F0F0F0"/>
<path d="M192.988 166.224H193.185C193.365 166.277 193.517 166.399 193.608 166.563C193.667 166.67 193.697 166.791 193.695 166.914C193.693 167.036 193.659 167.156 193.596 167.261C193.533 167.367 193.444 167.454 193.338 167.514C193.231 167.575 193.111 167.606 192.988 167.606H192.791C192.624 167.558 192.481 167.452 192.387 167.306C192.292 167.161 192.254 166.987 192.278 166.815C192.302 166.644 192.387 166.487 192.517 166.373C192.648 166.259 192.815 166.196 192.988 166.196V166.224ZM192.988 164.786C192.71 164.748 192.428 164.765 192.157 164.836C191.885 164.907 191.631 165.031 191.408 165.201C191.184 165.37 190.997 165.582 190.855 165.824C190.714 166.067 190.622 166.334 190.584 166.612C190.546 166.89 190.563 167.172 190.634 167.443C190.705 167.714 190.829 167.969 190.999 168.192C191.168 168.415 191.38 168.603 191.622 168.744C191.865 168.886 192.132 168.978 192.41 169.016C192.943 169.159 193.51 169.093 193.995 168.83C194.48 168.568 194.846 168.13 195.019 167.606C195.177 167.071 195.117 166.496 194.853 166.004C194.589 165.513 194.142 165.146 193.608 164.983C193.421 164.926 193.226 164.898 193.03 164.899L192.988 164.786Z" fill="#191816"/>
<path d="M184.57 165.632L181.665 175.799C181.356 176.867 181.262 177.986 181.386 179.091C181.51 180.196 181.85 181.266 182.388 182.24C182.925 183.213 183.649 184.071 184.518 184.765C185.388 185.459 186.385 185.975 187.453 186.283C188.522 186.591 189.641 186.686 190.746 186.562C191.851 186.438 192.921 186.098 193.894 185.56C194.868 185.023 195.726 184.299 196.42 183.429C197.113 182.56 197.629 181.563 197.937 180.494L200.842 170.328C201.444 168.174 201.168 165.87 200.076 163.919C198.983 161.968 197.163 160.529 195.013 159.916C192.863 159.303 190.557 159.566 188.6 160.648C186.644 161.729 185.194 163.541 184.57 165.688V165.632Z" stroke="#191816" stroke-linecap="round" stroke-linejoin="round"/>
<path d="M127.884 148.296L110.697 204.972C110.358 206.09 110.99 207.271 112.108 207.61L152.591 219.887C153.708 220.226 154.89 219.594 155.229 218.476L172.416 161.8C172.755 160.683 172.123 159.501 171.005 159.162L130.522 146.886C129.405 146.547 128.223 147.178 127.884 148.296Z" fill="#FFF5E3" stroke="#191816" stroke-linecap="round" stroke-linejoin="round"/>
<path d="M132.72 154.196L140.828 156.649" stroke="#191816" stroke-linecap="round" stroke-linejoin="round"/>
<path d="M130.887 160.259L149.105 165.787" stroke="#191816" stroke-linecap="round" stroke-linejoin="round"/>
<path d="M129.039 166.337L141.195 170.017" stroke="#191816" stroke-linecap="round" stroke-linejoin="round"/>
<path d="M127.206 172.4L141.378 176.701" stroke="#191816" stroke-linecap="round" stroke-linejoin="round"/>
<path d="M125.359 178.478L131.437 180.325" stroke="#191816" stroke-linecap="round" stroke-linejoin="round"/>
<path d="M123.526 184.556L145.791 191.31" stroke="#191816" stroke-linecap="round" stroke-linejoin="round"/>
<path d="M121.679 190.619L135.85 194.92" stroke="#191816" stroke-linecap="round" stroke-linejoin="round"/>
<path d="M119.831 196.697L146.158 204.678" stroke="#191816" stroke-linecap="round" stroke-linejoin="round"/>
<path d="M117.998 202.774L130.139 206.455" stroke="#191816" stroke-linecap="round" stroke-linejoin="round"/>
<path d="M144.875 157.876L154.999 160.936" stroke="#191816" stroke-linecap="round" stroke-linejoin="round"/>
<path d="M135.484 181.552L145.608 184.612" stroke="#191816" stroke-linecap="round" stroke-linejoin="round"/>
<path d="M134.186 207.681L144.311 210.755" stroke="#191816" stroke-linecap="round" stroke-linejoin="round"/>
<path d="M134.405 144.206L94.0571 156.92C92.9429 157.271 92.3243 158.459 92.6754 159.573L110.475 216.06C110.826 217.174 112.014 217.792 113.128 217.441L153.475 204.728C154.59 204.376 155.208 203.189 154.857 202.074L137.058 145.588C136.707 144.474 135.519 143.855 134.405 144.206Z" fill="#FFF5E3" stroke="#191816" stroke-linecap="round" stroke-linejoin="round"/>
<path d="M99.9911 161.698L108.057 159.159" stroke="#191816" stroke-linecap="round" stroke-linejoin="round"/>
<path d="M101.895 167.747L120.057 162.022" stroke="#191816" stroke-linecap="round" stroke-linejoin="round"/>
<path d="M103.812 173.796L115.911 169.989" stroke="#191816" stroke-linecap="round" stroke-linejoin="round"/>
<path d="M105.716 179.846L119.831 175.404" stroke="#191816" stroke-linecap="round" stroke-linejoin="round"/>
<path d="M107.62 185.909L113.669 183.991" stroke="#191816" stroke-linecap="round" stroke-linejoin="round"/>
<path d="M109.523 191.959L131.719 184.965" stroke="#191816" stroke-linecap="round" stroke-linejoin="round"/>
<path d="M111.441 198.008L125.556 193.552" stroke="#191816" stroke-linecap="round" stroke-linejoin="round"/>
<path d="M113.345 204.057L139.573 195.794" stroke="#191816" stroke-linecap="round" stroke-linejoin="round"/>
<path d="M115.248 210.107L127.347 206.3" stroke="#191816" stroke-linecap="round" stroke-linejoin="round"/>
<path d="M112.09 157.876L122.186 154.703" stroke="#191816" stroke-linecap="round" stroke-linejoin="round"/>
<path d="M117.702 182.722L127.798 179.55" stroke="#191816" stroke-linecap="round" stroke-linejoin="round"/>
<path d="M131.394 205.03L141.477 201.844" stroke="#191816" stroke-linecap="round" stroke-linejoin="round"/>
<path d="M150.205 147.794H107.902C106.734 147.794 105.787 148.741 105.787 149.909V209.134C105.787 210.302 106.734 211.249 107.902 211.249H150.205C151.373 211.249 152.32 210.302 152.32 209.134V149.909C152.32 148.741 151.373 147.794 150.205 147.794Z" fill="#FFF5E3" stroke="#191816" stroke-linecap="round" stroke-linejoin="round"/>
<path d="M118.464 162.6C121.968 162.6 124.809 160.706 124.809 158.37C124.809 156.033 121.968 154.139 118.464 154.139C114.959 154.139 112.118 156.033 112.118 158.37C112.118 160.706 114.959 162.6 118.464 162.6Z" stroke="#191816" stroke-linecap="round" stroke-linejoin="round"/>
<path d="M118.464 204.903C121.968 204.903 124.809 203.009 124.809 200.673C124.809 198.337 121.968 196.443 118.464 196.443C114.959 196.443 112.118 198.337 112.118 200.673C112.118 203.009 114.959 204.903 118.464 204.903Z" stroke="#191816" stroke-linecap="round" stroke-linejoin="round"/>
<path d="M118.464 162.6V166.83" stroke="#191816" stroke-linecap="round" stroke-linejoin="round"/>
<path d="M122.694 166.83H114.233V171.061H122.694V166.83Z" stroke="#191816" stroke-linecap="round" stroke-linejoin="round"/>
<path d="M145.961 166.83H137.5V171.061H145.961V166.83Z" stroke="#191816" stroke-linecap="round" stroke-linejoin="round"/>
<path d="M118.464 171.061V175.291" stroke="#191816" stroke-linecap="round" stroke-linejoin="round"/>
<path d="M118.458 175.29L114.23 179.518L118.458 183.746L122.685 179.518L118.458 175.29Z" stroke="#191816" stroke-linecap="round" stroke-linejoin="round"/>
<path d="M141.725 185.875L137.498 190.103L141.725 194.33L145.953 190.103L141.725 185.875Z" stroke="#191816" stroke-linecap="round" stroke-linejoin="round"/>
<path d="M118.464 183.752V187.982" stroke="#191816" stroke-linecap="round" stroke-linejoin="round"/>
<path d="M145.961 181.637H135.385L137.5 177.406H148.076L145.961 181.637Z" stroke="#191816" stroke-linecap="round" stroke-linejoin="round"/>
<path d="M141.73 181.637V185.867" stroke="#191816" stroke-linecap="round" stroke-linejoin="round"/>
<path d="M141.73 171.061V177.406" stroke="#191816" stroke-linecap="round" stroke-linejoin="round"/>
<path d="M137.5 190.097H124.809" stroke="#191816" stroke-linecap="round" stroke-linejoin="round"/>
<path d="M124.809 187.982H112.118V192.212H124.809V187.982Z" stroke="#191816" stroke-linecap="round" stroke-linejoin="round"/>
<path d="M118.464 192.212V196.443" stroke="#191816" stroke-linecap="round" stroke-linejoin="round"/>
<path d="M137.5 168.946H131.155V179.521H122.694" stroke="#191816" stroke-linecap="round" stroke-linejoin="round"/>
<path d="M52.3215 114.311L34.8778 123.554C33.5016 124.284 32.9771 125.991 33.7064 127.367L52.8542 163.5C53.5835 164.877 55.2904 165.401 56.6667 164.672L74.1104 155.428C75.4867 154.699 76.0111 152.992 75.2818 151.615L56.134 115.482C55.4047 114.106 53.6978 113.581 52.3215 114.311Z" fill="#F0F0F0"/>
<path d="M52.3215 114.311L34.8778 123.554C33.5016 124.284 32.9771 125.991 33.7064 127.367L52.8542 163.5C53.5835 164.877 55.2904 165.401 56.6667 164.672L74.1104 155.428C75.4867 154.699 76.0111 152.992 75.2818 151.615L56.134 115.482C55.4047 114.106 53.6978 113.581 52.3215 114.311Z" stroke="#191816" stroke-linecap="round" stroke-linejoin="round"/>
<path d="M58.7791 120.471L36.3515 132.356L49.2268 156.652L71.6544 144.767L58.7791 120.471Z" fill="#00B8F0"/>
<path d="M55.0226 122.454L36.3386 132.367L46.2376 151.051L55.0226 122.454Z" fill="#4ACFFF"/>
<path d="M58.7791 120.471L36.3515 132.356L49.2268 156.652L71.6544 144.767L58.7791 120.471Z" stroke="#191816" stroke-linecap="round" stroke-linejoin="round"/>
<path d="M43.6994 123.667L47.4362 121.693" stroke="#191816" stroke-linecap="round" stroke-linejoin="round"/>
<path d="M63.8358 154.901C63.9612 155.147 63.9856 155.431 63.904 155.695C63.8223 155.958 63.641 156.179 63.3986 156.311C63.2755 156.376 63.1408 156.416 63.0022 156.429C62.8637 156.441 62.7239 156.427 62.591 156.385C62.4581 156.344 62.3346 156.277 62.2276 156.188C62.1206 156.099 62.0322 155.99 61.9674 155.867C61.9026 155.744 61.8626 155.609 61.8499 155.47C61.8371 155.332 61.8518 155.192 61.8931 155.059C61.9343 154.926 62.0013 154.803 62.0903 154.696C62.1792 154.589 62.2884 154.5 62.4116 154.436C62.5356 154.372 62.6709 154.334 62.8096 154.323C62.9484 154.313 63.088 154.329 63.2203 154.372C63.3526 154.416 63.4751 154.485 63.5807 154.575C63.6863 154.666 63.773 154.777 63.8358 154.901V154.901Z" stroke="#191816" stroke-linecap="round" stroke-linejoin="round"/>
</svg>
