<svg width="20" height="21" viewBox="0 0 20 21" fill="none" xmlns="http://www.w3.org/2000/svg">
<path fill-rule="evenodd" clip-rule="evenodd" d="M7.41658 2.57422H12.5583C14.8166 2.57422 16.6416 3.46016 16.6666 5.71226V18.281C16.6666 18.4218 16.6333 18.5625 16.5666 18.6867C16.4583 18.8854 16.2749 19.0345 16.0499 19.1007C15.8333 19.1669 15.5916 19.1338 15.3916 19.0179L9.99158 16.3352L4.58325 19.0179C4.45909 19.0833 4.31659 19.1255 4.17492 19.1255C3.70825 19.1255 3.33325 18.7447 3.33325 18.281V5.71226C3.33325 3.46016 5.16659 2.57422 7.41658 2.57422ZM6.84992 8.88343H13.1249C13.4833 8.88343 13.7749 8.59281 13.7749 8.22932C13.7749 7.86501 13.4833 7.57522 13.1249 7.57522H6.84992C6.49159 7.57522 6.19992 7.86501 6.19992 8.22932C6.19992 8.59281 6.49159 8.88343 6.84992 8.88343Z" fill="white"/>
</svg>
