<svg width="184" height="159" viewBox="0 0 184 159" fill="none" xmlns="http://www.w3.org/2000/svg">
<path d="M147.408 148.308C112.323 160.802 73.974 160.802 38.8892 148.308C38.2562 148.088 37.7081 147.676 37.3216 147.13C36.9351 146.585 36.7295 145.932 36.7336 145.265V76.6468C36.7356 76.1363 36.8601 75.6337 37.0968 75.1809C37.3334 74.7281 37.6753 74.3381 38.0939 74.0435C38.5126 73.7489 38.9959 73.5581 39.5036 73.4872C40.0113 73.4162 40.5286 73.4671 41.0126 73.6355C74.7994 85.1363 111.466 85.1363 145.253 73.6355C145.737 73.4671 146.254 73.4162 146.762 73.4872C147.269 73.5581 147.753 73.7489 148.171 74.0435C148.59 74.3381 148.932 74.7281 149.168 75.1809C149.405 75.6337 149.53 76.1363 149.532 76.6468V145.265C149.538 145.928 149.337 146.578 148.957 147.123C148.576 147.668 148.035 148.082 147.408 148.308Z" fill="#87C3FF"/>
<path d="M147.408 148.308C112.323 160.802 73.974 160.802 38.8892 148.308C38.2562 148.088 37.7081 147.676 37.3216 147.13C36.9351 146.585 36.7295 145.932 36.7336 145.265V76.6468C36.7356 76.1363 36.8601 75.6337 37.0968 75.1809C37.3334 74.7281 37.6753 74.3381 38.0939 74.0435C38.5126 73.7489 38.9959 73.5581 39.5036 73.4872C40.0113 73.4162 40.5286 73.4671 41.0126 73.6355C74.7994 85.1363 111.466 85.1363 145.253 73.6355C145.737 73.4671 146.254 73.4162 146.762 73.4872C147.269 73.5581 147.753 73.7489 148.171 74.0435C148.59 74.3381 148.932 74.7281 149.168 75.1809C149.405 75.6337 149.53 76.1363 149.532 76.6468V145.265C149.538 145.928 149.337 146.578 148.957 147.123C148.576 147.668 148.035 148.082 147.408 148.308Z" stroke="#6592BF" stroke-linecap="round" stroke-linejoin="round"/>
<path d="M149.532 90.5818C113.165 104.138 73.1005 104.138 36.7335 90.5818V76.6468C36.7356 76.1363 36.8601 75.6337 37.0967 75.1809C37.3333 74.7281 37.6752 74.3381 38.0939 74.0435C38.5125 73.7489 38.9958 73.5581 39.5035 73.4872C40.0112 73.4162 40.5286 73.4671 41.0125 73.6355C74.7993 85.1363 111.466 85.1363 145.253 73.6355C145.737 73.4671 146.254 73.4162 146.762 73.4872C147.269 73.5581 147.753 73.7489 148.171 74.0435C148.59 74.3381 148.932 74.7281 149.168 75.1809C149.405 75.6337 149.53 76.1363 149.532 76.6468V90.5818Z" fill="white"/>
<path d="M149.532 90.5818C113.165 104.138 73.1005 104.138 36.7335 90.5818V76.6468C36.7356 76.1363 36.8601 75.6337 37.0967 75.1809C37.3333 74.7281 37.6752 74.3381 38.0939 74.0435C38.5125 73.7489 38.9958 73.5581 39.5035 73.4872C40.0112 73.4162 40.5286 73.4671 41.0125 73.6355C74.7993 85.1363 111.466 85.1363 145.253 73.6355C145.737 73.4671 146.254 73.4162 146.762 73.4872C147.269 73.5581 147.753 73.7489 148.171 74.0435C148.59 74.3381 148.932 74.7281 149.168 75.1809C149.405 75.6337 149.53 76.1363 149.532 76.6468V90.5818Z" stroke="#6592BF" stroke-linecap="round" stroke-linejoin="round"/>
<path d="M59.8657 145.039C92.4568 151.926 109.991 151.286 141.907 140.938" stroke="#6592BF" stroke-linecap="round" stroke-linejoin="round"/>
<path d="M77.2395 144.654V150.805" stroke="#6592BF" stroke-linecap="round" stroke-linejoin="round"/>
<path d="M45.9031 138.474V144.624" stroke="#6592BF" stroke-linecap="round" stroke-linejoin="round"/>
<path d="M52.0802 140.106V146.257" stroke="#6592BF" stroke-linecap="round" stroke-linejoin="round"/>
<path d="M48.9913 85.3914C49.0225 85.7828 48.9484 86.1756 48.7767 86.5291C48.6049 86.8826 48.3416 87.1842 48.014 87.4028C47.6863 87.6214 47.306 87.7491 46.9123 87.7728C46.5186 87.7965 46.1257 87.7153 45.774 87.5377C44.8907 87.2677 44.1104 86.7375 43.536 86.0169C42.9616 85.2962 42.6201 84.4191 42.5567 83.5013C42.5209 83.1092 42.5926 82.7147 42.764 82.3599C42.9355 82.0051 43.2003 81.7032 43.5304 81.4863C43.8604 81.2694 44.2433 81.1456 44.6384 81.1281C45.0335 81.1107 45.4259 81.2001 45.774 81.387C46.6547 81.651 47.4341 82.1754 48.0087 82.8905C48.5832 83.6057 48.9259 84.4778 48.9913 85.3914Z" fill="#87C3FF" stroke="#6592BF" stroke-miterlimit="10" stroke-linecap="round"/>
<path d="M59.8659 88.0811C59.8657 88.4427 59.7835 88.7997 59.6253 89.1253C59.4672 89.4509 59.2373 89.7368 58.9528 89.9616C58.6683 90.1864 58.3364 90.3443 57.982 90.4236C57.6276 90.5029 57.2598 90.5016 56.906 90.4196C56.0287 90.2031 55.2436 89.7136 54.665 89.0222C54.0864 88.3309 53.7444 87.4737 53.6888 86.5754C53.6659 86.1824 53.743 85.7901 53.913 85.4346C54.0829 85.0792 54.3403 84.7723 54.6611 84.5423C54.982 84.3123 55.3559 84.1666 55.7484 84.1189C56.1408 84.0711 56.539 84.1227 56.906 84.269C57.7455 84.503 58.4868 85.0003 59.0199 85.687C59.5531 86.3737 59.8498 87.2132 59.8659 88.0811Z" fill="#87C3FF" stroke="#6592BF" stroke-miterlimit="10" stroke-linecap="round"/>
<path d="M70.9012 90.0367C70.9125 90.4353 70.8313 90.8311 70.664 91.1934C70.4966 91.5557 70.2477 91.8747 69.9365 92.1257C69.6253 92.3767 69.2602 92.5529 68.8696 92.6406C68.4789 92.7283 68.0732 92.7252 67.684 92.6315C66.8126 92.4858 66.0179 92.0469 65.4324 91.3881C64.8469 90.7293 64.506 89.8905 64.4667 89.0116C64.459 88.6164 64.5433 88.2247 64.7129 87.8673C64.8826 87.5098 65.1329 87.1963 65.4445 86.9512C65.7561 86.7062 66.1203 86.5362 66.5088 86.4546C66.8973 86.373 67.2995 86.382 67.684 86.4809C68.5499 86.613 69.3434 87.0392 69.9298 87.6873C70.5161 88.3354 70.8594 89.1654 70.9012 90.0367Z" fill="#87C3FF" stroke="#6592BF" stroke-miterlimit="10" stroke-linecap="round"/>
<path d="M89.9477 118.899V128.862C89.9466 129.434 90.0995 129.996 90.3905 130.49C90.6815 130.983 91.1 131.39 91.6026 131.668C92.1051 131.946 92.6732 132.085 93.2478 132.07C93.8225 132.056 94.3827 131.888 94.8702 131.584C97.7657 129.791 100.211 128.189 103.171 126.171C103.622 125.86 103.986 125.439 104.228 124.948C104.47 124.457 104.582 123.913 104.553 123.367C104.523 122.821 104.355 122.292 104.062 121.83C103.77 121.367 103.363 120.987 102.881 120.725C100.05 119.155 97.6692 117.778 94.8702 116.08C94.3757 115.772 93.8065 115.603 93.2233 115.592C92.6401 115.582 92.0649 115.729 91.5593 116.018C91.0536 116.308 90.6366 116.729 90.3527 117.236C90.0689 117.744 89.9289 118.318 89.9477 118.899Z" fill="white" stroke="#6592BF" stroke-linecap="round" stroke-linejoin="round"/>
<path d="M69.0031 13.5378V7.13086" stroke="#6592BF" stroke-linecap="round" stroke-linejoin="round"/>
<path d="M65.7858 10.335H72.2204" stroke="#6592BF" stroke-linecap="round" stroke-linejoin="round"/>
<path d="M56.1339 64.7946V58.3877" stroke="#6592BF" stroke-linecap="round" stroke-linejoin="round"/>
<path d="M52.9166 61.5898H59.3512" stroke="#6592BF" stroke-linecap="round" stroke-linejoin="round"/>
<path d="M176.782 76.0062V63.1924" stroke="#6592BF" stroke-linecap="round" stroke-linejoin="round"/>
<path d="M170.348 69.5996H183.217" stroke="#6592BF" stroke-linecap="round" stroke-linejoin="round"/>
<path d="M7.87463 67.9974V55.1836" stroke="#6592BF" stroke-linecap="round" stroke-linejoin="round"/>
<path d="M1.43994 61.5898H14.3091" stroke="#6592BF" stroke-linecap="round" stroke-linejoin="round"/>
<path d="M147.827 29.5557H144.609C143.721 29.5557 143.001 30.2728 143.001 31.1574V43.9712C143.001 44.8558 143.721 45.5729 144.609 45.5729H147.827C148.715 45.5729 149.435 44.8558 149.435 43.9712V31.1574C149.435 30.2728 148.715 29.5557 147.827 29.5557Z" fill="#87C3FF" stroke="#6592BF" stroke-linecap="round" stroke-linejoin="round"/>
<path d="M160.696 29.5557H157.478C156.59 29.5557 155.87 30.2728 155.87 31.1574V43.9712C155.87 44.8558 156.59 45.5729 157.478 45.5729H160.696C161.584 45.5729 162.304 44.8558 162.304 43.9712V31.1574C162.304 30.2728 161.584 29.5557 160.696 29.5557Z" fill="#87C3FF" stroke="#6592BF" stroke-linecap="round" stroke-linejoin="round"/>
<path d="M101.948 1.42918C101.459 1.14802 100.904 1 100.339 1C99.7745 1 99.2197 1.14802 98.7307 1.42918C98.2504 1.71271 97.8525 2.1158 97.5761 2.59884C97.2997 3.08187 97.1543 3.62821 97.1542 4.18415V31.0931C97.1543 31.6491 97.2997 32.1954 97.5761 32.6784C97.8525 33.1615 98.2504 33.5646 98.7307 33.8481C99.2197 34.1293 99.7745 34.2773 100.339 34.2773C100.904 34.2773 101.459 34.1293 101.948 33.8481L127.3 20.3936C127.811 20.1191 128.238 19.7122 128.535 19.2159C128.832 18.7196 128.989 18.1525 128.989 17.5746C128.989 16.9967 128.832 16.4295 128.535 15.9332C128.238 15.437 127.811 15.03 127.3 14.7555L101.948 1.42918Z" fill="#87C3FF" stroke="#6592BF" stroke-linecap="round" stroke-linejoin="round"/>
<path d="M117.262 51.1789V48.7764" stroke="#6592BF" stroke-linecap="round" stroke-linejoin="round"/>
<path d="M122.378 53.2925L124.083 51.5947" stroke="#6592BF" stroke-linecap="round" stroke-linejoin="round"/>
<path d="M124.501 58.3877H126.914" stroke="#6592BF" stroke-linecap="round" stroke-linejoin="round"/>
<path d="M122.378 63.4795L124.083 65.1773" stroke="#6592BF" stroke-linecap="round" stroke-linejoin="round"/>
<path d="M117.262 65.5947V67.9973" stroke="#6592BF" stroke-linecap="round" stroke-linejoin="round"/>
<path d="M112.147 63.4795L110.442 65.1773" stroke="#6592BF" stroke-linecap="round" stroke-linejoin="round"/>
<path d="M110.023 58.3877H107.61" stroke="#6592BF" stroke-linecap="round" stroke-linejoin="round"/>
<path d="M112.147 53.2925L110.442 51.5947" stroke="#6592BF" stroke-linecap="round" stroke-linejoin="round"/>
<path d="M36.8301 42.3688C41.2722 42.3688 44.8733 38.7832 44.8733 34.3602C44.8733 29.9371 41.2722 26.3516 36.8301 26.3516C32.3879 26.3516 28.7869 29.9371 28.7869 34.3602C28.7869 38.7832 32.3879 42.3688 36.8301 42.3688Z" fill="#87C3FF" stroke="#6592BF" stroke-linecap="round" stroke-linejoin="round"/>
</svg>
