<svg width="159" height="129" viewBox="0 0 159 129" fill="none" xmlns="http://www.w3.org/2000/svg">
<g opacity="0.3">
<path d="M128.928 111.639L7.34537 110.437C5.70576 110.421 4.13976 109.753 2.99186 108.581C1.84397 107.408 1.20821 105.827 1.22445 104.185L2.0611 19.5732L136.008 20.8977L135.171 105.509C135.155 107.151 134.488 108.72 133.317 109.869C132.146 111.019 130.567 111.656 128.928 111.639Z" fill="#00B8F0"/>
<path d="M17.6489 110.539L109.218 20.6328L2.0611 19.5732L1.22445 104.185C1.20821 105.827 1.84397 107.408 2.99186 108.581C4.13976 109.753 5.70576 110.421 7.34537 110.437L17.6489 110.539Z" fill="#4ACFFF"/>
<path d="M80.7455 86.3963C84.0247 86.4288 87.1825 85.1553 89.5243 82.8561C91.866 80.5569 93.1998 77.4204 93.2322 74.1364L93.4771 49.372C93.5182 45.9763 92.8615 42.6084 91.5478 39.4776C90.2341 36.3469 88.2915 33.5201 85.8407 31.1731C83.3899 28.8261 80.4832 27.009 77.3013 25.8347C74.1195 24.6603 70.7305 24.1539 67.3448 24.3468C60.9598 24.8468 55.0015 27.7526 50.6712 32.4783C46.3409 37.204 43.9608 43.3981 44.0108 49.8117L43.7751 73.6474C43.7426 76.9313 45.0141 80.0937 47.3099 82.4387C49.6057 84.7837 52.7377 86.1194 56.0169 86.1518L80.7455 86.3963Z" fill="#724F3D"/>
<path d="M67.3444 24.3878C60.9666 24.8874 55.0143 27.7874 50.6852 32.5043C46.356 37.2212 43.9713 43.405 44.0108 49.8114L43.9496 56.0025C43.9101 49.5961 46.2948 43.4123 50.6239 38.6954C54.9531 33.9785 60.9054 31.0785 67.2832 30.5789C70.6688 30.386 74.0579 30.8924 77.2397 32.0668C80.4216 33.2411 83.3282 35.0582 85.7791 37.4052C88.2299 39.7522 90.1725 42.5789 91.4862 45.7097C92.7999 48.8405 93.4566 52.2084 93.4155 55.6041L93.4767 49.413C93.5178 46.0173 92.8611 42.6494 91.5474 39.5186C90.2337 36.3879 88.2911 33.5611 85.8403 31.2141C83.3895 28.8671 80.4828 27.05 77.3009 25.8757C74.1191 24.7013 70.7301 24.1949 67.3444 24.3878Z" fill="#A86C4D"/>
<path d="M80.7455 86.3963C84.0247 86.4288 87.1825 85.1553 89.5243 82.8561C91.866 80.5569 93.1998 77.4204 93.2322 74.1364L93.4771 49.372C93.5182 45.9763 92.8615 42.6084 91.5478 39.4776C90.2341 36.3468 88.2915 33.5201 85.8407 31.1731C83.3899 28.8261 80.4832 27.009 77.3013 25.8347C74.1195 24.6603 70.7305 24.1539 67.3448 24.3468C60.9598 24.8468 55.0015 27.7526 50.6712 32.4783C46.3409 37.204 43.9608 43.3981 44.0108 49.8117L43.7751 73.6474C43.7426 76.9313 45.0141 80.0937 47.3099 82.4387C49.6057 84.7837 52.7377 86.1194 56.0169 86.1518L80.7455 86.3963Z" stroke="#191816" stroke-width="0.5" stroke-linecap="round" stroke-linejoin="round"/>
<path d="M99.6654 111.35C98.525 103.84 94.7534 96.9823 89.0254 92.003C83.2974 87.0236 75.9869 84.2481 68.4021 84.1731C60.8174 84.0981 53.4534 86.7285 47.6281 91.5936C41.8027 96.4587 37.8962 103.241 36.6075 110.727L99.6654 111.35Z" fill="#FFB0CA"/>
<path d="M40.1726 110.762C42.9864 105.788 47.0792 101.659 52.0255 98.8044C56.9719 95.9501 62.5913 94.4745 68.2997 94.5309C74.0081 94.5874 79.5972 96.1738 84.4861 99.1254C89.3751 102.077 93.3854 106.286 96.1004 111.315L99.6654 111.35C98.525 103.84 94.7534 96.9823 89.0254 92.003C83.2974 87.0236 75.9869 84.2481 68.4021 84.1731C60.8174 84.0981 53.4534 86.7285 47.6281 91.5936C41.8027 96.4587 37.8962 103.241 36.6075 110.727L40.1726 110.762Z" fill="#FFCCDD"/>
<path d="M99.6654 111.35C98.525 103.84 94.7534 96.9823 89.0254 92.003C83.2974 87.0236 75.9869 84.2481 68.4021 84.1731C60.8174 84.0981 53.4534 86.7285 47.6281 91.5936C41.8027 96.4587 37.8962 103.241 36.6075 110.727L99.6654 111.35Z" stroke="#191816" stroke-width="0.5" stroke-linecap="round" stroke-linejoin="round"/>
<path d="M82.7691 90.1735C82.7794 89.1365 82.5852 88.1077 82.1978 87.146C81.8104 86.1842 81.2373 85.3085 80.5114 84.569C79.7855 83.8294 78.921 83.2406 77.9674 82.8361C77.0139 82.4317 75.99 82.2197 74.9545 82.2121L61.8896 82.083C60.8541 82.07 59.8263 82.2618 58.8649 82.6472C57.9036 83.0327 57.0276 83.6044 56.2872 84.3294C55.5468 85.0545 54.9565 85.9187 54.5502 86.8726C54.1438 87.8265 53.9294 88.8512 53.9191 89.8882C53.9114 90.81 54.0627 91.7262 54.3664 92.5964L57.9144 102.683L68.2792 96.5934L78.5216 102.886L82.2684 92.8723C82.5892 92.0082 82.7586 91.0952 82.7691 90.1735Z" fill="#FFB0CA" stroke="#191816" stroke-width="0.5" stroke-linecap="round" stroke-linejoin="round"/>
<path d="M68.2792 96.5938L68.1364 111.04" stroke="#191816" stroke-width="0.5" stroke-linecap="round" stroke-linejoin="round"/>
<path d="M75.5631 89.4402L68.2792 96.5919L61.1381 89.2976L61.2504 77.9473L75.6754 78.0899L75.5631 89.4402Z" fill="#FFCEBF"/>
<path d="M61.18 85.067C65.8672 86.5492 70.8893 86.5988 75.605 85.2097L75.6754 78.0899L61.2504 77.9473L61.18 85.067Z" fill="#FFB59E"/>
<path d="M75.5631 89.4402L68.2792 96.5919L61.1381 89.2976L61.2504 77.9473L75.6754 78.0899L75.5631 89.4402Z" stroke="#191816" stroke-width="0.5" stroke-linecap="round" stroke-linejoin="round"/>
<path d="M89.2844 56.5527L89.3354 51.3935C89.3403 50.8982 89.345 50.4235 89.3497 49.9489C86.1459 51.5554 82.6043 52.3697 79.0216 52.3234C75.6268 52.289 72.2832 51.4914 69.2375 49.9895C66.1918 48.4876 63.5218 46.3198 61.4248 43.6462C61.1824 45.1402 60.6408 46.5698 59.8326 47.8489C59.0244 49.128 57.9663 50.2302 56.7219 51.0893C55.4774 51.9484 54.0724 52.5467 52.5912 52.8481C51.11 53.1495 49.5833 53.1479 48.1027 52.8433L48.0701 56.1452C46.977 56.1344 45.9244 56.5589 45.1438 57.3253C44.3633 58.0917 43.9187 59.1372 43.9078 60.2318C43.897 61.3265 44.3209 62.3806 45.0861 63.1623C45.8514 63.944 46.8954 64.3892 47.9885 64.4L48.2357 64.4024C48.9466 69.2717 51.3715 73.7263 55.0731 76.9628C58.7747 80.1993 63.5093 82.0047 68.4231 82.0533C73.3368 82.1019 78.1062 80.3905 81.8711 77.2278C85.6359 74.0651 88.1485 69.6594 88.9555 64.8051L89.2028 64.8075C90.2958 64.8183 91.3484 64.3938 92.129 63.6275C92.9096 62.8611 93.3542 61.8155 93.365 60.7209C93.3758 59.6262 92.952 58.5721 92.1867 57.7904C91.4215 57.0088 90.3774 56.5635 89.2844 56.5527Z" fill="#FFCEBF" stroke="#191816" stroke-width="0.5" stroke-linecap="round" stroke-linejoin="round"/>
<path d="M62.3565 70.3027C64.01 71.9043 66.214 72.8097 68.5142 72.8325C70.8145 72.8552 73.0359 71.9935 74.7208 70.425" stroke="#191816" stroke-width="0.5" stroke-linecap="round" stroke-linejoin="round"/>
<path d="M79.9906 58.5255C79.7388 57.9157 79.3133 57.3935 78.7673 57.024C78.2213 56.6546 77.5788 56.4541 76.9198 56.4476C76.2608 56.441 75.6145 56.6288 75.0613 56.9874C74.5081 57.346 74.0724 57.8597 73.8085 58.4644" stroke="#191816" stroke-width="0.5" stroke-linecap="round" stroke-linejoin="round"/>
<path d="M63.5257 58.3624C63.2739 57.7526 62.8484 57.2304 62.3024 56.861C61.7564 56.4915 61.1139 56.291 60.4549 56.2845C59.7959 56.278 59.1496 56.4657 58.5964 56.8243C58.0432 57.1829 57.6075 57.6966 57.3436 58.3013" stroke="#191816" stroke-width="0.5" stroke-linecap="round" stroke-linejoin="round"/>
<path d="M56.7158 67.5831C58.1384 67.5972 59.3031 66.4537 59.3172 65.029C59.3313 63.6043 58.1894 62.438 56.7668 62.4239C55.3442 62.4098 54.1795 63.5534 54.1654 64.9781C54.1513 66.4027 55.2932 67.5691 56.7158 67.5831Z" fill="#FFB59E"/>
<path d="M80.414 67.8175C81.8367 67.8316 83.0014 66.688 83.0154 65.2634C83.0295 63.8387 81.8877 62.6724 80.4651 62.6583C79.0424 62.6442 77.8777 63.7877 77.8637 65.2124C77.8496 66.6371 78.9914 67.8034 80.414 67.8175Z" fill="#FFB59E"/>
<path d="M130.009 2.26335L8.42689 1.06113C6.78729 1.04492 5.20838 1.68165 4.03753 2.83124C2.86667 3.98083 2.19977 5.54911 2.18353 7.19109L2.0611 19.5733L136.008 20.8978L136.13 8.51557C136.146 6.87359 135.51 5.29243 134.363 4.11991C133.215 2.94739 131.649 2.27956 130.009 2.26335Z" fill="white" stroke="#191816" stroke-width="0.5" stroke-linecap="round" stroke-linejoin="round"/>
<path d="M11.3956 13.4726C13.1027 13.4895 14.5003 12.1173 14.5173 10.4077C14.5342 8.69803 13.1639 7.29842 11.4568 7.28154C9.74964 7.26466 8.35202 8.6369 8.33511 10.3465C8.31821 12.0561 9.68842 13.4558 11.3956 13.4726Z" fill="#FF6242" stroke="#191816" stroke-width="0.5" stroke-linecap="round" stroke-linejoin="round"/>
<path d="M21.6992 13.5742C23.4063 13.5911 24.8039 12.2188 24.8208 10.5092C24.8377 8.79959 23.4675 7.39998 21.7604 7.3831C20.0532 7.36622 18.6556 8.73846 18.6387 10.4481C18.6218 12.1577 19.992 13.5573 21.6992 13.5742Z" fill="#FFE500" stroke="#191816" stroke-width="0.5" stroke-linecap="round" stroke-linejoin="round"/>
<path d="M32.0027 13.6758C33.7098 13.6926 35.1075 12.3204 35.1244 10.6108C35.1413 8.90116 33.7711 7.50155 32.0639 7.48467C30.3568 7.46779 28.9591 8.84003 28.9422 10.5496C28.9253 12.2593 30.2955 13.6589 32.0027 13.6758Z" fill="#6DD627" stroke="#191816" stroke-width="0.5" stroke-linecap="round" stroke-linejoin="round"/>
<path d="M128.928 111.639L7.34537 110.437C5.70576 110.421 4.13976 109.753 2.99186 108.581C1.84397 107.408 1.20821 105.827 1.22445 104.185L2.0611 19.5732L136.008 20.8977L135.171 105.509C135.155 107.151 134.488 108.72 133.317 109.869C132.146 111.019 130.567 111.656 128.928 111.639Z" stroke="#191816" stroke-width="0.5" stroke-linecap="round" stroke-linejoin="round"/>
<path d="M123.46 39.3486C126.874 39.3823 129.669 36.6379 129.703 33.2186C129.737 29.7994 126.996 27.0002 123.582 26.9664C120.168 26.9326 117.372 29.6771 117.339 33.0964C117.305 36.5156 120.045 39.3148 123.46 39.3486Z" fill="#FF6242" stroke="#191816" stroke-width="0.5" stroke-linecap="round" stroke-linejoin="round"/>
<path d="M123.46 39.3486C126.874 39.3823 129.669 36.6379 129.703 33.2186C129.737 29.7994 126.996 27.0002 123.582 26.9664C120.168 26.9326 117.372 29.6771 117.339 33.0964C117.305 36.5156 120.045 39.3148 123.46 39.3486Z" fill="#FF6242" stroke="#191816" stroke-width="0.5" stroke-linecap="round" stroke-linejoin="round"/>
<path d="M156.023 80.9476L102.444 80.4178C101.306 80.4066 100.375 81.3214 100.363 82.4612L99.9347 125.799C99.9235 126.939 100.837 127.872 101.975 127.883L155.554 128.413C156.692 128.424 157.623 127.509 157.635 126.369L158.063 83.0317C158.075 81.892 157.161 80.9589 156.023 80.9476Z" fill="#E0E0E0" stroke="#191816" stroke-width="0.5" stroke-linecap="round" stroke-linejoin="round"/>
<path d="M143.911 128.298C139.905 124.288 134.489 122.01 128.826 121.954C123.162 121.898 117.702 124.069 113.618 127.999L143.911 128.298Z" fill="white" stroke="#191816" stroke-width="0.5" stroke-linecap="round" stroke-linejoin="round"/>
<path d="M143.414 105.59C143.415 105.002 143.213 104.432 142.842 103.976C142.471 103.521 141.953 103.209 141.377 103.093L141.394 101.442C141.426 98.1583 140.155 94.996 137.859 92.6509C135.563 90.3059 132.431 88.9703 129.152 88.9378C125.873 88.9054 122.715 90.1789 120.373 92.478C118.031 94.7772 116.698 97.9138 116.665 101.198L116.649 102.849C116.04 102.947 115.489 103.266 115.1 103.744C114.711 104.223 114.511 104.828 114.538 105.445C114.565 106.061 114.817 106.646 115.247 107.089C115.676 107.531 116.253 107.801 116.867 107.846C117.427 110.629 118.924 113.135 121.109 114.944C123.293 116.753 126.032 117.756 128.867 117.784C131.701 117.812 134.46 116.864 136.679 115.098C138.899 113.332 140.446 110.856 141.06 108.085C141.691 108.035 142.282 107.752 142.716 107.291C143.151 106.83 143.4 106.224 143.414 105.59Z" fill="#FFCEBF" stroke="#191816" stroke-width="0.5" stroke-linecap="round" stroke-linejoin="round"/>
<path d="M124.393 101.276C124.087 101.273 123.788 101.361 123.532 101.528C123.276 101.696 123.075 101.936 122.956 102.217C122.836 102.499 122.802 102.81 122.859 103.111C122.916 103.412 123.06 103.689 123.274 103.907C123.488 104.126 123.762 104.276 124.061 104.339C124.36 104.402 124.671 104.374 124.955 104.26C125.239 104.145 125.482 103.949 125.654 103.696C125.827 103.444 125.92 103.145 125.923 102.839C125.927 102.429 125.768 102.033 125.481 101.74C125.194 101.447 124.803 101.28 124.393 101.276Z" fill="#191816"/>
<path d="M133.666 101.368C133.361 101.365 133.061 101.453 132.805 101.62C132.549 101.788 132.349 102.027 132.229 102.309C132.109 102.591 132.075 102.902 132.132 103.203C132.189 103.503 132.333 103.781 132.547 103.999C132.761 104.218 133.035 104.368 133.334 104.431C133.634 104.493 133.945 104.466 134.228 104.351C134.512 104.237 134.755 104.041 134.927 103.788C135.1 103.535 135.193 103.237 135.196 102.931C135.2 102.52 135.042 102.125 134.755 101.832C134.468 101.539 134.076 101.372 133.666 101.368Z" fill="#191816"/>
<path d="M122.261 108.477C123.114 108.485 123.813 107.799 123.822 106.945C123.83 106.09 123.145 105.39 122.291 105.381C121.438 105.373 120.739 106.059 120.731 106.914C120.722 107.769 121.407 108.469 122.261 108.477Z" fill="#FFB59E"/>
<path d="M135.655 108.609C136.509 108.617 137.208 107.931 137.216 107.076C137.225 106.222 136.54 105.522 135.686 105.513C134.832 105.505 134.134 106.191 134.125 107.046C134.117 107.901 134.802 108.6 135.655 108.609Z" fill="#FFB59E"/>
<path d="M125.846 110.659C126.754 111.283 127.827 111.622 128.928 111.633C130.029 111.644 131.108 111.326 132.028 110.72" stroke="#191816" stroke-width="0.5" stroke-linecap="round" stroke-linejoin="round"/>
<path d="M142.455 98.3576C142.49 94.8 141.112 91.3741 138.625 88.8337C136.138 86.2932 132.745 84.8463 129.193 84.8112C125.64 84.776 122.219 86.1556 119.683 88.6464C117.146 91.1372 115.701 94.5351 115.666 98.0927L115.625 102.22C117.228 101.836 118.721 101.083 119.983 100.021C121.246 98.9585 122.244 97.6162 122.898 96.1004C128.63 100.037 136.262 99.3284 142.455 98.3576Z" fill="#FFDF3D"/>
<path d="M129.142 89.97C131.803 90.0081 134.392 90.839 136.579 92.3567C138.766 93.8744 140.453 96.0101 141.423 98.4915L142.393 98.3567C142.428 94.799 141.051 91.3732 138.564 88.8327C136.076 86.2922 132.683 84.8453 129.131 84.8102C125.578 84.7751 122.158 86.1546 119.621 88.6454C117.084 91.1362 115.639 94.5341 115.604 98.0918L115.563 102.219C115.852 98.8333 117.416 95.6843 119.938 93.4099C122.459 91.1355 125.749 89.9059 129.142 89.97Z" fill="#FFEF9E"/>
<path d="M142.455 98.3576C142.49 94.8 141.112 91.3741 138.625 88.8337C136.138 86.2932 132.745 84.8463 129.193 84.8112C125.64 84.776 122.219 86.1556 119.683 88.6464C117.146 91.1372 115.701 94.5351 115.666 98.0927L115.625 102.22C117.228 101.836 118.721 101.083 119.983 100.021C121.246 98.9585 122.244 97.6162 122.898 96.1004C128.63 100.037 136.262 99.3284 142.455 98.3576Z" stroke="#191816" stroke-width="0.5" stroke-linecap="round" stroke-linejoin="round"/>
<path d="M120.858 94.0176C121.381 94.8515 122.078 95.5628 122.9 96.1031L120.858 94.0176Z" fill="#FFC258"/>
<path d="M120.858 94.0176C121.381 94.8515 122.078 95.5628 122.9 96.1031" stroke="#191816" stroke-width="0.5" stroke-linecap="round" stroke-linejoin="round"/>
<path d="M156.023 80.9476L102.444 80.4178C101.306 80.4066 100.375 81.3214 100.363 82.4612L99.9347 125.799C99.9235 126.939 100.837 127.872 101.975 127.883L155.554 128.413C156.692 128.424 157.623 127.509 157.635 126.369L158.063 83.0317C158.075 81.892 157.161 80.9589 156.023 80.9476Z" stroke="#191816" stroke-width="0.5" stroke-linecap="round" stroke-linejoin="round"/>
</g>
</svg>
