<svg width="153" height="125" viewBox="0 0 153 125" fill="none" xmlns="http://www.w3.org/2000/svg">
<path d="M145.395 124.613H7.98684C6.13382 124.613 4.35669 123.876 3.0464 122.564C1.73611 121.252 1 119.472 1 117.616V21.9912H152.382V117.616C152.382 119.472 151.645 121.252 150.335 122.564C149.025 123.876 147.248 124.613 145.395 124.613Z" fill="#00B8F0"/>
<path d="M19.6316 124.613L122.105 21.9912H1V117.616C1 119.472 1.73611 121.252 3.0464 122.564C4.35669 123.876 6.13382 124.613 7.98684 124.613H19.6316Z" fill="#4ACFFF"/>
<path d="M90.6644 96.6256C94.3705 96.6256 97.9248 95.1513 100.545 92.5269C103.166 89.9025 104.638 86.3431 104.638 82.6317V54.6439C104.647 50.806 103.867 47.0075 102.347 43.4842C100.828 39.9609 98.601 36.7883 95.8052 34.1634C93.0094 31.5386 89.7044 29.5176 86.0956 28.2261C82.4868 26.9346 78.6514 26.4002 74.8276 26.656C67.6177 27.2924 60.917 30.6426 56.0763 36.0313C51.2357 41.42 48.6152 48.4463 48.7434 55.6934V82.6317C48.7434 86.3431 50.2156 89.9025 52.8362 92.5269C55.4568 95.1513 59.011 96.6256 62.7171 96.6256H90.6644Z" fill="#724F3D"/>
<path d="M74.8275 26.7019C67.6258 27.3377 60.9318 30.6814 56.0923 36.0601C51.2529 41.4388 48.6271 48.4535 48.7433 55.6927V62.6896C48.6271 55.4504 51.2529 48.4358 56.0923 43.0571C60.9318 37.6783 67.6258 34.3347 74.8275 33.6989C78.6513 33.443 82.4868 33.9774 86.0956 35.2689C89.7043 36.5604 93.0093 38.5814 95.8051 41.2063C98.6009 43.8311 100.828 47.0038 102.347 50.527C103.867 54.0503 104.647 57.8489 104.638 61.6867V54.6898C104.647 50.8519 103.867 47.0533 102.347 43.5301C100.828 40.0068 98.6009 36.8342 95.8051 34.2093C93.0093 31.5845 89.7043 29.5635 86.0956 28.272C82.4868 26.9805 78.6513 26.4461 74.8275 26.7019Z" fill="#A86C4D"/>
<path d="M90.6644 96.6256C94.3705 96.6256 97.9248 95.1513 100.545 92.5269C103.166 89.9025 104.638 86.3431 104.638 82.6317V54.6439C104.647 50.806 103.867 47.0075 102.347 43.4842C100.828 39.9609 98.601 36.7883 95.8052 34.1634C93.0094 31.5386 89.7044 29.5176 86.0956 28.2261C82.4868 26.9346 78.6514 26.4002 74.8276 26.656C67.6177 27.2924 60.917 30.6426 56.0763 36.0313C51.2357 41.42 48.6152 48.4463 48.7434 55.6934V82.6317C48.7434 86.3431 50.2156 89.9025 52.8362 92.5269C55.4568 95.1513 59.011 96.6256 62.7171 96.6256H90.6644Z" stroke="#191816" stroke-width="0.5" stroke-linecap="round" stroke-linejoin="round"/>
<path d="M112.324 124.613C110.951 116.14 106.612 108.432 100.084 102.869C93.5551 97.3058 85.2628 94.251 76.6908 94.251C68.1188 94.251 59.8265 97.3058 53.2979 102.869C46.7693 108.432 42.4305 116.14 41.0579 124.613H112.324Z" fill="#FFB0CA"/>
<path d="M45.0869 124.613C48.2112 118.961 52.7901 114.249 58.3479 110.968C63.9056 107.687 70.2393 105.957 76.6908 105.957C83.1422 105.957 89.4759 107.687 95.0337 110.968C100.591 114.249 105.17 118.961 108.295 124.613H112.324C110.951 116.14 106.612 108.432 100.084 102.869C93.5551 97.3058 85.2628 94.251 76.6908 94.251C68.1188 94.251 59.8265 97.3058 53.2979 102.869C46.7693 108.432 42.4305 116.14 41.0579 124.613H45.0869Z" fill="#FFCCDD"/>
<path d="M112.324 124.613C110.951 116.14 106.612 108.432 100.084 102.869C93.5551 97.3058 85.2628 94.251 76.6908 94.251C68.1188 94.251 59.8265 97.3058 53.2979 102.869C46.7693 108.432 42.4305 116.14 41.0579 124.613H112.324Z" stroke="#191816" stroke-width="0.5" stroke-linecap="round" stroke-linejoin="round"/>
<path d="M92.9935 100.871C92.9935 99.6994 92.7626 98.539 92.314 97.4565C91.8655 96.374 91.2081 95.3908 90.3795 94.5632C89.5509 93.7356 88.5674 93.0798 87.4853 92.6334C86.4032 92.1871 85.2438 91.9589 84.0736 91.9619H69.3081C68.1378 91.9589 66.9784 92.1871 65.8963 92.6334C64.8143 93.0798 63.8308 93.7356 63.0022 94.5632C62.1736 95.3908 61.5162 96.374 61.0676 97.4565C60.6191 98.539 60.3882 99.6994 60.3882 100.871C60.3898 101.913 60.571 102.947 60.9238 103.927L65.0461 115.285L76.6908 108.288L88.3356 115.285L92.4578 103.927C92.8106 102.947 92.9918 101.913 92.9935 100.871Z" fill="#FFB0CA" stroke="#191816" stroke-width="0.5" stroke-linecap="round" stroke-linejoin="round"/>
<path d="M76.6907 108.288V124.614" stroke="#191816" stroke-width="0.5" stroke-linecap="round" stroke-linejoin="round"/>
<path d="M84.8421 100.124L76.6907 108.287L68.5394 100.124V87.2959H84.8421V100.124Z" fill="#FFCEBF"/>
<path d="M68.5394 95.3424C73.8529 96.9649 79.5286 96.9649 84.8421 95.3424V87.2959H68.5394V95.3424Z" fill="#FFB59E"/>
<path d="M84.8421 100.124L76.6907 108.287L68.5394 100.124V87.2959H84.8421V100.124Z" stroke="#191816" stroke-width="0.5" stroke-linecap="round" stroke-linejoin="round"/>
<path d="M99.9803 62.805V56.9742C99.9803 56.4145 99.9803 55.8781 99.9803 55.3416C96.3777 57.1929 92.3846 58.1526 88.3355 58.1404C84.4988 58.1394 80.7114 57.2754 77.2528 55.6123C73.7942 53.9491 70.7528 51.5292 68.3531 48.5312C68.0959 50.2223 67.4999 51.8438 66.6009 53.2983C65.7019 54.7528 64.5184 56.0102 63.1218 56.9949C61.7251 57.9797 60.144 58.6715 58.4736 59.0286C56.8031 59.3858 55.0778 59.401 53.4013 59.0733V62.805C52.166 62.805 50.9812 63.2965 50.1077 64.1713C49.2341 65.0461 48.7434 66.2325 48.7434 67.4697C48.7434 68.7068 49.2341 69.8933 50.1077 70.7681C50.9812 71.6429 52.166 72.1343 53.4013 72.1343H53.6808C54.5385 77.629 57.3286 82.6358 61.5477 86.2519C65.7669 89.8679 71.1375 91.8552 76.6908 91.8552C82.2441 91.8552 87.6147 89.8679 91.8338 86.2519C96.053 82.6358 98.843 77.629 99.7008 72.1343H99.9803C101.216 72.1343 102.4 71.6429 103.274 70.7681C104.147 69.8933 104.638 68.7068 104.638 67.4697C104.638 66.2325 104.147 65.0461 103.274 64.1713C102.4 63.2965 101.216 62.805 99.9803 62.805Z" fill="#FFCEBF" stroke="#191816" stroke-width="0.5" stroke-linecap="round" stroke-linejoin="round"/>
<path d="M69.7039 78.6436C71.5903 80.4349 74.091 81.4335 76.6907 81.4335C79.2904 81.4335 81.7911 80.4349 83.6775 78.6436" stroke="#191816" stroke-width="0.5" stroke-linecap="round" stroke-linejoin="round"/>
<path d="M89.5 65.1391C89.2086 64.4528 88.722 63.8674 88.1008 63.456C87.4796 63.0446 86.7514 62.8252 86.0066 62.8252C85.2619 62.8252 84.5336 63.0446 83.9124 63.456C83.2912 63.8674 82.8046 64.4528 82.5132 65.1391" stroke="#191816" stroke-width="0.5" stroke-linecap="round" stroke-linejoin="round"/>
<path d="M70.8919 65.1391C70.6004 64.4528 70.1138 63.8674 69.4927 63.456C68.8715 63.0446 68.1432 62.8252 67.3985 62.8252C66.6537 62.8252 65.9254 63.0446 65.3043 63.456C64.6831 63.8674 64.1965 64.4528 63.905 65.1391" stroke="#191816" stroke-width="0.5" stroke-linecap="round" stroke-linejoin="round"/>
<path d="M63.2994 75.6335C64.9072 75.6335 66.2106 74.3282 66.2106 72.7181C66.2106 71.108 64.9072 69.8027 63.2994 69.8027C61.6916 69.8027 60.3882 71.108 60.3882 72.7181C60.3882 74.3282 61.6916 75.6335 63.2994 75.6335Z" fill="#FFB59E"/>
<path d="M90.0823 75.6335C91.6901 75.6335 92.9935 74.3282 92.9935 72.7181C92.9935 71.108 91.6901 69.8027 90.0823 69.8027C88.4745 69.8027 87.1711 71.108 87.1711 72.7181C87.1711 74.3282 88.4745 75.6335 90.0823 75.6335Z" fill="#FFB59E"/>
<path d="M145.395 1H7.98684C6.13382 1 4.35669 1.73718 3.0464 3.04937C1.73611 4.36155 1 6.14125 1 7.99696V21.9909H152.382V7.99696C152.382 6.14125 151.645 4.36155 150.335 3.04937C149.025 1.73718 147.248 1 145.395 1Z" fill="white" stroke="#191816" stroke-width="0.5" stroke-linecap="round" stroke-linejoin="round"/>
<path d="M11.4804 14.9921C13.4097 14.9921 14.9738 13.4258 14.9738 11.4936C14.9738 9.56144 13.4097 7.99512 11.4804 7.99512C9.551 7.99512 7.98694 9.56144 7.98694 11.4936C7.98694 13.4258 9.551 14.9921 11.4804 14.9921Z" fill="#FF6242" stroke="#191816" stroke-width="0.5" stroke-linecap="round" stroke-linejoin="round"/>
<path d="M23.125 14.9921C25.0544 14.9921 26.6184 13.4258 26.6184 11.4936C26.6184 9.56144 25.0544 7.99512 23.125 7.99512C21.1956 7.99512 19.6316 9.56144 19.6316 11.4936C19.6316 13.4258 21.1956 14.9921 23.125 14.9921Z" fill="#FFE500" stroke="#191816" stroke-width="0.5" stroke-linecap="round" stroke-linejoin="round"/>
<path d="M34.7699 14.9921C36.6993 14.9921 38.2633 13.4258 38.2633 11.4936C38.2633 9.56144 36.6993 7.99512 34.7699 7.99512C32.8405 7.99512 31.2765 9.56144 31.2765 11.4936C31.2765 13.4258 32.8405 14.9921 34.7699 14.9921Z" fill="#6DD627" stroke="#191816" stroke-width="0.5" stroke-linecap="round" stroke-linejoin="round"/>
<path d="M145.395 124.613H7.98684C6.13382 124.613 4.35669 123.876 3.0464 122.564C1.73611 121.252 1 119.472 1 117.616V21.9912H152.382V117.616C152.382 119.472 151.645 121.252 150.335 122.564C149.025 123.876 147.248 124.613 145.395 124.613Z" stroke="#191816" stroke-width="0.5" stroke-linecap="round" stroke-linejoin="round"/>
<path d="M138.408 42.9812C142.267 42.9812 145.395 39.8486 145.395 35.9843C145.395 32.1199 142.267 28.9873 138.408 28.9873C134.549 28.9873 131.421 32.1199 131.421 35.9843C131.421 39.8486 134.549 42.9812 138.408 42.9812Z" fill="#FF6242" stroke="#191816" stroke-width="0.5" stroke-linecap="round" stroke-linejoin="round"/>
<path d="M138.408 42.9812C142.267 42.9812 145.395 39.8486 145.395 35.9843C145.395 32.1199 142.267 28.9873 138.408 28.9873C134.549 28.9873 131.421 32.1199 131.421 35.9843C131.421 39.8486 134.549 42.9812 138.408 42.9812Z" fill="#FF6242" stroke="#191816" stroke-width="0.5" stroke-linecap="round" stroke-linejoin="round"/>
</svg>
