<svg width="397" height="448" viewBox="0 0 397 448" fill="none" xmlns="http://www.w3.org/2000/svg">
<path d="M45.655 290H355.315" stroke="#4F4A45" stroke-linecap="round" stroke-linejoin="round"/>
<path d="M27.79 290H37.715" stroke="#4F4A45" stroke-linecap="round" stroke-linejoin="round"/>
<path d="M363.255 290H373.18" stroke="#4F4A45" stroke-linecap="round" stroke-linejoin="round"/>
<path d="M154.83 216C161.147 216 167.206 213.472 171.673 208.971C176.14 204.47 178.65 198.366 178.65 192V144C178.665 137.418 177.335 130.904 174.745 124.861C172.155 118.819 168.359 113.377 163.593 108.876C158.827 104.374 153.193 100.908 147.042 98.6931C140.89 96.4781 134.352 95.5615 127.834 96.0004C115.565 97.0716 104.154 102.789 95.9031 112.001C87.6519 121.213 83.1733 133.233 83.37 145.64V192C83.37 198.366 85.8796 204.47 90.3467 208.971C94.8138 213.472 100.873 216 107.19 216H154.83Z" fill="#724F3D"/>
<path d="M127.834 96.0004C115.565 97.0716 104.154 102.789 95.9031 112.001C87.6519 121.213 83.1733 133.233 83.37 145.64V157.64C83.1733 145.233 87.6519 133.213 95.9031 124.001C104.154 114.789 115.565 109.072 127.834 108C134.352 107.562 140.89 108.478 147.042 110.693C153.193 112.908 158.827 116.374 163.593 120.876C168.359 125.377 172.155 130.819 174.745 136.861C177.335 142.904 178.665 149.418 178.65 156V144C178.665 137.418 177.335 130.904 174.745 124.861C172.155 118.819 168.359 113.377 163.593 108.876C158.827 104.374 153.193 100.908 147.042 98.6931C140.89 96.4781 134.352 95.5615 127.834 96.0004Z" fill="#A86C4D"/>
<path d="M154.83 216C161.147 216 167.206 213.472 171.673 208.971C176.14 204.47 178.65 198.366 178.65 192V144C178.665 137.418 177.335 130.904 174.745 124.861C172.155 118.819 168.359 113.377 163.593 108.876C158.827 104.374 153.193 100.908 147.042 98.6931C140.89 96.4781 134.352 95.5615 127.834 96.0004C115.565 97.0716 104.154 102.789 95.9031 112.001C87.6519 121.213 83.1733 133.233 83.37 145.64V192C83.37 198.366 85.8796 204.47 90.3467 208.971C94.8138 213.472 100.873 216 107.19 216H154.83Z" stroke="#191816" stroke-linecap="round" stroke-linejoin="round"/>
<path d="M192.545 290V274C192.545 257.557 186.062 241.787 174.522 230.159C162.982 218.532 147.33 212 131.01 212C114.69 212 99.0383 218.532 87.4983 230.159C75.9582 241.787 69.4751 257.557 69.4751 274V290H192.545Z" fill="#FFB0CA"/>
<path d="M131.01 232C164.993 232 192.545 253.76 192.545 288V274C192.545 257.557 186.062 241.787 174.522 230.159C162.982 218.532 147.33 212 131.01 212C114.69 212 99.0383 218.532 87.4983 230.159C75.9582 241.787 69.4751 257.557 69.4751 274V288C69.4751 253.76 97.0269 232 131.01 232Z" fill="#FFCCDD"/>
<path d="M192.545 290V274C192.545 257.557 186.062 241.787 174.522 230.159C162.982 218.532 147.33 212 131.01 212C114.69 212 99.0383 218.532 87.4983 230.159C75.9582 241.787 69.4751 257.557 69.4751 274V290H192.545Z" stroke="#191816" stroke-linecap="round" stroke-linejoin="round"/>
<path d="M158.8 223.32C158.806 221.307 158.416 219.312 157.654 217.451C156.891 215.59 155.771 213.899 154.358 212.475C152.946 211.052 151.267 209.923 149.42 209.155C147.573 208.387 145.593 207.995 143.595 208H118.425C116.427 207.995 114.448 208.387 112.6 209.155C110.753 209.923 109.075 211.052 107.662 212.475C106.249 213.899 105.129 215.59 104.367 217.451C103.605 219.312 103.215 221.307 103.22 223.32C103.227 225.093 103.536 226.852 104.133 228.52L111.16 248L131.01 236L150.86 248L157.887 228.52C158.485 226.852 158.794 225.093 158.8 223.32Z" fill="#FFB0CA" stroke="#191816" stroke-linecap="round" stroke-linejoin="round"/>
<path d="M131.01 236V290" stroke="#191816" stroke-linecap="round" stroke-linejoin="round"/>
<path d="M144.905 222L131.01 236L117.115 222V200H144.905V222Z" fill="#FFDCD1"/>
<path d="M144.905 222L131.01 236L117.115 222V200H144.905V222Z" stroke="#191816" stroke-linecap="round" stroke-linejoin="round"/>
<path d="M93.2952 268V290" stroke="#191816" stroke-linecap="round" stroke-linejoin="round"/>
<path d="M168.725 268V290" stroke="#191816" stroke-linecap="round" stroke-linejoin="round"/>
<path d="M170.71 158V148C170.71 147.08 170.71 146.16 170.71 145.24C161.775 149.791 151.558 151.11 141.772 148.976C131.986 146.843 123.225 141.386 116.956 133.52C116.52 136.436 115.499 139.233 113.956 141.74C112.414 144.247 110.381 146.411 107.982 148.102C105.584 149.793 102.869 150.975 100.003 151.577C97.1368 152.178 94.1793 152.186 91.3101 151.6V158C89.2043 158 87.1847 158.842 85.6957 160.343C84.2067 161.843 83.3701 163.878 83.3701 166C83.3701 168.121 84.2067 170.156 85.6957 171.656C87.1847 173.157 89.2043 174 91.3101 174H91.7865C93.2486 183.423 98.0047 192.01 105.197 198.212C112.389 204.413 121.544 207.821 131.01 207.821C140.477 207.821 149.631 204.413 156.823 198.212C164.016 192.01 168.772 183.423 170.234 174H170.71C172.816 174 174.836 173.157 176.325 171.656C177.814 170.156 178.65 168.121 178.65 166C178.65 163.878 177.814 161.843 176.325 160.343C174.836 158.842 172.816 158 170.71 158Z" fill="#FFCEBF" stroke="#191816" stroke-linecap="round" stroke-linejoin="round"/>
<path d="M119.1 185.199C122.325 188.254 126.584 189.954 131.01 189.954C135.436 189.954 139.695 188.254 142.92 185.199" stroke="#191816" stroke-linecap="round" stroke-linejoin="round"/>
<path d="M152.845 162C152.348 160.823 151.519 159.819 150.46 159.113C149.401 158.407 148.16 158.031 146.89 158.031C145.621 158.031 144.379 158.407 143.32 159.113C142.261 159.819 141.432 160.823 140.935 162" stroke="#191816" stroke-linecap="round" stroke-linejoin="round"/>
<path d="M121.125 162C120.628 160.823 119.799 159.819 118.74 159.113C117.681 158.407 116.439 158.031 115.17 158.031C113.9 158.031 112.659 158.407 111.6 159.113C110.541 159.819 109.712 160.823 109.215 162" stroke="#191816" stroke-linecap="round" stroke-linejoin="round"/>
<path d="M108.183 180C110.923 180 113.145 177.761 113.145 175C113.145 172.239 110.923 170 108.183 170C105.442 170 103.22 172.239 103.22 175C103.22 177.761 105.442 180 108.183 180Z" fill="#FFB59E"/>
<path d="M153.838 180C156.578 180 158.8 177.761 158.8 175C158.8 172.239 156.578 170 153.838 170C151.097 170 148.875 172.239 148.875 175C148.875 177.761 151.097 180 153.838 180Z" fill="#FFB59E"/>
<path d="M341.42 162H301.72L279.885 190L258.05 162H218.35C213.085 162 208.037 159.893 204.314 156.142C200.591 152.391 198.5 147.304 198.5 142V34C198.5 28.6957 200.591 23.6086 204.314 19.8579C208.037 16.1071 213.085 14 218.35 14H341.42C346.685 14 351.734 16.1071 355.456 19.8579C359.179 23.6086 361.27 28.6957 361.27 34V142C361.27 147.304 359.179 152.391 355.456 156.142C351.734 159.893 346.685 162 341.42 162Z" fill="white" stroke="#191816" stroke-linecap="round" stroke-linejoin="round"/>
<path d="M337.45 30H222.32C217.935 30 214.38 33.5817 214.38 38V138C214.38 142.418 217.935 146 222.32 146H337.45C341.835 146 345.39 142.418 345.39 138V38C345.39 33.5817 341.835 30 337.45 30Z" fill="#00B8F0"/>
<path d="M293.78 30H222.32C220.214 30 218.195 30.8429 216.706 32.3431C215.217 33.8434 214.38 35.8783 214.38 38V110L293.78 30Z" fill="#4ACFFF"/>
<path d="M316.052 92.0005C316.048 90.5536 315.541 89.1537 314.62 88.0433C313.7 86.9329 312.422 86.1819 311.01 85.9205V81.9205C311.01 73.8686 307.835 66.1464 302.184 60.4528C296.533 54.7592 288.869 51.5605 280.878 51.5605C272.886 51.5605 265.222 54.7592 259.571 60.4528C253.92 66.1464 250.745 73.8686 250.745 81.9205V85.9205C249.333 86.1819 248.056 86.9329 247.135 88.0433C246.214 89.1537 245.708 90.5536 245.703 92.0005C245.726 93.557 246.317 95.0504 247.365 96.1945C248.413 97.3386 249.842 98.0529 251.38 98.2005C252.794 105.029 256.499 111.158 261.871 115.558C267.243 119.958 273.955 122.36 280.878 122.36C287.801 122.36 294.512 119.958 299.884 115.558C305.256 111.158 308.961 105.029 310.375 98.2005C311.913 98.0529 313.343 97.3386 314.39 96.1945C315.438 95.0504 316.029 93.557 316.052 92.0005Z" fill="#FFCEBF" stroke="#191816" stroke-linecap="round" stroke-linejoin="round"/>
<path d="M269.563 81.7996C268.967 81.6021 268.333 81.5499 267.712 81.6473C267.092 81.7446 266.504 81.9887 265.995 82.3595C265.487 82.7304 265.073 83.2174 264.788 83.7806C264.502 84.3438 264.354 84.9672 264.354 85.5996C264.354 86.232 264.502 86.8554 264.788 87.4186C265.073 87.9818 265.487 88.4688 265.995 88.8397C266.504 89.2105 267.092 89.4546 267.712 89.5519C268.333 89.6493 268.967 89.5971 269.563 89.3996C270.563 89.3996 271.523 88.9992 272.23 88.2866C272.937 87.574 273.335 86.6074 273.335 85.5996C273.335 84.5918 272.937 83.6252 272.23 82.9126C271.523 82.2 270.563 81.7996 269.563 81.7996Z" fill="#191816"/>
<path d="M292.192 81.8002C291.456 81.8393 290.747 82.0949 290.154 82.5355C289.56 82.9761 289.108 83.5824 288.852 84.2792C288.597 84.9761 288.55 85.7331 288.717 86.4566C288.885 87.18 289.259 87.8383 289.793 88.3499C290.328 88.8615 290.999 89.2041 291.725 89.3352C292.45 89.4664 293.198 89.3803 293.876 89.0878C294.554 88.7952 295.131 88.3089 295.538 87.6891C295.944 87.0692 296.161 86.343 296.162 85.6002C296.163 85.0839 296.059 84.5728 295.857 84.0983C295.655 83.6237 295.36 83.1955 294.988 82.8399C294.617 82.4843 294.177 82.2087 293.696 82.03C293.216 81.8512 292.704 81.773 292.192 81.8002Z" fill="#191816"/>
<path d="M268.332 95.7204C268.38 96.52 268.188 97.3156 267.782 98.0042C267.376 98.6928 266.774 99.2426 266.054 99.5825C265.334 99.9223 264.529 100.037 263.744 99.9104C262.959 99.7843 262.23 99.4235 261.65 98.8749C261.071 98.3262 260.669 97.615 260.495 96.8332C260.322 96.0515 260.385 95.2353 260.677 94.4903C260.969 93.7453 261.477 93.1059 262.134 92.6548C262.791 92.2037 263.567 91.9618 264.362 91.9604C264.871 91.9333 265.379 92.0103 265.857 92.1866C266.335 92.3629 266.773 92.635 267.144 92.9863C267.515 93.3376 267.812 93.761 268.016 94.2309C268.22 94.7007 268.328 95.2074 268.332 95.7204Z" fill="#FFB59E"/>
<path d="M300.966 95.7198C301.014 96.5194 300.822 97.3151 300.416 98.0036C300.009 98.6922 299.407 99.2421 298.687 99.5819C297.967 99.9218 297.163 100.036 296.378 99.9099C295.593 99.7838 294.863 99.423 294.284 98.8743C293.705 98.3257 293.302 97.6144 293.129 96.8327C292.955 96.051 293.019 95.2347 293.311 94.4897C293.603 93.7448 294.11 93.1053 294.767 92.6543C295.424 92.2032 296.201 91.9613 296.996 91.9598C297.506 91.927 298.017 91.9999 298.497 92.1741C298.978 92.3483 299.418 92.62 299.79 92.9725C300.162 93.325 300.459 93.7507 300.661 94.2233C300.863 94.6958 300.967 95.2052 300.966 95.7198Z" fill="#FFB59E"/>
<path d="M273.334 104.84C275.573 106.328 278.196 107.121 280.877 107.121C283.559 107.121 286.182 106.328 288.421 104.84" stroke="#191816" stroke-linecap="round" stroke-linejoin="round"/>
<path d="M313.63 74.2403C313.63 65.5094 310.188 57.1361 304.06 50.9624C297.933 44.7887 289.622 41.3203 280.957 41.3203C272.292 41.3203 263.981 44.7887 257.854 50.9624C251.726 57.1361 248.284 65.5094 248.284 74.2403V84.3603C252.205 83.3885 255.847 81.5086 258.921 78.87C261.995 76.2313 264.415 72.9067 265.99 69.1603C279.885 78.7203 298.465 76.7603 313.63 74.2403Z" fill="#FFDF3D"/>
<path d="M280.878 53.9603C287.394 53.9651 293.76 55.9328 299.157 59.6108C304.555 63.2887 308.738 68.5088 311.169 74.6003L313.551 74.2403C313.551 65.5094 310.108 57.1361 303.981 50.9624C297.854 44.7887 289.543 41.3203 280.878 41.3203C272.212 41.3203 263.902 44.7887 257.774 50.9624C251.647 57.1361 248.205 65.5094 248.205 74.2403V84.3603C248.827 76.0699 252.543 68.3248 258.606 62.6842C264.668 57.0437 272.626 53.9265 280.878 53.9603Z" fill="#FFEF9E"/>
<path d="M313.63 74.2403C313.63 65.5094 310.188 57.1361 304.06 50.9624C297.933 44.7887 289.622 41.3203 280.957 41.3203C272.292 41.3203 263.981 44.7887 257.854 50.9624C251.726 57.1361 248.284 65.5094 248.284 74.2403V84.3603C252.205 83.3885 255.847 81.5086 258.921 78.87C261.995 76.2313 264.415 72.9067 265.99 69.1603C279.885 78.7203 298.465 76.7603 313.63 74.2403Z" stroke="#191816" stroke-linecap="round" stroke-linejoin="round"/>
<path d="M260.79 64C262.112 66.0954 263.89 67.86 265.99 69.16L260.79 64Z" fill="#FFC258"/>
<path d="M260.79 64C262.112 66.0954 263.89 67.86 265.99 69.16" stroke="#191816" stroke-linecap="round" stroke-linejoin="round"/>
<path d="M337.45 30H222.32C217.935 30 214.38 33.5817 214.38 38V138C214.38 142.418 217.935 146 222.32 146H337.45C341.835 146 345.39 142.418 345.39 138V38C345.39 33.5817 341.835 30 337.45 30Z" stroke="#191816" stroke-linecap="round" stroke-linejoin="round"/>
<path d="M316.091 146C306.409 137.269 293.871 132.441 280.877 132.441C267.884 132.441 255.346 137.269 245.664 146H316.091Z" fill="white" stroke="#191816" stroke-linecap="round" stroke-linejoin="round"/>
<path d="M329.51 54C333.895 54 337.45 50.4183 337.45 46C337.45 41.5817 333.895 38 329.51 38C325.125 38 321.57 41.5817 321.57 46C321.57 50.4183 325.125 54 329.51 54Z" fill="#FF6242" stroke="#191816" stroke-linecap="round" stroke-linejoin="round"/>
<path opacity="0.15" d="M202.391 368C236.376 368 263.926 365.314 263.926 362C263.926 358.686 236.376 356 202.391 356C168.406 356 140.856 358.686 140.856 362C140.856 365.314 168.406 368 202.391 368Z" fill="#191816"/>
<path d="M293.78 202H111.16C106.775 202 103.22 205.582 103.22 210V324.32C103.22 328.738 106.775 332.32 111.16 332.32H293.78C298.165 332.32 301.72 328.738 301.72 324.32V210C301.72 205.582 298.165 202 293.78 202Z" fill="#DAEDF7"/>
<path d="M301.72 324.32C301.72 326.442 300.884 328.477 299.395 329.977C297.906 331.477 295.886 332.32 293.78 332.32H111.16C109.054 332.32 107.035 331.477 105.546 329.977C104.057 328.477 103.22 326.442 103.22 324.32H301.72Z" fill="#C0DCEB"/>
<path d="M103.22 210C103.22 207.878 104.057 205.843 105.546 204.343C107.035 202.843 109.054 202 111.16 202H293.78C295.886 202 297.906 202.843 299.395 204.343C300.884 205.843 301.72 207.878 301.72 210H103.22Z" fill="white"/>
<path d="M237.962 348.32C238.562 351.292 238.053 354.383 236.533 357C235.781 357.946 234.826 358.708 233.739 359.228C232.653 359.747 231.463 360.012 230.26 360H174.68C173.504 359.988 172.346 359.712 171.288 359.193C170.231 358.674 169.301 357.925 168.566 357C167.046 354.383 166.537 351.292 167.137 348.32H237.962Z" fill="#DAEDF7" stroke="#191816" stroke-linecap="round" stroke-linejoin="round"/>
<path d="M293.78 202H111.16C106.775 202 103.22 205.582 103.22 210V324.32C103.22 328.738 106.775 332.32 111.16 332.32H293.78C298.165 332.32 301.72 328.738 301.72 324.32V210C301.72 205.582 298.165 202 293.78 202Z" stroke="#191816" stroke-linecap="round" stroke-linejoin="round"/>
<path d="M231.451 360H173.291C180.596 340.48 183.017 284.32 183.017 284.32H221.764C221.764 284.32 224.186 340.48 231.451 360Z" fill="#DAEDF7" stroke="#191816" stroke-linecap="round" stroke-linejoin="round"/>
<path d="M119.1 316.32V324.32" stroke="#191816" stroke-linecap="round" stroke-linejoin="round"/>
<path d="M127.04 316.32V324.32" stroke="#191816" stroke-linecap="round" stroke-linejoin="round"/>
<path d="M134.98 316.32V324.32" stroke="#191816" stroke-linecap="round" stroke-linejoin="round"/>
<path d="M142.92 316.32V324.32" stroke="#191816" stroke-linecap="round" stroke-linejoin="round"/>
<path d="M207.671 250.76C207.693 249.825 207.957 248.912 208.438 248.112C208.918 247.312 209.598 246.653 210.41 246.2C209.915 245.488 209.263 244.901 208.506 244.484C207.748 244.068 206.905 243.834 206.043 243.8C204.177 243.8 202.43 244.92 201.478 244.92C200.525 244.92 199.096 243.84 197.508 243.88C196.499 243.905 195.514 244.195 194.651 244.721C193.787 245.247 193.075 245.991 192.585 246.88C191.81 248.846 191.541 250.977 191.805 253.076C192.069 255.174 192.856 257.171 194.093 258.88C195.086 260.36 196.317 261.96 198.063 261.92C199.81 261.88 200.128 260.92 202.033 260.92C203.939 260.92 204.376 261.92 206.003 261.88C207.631 261.84 208.663 260.4 209.656 258.96C210.377 257.908 210.926 256.746 211.283 255.52C210.27 255.194 209.381 254.563 208.735 253.711C208.089 252.86 207.718 251.83 207.671 250.76Z" fill="#EDF2F4" stroke="#191816" stroke-linejoin="round"/>
<path d="M203.582 237.6L205.765 235.4" stroke="#191816" stroke-linecap="round" stroke-linejoin="round"/>
<path d="M119.1 214H285.84" stroke="#191816" stroke-linecap="round" stroke-linejoin="round"/>
</svg>
