<svg width="448" height="502" viewBox="0 0 448 502" fill="none" xmlns="http://www.w3.org/2000/svg">
<path d="M70.6592 275.988C84.8683 307.391 107.825 334.03 136.779 352.714C165.732 371.398 199.456 381.335 233.91 381.335C268.365 381.335 302.088 371.398 331.042 352.714C359.996 334.03 382.952 307.391 397.162 275.988H70.6592Z" fill="white"/>
<path d="M56.9502 275.988H406.39" stroke="#191816" stroke-linecap="round" stroke-linejoin="round"/>
<path d="M36.7903 275.988H47.9903" stroke="#191816" stroke-linecap="round" stroke-linejoin="round"/>
<path d="M415.35 275.988H426.55" stroke="#191816" stroke-linecap="round" stroke-linejoin="round"/>
<path d="M217.424 85.7617H126.839C119.416 85.7617 113.399 91.7819 113.399 99.2081V288.803C113.399 296.229 119.416 302.249 126.839 302.249H217.424C224.847 302.249 230.864 296.229 230.864 288.803V99.2081C230.864 91.7819 224.847 85.7617 217.424 85.7617Z" fill="#E8F4FA"/>
<path d="M230.864 122.871H113.399V265.134H230.864V122.871Z" fill="#00B8F0"/>
<path d="M184.451 122.871H113.399V193.958L184.451 122.871Z" fill="#4ACFFF"/>
<path d="M193.77 265.135H184.497V302.247H193.77V265.135Z" fill="#C0DCEB"/>
<path d="M114.698 95.0398H229.52C228.318 92.2835 226.338 89.9378 223.824 88.2899C221.31 86.642 218.369 85.7634 215.364 85.7617H128.855C125.849 85.7634 122.909 86.642 120.394 88.2899C117.88 89.9378 115.9 92.2835 114.698 95.0398V95.0398Z" fill="white"/>
<path opacity="0.15" d="M323.6 316.012C323.6 311.53 295.914 308.258 261.776 308.258C227.639 308.258 199.952 311.709 199.952 316.012C199.952 320.315 227.639 323.721 261.776 323.721C295.914 323.721 323.6 320.27 323.6 316.012Z" fill="#191816"/>
<path d="M217.424 85.7617H126.839C119.416 85.7617 113.399 91.7819 113.399 99.2081V288.803C113.399 296.229 119.416 302.249 126.839 302.249H217.424C224.847 302.249 230.864 296.229 230.864 288.803V99.2081C230.864 91.7819 224.847 85.7617 217.424 85.7617Z" stroke="#191816" stroke-width="2" stroke-linejoin="round"/>
<path d="M230.864 122.871H113.399V265.134H230.864V122.871Z" stroke="#191816" stroke-width="2" stroke-linejoin="round"/>
<path d="M181.405 283.692C181.405 285.527 180.861 287.321 179.842 288.847C178.823 290.372 177.375 291.562 175.68 292.264C173.986 292.966 172.121 293.15 170.322 292.792C168.523 292.434 166.871 291.55 165.574 290.253C164.277 288.955 163.394 287.302 163.036 285.502C162.678 283.702 162.862 281.837 163.564 280.142C164.266 278.446 165.454 276.997 166.979 275.978C168.504 274.958 170.297 274.414 172.131 274.414C174.591 274.414 176.95 275.392 178.689 277.132C180.428 278.872 181.405 281.231 181.405 283.692Z" fill="white" stroke="#191816" stroke-width="2" stroke-linejoin="round"/>
<path d="M165.949 104.32H196.861" stroke="#191816" stroke-width="2" stroke-linecap="round" stroke-linejoin="round"/>
<path d="M150.493 101.223C149.882 101.223 149.284 101.404 148.776 101.744C148.268 102.084 147.871 102.567 147.637 103.132C147.403 103.697 147.342 104.319 147.461 104.919C147.581 105.519 147.875 106.07 148.307 106.502C148.74 106.935 149.291 107.229 149.89 107.349C150.49 107.468 151.111 107.407 151.676 107.173C152.241 106.939 152.724 106.542 153.064 106.034C153.403 105.525 153.585 104.927 153.585 104.315C153.585 103.495 153.259 102.708 152.679 102.128C152.099 101.548 151.313 101.223 150.493 101.223Z" fill="#191816"/>
<path d="M283.863 154.609C284.388 152.351 285.536 150.284 287.175 148.644C288.814 147.005 290.879 145.857 293.137 145.331L311.729 140.849C312.082 140.788 312.403 140.603 312.634 140.329C312.865 140.054 312.991 139.707 312.991 139.348C312.991 138.989 312.865 138.641 312.634 138.366C312.403 138.092 312.082 137.907 311.729 137.846L293.137 133.767C290.879 133.242 288.814 132.094 287.175 130.454C285.536 128.814 284.388 126.748 283.863 124.489L279.383 105.888C279.31 105.553 279.123 105.253 278.853 105.04C278.583 104.827 278.248 104.715 277.905 104.723C277.558 104.721 277.22 104.835 276.944 105.046C276.668 105.256 276.471 105.553 276.381 105.888L271.901 124.489C271.418 126.702 270.334 128.738 268.769 130.375C267.204 132.012 265.219 133.185 263.031 133.767L244.439 138.249C244.091 138.323 243.78 138.515 243.559 138.793C243.338 139.071 243.222 139.418 243.229 139.773C243.224 140.123 243.342 140.464 243.563 140.735C243.785 141.005 244.095 141.189 244.439 141.252L263.031 145.735C265.285 146.258 267.346 147.406 268.978 149.047C270.61 150.688 271.748 152.755 272.26 155.013L276.74 173.614C276.82 173.957 277.015 174.264 277.291 174.484C277.568 174.703 277.91 174.823 278.263 174.824C278.613 174.83 278.953 174.711 279.224 174.49C279.494 174.268 279.678 173.958 279.741 173.614L283.863 154.609Z" fill="#FFEC60" stroke="#191816" stroke-width="2" stroke-linecap="round" stroke-linejoin="round"/>
<path d="M351.645 209.428L366.205 204.542C366.474 204.454 366.708 204.283 366.874 204.053C367.04 203.824 367.13 203.548 367.13 203.265C367.13 202.981 367.04 202.706 366.874 202.476C366.708 202.247 366.474 202.076 366.205 201.987L354.244 197.998C353.436 197.725 352.703 197.267 352.104 196.659C351.505 196.052 351.057 195.314 350.794 194.502L346.807 182.535C346.707 182.271 346.529 182.044 346.297 181.884C346.065 181.724 345.79 181.638 345.508 181.638C345.223 181.624 344.941 181.704 344.706 181.867C344.472 182.029 344.297 182.263 344.208 182.535L340.221 194.502C339.952 195.31 339.502 196.046 338.903 196.652C338.305 197.258 337.576 197.719 336.772 197.998L324.765 201.987C324.494 202.075 324.259 202.25 324.097 202.485C323.935 202.72 323.855 203.002 323.869 203.287C323.865 203.565 323.95 203.836 324.111 204.062C324.272 204.288 324.502 204.456 324.765 204.542L336.772 208.531C337.576 208.81 338.305 209.271 338.903 209.877C339.502 210.483 339.952 211.219 340.221 212.027L344.208 223.995C344.295 224.27 344.468 224.511 344.702 224.68C344.936 224.85 345.219 224.939 345.508 224.936C345.793 224.926 346.07 224.832 346.301 224.664C346.533 224.496 346.709 224.263 346.807 223.995L351.645 209.428Z" fill="#FFEC60" stroke="#191816" stroke-width="2" stroke-linecap="round" stroke-linejoin="round"/>
<path d="M315.76 228.025H208.285C200.268 228.025 193.77 234.527 193.77 242.548V301.129C193.77 309.149 200.268 315.651 208.285 315.651H315.76C323.777 315.651 330.275 309.149 330.275 301.129V242.548C330.275 234.527 323.777 228.025 315.76 228.025Z" fill="#EBCB00"/>
<path d="M260.343 227.887H208.285C206.36 227.875 204.452 228.246 202.672 228.979C200.892 229.712 199.275 230.792 197.916 232.156C196.556 233.52 195.482 235.141 194.755 236.924C194.028 238.707 193.663 240.618 193.681 242.544V294.581L260.343 227.887Z" fill="#FFE500"/>
<path d="M211.779 295.031H237.539" stroke="#191816" stroke-width="2" stroke-linecap="round" stroke-linejoin="round"/>
<path d="M233.059 258.953H216.259C213.785 258.953 211.779 260.96 211.779 263.435V272.489C211.779 274.965 213.785 276.971 216.259 276.971H233.059C235.534 276.971 237.539 274.965 237.539 272.489V263.435C237.539 260.96 235.534 258.953 233.059 258.953Z" fill="#FFEF9E" stroke="#191816" stroke-width="2" stroke-linecap="round" stroke-linejoin="round"/>
<path d="M315.76 228.025H208.285C200.268 228.025 193.77 234.527 193.77 242.548V301.129C193.77 309.149 200.268 315.651 208.285 315.651H315.76C323.777 315.651 330.275 309.149 330.275 301.129V242.548C330.275 234.527 323.777 228.025 315.76 228.025Z" stroke="#191816" stroke-width="2" stroke-linecap="round" stroke-linejoin="round"/>
<path d="M283.908 302.741C292.444 302.741 299.364 295.818 299.364 287.278C299.364 278.738 292.444 271.814 283.908 271.814C275.372 271.814 268.452 278.738 268.452 287.278C268.452 295.818 275.372 302.741 283.908 302.741Z" fill="#FF6242"/>
<path d="M301.962 302.741C310.498 302.741 317.418 295.818 317.418 287.278C317.418 278.738 310.498 271.814 301.962 271.814C293.425 271.814 286.506 278.738 286.506 287.278C286.506 295.818 293.425 302.741 301.962 302.741Z" fill="#FFEF9E"/>
<path d="M286.506 287.279C286.501 289.734 287.084 292.154 288.207 294.338C289.329 296.521 290.958 298.404 292.957 299.829C294.937 298.39 296.549 296.503 297.661 294.322C298.772 292.141 299.351 289.727 299.351 287.279C299.351 284.83 298.772 282.417 297.661 280.235C296.549 278.054 294.937 276.167 292.957 274.729C290.966 276.161 289.343 278.045 288.222 280.227C287.1 282.409 286.512 284.825 286.506 287.279Z" fill="#FFAA54"/>
<path d="M283.908 302.741C292.444 302.741 299.364 295.818 299.364 287.278C299.364 278.738 292.444 271.814 283.908 271.814C275.372 271.814 268.452 278.738 268.452 287.278C268.452 295.818 275.372 302.741 283.908 302.741Z" stroke="#191816" stroke-width="2" stroke-miterlimit="10"/>
<path d="M301.962 302.741C310.498 302.741 317.418 295.818 317.418 287.278C317.418 278.738 310.498 271.814 301.962 271.814C293.425 271.814 286.506 278.738 286.506 287.278C286.506 295.818 293.425 302.741 301.962 302.741Z" stroke="#191816" stroke-width="2" stroke-miterlimit="10"/>
</svg>
