<svg width="474" height="267" viewBox="0 0 474 267" fill="none" xmlns="http://www.w3.org/2000/svg">
<g filter="url(#filter0_d_1971_123756)">
<rect x="30" y="26" width="414" height="207" rx="20" fill="url(#paint0_linear_1971_123756)"/>
</g>
<mask id="mask0_1971_123756" style="mask-type:alpha" maskUnits="userSpaceOnUse" x="30" y="26" width="414" height="207">
<rect x="30" y="26" width="414" height="207" rx="20" fill="url(#paint1_linear_1971_123756)"/>
</mask>
<g mask="url(#mask0_1971_123756)">
<g opacity="0.3">
<path d="M439.93 159.232L351.014 167.99C348.167 168.271 346.087 170.806 346.367 173.653L353.589 246.976C353.87 249.823 356.405 251.903 359.252 251.623L448.167 242.864C451.014 242.584 453.095 240.049 452.814 237.202L445.592 163.879C445.311 161.032 442.776 158.952 439.93 159.232Z" fill="#F0F0F0" stroke="#191816" stroke-linejoin="round"/>
<path d="M351.012 167.969L439.927 159.211C441.294 159.076 442.659 159.49 443.721 160.361C444.783 161.233 445.455 162.49 445.59 163.857L447.595 184.218L348.37 193.992L346.365 173.631C346.298 172.954 346.365 172.271 346.563 171.62C346.76 170.969 347.084 170.363 347.515 169.838C347.947 169.312 348.478 168.876 349.078 168.556C349.678 168.235 350.335 168.036 351.012 167.969V167.969Z" fill="#FF6242"/>
<path d="M439.412 159.261L351.527 167.918C350.023 168.066 348.64 168.806 347.681 169.974C346.723 171.142 346.267 172.643 346.416 174.147L347.116 181.256C346.974 179.755 347.432 178.259 348.391 177.096C349.349 175.932 350.729 175.196 352.229 175.049L440.114 166.392C441.614 166.244 443.112 166.697 444.279 167.651C445.446 168.605 446.187 169.982 446.341 171.482L445.643 164.394C445.572 163.648 445.354 162.922 445.003 162.26C444.651 161.597 444.172 161.011 443.593 160.534C443.014 160.057 442.347 159.699 441.629 159.481C440.912 159.262 440.158 159.188 439.412 159.261V159.261Z" fill="#FF866E"/>
<path d="M449.273 201.249L452.763 236.687C452.911 238.19 452.456 239.691 451.497 240.859C450.539 242.027 449.155 242.767 447.652 242.915L408.005 246.82C408.005 246.82 429.941 237.482 449.273 201.249Z" fill="#F7E5C6"/>
<path d="M408.005 246.82L420.762 245.564C428.532 240.57 437.767 233.046 450.293 211.167L449.316 201.245C429.941 237.482 408.005 246.82 408.005 246.82Z" fill="#F0D5A8"/>
<path d="M449.273 201.249L452.763 236.687C452.911 238.19 452.456 239.691 451.497 240.859C450.539 242.027 449.155 242.767 447.652 242.915L408.005 246.82C408.005 246.82 429.941 237.482 449.273 201.249Z" stroke="#191816" stroke-linejoin="round"/>
<path d="M351.012 167.969L439.927 159.211C441.294 159.076 442.659 159.49 443.721 160.361C444.783 161.233 445.455 162.49 445.59 163.857L447.595 184.218L348.37 193.992L346.365 173.631C346.298 172.954 346.365 172.271 346.563 171.62C346.76 170.969 347.084 170.363 347.515 169.838C347.947 169.312 348.478 168.876 349.078 168.556C349.678 168.235 350.335 168.036 351.012 167.969V167.969Z" stroke="#191816" stroke-linejoin="round"/>
<path d="M367.955 174.865C366.256 175.032 364.545 174.692 363.04 173.887C361.534 173.082 360.3 171.849 359.496 170.343C358.691 168.838 358.35 167.127 358.518 165.428C358.685 163.729 359.353 162.117 360.436 160.798C361.519 159.478 362.969 158.509 364.603 158.013C366.237 157.518 367.981 157.518 369.615 158.013C371.248 158.509 372.699 159.478 373.782 160.798C374.865 162.117 375.532 163.729 375.7 165.428" stroke="#191816" stroke-linecap="round" stroke-linejoin="round"/>
<path d="M397.723 171.933C396.023 172.101 394.313 171.76 392.807 170.956C391.301 170.151 390.068 168.917 389.263 167.412C388.458 165.906 388.118 164.195 388.285 162.496C388.453 160.797 389.12 159.186 390.203 157.866C391.286 156.546 392.737 155.577 394.37 155.082C396.004 154.586 397.748 154.586 399.382 155.082C401.016 155.577 402.466 156.546 403.549 157.866C404.632 159.186 405.3 160.797 405.467 162.496" stroke="#191816" stroke-linecap="round" stroke-linejoin="round"/>
<path d="M427.49 169.002C425.791 169.169 424.08 168.829 422.574 168.024C421.069 167.219 419.835 165.986 419.031 164.48C418.226 162.974 417.885 161.264 418.053 159.565C418.22 157.866 418.888 156.254 419.971 154.934C421.054 153.615 422.504 152.646 424.138 152.15C425.772 151.654 427.516 151.654 429.149 152.15C430.783 152.646 432.233 153.614 433.317 154.934C434.4 156.254 435.067 157.865 435.235 159.564" stroke="#191816" stroke-linecap="round" stroke-linejoin="round"/>
<path d="M349.766 208.164L448.991 198.39" stroke="#191816" stroke-linecap="round" stroke-linejoin="round"/>
<path d="M351.163 222.342L410.462 216.501" stroke="#191816" stroke-linecap="round" stroke-linejoin="round"/>
<path d="M352.561 236.537L411.86 230.696" stroke="#191816" stroke-linecap="round" stroke-linejoin="round"/>
<path d="M368.215 192.035L373.94 250.153" stroke="#191816" stroke-linecap="round" stroke-linejoin="round"/>
<path d="M388.06 190.08L393.785 248.197" stroke="#191816" stroke-linecap="round" stroke-linejoin="round"/>
<path d="M407.905 188.127L409.8 207.371" stroke="#191816" stroke-linecap="round" stroke-linejoin="round"/>
<path d="M427.75 186.17L429.901 208.012" stroke="#191816" stroke-linecap="round" stroke-linejoin="round"/>
<path d="M369.613 206.231L349.768 208.186L351.164 222.361L371.009 220.406L369.613 206.231Z" fill="#00DBA8" stroke="#191816" stroke-linejoin="round"/>
<path d="M392.251 232.627L372.406 234.582L373.942 250.175L393.787 248.22L392.251 232.627Z" fill="#FFE500" stroke="#191816" stroke-linejoin="round"/>
<path d="M407.905 188.125L388.06 190.08L389.456 204.255L409.301 202.3L407.905 188.125Z" fill="#00DFEB" stroke="#191816" stroke-linejoin="round"/>
<path d="M449.273 201.249C429.941 237.482 408.005 246.82 408.005 246.82C410.678 240.862 412.051 234.402 412.032 227.872C412.013 221.341 410.603 214.889 407.896 208.946C407.801 208.753 407.761 208.538 407.781 208.324C407.801 208.11 407.88 207.905 408.009 207.733C408.138 207.561 408.312 207.428 408.512 207.349C408.712 207.269 408.93 207.247 409.141 207.284C415.822 208.404 436.013 210.839 449.273 201.249Z" fill="white" stroke="#191816" stroke-linecap="round" stroke-linejoin="round"/>
<path d="M382.97 181.996L411.32 179.204" stroke="#191816" stroke-linecap="round" stroke-linejoin="round"/>
<path d="M426.912 177.668L438.252 176.551" stroke="#191816" stroke-linecap="round" stroke-linejoin="round"/>
<path d="M367.377 183.533L356.037 184.65" stroke="#191816" stroke-linecap="round" stroke-linejoin="round"/>
</g>
</g>
<defs>
<filter id="filter0_d_1971_123756" x="0" y="0" width="474" height="267" filterUnits="userSpaceOnUse" color-interpolation-filters="sRGB">
<feFlood flood-opacity="0" result="BackgroundImageFix"/>
<feColorMatrix in="SourceAlpha" type="matrix" values="0 0 0 0 0 0 0 0 0 0 0 0 0 0 0 0 0 0 127 0" result="hardAlpha"/>
<feOffset dy="4"/>
<feGaussianBlur stdDeviation="15"/>
<feComposite in2="hardAlpha" operator="out"/>
<feColorMatrix type="matrix" values="0 0 0 0 0 0 0 0 0 0 0 0 0 0 0 0 0 0 0.03 0"/>
<feBlend mode="normal" in2="BackgroundImageFix" result="effect1_dropShadow_1971_123756"/>
<feBlend mode="normal" in="SourceGraphic" in2="effect1_dropShadow_1971_123756" result="shape"/>
</filter>
<linearGradient id="paint0_linear_1971_123756" x1="237" y1="26" x2="237" y2="233" gradientUnits="userSpaceOnUse">
<stop stop-color="#FE3F4E"/>
<stop offset="1" stop-color="#FE7983"/>
</linearGradient>
<linearGradient id="paint1_linear_1971_123756" x1="237" y1="26" x2="237" y2="233" gradientUnits="userSpaceOnUse">
<stop stop-color="#81DA7B"/>
<stop offset="1" stop-color="#A7E5A3"/>
</linearGradient>
</defs>
</svg>
