<svg width="20" height="20" viewBox="0 0 20 20" fill="none" xmlns="http://www.w3.org/2000/svg">
<path d="M16.6666 6.66602H14.4443V7.77713H16.6666V8.88824H17.7777V7.77713C17.7777 7.48244 17.6606 7.19983 17.4522 6.99145C17.2439 6.78308 16.9612 6.66602 16.6666 6.66602Z" fill="#54A9FF" stroke="#54A9FF" stroke-width="0.5"/>
<path d="M16.6667 10H17.7779V13.3333H16.6667V10Z" fill="#54A9FF" stroke="#54A9FF" stroke-width="0.5"/>
<path d="M16.6668 16.6675H15.5557V17.7786H16.6668C16.9615 17.7786 17.2441 17.6616 17.4524 17.4532C17.6608 17.2448 17.7779 16.9622 17.7779 16.6675V14.4453H16.6668V16.6675Z" fill="#54A9FF" stroke="#54A9FF" stroke-width="0.5"/>
<path d="M13.3333 12.2227V3.33377C13.3333 3.03908 13.2162 2.75647 13.0078 2.54809C12.7995 2.33972 12.5169 2.22266 12.2222 2.22266H3.33328C3.03859 2.22266 2.75598 2.33972 2.5476 2.54809C2.33923 2.75647 2.22217 3.03908 2.22217 3.33377V12.2227C2.22217 12.5173 2.33923 12.8 2.5476 13.0083C2.75598 13.2167 3.03859 13.3338 3.33328 13.3338H12.2222C12.5169 13.3338 12.7995 13.2167 13.0078 13.0083C13.2162 12.8 13.3333 12.5173 13.3333 12.2227ZM3.33328 3.33377H12.2222V12.2227H3.33328V3.33377Z" fill="#54A9FF" stroke="#54A9FF" stroke-width="0.5"/>
<path d="M11.1111 16.666H14.4444V17.7771H11.1111V16.666Z" fill="#54A9FF" stroke="#54A9FF" stroke-width="0.5"/>
<path d="M7.77786 14.4453H6.66675V16.6675C6.66675 16.9622 6.78381 17.2448 6.99219 17.4532C7.20056 17.6616 7.48317 17.7786 7.77786 17.7786H10.0001V16.6675H7.77786V14.4453Z" fill="#54A9FF" stroke="#54A9FF" stroke-width="0.5"/>
</svg>
