<svg width="109" height="103" viewBox="0 0 109 103" fill="none" xmlns="http://www.w3.org/2000/svg">
<g opacity="0.3">
<path d="M94.9296 9.23202L6.01379 17.9903C3.16702 18.2707 1.08657 20.8058 1.36698 23.6526L8.5894 96.9759C8.86981 99.8226 11.4049 101.903 14.2517 101.623L103.167 92.8644C106.014 92.584 108.095 90.0489 107.814 87.2021L100.592 13.8788C100.311 11.0321 97.7763 8.95161 94.9296 9.23202Z" fill="#F0F0F0" stroke="#191816" stroke-linejoin="round"/>
<path d="M6.01159 17.9688L94.9274 9.21053C96.2944 9.07588 97.659 9.4898 98.7209 10.3612C99.7828 11.2327 100.455 12.4903 100.59 13.8573L102.595 34.2178L3.37031 43.9915L1.36478 23.6311C1.29811 22.9542 1.36541 22.2708 1.56285 21.6199C1.76029 20.969 2.084 20.3634 2.5155 19.8376C2.94699 19.3118 3.47782 18.8761 4.07769 18.5555C4.67755 18.2349 5.33469 18.0355 6.01159 17.9688Z" fill="#FF6242"/>
<path d="M94.4119 9.26131L6.52705 17.9181C5.02327 18.0662 3.63993 18.8056 2.68134 19.9737C1.72275 21.1418 1.26743 22.6428 1.41556 24.1466L2.1158 31.2555C1.97372 29.7549 2.43209 28.2591 3.39052 27.0958C4.34896 25.9324 5.72934 25.1963 7.22941 25.0485L95.1143 16.3918C96.6143 16.244 98.1118 16.6967 99.2788 17.6507C100.446 18.6047 101.187 19.9823 101.341 21.4818L100.643 14.3943C100.572 13.6476 100.354 12.9222 100.003 12.2598C99.651 11.5973 99.172 11.0108 98.5931 10.5339C98.0143 10.057 97.3469 9.69913 96.6294 9.48074C95.9119 9.26235 95.1583 9.18778 94.4119 9.26131Z" fill="#FF866E"/>
<path d="M104.273 51.2491L107.763 86.6866C107.911 88.1903 107.456 89.6914 106.497 90.8594C105.539 92.0275 104.155 92.7669 102.652 92.9151L63.0047 96.8203C63.0047 96.8203 84.9415 87.4816 104.273 51.2491Z" fill="#F7E5C6"/>
<path d="M63.0047 96.8203L75.7622 95.5637C83.5325 90.5696 92.7668 83.0459 105.293 61.1674L104.316 51.2449C84.9415 87.4816 63.0047 96.8203 63.0047 96.8203Z" fill="#F0D5A8"/>
<path d="M104.273 51.2491L107.763 86.6866C107.911 88.1903 107.456 89.6914 106.497 90.8594C105.539 92.0275 104.155 92.7669 102.652 92.9151L63.0047 96.8203C63.0047 96.8203 84.9415 87.4816 104.273 51.2491Z" stroke="#191816" stroke-linejoin="round"/>
<path d="M6.01159 17.9688L94.9274 9.21053C96.2944 9.07588 97.659 9.4898 98.7209 10.3612C99.7828 11.2327 100.455 12.4903 100.59 13.8573L102.595 34.2178L3.37031 43.9915L1.36478 23.6311C1.29811 22.9542 1.36541 22.2708 1.56285 21.6199C1.76029 20.969 2.084 20.3634 2.5155 19.8376C2.94699 19.3118 3.47782 18.8761 4.07769 18.5555C4.67755 18.2349 5.33469 18.0355 6.01159 17.9688V17.9688Z" stroke="#191816" stroke-linejoin="round"/>
<path d="M22.955 24.8649C21.2558 25.0322 19.5453 24.692 18.0395 23.8872C16.5338 23.0824 15.3005 21.8491 14.4956 20.3434C13.6908 18.8376 13.3505 17.1271 13.5178 15.4279C13.6852 13.7288 14.3526 12.1175 15.4357 10.7977C16.5188 9.47786 17.969 8.50888 19.6028 8.01325C21.2366 7.51762 22.9807 7.5176 24.6145 8.0132C26.2484 8.5088 27.6985 9.47776 28.7817 10.7975C29.8648 12.1173 30.5323 13.7287 30.6996 15.4278" stroke="#191816" stroke-linecap="round" stroke-linejoin="round"/>
<path d="M52.7225 21.9332C51.0234 22.1006 49.3128 21.7604 47.8071 20.9555C46.3013 20.1507 45.0681 18.9175 44.2632 17.4117C43.4584 15.906 43.1181 14.1954 43.2854 12.4963C43.4527 10.7972 44.1202 9.18583 45.2033 7.86603C46.2864 6.54622 47.7366 5.57724 49.3704 5.08161C51.0042 4.58598 52.7483 4.58596 54.3821 5.08156C56.016 5.57716 57.4661 6.54612 58.5493 7.8659C59.6324 9.18568 60.2999 10.797 60.4672 12.4961" stroke="#191816" stroke-linecap="round" stroke-linejoin="round"/>
<path d="M82.4899 19.0016C80.7907 19.169 79.0802 18.8287 77.5744 18.0239C76.0687 17.2191 74.8354 15.9858 74.0305 14.4801C73.2257 12.9744 72.8854 11.2638 73.0527 9.56466C73.2201 7.86553 73.8875 6.25419 74.9706 4.93439C76.0537 3.61458 77.5039 2.6456 79.1377 2.14997C80.7715 1.65434 82.5156 1.65432 84.1495 2.14992C85.7833 2.64552 87.2335 3.61448 88.3166 4.93426C89.3997 6.25404 90.0672 7.86537 90.2345 9.56449" stroke="#191816" stroke-linecap="round" stroke-linejoin="round"/>
<path d="M4.76636 58.1641L103.991 48.3903" stroke="#191816" stroke-linecap="round" stroke-linejoin="round"/>
<path d="M6.16296 72.3418L65.4616 66.5008" stroke="#191816" stroke-linecap="round" stroke-linejoin="round"/>
<path d="M7.56116 86.5371L66.8598 80.6961" stroke="#191816" stroke-linecap="round" stroke-linejoin="round"/>
<path d="M23.2152 42.0352L28.9398 100.153" stroke="#191816" stroke-linecap="round" stroke-linejoin="round"/>
<path d="M43.0599 40.0801L48.7846 98.1975" stroke="#191816" stroke-linecap="round" stroke-linejoin="round"/>
<path d="M62.9048 38.127L64.8003 57.3706" stroke="#191816" stroke-linecap="round" stroke-linejoin="round"/>
<path d="M82.75 36.1699L84.9015 58.0123" stroke="#191816" stroke-linecap="round" stroke-linejoin="round"/>
<path d="M24.6132 56.2308L4.76819 58.1855L6.16444 72.3605L26.0094 70.4058L24.6132 56.2308Z" fill="#00DBA8" stroke="#191816" stroke-linejoin="round"/>
<path d="M47.251 82.6273L27.406 84.582L28.9419 100.175L48.7869 98.2198L47.251 82.6273Z" fill="#FFE500" stroke="#191816" stroke-linejoin="round"/>
<path d="M62.9049 38.1253L43.0599 40.0801L44.4562 54.2551L64.3012 52.3003L62.9049 38.1253Z" fill="#00DFEB" stroke="#191816" stroke-linejoin="round"/>
<path d="M104.273 51.2491C84.9415 87.4816 63.0047 96.8203 63.0047 96.8203C65.6779 90.8619 67.0509 84.4022 67.032 77.8715C67.0132 71.3409 65.6031 64.8893 62.8956 58.9463C62.8006 58.7533 62.761 58.5379 62.781 58.3237C62.8009 58.1096 62.8798 57.9052 63.0087 57.7331C63.1377 57.561 63.3118 57.428 63.5117 57.3487C63.7116 57.2694 63.9295 57.247 64.1414 57.2839C70.8225 58.404 91.0131 60.8391 104.273 51.2491Z" fill="white" stroke="#191816" stroke-linecap="round" stroke-linejoin="round"/>
<path d="M37.9701 31.9961L66.32 29.2036" stroke="#191816" stroke-linecap="round" stroke-linejoin="round"/>
<path d="M81.9125 27.668L93.2525 26.551" stroke="#191816" stroke-linecap="round" stroke-linejoin="round"/>
<path d="M22.3773 33.5334L11.0374 34.6504" stroke="#191816" stroke-linecap="round" stroke-linejoin="round"/>
</g>
</svg>
