<svg width="33" height="32" viewBox="0 0 33 32" fill="none" xmlns="http://www.w3.org/2000/svg">
<g clip-path="url(#clip0_897_15785)">
<path d="M16.7748 0.112549C8.03945 0.112549 0.932617 7.21938 0.932617 15.9557C0.932617 24.6911 8.03848 31.798 16.7748 31.798C17.3151 31.798 17.7516 31.3605 17.7516 30.8222C17.7516 30.2829 17.3151 29.8454 16.7748 29.8454C9.1161 29.8454 2.88707 23.6145 2.88707 15.9567C2.88707 8.29797 9.1161 2.067 16.7748 2.067C24.4336 2.067 30.6616 8.29797 30.6616 15.9567C30.6616 19.1566 28.9584 22.3303 26.5209 23.6727C25.6353 24.1596 24.6751 24.4011 23.6508 24.4108C24.2658 24.0442 24.7983 23.5505 25.194 22.9258C25.2716 22.8084 25.3744 22.7066 25.4249 22.5776C25.743 21.8123 25.7711 20.9442 25.9632 20.1372C26.1989 19.1032 21.4451 17.0886 21.0319 18.3767C20.8826 18.8549 20.6537 20.3632 20.354 20.7609C20.0872 21.1149 19.4296 20.9481 19.0183 20.5979C17.9349 19.6745 16.7254 18.3166 15.6642 17.2448L15.6662 17.2438C15.639 17.2157 15.606 17.1837 15.5769 17.1556C15.5469 17.1265 15.5168 17.0954 15.4867 17.0663C14.414 16.0062 13.056 14.7986 12.1336 13.7122C11.7844 13.301 11.6157 12.6453 11.9707 12.3776C12.3683 12.0769 13.8776 11.8509 14.3548 11.7006C15.641 11.2883 13.6273 6.53169 12.5934 6.76932C11.7864 6.95847 10.9183 6.98756 10.153 7.30474C10.023 7.35906 9.92213 7.45993 9.80476 7.53753C7.08987 9.25919 6.73971 13.4377 9.38962 16.5503C10.3993 17.7414 11.4527 18.8937 12.5371 20.0189L12.5313 20.0227C12.5614 20.0528 12.5924 20.0809 12.6234 20.11C12.6525 20.1401 12.6807 20.1702 12.7088 20.2022L12.7146 20.1964C13.8398 21.2808 15.1734 22.8773 17.3403 24.3235C21.902 27.3701 25.4025 26.5195 27.4647 25.3885C31.0244 23.4282 32.617 19.241 32.617 15.9616C32.618 7.21938 25.5102 0.112549 16.7748 0.112549Z" fill="#BDBDBD"/>
</g>
<defs>
<clipPath id="clip0_897_15785">
<rect width="31.6854" height="31.6854" fill="white" transform="translate(0.932617 0.112549)"/>
</clipPath>
</defs>
</svg>
