<svg width="223" height="42" viewBox="0 0 223 42" fill="none" xmlns="http://www.w3.org/2000/svg">
<path d="M21.9123 0C26.3315 0.30658 30.459 1.50653 34.0133 4.18776L33.7427 4.51258C31.4293 2.63608 28.7516 1.65965 25.8938 0.943752C24.5843 0.663353 23.233 0.635907 21.9025 0.482075C17.1034 0.874599 19.1391 0.503202 15.7487 1.30107C4.80245 4.46527 -1.4857 15.8263 1.70343 26.6813C4.89489 37.5344 16.3537 43.7686 27.3023 40.6067C38.249 37.4425 44.5369 26.0794 41.3478 15.2265C40.5786 13.0551 39.7452 10.8634 38.2582 9.06434L38.5684 8.79206C40.1112 10.6812 40.988 12.8717 41.8557 15.1241C45.1282 26.257 38.6801 37.9132 27.4515 41.1558C16.2205 44.4003 4.46608 38.0073 1.19336 26.8745C-2.07918 15.7396 4.37129 4.08557 15.5999 0.840835C19.0774 0.0220244 16.9893 0.403176 21.9123 0Z" fill="white"/>
<path d="M21.8895 1.31348C26.0247 1.602 29.9498 2.8034 33.2766 5.31328C32.9265 6.016 33.1459 5.6632 33.0123 6.47786C32.9065 8.2036 34.2307 9.68613 35.9712 9.79103C36.9038 9.7542 36.456 9.96237 37.4893 9.60289C38.9384 11.3765 39.7684 13.3754 40.5833 15.4902C41.5454 18.768 41.6126 22.0925 40.9196 25.2066C39.4138 32.0078 34.3029 37.8031 27.0806 39.8908C25.4726 40.3558 23.8497 40.61 22.2444 40.6685C13.3673 40.9931 5.0662 35.344 2.46677 26.5019C-0.600473 16.0693 5.44627 5.14248 15.9725 2.10141C19.2324 1.33423 17.2749 1.69119 21.8897 1.31365L21.8895 1.31348ZM28.0299 22.3726L21.2341 25.4091L14.4584 22.5067L14.4449 26.9061C15.9233 31.0572 26.3869 31.2743 28.1608 26.9108L28.0299 22.3726ZM20.3553 16.445L20.1551 16.4806L11.9984 19.9087L11.9758 22.0703L11.6485 22.33V29.2132L11.8834 29.2163L11.8922 23.0572L12.0594 23.0529L12.0502 29.2187L12.2755 29.2215L12.2488 24.2186L12.416 24.2164L12.4404 29.2239L12.6209 29.2262L12.5942 24.2186L12.7612 24.2164L12.7856 29.2286L12.9869 29.2311L12.9373 22.3097L12.7137 22.0503L12.7341 20.2177C15.2778 19.2152 18.0404 18.1411 20.5862 17.1385C20.7937 17.0117 20.8881 16.7241 20.6568 16.5456C20.5729 16.4809 20.4559 16.4786 20.3553 16.445ZM35.923 18.0214L35.6383 18.0873C31.0475 20.0902 26.4546 22.0929 21.8638 24.0956L21.277 24.3507L21.1934 24.3172L13.3639 21.0188C13.0952 20.9092 12.8244 21.2761 13.1608 21.4954L20.8098 24.7357L21.2362 24.9012L21.7125 24.7357L35.8661 18.5013C36.2189 18.2875 36.2086 18.2879 35.923 18.0214ZM21.5049 11.5866L7.02828 17.8613L11.4453 19.7656L19.7669 16.1919C20.7722 15.724 21.6358 16.5239 21.3429 17.1194C21.2783 17.251 21.1626 17.3505 21.0264 17.405C18.325 18.4874 15.9113 19.401 13.2014 20.4885L21.3039 23.8538L35.7015 17.5368L21.5049 11.5866ZM7.0532 18.3984C6.79158 18.3112 6.58827 18.658 6.82082 18.8146C8.30136 19.4613 9.84293 20.1909 11.346 20.7703C11.6802 20.8734 11.8314 20.4751 11.5808 20.3094C10.0731 19.6717 8.56317 19.0361 7.0532 18.3984Z" fill="white"/>
<path d="M36.4636 3.02307C38.4769 3.14404 40.0093 4.86039 39.8874 6.85642C39.7655 8.85244 38.0345 10.3718 36.0212 10.251C34.008 10.1302 32.4732 8.41387 32.5974 6.41785C32.7192 4.42164 34.4504 2.90011 36.4636 3.02307ZM36.3888 3.50641C34.6443 3.40133 33.1457 4.71703 33.0395 6.44692C32.9336 8.17663 34.2606 9.6624 36.0053 9.76766C37.75 9.87275 39.2486 8.55706 39.3546 6.82717C39.4607 5.09746 38.1313 3.61168 36.3888 3.50641Z" fill="white"/>
<path d="M61.7955 23.9245C61.7955 23.1577 61.5248 22.569 60.9835 22.1585C60.4422 21.7481 59.4678 21.3151 58.0604 20.8595C56.653 20.4039 55.5389 19.955 54.7179 19.5129C52.4805 18.304 51.3618 16.6756 51.3618 14.6277C51.3618 13.5632 51.6618 12.6136 52.2617 11.7791C52.8616 10.9446 53.7232 10.2928 54.8465 9.82373C55.9697 9.35465 57.2304 9.12012 58.6287 9.12012C60.0362 9.12012 61.2903 9.37493 62.3909 9.88457C63.4916 10.3943 64.3464 11.1138 64.9553 12.0431C65.5643 12.9723 65.8688 14.0278 65.8688 15.2096H61.809C61.809 14.3075 61.5248 13.606 60.9564 13.1053C60.388 12.6047 59.5896 12.3544 58.5612 12.3544C57.5688 12.3544 56.7974 12.5641 56.2471 12.9836C55.6967 13.4031 55.4216 13.9556 55.4216 14.6412C55.4216 15.2818 55.7441 15.8186 56.3891 16.2516C57.0342 16.6847 57.9837 17.0907 59.2377 17.4696C61.5473 18.1642 63.2298 19.0258 64.2855 20.0542C65.341 21.0827 65.8688 22.3638 65.8688 23.8974C65.8688 25.6026 65.2237 26.9401 63.9336 27.9099C62.6435 28.8797 60.9068 29.3646 58.7235 29.3646C57.2078 29.3646 55.8275 29.0872 54.5825 28.5324C53.3376 27.9775 52.388 27.2174 51.7339 26.2522C51.0798 25.2869 50.7528 24.1682 50.7528 22.8961H54.8261C54.8261 25.0703 56.1252 26.1574 58.7235 26.1574C59.6889 26.1574 60.4422 25.9612 60.9835 25.5688C61.5248 25.1763 61.7955 24.6282 61.7955 23.9245Z" fill="white"/>
<path d="M84.0823 22.5307C83.929 24.6508 83.1463 26.3199 81.7344 27.5377C80.3225 28.7556 78.4617 29.3646 76.1522 29.3646C73.6261 29.3646 71.6391 28.5143 70.191 26.8137C68.7431 25.1132 68.0192 22.7788 68.0192 19.8106V18.6064C68.0192 16.7118 68.3529 15.0427 69.0205 13.5993C69.6882 12.1558 70.6423 11.0484 71.8827 10.2771C73.1232 9.50577 74.5644 9.12012 76.2064 9.12012C78.4798 9.12012 80.3112 9.72906 81.7006 10.9469C83.0899 12.1648 83.8928 13.8744 84.1094 16.0757H80.0496C79.9503 14.8037 79.5962 13.8812 78.9873 13.3084C78.3783 12.7354 77.4514 12.449 76.2064 12.449C74.8531 12.449 73.8403 12.9339 73.1682 13.9039C72.4962 14.8737 72.1511 16.378 72.1331 18.4169V19.9054C72.1331 22.0345 72.4556 23.5907 73.1007 24.5742C73.7457 25.5574 74.7629 26.0491 76.1522 26.0491C77.4062 26.0491 78.3422 25.7627 78.9602 25.1898C79.5782 24.617 79.9323 23.7306 80.0226 22.5307H84.0823Z" fill="white"/>
<path d="M102.784 29.0939H98.7247V20.6496H90.8082V29.0939H86.7484V9.39062H90.8082V17.3747H98.7247V9.39062H102.784V29.0939Z" fill="white"/>
<path d="M122.515 19.6889C122.515 21.6286 122.173 23.3291 121.487 24.7906C120.801 26.2522 119.82 27.3799 118.544 28.1738C117.267 28.9677 115.803 29.3646 114.152 29.3646C112.519 29.3646 111.062 28.9722 109.781 28.1874C108.5 27.4025 107.508 26.2815 106.804 24.8244C106.1 23.3675 105.744 21.6917 105.735 19.7971V18.8228C105.735 16.8832 106.085 15.1759 106.784 13.7007C107.483 12.2257 108.471 11.0936 109.747 10.3042C111.024 9.5148 112.483 9.12012 114.125 9.12012C115.767 9.12012 117.226 9.5148 118.503 10.3042C119.78 11.0936 120.767 12.2257 121.467 13.7007C122.166 15.1759 122.515 16.8787 122.515 18.8093V19.6889ZM118.401 18.7958C118.401 16.7299 118.032 15.1601 117.292 14.0864C116.552 13.0128 115.497 12.476 114.125 12.476C112.763 12.476 111.712 13.0061 110.972 14.0662C110.232 15.1263 109.858 16.6802 109.849 18.728V19.6889C109.849 21.7008 110.219 23.2615 110.959 24.3712C111.698 25.4809 112.763 26.0357 114.152 26.0357C115.515 26.0357 116.561 25.5012 117.292 24.4321C118.023 23.363 118.392 21.8045 118.401 19.7566V18.7958Z" fill="white"/>
<path d="M141.65 19.6889C141.65 21.6286 141.307 23.3291 140.622 24.7906C139.936 26.2522 138.955 27.3799 137.678 28.1738C136.402 28.9677 134.938 29.3646 133.287 29.3646C131.654 29.3646 130.197 28.9722 128.916 28.1874C127.635 27.4025 126.642 26.2815 125.939 24.8244C125.235 23.3675 124.879 21.6917 124.87 19.7971V18.8228C124.87 16.8832 125.219 15.1759 125.918 13.7007C126.618 12.2257 127.606 11.0936 128.882 10.3042C130.159 9.5148 131.618 9.12012 133.26 9.12012C134.902 9.12012 136.361 9.5148 137.638 10.3042C138.914 11.0936 139.902 12.2257 140.601 13.7007C141.3 15.1759 141.65 16.8787 141.65 18.8093V19.6889ZM137.536 18.7958C137.536 16.7299 137.166 15.1601 136.427 14.0864C135.687 13.0128 134.631 12.476 133.26 12.476C131.898 12.476 130.847 13.0061 130.107 14.0662C129.367 15.1263 128.993 16.6802 128.984 18.728V19.6889C128.984 21.7008 129.353 23.2615 130.093 24.3712C130.833 25.4809 131.898 26.0357 133.287 26.0357C134.649 26.0357 135.696 25.5012 136.427 24.4321C137.157 23.363 137.527 21.8045 137.536 19.7566V18.7958Z" fill="white"/>
<path d="M148.661 25.8326H157.281V29.0939H144.601V9.39062H148.661V25.8326Z" fill="white"/>
<path d="M171.666 12.6791H165.631V29.0939H161.571V12.6791H155.617V9.39062H171.666V12.6791Z" fill="white"/>
<path d="M183.479 25.0342H176.361L175.008 29.0939H170.691L178.025 9.39062H181.787L189.163 29.0939H184.846L183.479 25.0342ZM177.457 21.7457H182.383L179.906 14.3705L177.457 21.7457Z" fill="white"/>
<path d="M195.064 25.8326H203.684V29.0939H191.004V9.39062H195.064V25.8326Z" fill="white"/>
<path d="M212.182 21.1909L210.071 23.4644V29.0939H206.011V9.39062H210.071V18.3221L211.857 15.8727L216.878 9.39062H221.871L214.875 18.146L222.074 29.0939H217.243L212.182 21.1909Z" fill="white"/>
</svg>
