<svg width="30" height="30" viewBox="0 0 30 30" fill="none" xmlns="http://www.w3.org/2000/svg">
<g clip-path="url(#clip0_899_16429)">
<path d="M25.1498 4.78504C22.3554 2.08376 18.6785 0.557861 14.7626 0.557861C3.52367 0.557861 -3.53347 12.7344 2.07866 22.4205L0 29.9728L7.76433 27.9481C11.147 29.7755 13.9182 29.6137 14.77 29.7216C27.802 29.7216 34.2893 13.9552 25.1314 4.83284L25.1498 4.78504Z" fill="#ECEFF1"/>
<path d="M14.7894 27.2165L14.782 27.2153H14.7624C10.8625 27.2153 8.37078 25.3682 8.12566 25.2616L3.52957 26.4566L4.76132 21.9892L4.4684 21.5296C3.25503 19.598 2.61035 17.3735 2.61035 15.0828C2.61035 4.3059 15.7797 -1.08316 23.4006 6.53408C31.0031 14.0717 25.6656 27.2165 14.7894 27.2165Z" fill="#4CAF50"/>
<path d="M21.4569 18.0929L21.4458 18.1848C21.0769 18.001 19.2801 17.1222 18.9456 17.0009C18.1942 16.7226 18.4063 16.9567 16.9637 18.6089C16.7492 18.8479 16.536 18.8663 16.172 18.7008C15.8043 18.517 14.624 18.1309 13.2268 16.8807C12.1384 15.9064 11.408 14.7114 11.1923 14.3437C10.8331 13.7235 11.5845 13.6353 12.2684 12.341C12.3909 12.0837 12.3284 11.8814 12.2377 11.6988C12.1458 11.515 11.4141 9.7133 11.1077 8.99508C10.8135 8.27932 10.5108 8.37002 10.2841 8.37002C9.57811 8.30874 9.06212 8.31854 8.60741 8.79163C6.62926 10.9659 7.12809 13.2088 8.82067 15.5938C12.147 19.9473 13.9193 20.7488 17.1598 21.8617C18.0349 22.1399 18.8328 22.1007 19.464 22.01C20.1675 21.8985 21.6297 21.1263 21.9348 20.2622C22.2474 19.3982 22.2474 18.6812 22.1555 18.5157C22.0648 18.3503 21.8245 18.2583 21.4569 18.0929Z" fill="#FAFAFA"/>
</g>
<defs>
<clipPath id="clip0_899_16429">
<rect width="29.415" height="29.415" fill="white" transform="translate(0 0.557861)"/>
</clipPath>
</defs>
</svg>
