<svg width="106" height="106" viewBox="0 0 106 106" fill="none" xmlns="http://www.w3.org/2000/svg">
<circle cx="53" cy="53" r="53" fill="#81DA7B"/>
<mask id="mask0_755_12483" style="mask-type:alpha" maskUnits="userSpaceOnUse" x="2" y="5" width="101" height="102">
<circle cx="52.4855" cy="55.7415" r="50.2586" fill="#C4C4C4"/>
</mask>
<g mask="url(#mask0_755_12483)">
<path d="M73.2024 53.3564C73.1969 52.4886 72.891 51.6495 72.3367 50.9818C71.7824 50.3141 71.0139 49.859 70.1619 49.694V47.2524C69.9938 42.5172 67.9945 38.0321 64.5852 34.7417C61.1759 31.4513 56.6226 29.6124 51.8845 29.6124C47.1463 29.6124 42.593 31.4513 39.1837 34.7417C35.7744 38.0321 33.7752 42.5172 33.607 47.2524V49.694C32.7551 49.859 31.9866 50.3141 31.4322 50.9818C30.8779 51.6495 30.572 52.4886 30.5666 53.3564C30.5792 54.2917 30.9363 55.1896 31.5695 55.878C32.2027 56.5665 33.0676 56.9973 33.9986 57.0879C34.8624 61.1949 37.1125 64.8799 40.3712 67.5245C43.6299 70.1692 47.6991 71.6126 51.896 71.6126C56.0928 71.6126 60.162 70.1692 63.4208 67.5245C66.6795 64.8799 68.9295 61.1949 69.7934 57.0879C70.7221 56.9969 71.5844 56.5653 72.2138 55.8763C72.8433 55.1873 73.1954 54.2896 73.2024 53.3564Z" fill="#FFDA8F" stroke="#191816" stroke-linecap="round" stroke-linejoin="round"/>
<path d="M41.9913 57.9168C43.2507 57.9168 44.2716 56.8958 44.2716 55.6364C44.2716 54.377 43.2507 53.3561 41.9913 53.3561C40.7318 53.3561 39.7109 54.377 39.7109 55.6364C39.7109 56.8958 40.7318 57.9168 41.9913 57.9168Z" fill="#FFBE3D"/>
<path d="M61.7774 57.9168C63.0368 57.9168 64.0578 56.8958 64.0578 55.6364C64.0578 54.377 63.0368 53.3561 61.7774 53.3561C60.518 53.3561 59.4971 54.377 59.4971 55.6364C59.4971 56.8958 60.518 57.9168 61.7774 57.9168Z" fill="#FFBE3D"/>
<path d="M60.119 50.2935C59.8792 50.0519 59.5939 49.8601 59.2797 49.7292C58.9654 49.5983 58.6283 49.5309 58.2878 49.5309C57.9474 49.5309 57.6103 49.5983 57.296 49.7292C56.9817 49.8601 56.6964 50.0519 56.4566 50.2935" stroke="#191816" stroke-linecap="round" stroke-linejoin="round"/>
<path d="M43.6499 50.2935C43.8897 50.0519 44.175 49.8601 44.4893 49.7292C44.8036 49.5983 45.1407 49.5309 45.4811 49.5309C45.8216 49.5309 46.1586 49.5983 46.4729 49.7292C46.7872 49.8601 47.0725 50.0519 47.3123 50.2935" stroke="#191816" stroke-linecap="round" stroke-linejoin="round"/>
<path d="M56.5026 61.0729C55.1756 62.0744 53.5583 62.6162 51.8958 62.6162C50.2333 62.6162 48.616 62.0744 47.289 61.0729" stroke="#191816" stroke-linecap="round" stroke-linejoin="round"/>
<path d="M42.6826 19.8425C30.4976 24.4493 30.4055 34.8607 30.4055 44.2124C30.4055 54.6468 31.7645 48.5658 36.0719 50.708C36.2718 50.808 36.4914 50.8626 36.7149 50.868C36.9384 50.8734 37.1603 50.8294 37.3649 50.7393C37.5695 50.6491 37.7516 50.5149 37.8984 50.3462C38.0452 50.1776 38.1529 49.9787 38.214 49.7636L40.3792 42.2315C40.6235 41.3373 41.2018 40.571 41.9948 40.0909C42.7878 39.6108 43.7349 39.4536 44.6405 39.6517C49.3503 40.8383 54.2808 40.8383 58.9906 39.6517C59.4504 39.5302 59.9297 39.5005 60.4009 39.5644C60.8722 39.6284 61.3262 39.7846 61.737 40.0242C62.1478 40.2639 62.5073 40.5822 62.7949 40.9609C63.0825 41.3397 63.2926 41.7715 63.4131 42.2315L65.5783 49.7636C65.6429 49.9763 65.7526 50.1726 65.9001 50.339C66.0475 50.5054 66.2291 50.638 66.4326 50.7277C66.636 50.8173 66.8564 50.862 67.0787 50.8586C67.301 50.8552 67.5199 50.8038 67.7205 50.708C72.0278 48.5658 73.3868 54.6468 73.3868 44.2124C73.2947 18.2532 48.9478 29.655 42.6826 19.8425Z" fill="#614B44"/>
<path d="M40.5173 27.8583C41.0755 27.5776 41.7067 27.4756 42.3249 27.5662C42.9431 27.6569 43.5184 27.9358 43.9724 28.3651C51.2742 35.2753 71.4058 27.5128 73.1795 48.1973C73.1795 47.2759 73.1795 45.8939 73.1795 44.2124C73.1795 18.2532 48.8326 29.632 42.6365 19.8425C30.4515 24.4493 30.3594 34.8607 30.3594 44.2124C30.3594 45.3181 30.3594 46.2164 30.3594 46.9995C30.751 39.5135 32.156 32.0044 40.5173 27.8583Z" fill="#947063"/>
<path d="M42.6826 19.8425C30.4976 24.4493 30.4055 34.8607 30.4055 44.2124C30.4055 54.6468 31.7645 48.5658 36.0719 50.708C36.2718 50.808 36.4914 50.8626 36.7149 50.868C36.9384 50.8734 37.1603 50.8294 37.3649 50.7393C37.5695 50.6491 37.7516 50.5149 37.8984 50.3462C38.0452 50.1776 38.1529 49.9787 38.214 49.7636L40.3792 42.2315C40.6235 41.3373 41.2018 40.571 41.9948 40.0909C42.7878 39.6108 43.7349 39.4536 44.6405 39.6517C49.3503 40.8383 54.2808 40.8383 58.9906 39.6517C59.4504 39.5302 59.9297 39.5005 60.4009 39.5644C60.8722 39.6284 61.3262 39.7846 61.737 40.0242C62.1478 40.2639 62.5073 40.5822 62.7949 40.9609C63.0825 41.3397 63.2926 41.7715 63.4131 42.2315L65.5783 49.7636C65.6429 49.9763 65.7526 50.1726 65.9001 50.339C66.0475 50.5054 66.2291 50.638 66.4326 50.7277C66.636 50.8173 66.8564 50.862 67.0787 50.8586C67.301 50.8552 67.5199 50.8038 67.7205 50.708C72.0278 48.5658 73.3868 54.6468 73.3868 44.2124C73.2947 18.2532 48.9478 29.655 42.6826 19.8425Z" stroke="#191816" stroke-linecap="round" stroke-linejoin="round"/>
<path d="M51.8961 77.7263C36.164 78.0258 21.4222 89.5658 21.4222 109.697H32.087V132.478H71.6823V109.697H82.347C82.347 89.5658 67.6053 78.0258 51.8961 77.7263Z" fill="#F0F0F0"/>
<path d="M51.8961 77.7263C36.164 78.0258 21.4222 89.5658 21.4222 109.697H32.087V132.478H71.6823V109.697H82.347C82.347 89.5658 67.6053 78.0258 51.8961 77.7263Z" fill="#54A9FF" stroke="#0688F2" stroke-linecap="round" stroke-linejoin="round"/>
<path d="M51.8961 86.8478C58.6308 86.8554 65.1711 89.1056 70.4849 93.2431C75.7987 97.3807 79.5833 103.17 81.2414 109.697H82.347C82.347 89.5658 67.6053 78.0258 51.8961 77.7263C36.164 78.0258 21.4222 89.5658 21.4222 109.697H22.5509C24.2054 103.168 27.989 97.3765 33.3036 93.2383C38.6181 89.1001 45.1604 86.8514 51.8961 86.8478Z" fill="#A9D4FB"/>
<path d="M51.8961 77.7263C36.164 78.0258 21.4222 89.5658 21.4222 109.697H32.087V132.478H71.6823V109.697H82.347C82.347 89.5658 67.6053 78.0258 51.8961 77.7263Z" stroke="#191816" stroke-linecap="round" stroke-linejoin="round"/>
<path d="M71.682 110.619V99.6316" stroke="#191816" stroke-linecap="round" stroke-linejoin="round"/>
<path d="M32.0869 110.619V99.6316" stroke="#191816" stroke-linecap="round" stroke-linejoin="round"/>
<path d="M42.6823 79.2005C43.012 81.3805 44.1126 83.3699 45.7842 84.8076C47.4557 86.2453 49.5874 87.036 51.7922 87.036C53.997 87.036 56.1286 86.2453 57.8002 84.8076C59.4717 83.3699 60.5723 81.3805 60.9021 79.2005C54.9879 77.2349 48.5965 77.2349 42.6823 79.2005Z" fill="#FFDA8F" stroke="#191816" stroke-linecap="round" stroke-linejoin="round"/>
</g>
</svg>
