<svg width="446" height="494" viewBox="0 0 446 494" fill="none" xmlns="http://www.w3.org/2000/svg">
<g opacity="0.3">
<path d="M111.5 200.864H95.9791V156.757C95.9791 142.099 101.867 128.042 112.347 117.678C122.827 107.313 137.042 101.49 151.863 101.49C166.684 101.49 180.899 107.313 191.379 117.678C201.859 128.042 207.747 142.099 207.747 156.757V164.475H192.36V156.624C192.36 146.003 188.093 135.816 180.499 128.305C172.904 120.795 162.603 116.575 151.863 116.575C141.123 116.575 130.822 120.795 123.227 128.305C115.633 135.816 111.366 146.003 111.366 156.624L111.5 200.864Z" fill="#FF6242"/>
<path d="M192.36 156.624V164.343H207.747V156.624C207.747 155.037 207.747 153.449 207.479 151.861H192.048C192.24 153.442 192.345 155.032 192.36 156.624V156.624Z" fill="#E04122"/>
<path d="M111.366 187.279H95.9791V200.864H111.366V187.279Z" fill="#E04122"/>
<path d="M111.5 200.864H95.9791V156.757C95.9791 142.099 101.867 128.042 112.347 117.678C122.827 107.313 137.042 101.49 151.863 101.49C166.684 101.49 180.899 107.313 191.379 117.678C201.859 128.042 207.747 142.099 207.747 156.757V164.475H192.36V156.624C192.36 146.003 188.093 135.816 180.499 128.305C172.904 120.795 162.603 116.575 151.863 116.575C141.123 116.575 130.822 120.795 123.227 128.305C115.633 135.816 111.366 146.003 111.366 156.624L111.5 200.864Z" stroke="#191816" stroke-miterlimit="10"/>
<path d="M315.456 270.641H267.6C260.652 270.843 253.733 269.663 247.254 267.173C240.774 264.682 234.866 260.931 229.879 256.142C224.893 251.352 220.928 245.622 218.221 239.29C215.514 232.958 214.119 226.153 214.119 219.279C214.119 212.404 215.514 205.599 218.221 199.267C220.928 192.935 224.893 187.205 229.879 182.416C234.866 177.626 240.774 173.875 247.254 171.385C253.733 168.894 260.652 167.714 267.6 167.916H315.456C328.967 168.307 341.792 173.891 351.209 183.48C360.625 193.07 365.893 205.911 365.893 219.279C365.893 232.646 360.625 245.487 351.209 255.077C341.792 264.667 328.967 270.25 315.456 270.641V270.641ZM267.6 183.133C262.693 182.963 257.801 183.773 253.217 185.513C248.633 187.253 244.45 189.888 240.918 193.261C237.386 196.635 234.577 200.677 232.658 205.147C230.74 209.616 229.751 214.423 229.751 219.279C229.751 224.135 230.74 228.941 232.658 233.411C234.577 237.881 237.386 241.923 240.918 245.296C244.45 248.669 248.633 251.304 253.217 253.044C257.801 254.785 262.693 255.594 267.6 255.424H315.456C324.929 255.097 333.903 251.146 340.487 244.403C347.071 237.66 350.751 228.652 350.751 219.279C350.751 209.905 347.071 200.897 340.487 194.155C333.903 187.412 324.929 183.46 315.456 183.133H267.6Z" fill="#FF6242" stroke="#191816" stroke-miterlimit="10"/>
<path opacity="0.15" d="M187.855 378.66C239.705 378.66 281.738 375.243 281.738 371.029C281.738 366.815 239.705 363.399 187.855 363.399C136.005 363.399 93.972 366.815 93.972 371.029C93.972 375.243 136.005 378.66 187.855 378.66Z" fill="#231F20"/>
<path d="M89.3337 328.642H283.344C289.255 328.642 294.048 323.903 294.048 318.057V211.406C294.048 205.559 289.255 200.82 283.344 200.82L89.3337 200.82C83.422 200.82 78.6297 205.559 78.6297 211.406L78.6297 318.057C78.6297 323.903 83.422 328.642 89.3337 328.642Z" fill="white"/>
<path d="M90.9394 328.686H281.738C284.999 328.675 288.123 327.388 290.429 325.108C292.735 322.828 294.036 319.738 294.048 316.513V298.252C294.036 301.478 292.735 304.567 290.429 306.848C288.123 309.128 284.999 310.414 281.738 310.426H90.9394C87.6747 310.426 84.5437 309.143 82.2352 306.86C79.9267 304.577 78.6298 301.481 78.6298 298.252V316.513C78.6298 319.741 79.9267 322.838 82.2352 325.121C84.5437 327.404 87.6747 328.686 90.9394 328.686V328.686Z" fill="#E8F4FA"/>
<path d="M283.344 200.864H89.3338C83.4221 200.864 78.6298 205.603 78.6298 211.45V318.101C78.6298 323.947 83.4221 328.686 89.3338 328.686H283.344C289.255 328.686 294.048 323.947 294.048 318.101V211.45C294.048 205.603 289.255 200.864 283.344 200.864Z" stroke="#191816" stroke-linejoin="round"/>
<path d="M160.337 219.124H101.554C99.091 219.124 97.0942 221.099 97.0942 223.535V306.015C97.0942 308.451 99.091 310.426 101.554 310.426H160.337C162.8 310.426 164.797 308.451 164.797 306.015V223.535C164.797 221.099 162.8 219.124 160.337 219.124Z" fill="#4ACFFF" stroke="#191816" stroke-linecap="round" stroke-linejoin="round"/>
<path d="M276.386 231.298H237.852C234.896 231.298 232.5 233.668 232.5 236.591V262.526C232.5 265.449 234.896 267.818 237.852 267.818H276.386C279.342 267.818 281.738 265.449 281.738 262.526V236.591C281.738 233.668 279.342 231.298 276.386 231.298Z" fill="#FFE500" stroke="#191816" stroke-linejoin="round"/>
<path d="M266.351 231.298H247.887V267.818H266.351V231.298Z" fill="#FFE500" stroke="#191816" stroke-linejoin="round"/>
<path d="M266.351 246.515H281.738" stroke="#191816" stroke-linejoin="round"/>
<path d="M232.5 252.602H247.887" stroke="#191816" stroke-linejoin="round"/>
<path d="M220.859 188.911L219.075 174.135C218.518 171.372 217.008 168.885 214.804 167.1C212.6 165.314 209.838 164.34 206.988 164.343H165.644C162.795 164.34 160.033 165.314 157.829 167.1C155.625 168.885 154.115 171.372 153.558 174.135L151.818 182.956C150.391 189.881 144.236 200.996 137.1 200.996H235.577C232.084 200.994 228.702 199.785 226.014 197.578C223.327 195.372 221.504 192.306 220.859 188.911V188.911ZM195.571 188.911H177.106C175.474 188.911 173.909 188.27 172.754 187.128C171.6 185.987 170.952 184.438 170.952 182.824C170.952 181.21 171.6 179.662 172.754 178.52C173.909 177.379 175.474 176.737 177.106 176.737H195.571C197.203 176.737 198.769 177.379 199.923 178.52C201.077 179.662 201.726 181.21 201.726 182.824C201.726 184.438 201.077 185.987 199.923 187.128C198.769 188.27 197.203 188.911 195.571 188.911V188.911Z" fill="#DAEDF7" stroke="#191816" stroke-linejoin="round"/>
<path d="M177.107 225.211H206.944" stroke="#191816" stroke-linecap="round" stroke-linejoin="round"/>
<path d="M177.107 237.385H206.944" stroke="#191816" stroke-linecap="round" stroke-linejoin="round"/>
<path d="M177.107 298.252H206.944" stroke="#191816" stroke-linecap="round" stroke-linejoin="round"/>
<path d="M177.107 310.426H206.944" stroke="#191816" stroke-linecap="round" stroke-linejoin="round"/>
<path d="M238.655 298.252H272.506" stroke="#191816" stroke-linecap="round" stroke-linejoin="round"/>
<path d="M238.655 310.426H272.506" stroke="#191816" stroke-linecap="round" stroke-linejoin="round"/>
<path d="M177.107 255.645H217.113" stroke="#191816" stroke-linecap="round" stroke-linejoin="round"/>
<path d="M177.107 267.819H217.113" stroke="#191816" stroke-linecap="round" stroke-linejoin="round"/>
<path d="M130.945 273.905C141.143 273.905 149.41 265.73 149.41 255.645C149.41 245.56 141.143 237.385 130.945 237.385C120.748 237.385 112.481 245.56 112.481 255.645C112.481 265.73 120.748 273.905 130.945 273.905Z" fill="#B8ECFF" stroke="#191816" stroke-linejoin="round"/>
<path d="M164.708 305.751C164.263 297.192 160.512 289.129 154.229 283.227C147.946 277.325 139.611 274.034 130.946 274.034C122.28 274.034 113.945 277.325 107.662 283.227C101.38 289.129 97.6283 297.192 97.1833 305.751C97.2732 307.015 97.8423 308.198 98.7767 309.065C99.7111 309.932 100.942 310.418 102.223 310.426H159.668C160.949 310.418 162.18 309.932 163.114 309.065C164.049 308.198 164.618 307.015 164.708 305.751Z" fill="#B8ECFF" stroke="#191816" stroke-linejoin="round"/>
<path d="M139.999 200.864H124.612V173.826C124.612 164.69 128.282 155.928 134.815 149.468C141.347 143.008 150.207 139.379 159.445 139.379C168.683 139.379 177.543 143.008 184.075 149.468C190.608 155.928 194.278 164.69 194.278 173.826C194.278 175.792 193.488 177.676 192.083 179.066C190.678 180.456 188.772 181.236 186.785 181.236H186.383C184.396 181.236 182.49 180.456 181.085 179.066C179.68 177.676 178.891 175.792 178.891 173.826C178.891 168.726 176.842 163.835 173.195 160.228C169.548 156.622 164.602 154.596 159.445 154.596C154.288 154.596 149.342 156.622 145.695 160.228C142.048 163.835 139.999 168.726 139.999 173.826V200.864Z" fill="#FF6242" stroke="#191816" stroke-miterlimit="10"/>
</g>
</svg>
