<svg width="20" height="20" viewBox="0 0 20 20" fill="none" xmlns="http://www.w3.org/2000/svg">
<g clip-path="url(#clip0_1615_120782)">
<circle cx="10.5" cy="10.5" r="9.5" fill="#FAFAFA"/>
<path d="M10 18.75C7.67936 18.75 5.45376 17.8281 3.81282 16.1872C2.17187 14.5462 1.25 12.3206 1.25 10C1.25 7.67936 2.17187 5.45376 3.81282 3.81282C5.45376 2.17187 7.67936 1.25 10 1.25C12.3206 1.25 14.5462 2.17187 16.1872 3.81282C17.8281 5.45376 18.75 7.67936 18.75 10C18.75 12.3206 17.8281 14.5462 16.1872 16.1872C14.5462 17.8281 12.3206 18.75 10 18.75ZM10 20C12.6522 20 15.1957 18.9464 17.0711 17.0711C18.9464 15.1957 20 12.6522 20 10C20 7.34784 18.9464 4.8043 17.0711 2.92893C15.1957 1.05357 12.6522 0 10 0C7.34784 0 4.8043 1.05357 2.92893 2.92893C1.05357 4.8043 0 7.34784 0 10C0 12.6522 1.05357 15.1957 2.92893 17.0711C4.8043 18.9464 7.34784 20 10 20Z" fill="#FAFAFA"/>
<path d="M13.7124 6.21261C13.7035 6.22124 13.6952 6.23042 13.6874 6.24011L9.34619 11.7714L6.72993 9.15386C6.55222 8.98826 6.31716 8.8981 6.07428 8.90239C5.83141 8.90667 5.59967 9.00506 5.42791 9.17683C5.25614 9.3486 5.15775 9.58033 5.15347 9.8232C5.14918 10.0661 5.23933 10.3011 5.40493 10.4789L8.71243 13.7876C8.80154 13.8765 8.90764 13.9466 9.02442 13.9937C9.14119 14.0407 9.26624 14.0638 9.39212 14.0614C9.51799 14.0591 9.6421 14.0314 9.75706 13.9801C9.87201 13.9288 9.97544 13.8548 10.0612 13.7626L15.0512 7.52511C15.2211 7.34677 15.314 7.10873 15.3098 6.86244C15.3056 6.61616 15.2046 6.38142 15.0288 6.20897C14.8529 6.03653 14.6162 5.94024 14.3698 5.94092C14.1235 5.9416 13.8874 6.0392 13.7124 6.21261Z" fill="#6CB4FE"/>
</g>
<defs>
<clipPath id="clip0_1615_120782">
<rect width="20" height="20" fill="white"/>
</clipPath>
</defs>
</svg>
