<svg width="26" height="26" viewBox="0 0 26 26" fill="none" xmlns="http://www.w3.org/2000/svg">
<g clip-path="url(#clip0_899_16438)">
<path d="M13.2042 23.9796C10.2363 23.9796 7.38991 22.8006 5.29129 20.702C3.19267 18.6034 2.01368 15.757 2.01368 12.7891C2.01368 9.82122 3.19267 6.97488 5.29129 4.87625C7.38991 2.77763 10.2363 1.59864 13.2042 1.59864C16.1721 1.59864 19.0184 2.77763 21.117 4.87625C23.2156 6.97488 24.3946 9.82122 24.3946 12.7891C24.3946 15.757 23.2156 18.6034 21.117 20.702C19.0184 22.8006 16.1721 23.9796 13.2042 23.9796ZM13.2042 25.5782C16.596 25.5782 19.849 24.2308 22.2474 21.8324C24.6459 19.434 25.9933 16.181 25.9933 12.7891C25.9933 9.39723 24.6459 6.14427 22.2474 3.74585C19.849 1.34742 16.596 0 13.2042 0C9.81227 0 6.55931 1.34742 4.16088 3.74585C1.76246 6.14427 0.415039 9.39723 0.415039 12.7891C0.415039 16.181 1.76246 19.434 4.16088 21.8324C6.55931 24.2308 9.81227 25.5782 13.2042 25.5782Z" fill="#BDBDBD"/>
<path d="M17.9522 7.94512C17.9408 7.95616 17.9301 7.96791 17.9202 7.98029L12.3682 15.0543L9.02221 11.7067C8.79492 11.4949 8.49431 11.3796 8.18369 11.3851C7.87307 11.3906 7.57671 11.5164 7.35703 11.7361C7.13736 11.9558 7.01153 12.2521 7.00605 12.5628C7.00057 12.8734 7.11586 13.174 7.32765 13.4013L11.5577 17.6329C11.6716 17.7466 11.8073 17.8363 11.9566 17.8964C12.106 17.9566 12.2659 17.9861 12.4269 17.9831C12.5879 17.9801 12.7466 17.9447 12.8936 17.8791C13.0406 17.8134 13.1729 17.7188 13.2826 17.6009L19.6644 9.62369C19.8817 9.39562 20.0005 9.09118 19.9951 8.7762C19.9897 8.46123 19.8606 8.16102 19.6357 7.94048C19.4107 7.71994 19.108 7.59679 18.793 7.59766C18.478 7.59853 18.1759 7.72334 17.9522 7.94512Z" fill="#BDBDBD"/>
</g>
<defs>
<clipPath id="clip0_899_16438">
<rect width="25.5782" height="25.5782" fill="white" transform="translate(0.415039)"/>
</clipPath>
</defs>
</svg>
