<svg width="25" height="34" viewBox="0 0 25 34" fill="none" xmlns="http://www.w3.org/2000/svg">
<path d="M21.7396 13.1521V9.70813C21.7396 4.58441 17.5712 0.416016 12.4475 0.416016C7.32376 0.416016 3.15537 4.58441 3.15537 9.70813V13.1521H0.101318V21.3395C0.101318 28.1472 5.63974 33.6857 12.4475 33.6857C19.2552 33.6857 24.7937 28.1472 24.7937 21.3395V13.1521H21.7396ZM5.10477 9.70813C5.10477 5.6593 8.39866 2.36541 12.4475 2.36541C16.4963 2.36541 19.7902 5.6593 19.7902 9.70813V13.1521H5.10477V9.70813ZM22.8443 21.3395C22.8443 27.0723 18.1803 31.7363 12.4475 31.7363C6.71464 31.7363 2.05071 27.0723 2.05071 21.3395V15.1015H22.8443V21.3395Z" fill="#BDBDBD"/>
<path d="M11.4727 24.7134V27.7509H13.4221V24.7134C14.9206 24.2881 16.0213 22.9075 16.0213 21.2746C16.0213 19.3039 14.4181 17.7007 12.4474 17.7007C10.4768 17.7007 8.87354 19.3039 8.87354 21.2746C8.87354 22.9075 9.97429 24.2881 11.4727 24.7134ZM12.4474 19.6501C13.3432 19.6501 14.0719 20.3788 14.0719 21.2746C14.0719 22.1703 13.3432 22.8991 12.4474 22.8991C11.5517 22.8991 10.8229 22.1703 10.8229 21.2746C10.8229 20.3788 11.5517 19.6501 12.4474 19.6501Z" fill="#BDBDBD"/>
</svg>
