<svg width="26" height="34" viewBox="0 0 26 34" fill="none" xmlns="http://www.w3.org/2000/svg">
<path d="M19.5232 16.4702C19.0894 17.0368 18.6021 17.5599 18.0424 18.032C21.2373 19.9329 23.3943 23.5068 23.3943 27.5935C23.3943 29.8017 18.7299 31.5315 12.7754 31.5315C6.82094 31.5315 2.15656 29.8017 2.15656 27.5935C2.15656 23.5068 4.31351 19.9329 7.50844 18.032C6.94878 17.5599 6.46145 17.0369 6.0276 16.4702C2.46967 18.8008 0.101318 22.9154 0.101318 27.5935C0.101318 29.0106 0.849396 30.9856 4.41345 32.3467C6.63659 33.1958 9.60627 33.6633 12.7755 33.6633C15.9447 33.6633 18.9144 33.1958 21.1375 32.3467C24.7015 30.9856 25.4496 29.0106 25.4496 27.5935C25.4495 22.9154 23.0811 18.8008 19.5232 16.4702Z" fill="#BDBDBD"/>
<path d="M12.7754 17.8748C16.7698 17.8748 19.8456 13.87 19.8456 9.13423C19.8456 4.39633 16.7682 0.393555 12.7754 0.393555C8.78113 0.393555 5.70532 4.39844 5.70532 9.13416C5.70532 13.8721 8.78274 17.8748 12.7754 17.8748ZM12.7754 2.5254C15.5406 2.5254 17.7903 5.49006 17.7903 9.13416C17.7903 12.7783 15.5406 15.7429 12.7754 15.7429C10.0103 15.7429 7.76057 12.7783 7.76057 9.13416C7.76057 5.49006 10.0103 2.5254 12.7754 2.5254Z" fill="#BDBDBD"/>
</svg>
