<svg width="340" height="411" viewBox="0 0 340 411" fill="none" xmlns="http://www.w3.org/2000/svg">
<path d="M150.249 8.3121C260.82 -23.6396 376.593 39.3382 408.798 148.965C441.024 258.592 377.526 373.376 266.955 405.305C156.361 437.256 40.6105 374.301 8.3838 264.674C-23.8434 155.025 39.6772 40.2635 150.249 8.3121Z" fill="#0688F2"/>
<path d="M151.716 13.2923C259.509 -17.8441 372.37 43.5473 403.796 150.42C435.201 257.292 373.281 369.189 265.488 400.348C157.672 431.484 44.8335 370.093 13.4067 263.22C-17.9978 156.325 43.9223 44.4506 151.716 13.2923Z" fill="white"/>
<path d="M399.541 248.047C384.712 315.02 334.382 372.088 263.263 392.646C247.427 397.225 231.447 399.729 215.639 400.306C128.223 403.501 46.48 347.873 20.8824 260.803C-9.32135 158.069 50.2225 50.469 153.878 20.5241C257.533 -9.42075 366.026 49.6051 396.23 152.368C405.702 184.645 406.365 217.383 399.541 248.047Z" fill="#0688F2"/>
<path d="M205.739 247.066L62.7811 185.506L111.326 220.144V287.924L215.673 400.533C231.48 399.957 247.461 397.453 263.297 392.874C334.416 372.316 384.746 315.248 399.574 248.275L351.979 182.339L205.739 247.066Z" fill="url(#paint0_linear_1055_91312)"/>
<path d="M65.8365 177.193L208.391 115.406L348.189 173.998L206.412 236.204L126.623 203.063C153.308 192.354 177.078 183.358 203.68 172.698C205.019 172.161 206.16 171.182 206.796 169.887C209.679 164.023 201.175 156.146 191.277 160.755L109.332 195.945L65.8365 177.193Z" fill="white"/>
<path d="M195.099 163.597L114.777 197.356L114.554 218.642L111.332 221.199V288.979L113.644 289.01L113.732 228.36L115.377 228.317L115.288 289.034L117.507 289.062L117.244 239.796L118.889 239.774L119.13 289.085L120.908 289.108L120.644 239.796L122.289 239.774L122.53 289.131L124.512 289.157L124.023 221L121.822 218.443L122.022 200.397C147.07 190.525 174.274 179.948 199.344 170.076C203.612 167.849 200.723 161.724 195.099 163.597Z" fill="white"/>
<path d="M139.003 222.939L138.869 266.261C153.427 307.137 256.464 309.274 273.933 266.305L272.644 221.617L205.724 251.519L139.003 222.939Z" fill="white"/>
<path d="M66.0808 182.482C80.9496 188.762 95.8183 195.02 110.665 201.3C113.132 202.931 111.643 206.853 108.354 205.839C93.5514 200.132 78.3715 192.948 63.7916 186.58C61.5026 185.038 63.5028 181.622 66.0808 182.482Z" fill="white"/>
<path d="M128.223 208.286L205.324 240.766L206.146 241.096L211.924 238.585C257.131 218.863 302.36 199.141 347.566 179.419C351.745 177.105 354.723 181.292 349.811 183.495L210.436 244.887L205.746 246.517L201.545 244.887L126.223 212.979C122.911 210.82 125.579 207.206 128.223 208.286Z" fill="white"/>
<defs>
<linearGradient id="paint0_linear_1055_91312" x1="120.339" y1="127.949" x2="341.561" y2="349.171" gradientUnits="userSpaceOnUse">
<stop stop-color="#0068FF"/>
<stop offset="1" stop-color="#0072D8" stop-opacity="0"/>
</linearGradient>
</defs>
</svg>
