<svg width="341" height="301" viewBox="0 0 341 301" fill="none" xmlns="http://www.w3.org/2000/svg">
<path d="M247.324 31.5645V10.9603C247.24 9.97211 246.857 9.03308 246.226 8.26815C245.595 7.50323 244.746 6.94868 243.793 6.67832C242.839 6.40796 241.826 6.43461 240.887 6.75471C239.949 7.0748 239.131 7.67318 238.541 8.4702L229.855 22.5318C217.152 18.5169 203.521 18.5169 190.818 22.5318L182.132 8.4702C181.543 7.67318 180.724 7.0748 179.786 6.75471C178.848 6.43461 177.835 6.40796 176.881 6.67832C175.927 6.94868 175.078 7.50323 174.448 8.26815C173.817 9.03308 173.434 9.97211 173.349 10.9603V31.5645C163.004 39.523 163.248 50.8016 163.248 63.3009C163.248 63.3009 155.392 134.049 210.386 134.049C265.379 134.049 257.523 87.5182 257.523 63.3009C257.425 50.8016 257.669 39.523 247.324 31.5645Z" fill="#DEA47A"/>
<path d="M210.287 117.204C200.87 116.948 191.676 114.271 183.592 109.431C175.507 104.592 168.804 97.7513 164.126 89.5687C167.395 109.685 178.033 134.049 210.287 134.049C249.763 134.049 256.839 110.124 257.668 87.6157C253.099 96.3056 246.304 103.625 237.978 108.823C229.653 114.022 220.097 116.914 210.287 117.204Z" fill="#BF8256"/>
<path opacity="0.15" d="M171.494 300.298C232.291 300.298 281.578 296.517 281.578 291.852C281.578 287.187 232.291 283.405 171.494 283.405C110.696 283.405 61.4092 287.187 61.4092 291.852C61.4092 296.517 110.696 300.298 171.494 300.298Z" fill="#191816"/>
<path d="M210.287 36.3494C220.319 36.6129 230.073 39.7034 238.429 45.2656C246.784 50.8277 253.402 58.6359 257.521 67.7928C257.521 66.2304 257.521 64.7168 257.521 63.3009C257.521 50.8016 257.521 39.523 247.42 31.5645V10.9603C247.336 9.97211 246.953 9.03308 246.322 8.26815C245.691 7.50323 244.842 6.94868 243.889 6.67832C242.935 6.40796 241.922 6.43461 240.984 6.75471C240.046 7.0748 239.227 7.67318 238.637 8.4702L229.951 22.5319C217.248 18.5169 203.617 18.5169 190.914 22.5319L182.229 8.4702C181.639 7.67318 180.82 7.0748 179.882 6.75471C178.944 6.43461 177.931 6.40796 176.977 6.67832C176.023 6.94868 175.175 7.50323 174.544 8.26815C173.913 9.03308 173.53 9.97211 173.445 10.9603V31.5645C163.101 39.523 163.345 50.8016 163.345 63.3009C163.345 63.3009 163.345 65.2051 163.052 68.1834C167.114 58.9534 173.707 51.0643 182.067 45.4301C190.427 39.7959 200.212 36.6474 210.287 36.3494Z" fill="#F0C2A1"/>
<path d="M247.324 31.5645V10.9603C247.24 9.97211 246.857 9.03308 246.226 8.26815C245.595 7.50323 244.746 6.94868 243.793 6.67832C242.839 6.40796 241.826 6.43461 240.887 6.75471C239.949 7.0748 239.131 7.67318 238.541 8.4702L229.855 22.5318C217.152 18.5169 203.521 18.5169 190.818 22.5318L182.132 8.4702C181.543 7.67318 180.724 7.0748 179.786 6.75471C178.848 6.43461 177.835 6.40796 176.881 6.67832C175.927 6.94868 175.078 7.50323 174.448 8.26815C173.817 9.03308 173.434 9.97211 173.349 10.9603V31.5645C163.004 39.523 163.248 50.8016 163.248 63.3009C163.248 63.3009 155.392 134.049 210.386 134.049C265.379 134.049 257.523 87.5182 257.523 63.3009C257.425 50.8016 257.669 39.523 247.324 31.5645Z" stroke="#191816" stroke-linecap="round" stroke-linejoin="round"/>
<path d="M181.693 83.5633C193.793 83.5633 203.602 73.7482 203.602 61.6408C203.602 49.5333 193.793 39.7183 181.693 39.7183C169.592 39.7183 159.783 49.5333 159.783 61.6408C159.783 73.7482 169.592 83.5633 181.693 83.5633Z" fill="#F0F0F0"/>
<path d="M181.693 39.7186C177.724 39.731 173.834 40.8241 170.439 42.8806C167.045 44.9371 164.273 47.8794 162.423 51.392C160.572 54.9047 159.712 58.855 159.935 62.8196C160.158 66.7841 161.455 70.6132 163.687 73.8962L194.136 43.4781C190.473 40.9745 186.128 39.6616 181.693 39.7186Z" fill="white"/>
<path d="M87.3205 147.524H259.181C260.719 147.524 262.242 147.828 263.663 148.416C265.084 149.005 266.375 149.868 267.462 150.957C268.549 152.045 269.412 153.336 270.001 154.758C270.589 156.18 270.892 157.704 270.892 159.242V262.068H75.707V159.242C75.7069 156.151 76.9274 153.186 79.1026 150.991C81.2778 148.796 84.2315 147.55 87.3205 147.524Z" fill="#F0F0F0" stroke="#191816" stroke-linecap="round" stroke-linejoin="round"/>
<path d="M98.2513 167.738H248.251C248.898 167.738 249.519 167.995 249.976 168.453C250.434 168.911 250.691 169.532 250.691 170.179V262.068H95.8115V170.179C95.8115 169.532 96.0686 168.911 96.5261 168.453C96.9837 167.995 97.6043 167.738 98.2513 167.738Z" fill="#00B8F0"/>
<path d="M98.6417 167.738C97.8911 167.738 97.1712 168.036 96.6405 168.567C96.1097 169.099 95.8115 169.819 95.8115 170.57V262.068H97.6658L191.94 167.738H98.6417Z" fill="#4ACFFF"/>
<path d="M246.25 289.02H100.3C93.6025 289.039 87.0067 287.377 81.1163 284.187C75.2259 280.997 70.2288 276.38 66.5821 270.759C66.0184 269.899 65.7016 268.9 65.6664 267.872C65.6311 266.844 65.8788 265.826 66.3823 264.93C66.8858 264.033 67.6258 263.292 68.5215 262.787C69.4173 262.283 70.4343 262.034 71.4617 262.068H275.284C276.311 262.034 277.328 262.283 278.224 262.787C279.12 263.292 279.86 264.033 280.363 264.93C280.867 265.826 281.114 266.844 281.079 267.872C281.044 268.9 280.727 269.899 280.163 270.759C276.502 276.412 271.475 281.048 265.547 284.24C259.619 287.432 252.982 289.076 246.25 289.02Z" fill="#F0F0F0"/>
<path d="M70.2902 275.544H276.21C277.587 274.029 278.828 272.395 279.919 270.662C280.497 269.824 280.834 268.844 280.894 267.829C280.955 266.813 280.735 265.8 280.261 264.9C279.784 264.015 279.082 263.273 278.224 262.75C277.367 262.226 276.385 261.94 275.381 261.922H71.0221C70.0178 261.94 69.0365 262.226 68.179 262.75C67.3215 263.273 66.6186 264.015 66.1425 264.9C65.6606 265.796 65.4331 266.806 65.4847 267.822C65.5363 268.838 65.8651 269.82 66.4353 270.662C67.5724 272.401 68.8625 274.035 70.2902 275.544Z" fill="white"/>
<path d="M181.693 83.5633C193.793 83.5633 203.602 73.7482 203.602 61.6408C203.602 49.5333 193.793 39.7183 181.693 39.7183C169.592 39.7183 159.783 49.5333 159.783 61.6408C159.783 73.7482 169.592 83.5633 181.693 83.5633Z" stroke="#191816" stroke-linecap="round" stroke-linejoin="round"/>
<path d="M238.931 83.5633C251.031 83.5633 260.841 73.7482 260.841 61.6408C260.841 49.5333 251.031 39.7183 238.931 39.7183C226.831 39.7183 217.021 49.5333 217.021 61.6408C217.021 73.7482 226.831 83.5633 238.931 83.5633Z" fill="#F0F0F0"/>
<path d="M238.931 39.7184C234.963 39.7308 231.072 40.8239 227.678 42.8804C224.283 44.9369 221.512 47.8792 219.661 51.3918C217.811 54.9045 216.95 58.8549 217.173 62.8194C217.396 66.7839 218.693 70.613 220.925 73.896L251.569 43.6732C247.875 41.0615 243.454 39.678 238.931 39.7184Z" fill="white"/>
<path d="M238.931 83.5633C251.031 83.5633 260.841 73.7482 260.841 61.6408C260.841 49.5333 251.031 39.7183 238.931 39.7183C226.831 39.7183 217.021 49.5333 217.021 61.6408C217.021 73.7482 226.831 83.5633 238.931 83.5633Z" stroke="#191816" stroke-linecap="round" stroke-linejoin="round"/>
<path d="M203.554 56.563H217.022" stroke="#191816" stroke-linecap="round" stroke-linejoin="round"/>
<path d="M202.089 86.8835C201.579 86.8868 201.08 87.0279 200.644 87.2917C200.207 87.5556 199.85 87.9325 199.61 88.3827C199.37 88.8328 199.256 89.3395 199.281 89.8491C199.305 90.3587 199.466 90.8523 199.747 91.2778L207.945 103.582C208.184 104.02 208.537 104.385 208.967 104.64C209.396 104.894 209.886 105.029 210.385 105.029C210.884 105.029 211.373 104.894 211.803 104.64C212.232 104.385 212.585 104.02 212.825 103.582L221.022 91.2778C221.302 90.8558 221.463 90.3665 221.489 89.8611C221.515 89.3556 221.405 88.8524 221.171 88.4037C220.937 87.9551 220.587 87.5774 220.157 87.3101C219.728 87.0427 219.235 86.8954 218.729 86.8835H202.089Z" fill="#FFE500" stroke="#191816" stroke-linecap="round" stroke-linejoin="round"/>
<path d="M246.25 289.02H100.3C93.6025 289.039 87.0067 287.377 81.1163 284.187C75.2259 280.997 70.2288 276.38 66.5821 270.759C66.0184 269.899 65.7016 268.9 65.6664 267.872C65.6311 266.844 65.8788 265.826 66.3823 264.93C66.8858 264.033 67.6258 263.292 68.5215 262.787C69.4173 262.283 70.4343 262.034 71.4617 262.068H275.284C276.311 262.034 277.328 262.283 278.224 262.787C279.12 263.292 279.86 264.033 280.363 264.93C280.867 265.826 281.114 266.844 281.079 267.872C281.044 268.9 280.727 269.899 280.163 270.759C276.502 276.412 271.475 281.048 265.547 284.24C259.619 287.432 252.982 289.076 246.25 289.02Z" stroke="#191816" stroke-linecap="round" stroke-linejoin="round"/>
<path d="M98.2513 167.738H248.251C248.898 167.738 249.519 167.995 249.976 168.453C250.434 168.911 250.691 169.532 250.691 170.179V262.068H95.8115V170.179C95.8115 169.532 96.0686 168.911 96.5261 168.453C96.9837 167.995 97.6043 167.738 98.2513 167.738Z" stroke="#191816" stroke-linecap="round" stroke-linejoin="round"/>
<path d="M203.554 147.524C203.554 149.311 202.844 151.025 201.581 152.289C200.319 153.552 198.606 154.262 196.82 154.262C195.034 154.262 193.321 153.552 192.058 152.289C190.795 151.025 190.086 149.311 190.086 147.524V137.418C190.086 135.631 190.795 133.917 192.058 132.653C193.321 131.39 195.034 130.68 196.82 130.68C198.606 130.68 200.319 131.39 201.581 132.653C202.844 133.917 203.554 135.631 203.554 137.418V147.524Z" fill="#FFE500" stroke="#191816" stroke-linecap="round" stroke-linejoin="round"/>
<path d="M190.085 147.524C190.085 149.311 189.375 151.025 188.113 152.289C186.85 153.552 185.137 154.262 183.351 154.262C181.565 154.262 179.852 153.552 178.59 152.289C177.327 151.025 176.617 149.311 176.617 147.524V137.418C176.617 135.631 177.327 133.917 178.59 132.653C179.852 131.39 181.565 130.68 183.351 130.68C185.137 130.68 186.85 131.39 188.113 132.653C189.375 133.917 190.085 135.631 190.085 137.418V147.524Z" fill="#FFE500" stroke="#191816" stroke-linecap="round" stroke-linejoin="round"/>
<path d="M243.957 147.524C243.957 149.311 243.248 151.025 241.985 152.289C240.722 153.552 239.009 154.262 237.223 154.262C235.437 154.262 233.724 153.552 232.462 152.289C231.199 151.025 230.489 149.311 230.489 147.524V137.418C230.489 135.631 231.199 133.917 232.462 132.653C233.724 131.39 235.437 130.68 237.223 130.68C239.009 130.68 240.722 131.39 241.985 132.653C243.248 133.917 243.957 135.631 243.957 137.418V147.524Z" fill="#FFE500" stroke="#191816" stroke-linecap="round" stroke-linejoin="round"/>
<path d="M230.489 147.524C230.489 149.311 229.78 151.025 228.517 152.289C227.254 153.552 225.541 154.262 223.755 154.262C221.969 154.262 220.257 153.552 218.994 152.289C217.731 151.025 217.021 149.311 217.021 147.524V137.418C217.021 136.533 217.196 135.657 217.534 134.839C217.872 134.022 218.368 133.279 218.994 132.653C219.619 132.028 220.361 131.531 221.178 131.193C221.995 130.854 222.871 130.68 223.755 130.68C224.64 130.68 225.515 130.854 226.332 131.193C227.149 131.531 227.892 132.028 228.517 132.653C229.142 133.279 229.638 134.022 229.977 134.839C230.315 135.657 230.489 136.533 230.489 137.418V147.524Z" fill="#FFE500" stroke="#191816" stroke-linecap="round" stroke-linejoin="round"/>
<path d="M306.806 163.246H340.475" stroke="#FF4064" stroke-miterlimit="10" stroke-linecap="round"/>
<path d="M306.806 176.722H340.475" stroke="#FF4064" stroke-miterlimit="10" stroke-linecap="round"/>
<path d="M1 151.479H34.6694" stroke="#00AED9" stroke-linecap="round" stroke-linejoin="round"/>
<path d="M1 151.479H34.6694" stroke="#00AED9" stroke-linecap="round" stroke-linejoin="round"/>
<path d="M17.835 134.635V168.324" stroke="#00AED9" stroke-linecap="round" stroke-linejoin="round"/>
<path d="M43.0625 113.298H56.5303" stroke="#00AED9" stroke-linecap="round" stroke-linejoin="round"/>
<path d="M43.0625 113.298H56.5303" stroke="#00AED9" stroke-linecap="round" stroke-linejoin="round"/>
<path d="M49.7959 106.56V120.036" stroke="#00AED9" stroke-linecap="round" stroke-linejoin="round"/>
<path d="M99.1777 96.9902H112.645" stroke="#00AED9" stroke-linecap="round" stroke-linejoin="round"/>
<path d="M99.1777 96.9902H112.645" stroke="#00AED9" stroke-linecap="round" stroke-linejoin="round"/>
<path d="M105.912 90.2524V103.728" stroke="#00AED9" stroke-linecap="round" stroke-linejoin="round"/>
<path d="M284.945 54.9028H298.413" stroke="#00AED9" stroke-linecap="round" stroke-linejoin="round"/>
<path d="M284.945 54.9028H298.413" stroke="#00AED9" stroke-linecap="round" stroke-linejoin="round"/>
<path d="M291.68 48.165V61.6408" stroke="#00AED9" stroke-linecap="round" stroke-linejoin="round"/>
<path d="M280.993 111.052H334.864" stroke="#FFB700" stroke-miterlimit="10" stroke-linecap="round"/>
<path d="M307.929 88.9828C307.995 88.975 308.062 88.9822 308.125 89.004C308.187 89.0257 308.244 89.0615 308.291 89.1085C308.338 89.1555 308.374 89.2125 308.396 89.2753C308.417 89.3381 308.425 89.4051 308.417 89.4711C308.417 89.6006 308.365 89.7248 308.274 89.8163C308.182 89.9079 308.058 89.9593 307.929 89.9593C307.799 89.9593 307.675 89.9079 307.584 89.8163C307.492 89.7248 307.441 89.6006 307.441 89.4711C307.433 89.4051 307.44 89.3381 307.462 89.2753C307.484 89.2125 307.519 89.1555 307.566 89.1085C307.613 89.0615 307.67 89.0257 307.733 89.004C307.796 88.9822 307.863 88.975 307.929 88.9828ZM307.929 84.1003C306.854 84.0907 305.8 84.4015 304.901 84.9933C304.003 85.5851 303.302 86.431 302.886 87.4233C302.47 88.4155 302.358 89.5093 302.566 90.5651C302.773 91.6209 303.29 92.591 304.05 93.3519C304.811 94.1128 305.78 94.6299 306.836 94.8375C307.891 95.0451 308.984 94.9336 309.976 94.5174C310.967 94.1012 311.813 93.399 312.404 92.5003C312.995 91.6016 313.306 90.5471 313.297 89.4711C313.297 88.0467 312.731 86.6806 311.724 85.6734C310.718 84.6662 309.352 84.1003 307.929 84.1003Z" fill="#FFB700"/>
<path d="M307.929 132.096C308.058 132.096 308.182 132.147 308.274 132.239C308.365 132.33 308.417 132.455 308.417 132.584C308.417 132.714 308.365 132.838 308.274 132.929C308.182 133.021 308.058 133.072 307.929 133.072C307.799 133.072 307.675 133.021 307.584 132.929C307.492 132.838 307.441 132.714 307.441 132.584C307.441 132.455 307.492 132.33 307.584 132.239C307.675 132.147 307.799 132.096 307.929 132.096ZM307.929 127.213C306.854 127.204 305.8 127.515 304.901 128.106C304.003 128.698 303.302 129.544 302.886 130.536C302.47 131.529 302.358 132.622 302.566 133.678C302.773 134.734 303.29 135.704 304.05 136.465C304.811 137.226 305.78 137.743 306.836 137.951C307.891 138.158 308.984 138.047 309.976 137.63C310.967 137.214 311.813 136.512 312.404 135.613C312.995 134.715 313.306 133.66 313.297 132.584C313.297 131.16 312.731 129.794 311.724 128.786C310.718 127.779 309.352 127.213 307.929 127.213Z" fill="#FFB700"/>
<path d="M39.1592 36.9354L66.0947 72.8707L84.0518 1H146.901" stroke="#48CF3E" stroke-linecap="round" stroke-linejoin="round"/>
<path d="M132.848 275.544H122.747" stroke="#191816" stroke-linecap="round" stroke-linejoin="round"/>
<path d="M109.279 275.544H95.8115" stroke="#191816" stroke-linecap="round" stroke-linejoin="round"/>
<path d="M185.059 70.0877C189.721 70.0877 193.501 66.3059 193.501 61.6409C193.501 56.9758 189.721 53.1941 185.059 53.1941C180.397 53.1941 176.617 56.9758 176.617 61.6409C176.617 66.3059 180.397 70.0877 185.059 70.0877Z" fill="#00B8F0" stroke="#191816" stroke-linecap="round" stroke-linejoin="round"/>
<path d="M235.564 70.0877C240.226 70.0877 244.006 66.3059 244.006 61.6409C244.006 56.9758 240.226 53.1941 235.564 53.1941C230.902 53.1941 227.122 56.9758 227.122 61.6409C227.122 66.3059 230.902 70.0877 235.564 70.0877Z" fill="#00B8F0" stroke="#191816" stroke-linecap="round" stroke-linejoin="round"/>
</svg>
