<svg width="41" height="41" viewBox="0 0 41 41" fill="none" xmlns="http://www.w3.org/2000/svg">
<circle cx="20.0012" cy="20.4992" r="19.9426" transform="rotate(90.1684 20.0012 20.4992)" fill="#FE3F4E"/>
<path d="M20.424 29.1552C20.8283 29.1564 21.2165 28.9969 21.5032 28.7119C21.7899 28.4269 21.9517 28.0396 21.9529 27.6353L21.9868 16.0717L25.4703 19.5788C25.6116 19.7209 25.7796 19.8339 25.9645 19.9111C26.1495 19.9883 26.3478 20.0284 26.5483 20.029C26.7487 20.0296 26.9473 19.9907 27.1327 19.9145C27.3181 19.8384 27.4867 19.7265 27.6288 19.5851C27.7709 19.4438 27.8839 19.2759 27.9611 19.091C28.0384 18.906 28.0784 18.7077 28.079 18.5072C28.0796 18.3068 28.0407 18.1082 27.9645 17.9228C27.8884 17.7374 27.7765 17.5688 27.6351 17.4267L21.5557 11.3114C21.4145 11.169 21.2467 11.0559 21.0617 10.9785C20.8767 10.9011 20.6783 10.861 20.4778 10.8604C20.2773 10.8598 20.0786 10.8988 19.8932 10.9751C19.7078 11.0514 19.5393 11.1635 19.3973 11.3051L13.282 17.3845C13.1398 17.5258 13.0269 17.6937 12.9497 17.8787C12.8724 18.0636 12.8324 18.262 12.8318 18.4624C12.8312 18.6628 12.8701 18.8614 12.9462 19.0468C13.0224 19.2322 13.1343 19.4008 13.2756 19.543C13.417 19.6851 13.5849 19.798 13.7698 19.8753C13.9548 19.9525 14.1531 19.9926 14.3536 19.9932C14.554 19.9938 14.7526 19.9549 14.938 19.8787C15.1234 19.8025 15.292 19.6906 15.4341 19.5493L18.9382 16.0627L18.9042 27.6264C18.903 28.0306 19.0624 28.4188 19.3475 28.7055C19.6325 28.9923 20.0198 29.154 20.424 29.1552Z" fill="white"/>
</svg>
