<svg width="22" height="22" viewBox="0 0 22 22" fill="none" xmlns="http://www.w3.org/2000/svg">
<path fill-rule="evenodd" clip-rule="evenodd" d="M10.6106 21.2212C16.4707 21.2212 21.2212 16.4707 21.2212 10.6106C21.2212 4.75053 16.4707 0 10.6106 0C4.75053 0 0 4.75053 0 10.6106C0 16.4707 4.75053 21.2212 10.6106 21.2212ZM8.73826 6.86539C8.73826 5.83126 9.57659 4.99293 10.6107 4.99293C11.6449 4.99293 12.4832 5.83126 12.4832 6.86539V8.71794L14.4142 8.71176C15.4631 8.7084 16.3162 9.55601 16.3195 10.6049C16.3229 11.6539 15.4753 12.5069 14.4264 12.5103L12.4832 12.5165V14.3552C12.4832 15.3894 11.6449 16.2277 10.6107 16.2277C9.57659 16.2277 8.73826 15.3894 8.73826 14.3552V12.5285L6.85957 12.5345C5.81064 12.5379 4.95759 11.6902 4.95424 10.6413C4.95088 9.59238 5.79848 8.73933 6.84742 8.73598L8.73826 8.72992V6.86539Z" fill="white"/>
</svg>
