<svg width="993" height="184" viewBox="0 0 993 184" fill="none" xmlns="http://www.w3.org/2000/svg">
<mask id="mask0_1060_112755" style="mask-type:alpha" maskUnits="userSpaceOnUse" x="30" y="26" width="946" height="124">
<rect x="30" y="26" width="946" height="124" rx="20" fill="url(#paint0_linear_1060_112755)"/>
</mask>
<g mask="url(#mask0_1060_112755)">
<g opacity="0.2">
<path d="M691.423 174.675L668.221 123.383C667.696 122.222 666.329 121.707 665.168 122.232L639.102 134.023C637.941 134.549 637.426 135.915 637.951 137.076L661.153 188.368C661.678 189.529 663.045 190.044 664.206 189.519L690.272 177.728C691.433 177.203 691.949 175.836 691.423 174.675Z" fill="#6DD627" stroke="#191816" stroke-linecap="round" stroke-linejoin="round"/>
<path d="M678.523 140.65H750.969C751.581 140.65 752.168 140.893 752.6 141.326C753.033 141.759 753.276 142.346 753.276 142.958V146.649C753.276 147.261 753.033 147.848 752.6 148.28C752.168 148.713 751.581 148.956 750.969 148.956H680.831C680.219 148.956 679.632 148.713 679.199 148.28C678.766 147.848 678.523 147.261 678.523 146.649V140.65Z" fill="#6DD627" stroke="#191816" stroke-linecap="round" stroke-linejoin="round"/>
<path d="M678.523 132.34H750.969C751.581 132.34 752.168 132.583 752.6 133.016C753.033 133.448 753.276 134.035 753.276 134.647V138.339C753.276 138.95 753.033 139.537 752.6 139.97C752.168 140.403 751.581 140.646 750.969 140.646H680.831C680.219 140.646 679.632 140.403 679.199 139.97C678.766 139.537 678.523 138.95 678.523 138.339V132.34Z" fill="#6DD627" stroke="#191816" stroke-linecap="round" stroke-linejoin="round"/>
<path d="M750.969 124.035H680.831C679.556 124.035 678.523 125.068 678.523 126.342V130.034C678.523 131.308 679.556 132.341 680.831 132.341H750.969C752.243 132.341 753.276 131.308 753.276 130.034V126.342C753.276 125.068 752.243 124.035 750.969 124.035Z" fill="#6DD627" stroke="#191816" stroke-linecap="round" stroke-linejoin="round"/>
<path d="M750.969 115.73H680.831C679.556 115.73 678.523 116.763 678.523 118.038V121.729C678.523 123.003 679.556 124.036 680.831 124.036H750.969C752.243 124.036 753.276 123.003 753.276 121.729V118.038C753.276 116.763 752.243 115.73 750.969 115.73Z" fill="#6DD627" stroke="#191816" stroke-linecap="round" stroke-linejoin="round"/>
<path d="M728.359 115.73H700.672V148.954H728.359V115.73Z" fill="#FFE500"/>
<path d="M745.432 148.955H675.293C674.019 148.955 672.986 149.988 672.986 151.262V154.954C672.986 156.228 674.019 157.261 675.293 157.261H745.432C746.706 157.261 747.739 156.228 747.739 154.954V151.262C747.739 149.988 746.706 148.955 745.432 148.955Z" fill="#6DD627" stroke="#191816" stroke-linecap="round" stroke-linejoin="round"/>
<path d="M669.987 180.863L680.092 176.249C679.791 175.586 679.624 174.869 679.6 174.141C679.577 173.413 679.697 172.688 679.954 172.006C680.211 171.325 680.6 170.7 681.099 170.17C681.598 169.639 682.197 169.211 682.861 168.912L666.872 133.612C665.535 134.213 664.014 134.259 662.643 133.74C661.272 133.221 660.163 132.179 659.558 130.844L649.453 135.458C649.754 136.118 649.922 136.832 649.947 137.557C649.972 138.282 649.854 139.006 649.599 139.685C649.344 140.365 648.957 140.987 648.461 141.517C647.965 142.046 647.369 142.473 646.707 142.772L662.673 178.095C663.335 177.794 664.049 177.628 664.776 177.604C665.502 177.581 666.226 177.701 666.906 177.958C667.585 178.216 668.207 178.605 668.736 179.103C669.265 179.602 669.69 180.2 669.987 180.863Z" fill="#C8FFA1" stroke="#191816" stroke-linecap="round" stroke-linejoin="round"/>
<path d="M695.135 188.153V131.858C695.135 130.584 694.102 129.551 692.828 129.551H664.219C662.945 129.551 661.912 130.584 661.912 131.858V188.153C661.912 189.427 662.945 190.46 664.219 190.46H692.828C694.102 190.46 695.135 189.427 695.135 188.153Z" fill="#6DD627"/>
<path d="M661.912 131.858V163.259L694.651 130.52C694.443 130.228 694.17 129.988 693.854 129.82C693.537 129.652 693.186 129.56 692.828 129.551H664.219C663.607 129.551 663.02 129.794 662.588 130.227C662.155 130.659 661.912 131.246 661.912 131.858Z" fill="#9CEB60"/>
<path d="M672.986 184.925H684.061C684.061 183.456 684.644 182.048 685.683 181.01C686.721 179.971 688.129 179.388 689.598 179.388V140.627C688.87 140.63 688.148 140.489 687.475 140.212C686.802 139.935 686.19 139.527 685.676 139.012C685.161 138.497 684.753 137.886 684.476 137.212C684.199 136.539 684.058 135.818 684.061 135.09H672.986C672.989 135.818 672.848 136.539 672.571 137.212C672.294 137.886 671.886 138.497 671.371 139.012C670.856 139.527 670.245 139.935 669.572 140.212C668.898 140.489 668.177 140.63 667.449 140.627V179.388C668.918 179.388 670.326 179.971 671.364 181.01C672.403 182.048 672.986 183.456 672.986 184.925Z" fill="#C8FFA1"/>
<path d="M685.883 139.174C685.312 138.657 684.855 138.027 684.541 137.324C684.228 136.621 684.064 135.86 684.061 135.09H672.986C672.989 135.818 672.848 136.539 672.571 137.212C672.294 137.886 671.886 138.497 671.371 139.012C670.856 139.527 670.245 139.935 669.572 140.212C668.898 140.489 668.177 140.63 667.449 140.627V157.608L685.883 139.174Z" fill="#E4FFD1"/>
<path d="M672.986 184.925H684.061C684.061 183.456 684.644 182.048 685.683 181.01C686.721 179.971 688.129 179.388 689.598 179.388V140.627C688.87 140.63 688.148 140.489 687.475 140.212C686.802 139.935 686.19 139.527 685.676 139.012C685.161 138.497 684.753 137.886 684.476 137.212C684.199 136.539 684.058 135.818 684.061 135.09H672.986C672.989 135.818 672.848 136.539 672.571 137.212C672.294 137.886 671.886 138.497 671.371 139.012C670.856 139.527 670.245 139.935 669.572 140.212C668.898 140.489 668.177 140.63 667.449 140.627V179.388C668.918 179.388 670.326 179.971 671.364 181.01C672.403 182.048 672.986 183.456 672.986 184.925V184.925Z" stroke="#191816" stroke-linecap="round" stroke-linejoin="round"/>
<path d="M695.135 188.153V131.858C695.135 130.584 694.102 129.551 692.828 129.551H664.219C662.945 129.551 661.912 130.584 661.912 131.858V188.153C661.912 189.427 662.945 190.46 664.219 190.46H692.828C694.102 190.46 695.135 189.427 695.135 188.153Z" stroke="#191816" stroke-linecap="round" stroke-linejoin="round"/>
<path d="M700.672 143.44L728.359 115.754V115.73H700.672V143.44Z" fill="#FFF48C"/>
<path d="M728.359 115.73H700.672V148.954H728.359V115.73Z" stroke="#191816" stroke-linecap="round" stroke-linejoin="round"/>
<path d="M722.821 148.955H695.135V182.178H722.821V148.955Z" fill="#FFE500"/>
<path d="M695.135 176.687L722.821 148.978V148.955H695.135V176.687Z" fill="#FFF48C"/>
<path d="M722.821 148.955H695.135V182.178H722.821V148.955Z" stroke="#191816" stroke-linecap="round" stroke-linejoin="round"/>
<path d="M670.425 101.334C670.661 100.323 671.175 99.398 671.909 98.664C672.643 97.9301 673.567 97.4162 674.578 97.1806L682.907 95.2656C683.058 95.2295 683.192 95.144 683.288 95.0227C683.384 94.9014 683.437 94.7514 683.438 94.5965C683.438 94.4388 683.386 94.2854 683.29 94.1602C683.194 94.035 683.06 93.9451 682.907 93.9044L674.601 91.9894C673.589 91.7563 672.663 91.2433 671.929 90.5089C671.195 89.7746 670.681 88.8485 670.448 87.8365L668.51 79.5307C668.47 79.3783 668.38 79.2436 668.254 79.1476C668.129 79.0516 667.976 78.9997 667.818 79C667.663 79.0009 667.513 79.0536 667.392 79.1498C667.271 79.246 667.185 79.3801 667.149 79.5307L665.234 87.8596C664.999 88.8704 664.485 89.7952 663.751 90.5291C663.017 91.263 662.092 91.7769 661.081 92.0125L652.752 93.9275C652.6 93.9682 652.465 94.0581 652.369 94.1833C652.273 94.3085 652.221 94.4619 652.222 94.6196C652.223 94.7744 652.275 94.9245 652.371 95.0458C652.468 95.167 652.602 95.2526 652.752 95.2887L661.081 97.2037C662.09 97.4442 663.012 97.9597 663.745 98.6928C664.478 99.426 664.994 100.348 665.234 101.357L667.149 109.686C667.181 109.838 667.266 109.975 667.388 110.071C667.51 110.168 667.662 110.22 667.818 110.216C667.977 110.221 668.132 110.17 668.258 110.074C668.384 109.977 668.473 109.84 668.51 109.686L670.425 101.334Z" fill="#FFEC60" stroke="#191816" stroke-linecap="round" stroke-linejoin="round"/>
<path d="M963.654 46.65C964.167 44.448 965.287 42.4337 966.885 40.8349C968.484 39.2361 970.499 38.1168 972.701 37.6035L990.844 33.4321C991.172 33.3534 991.464 33.1671 991.674 32.9029C991.883 32.6386 991.998 32.3118 992 31.9746C992.001 31.631 991.887 31.2968 991.678 31.0241C991.469 30.7514 991.176 30.5555 990.844 30.4668L972.751 26.2954C970.546 25.7876 968.529 24.67 966.929 23.0704C965.33 21.4707 964.212 19.4534 963.704 17.2489L959.483 -0.84406C959.394 -1.17603 959.198 -1.46937 958.925 -1.67844C958.653 -1.8875 958.318 -2.00055 957.975 -2C957.638 -1.99806 957.311 -1.88314 957.047 -1.67359C956.782 -1.46405 956.596 -1.17197 956.517 -0.84406L952.346 17.2992C951.833 19.5012 950.713 21.5155 949.114 23.1143C947.516 24.713 945.501 25.8324 943.299 26.3457L925.156 30.5171C924.824 30.6058 924.531 30.8017 924.322 31.0744C924.113 31.3471 923.999 31.6812 924 32.0248C924.002 32.3621 924.117 32.6889 924.326 32.9531C924.536 33.2173 924.828 33.4037 925.156 33.4823L943.299 37.6538C945.496 38.1777 947.505 39.3006 949.102 40.8977C950.699 42.4947 951.822 44.5033 952.346 46.7003L956.517 64.8435C956.588 65.1758 956.772 65.4732 957.038 65.6842C957.304 65.8953 957.635 66.0068 957.975 65.9994C958.321 66.0089 958.659 65.8993 958.934 65.6888C959.208 65.4784 959.402 65.1799 959.483 64.8435L963.654 46.65Z" fill="#FFEC60" stroke="#191816" stroke-linecap="round" stroke-linejoin="round"/>
<path d="M743.659 58.4794C743.991 57.0546 744.715 55.7512 745.749 54.7167C746.784 53.6822 748.087 52.9579 749.512 52.6258L761.252 49.9266C761.464 49.8757 761.653 49.7552 761.789 49.5842C761.924 49.4132 761.999 49.2017 762 48.9836C762 48.7612 761.927 48.545 761.792 48.3686C761.657 48.1921 761.467 48.0653 761.252 48.008L749.545 45.3088C748.118 44.9802 746.813 44.2571 745.778 43.222C744.743 42.1869 744.02 40.8816 743.691 39.4552L740.959 27.748C740.902 27.5332 740.775 27.3433 740.599 27.2081C740.422 27.0728 740.206 26.9996 739.984 27C739.766 27.0013 739.554 27.0756 739.383 27.2112C739.212 27.3468 739.092 27.5358 739.041 27.748L736.341 39.4877C736.009 40.9125 735.285 42.2159 734.251 43.2504C733.216 44.2849 731.913 45.0092 730.488 45.3413L718.748 48.0405C718.533 48.0979 718.343 48.2246 718.208 48.4011C718.073 48.5775 718 48.7937 718 49.0161C718.001 49.2343 718.076 49.4458 718.211 49.6167C718.347 49.7877 718.536 49.9083 718.748 49.9592L730.488 52.6583C731.909 52.9973 733.209 53.7239 734.242 54.7573C735.276 55.7907 736.002 57.0904 736.341 58.5119L739.041 70.2517C739.086 70.4667 739.205 70.6591 739.377 70.7957C739.55 70.9322 739.764 71.0044 739.984 70.9996C740.207 71.0058 740.427 70.9348 740.604 70.7986C740.782 70.6625 740.907 70.4693 740.959 70.2517L743.659 58.4794Z" fill="#FFEC60" stroke="#191816" stroke-linecap="round" stroke-linejoin="round"/>
<path d="M778.078 158.412L784.585 156.243C784.708 156.199 784.815 156.118 784.889 156.01C784.964 155.902 785.003 155.774 785 155.643C784.998 155.516 784.957 155.393 784.883 155.289C784.808 155.186 784.704 155.108 784.585 155.066L779.232 153.359C778.867 153.249 778.534 153.05 778.264 152.781C777.995 152.511 777.796 152.178 777.686 151.813L775.887 146.437C775.851 146.314 775.774 146.205 775.67 146.13C775.565 146.055 775.439 146.017 775.31 146.022C775.183 146.024 775.059 146.065 774.956 146.139C774.853 146.213 774.775 146.317 774.733 146.437L772.956 151.79C772.842 152.141 772.652 152.463 772.401 152.733C772.15 153.004 771.844 153.217 771.503 153.359L766.127 155.135C766.007 155.178 765.903 155.256 765.829 155.359C765.755 155.462 765.714 155.585 765.712 155.712C765.709 155.843 765.748 155.972 765.823 156.079C765.897 156.187 766.004 156.268 766.127 156.312L771.503 157.973C771.86 158.098 772.185 158.302 772.453 158.569C772.72 158.837 772.924 159.162 773.049 159.519L774.733 164.895C774.774 165.017 774.851 165.124 774.954 165.202C775.057 165.28 775.181 165.326 775.31 165.333C775.441 165.333 775.568 165.29 775.672 165.211C775.776 165.132 775.851 165.021 775.887 164.895L778.078 158.412Z" fill="#FFEC60" stroke="#191816" stroke-linecap="round" stroke-linejoin="round"/>
<path d="M714.516 141.568V143.876" stroke="#191816" stroke-linecap="round" stroke-linejoin="round"/>
<path d="M714.516 120.805V123.112" stroke="#191816" stroke-linecap="round" stroke-linejoin="round"/>
<path d="M709.901 136.954C709.901 137.867 710.172 138.759 710.679 139.518C711.186 140.277 711.906 140.868 712.75 141.218C713.593 141.567 714.521 141.658 715.416 141.48C716.311 141.302 717.133 140.863 717.778 140.217C718.424 139.572 718.863 138.75 719.041 137.855C719.219 136.96 719.128 136.032 718.779 135.189C718.429 134.345 717.838 133.625 717.079 133.118C716.32 132.611 715.428 132.34 714.515 132.34C713.603 132.34 712.711 132.069 711.952 131.562C711.193 131.055 710.602 130.335 710.252 129.492C709.903 128.648 709.812 127.721 709.99 126.825C710.168 125.93 710.607 125.108 711.253 124.463C711.898 123.818 712.72 123.378 713.615 123.2C714.51 123.022 715.438 123.113 716.281 123.463C717.125 123.812 717.845 124.403 718.352 125.162C718.859 125.921 719.13 126.813 719.13 127.726" stroke="#191816" stroke-linecap="round" stroke-linejoin="round"/>
</g>
<g opacity="0.2">
<path opacity="0.15" d="M63.4257 166.159C90.8816 166.093 113.127 161.19 113.113 155.209C113.098 149.228 90.8293 144.433 63.3733 144.499C35.9173 144.565 13.6716 149.468 13.6861 155.449C13.7005 161.431 35.9697 166.226 63.4257 166.159Z" fill="#191816"/>
<path d="M56.7328 73.1738L56.8425 118.563C56.8494 121.429 57.9919 124.175 60.0198 126.2C62.0476 128.225 64.7954 129.364 67.6612 129.367L208.228 129.027C209.648 129.023 211.054 128.74 212.364 128.192C213.675 127.644 214.864 126.843 215.865 125.834C216.865 124.825 217.656 123.629 218.193 122.314C218.73 120.999 219.002 119.591 218.994 118.171L218.884 72.7818L56.7328 73.1738Z" fill="#BF8256"/>
<path d="M218.922 72.7817L56.7328 73.1738L56.7485 79.6795L218.938 79.2873L218.922 72.7817Z" fill="#DEA47A"/>
<path d="M184.401 72.8626L65.3818 73.1504L65.4808 114.102C65.4903 116.389 66.2263 118.614 67.5825 120.456C68.9388 122.298 70.8452 123.662 73.0266 124.35L88.0806 129.315L184.537 129.082L184.401 72.8626Z" fill="#915E3A"/>
<path d="M56.7328 73.1738L56.8425 118.563C56.8494 121.429 57.9919 124.175 60.0198 126.2C62.0476 128.225 64.7954 129.364 67.6612 129.367L208.228 129.027C209.648 129.023 211.054 128.74 212.364 128.192C213.675 127.644 214.864 126.843 215.865 125.834C216.865 124.825 217.656 123.629 218.193 122.314C218.73 120.999 219.002 119.591 218.994 118.171L218.884 72.7818L56.7328 73.1738Z" stroke="#191816" stroke-linecap="round" stroke-linejoin="round"/>
<path d="M56.6596 42.9056L218.811 42.5136L218.795 36.008C218.797 34.5893 218.518 33.1843 217.974 31.8739C217.43 30.5636 216.632 29.3738 215.627 28.373C214.621 27.3723 213.428 26.5804 212.115 26.0429C210.802 25.5055 209.395 25.2331 207.977 25.2415L67.4103 25.5814C64.5479 25.5883 61.8056 26.732 59.7865 28.7609C57.7674 30.7898 56.6369 33.5377 56.6438 36.4L56.6596 42.9056Z" fill="#915E3A"/>
<path d="M207.977 25.2415L67.4103 25.5814C64.5479 25.5883 61.8056 26.732 59.7865 28.7609C57.7674 30.7898 56.6369 33.5377 56.6438 36.4L56.6596 42.9056C56.6526 40.0398 57.7819 37.2881 59.7999 35.2532C61.8179 33.2183 64.5601 32.0663 67.4259 32.0494L207.992 31.7095C209.413 31.7061 210.82 31.9831 212.133 32.5246C213.446 33.0662 214.64 33.8617 215.645 34.8654C216.65 35.8691 217.447 37.0614 217.99 38.3739C218.534 39.6863 218.813 41.0931 218.811 42.5136L218.795 36.008C218.797 34.5893 218.518 33.1843 217.974 31.8739C217.43 30.5636 216.632 29.3738 215.627 28.373C214.621 27.3723 213.428 26.5804 212.115 26.0429C210.802 25.5055 209.395 25.2331 207.977 25.2415Z" fill="#BF8256"/>
<path d="M56.6596 42.9056L218.811 42.5136L218.795 36.008C218.797 34.5893 218.518 33.1843 217.974 31.8739C217.43 30.5636 216.632 29.3738 215.627 28.373C214.621 27.3723 213.428 26.5804 212.115 26.0429C210.802 25.5055 209.395 25.2331 207.977 25.2415L67.4103 25.5814C64.5479 25.5883 61.8056 26.732 59.7865 28.7609C57.7674 30.7898 56.6369 33.5377 56.6438 36.4L56.6596 42.9056Z" stroke="#191816" stroke-linecap="round" stroke-linejoin="round"/>
<path d="M71.0216 26.0967L150.055 52.229L186.056 42.0263L174.186 0.614328C174.032 0.0658797 173.772 -0.446891 173.42 -0.894537C173.068 -1.34218 172.631 -1.71589 172.134 -1.99421C171.637 -2.27253 171.09 -2.45 170.525 -2.5164C169.959 -2.5828 169.386 -2.53682 168.838 -2.38113L69.5167 25.7995C70.028 25.8412 70.5329 25.9409 71.0216 26.0967Z" fill="#6DD627"/>
<path d="M71.0216 26.0996L84.3068 30.5049L175.361 4.67574L174.185 0.542051C174.032 -0.00639711 173.772 -0.519168 173.42 -0.966814C173.068 -1.41446 172.631 -1.78816 172.134 -2.06649C171.637 -2.34481 171.09 -2.52226 170.525 -2.58866C169.959 -2.65506 169.386 -2.6091 168.838 -2.45341L69.5167 25.8024C70.028 25.8441 70.5329 25.9438 71.0216 26.0996Z" fill="#9CEB60"/>
<path d="M71.0216 26.0967L150.055 52.229L186.056 42.0263L174.186 0.614328C174.032 0.0658798 173.772 -0.446891 173.42 -0.894537C173.068 -1.34218 172.631 -1.71589 172.134 -1.99421C171.637 -2.27253 171.09 -2.45 170.525 -2.5164C169.959 -2.5828 169.386 -2.53682 168.838 -2.38113L69.5167 25.7995C70.028 25.8412 70.5329 25.9409 71.0216 26.0967V26.0967Z" stroke="#191816" stroke-linecap="round" stroke-linejoin="round"/>
<path d="M201.549 57.6744L107.94 84.2242L96.144 42.6241C95.84 41.5179 95.9838 40.3366 96.5445 39.3358C97.1051 38.335 98.0374 37.5953 99.1395 37.2769L184.256 13.0792C184.804 12.9235 185.377 12.8775 185.943 12.9439C186.508 13.0103 187.055 13.1878 187.552 13.4661C188.049 13.7444 188.486 14.1181 188.838 14.5658C189.19 15.0134 189.45 15.5262 189.603 16.0746L201.549 57.6744Z" fill="#6DD627"/>
<path d="M99.1396 37.3154C98.0375 37.6337 97.1052 38.3734 96.5446 39.3742C95.9839 40.375 95.84 41.5564 96.1441 42.6625L97.32 46.8338L190.93 20.284L189.754 16.1127C189.607 15.5445 189.344 15.0126 188.983 14.5499C188.622 14.0872 188.17 13.7036 187.655 13.4228C187.139 13.142 186.572 12.97 185.987 12.9175C185.403 12.865 184.813 12.9331 184.256 13.1176L99.1396 37.3154Z" fill="#9CEB60"/>
<path d="M201.549 57.6744L107.94 84.2242L96.144 42.6241C95.84 41.5179 95.9838 40.3366 96.5445 39.3358C97.1051 38.335 98.0374 37.5953 99.1395 37.2769L184.256 13.0792C184.804 12.9235 185.377 12.8775 185.943 12.9439C186.508 13.0103 187.055 13.1878 187.552 13.4661C188.049 13.7444 188.486 14.1181 188.838 14.5658C189.19 15.0134 189.45 15.5262 189.603 16.0746L201.549 57.6744Z" stroke="#191816" stroke-linecap="round" stroke-linejoin="round"/>
<path d="M218.849 42.5141L56.6596 42.9062L56.7014 60.2044L218.89 59.8123L218.849 42.5141Z" fill="#BF8256"/>
<path d="M218.849 42.5141L56.6596 42.9062L56.6753 49.4119L218.864 49.0197L218.849 42.5141Z" fill="#DEA47A"/>
<path d="M65.3505 60.181L183.354 59.8956C182.767 58.5314 181.9 57.3055 180.81 56.2976C179.719 55.2897 178.429 54.5221 177.022 54.0446L142.775 42.8459L65.309 43.0332L65.3505 60.181Z" fill="#915E3A"/>
<path d="M218.849 42.5141L56.6596 42.9062L56.7014 60.2044L218.89 59.8123L218.849 42.5141Z" stroke="#191816" stroke-linecap="round" stroke-linejoin="round"/>
<path d="M218.89 59.8071L56.7014 60.1992L56.7328 73.1728L218.922 72.7807L218.89 59.8071Z" fill="#DEA47A"/>
<path d="M218.89 59.8071L56.7014 60.1992L56.7171 66.6672L218.906 66.2751L218.89 59.8071Z" fill="#F0C2A1"/>
<path d="M65.3818 73.1533L184.401 72.8655L184.38 64.1036C184.371 62.6523 184.06 61.2187 183.467 59.8941L65.3504 60.1797L65.3818 73.1533Z" fill="#BF8256"/>
<path d="M218.89 59.8071L56.7014 60.1992L56.7328 73.1728L218.922 72.7807L218.89 59.8071Z" stroke="#191816" stroke-linecap="round" stroke-linejoin="round"/>
<path d="M56.6439 36.3991C56.637 33.5367 57.7674 30.7888 59.7865 28.7599C61.8056 26.7311 64.548 25.5874 67.4104 25.5804C68.6901 25.5442 69.9656 25.7452 71.1723 26.173L168.534 58.5035C170.645 59.2084 172.48 60.5593 173.78 62.3649C175.08 64.1704 175.779 66.3391 175.779 68.5641L175.978 150.73C176.014 152.49 175.625 154.232 174.842 155.808C174.06 157.384 172.908 158.747 171.484 159.781C170.061 160.816 168.408 161.49 166.667 161.747C164.926 162.004 163.149 161.836 161.487 161.257L64.2003 128.814C62.0189 128.126 60.1125 126.762 58.7563 124.92C57.4 123.078 56.664 120.853 56.6546 118.566L56.6439 36.3991Z" fill="#DEA47A"/>
<path d="M168.384 58.503L71.0216 26.0973C69.8149 25.6694 68.5395 25.4685 67.2597 25.5047C64.3973 25.5116 61.6549 26.6553 59.6358 28.6842C57.6167 30.7131 56.4863 33.461 56.4932 36.3234L56.5243 49.1842C56.5273 46.3248 57.6609 43.5827 59.6779 41.556C61.6949 39.5292 64.4315 38.3823 67.2908 38.3655C68.5693 38.3484 69.8414 38.5488 71.0527 38.9581L168.415 71.3638C170.522 72.0737 172.354 73.4258 173.653 75.2302C174.953 77.0347 175.654 79.2008 175.659 81.4244L175.628 68.5636C175.629 66.3386 174.93 64.1699 173.629 62.3644C172.329 60.5588 170.494 59.2079 168.384 58.503Z" fill="#F0C2A1"/>
<path d="M56.6439 36.3991C56.637 33.5367 57.7674 30.7888 59.7865 28.7599C61.8056 26.7311 64.548 25.5874 67.4104 25.5804C68.6901 25.5442 69.9656 25.7452 71.1723 26.173L168.534 58.5035C170.645 59.2084 172.48 60.5593 173.78 62.3649C175.08 64.1704 175.779 66.3391 175.779 68.5641L175.978 150.73C176.014 152.49 175.625 154.232 174.842 155.808C174.06 157.384 172.908 158.747 171.484 159.781C170.061 160.816 168.408 161.49 166.667 161.747C164.926 162.004 163.149 161.836 161.487 161.257L64.2003 128.814C62.0189 128.126 60.1125 126.762 58.7563 124.92C57.4 123.078 56.664 120.853 56.6546 118.566L56.6439 36.3991Z" stroke="#191816" stroke-linecap="round" stroke-linejoin="round"/>
<path d="M67.4622 47.0527L71.0375 48.2098" stroke="#191816" stroke-linecap="round" stroke-linejoin="round"/>
<path d="M78 50.5215L157.786 77.0281" stroke="#191816" stroke-linecap="round" stroke-linejoin="round" stroke-dasharray="1.94 1.94"/>
<path d="M161.287 78.1855L164.824 79.3803" stroke="#191816" stroke-linecap="round" stroke-linejoin="round"/>
<path d="M118.622 131.877L122.197 133.072" stroke="#191816" stroke-linecap="round" stroke-linejoin="round"/>
<path d="M130.063 135.646L157.499 144.793" stroke="#191816" stroke-linecap="round" stroke-linejoin="round" stroke-dasharray="2.2 2.2"/>
<path d="M161.451 146.104L164.988 147.261" stroke="#191816" stroke-linecap="round" stroke-linejoin="round"/>
<path d="M28.8031 155.41C27.1677 155.29 25.6381 154.556 24.5206 153.356C23.4031 152.156 22.78 150.578 22.776 148.938C22.772 147.298 23.3875 145.717 24.4992 144.512C25.6109 143.306 27.1369 142.565 28.7717 142.437L56.9 142.369C58.5354 142.489 60.0649 143.223 61.1825 144.423C62.3 145.623 62.9231 147.201 62.9271 148.841C62.931 150.481 62.3156 152.062 61.2038 153.267C60.0921 154.473 58.5662 155.214 56.9314 155.342L28.8031 155.41Z" fill="#FFE500"/>
<path d="M28.7874 148.904L56.9157 148.836C58.0465 148.831 59.1581 149.127 60.1372 149.693C61.1164 150.259 61.9279 151.074 62.489 152.056C63.0772 151.079 63.3866 149.96 63.3837 148.82C63.3795 147.104 62.6941 145.461 61.4782 144.251C60.2623 143.041 58.6155 142.363 56.9 142.368L28.7717 142.436C27.0563 142.44 25.4128 143.125 24.2027 144.341C22.9927 145.557 22.3152 147.204 22.3193 148.919C22.3219 150.059 22.6368 151.177 23.2297 152.151C23.7919 151.172 24.6008 150.357 25.5759 149.787C26.5509 149.217 27.6581 148.913 28.7874 148.904Z" fill="#FFFACF"/>
<path d="M28.8031 155.41C27.1677 155.29 25.6381 154.556 24.5206 153.356C23.4031 152.156 22.78 150.578 22.776 148.938C22.772 147.298 23.3875 145.717 24.4992 144.512C25.6109 143.306 27.1369 142.565 28.7717 142.437L56.9 142.369C58.5354 142.489 60.0649 143.223 61.1825 144.423C62.3 145.623 62.9231 147.201 62.9271 148.841C62.931 150.481 62.3155 152.062 61.2038 153.267C60.0921 154.473 58.5662 155.214 56.9314 155.342L28.8031 155.41Z" stroke="#191816" stroke-miterlimit="10"/>
<path d="M69.905 155.313C69.0118 155.384 68.1137 155.269 67.267 154.976C66.4203 154.682 65.6433 154.218 64.9847 153.61C64.326 153.003 63.7999 152.266 63.4394 151.446C63.0789 150.625 62.8917 149.739 62.8895 148.843C62.8873 147.948 63.0703 147.061 63.4268 146.239C63.7834 145.417 64.3059 144.677 64.9616 144.067C65.6173 143.456 66.3921 142.988 67.2373 142.69C68.0826 142.393 68.9801 142.274 69.8737 142.34L98.0772 142.272C98.9704 142.201 99.8685 142.316 100.715 142.609C101.562 142.903 102.339 143.367 102.998 143.975C103.656 144.582 104.182 145.319 104.543 146.139C104.903 146.96 105.091 147.845 105.093 148.741C105.095 149.637 104.912 150.524 104.555 151.346C104.199 152.168 103.676 152.908 103.021 153.518C102.365 154.129 101.59 154.597 100.745 154.895C99.8997 155.192 99.0021 155.311 98.1086 155.245L69.905 155.313Z" fill="#FFE500"/>
<path d="M69.8893 148.804L98.0929 148.736C99.2278 148.736 100.343 149.034 101.327 149.599C102.311 150.164 103.131 150.977 103.704 151.956C104.292 150.979 104.601 149.86 104.598 148.72C104.596 147.867 104.426 147.024 104.097 146.237C103.767 145.451 103.286 144.737 102.68 144.138C102.074 143.538 101.355 143.064 100.565 142.743C99.7753 142.422 98.9298 142.261 98.0772 142.268L69.8737 142.336C68.1548 142.34 66.5074 143.024 65.2914 144.239C64.0753 145.454 63.3895 147.101 63.3837 148.82C63.3863 149.96 63.7011 151.078 64.2941 152.051C64.8624 151.069 65.6779 150.253 66.6594 149.683C67.641 149.113 68.7545 148.81 69.8893 148.804Z" fill="#FFFACF"/>
<path d="M69.905 155.313C69.0118 155.384 68.1137 155.269 67.267 154.976C66.4203 154.682 65.6433 154.218 64.9847 153.61C64.326 153.003 63.7999 152.266 63.4394 151.446C63.0789 150.625 62.8917 149.739 62.8895 148.843C62.8873 147.948 63.0703 147.061 63.4268 146.239C63.7834 145.417 64.3059 144.677 64.9616 144.067C65.6173 143.456 66.3921 142.988 67.2373 142.69C68.0826 142.393 68.9801 142.274 69.8737 142.34L98.0772 142.272C98.9704 142.201 99.8685 142.316 100.715 142.609C101.562 142.903 102.339 143.367 102.998 143.975C103.656 144.582 104.182 145.319 104.543 146.139C104.903 146.96 105.091 147.845 105.093 148.741C105.095 149.637 104.912 150.524 104.555 151.346C104.199 152.168 103.676 152.908 103.021 153.518C102.365 154.129 101.59 154.597 100.745 154.895C99.8997 155.192 99.0021 155.311 98.1086 155.245L69.905 155.313Z" stroke="#191816" stroke-miterlimit="10"/>
<path d="M24.4472 142.447C22.8118 142.327 21.2823 141.593 20.1647 140.393C19.0472 139.193 18.4241 137.615 18.4201 135.975C18.4162 134.335 19.0316 132.754 20.1434 131.549C21.2551 130.343 22.781 129.602 24.4158 129.474L52.5441 129.406C54.1795 129.526 55.7091 130.26 56.8266 131.46C57.9441 132.66 58.5672 134.238 58.5712 135.878C58.5751 137.518 57.9597 139.099 56.848 140.304C55.7363 141.51 54.2103 142.251 52.5755 142.379L24.4472 142.447Z" fill="#FFE500"/>
<path d="M24.4315 135.943L52.5598 135.875C53.6906 135.871 54.8023 136.166 55.7814 136.732C56.7605 137.298 57.572 138.113 58.1331 139.095C58.7213 138.118 59.0307 136.999 59.0278 135.859C59.0237 134.144 58.3382 132.5 57.1223 131.29C55.9064 130.08 54.2596 129.402 52.5442 129.407L24.4159 129.475C22.7004 129.479 21.0569 130.164 19.8469 131.38C18.6368 132.596 17.9593 134.243 17.9635 135.958C17.9661 137.098 18.2809 138.216 18.8738 139.19C19.4361 138.211 20.245 137.396 21.22 136.826C22.195 136.256 23.3022 135.952 24.4315 135.943Z" fill="#FFFACF"/>
<path d="M24.4472 142.447C22.8118 142.327 21.2823 141.593 20.1647 140.393C19.0472 139.193 18.4241 137.615 18.4201 135.975C18.4162 134.335 19.0316 132.754 20.1434 131.549C21.2551 130.343 22.781 129.602 24.4158 129.474L52.5441 129.406C54.1795 129.526 55.7091 130.26 56.8266 131.46C57.9441 132.66 58.5672 134.238 58.5712 135.878C58.5751 137.518 57.9597 139.099 56.848 140.304C55.7363 141.51 54.2103 142.251 52.5755 142.379L24.4472 142.447Z" stroke="#191816" stroke-miterlimit="10"/>
<path d="M65.5492 142.345C64.6559 142.415 63.7578 142.3 62.9112 142.007C62.0645 141.714 61.2874 141.249 60.6288 140.641C59.9701 140.034 59.4441 139.297 59.0835 138.477C58.723 137.657 58.5358 136.771 58.5336 135.875C58.5314 134.979 58.7144 134.092 59.0709 133.27C59.4275 132.448 59.95 131.709 60.6057 131.098C61.2614 130.487 62.0362 130.019 62.8815 129.722C63.7267 129.424 64.6242 129.305 65.5178 129.371L93.6085 129.303C94.5017 129.233 95.3998 129.348 96.2465 129.641C97.0932 129.934 97.8702 130.399 98.5289 131.006C99.1875 131.614 99.7136 132.351 100.074 133.171C100.435 133.991 100.622 134.877 100.624 135.773C100.626 136.669 100.443 137.556 100.087 138.378C99.7302 139.2 99.2077 139.939 98.552 140.55C97.8962 141.16 97.1215 141.629 96.2762 141.926C95.431 142.223 94.5334 142.343 93.6399 142.277L65.5492 142.345Z" fill="#FFE500"/>
<path d="M65.5335 135.843L93.6242 135.775C94.7591 135.776 95.874 136.073 96.8583 136.638C97.8426 137.203 98.662 138.016 99.2351 138.996C99.8233 138.019 100.133 136.9 100.13 135.759C100.128 134.907 99.9572 134.063 99.6279 133.277C99.2986 132.49 98.817 131.777 98.211 131.177C97.6049 130.577 96.8863 130.103 96.0965 129.783C95.3066 129.462 94.4611 129.3 93.6085 129.307L65.5178 129.375C63.7989 129.379 62.1515 130.063 60.9355 131.278C59.7195 132.493 59.0336 134.14 59.0279 135.859C59.0305 136.999 59.3453 138.117 59.9382 139.091C60.5065 138.108 61.322 137.292 62.3035 136.722C63.2851 136.152 64.3986 135.849 65.5335 135.843Z" fill="#FFFACF"/>
<path d="M65.5492 142.345C64.6559 142.415 63.7578 142.3 62.9112 142.007C62.0645 141.714 61.2874 141.249 60.6288 140.641C59.9701 140.034 59.4441 139.297 59.0835 138.477C58.723 137.657 58.5358 136.771 58.5336 135.875C58.5314 134.979 58.7144 134.092 59.0709 133.27C59.4275 132.448 59.95 131.709 60.6057 131.098C61.2614 130.487 62.0362 130.019 62.8815 129.722C63.7267 129.424 64.6242 129.305 65.5178 129.371L93.6085 129.303C94.5017 129.233 95.3998 129.348 96.2465 129.641C97.0932 129.934 97.8702 130.399 98.5289 131.006C99.1875 131.614 99.7136 132.351 100.074 133.171C100.435 133.991 100.622 134.877 100.624 135.773C100.626 136.669 100.443 137.556 100.087 138.378C99.7302 139.2 99.2077 139.939 98.552 140.55C97.8962 141.16 97.1215 141.629 96.2762 141.926C95.431 142.223 94.5334 142.343 93.6399 142.277L65.5492 142.345Z" stroke="#191816" stroke-miterlimit="10"/>
<path d="M30.9214 129.458C30.0282 129.528 29.1301 129.413 28.2834 129.12C27.4367 128.827 26.6597 128.362 26.0011 127.755C25.3424 127.147 24.8163 126.41 24.4558 125.59C24.0953 124.77 23.908 123.884 23.9059 122.988C23.9037 122.092 24.0866 121.205 24.4432 120.383C24.7998 119.561 25.3223 118.822 25.978 118.211C26.6337 117.601 27.4085 117.132 28.2537 116.835C29.099 116.538 29.9965 116.418 30.8901 116.484L58.9808 116.416C59.874 116.346 60.7721 116.461 61.6188 116.754C62.4655 117.047 63.2425 117.512 63.9011 118.12C64.5598 118.727 65.0859 119.464 65.4464 120.284C65.807 121.104 65.9942 121.99 65.9963 122.886C65.9985 123.782 65.8156 124.669 65.459 125.491C65.1024 126.313 64.5799 127.052 63.9242 127.663C63.2685 128.274 62.4938 128.742 61.6485 129.039C60.8032 129.337 59.9057 129.456 59.0122 129.39L30.9214 129.458Z" fill="#FFE500"/>
<path d="M30.9057 122.953L58.9964 122.885C60.1313 122.886 61.2463 123.183 62.2306 123.748C63.2149 124.313 64.0343 125.126 64.6074 126.105C65.1955 125.129 65.505 124.009 65.502 122.869C65.505 122.014 65.3381 121.166 65.011 120.375C64.6839 119.584 64.2031 118.866 63.5966 118.263C62.99 117.659 62.2697 117.182 61.4774 116.858C60.685 116.535 59.8364 116.372 58.9807 116.379L30.89 116.447C29.1711 116.451 27.5237 117.136 26.3077 118.351C25.0916 119.565 24.4058 121.212 24.4 122.931C24.4026 124.071 24.7175 125.189 25.3104 126.163C25.8834 125.187 26.7009 124.378 27.6822 123.816C28.6634 123.253 29.7745 122.955 30.9057 122.953Z" fill="#FFFACF"/>
<path d="M30.9214 129.458C30.0282 129.528 29.1301 129.413 28.2834 129.12C27.4367 128.827 26.6597 128.362 26.0011 127.755C25.3424 127.147 24.8163 126.41 24.4558 125.59C24.0953 124.77 23.908 123.884 23.9059 122.988C23.9037 122.092 24.0866 121.205 24.4432 120.383C24.7998 119.561 25.3223 118.822 25.978 118.211C26.6337 117.601 27.4085 117.132 28.2537 116.835C29.099 116.538 29.9965 116.418 30.8901 116.484L58.9808 116.416C59.874 116.346 60.7721 116.461 61.6188 116.754C62.4655 117.047 63.2425 117.512 63.9011 118.12C64.5598 118.727 65.0859 119.464 65.4464 120.284C65.807 121.104 65.9942 121.99 65.9963 122.886C65.9985 123.782 65.8156 124.669 65.459 125.491C65.1024 126.313 64.5799 127.052 63.9242 127.663C63.2685 128.274 62.4938 128.742 61.6485 129.039C60.8032 129.337 59.9057 129.456 59.0122 129.39L30.9214 129.458Z" stroke="#191816" stroke-miterlimit="10"/>
<path d="M71.9858 129.356C70.3504 129.235 68.8209 128.501 67.7034 127.301C66.5859 126.101 65.9628 124.523 65.9588 122.883C65.9548 121.243 66.5703 119.663 67.682 118.457C68.7937 117.252 70.3197 116.51 71.9545 116.382L100.083 116.314C101.718 116.435 103.248 117.168 104.365 118.368C105.483 119.569 106.106 121.146 106.11 122.786C106.114 124.426 105.498 126.007 104.387 127.212C103.275 128.418 101.749 129.159 100.114 129.288L71.9858 129.356Z" fill="#FFE500"/>
<path d="M71.97 122.853L100.098 122.785C101.229 122.781 102.341 123.077 103.32 123.643C104.299 124.209 105.111 125.024 105.672 126.006C106.26 125.029 106.569 123.91 106.566 122.77C106.569 121.917 106.404 121.072 106.079 120.284C105.754 119.496 105.277 118.779 104.674 118.176C104.072 117.573 103.356 117.095 102.568 116.77C101.78 116.444 100.935 116.278 100.083 116.28L71.9543 116.348C70.2389 116.352 68.5954 117.037 67.3853 118.253C66.1753 119.469 65.4978 121.116 65.5019 122.831C65.5045 123.971 65.8194 125.089 66.4123 126.063C66.9793 125.091 67.7902 124.283 68.765 123.72C69.7397 123.157 70.8444 122.858 71.97 122.853Z" fill="#FFFACF"/>
<path d="M71.9858 129.356C70.3504 129.235 68.8209 128.501 67.7034 127.301C66.5859 126.101 65.9628 124.523 65.9588 122.883C65.9548 121.243 66.5703 119.663 67.682 118.457C68.7937 117.252 70.3197 116.51 71.9545 116.382L100.083 116.314C101.718 116.435 103.248 117.168 104.365 118.368C105.483 119.569 106.106 121.146 106.11 122.786C106.114 124.426 105.498 126.007 104.387 127.212C103.275 128.418 101.749 129.159 100.114 129.288L71.9858 129.356Z" stroke="#191816" stroke-miterlimit="10"/>
<path d="M35.2145 116.434C34.3213 116.505 33.4232 116.39 32.5765 116.097C31.7298 115.804 30.9528 115.339 30.2941 114.731C29.6355 114.124 29.1094 113.387 28.7488 112.567C28.3883 111.746 28.2011 110.861 28.1989 109.965C28.1968 109.069 28.3797 108.182 28.7363 107.36C29.0928 106.538 29.6153 105.798 30.271 105.188C30.9267 104.577 31.7015 104.109 32.5468 103.811C33.392 103.514 34.2896 103.395 35.1831 103.461L63.2738 103.393C64.167 103.323 65.0651 103.438 65.9118 103.731C66.7585 104.024 67.5355 104.489 68.1942 105.096C68.8528 105.704 69.3789 106.441 69.7394 107.261C70.1 108.081 70.2872 108.967 70.2894 109.863C70.2915 110.759 70.1086 111.646 69.752 112.468C69.3955 113.29 68.873 114.029 68.2173 114.64C67.5616 115.25 66.7868 115.719 65.9415 116.016C65.0963 116.313 64.1987 116.432 63.3052 116.367L35.2145 116.434Z" fill="#FFE500"/>
<path d="M35.1989 109.968L63.2896 109.9C64.4245 109.901 65.5395 110.198 66.5238 110.763C67.508 111.328 68.3274 112.141 68.9005 113.121C69.4887 112.144 69.7981 111.025 69.7952 109.884C69.7932 109.032 69.6226 108.188 69.2933 107.402C68.964 106.615 68.4825 105.902 67.8764 105.302C67.2704 104.702 66.5517 104.229 65.7619 103.908C64.972 103.587 64.1265 103.425 63.274 103.432L35.1833 103.5C33.4644 103.504 31.8169 104.188 30.6009 105.403C29.3849 106.618 28.6991 108.265 28.6933 109.984C28.6959 111.124 29.0107 112.242 29.6036 113.216C30.172 112.233 30.9874 111.417 31.969 110.847C32.9505 110.277 34.064 109.974 35.1989 109.968Z" fill="#FFFACF"/>
<path d="M35.2145 116.434C34.3213 116.505 33.4232 116.39 32.5765 116.097C31.7298 115.804 30.9528 115.339 30.2941 114.731C29.6355 114.124 29.1094 113.387 28.7488 112.567C28.3883 111.746 28.2011 110.861 28.1989 109.965C28.1968 109.069 28.3797 108.182 28.7363 107.36C29.0928 106.538 29.6153 105.798 30.271 105.188C30.9267 104.577 31.7015 104.109 32.5468 103.811C33.392 103.514 34.2896 103.395 35.1831 103.461L63.2738 103.393C64.167 103.323 65.0651 103.438 65.9118 103.731C66.7585 104.024 67.5355 104.489 68.1942 105.096C68.8528 105.704 69.3789 106.441 69.7394 107.261C70.1 108.081 70.2872 108.967 70.2894 109.863C70.2915 110.759 70.1086 111.646 69.752 112.468C69.3955 113.29 68.873 114.029 68.2173 114.64C67.5616 115.25 66.7868 115.719 65.9415 116.016C65.0963 116.313 64.1987 116.432 63.3052 116.367L35.2145 116.434Z" stroke="#191816" stroke-miterlimit="10"/>
<path d="M28.6776 103.52C27.0422 103.399 25.5127 102.665 24.3952 101.465C23.2776 100.265 22.6545 98.6872 22.6506 97.0474C22.6466 95.4075 23.2621 93.8267 24.3738 92.6212C25.4855 91.4157 27.0114 90.6745 28.6462 90.546L56.7746 90.478C58.4099 90.5986 59.9395 91.3324 61.057 92.5325C62.1745 93.7326 62.7976 95.3104 62.8016 96.9503C62.8056 98.5901 62.1901 100.171 61.0784 101.376C59.9667 102.582 58.4407 103.323 56.8059 103.452L28.6776 103.52Z" fill="#FFE500"/>
<path d="M28.6619 97.0129L56.7902 96.9449C57.921 96.9408 59.0327 97.2368 60.0118 97.8025C60.9909 98.3683 61.8024 99.1837 62.3635 100.165C62.9517 99.1887 63.2611 98.0695 63.2582 96.9293C63.2541 95.2138 62.5687 93.5703 61.3527 92.3603C60.1368 91.1502 58.49 90.4727 56.7746 90.4769L28.6463 90.5449C26.9308 90.5491 25.2873 91.2345 24.0773 92.4504C22.8672 93.6663 22.1897 95.3131 22.1939 97.0286C22.1965 98.1688 22.5113 99.2865 23.1042 100.26C23.6665 99.281 24.4754 98.4659 25.4504 97.8962C26.4254 97.3265 27.5326 97.0219 28.6619 97.0129Z" fill="#FFFACF"/>
<path d="M28.6776 103.52C27.0422 103.399 25.5127 102.665 24.3952 101.465C23.2776 100.265 22.6545 98.6872 22.6506 97.0474C22.6466 95.4075 23.2621 93.8267 24.3738 92.6212C25.4855 91.4157 27.0114 90.6745 28.6462 90.546L56.7745 90.478C58.4099 90.5986 59.9395 91.3324 61.057 92.5325C62.1745 93.7326 62.7976 95.3104 62.8016 96.9503C62.8056 98.5901 62.1901 100.171 61.0784 101.376C59.9667 102.582 58.4407 103.323 56.8059 103.452L28.6776 103.52Z" stroke="#191816" stroke-miterlimit="10"/>
<path d="M252.333 18.1392C252.762 16.2393 253.718 14.499 255.091 13.1185C256.465 11.7381 258.201 10.7736 260.099 10.3362L275.695 6.53796C275.982 6.46731 276.236 6.30267 276.417 6.07041C276.599 5.83815 276.697 5.5517 276.696 5.25697C276.696 4.96223 276.596 4.67627 276.413 4.44488C276.231 4.2135 275.976 4.05009 275.689 3.98083L260.075 0.44612C258.175 0.0178514 256.435 -0.9382 255.054 -2.31199C253.674 -3.68577 252.709 -5.42145 252.272 -7.31923L248.474 -22.9161C248.405 -23.2044 248.241 -23.4611 248.009 -23.6448C247.776 -23.8285 247.489 -23.9284 247.193 -23.9283C246.899 -23.9325 246.613 -23.8325 246.387 -23.646C246.16 -23.4596 246.007 -23.1988 245.954 -22.91L242.231 -7.29495C241.795 -5.39888 240.836 -3.66294 239.464 -2.28383C238.091 -0.904722 236.36 0.0624207 234.466 0.508039L218.869 4.11822C218.582 4.18886 218.328 4.3535 218.147 4.58577C217.965 4.81803 217.867 5.10447 217.868 5.39921C217.869 5.69394 217.968 5.97991 218.151 6.21129C218.333 6.44267 218.588 6.60608 218.875 6.67534L234.49 10.3981C236.441 10.7836 238.241 11.7197 239.677 13.0957C241.113 14.4716 242.125 16.2299 242.594 18.1627L246.392 33.7596C246.446 34.0481 246.6 34.3082 246.828 34.4935C247.056 34.6788 247.342 34.7775 247.635 34.7719C247.932 34.7705 248.219 34.6693 248.45 34.4845C248.682 34.2996 248.844 34.0421 248.911 33.7535L252.333 18.1392Z" fill="#FFEC60" stroke="#191816" stroke-linecap="round" stroke-linejoin="round"/>
<path d="M17.4702 40.8169L29.6818 36.6884C29.913 36.6151 30.1144 36.4693 30.2562 36.2725C30.398 36.0757 30.4726 35.8385 30.4689 35.596C30.4656 35.3549 30.3877 35.1207 30.2458 34.9257C30.1039 34.7307 29.905 34.5846 29.6765 34.5073L19.628 31.1848C18.9521 30.9636 18.3375 30.5871 17.8334 30.0855C17.3293 29.5839 16.9499 28.9711 16.7254 28.2962L13.3543 18.2639C13.2701 18.0425 13.1205 17.8521 12.9253 17.7179C12.7302 17.5837 12.4988 17.5122 12.262 17.5127C12.0252 17.5133 11.7941 17.586 11.5996 17.7211C11.4051 17.8562 11.2564 18.0474 11.1733 18.2692L7.85073 28.3177C7.62957 28.9936 7.25306 29.6082 6.75142 30.1123C6.24978 30.6164 5.63697 30.9958 4.96217 31.2203L-5.07019 34.5914C-5.29826 34.6697 -5.49643 34.8168 -5.63739 35.0125C-5.77835 35.2081 -5.85517 35.4427 -5.85726 35.6838C-5.85975 35.9263 -5.78402 36.1632 -5.6413 36.3593C-5.49858 36.5554 -5.29646 36.7003 -5.06492 36.7724L4.98362 40.095C5.65671 40.3213 6.26863 40.6996 6.77198 41.2006C7.27533 41.7015 7.65658 42.3116 7.88619 42.9835L11.3702 53.0532C11.4544 53.2746 11.6041 53.465 11.7992 53.5992C11.9943 53.7334 12.2257 53.805 12.4626 53.8044C12.6994 53.8038 12.9304 53.7311 13.1249 53.596C13.3194 53.4609 13.4681 53.2697 13.5513 53.048L17.4702 40.8169Z" fill="#FFEC60" stroke="#191816" stroke-linecap="round" stroke-linejoin="round"/>
</g>
</g>
<defs>
<linearGradient id="paint0_linear_1060_112755" x1="503" y1="26" x2="503" y2="150" gradientUnits="userSpaceOnUse">
<stop stop-color="#54A9FF"/>
<stop offset="1" stop-color="#87C3FF"/>
</linearGradient>
</defs>
</svg>
