<svg width="121" height="90" viewBox="0 0 121 90" fill="none" xmlns="http://www.w3.org/2000/svg">
<path opacity="0.15" d="M79.5485 85.8177C79.5485 87.8507 63.2333 89.4948 43.1165 89.4948C22.9997 89.4948 6.71973 87.8507 6.71973 85.8177C6.71973 83.7846 23.0349 82.1582 43.1517 82.1582C63.2685 82.1582 79.5485 83.8023 79.5485 85.8177Z" fill="#191816"/>
<path d="M3.85115 18.7285C3.31577 18.7331 2.80363 18.9488 2.42505 19.3291C2.04646 19.7094 1.83174 20.2238 1.82715 20.7615V67.928C1.82715 68.4672 2.04039 68.9843 2.41997 69.3656C2.79954 69.7468 3.31435 69.961 3.85115 69.961H73.4415C74.2443 69.957 75.0141 69.6401 75.5887 69.0771L85.9199 58.6644C86.2006 58.3807 86.4228 58.0442 86.5738 57.6741C86.7248 57.304 86.8017 56.9076 86.7999 56.5076V20.7615C86.7999 20.2224 86.5867 19.7052 86.2071 19.324C85.8275 18.9427 85.3127 18.7285 84.7759 18.7285H3.85115Z" fill="white"/>
<path d="M86.2999 56.5076L86.2999 56.5098C86.3014 56.8443 86.2371 57.1758 86.1109 57.4852C85.9846 57.7946 85.7989 58.0758 85.5645 58.3128L75.2388 68.7199C75.238 68.7208 75.2372 68.7216 75.2363 68.7224C74.7549 69.1928 74.1112 69.4573 73.4404 69.461H3.85115C3.44768 69.461 3.06029 69.3001 2.77431 69.0128C2.48825 68.7255 2.32715 68.3353 2.32715 67.928V20.7638C2.33114 20.3572 2.49374 19.9688 2.77939 19.6818C3.06495 19.395 3.45063 19.2325 3.85346 19.2285H84.7759C85.1794 19.2285 85.5668 19.3895 85.8528 19.6767C86.1388 19.9641 86.2999 20.3542 86.2999 20.7615V56.5076Z" stroke="#191816" stroke-linecap="round" stroke-linejoin="round"/>
<path d="M86.835 20.4964V28.4871L1.82694 28.4871V20.4964C1.82694 20.0275 2.01237 19.5778 2.34244 19.2463C2.6725 18.9148 3.12016 18.7285 3.58694 18.7285L85.075 18.7285C85.5417 18.7285 85.9894 18.9148 86.3195 19.2463C86.6495 19.5778 86.835 20.0275 86.835 20.4964Z" fill="#FF6242"/>
<path d="M10.3281 44.3438H41.9025" stroke="#191816" stroke-linecap="round" stroke-linejoin="round"/>
<path d="M10.3281 37.0254H33.4017" stroke="#191816" stroke-linecap="round" stroke-linejoin="round"/>
<path d="M40.8993 52.9004C40.4449 53.3505 40.0847 53.8874 39.8399 54.4794C39.595 55.0714 39.4705 55.7067 39.4737 56.3477C39.4737 57.6418 39.9855 58.8829 40.8964 59.7979C41.8074 60.7129 43.043 61.227 44.3313 61.227C45.6196 61.227 46.8552 60.7129 47.7661 59.7979C48.6771 58.8829 49.1889 57.6418 49.1889 56.3477V57.32C49.1889 58.3562 49.5987 59.35 50.3281 60.0827C51.0576 60.8154 52.0469 61.227 53.0785 61.227C54.1101 61.227 55.0994 60.8154 55.8289 60.0827C56.5583 59.35 56.9681 58.3562 56.9681 57.32C56.9681 58.3562 57.3779 59.35 58.1073 60.0827C58.8368 60.8154 59.8261 61.227 60.8577 61.227H63.7617" stroke="#191816" stroke-linecap="round" stroke-linejoin="round"/>
<path d="M3.58715 18.7285H85.0751C85.5419 18.7285 85.9896 18.9148 86.3197 19.2463C86.6497 19.5778 86.8351 20.0275 86.8351 20.4964V22.388H1.82715V20.4964C1.82715 20.0275 2.01258 19.5778 2.34264 19.2463C2.67271 18.9148 3.12037 18.7285 3.58715 18.7285Z" fill="#FF866E"/>
<path d="M86.335 20.4964V27.9871L2.32694 27.9871V20.4964C2.32694 20.1594 2.46024 19.8367 2.69678 19.5991C2.93324 19.3615 3.25349 19.2285 3.58694 19.2285L85.075 19.2285C85.4084 19.2285 85.7287 19.3615 85.9651 19.5991C86.2017 19.8367 86.335 20.1594 86.335 20.4964Z" stroke="#191816" stroke-linecap="round" stroke-linejoin="round"/>
<path d="M118.04 10.8793L80.0241 49.0651L72.4385 41.4633L110.454 3.29524C111.46 2.28249 112.826 1.7126 114.25 1.71094C115.674 1.70928 117.041 2.27599 118.049 3.2864C119.057 4.2968 119.624 5.66813 119.626 7.09872C119.628 8.5293 119.064 9.90195 118.058 10.9147L118.04 10.8793Z" fill="#00B8F0"/>
<path d="M118.111 3.33006C117.618 2.81677 117.027 2.40849 116.374 2.12963C115.721 1.85076 115.019 1.70703 114.309 1.70703C113.599 1.70703 112.897 1.85076 112.244 2.12963C111.59 2.40849 111 2.81677 110.507 3.33006L72.4209 41.4274L76.2929 45.299L118.111 3.33006Z" fill="#4ACFFF"/>
<path d="M86.5714 57.7637H76.7154C76.18 57.7683 75.6679 57.984 75.2893 58.3642C74.9107 58.7445 74.696 59.2589 74.6914 59.7967V69.6967" stroke="#191816" stroke-linecap="round" stroke-linejoin="round"/>
<path d="M100.933 12.7871L108.536 20.4242" stroke="#191816" stroke-linecap="round" stroke-linejoin="round"/>
<path d="M91.4287 12.7893L98.0815 6.1068C99.3422 4.84157 101.051 4.13086 102.834 4.13086C104.616 4.13086 106.325 4.84157 107.586 6.1068" stroke="#191816" stroke-linecap="round" stroke-linejoin="round"/>
<path d="M80.0064 49.0647L68.6191 52.9009L72.4384 41.4629L80.0064 49.0647Z" fill="#C0DCEB" stroke="#191816" stroke-linecap="round" stroke-linejoin="round"/>
<path d="M117.686 10.5266L80.0237 48.3568L73.1445 41.4629L110.809 3.64808L110.809 3.64759C111.722 2.72896 112.96 2.21244 114.25 2.21094C115.541 2.20944 116.78 2.72307 117.695 3.63957C118.61 4.55615 119.125 5.8006 119.126 7.09929C119.128 8.33337 118.665 9.51956 117.836 10.4228C117.781 10.4475 117.73 10.4825 117.686 10.5266Z" stroke="#191816" stroke-linecap="round" stroke-linejoin="round"/>
</svg>
