<svg width="48" height="48" viewBox="0 0 48 48" fill="none" xmlns="http://www.w3.org/2000/svg">
<g filter="url(#filter0_d_1615_112241)">
<circle cx="24" cy="20" r="20" fill="#6CB4FE"/>
</g>
<mask id="mask0_1615_112241" style="mask-type:alpha" maskUnits="userSpaceOnUse" x="4" y="0" width="40" height="40">
<circle cx="24" cy="20" r="20" fill="#6CB4FE"/>
</mask>
<g mask="url(#mask0_1615_112241)">
<path d="M35.3725 15.4215V12.8891C35.3661 12.6107 35.2748 12.3406 35.1107 12.1144C34.9466 11.8881 34.7173 11.7163 34.4528 11.6213C34.1884 11.5263 33.9011 11.5127 33.6287 11.5821C33.3563 11.6516 33.1114 11.8009 32.9262 12.0106L27.5115 18.6838C27.3301 18.9086 27.0824 19.0717 26.8029 19.1504C26.5234 19.2292 26.2261 19.2196 25.9524 19.123L18.4175 16.4551C18.1455 16.3582 17.8499 16.3473 17.5714 16.4239C17.2929 16.5006 17.0453 16.6609 16.8627 16.8828C16.6802 17.1047 16.5717 17.3772 16.5522 17.6628C16.5327 17.9483 16.6032 18.2329 16.754 18.477L18.0587 20.6218C18.2486 20.4645 18.4747 20.3557 18.7169 20.305C18.9592 20.2543 19.2103 20.2633 19.4483 20.3311L26.9635 22.999C27.2375 23.0937 27.5342 23.1023 27.8133 23.0236C28.0923 22.945 28.3401 22.783 28.5227 22.5598L33.9439 15.8801C34.1203 15.6861 34.3453 15.5416 34.5961 15.461C34.8469 15.3805 35.1147 15.3669 35.3725 15.4215Z" fill="#FFF48C"/>
<path d="M32.5019 12.0632C32.6799 11.8359 32.9228 11.671 33.1967 11.5915C33.4706 11.5121 33.7619 11.522 34.0301 11.62C34.2982 11.7179 34.5299 11.8989 34.6927 12.1379C34.8555 12.3768 34.9415 12.6618 34.9385 12.9531L34.849 21.6293C34.8491 21.9168 34.9366 22.1972 35.0993 22.4316C35.262 22.6661 35.4919 22.843 35.7571 22.9379L43.1183 25.6599C43.3776 25.7609 43.6007 25.9401 43.7582 26.1738C43.9157 26.4075 44 26.6847 44 26.9685C44 27.2524 43.9157 27.5295 43.7582 27.7632C43.6007 27.9969 43.3776 28.1762 43.1183 28.2772L35.1944 31.1561C34.9393 31.2483 34.7165 31.4155 34.5538 31.6366C34.3911 31.8577 34.2958 32.1231 34.2798 32.3993L33.8129 40.9447C33.805 41.2505 33.6994 41.5452 33.5123 41.7838C33.3251 42.0224 33.0668 42.1917 32.7767 42.2659C32.4867 42.3401 32.1809 42.315 31.906 42.1946C31.6312 42.0742 31.4024 41.865 31.2548 41.599L27.0082 34.2969C26.8451 34.0205 26.5937 33.8102 26.2965 33.7017C25.9993 33.5932 25.6746 33.5931 25.3774 33.7014L17.5686 36.5412C17.297 36.6364 17.003 36.6414 16.7285 36.5555C16.454 36.4696 16.213 36.2972 16.04 36.0628C15.867 35.8285 15.7707 35.5442 15.765 35.2506C15.7593 34.9569 15.8443 34.6689 16.0081 34.4277L20.9454 27.492C21.1063 27.2652 21.1966 26.994 21.2046 26.7139C21.2126 26.4337 21.1379 26.1576 20.9901 25.9216L16.6284 18.5933C16.4806 18.3459 16.4115 18.0578 16.4306 17.7685C16.4497 17.4793 16.5561 17.2032 16.7351 16.9785C16.914 16.7537 17.1568 16.5913 17.4298 16.5137C17.7028 16.4361 17.9926 16.4472 18.2593 16.5453L25.6332 19.2476C25.9018 19.3434 26.1927 19.3521 26.4662 19.2725C26.7398 19.1929 26.9827 19.0288 27.1617 18.8027L32.5019 12.0632Z" stroke="#191816" stroke-width="0.5" stroke-linecap="round" stroke-linejoin="round"/>
<path d="M32.6987 12.2173L32.6978 12.2185L27.3577 18.9578C27.3577 18.9579 27.3577 18.9579 27.3576 18.9579C27.1468 19.2242 26.8601 19.4182 26.5361 19.5125C26.212 19.6069 25.8672 19.5966 25.5492 19.483L25.5472 19.4823L25.5472 19.4823L18.1733 16.78L18.173 16.7799C17.9559 16.7 17.7202 16.6911 17.4981 16.7542C17.276 16.8174 17.0775 16.9497 16.9306 17.1342C16.7837 17.3187 16.6958 17.5461 16.6801 17.785C16.6643 18.0239 16.7215 18.2616 16.843 18.465L16.8433 18.4654L21.2036 25.7915C21.3766 26.069 21.4639 26.3929 21.4545 26.721C21.4451 27.0501 21.339 27.3692 21.1492 27.6366L21.149 27.637L16.2135 34.5703C16.08 34.768 16.0102 35.0043 16.0149 35.2457C16.0197 35.488 16.0991 35.722 16.2411 35.9143C16.383 36.1066 16.58 36.2471 16.8032 36.3169C17.0258 36.3866 17.2641 36.3827 17.4845 36.3057C17.485 36.3056 17.4854 36.3054 17.4859 36.3053L25.2918 33.4665C25.2918 33.4665 25.2919 33.4665 25.2919 33.4665C25.6445 33.3381 26.0298 33.3382 26.3823 33.4669C26.7347 33.5956 27.0315 33.8444 27.2235 34.1698L27.2243 34.1712L31.4709 41.4734L31.4734 41.4777L31.4733 41.4777C31.5948 41.6965 31.7824 41.8675 32.0064 41.9656C32.2302 42.0637 32.4789 42.084 32.7148 42.0237C32.9507 41.9633 33.162 41.8253 33.3155 41.6295C33.4692 41.4336 33.5564 41.1908 33.563 40.9382L33.5632 40.9311L33.5633 40.9311L34.0302 32.3857L34.0302 32.3849C34.049 32.0607 34.1608 31.7489 34.3524 31.4885C34.544 31.228 34.8071 31.0303 35.1093 30.921L35.109 30.9212L35.1944 31.1561L35.1094 30.921L32.6987 12.2173ZM32.6987 12.2173C32.8448 12.0307 33.0435 11.8963 33.2663 11.8316C33.4892 11.767 33.7261 11.7751 33.9443 11.8548C34.1627 11.9345 34.3523 12.0823 34.4861 12.2787C34.6199 12.4751 34.6909 12.7099 34.6885 12.9505C34.6885 12.9505 34.6885 12.9505 34.6885 12.9506L34.599 21.6267H34.599M32.6987 12.2173L34.599 21.6267M34.599 21.6267L34.599 21.6294M34.599 21.6267L34.599 21.6294M34.599 21.6294C34.5992 21.9674 34.702 22.2976 34.8939 22.5742M34.599 21.6294L34.8939 22.5742M34.8939 22.5742C35.0856 22.8504 35.3571 23.06 35.6715 23.1728M34.8939 22.5742L35.6715 23.1728M35.6715 23.1728C35.672 23.173 35.6725 23.1731 35.6729 23.1733M35.6715 23.1728L35.6729 23.1733M35.6729 23.1733L43.0295 25.8936L35.6729 23.1733ZM43.0301 28.0432C43.0292 28.0435 43.0284 28.0439 43.0276 28.0442L43.1183 28.2772L43.0329 28.0422L43.0301 28.0432Z" fill="#FFE500" stroke="black" stroke-width="0.5"/>
<path d="M20.3579 9.57378C20.4499 9.17834 20.6507 8.81659 20.9377 8.5295C21.2246 8.2424 21.5862 8.04146 21.9814 7.94943L25.2363 7.16471C25.2965 7.15359 25.3509 7.12146 25.3896 7.07405C25.4284 7.02664 25.4491 6.96701 25.4481 6.90576C25.448 6.84393 25.427 6.78395 25.3886 6.73554C25.3501 6.68712 25.2965 6.65309 25.2363 6.63896L21.9814 5.85424C21.5854 5.76392 21.2229 5.56354 20.9357 5.27617C20.6485 4.9888 20.4482 4.62612 20.3579 4.22989L19.5736 0.973331C19.5609 0.914539 19.528 0.862017 19.4808 0.824786C19.4336 0.787556 19.3749 0.76794 19.3148 0.769305C19.254 0.768998 19.1949 0.788861 19.1466 0.825782C19.0984 0.862702 19.0637 0.914596 19.0481 0.973331L18.2638 4.22989C18.175 4.62552 17.9761 4.98796 17.6903 5.27538C17.4044 5.56279 17.0431 5.76347 16.6481 5.85424L13.3932 6.63896C13.333 6.65309 13.2794 6.68712 13.241 6.73554C13.2025 6.78395 13.1816 6.84393 13.1814 6.90576C13.1804 6.96701 13.2011 7.02664 13.2399 7.07405C13.2787 7.12146 13.333 7.15359 13.3932 7.16471L16.6481 7.94943C17.0542 8.03042 17.4284 8.22665 17.726 8.51469C18.0237 8.80273 18.2321 9.1704 18.3265 9.57378L19.1108 12.8303C19.125 12.8905 19.159 12.9442 19.2074 12.9826C19.2558 13.0211 19.3157 13.0421 19.3775 13.0422C19.4387 13.0432 19.4983 13.0225 19.5457 12.9837C19.5931 12.9449 19.6252 12.8906 19.6363 12.8303L20.3579 9.57378Z" fill="#FFEC60" stroke="#191816" stroke-width="0.5" stroke-linecap="round" stroke-linejoin="round"/>
<path d="M6.47064 21.8815C6.56262 21.486 6.76346 21.1243 7.05041 20.8372C7.33735 20.5501 7.69893 20.3491 8.09416 20.2571L11.3491 19.4724C11.4093 19.4613 11.4636 19.4291 11.5024 19.3817C11.5411 19.3343 11.5618 19.2747 11.5608 19.2134C11.5607 19.1516 11.5397 19.0916 11.5013 19.0432C11.4629 18.9948 11.4092 18.9608 11.3491 18.9466L8.09416 18.1619C7.69813 18.0716 7.33564 17.8712 7.04842 17.5839C6.76119 17.2965 6.56092 16.9338 6.47064 16.5376L5.68632 13.281C5.67358 13.2222 5.64078 13.1697 5.59355 13.1325C5.54632 13.0952 5.48761 13.0756 5.4275 13.077C5.36675 13.0767 5.30762 13.0965 5.25936 13.1335C5.2111 13.1704 5.17645 13.2223 5.16083 13.281L4.37652 16.5376C4.2877 16.9332 4.08888 17.2956 3.803 17.5831C3.51711 17.8705 3.15582 18.0712 2.76083 18.1619L-0.494071 18.9466C-0.554232 18.9608 -0.607867 18.9948 -0.646298 19.0432C-0.684729 19.0916 -0.705706 19.1516 -0.705836 19.2134C-0.706855 19.2747 -0.686138 19.3343 -0.647366 19.3817C-0.608595 19.4291 -0.554279 19.4613 -0.494071 19.4724L2.76083 20.2571C3.16692 20.3381 3.54114 20.5343 3.83876 20.8224C4.13639 21.1104 4.34486 21.4781 4.43926 21.8815L5.22358 25.138C5.2377 25.1982 5.27171 25.2519 5.32011 25.2903C5.3685 25.3288 5.42845 25.3498 5.49024 25.3499C5.55146 25.3509 5.61106 25.3302 5.65845 25.2914C5.70583 25.2526 5.73794 25.1983 5.74907 25.138L6.47064 21.8815Z" fill="#FFEC60" stroke="#191816" stroke-width="0.5" stroke-linecap="round" stroke-linejoin="round"/>
<path d="M8.86771 36.4582L11.4089 35.6029C11.4578 35.5888 11.5007 35.5588 11.5305 35.5175C11.5604 35.4763 11.5756 35.4262 11.5736 35.3753C11.5738 35.3257 11.5578 35.2774 11.5281 35.2378C11.4984 35.1981 11.4565 35.1693 11.4089 35.1556L9.31476 34.4572C9.17395 34.4083 9.04626 34.3277 8.94154 34.2215C8.83683 34.1154 8.7579 33.9866 8.71084 33.8451L8.0128 31.7499C7.99628 31.7031 7.96538 31.6627 7.92453 31.6345C7.88368 31.6063 7.83496 31.5918 7.78535 31.593C7.736 31.593 7.68781 31.608 7.64718 31.636C7.60655 31.664 7.57541 31.7038 7.5579 31.7499L6.85986 33.8451C6.81511 33.9869 6.73685 34.1159 6.63173 34.2211C6.52661 34.3263 6.39771 34.4046 6.25594 34.4493L4.16182 35.1556C4.11475 35.1711 4.07376 35.201 4.0447 35.2412C4.01564 35.2813 4 35.3296 4 35.3792C4 35.4288 4.01564 35.4771 4.0447 35.5173C4.07376 35.5574 4.11475 35.5874 4.16182 35.6029L6.25594 36.3013C6.39735 36.3491 6.52561 36.4293 6.63047 36.5356C6.73533 36.6419 6.81389 36.7713 6.85986 36.9133L7.5579 39.0085C7.57508 39.0555 7.60591 39.0964 7.64644 39.1257C7.68696 39.1551 7.73534 39.1717 7.78535 39.1733C7.83564 39.1727 7.88453 39.1566 7.92526 39.1271C7.966 39.0976 7.99658 39.0561 8.0128 39.0085L8.86771 36.4582Z" fill="#FFEC60" stroke="#191816" stroke-width="0.5" stroke-linecap="round" stroke-linejoin="round"/>
</g>
<defs>
<filter id="filter0_d_1615_112241" x="0" y="0" width="48" height="48" filterUnits="userSpaceOnUse" color-interpolation-filters="sRGB">
<feFlood flood-opacity="0" result="BackgroundImageFix"/>
<feColorMatrix in="SourceAlpha" type="matrix" values="0 0 0 0 0 0 0 0 0 0 0 0 0 0 0 0 0 0 127 0" result="hardAlpha"/>
<feOffset dy="4"/>
<feGaussianBlur stdDeviation="2"/>
<feComposite in2="hardAlpha" operator="out"/>
<feColorMatrix type="matrix" values="0 0 0 0 0 0 0 0 0 0 0 0 0 0 0 0 0 0 0.15 0"/>
<feBlend mode="normal" in2="BackgroundImageFix" result="effect1_dropShadow_1615_112241"/>
<feBlend mode="normal" in="SourceGraphic" in2="effect1_dropShadow_1615_112241" result="shape"/>
</filter>
</defs>
</svg>
