<svg width="48" height="48" viewBox="0 0 48 48" fill="none" xmlns="http://www.w3.org/2000/svg">
<g filter="url(#filter0_d_3412_286197)">
<circle cx="24" cy="20" r="20" fill="#6CB4FE"/>
</g>
<mask id="mask0_3412_286197" style="mask-type:alpha" maskUnits="userSpaceOnUse" x="4" y="0" width="40" height="40">
<circle cx="24" cy="20" r="20" fill="#6CB4FE"/>
</mask>
<g mask="url(#mask0_3412_286197)">
<path d="M35.7343 14.0271H14.6297C13.7296 14.0271 13 14.7567 13 15.6568V45.1951C13 46.0951 13.7296 46.8248 14.6297 46.8248H35.7343C36.6344 46.8248 37.364 46.0951 37.364 45.1951V15.6568C37.364 14.7567 36.6344 14.0271 35.7343 14.0271Z" fill="#F7E5C6"/>
<path d="M35.4899 14H14.8742C14.6278 13.9991 14.3837 14.047 14.1559 14.1408C13.9281 14.2347 13.7211 14.3727 13.5469 14.5469C13.3727 14.7211 13.2347 14.9281 13.1408 15.1559C13.047 15.3837 12.9991 15.6278 13 15.8742V18.6854C12.9991 18.439 13.047 18.1949 13.1408 17.9671C13.2347 17.7393 13.3727 17.5324 13.5469 17.3582C13.7211 17.184 13.9281 17.0459 14.1559 16.9521C14.3837 16.8582 14.6278 16.8103 14.8742 16.8112H35.4899C35.9869 16.8112 36.4636 17.0087 36.8151 17.3602C37.1666 17.7116 37.364 18.1883 37.364 18.6854V15.9013C37.3676 15.6529 37.3218 15.4063 37.2292 15.1758C37.1366 14.9452 36.9992 14.7354 36.8248 14.5585C36.6504 14.3816 36.4426 14.2411 36.2134 14.1452C35.9842 14.0493 35.7383 14 35.4899 14V14Z" fill="#FFF5E3"/>
<path d="M17.6854 14H14.8742C14.6278 13.9991 14.3837 14.047 14.1559 14.1408C13.9281 14.2347 13.7211 14.3727 13.5469 14.5469C13.3727 14.7211 13.2347 14.9281 13.1408 15.1559C13.047 15.3837 12.9991 15.6278 13 15.8742V44.9507C13 45.1968 13.0485 45.4405 13.1427 45.6679C13.2369 45.8953 13.3749 46.1019 13.5489 46.2759C13.723 46.45 13.9296 46.588 14.157 46.6822C14.3843 46.7764 14.628 46.8249 14.8742 46.8249H17.6854V14Z" fill="#915E3A"/>
<path d="M14.8742 16.8384H17.6854V14H14.8742C14.6278 13.9991 14.3837 14.047 14.1559 14.1408C13.9281 14.2347 13.7211 14.3727 13.5469 14.5469C13.3727 14.7211 13.2347 14.9281 13.1408 15.1559C13.047 15.3837 12.9991 15.6278 13 15.8742V18.6854C13.0054 18.1925 13.2054 17.7217 13.5565 17.3757C13.9076 17.0297 14.3812 16.8366 14.8742 16.8384V16.8384Z" fill="#BF8256"/>
<path d="M35.7343 14.0271H14.6297C13.7296 14.0271 13 14.7567 13 15.6568V45.1951C13 46.0951 13.7296 46.8248 14.6297 46.8248H35.7343C36.6344 46.8248 37.364 46.0951 37.364 45.1951V15.6568C37.364 14.7567 36.6344 14.0271 35.7343 14.0271Z" stroke="#191816" stroke-width="0.5" stroke-miterlimit="10"/>
<path d="M17.6854 14H14.8742C14.6278 13.9991 14.3837 14.047 14.1559 14.1408C13.9281 14.2347 13.7211 14.3727 13.5469 14.5469C13.3727 14.7211 13.2347 14.9281 13.1408 15.1559C13.047 15.3837 12.9991 15.6278 13 15.8742V44.9507C13 45.1968 13.0485 45.4405 13.1427 45.6679C13.2369 45.8953 13.3749 46.1019 13.5489 46.2759C13.723 46.45 13.9296 46.588 14.157 46.6822C14.3843 46.7764 14.628 46.8249 14.8742 46.8249H17.6854V14Z" stroke="#191816" stroke-width="0.5" stroke-miterlimit="10"/>
<path d="M37.364 36.0824H40.0802C40.2603 36.0824 40.433 36.1539 40.5603 36.2813C40.6877 36.4086 40.7592 36.5813 40.7592 36.7614V39.9801C40.7592 40.1602 40.6877 40.3329 40.5603 40.4602C40.433 40.5876 40.2603 40.6591 40.0802 40.6591H37.364V36.0824Z" fill="#00DFEB" stroke="#191816" stroke-width="0.5" stroke-linejoin="round"/>
<path d="M37.364 31.5057H40.0802C40.2603 31.5057 40.433 31.5773 40.5603 31.7046C40.6877 31.832 40.7592 32.0047 40.7592 32.1848V35.4034C40.7592 35.5835 40.6877 35.7562 40.5603 35.8836C40.433 36.0109 40.2603 36.0825 40.0802 36.0825H37.364V31.5057Z" fill="#6DD627" stroke="#191816" stroke-width="0.5" stroke-linejoin="round"/>
<path d="M37.364 26.9017H40.0802C40.2603 26.9017 40.433 26.9733 40.5603 27.1006C40.6877 27.228 40.7592 27.4007 40.7592 27.5808V30.7994C40.7592 30.9795 40.6877 31.1522 40.5603 31.2796C40.433 31.4069 40.2603 31.4785 40.0802 31.4785H37.364V26.9017Z" fill="#FFE500" stroke="#191816" stroke-width="0.5" stroke-linejoin="round"/>
<path d="M37.364 22.3522H40.0802C40.2603 22.3522 40.433 22.4237 40.5603 22.5511C40.6877 22.6784 40.7592 22.8511 40.7592 23.0312V26.2227C40.7592 26.4028 40.6877 26.5755 40.5603 26.7029C40.433 26.8302 40.2603 26.9017 40.0802 26.9017H37.364V22.3522Z" fill="#FF8A14" stroke="#191816" stroke-width="0.5" stroke-linejoin="round"/>
<path d="M37.364 17.7755H40.0802C40.2603 17.7755 40.433 17.8471 40.5603 17.9744C40.6877 18.1017 40.7592 18.2745 40.7592 18.4546V21.6732C40.7592 21.8533 40.6877 22.026 40.5603 22.1534C40.433 22.2807 40.2603 22.3522 40.0802 22.3522H37.364V17.7755Z" fill="#FF6242" stroke="#191816" stroke-width="0.5" stroke-linejoin="round"/>
<path d="M32.4546 30.8947H22.5949C21.6948 30.8947 20.9652 31.6243 20.9652 32.5244V39.5728C20.9652 40.4729 21.6948 41.2025 22.5949 41.2025H32.4546C33.3546 41.2025 34.0843 40.4729 34.0843 39.5728V32.5244C34.0843 31.6243 33.3546 30.8947 32.4546 30.8947Z" fill="white" stroke="#191816" stroke-width="0.5" stroke-miterlimit="10"/>
<path d="M23.3079 33.7058H31.7416" stroke="#191816" stroke-width="0.5" stroke-linecap="round" stroke-linejoin="round"/>
<path d="M23.3079 36.0485H31.7416" stroke="#191816" stroke-width="0.5" stroke-linecap="round" stroke-linejoin="round"/>
<path d="M23.3079 38.3912H31.7416" stroke="#191816" stroke-width="0.5" stroke-linecap="round" stroke-linejoin="round"/>
<rect x="23" y="19" width="1" height="7" rx="0.5" fill="black"/>
<rect x="29" y="19" width="1" height="7" rx="0.5" fill="black"/>
<rect x="26" y="18" width="1" height="9" rx="0.5" fill="black"/>
<path d="M30.1765 7.97718C30.2685 7.57399 30.4693 7.20514 30.7563 6.91242C31.0432 6.6197 31.4048 6.41481 31.8 6.32098L35.0549 5.52088C35.1151 5.50953 35.1695 5.47678 35.2082 5.42843C35.247 5.38009 35.2677 5.3193 35.2667 5.25684C35.2666 5.1938 35.2456 5.13265 35.2072 5.08328C35.1687 5.03392 35.1151 4.99922 35.0549 4.98481L31.8 4.18471C31.404 4.09261 31.0415 3.8883 30.7543 3.5953C30.4671 3.3023 30.2668 2.93251 30.1765 2.52851L29.3922 -0.791905C29.3795 -0.851851 29.3467 -0.905403 29.2994 -0.943363C29.2522 -0.981323 29.1935 -1.00132 29.1334 -0.999932C29.0726 -1.00024 29.0135 -0.979992 28.9652 -0.942348C28.917 -0.904704 28.8823 -0.851793 28.8667 -0.791905L28.0824 2.52851C27.9936 2.93189 27.7947 3.30144 27.5089 3.59449C27.223 3.88754 26.8617 4.09216 26.4667 4.18471L23.2118 4.98481C23.1516 4.99922 23.098 5.03392 23.0596 5.08328C23.0211 5.13265 23.0002 5.1938 23 5.25684C22.999 5.3193 23.0197 5.38009 23.0585 5.42843C23.0973 5.47678 23.1516 5.50953 23.2118 5.52088L26.4667 6.32098C26.8728 6.40355 27.247 6.60363 27.5446 6.89732C27.8423 7.19101 28.0507 7.56589 28.1451 7.97718L28.9294 11.2976C28.9436 11.359 28.9776 11.4137 29.026 11.4529C29.0744 11.4921 29.1343 11.5135 29.1961 11.5136C29.2573 11.5147 29.3169 11.4935 29.3643 11.454C29.4117 11.4144 29.4438 11.359 29.4549 11.2976L30.1765 7.97718Z" fill="#FFEC60" stroke="#191816" stroke-width="0.5" stroke-linecap="round" stroke-linejoin="round"/>
<path d="M6.96509 21.3146C7.04155 20.9861 7.20849 20.6855 7.447 20.447C7.6855 20.2085 7.98605 20.0416 8.31457 19.9651L11.02 19.3132C11.0701 19.3039 11.1152 19.2773 11.1474 19.2379C11.1797 19.1985 11.1969 19.1489 11.196 19.0981C11.1959 19.0467 11.1785 18.9969 11.1466 18.9566C11.1146 18.9164 11.07 18.8881 11.02 18.8764L8.31457 18.2245C7.98538 18.1494 7.68408 17.983 7.44534 17.7442C7.2066 17.5055 7.04013 17.2042 6.96509 16.875L6.31317 14.1696C6.30259 14.1207 6.27532 14.0771 6.23606 14.0461C6.19681 14.0152 6.148 13.9989 6.09804 14.0001C6.04755 13.9998 5.99839 14.0163 5.95828 14.047C5.91817 14.0776 5.88937 14.1208 5.87639 14.1696L5.22447 16.875C5.15064 17.2037 4.98538 17.5048 4.74776 17.7436C4.51013 17.9824 4.20983 18.1491 3.88151 18.2245L1.17605 18.8764C1.12604 18.8881 1.08146 18.9164 1.04952 18.9566C1.01757 18.9969 1.00014 19.0467 1.00003 19.0981C0.999183 19.1489 1.0164 19.1985 1.04863 19.2379C1.08086 19.2773 1.126 19.3039 1.17605 19.3132L3.88151 19.9651C4.21906 20.0324 4.5301 20.1954 4.77749 20.4347C5.02488 20.674 5.19815 20.9795 5.27662 21.3146L5.92854 24.02C5.94028 24.07 5.96855 24.1146 6.00878 24.1466C6.049 24.1785 6.09883 24.1959 6.15019 24.196C6.20108 24.1969 6.25062 24.1797 6.29 24.1474C6.32939 24.1152 6.35608 24.0701 6.36533 24.02L6.96509 21.3146Z" fill="#FFEC60" stroke="#191816" stroke-width="0.5" stroke-linecap="round" stroke-linejoin="round"/>
<path d="M15.8504 7.17391C15.9254 6.85171 16.0891 6.55695 16.323 6.32303C16.5569 6.08911 16.8517 5.92538 17.1739 5.85039L19.8273 5.21101C19.8764 5.20194 19.9207 5.17577 19.9523 5.13713C19.9839 5.0985 20.0008 5.04992 20 5.00001C19.9999 4.94964 19.9828 4.90077 19.9514 4.86132C19.9201 4.82186 19.8764 4.79414 19.8273 4.78262L17.1739 4.14324C16.851 4.06964 16.5555 3.90638 16.3214 3.67223C16.0872 3.43808 15.924 3.14258 15.8504 2.81972L15.211 0.166294C15.2006 0.11839 15.1739 0.0755954 15.1354 0.0452603C15.0969 0.0149251 15.049 -0.00105831 15 5.44115e-05C14.9505 -0.000195767 14.9023 0.0159885 14.8629 0.0460712C14.8236 0.076154 14.7953 0.118436 14.7826 0.166294L14.1432 2.81972C14.0708 3.14208 13.9087 3.4374 13.6757 3.67158C13.4426 3.90577 13.1481 4.06928 12.8261 4.14324L10.1727 4.78262C10.1236 4.79414 10.0799 4.82186 10.0486 4.86132C10.0172 4.90077 10.0001 4.94964 10 5.00001C9.9992 5.04992 10.0161 5.0985 10.0477 5.13713C10.0793 5.17577 10.1236 5.20194 10.1727 5.21101L12.8261 5.85039C13.1572 5.91638 13.4622 6.07627 13.7048 6.31096C13.9475 6.54565 14.1174 6.84523 14.1944 7.17391L14.8338 9.82734C14.8453 9.87638 14.873 9.92011 14.9125 9.95143C14.9519 9.98276 15.0008 9.99986 15.0512 9.99997C15.1011 10.0008 15.1496 9.98391 15.1883 9.95231C15.2269 9.9207 15.2531 9.87642 15.2621 9.82734L15.8504 7.17391Z" fill="#FFEC60" stroke="#191816" stroke-width="0.5" stroke-linecap="round" stroke-linejoin="round"/>
</g>
<defs>
<filter id="filter0_d_3412_286197" x="0" y="0" width="48" height="48" filterUnits="userSpaceOnUse" color-interpolation-filters="sRGB">
<feFlood flood-opacity="0" result="BackgroundImageFix"/>
<feColorMatrix in="SourceAlpha" type="matrix" values="0 0 0 0 0 0 0 0 0 0 0 0 0 0 0 0 0 0 127 0" result="hardAlpha"/>
<feOffset dy="4"/>
<feGaussianBlur stdDeviation="2"/>
<feComposite in2="hardAlpha" operator="out"/>
<feColorMatrix type="matrix" values="0 0 0 0 0 0 0 0 0 0 0 0 0 0 0 0 0 0 0.15 0"/>
<feBlend mode="normal" in2="BackgroundImageFix" result="effect1_dropShadow_3412_286197"/>
<feBlend mode="normal" in="SourceGraphic" in2="effect1_dropShadow_3412_286197" result="shape"/>
</filter>
</defs>
</svg>
