<svg width="22" height="23" viewBox="0 0 22 23" fill="none" xmlns="http://www.w3.org/2000/svg">
<path d="M9.26795 3.5C10.0377 2.16667 11.9623 2.16667 12.7321 3.5L18.7942 14C19.564 15.3333 18.6018 17 17.0622 17H4.93782C3.39822 17 2.43597 15.3333 3.20577 14L9.26795 3.5Z" fill="#FFBE3D"/>
<path d="M10 11C10 10.4477 10.4477 10 11 10C11.5523 10 12 10.4477 12 11V13C12 13.5523 11.5523 14 11 14C10.4477 14 10 13.5523 10 13V11Z" fill="white"/>
<path d="M11 9C11.5523 9 12 8.55228 12 8C12 7.44772 11.5523 7 11 7C10.4477 7 10 7.44772 10 8C10 8.55228 10.4477 9 11 9Z" fill="white"/>
</svg>
