<svg width="27" height="27" viewBox="0 0 27 27" fill="none" xmlns="http://www.w3.org/2000/svg">
<path d="M1.57299e-06 3.375C1.57299e-06 2.47989 0.347679 1.62145 0.966549 0.988515C1.58542 0.355579 2.42479 0 3.3 0H19.5C20.3752 0 21.2146 0.355579 21.8335 0.988515C22.4523 1.62145 22.8 2.47989 22.8 3.375V4.91891C23.9391 4.99675 25.0066 5.51444 25.7865 6.36715C26.5663 7.21985 27.0001 8.34381 27 9.51136V22.3977C27 23.6183 26.5259 24.7889 25.682 25.652C24.8381 26.5151 23.6935 27 22.5 27H4.5048C3.31133 27 2.16673 26.5151 1.32282 25.652C0.478907 24.7889 0.00480151 23.6183 0.00480151 22.3977V9.51136H1.57299e-06V3.68182H0.0132015C0.00430875 3.5798 -9.55917e-05 3.47742 1.57299e-06 3.375ZM21 3.375C21 2.52818 20.328 1.84091 19.5 1.84091H3.3C2.90218 1.84091 2.52065 2.00254 2.23934 2.29023C1.95804 2.57793 1.8 2.96813 1.8 3.375C1.8 3.78187 1.95804 4.17207 2.23934 4.45977C2.52065 4.74746 2.90218 4.90909 3.3 4.90909H21V3.375ZM18.9 15.9545C18.6613 15.9545 18.4324 16.0515 18.2636 16.2241C18.0948 16.3968 18 16.6309 18 16.875C18 17.1191 18.0948 17.3532 18.2636 17.5259C18.4324 17.6985 18.6613 17.7955 18.9 17.7955H21.9C22.1387 17.7955 22.3676 17.6985 22.5364 17.5259C22.7052 17.3532 22.8 17.1191 22.8 16.875C22.8 16.6309 22.7052 16.3968 22.5364 16.2241C22.3676 16.0515 22.1387 15.9545 21.9 15.9545H18.9Z" fill="white"/>
</svg>
