<svg width="48" height="48" viewBox="0 0 48 48" fill="none" xmlns="http://www.w3.org/2000/svg">
<g filter="url(#filter0_d_1615_26937)">
<circle cx="24" cy="20" r="20" fill="#6CB4FE"/>
</g>
<mask id="mask0_1615_26937" style="mask-type:alpha" maskUnits="userSpaceOnUse" x="4" y="0" width="40" height="40">
<circle cx="24" cy="20" r="20" fill="#6CB4FE"/>
</mask>
<g mask="url(#mask0_1615_26937)">
<path d="M37.0589 8.97718C37.1509 8.57399 37.3517 8.20514 37.6386 7.91242C37.9256 7.6197 38.2872 7.41481 38.6824 7.32098L41.9373 6.52088C41.9975 6.50953 42.0518 6.47678 42.0906 6.42843C42.1294 6.38009 42.1501 6.3193 42.1491 6.25684C42.1489 6.1938 42.128 6.13265 42.0895 6.08328C42.0511 6.03392 41.9975 5.99922 41.9373 5.98481L38.6824 5.18471C38.2864 5.09261 37.9239 4.8883 37.6367 4.5953C37.3494 4.3023 37.1492 3.93251 37.0589 3.52851L36.2746 0.208095C36.2618 0.148149 36.229 0.0945975 36.1818 0.0566371C36.1346 0.0186768 36.0759 -0.00132433 36.0157 6.80887e-05C35.955 -0.000244976 35.8959 0.0200075 35.8476 0.057652C35.7993 0.0952964 35.7647 0.148207 35.7491 0.208095L34.9648 3.52851C34.8759 3.93189 34.6771 4.30144 34.3912 4.59449C34.1054 4.88754 33.7441 5.09216 33.3491 5.18471L30.0942 5.98481C30.034 5.99922 29.9804 6.03392 29.9419 6.08328C29.9035 6.13265 29.8825 6.1938 29.8824 6.25684C29.8814 6.3193 29.9021 6.38009 29.9409 6.42843C29.9796 6.47678 30.034 6.50953 30.0942 6.52088L33.3491 7.32098C33.7552 7.40355 34.1294 7.60363 34.427 7.89732C34.7246 8.19101 34.9331 8.56589 35.0275 8.97718L35.8118 12.2976C35.8259 12.359 35.86 12.4137 35.9083 12.4529C35.9567 12.4921 36.0167 12.5135 36.0785 12.5136C36.1397 12.5147 36.1993 12.4935 36.2467 12.454C36.2941 12.4144 36.3262 12.359 36.3373 12.2976L37.0589 8.97718Z" fill="#FFEC60" stroke="#191816" stroke-width="0.5" stroke-linecap="round" stroke-linejoin="round"/>
<path d="M10.2745 28.2626H39.2453L37.1219 24.7274C37.0516 24.6125 36.9528 24.5177 36.835 24.4524C36.7172 24.3871 36.5845 24.3534 36.4499 24.3546H13.0643C12.9291 24.354 12.796 24.3885 12.6782 24.4549C12.5604 24.5212 12.4618 24.6171 12.3923 24.733L10.2745 28.2626Z" fill="#E04122"/>
<path d="M10.2745 28.2626H39.2453L37.1219 24.7274C37.0516 24.6125 36.9528 24.5177 36.835 24.4524C36.7172 24.3871 36.5845 24.3534 36.4499 24.3546H13.0643C12.9291 24.354 12.796 24.3885 12.6782 24.4549C12.5604 24.5212 12.4618 24.6171 12.3923 24.733L10.2745 28.2626Z" fill="#FF6242"/>
<path d="M37.8334 25.9133L37.1218 24.7274C37.0516 24.6125 36.9527 24.5177 36.835 24.4524C36.7172 24.3871 36.5845 24.3534 36.4498 24.3546H13.0643C12.929 24.354 12.796 24.3885 12.6782 24.4549C12.5603 24.5212 12.4618 24.6171 12.3922 24.733L11.6807 25.919L37.8334 25.9133Z" fill="#FF866E"/>
<path d="M38.4603 28.2626H11.0538V41.5733H38.4603V28.2626Z" fill="white"/>
<path d="M10.2745 28.2626H39.2453L37.1219 24.7274C37.0516 24.6125 36.9528 24.5177 36.835 24.4524C36.7172 24.3871 36.5845 24.3534 36.4499 24.3546H13.0643C12.9291 24.354 12.796 24.3885 12.6782 24.4549C12.5604 24.5212 12.4618 24.6171 12.3923 24.733L10.2745 28.2626Z" stroke="#191816" stroke-width="0.5" stroke-linecap="round" stroke-linejoin="round"/>
<path d="M38.4603 28.2626H11.0538V41.5733H38.4603V28.2626Z" stroke="#191816" stroke-width="0.5" stroke-linecap="round" stroke-linejoin="round"/>
<path d="M16.1477 35.7002C16.1477 35.3886 16.024 35.0898 15.8037 34.8696C15.5834 34.6493 15.2846 34.5255 14.9731 34.5255C14.6616 34.5255 14.3628 34.6493 14.1425 34.8696C13.9222 35.0898 13.7985 35.3886 13.7985 35.7002V39.2241H16.1477V35.7002Z" fill="#00B8F0"/>
<path d="M16.1363 35.5984C16.1229 35.2884 15.9868 34.9964 15.758 34.7867C15.5292 34.577 15.2266 34.4668 14.9165 34.4802C14.6065 34.4937 14.3145 34.6298 14.1048 34.8586C13.8951 35.0873 13.7849 35.39 13.7983 35.7001V37.959L16.1363 35.5984Z" fill="#4ACFFF"/>
<path d="M16.1477 35.7002C16.1477 35.3886 16.024 35.0898 15.8037 34.8696C15.5834 34.6493 15.2846 34.5255 14.9731 34.5255C14.6616 34.5255 14.3628 34.6493 14.1425 34.8696C13.9222 35.0898 13.7985 35.3886 13.7985 35.7002V39.2241H16.1477V35.7002Z" stroke="#191816" stroke-width="0.5" stroke-linecap="round" stroke-linejoin="round"/>
<path d="M35.7212 35.7002C35.7212 35.5459 35.6908 35.3932 35.6318 35.2506C35.5728 35.1081 35.4863 34.9786 35.3772 34.8696C35.2681 34.7605 35.1386 34.674 34.9961 34.6149C34.8536 34.5559 34.7008 34.5255 34.5466 34.5255C34.3923 34.5255 34.2396 34.5559 34.0971 34.6149C33.9546 34.674 33.8251 34.7605 33.716 34.8696C33.6069 34.9786 33.5204 35.1081 33.4614 35.2506C33.4023 35.3932 33.3719 35.5459 33.3719 35.7002V39.2241H35.7212V35.7002Z" fill="#00B8F0"/>
<path d="M35.7156 35.5985C35.6863 35.2994 35.5435 35.0229 35.3166 34.8259C35.0897 34.6288 34.7959 34.5263 34.4956 34.5393C34.1954 34.5523 33.9115 34.6799 33.7025 34.8959C33.4935 35.1118 33.3752 35.3996 33.3719 35.7002V37.9591L35.7156 35.5985Z" fill="#4ACFFF"/>
<path d="M35.7212 35.7002C35.7212 35.5459 35.6908 35.3932 35.6318 35.2506C35.5728 35.1081 35.4863 34.9786 35.3772 34.8696C35.2681 34.7605 35.1386 34.674 34.9961 34.6149C34.8536 34.5559 34.7008 34.5255 34.5466 34.5255C34.3923 34.5255 34.2396 34.5559 34.0971 34.6149C33.9546 34.674 33.8251 34.7605 33.716 34.8696C33.6069 34.9786 33.5204 35.1081 33.4614 35.2506C33.4023 35.3932 33.3719 35.5459 33.3719 35.7002V39.2241H35.7212V35.7002Z" stroke="#191816" stroke-width="0.5" stroke-linecap="round" stroke-linejoin="round"/>
<path d="M45.5081 34.3786C45.5081 36.4512 44.7683 38.2358 43.9438 38.2358C43.1193 38.2358 42.3795 36.4512 42.3795 34.3786C42.3795 32.3061 43.9438 26.8846 43.9438 26.8846C43.9438 26.8846 45.5081 32.3117 45.5081 34.3786Z" fill="#9CEB60" stroke="#191816" stroke-width="0.5" stroke-linejoin="round"/>
<path d="M43.9437 38.2357V41.5676" stroke="#191816" stroke-width="0.5" stroke-linejoin="round"/>
<path d="M16.1477 30.6119H13.7985V32.9612H16.1477V30.6119Z" fill="#00B8F0"/>
<path d="M13.7985 32.9612L16.1477 30.6119H13.7985V32.9612Z" fill="#4ACFFF"/>
<path d="M16.1477 30.6119H13.7985V32.9612H16.1477V30.6119Z" stroke="#191816" stroke-width="0.5" stroke-linecap="round" stroke-linejoin="round"/>
<path d="M35.7212 30.6119H33.3719V32.9612H35.7212V30.6119Z" fill="#00B8F0"/>
<path d="M33.3719 32.9612L35.7212 30.6119H33.3719V32.9612Z" fill="#4ACFFF"/>
<path d="M35.7212 30.6119H33.3719V32.9612H35.7212V30.6119Z" stroke="#191816" stroke-width="0.5" stroke-linecap="round" stroke-linejoin="round"/>
<path d="M18.8868 28.2626H17.7122V41.5733H18.8868V28.2626Z" fill="#E8F4FA"/>
<path d="M31.8077 28.2626H30.6331V41.5733H31.8077V28.2626Z" fill="#E8F4FA"/>
<path d="M38.4603 28.2626H11.0538V41.5733H38.4603V28.2626Z" stroke="#191816" stroke-width="0.5" stroke-miterlimit="10"/>
<path d="M30.6331 19.6504H18.8867V41.5733H30.6331V19.6504Z" fill="white" stroke="#191816" stroke-width="0.5" stroke-linecap="round" stroke-linejoin="round"/>
<path d="M24.7881 34.5199C24.0606 34.5214 23.3634 34.811 22.849 35.3254C22.3346 35.8398 22.0449 36.537 22.0435 37.2645V41.5678H27.4988V37.2701C27.5003 36.5471 27.2165 35.8526 26.7089 35.3377C26.2013 34.8227 25.5111 34.5288 24.7881 34.5199Z" fill="#FFE500"/>
<path d="M24.7599 28.2626C26.7061 28.2626 28.2838 26.6849 28.2838 24.7387C28.2838 22.7924 26.7061 21.2147 24.7599 21.2147C22.8137 21.2147 21.236 22.7924 21.236 24.7387C21.236 26.6849 22.8137 28.2626 24.7599 28.2626Z" fill="#F0F0F0"/>
<path d="M24.788 21.2148C24.1128 21.2058 23.4494 21.3919 22.8774 21.7508C22.3054 22.1097 21.8492 22.626 21.5635 23.2379C21.2779 23.8498 21.1749 24.5311 21.2671 25.2C21.3592 25.869 21.6425 26.4971 22.083 27.0089L27.047 22.0958C26.4237 21.5412 25.6222 21.2286 24.788 21.2148Z" fill="white"/>
<path d="M24.7599 28.2626C26.7061 28.2626 28.2838 26.6849 28.2838 24.7387C28.2838 22.7924 26.7061 21.2147 24.7599 21.2147C22.8137 21.2147 21.236 22.7924 21.236 24.7387C21.236 26.6849 22.8137 28.2626 24.7599 28.2626Z" stroke="#191816" stroke-width="0.5" stroke-linecap="round" stroke-linejoin="round"/>
<path d="M24.3702 22.7848V24.7388L25.9345 25.9134" stroke="#191816" stroke-width="0.5" stroke-linecap="round" stroke-linejoin="round"/>
<path d="M24.7881 34.5199C24.0606 34.5214 23.3634 34.811 22.849 35.3254C22.3346 35.8398 22.0449 36.537 22.0435 37.2645V39.2185C22.0755 38.5128 22.3783 37.8467 22.889 37.3587C23.3997 36.8707 24.0789 36.5983 24.7852 36.5983C25.4916 36.5983 26.1708 36.8707 26.6814 37.3587C27.1921 37.8467 27.495 38.5128 27.527 39.2185V37.2701C27.5277 36.9097 27.4575 36.5527 27.3202 36.2194C27.183 35.8861 26.9815 35.5831 26.7271 35.3278C26.4728 35.0724 26.1706 34.8696 25.8379 34.731C25.5052 34.5924 25.1485 34.5206 24.7881 34.5199Z" fill="#FFF48C"/>
<path d="M24.7881 34.5199C24.0606 34.5214 23.3634 34.811 22.849 35.3254C22.3346 35.8398 22.0449 36.537 22.0435 37.2645V41.5678H27.4988V37.2701C27.5003 36.5471 27.2165 35.8526 26.7089 35.3377C26.2013 34.8227 25.5111 34.5288 24.7881 34.5199V34.5199Z" stroke="#191816" stroke-width="0.5" stroke-linecap="round" stroke-linejoin="round"/>
<path d="M31.4124 19.6504H18.1016L24.2233 13.5683C24.2973 13.4938 24.3853 13.4348 24.4822 13.3944C24.5792 13.3541 24.6831 13.3334 24.7881 13.3334C24.893 13.3334 24.997 13.3541 25.0939 13.3944C25.1908 13.4348 25.2788 13.4938 25.3528 13.5683L31.4124 19.6504Z" fill="#FF6242" stroke="#191816" stroke-width="0.5" stroke-linecap="round" stroke-linejoin="round"/>
<path d="M24.1894 16.7308C24.2619 16.6534 24.3493 16.5914 24.4464 16.5487C24.5434 16.506 24.6481 16.4834 24.7542 16.4823C24.8602 16.4838 24.9648 16.5065 25.0618 16.5492C25.1588 16.5919 25.2462 16.6536 25.3189 16.7308L28.0748 19.6504H31.4011L25.3133 13.5683C25.2393 13.4938 25.1513 13.4348 25.0544 13.3944C24.9574 13.3541 24.8535 13.3334 24.7485 13.3334C24.6436 13.3334 24.5396 13.3541 24.4427 13.3944C24.3458 13.4348 24.2578 13.4938 24.1838 13.5683L18.1016 19.6504H21.4279L24.1894 16.7308Z" fill="#FF866E"/>
<path d="M31.4124 19.6504H18.1016L24.2233 13.5683C24.2973 13.4938 24.3853 13.4348 24.4822 13.3944C24.5792 13.3541 24.6831 13.3334 24.7881 13.3334C24.893 13.3334 24.997 13.3541 25.0939 13.3944C25.1908 13.4348 25.2788 13.4938 25.3528 13.5683L31.4124 19.6504Z" stroke="#191816" stroke-width="0.5" stroke-linecap="round" stroke-linejoin="round"/>
<path d="M24.7599 41.5734V34.5255" stroke="#191816" stroke-width="0.5" stroke-linecap="round" stroke-linejoin="round"/>
<path d="M23.5627 30.6119H21.2134V32.9612H23.5627V30.6119Z" fill="#00B8F0"/>
<path d="M21.2134 32.9612L23.5627 30.6119H21.2134V32.9612Z" fill="#4ACFFF"/>
<path d="M23.5627 30.6119H21.2134V32.9612H23.5627V30.6119Z" stroke="#191816" stroke-width="0.5" stroke-linecap="round" stroke-linejoin="round"/>
<path d="M28.3064 30.6119H25.9572V32.9612H28.3064V30.6119Z" fill="#00B8F0"/>
<path d="M25.9572 32.9612L28.3064 30.6119H25.9572V32.9612Z" fill="#4ACFFF"/>
<path d="M28.3064 30.6119H25.9572V32.9612H28.3064V30.6119Z" stroke="#191816" stroke-width="0.5" stroke-linecap="round" stroke-linejoin="round"/>
<path d="M19.3768 19.8636C19.4533 19.5351 19.6202 19.2346 19.8587 18.9961C20.0972 18.7576 20.3978 18.5906 20.7263 18.5142L23.4318 17.8623C23.4818 17.853 23.527 17.8263 23.5592 17.7869C23.5914 17.7475 23.6086 17.698 23.6078 17.6471C23.6077 17.5958 23.5902 17.5459 23.5583 17.5057C23.5264 17.4655 23.4818 17.4372 23.4318 17.4255L20.7263 16.7736C20.3971 16.6985 20.0958 16.532 19.8571 16.2933C19.6183 16.0546 19.4519 15.7533 19.3768 15.4241L18.7249 12.7186C18.7143 12.6698 18.6871 12.6261 18.6478 12.5952C18.6085 12.5643 18.5597 12.548 18.5098 12.5491C18.4593 12.5489 18.4101 12.5654 18.37 12.596C18.3299 12.6267 18.3011 12.6698 18.2881 12.7186L17.6362 15.4241C17.5624 15.7528 17.3971 16.0539 17.1595 16.2926C16.9219 16.5314 16.6216 16.6981 16.2933 16.7736L13.5878 17.4255C13.5378 17.4372 13.4932 17.4655 13.4613 17.5057C13.4293 17.5459 13.4119 17.5958 13.4118 17.6471C13.4109 17.698 13.4281 17.7475 13.4604 17.7869C13.4926 17.8263 13.5377 17.853 13.5878 17.8623L16.2933 18.5142C16.6308 18.5815 16.9418 18.7445 17.1892 18.9838C17.4366 19.2231 17.6099 19.5285 17.6884 19.8636L18.3403 22.5691C18.352 22.6191 18.3803 22.6637 18.4205 22.6956C18.4607 22.7276 18.5106 22.745 18.5619 22.7451C18.6128 22.746 18.6624 22.7287 18.7017 22.6965C18.7411 22.6643 18.7678 22.6191 18.7771 22.5691L19.3768 19.8636Z" fill="#FFEC60" stroke="#191816" stroke-width="0.5" stroke-linecap="round" stroke-linejoin="round"/>
<path d="M14.0787 5.62659C14.1375 5.37389 14.2659 5.1427 14.4494 4.95924C14.6329 4.77577 14.8641 4.64736 15.1168 4.58854L17.1979 4.08707C17.2364 4.07995 17.2711 4.05942 17.2959 4.02913C17.3207 3.99883 17.3339 3.96072 17.3333 3.92158C17.3332 3.88207 17.3198 3.84374 17.2952 3.8128C17.2706 3.78185 17.2364 3.76011 17.1979 3.75108L15.1168 3.2496C14.8635 3.19188 14.6318 3.06382 14.4481 2.88018C14.2645 2.69654 14.1364 2.46477 14.0787 2.21155L13.5772 0.130427C13.5691 0.092855 13.5481 0.0592905 13.5179 0.0354983C13.4877 0.011706 13.4502 -0.000830044 13.4117 4.26757e-05C13.3729 -0.000153543 13.3351 0.01254 13.3042 0.0361343C13.2734 0.0597286 13.2512 0.0928913 13.2412 0.130427L12.7398 2.21155C12.683 2.46438 12.5559 2.696 12.3731 2.87967C12.1903 3.06335 11.9593 3.19159 11.7067 3.2496L9.6256 3.75108C9.58713 3.76011 9.55284 3.78185 9.52826 3.8128C9.50369 3.84374 9.49028 3.88207 9.4902 3.92158C9.48954 3.96072 9.50279 3.99883 9.52758 4.02913C9.55237 4.05942 9.5871 4.07995 9.6256 4.08707L11.7067 4.58854C11.9664 4.6403 12.2056 4.7657 12.3959 4.94977C12.5862 5.13385 12.7195 5.36881 12.7799 5.62659L13.2814 7.70772C13.2904 7.74618 13.3121 7.78048 13.3431 7.80505C13.374 7.82962 13.4123 7.84303 13.4519 7.84312C13.491 7.84377 13.5291 7.83052 13.5594 7.80573C13.5897 7.78094 13.6102 7.74621 13.6173 7.70772L14.0787 5.62659Z" fill="#FFEC60" stroke="#191816" stroke-width="0.5" stroke-linecap="round" stroke-linejoin="round"/>
</g>
<defs>
<filter id="filter0_d_1615_26937" x="0" y="0" width="48" height="48" filterUnits="userSpaceOnUse" color-interpolation-filters="sRGB">
<feFlood flood-opacity="0" result="BackgroundImageFix"/>
<feColorMatrix in="SourceAlpha" type="matrix" values="0 0 0 0 0 0 0 0 0 0 0 0 0 0 0 0 0 0 127 0" result="hardAlpha"/>
<feOffset dy="4"/>
<feGaussianBlur stdDeviation="2"/>
<feComposite in2="hardAlpha" operator="out"/>
<feColorMatrix type="matrix" values="0 0 0 0 0 0 0 0 0 0 0 0 0 0 0 0 0 0 0.15 0"/>
<feBlend mode="normal" in2="BackgroundImageFix" result="effect1_dropShadow_1615_26937"/>
<feBlend mode="normal" in="SourceGraphic" in2="effect1_dropShadow_1615_26937" result="shape"/>
</filter>
</defs>
</svg>
