<svg width="33" height="33" viewBox="0 0 33 33" fill="none" xmlns="http://www.w3.org/2000/svg">
<circle cx="16.5" cy="16.5" r="16.5" fill="#FFBE3E"/>
<path d="M22.25 25.5832C22.25 25.8593 22.0261 26.0832 21.75 26.0832H11.25C10.9739 26.0832 10.75 25.8593 10.75 25.5832V20.5403C10.75 20.4077 10.8027 20.2805 10.8964 20.1867L14.2298 16.8534C14.425 16.6581 14.425 16.3415 14.2298 16.1463L10.8964 12.813C10.8027 12.7192 10.75 12.592 10.75 12.4594V7.4165C10.75 7.14036 10.9739 6.9165 11.25 6.9165H21.75C22.0261 6.9165 22.25 7.14036 22.25 7.4165V12.4594C22.25 12.592 22.1973 12.7192 22.1036 12.813L18.7702 16.1463C18.575 16.3415 18.575 16.6581 18.7702 16.8534L22.1036 20.1867C22.1973 20.2805 22.25 20.4077 22.25 20.5403V25.5832ZM12.6667 11.9802C12.6667 12.1128 12.7193 12.24 12.8131 12.3338L16.1464 15.6671C16.3417 15.8624 16.6583 15.8624 16.8536 15.6671L20.1869 12.3338C20.2807 12.24 20.3333 12.1128 20.3333 11.9802V9.33317C20.3333 9.05703 20.1095 8.83317 19.8333 8.83317H13.1667C12.8905 8.83317 12.6667 9.05703 12.6667 9.33317V11.9802ZM16.8536 17.3326C16.6583 17.1373 16.3417 17.1373 16.1464 17.3326L12.8131 20.6659C12.7193 20.7597 12.6667 20.8868 12.6667 21.0194V23.6665C12.6667 23.9426 12.8905 24.1665 13.1667 24.1665H19.8333C20.1095 24.1665 20.3333 23.9426 20.3333 23.6665V21.0194C20.3333 20.8868 20.2807 20.7597 20.1869 20.6659L16.8536 17.3326ZM18.4167 21.7498C18.4167 22.026 18.1928 22.2498 17.9167 22.2498H15.0833C14.8072 22.2498 14.5833 22.026 14.5833 21.7498V21.6903C14.5833 21.5577 14.636 21.4305 14.7298 21.3367L16.1464 19.9201C16.3417 19.7248 16.6583 19.7248 16.8536 19.9201L18.2702 21.3367C18.364 21.4305 18.4167 21.5577 18.4167 21.6903V21.7498Z" fill="white"/>
</svg>
