<svg width="48" height="48" viewBox="0 0 48 48" fill="none" xmlns="http://www.w3.org/2000/svg">
<g filter="url(#filter0_d_1615_26848)">
<circle cx="24" cy="20" r="20" fill="#6CB4FE"/>
</g>
<mask id="mask0_1615_26848" style="mask-type:alpha" maskUnits="userSpaceOnUse" x="4" y="0" width="40" height="40">
<circle cx="24" cy="20" r="20" fill="#6CB4FE"/>
</mask>
<g mask="url(#mask0_1615_26848)">
<path d="M45.3048 13.2275H14.9883C14.0176 13.2275 13.2308 14.0298 13.2308 15.0195V40.5098C13.2308 41.4995 14.0176 42.3018 14.9883 42.3018H45.3048C46.2754 42.3018 47.0623 41.4995 47.0623 40.5098V15.0195C47.0623 14.0298 46.2754 13.2275 45.3048 13.2275Z" fill="#F0F0F0" stroke="#191816" stroke-width="0.5" stroke-linejoin="round"/>
<path d="M14.9883 13.2201H45.3048C45.7709 13.2201 46.2179 13.4089 46.5475 13.7449C46.8771 14.081 47.0623 14.5368 47.0623 15.012V22.0902H13.2308V15.012C13.2308 14.7767 13.2762 14.5437 13.3646 14.3263C13.4529 14.1089 13.5823 13.9113 13.7455 13.7449C13.9087 13.5785 14.1025 13.4466 14.3157 13.3565C14.5289 13.2664 14.7575 13.2201 14.9883 13.2201Z" fill="#FF6242"/>
<path d="M45.129 13.2201H15.164C14.6513 13.2201 14.1596 13.4278 13.797 13.7974C13.4345 14.1671 13.2308 14.6684 13.2308 15.1912V17.6626C13.2327 17.1411 13.4372 16.6417 13.7996 16.2736C14.1619 15.9056 14.6525 15.6989 15.164 15.6989H45.129C45.6405 15.6989 46.1311 15.9056 46.4935 16.2736C46.8558 16.6417 47.0603 17.1411 47.0623 17.6626V15.1987C47.0632 14.9392 47.0139 14.6821 46.9172 14.4421C46.8205 14.2021 46.6783 13.9839 46.4986 13.8001C46.319 13.6162 46.1056 13.4704 45.8706 13.3708C45.6355 13.2713 45.3835 13.2201 45.129 13.2201Z" fill="#FF866E"/>
<path d="M47.0623 28.011V40.3306C47.0623 40.8534 46.8586 41.3547 46.496 41.7244C46.1335 42.094 45.6418 42.3017 45.129 42.3017H31.6111C31.6111 42.3017 39.3294 39.8303 47.0623 28.011Z" fill="#F7E5C6"/>
<path d="M31.6111 42.3017H35.9608C38.7508 40.8458 42.1194 38.5685 47.0769 31.4605V28.011C39.3294 39.8303 31.6111 42.3017 31.6111 42.3017Z" fill="#F0D5A8"/>
<path d="M47.0623 28.011V40.3306C47.0623 40.8534 46.8586 41.3547 46.496 41.7244C46.1335 42.094 45.6418 42.3017 45.129 42.3017H31.6111C31.6111 42.3017 39.3294 39.8303 47.0623 28.011Z" stroke="#191816" stroke-width="0.5" stroke-linejoin="round"/>
<path d="M14.9883 13.2201H45.3048C45.7709 13.2201 46.2179 13.4089 46.5475 13.7449C46.8771 14.081 47.0623 14.5368 47.0623 15.012V22.0902H13.2308V15.012C13.2308 14.7767 13.2762 14.5437 13.3646 14.3263C13.4529 14.1089 13.5823 13.9113 13.7455 13.7449C13.9087 13.5785 14.1025 13.4466 14.3157 13.3565C14.5289 13.2664 14.7575 13.2201 14.9883 13.2201V13.2201Z" stroke="#191816" stroke-width="0.5" stroke-linejoin="round"/>
<path d="M20.4803 16.1693C19.901 16.1693 19.3347 15.9941 18.853 15.666C18.3713 15.3378 17.9959 14.8714 17.7742 14.3256C17.5525 13.7799 17.4945 13.1794 17.6075 12.6001C17.7205 12.0207 17.9995 11.4886 18.4091 11.0709C18.8188 10.6532 19.3407 10.3688 19.9089 10.2536C20.4771 10.1383 21.066 10.1975 21.6013 10.4235C22.1365 10.6496 22.594 11.0324 22.9158 11.5235C23.2377 12.0146 23.4095 12.592 23.4095 13.1827" stroke="#191816" stroke-width="0.5" stroke-linecap="round" stroke-linejoin="round"/>
<path d="M30.6298 16.1693C30.0505 16.1693 29.4842 15.9941 29.0025 15.666C28.5208 15.3378 28.1454 14.8714 27.9237 14.3256C27.702 13.7799 27.6439 13.1794 27.757 12.6001C27.87 12.0207 28.149 11.4886 28.5586 11.0709C28.9683 10.6532 29.4902 10.3688 30.0584 10.2536C30.6266 10.1383 31.2155 10.1975 31.7508 10.4235C32.286 10.6496 32.7434 11.0324 33.0653 11.5235C33.3872 12.0146 33.559 12.592 33.559 13.1827" stroke="#191816" stroke-width="0.5" stroke-linecap="round" stroke-linejoin="round"/>
<path d="M40.7793 16.1693C40.2 16.1693 39.6336 15.9941 39.152 15.666C38.6703 15.3378 38.2948 14.8714 38.0731 14.3256C37.8514 13.7799 37.7934 13.1794 37.9064 12.6001C38.0195 12.0207 38.2984 11.4886 38.7081 11.0709C39.1177 10.6532 39.6397 10.3688 40.2078 10.2536C40.776 10.1383 41.365 10.1975 41.9002 10.4235C42.4355 10.6496 42.8929 11.0324 43.2148 11.5235C43.5366 12.0146 43.7084 12.592 43.7084 13.1827" stroke="#191816" stroke-width="0.5" stroke-linecap="round" stroke-linejoin="round"/>
<path d="M13.2308 27.0181H47.0623" stroke="#191816" stroke-width="0.5" stroke-linecap="round" stroke-linejoin="round"/>
<path d="M13.2308 31.9458H33.4491" stroke="#191816" stroke-width="0.5" stroke-linecap="round" stroke-linejoin="round"/>
<path d="M13.2308 36.8811H33.4491" stroke="#191816" stroke-width="0.5" stroke-linecap="round" stroke-linejoin="round"/>
<path d="M19.9971 22.0901V42.2942" stroke="#191816" stroke-width="0.5" stroke-linecap="round" stroke-linejoin="round"/>
<path d="M26.7634 22.0901V42.2942" stroke="#191816" stroke-width="0.5" stroke-linecap="round" stroke-linejoin="round"/>
<path d="M33.5297 22.0901V28.78" stroke="#191816" stroke-width="0.5" stroke-linecap="round" stroke-linejoin="round"/>
<path d="M40.296 22.0901V29.6834" stroke="#191816" stroke-width="0.5" stroke-linecap="round" stroke-linejoin="round"/>
<path d="M19.9971 27.0255H13.2308V31.9533H19.9971V27.0255Z" fill="#00DBA8" stroke="#191816" stroke-width="0.5" stroke-linejoin="round"/>
<path d="M26.7634 36.8811H19.9971V42.3017H26.7634V36.8811Z" fill="#FFE500" stroke="#191816" stroke-width="0.5" stroke-linejoin="round"/>
<path d="M33.5297 22.0901H26.7634V27.0179H33.5297V22.0901Z" fill="#00DFEB" stroke="#191816" stroke-width="0.5" stroke-linejoin="round"/>
<path d="M47.0623 28.011C39.3294 39.8303 31.6111 42.3017 31.6111 42.3017C32.712 40.3409 33.3905 38.1633 33.6013 35.9142C33.8122 33.665 33.5506 31.3959 32.834 29.2579C32.8084 29.1882 32.8021 29.1127 32.816 29.0396C32.8299 28.9666 32.8633 28.8989 32.9126 28.844C32.9618 28.7891 33.025 28.7492 33.0952 28.7287C33.1653 28.7082 33.2397 28.7079 33.31 28.7278C35.5288 29.34 42.2658 30.8632 47.0623 28.011Z" fill="white" stroke="#191816" stroke-width="0.5" stroke-linecap="round" stroke-linejoin="round"/>
<path d="M25.3134 19.1333H34.9796" stroke="#191816" stroke-width="0.5" stroke-linecap="round" stroke-linejoin="round"/>
<path d="M40.296 19.1333H44.1624" stroke="#191816" stroke-width="0.5" stroke-linecap="round" stroke-linejoin="round"/>
<path d="M19.9971 19.1333H16.1306" stroke="#191816" stroke-width="0.5" stroke-linecap="round" stroke-linejoin="round"/>
<path d="M18.7308 5.05567C18.821 4.65248 19.018 4.28363 19.2994 3.99091C19.5809 3.69819 19.9355 3.4933 20.3231 3.39947L23.5154 2.59937C23.5745 2.58802 23.6278 2.55527 23.6658 2.50693C23.7038 2.45858 23.7241 2.39779 23.7231 2.33534C23.723 2.27229 23.7024 2.21114 23.6647 2.16177C23.627 2.11241 23.5744 2.07771 23.5154 2.0633L20.3231 1.2632C19.9347 1.1711 19.5792 0.966796 19.2975 0.673792C19.0158 0.380789 18.8194 0.0110023 18.7308 -0.393003L17.9616 -3.71341C17.9491 -3.77336 17.9169 -3.82691 17.8706 -3.86487C17.8243 -3.90283 17.7667 -3.92283 17.7077 -3.92144C17.6482 -3.92175 17.5902 -3.9015 17.5428 -3.86386C17.4955 -3.82621 17.4615 -3.7733 17.4462 -3.71341L16.677 -0.393003C16.5899 0.010386 16.3949 0.379931 16.1145 0.672984C15.8341 0.966035 15.4798 1.17065 15.0924 1.2632L11.9 2.0633C11.841 2.07771 11.7884 2.11241 11.7507 2.16177C11.7131 2.21114 11.6925 2.27229 11.6924 2.33534C11.6914 2.39779 11.7117 2.45858 11.7497 2.50693C11.7877 2.55527 11.841 2.58802 11.9 2.59937L15.0924 3.39947C15.4906 3.48204 15.8577 3.68212 16.1496 3.97581C16.4415 4.2695 16.6459 4.64438 16.7385 5.05567L17.5077 8.37608C17.5216 8.43746 17.555 8.49217 17.6024 8.53138C17.6499 8.57058 17.7087 8.59198 17.7693 8.59211C17.8293 8.59315 17.8878 8.57202 17.9342 8.53246C17.9807 8.49291 18.0122 8.4375 18.0231 8.37608L18.7308 5.05567Z" fill="#FFEC60" stroke="#191816" stroke-width="0.5" stroke-linecap="round" stroke-linejoin="round"/>
<path d="M14.1154 19.1733C14.2056 18.7702 14.4026 18.4013 14.6841 18.1086C14.9655 17.8159 15.3201 17.611 15.7077 17.5171L18.9 16.717C18.9591 16.7057 19.0124 16.6729 19.0504 16.6246C19.0884 16.5763 19.1087 16.5155 19.1077 16.453C19.1076 16.39 19.087 16.3288 19.0493 16.2795C19.0117 16.2301 18.9591 16.1954 18.9 16.181L15.7077 15.3809C15.3193 15.2888 14.9638 15.0845 14.6821 14.7915C14.4004 14.4985 14.204 14.1287 14.1154 13.7247L13.3462 10.4043C13.3337 10.3443 13.3015 10.2908 13.2552 10.2528C13.2089 10.2148 13.1513 10.1948 13.0924 10.1962C13.0328 10.1959 12.9748 10.2162 12.9275 10.2538C12.8801 10.2915 12.8461 10.3444 12.8308 10.4043L12.0616 13.7247C11.9745 14.1281 11.7795 14.4976 11.4991 14.7907C11.2187 15.0837 10.8644 15.2883 10.477 15.3809L7.28466 16.181C7.22566 16.1954 7.17305 16.2301 7.13536 16.2795C7.09767 16.3288 7.0771 16.39 7.07697 16.453C7.07597 16.5155 7.09629 16.5763 7.13432 16.6246C7.17234 16.6729 7.22561 16.7057 7.28466 16.717L10.477 17.5171C10.8753 17.5997 11.2423 17.7998 11.5342 18.0935C11.8261 18.3872 12.0305 18.7621 12.1231 19.1733L12.8924 22.4938C12.9062 22.5551 12.9396 22.6098 12.987 22.6491C13.0345 22.6883 13.0933 22.7097 13.1539 22.7098C13.2139 22.7108 13.2724 22.6897 13.3189 22.6501C13.3653 22.6106 13.3968 22.5552 13.4077 22.4938L14.1154 19.1733Z" fill="#FFEC60" stroke="#191816" stroke-width="0.5" stroke-linecap="round" stroke-linejoin="round"/>
</g>
<defs>
<filter id="filter0_d_1615_26848" x="0" y="0" width="48" height="48" filterUnits="userSpaceOnUse" color-interpolation-filters="sRGB">
<feFlood flood-opacity="0" result="BackgroundImageFix"/>
<feColorMatrix in="SourceAlpha" type="matrix" values="0 0 0 0 0 0 0 0 0 0 0 0 0 0 0 0 0 0 127 0" result="hardAlpha"/>
<feOffset dy="4"/>
<feGaussianBlur stdDeviation="2"/>
<feComposite in2="hardAlpha" operator="out"/>
<feColorMatrix type="matrix" values="0 0 0 0 0 0 0 0 0 0 0 0 0 0 0 0 0 0 0.15 0"/>
<feBlend mode="normal" in2="BackgroundImageFix" result="effect1_dropShadow_1615_26848"/>
<feBlend mode="normal" in="SourceGraphic" in2="effect1_dropShadow_1615_26848" result="shape"/>
</filter>
</defs>
</svg>
