<svg width="48" height="48" viewBox="0 0 48 48" fill="none" xmlns="http://www.w3.org/2000/svg">
<g filter="url(#filter0_d_1615_112541)">
<ellipse cx="23.9999" cy="19.863" rx="20" ry="19.726" fill="#6CB4FE"/>
</g>
<mask id="mask0_1615_112541" style="mask-type:alpha" maskUnits="userSpaceOnUse" x="4" y="0" width="40" height="40">
<ellipse cx="24" cy="19.863" rx="20" ry="19.726" fill="#6CB4FE"/>
</mask>
<g mask="url(#mask0_1615_112541)">
<path d="M19.6382 36.8565L11.7507 19.6591C11.5722 19.2698 11.1076 19.097 10.7129 19.2731L1.85184 23.2266C1.45718 23.4027 1.28197 23.861 1.4605 24.2502L9.34793 41.4477C9.52646 41.8369 9.99112 42.0097 10.3858 41.8336L19.2468 37.8802C19.6415 37.7041 19.8167 37.2458 19.6382 36.8565Z" fill="#6DD627" stroke="#191816" stroke-width="0.5" stroke-linecap="round" stroke-linejoin="round"/>
<path d="M15.2529 25.4482L39.8804 25.4482C40.0884 25.4482 40.2879 25.5297 40.435 25.6748C40.5821 25.8199 40.6647 26.0166 40.6647 26.2218L40.6647 27.4595C40.6647 27.6646 40.5821 27.8614 40.435 28.0065C40.2879 28.1515 40.0884 28.233 39.8804 28.233L16.0372 28.233C15.8292 28.233 15.6297 28.1515 15.4826 28.0065C15.3356 27.8614 15.2529 27.6646 15.2529 27.4595L15.2529 25.4482Z" fill="#6DD627" stroke="#191816" stroke-width="0.5" stroke-linecap="round" stroke-linejoin="round"/>
<path d="M15.2529 22.6633L39.8804 22.6633C40.0884 22.6633 40.2879 22.7448 40.435 22.8899C40.5821 23.035 40.6647 23.2317 40.6647 23.4369L40.6647 24.6746C40.6647 24.8798 40.5821 25.0765 40.435 25.2216C40.2879 25.3667 40.0884 25.4482 39.8804 25.4482L16.0372 25.4482C15.8292 25.4482 15.6297 25.3667 15.4826 25.2216C15.3356 25.0765 15.2529 24.8798 15.2529 24.6746L15.2529 22.6633Z" fill="#6DD627" stroke="#191816" stroke-width="0.5" stroke-linecap="round" stroke-linejoin="round"/>
<path d="M39.8804 19.8785L16.0372 19.8785C15.6041 19.8785 15.2529 20.2248 15.2529 20.6521L15.2529 21.8898C15.2529 22.317 15.6041 22.6634 16.0372 22.6634L39.8804 22.6634C40.3135 22.6634 40.6647 22.317 40.6647 21.8898L40.6647 20.6521C40.6647 20.2248 40.3135 19.8785 39.8804 19.8785Z" fill="#6DD627" stroke="#191816" stroke-width="0.5" stroke-linecap="round" stroke-linejoin="round"/>
<path d="M39.8804 17.0936L16.0372 17.0936C15.6041 17.0936 15.2529 17.44 15.2529 17.8672L15.2529 19.1049C15.2529 19.5321 15.6041 19.8785 16.0372 19.8785L39.8804 19.8785C40.3135 19.8785 40.6647 19.5321 40.6647 19.1049L40.6647 17.8672C40.6647 17.44 40.3135 17.0936 39.8804 17.0936Z" fill="#6DD627" stroke="#191816" stroke-width="0.5" stroke-linecap="round" stroke-linejoin="round"/>
<path d="M32.1941 17.0936L22.7823 17.0936L22.7823 28.233L32.1941 28.233L32.1941 17.0936Z" fill="#FFE500"/>
<path d="M37.9981 36.5875L14.1549 36.5875C13.7218 36.5875 13.3706 36.9339 13.3706 37.3611L13.3706 38.5988C13.3706 39.0261 13.7218 39.3724 14.1549 39.3724L37.9981 39.3724C38.4312 39.3724 38.7824 39.0261 38.7824 38.5988L38.7824 37.3611C38.7824 36.9339 38.4312 36.5875 37.9981 36.5875Z" fill="#6DD627" stroke="#191816" stroke-width="0.5" stroke-linecap="round" stroke-linejoin="round"/>
<path d="M37.9981 33.8027L14.1549 33.8027C13.7218 33.8027 13.3706 34.149 13.3706 34.5762L13.3706 35.814C13.3706 36.2412 13.7218 36.5875 14.1549 36.5875L37.9981 36.5875C38.4312 36.5875 38.7824 36.2412 38.7824 35.814L38.7824 34.5762C38.7824 34.149 38.4312 33.8027 37.9981 33.8027Z" fill="#6DD627" stroke="#191816" stroke-width="0.5" stroke-linecap="round" stroke-linejoin="round"/>
<path d="M37.9981 31.0179L14.1549 31.0179C13.7218 31.0179 13.3706 31.3642 13.3706 31.7915L13.3706 33.0292C13.3706 33.4564 13.7218 33.8027 14.1549 33.8027L37.9981 33.8027C38.4312 33.8027 38.7824 33.4564 38.7824 33.0292L38.7824 31.7915C38.7824 31.3642 38.4312 31.0179 37.9981 31.0179Z" fill="#6DD627" stroke="#191816" stroke-width="0.5" stroke-linecap="round" stroke-linejoin="round"/>
<path d="M37.9981 28.233L14.1549 28.233C13.7218 28.233 13.3706 28.5793 13.3706 29.0066L13.3706 30.2443C13.3706 30.6715 13.7218 31.0179 14.1549 31.0179L37.9981 31.0179C38.4312 31.0179 38.7824 30.6715 38.7824 30.2443L38.7824 29.0066C38.7824 28.5793 38.4312 28.233 37.9981 28.233Z" fill="#6DD627" stroke="#191816" stroke-width="0.5" stroke-linecap="round" stroke-linejoin="round"/>
<path d="M12.351 38.9315L15.7863 37.3843C15.684 37.1619 15.6271 36.9217 15.6191 36.6776C15.611 36.4335 15.6519 36.1902 15.7393 35.9617C15.8267 35.7332 15.959 35.5239 16.1286 35.3459C16.2981 35.1679 16.5017 35.0247 16.7275 34.9244L11.2922 23.0887C10.8376 23.2901 10.3205 23.3055 9.85447 23.1315C9.3884 22.9575 9.0113 22.6083 8.80588 22.1605L5.37059 23.7076C5.47301 23.929 5.53011 24.1681 5.53861 24.4113C5.54712 24.6546 5.50686 24.897 5.42015 25.1248C5.33344 25.3527 5.20198 25.5614 5.03331 25.739C4.86464 25.9166 4.66209 26.0596 4.43726 26.1598L9.86471 38.0032C10.0896 37.9024 10.3326 37.8465 10.5795 37.8386C10.8264 37.8308 11.0725 37.8711 11.3036 37.9574C11.5346 38.0437 11.7461 38.1741 11.9259 38.3413C12.1056 38.5085 12.2501 38.709 12.351 38.9315V38.9315Z" fill="#C8FFA1" stroke="#191816" stroke-width="0.5" stroke-linecap="round" stroke-linejoin="round"/>
<path d="M20.9 41.376L20.9 22.5009C20.9 22.0736 20.5488 21.7273 20.1156 21.7273L10.3902 21.7273C9.95699 21.7273 9.60584 22.0736 9.60584 22.5009L9.60584 41.376C9.60584 41.8032 9.95699 42.1495 10.3902 42.1495L20.1156 42.1495C20.5488 42.1495 20.9 41.8032 20.9 41.376Z" fill="#6DD627"/>
<path d="M9.60583 22.5009L9.60583 33.0292L20.7352 22.0522C20.6646 21.9543 20.5719 21.874 20.4643 21.8176C20.3568 21.7612 20.2374 21.7303 20.1156 21.7273L10.3901 21.7273C10.1821 21.7273 9.98264 21.8088 9.83555 21.9539C9.68847 22.0989 9.60583 22.2957 9.60583 22.5009Z" fill="#9CEB60"/>
<path d="M13.3705 40.293L17.1352 40.293C17.1352 39.8006 17.3335 39.3284 17.6865 38.9802C18.0396 38.632 18.5183 38.4364 19.0176 38.4364L19.0176 25.4405C18.7701 25.4415 18.5248 25.3942 18.296 25.3012C18.0672 25.2083 17.8592 25.0716 17.6842 24.899C17.5092 24.7264 17.3706 24.5213 17.2764 24.2956C17.1822 24.0699 17.1342 23.828 17.1352 23.5839L13.3705 23.5839C13.3715 23.828 13.3236 24.0699 13.2293 24.2956C13.1351 24.5213 12.9965 24.7264 12.8215 24.899C12.6465 25.0716 12.4386 25.2083 12.2097 25.3012C11.9809 25.3942 11.7356 25.4415 11.4882 25.4405L11.4882 38.4364C11.9874 38.4364 12.4662 38.632 12.8192 38.9802C13.1722 39.3284 13.3705 39.8006 13.3705 40.293V40.293Z" fill="#C8FFA1"/>
<path d="M15.253 33.795C14.8807 33.795 14.5167 33.6861 14.2072 33.4821C13.8976 33.2781 13.6564 32.9881 13.5139 32.6489C13.3714 32.3096 13.3341 31.9364 13.4068 31.5762C13.4794 31.2161 13.6587 30.8853 13.9219 30.6256C14.1852 30.366 14.5206 30.1892 14.8857 30.1175C15.2509 30.0459 15.6293 30.0827 15.9733 30.2232C16.3173 30.3637 16.6112 30.6016 16.8181 30.907C17.0249 31.2123 17.1353 31.5712 17.1353 31.9384C17.1363 32.1825 17.0884 32.4244 16.9941 32.6501C16.8999 32.8758 16.7613 33.0809 16.5863 33.2535C16.4113 33.4261 16.2034 33.5628 15.9745 33.6557C15.7457 33.7487 15.5004 33.796 15.253 33.795V33.795Z" fill="#46B000"/>
<path d="M15.253 33.795C14.8807 33.795 14.5167 33.6861 14.2072 33.4821C13.8976 33.2781 13.6564 32.9881 13.5139 32.6489C13.3714 32.3096 13.3341 31.9364 13.4068 31.5762C13.4794 31.2161 13.6587 30.8853 13.9219 30.6256C14.1852 30.366 14.5206 30.1892 14.8857 30.1175C15.2509 30.0459 15.6293 30.0827 15.9733 30.2232C16.3173 30.3637 16.6112 30.6016 16.8181 30.907C17.0249 31.2123 17.1353 31.5712 17.1353 31.9384C17.1363 32.1825 17.0884 32.4244 16.9941 32.6501C16.8999 32.8758 16.7613 33.0809 16.5863 33.2535C16.4113 33.4261 16.2034 33.5628 15.9745 33.6557C15.7457 33.7487 15.5004 33.796 15.253 33.795V33.795Z" stroke="#191816" stroke-width="0.5" stroke-linecap="round" stroke-linejoin="round"/>
<path d="M17.7548 24.9531C17.5607 24.7799 17.4053 24.5687 17.2986 24.333C17.192 24.0972 17.1363 23.8421 17.1352 23.5839L13.3705 23.5839C13.3715 23.828 13.3236 24.0699 13.2293 24.2956C13.1351 24.5213 12.9965 24.7264 12.8215 24.899C12.6465 25.0716 12.4386 25.2083 12.2097 25.3012C11.9809 25.3942 11.7356 25.4415 11.4882 25.4405L11.4882 31.1339L17.7548 24.9531Z" fill="#E4FFD1"/>
<path d="M13.3705 40.293L17.1352 40.293C17.1352 39.8006 17.3335 39.3284 17.6865 38.9802C18.0396 38.632 18.5183 38.4364 19.0176 38.4364L19.0176 25.4405C18.7701 25.4415 18.5248 25.3942 18.296 25.3012C18.0672 25.2083 17.8592 25.0716 17.6842 24.899C17.5092 24.7264 17.3706 24.5213 17.2764 24.2956C17.1822 24.0699 17.1342 23.828 17.1352 23.5839L13.3705 23.5839C13.3715 23.828 13.3236 24.0699 13.2293 24.2956C13.1351 24.5213 12.9965 24.7264 12.8215 24.899C12.6465 25.0716 12.4386 25.2083 12.2097 25.3012C11.9809 25.3942 11.7356 25.4415 11.4882 25.4405L11.4882 38.4364C11.9874 38.4364 12.4662 38.632 12.8192 38.9802C13.1722 39.3284 13.3705 39.8006 13.3705 40.293V40.293Z" stroke="#191816" stroke-width="0.5" stroke-linecap="round" stroke-linejoin="round"/>
<path d="M20.9 41.376L20.9 22.5009C20.9 22.0736 20.5488 21.7273 20.1156 21.7273L10.3902 21.7273C9.95699 21.7273 9.60584 22.0736 9.60584 22.5009L9.60584 41.376C9.60584 41.8032 9.95699 42.1495 10.3902 42.1495L20.1156 42.1495C20.5488 42.1495 20.9 41.8032 20.9 41.376Z" stroke="#191816" stroke-width="0.5" stroke-linecap="round" stroke-linejoin="round"/>
<path d="M22.7823 26.3842L32.1941 17.1014L32.1941 17.0936L22.7823 17.0936L22.7823 26.3842Z" fill="#FFF48C"/>
<path d="M32.1941 17.0936L22.7823 17.0936L22.7823 28.233L32.1941 28.233L32.1941 17.0936Z" stroke="#191816" stroke-width="0.5" stroke-linecap="round" stroke-linejoin="round"/>
<path d="M32.6275 9.76475C32.7195 9.36708 32.9203 9.00328 33.2073 8.71457C33.4942 8.42586 33.8558 8.22379 34.251 8.13123L37.5059 7.3421C37.5661 7.3309 37.6204 7.2986 37.6592 7.25092C37.698 7.20324 37.7187 7.14328 37.7177 7.08168C37.7175 7.0195 37.6966 6.95919 37.6581 6.9105C37.6197 6.86181 37.5661 6.82759 37.5059 6.81337L34.251 6.02424C33.855 5.9334 33.4925 5.73189 33.2053 5.4429C32.918 5.15391 32.7178 4.78919 32.6275 4.39072L31.8432 1.1158C31.8304 1.05667 31.7976 1.00385 31.7504 0.966414C31.7032 0.928974 31.6445 0.909247 31.5843 0.91062C31.5236 0.910311 31.4645 0.930286 31.4162 0.967415C31.3679 1.00454 31.3333 1.05673 31.3177 1.1158L30.5334 4.39072C30.4445 4.78858 30.2457 5.15306 29.9598 5.4421C29.674 5.73114 29.3127 5.93295 28.9177 6.02424L25.6628 6.81337C25.6026 6.82759 25.549 6.86181 25.5105 6.9105C25.4721 6.95919 25.4511 7.0195 25.451 7.08168C25.45 7.14328 25.4707 7.20324 25.5095 7.25092C25.5483 7.2986 25.6026 7.3309 25.6628 7.3421L28.9177 8.13123C29.3238 8.21268 29.698 8.41002 29.9956 8.69968C30.2932 8.98935 30.5017 9.35909 30.5961 9.76475L31.3804 13.0397C31.3945 13.1002 31.4286 13.1542 31.4769 13.1928C31.5253 13.2315 31.5853 13.2526 31.6471 13.2527C31.7083 13.2538 31.7679 13.2329 31.8153 13.1939C31.8627 13.1549 31.8948 13.1003 31.9059 13.0397L32.6275 9.76475Z" fill="#FFEC60" stroke="#191816" stroke-width="0.5" stroke-linecap="round" stroke-linejoin="round"/>
<path d="M30.3117 28.233L20.9 28.233L20.9 39.3724L30.3117 39.3724L30.3117 28.233Z" fill="#FFE500"/>
<path d="M20.9 37.5313L30.3117 28.2407L30.3117 28.233L20.9 28.233L20.9 37.5313Z" fill="#FFF48C"/>
<path d="M30.3117 28.233L20.9 28.233L20.9 39.3724L30.3117 39.3724L30.3117 28.233Z" stroke="#191816" stroke-width="0.5" stroke-linecap="round" stroke-linejoin="round"/>
<path d="M12.4999 12.2665C12.58 11.9276 12.7547 11.6176 13.0042 11.3715C13.2537 11.1254 13.5681 10.9531 13.9117 10.8741L16.7431 10.2321C16.7943 10.2199 16.8398 10.1913 16.8725 10.1506C16.9052 10.1099 16.9232 10.0596 16.9235 10.0077C16.9236 9.95483 16.9059 9.90339 16.8733 9.86142C16.8407 9.81945 16.7949 9.78929 16.7431 9.77564L13.9195 9.13358C13.5755 9.05542 13.2607 8.88341 13.0111 8.63719C12.7614 8.39097 12.587 8.08047 12.5078 7.74116L11.849 4.9563C11.8351 4.90521 11.8045 4.86005 11.762 4.82788C11.7194 4.7957 11.6673 4.7783 11.6137 4.77838C11.561 4.77868 11.51 4.79637 11.4688 4.82862C11.4276 4.86087 11.3985 4.90583 11.3862 4.9563L10.7352 7.74889C10.6551 8.08782 10.4805 8.39786 10.231 8.64395C9.98146 8.89003 9.6671 9.06232 9.32347 9.14132L6.4921 9.78338C6.44029 9.79703 6.39451 9.82719 6.36189 9.86916C6.32926 9.91113 6.31162 9.96256 6.31171 10.0155C6.31201 10.0674 6.32994 10.1177 6.36265 10.1583C6.39535 10.199 6.44093 10.2277 6.4921 10.2398L9.32347 10.8818C9.66632 10.9625 9.97978 11.1353 10.229 11.3811C10.4782 11.627 10.6535 11.9361 10.7352 12.2743L11.3862 15.0669C11.3972 15.118 11.4259 15.1638 11.4674 15.1963C11.5089 15.2288 11.5607 15.2459 11.6137 15.2448C11.6676 15.2462 11.7205 15.2294 11.7633 15.197C11.8061 15.1646 11.8364 15.1186 11.849 15.0669L12.4999 12.2665Z" fill="#FFEC60" stroke="#191816" stroke-width="0.5" stroke-linecap="round" stroke-linejoin="round"/>
<path d="M27.4882 25.7577L27.4882 26.5312" stroke="#191816" stroke-width="0.5" stroke-linecap="round" stroke-linejoin="round"/>
<path d="M27.4882 18.7955L27.4882 19.5691" stroke="#191816" stroke-width="0.5" stroke-linecap="round" stroke-linejoin="round"/>
<path d="M25.9196 24.2105C25.9196 24.5165 26.0116 24.8156 26.184 25.07C26.3563 25.3245 26.6013 25.5228 26.888 25.6399C27.1746 25.757 27.49 25.7876 27.7943 25.7279C28.0986 25.6682 28.3781 25.5209 28.5974 25.3045C28.8168 25.0881 28.9662 24.8124 29.0267 24.5123C29.0873 24.2122 29.0562 23.9011 28.9375 23.6184C28.8187 23.3357 28.6177 23.0941 28.3597 22.9241C28.1018 22.7541 27.7985 22.6634 27.4882 22.6634C27.178 22.6634 26.8747 22.5726 26.6168 22.4026C26.3588 22.2326 26.1577 21.991 26.039 21.7083C25.9203 21.4256 25.8892 21.1145 25.9498 20.8144C26.0103 20.5143 26.1597 20.2386 26.3791 20.0222C26.5984 19.8059 26.8779 19.6585 27.1822 19.5988C27.4865 19.5391 27.8019 19.5698 28.0885 19.6869C28.3752 19.804 28.6201 20.0023 28.7925 20.2567C28.9649 20.5111 29.0569 20.8102 29.0569 21.1162" stroke="#191816" stroke-width="0.5" stroke-linecap="round" stroke-linejoin="round"/>
<path d="M25.6058 36.897L25.6058 37.6705" stroke="#191816" stroke-width="0.5" stroke-linecap="round" stroke-linejoin="round"/>
<path d="M25.6058 29.9349L25.6058 30.7085" stroke="#191816" stroke-width="0.5" stroke-linecap="round" stroke-linejoin="round"/>
<path d="M24.0372 35.3499C24.0372 35.6559 24.1292 35.955 24.3016 36.2094C24.474 36.4639 24.7189 36.6622 25.0056 36.7793C25.2922 36.8964 25.6076 36.927 25.9119 36.8673C26.2162 36.8076 26.4957 36.6603 26.715 36.4439C26.9344 36.2275 27.0838 35.9518 27.1443 35.6517C27.2049 35.3516 27.1738 35.0405 27.0551 34.7578C26.9364 34.4751 26.7353 34.2335 26.4773 34.0635C26.2194 33.8935 25.9161 33.8028 25.6059 33.8028C25.2956 33.8028 24.9923 33.712 24.7344 33.542C24.4764 33.372 24.2754 33.1304 24.1566 32.8477C24.0379 32.565 24.0068 32.2539 24.0674 31.9538C24.1279 31.6537 24.2773 31.378 24.4967 31.1616C24.716 30.9453 24.9956 30.7979 25.2998 30.7382C25.6041 30.6785 25.9195 30.7092 26.2061 30.8263C26.4928 30.9434 26.7378 31.1417 26.9101 31.3961C27.0825 31.6505 27.1745 31.9496 27.1745 32.2556" stroke="#191816" stroke-width="0.5" stroke-linecap="round" stroke-linejoin="round"/>
</g>
<defs>
<filter id="filter0_d_1615_112541" x="-6.10352e-05" y="0.136963" width="48" height="47.4521" filterUnits="userSpaceOnUse" color-interpolation-filters="sRGB">
<feFlood flood-opacity="0" result="BackgroundImageFix"/>
<feColorMatrix in="SourceAlpha" type="matrix" values="0 0 0 0 0 0 0 0 0 0 0 0 0 0 0 0 0 0 127 0" result="hardAlpha"/>
<feOffset dy="4"/>
<feGaussianBlur stdDeviation="2"/>
<feComposite in2="hardAlpha" operator="out"/>
<feColorMatrix type="matrix" values="0 0 0 0 0 0 0 0 0 0 0 0 0 0 0 0 0 0 0.15 0"/>
<feBlend mode="normal" in2="BackgroundImageFix" result="effect1_dropShadow_1615_112541"/>
<feBlend mode="normal" in="SourceGraphic" in2="effect1_dropShadow_1615_112541" result="shape"/>
</filter>
</defs>
</svg>
