<svg width="32" height="32" viewBox="0 0 32 32" fill="none" xmlns="http://www.w3.org/2000/svg">
<path d="M14.4663 20.8998L11.6663 18.0998C11.5775 18.0109 11.4775 17.9443 11.3663 17.8998C11.2552 17.8554 11.1441 17.8332 11.033 17.8332C10.9219 17.8332 10.8108 17.8554 10.6997 17.8998C10.5886 17.9443 10.4886 18.0221 10.3997 18.1332C10.2219 18.3109 10.133 18.5276 10.133 18.7832C10.133 19.0387 10.2219 19.2554 10.3997 19.4332L13.7663 22.7998C13.8775 22.9109 13.9886 22.9887 14.0997 23.0332C14.2108 23.0776 14.333 23.0998 14.4663 23.0998C14.5997 23.0998 14.7219 23.0776 14.833 23.0332C14.9441 22.9887 15.0552 22.9109 15.1663 22.7998L21.4663 16.4998C21.6441 16.3221 21.733 16.1054 21.733 15.8498C21.733 15.5943 21.6441 15.3776 21.4663 15.1998C21.2886 15.0221 21.0719 14.9332 20.8163 14.9332C20.5608 14.9332 20.3441 15.0221 20.1663 15.1998L14.4663 20.8998ZM7.33301 29.3332C6.79967 29.3332 6.33301 29.1332 5.93301 28.7332C5.53301 28.3332 5.33301 27.8665 5.33301 27.3332V4.6665C5.33301 4.13317 5.53301 3.6665 5.93301 3.2665C6.33301 2.8665 6.79967 2.6665 7.33301 2.6665H18.533C18.7997 2.6665 19.0608 2.72206 19.3163 2.83317C19.5719 2.94428 19.7886 3.08873 19.9663 3.2665L26.0663 9.3665C26.2441 9.54428 26.3886 9.76095 26.4997 10.0165C26.6108 10.2721 26.6663 10.5332 26.6663 10.7998V27.3332C26.6663 27.8665 26.4663 28.3332 26.0663 28.7332C25.6663 29.1332 25.1997 29.3332 24.6663 29.3332H7.33301ZM18.3663 9.8665V4.6665H7.33301V27.3332H24.6663V10.8665H19.3663C19.0775 10.8665 18.8386 10.7721 18.6497 10.5832C18.4608 10.3943 18.3663 10.1554 18.3663 9.8665ZM7.33301 4.6665V10.8665V4.6665V27.3332V4.6665Z" fill="#B05056"/>
</svg>
