<svg width="68" height="68" viewBox="0 0 68 68" fill="none" xmlns="http://www.w3.org/2000/svg">
<path d="M33.6936 67.4287C52.3021 67.4287 67.3872 52.3343 67.3872 33.7144C67.3872 15.0944 52.3021 0 33.6936 0C15.0851 0 0 15.0944 0 33.7144C0 52.3343 15.0851 67.4287 33.6936 67.4287Z" fill="#FFB2B8"/>
<path d="M58.8459 45.2188C58.8635 45.1523 58.8674 45.0828 58.8573 45.0147C58.8471 44.9466 58.8232 44.8812 58.7869 44.8227C58.75 44.7657 58.7019 44.7168 58.6454 44.6791C58.5889 44.6414 58.5252 44.6157 58.4584 44.6036C57.6923 44.4836 56.9173 44.43 56.142 44.4434C55.6502 44.4324 55.1635 44.5455 54.7268 44.7721C54.2501 45.077 53.9092 45.5539 53.775 46.1038C53.5587 46.0096 53.3225 45.9703 53.0874 45.9894C52.8523 46.0085 52.6255 46.0855 52.4273 46.2134L36.566 56.3277C36.205 56.5689 35.9509 56.9401 35.8568 57.3641C35.7626 57.788 35.8356 58.232 36.0606 58.6034L36.6839 59.5896C36.8003 59.772 36.9515 59.9297 37.129 60.0535C37.3064 60.1773 37.5065 60.2648 37.7178 60.311C37.9291 60.3572 38.1475 60.3612 38.3604 60.3227C38.5732 60.2843 38.7764 60.2041 38.9582 60.0869L54.8279 49.9726C55.0215 49.8477 55.1827 49.6787 55.2984 49.4795C55.414 49.2802 55.4809 49.0564 55.4934 48.8263C55.6641 48.8685 55.84 48.8856 56.0156 48.8768C56.41 48.8605 56.7933 48.7414 57.1275 48.5313C58.0457 47.9413 58.7195 45.6656 58.8459 45.2188Z" fill="#FE7983"/>
<path d="M11.1105 44.9158C11.2457 45.512 11.4971 46.0757 11.8501 46.5746C12.2032 47.0735 12.6511 47.498 13.1682 47.8236C13.6853 48.1492 14.2614 48.3697 14.8637 48.4724C15.466 48.5751 16.0826 48.558 16.6783 48.4221L58.61 38.8304C58.9042 38.7546 59.157 38.5667 59.3145 38.3068C59.4719 38.0469 59.5214 37.7356 59.4524 37.4397L54.8195 17.0256C54.7438 16.7313 54.556 16.4783 54.2962 16.3208C54.0365 16.1632 53.7254 16.1137 53.4296 16.1828L11.4979 25.7408C10.2962 26.016 9.25282 26.7575 8.59729 27.8022C7.94176 28.847 7.72772 30.1095 8.00223 31.3121L11.1105 44.9158Z" fill="#FE7983"/>
<path d="M38.1664 57.98C38.0357 58.0585 37.8907 58.1101 37.7399 58.1318C37.589 58.1535 37.4354 58.1449 37.2879 58.1065C37.1404 58.068 37.0021 58.0005 36.881 57.9079C36.76 57.8152 36.6586 57.6994 36.5828 57.567L35.9932 56.564C35.9157 56.4323 35.8649 56.2867 35.8437 56.1353C35.8225 55.9839 35.8313 55.8299 35.8696 55.682C35.908 55.534 35.9751 55.3951 36.0671 55.2731C36.1591 55.1511 36.2742 55.0485 36.4059 54.971L51.6186 46.0536C51.7272 45.9873 51.8484 45.9441 51.9745 45.9267C52.1006 45.9093 52.2289 45.918 52.3514 45.9524C52.5985 46.0191 52.8099 46.1793 52.9411 46.3992L53.7244 47.7393C53.7894 47.8487 53.8321 47.9699 53.8499 48.0958C53.8677 48.2218 53.8603 48.3501 53.8282 48.4732C53.796 48.5963 53.7398 48.7118 53.6627 48.813C53.5856 48.9141 53.4892 48.999 53.3791 49.0626L38.1664 57.98Z" fill="white"/>
<path d="M41.4179 52.0293L43.1868 55.0383" stroke="#E53946" stroke-linecap="round" stroke-linejoin="round"/>
<path d="M36.4059 54.9709C36.2519 54.7071 36.1514 54.4155 36.1103 54.1127C36.0693 53.81 36.0884 53.5021 36.1667 53.2068C36.245 52.9115 36.3809 52.6346 36.5665 52.392C36.7521 52.1494 36.9838 51.9459 37.2483 51.7933L43.2626 48.2617" stroke="#E53946" stroke-linecap="round" stroke-linejoin="round"/>
<path d="M55.7292 47.7057C55.3271 47.9393 54.8487 48.0035 54.3993 47.8841C53.9499 47.7648 53.5662 47.4717 53.3328 47.0693C53.0993 46.6669 53.0352 46.1882 53.1544 45.7385C53.2737 45.2888 53.5666 44.905 53.9687 44.6714C54.8111 44.1825 57.3381 44.6714 57.3381 44.6714C57.3381 44.6714 56.5631 47.1999 55.7292 47.7057Z" fill="#FE7983"/>
<path d="M55.7292 47.7057C55.3271 47.9393 54.8487 48.0035 54.3993 47.8841C53.9499 47.7648 53.5662 47.4717 53.3328 47.0693C53.0993 46.6669 53.0352 46.1882 53.1544 45.7385C53.2737 45.2888 53.5666 44.905 53.9687 44.6714C54.8111 44.1825 57.3381 44.6714 57.3381 44.6714C57.3381 44.6714 56.5631 47.1999 55.7292 47.7057Z" stroke="#E53946" stroke-linecap="round" stroke-linejoin="round"/>
<path d="M38.1664 57.98C38.0357 58.0585 37.8907 58.1101 37.7399 58.1318C37.589 58.1535 37.4354 58.1449 37.2879 58.1065C37.1404 58.068 37.0021 58.0005 36.881 57.9079C36.76 57.8152 36.6586 57.6994 36.5828 57.567L35.9932 56.564C35.9157 56.4323 35.8649 56.2867 35.8437 56.1353C35.8225 55.9839 35.8313 55.8299 35.8696 55.682C35.908 55.534 35.9751 55.3951 36.0671 55.2731C36.1591 55.1511 36.2742 55.0485 36.4059 54.971L51.6186 46.0536C51.7272 45.9873 51.8484 45.9441 51.9745 45.9267C52.1006 45.9093 52.2289 45.918 52.3514 45.9524C52.5985 46.0191 52.8099 46.1793 52.9411 46.3992L53.7244 47.7393C53.7894 47.8487 53.8321 47.9699 53.8499 48.0958C53.8677 48.2218 53.8603 48.3501 53.8282 48.4732C53.796 48.5963 53.7398 48.7118 53.6627 48.813C53.5856 48.9141 53.4892 48.999 53.3791 49.0626L38.1664 57.98Z" stroke="#E53946" stroke-linecap="round" stroke-linejoin="round"/>
<path d="M13.5785 23.7769L12.3234 18.096C12.2898 17.9411 12.2183 17.7969 12.1154 17.6763C12.0125 17.5557 11.8814 17.4624 11.7338 17.4049C11.5849 17.3466 11.4239 17.3261 11.2652 17.3452C11.1064 17.3643 10.9549 17.4225 10.8241 17.5144C10.2598 17.9095 9.82507 18.463 9.57473 19.105C9.32438 19.747 9.26962 20.4488 9.41735 21.1219L14.185 42.699C14.2837 43.1469 14.4697 43.5709 14.7323 43.9468C14.9949 44.3227 15.329 44.6431 15.7155 44.8897C16.102 45.1363 16.5333 45.3042 16.9846 45.3839C17.436 45.4636 17.8987 45.4534 18.3462 45.354L58.2562 36.5293C58.4977 36.4691 58.7068 36.3183 58.8401 36.108C58.9734 35.8977 59.0207 35.6441 58.9722 35.3999L54.651 15.6938C54.6241 15.5693 54.5728 15.4512 54.5002 15.3465C54.4275 15.2417 54.335 15.1523 54.2278 15.0834C54.1206 15.0145 54.0009 14.9675 53.8755 14.9449C53.7501 14.9224 53.6215 14.9249 53.497 14.9521L13.5785 23.7769Z" fill="white"/>
<path d="M55.0469 33.6719L38.0232 37.431" stroke="#E53946" stroke-linecap="round" stroke-linejoin="round"/>
<path d="M32.3206 27.8146C32.2921 27.6914 32.2886 27.5638 32.3103 27.4393C32.332 27.3148 32.3785 27.1959 32.4469 27.0897C32.5144 26.9813 32.6028 26.8875 32.7069 26.8137C32.8111 26.7399 32.9289 26.6876 33.0534 26.6599L51.5849 22.5636C51.7089 22.535 51.8372 22.5314 51.9626 22.5529C52.0879 22.5744 52.2078 22.6206 52.3151 22.6888C52.4225 22.757 52.5152 22.8459 52.588 22.9503C52.6607 23.0547 52.712 23.1725 52.7389 23.2968L53.5813 27.0897C53.6365 27.34 53.5905 27.6021 53.4531 27.8185C53.3158 28.0349 53.0984 28.188 52.8484 28.2444L34.3169 32.3407C34.1925 32.368 34.0639 32.3704 33.9385 32.3479C33.8131 32.3254 33.6934 32.2783 33.5862 32.2094C33.479 32.1405 33.3864 32.0511 33.3138 31.9464C33.2412 31.8417 33.1899 31.7236 33.1629 31.599L32.3206 27.8146Z" stroke="#E53946" stroke-linecap="round" stroke-linejoin="round"/>
<path d="M51.7871 18.9053L47.2469 19.9083" stroke="#E53946" stroke-linecap="round" stroke-linejoin="round"/>
<path d="M18.6073 35.7705L19.1043 38.0378" stroke="#E53946" stroke-linecap="round" stroke-linejoin="round"/>
<path d="M20.8816 35.2646L21.3786 37.5404" stroke="#E53946" stroke-linecap="round" stroke-linejoin="round"/>
<path d="M23.1475 34.7676L23.6529 37.0349" stroke="#E53946" stroke-linecap="round" stroke-linejoin="round"/>
<path d="M25.4218 34.2617L25.9188 36.5374" stroke="#E53946" stroke-linecap="round" stroke-linejoin="round"/>
<path d="M27.6877 33.7646L28.1931 36.0319" stroke="#E53946" stroke-linecap="round" stroke-linejoin="round"/>
<path d="M13.9323 41.561L29.8273 38.0547" stroke="#E53946" stroke-linecap="round" stroke-linejoin="round"/>
<path d="M15.836 34.0009L28.3195 31.2363" stroke="#E53946" stroke-linecap="round" stroke-linejoin="round"/>
<path d="M13.5785 23.7769L53.497 14.9521C53.6215 14.9249 53.7501 14.9224 53.8755 14.9449C54.0009 14.9675 54.1206 15.0145 54.2278 15.0834C54.335 15.1523 54.4275 15.2417 54.5002 15.3465C54.5728 15.4512 54.6241 15.5693 54.651 15.6938L58.9722 35.3999C58.9995 35.5244 59.0019 35.6531 58.9794 35.7786C58.9569 35.9041 58.9099 36.0239 58.841 36.1311C58.7721 36.2384 58.6828 36.331 58.5781 36.4037C58.4735 36.4763 58.3555 36.5276 58.231 36.5546L18.3462 45.3541C17.4995 45.5598 16.6064 45.441 15.8429 45.0209C15.0794 44.6009 14.5007 43.91 14.2207 43.0844C13.9408 42.2588 13.9798 41.3582 14.3302 40.56C14.6806 39.7617 15.3169 39.1236 16.114 38.7713C16.3141 38.6786 16.4766 38.5203 16.5746 38.3226C16.6727 38.1249 16.7003 37.8996 16.6531 37.684L12.3234 18.096C12.2898 17.9411 12.2183 17.7969 12.1154 17.6763C12.0125 17.5557 11.8814 17.4624 11.7338 17.4049C11.5849 17.3466 11.4239 17.3261 11.2652 17.3452C11.1064 17.3643 10.9549 17.4225 10.8241 17.5144C10.2598 17.9095 9.82507 18.463 9.57473 19.105C9.32438 19.747 9.26962 20.4488 9.41735 21.1219L14.185 42.6991" stroke="#E53946" stroke-linecap="round" stroke-linejoin="round"/>
<path d="M34.8813 28.5986L35.134 29.7365" stroke="#E53946" stroke-linecap="round" stroke-linejoin="round"/>
<path d="M38.2843 27.8477L38.5371 28.9771" stroke="#E53946" stroke-linecap="round" stroke-linejoin="round"/>
<path d="M40.5587 27.3428L40.803 28.4806" stroke="#E53946" stroke-linecap="round" stroke-linejoin="round"/>
<path d="M42.8246 26.8447L43.0773 27.9742" stroke="#E53946" stroke-linecap="round" stroke-linejoin="round"/>
<path d="M46.2276 26.0869L46.4803 27.2248" stroke="#E53946" stroke-linecap="round" stroke-linejoin="round"/>
<path d="M48.502 25.5889L48.7547 26.7183" stroke="#E53946" stroke-linecap="round" stroke-linejoin="round"/>
<path d="M50.7763 25.083L51.0205 26.2209" stroke="#E53946" stroke-linecap="round" stroke-linejoin="round"/>
<path d="M27.3592 26.8867C27.3877 27.0099 27.3912 27.1375 27.3695 27.262C27.3478 27.3865 27.3013 27.5054 27.2329 27.6116C27.0926 27.8267 26.8757 27.9804 26.6264 28.0414L15.0863 30.57L14.3282 27.1986L25.8683 24.67C25.9922 24.6415 26.1206 24.6378 26.2459 24.6593C26.3713 24.6808 26.4911 24.727 26.5985 24.7952C26.7058 24.8635 26.7986 24.9523 26.8713 25.0567C26.9441 25.1611 26.9954 25.2789 27.0223 25.4033L27.3592 26.8867Z" fill="#FE7983" stroke="#E53946" stroke-linecap="round" stroke-linejoin="round"/>
<path d="M41.9907 36.5548C41.6539 36.6283 41.303 36.6003 40.9822 36.4743C40.6614 36.3484 40.3851 36.1301 40.1882 35.8471C39.9913 35.5641 39.8826 35.2291 39.8758 34.8843C39.8691 34.5396 39.9646 34.2005 40.1503 33.91C40.336 33.6195 40.6036 33.3906 40.9192 33.2522C41.2349 33.1138 41.5844 33.0721 41.9237 33.1323C42.2631 33.1925 42.5769 33.352 42.8257 33.5906C43.0745 33.8293 43.247 34.1363 43.3216 34.473" stroke="#E53946" stroke-linecap="round" stroke-linejoin="round"/>
<path d="M50.0097 32.3994C50.1076 32.852 50.0226 33.3249 49.7732 33.7149C49.5239 34.1049 49.1305 34.3805 48.6788 34.4813" stroke="#E53946" stroke-linecap="round" stroke-linejoin="round"/>
<path d="M43.4479 35.0457C43.3475 34.5942 43.4304 34.1212 43.6784 33.7308C43.9264 33.3404 44.3192 33.0646 44.7704 32.9639" stroke="#E53946" stroke-linecap="round" stroke-linejoin="round"/>
<path d="M46.2866 34.4139C46.1862 33.9624 46.2691 33.4894 46.5171 33.099C46.7651 32.7086 47.1579 32.4327 47.6091 32.332" stroke="#E53946" stroke-linecap="round" stroke-linejoin="round"/>
</svg>
