<svg width="22" height="22" viewBox="0 0 22 22" fill="none" xmlns="http://www.w3.org/2000/svg">
<g clip-path="url(#clip0_360_13698)">
<mask id="path-1-inside-1_360_13698" fill="white">
<path d="M16.3066 7.19727C16.3066 4.25391 13.9218 1.86914 10.9784 1.86914C8.03508 1.86914 5.65031 4.25391 5.65031 7.19727C5.65031 8.97617 6.52258 10.5531 7.8632 11.5199C7.85461 11.5242 7.84816 11.5264 7.84387 11.5285C6.88352 11.9346 6.02199 12.5168 5.28078 13.2602C4.53957 14.0014 3.95949 14.865 3.55344 15.8275C3.15598 16.7686 2.94328 17.7676 2.9218 18.7945C2.91965 18.8912 2.99699 18.9707 3.09367 18.9707H4.38059C4.47297 18.9707 4.55031 18.8955 4.55246 18.8031C4.59543 17.1445 5.2593 15.5912 6.43449 14.4139C7.64836 13.1957 9.25969 12.5254 10.9784 12.5254C13.9218 12.5254 16.3066 10.1406 16.3066 7.19727ZM10.9784 10.8926C8.93742 10.8926 7.28312 9.23828 7.28312 7.19727C7.28312 5.15625 8.93742 3.50195 10.9784 3.50195C13.0195 3.50195 14.6737 5.15625 14.6737 7.19727C14.6737 9.23828 13.0195 10.8926 10.9784 10.8926ZM13.2343 15.6406H18.9062C19.0007 15.6406 19.078 15.5633 19.078 15.4688V14.2656C19.078 14.1711 19.0007 14.0938 18.9062 14.0938H15.1142L16.1282 12.8025C16.1519 12.7725 16.1648 12.7338 16.1648 12.6973C16.1648 12.6027 16.0874 12.5254 15.9929 12.5254H14.4331C14.3279 12.5254 14.229 12.5748 14.1624 12.6564L12.6907 14.5277C12.5962 14.648 12.5446 14.7984 12.5446 14.9531C12.5468 15.3334 12.854 15.6406 13.2343 15.6406ZM18.3905 17.0156H12.7187C12.6241 17.0156 12.5468 17.093 12.5468 17.1875V18.3906C12.5468 18.4852 12.6241 18.5625 12.7187 18.5625H16.5107L15.4966 19.8537C15.473 19.8838 15.4601 19.9225 15.4601 19.959C15.4601 20.0535 15.5374 20.1309 15.632 20.1309H17.1917C17.297 20.1309 17.3958 20.0814 17.4624 19.9998L18.9341 18.1285C19.0286 18.0082 19.0802 17.8578 19.0802 17.7031C19.078 17.3229 18.7708 17.0156 18.3905 17.0156Z"/>
</mask>
<path d="M16.3066 7.19727C16.3066 4.25391 13.9218 1.86914 10.9784 1.86914C8.03508 1.86914 5.65031 4.25391 5.65031 7.19727C5.65031 8.97617 6.52258 10.5531 7.8632 11.5199C7.85461 11.5242 7.84816 11.5264 7.84387 11.5285C6.88352 11.9346 6.02199 12.5168 5.28078 13.2602C4.53957 14.0014 3.95949 14.865 3.55344 15.8275C3.15598 16.7686 2.94328 17.7676 2.9218 18.7945C2.91965 18.8912 2.99699 18.9707 3.09367 18.9707H4.38059C4.47297 18.9707 4.55031 18.8955 4.55246 18.8031C4.59543 17.1445 5.2593 15.5912 6.43449 14.4139C7.64836 13.1957 9.25969 12.5254 10.9784 12.5254C13.9218 12.5254 16.3066 10.1406 16.3066 7.19727ZM10.9784 10.8926C8.93742 10.8926 7.28312 9.23828 7.28312 7.19727C7.28312 5.15625 8.93742 3.50195 10.9784 3.50195C13.0195 3.50195 14.6737 5.15625 14.6737 7.19727C14.6737 9.23828 13.0195 10.8926 10.9784 10.8926ZM13.2343 15.6406H18.9062C19.0007 15.6406 19.078 15.5633 19.078 15.4688V14.2656C19.078 14.1711 19.0007 14.0938 18.9062 14.0938H15.1142L16.1282 12.8025C16.1519 12.7725 16.1648 12.7338 16.1648 12.6973C16.1648 12.6027 16.0874 12.5254 15.9929 12.5254H14.4331C14.3279 12.5254 14.229 12.5748 14.1624 12.6564L12.6907 14.5277C12.5962 14.648 12.5446 14.7984 12.5446 14.9531C12.5468 15.3334 12.854 15.6406 13.2343 15.6406ZM18.3905 17.0156H12.7187C12.6241 17.0156 12.5468 17.093 12.5468 17.1875V18.3906C12.5468 18.4852 12.6241 18.5625 12.7187 18.5625H16.5107L15.4966 19.8537C15.473 19.8838 15.4601 19.9225 15.4601 19.959C15.4601 20.0535 15.5374 20.1309 15.632 20.1309H17.1917C17.297 20.1309 17.3958 20.0814 17.4624 19.9998L18.9341 18.1285C19.0286 18.0082 19.0802 17.8578 19.0802 17.7031C19.078 17.3229 18.7708 17.0156 18.3905 17.0156Z" fill="#54A9FF"/>
<path d="M7.8632 11.5199L9.20484 14.2032L13.6387 11.9863L9.61797 9.08665L7.8632 11.5199ZM7.84387 11.5285L9.01218 14.2917L9.10012 14.2545L9.18551 14.2118L7.84387 11.5285ZM5.28078 13.2602L7.4021 15.3815L7.40517 15.3784L5.28078 13.2602ZM3.55344 15.8275L6.31704 16.9948L6.31753 16.9936L3.55344 15.8275ZM2.9218 18.7945L5.92106 18.8612L5.92114 18.8573L2.9218 18.7945ZM4.55246 18.8031L1.55346 18.7254L1.55327 18.7334L4.55246 18.8031ZM6.43449 14.4139L8.55775 16.5332L8.55956 16.5314L6.43449 14.4139ZM15.1142 14.0938L12.7548 12.2408L8.94351 17.0938H15.1142V14.0938ZM16.1282 12.8025L13.7693 10.9491L13.7689 10.9496L16.1282 12.8025ZM14.1624 12.6564L11.8378 10.7601L11.8209 10.7808L11.8043 10.8019L14.1624 12.6564ZM12.6907 14.5277L10.3326 12.6732L10.3318 12.6743L12.6907 14.5277ZM12.5446 14.9531H9.54465V14.9616L9.5447 14.9701L12.5446 14.9531ZM16.5107 18.5625L18.87 20.4154L22.6813 15.5625H16.5107V18.5625ZM15.4966 19.8537L17.8556 21.7072L17.856 21.7067L15.4966 19.8537ZM17.4624 19.9998L19.787 21.8962L19.804 21.8754L19.8205 21.8543L17.4624 19.9998ZM18.9341 18.1285L21.2922 19.9831L21.2931 19.982L18.9341 18.1285ZM19.0802 17.7031H22.0802V17.6947L22.0801 17.6862L19.0802 17.7031ZM19.3066 7.19727C19.3066 2.59705 15.5787 -1.13086 10.9784 -1.13086V4.86914C12.2649 4.86914 13.3066 5.91076 13.3066 7.19727H19.3066ZM10.9784 -1.13086C6.37822 -1.13086 2.65031 2.59705 2.65031 7.19727H8.65031C8.65031 5.91076 9.69193 4.86914 10.9784 4.86914V-1.13086ZM2.65031 7.19727C2.65031 9.97954 4.01832 12.4459 6.10844 13.9532L9.61797 9.08665C9.02683 8.66035 8.65031 7.9728 8.65031 7.19727H2.65031ZM6.52156 8.83664C6.56448 8.81518 6.60267 8.79744 6.63423 8.78335C6.66498 8.76962 6.68908 8.75954 6.69811 8.75578C6.70033 8.75485 6.70199 8.75417 6.70228 8.75405C6.70235 8.75402 6.70257 8.75393 6.7021 8.75412C6.70183 8.75424 6.70112 8.75453 6.70027 8.75488C6.69866 8.75555 6.69533 8.75693 6.69121 8.75865C6.68703 8.7604 6.68113 8.76288 6.6741 8.76586C6.66706 8.76886 6.65815 8.77267 6.64788 8.77715C6.6376 8.78163 6.62527 8.78707 6.61135 8.79335C6.59743 8.79964 6.58123 8.80707 6.56324 8.81558C6.54524 8.82408 6.52474 8.83398 6.50223 8.84523L9.18551 14.2118C9.16353 14.2228 9.14358 14.2324 9.12616 14.2406C9.10873 14.2489 9.09312 14.256 9.07981 14.2621C9.06649 14.2681 9.05478 14.2732 9.04514 14.2774C9.03551 14.2816 9.02725 14.2852 9.02088 14.2879C9.01452 14.2906 9.00931 14.2928 9.00584 14.2942C9.00242 14.2956 8.99982 14.2967 8.99894 14.2971C8.99847 14.2973 8.99813 14.2974 8.99823 14.2974C8.99825 14.2974 8.99827 14.2974 8.99832 14.2973C8.99836 14.2973 8.99844 14.2973 8.99851 14.2973C8.99867 14.2972 8.99891 14.2971 8.9992 14.297C9.00027 14.2965 9.00271 14.2955 9.00573 14.2943C9.01799 14.2892 9.04558 14.2776 9.08009 14.2622C9.11541 14.2464 9.15762 14.2268 9.20484 14.2032L6.52156 8.83664ZM6.67555 8.76536C5.35492 9.32375 4.16937 10.126 3.15639 11.1419L7.40517 15.3784C7.87461 14.9076 8.41211 14.5454 9.01218 14.2917L6.67555 8.76536ZM3.15946 11.1388C2.14355 12.1547 1.34554 13.343 0.789345 14.6614L6.31753 16.9936C6.57344 16.387 6.93559 15.848 7.4021 15.3815L3.15946 11.1388ZM0.789839 14.6603C0.243754 15.9532 -0.048162 17.3272 -0.0775471 18.7318L5.92114 18.8573C5.93472 18.208 6.0682 17.584 6.31703 16.9948L0.789839 14.6603ZM-0.0774629 18.7279C-0.11679 20.4976 1.30457 21.9707 3.09367 21.9707V15.9707C4.68942 15.9707 5.95609 17.2848 5.92106 18.8612L-0.0774629 18.7279ZM3.09367 21.9707H4.38059V15.9707H3.09367V21.9707ZM4.38059 21.9707C6.09438 21.9707 7.51142 20.6027 7.55165 18.8729L1.55327 18.7334C1.5892 17.1883 2.85155 15.9707 4.38059 15.9707V21.9707ZM7.55145 18.8808C7.57459 17.9879 7.9263 17.1659 8.55775 16.5332L4.31123 12.2945C2.5923 14.0166 1.61627 16.3011 1.55347 18.7254L7.55145 18.8808ZM8.55956 16.5314C9.21171 15.877 10.0589 15.5254 10.9784 15.5254V9.52539C8.46051 9.52539 6.08501 10.5144 4.30943 12.2963L8.55956 16.5314ZM10.9784 15.5254C15.5787 15.5254 19.3066 11.7975 19.3066 7.19727H13.3066C13.3066 8.48377 12.2649 9.52539 10.9784 9.52539V15.5254ZM10.9784 7.89258C10.5943 7.89258 10.2831 7.58143 10.2831 7.19727H4.28312C4.28312 10.8951 7.28057 13.8926 10.9784 13.8926V7.89258ZM10.2831 7.19727C10.2831 6.8131 10.5943 6.50195 10.9784 6.50195V0.501953C7.28057 0.501953 4.28312 3.4994 4.28312 7.19727H10.2831ZM10.9784 6.50195C11.3626 6.50195 11.6737 6.8131 11.6737 7.19727H17.6737C17.6737 3.4994 14.6763 0.501953 10.9784 0.501953V6.50195ZM11.6737 7.19727C11.6737 7.58143 11.3626 7.89258 10.9784 7.89258V13.8926C14.6763 13.8926 17.6737 10.8951 17.6737 7.19727H11.6737ZM13.2343 18.6406H18.9062V12.6406H13.2343V18.6406ZM18.9062 18.6406C20.6576 18.6406 22.078 17.2201 22.078 15.4688H16.078C16.078 13.9064 17.3438 12.6406 18.9062 12.6406V18.6406ZM22.078 15.4688V14.2656H16.078V15.4688H22.078ZM22.078 14.2656C22.078 12.5142 20.6576 11.0938 18.9062 11.0938V17.0938C17.3438 17.0938 16.078 15.8279 16.078 14.2656H22.078ZM18.9062 11.0938H15.1142V17.0938H18.9062V11.0938ZM17.4735 15.9467L18.4876 14.6555L13.7689 10.9496L12.7548 12.2408L17.4735 15.9467ZM18.4872 14.656C18.9322 14.0897 19.1648 13.3962 19.1648 12.6973H13.1648C13.1648 12.0714 13.3716 11.4552 13.7693 10.9491L18.4872 14.656ZM19.1648 12.6973C19.1648 10.9459 17.7443 9.52539 15.9929 9.52539V15.5254C14.4306 15.5254 13.1648 14.2596 13.1648 12.6973H19.1648ZM15.9929 9.52539H14.4331V15.5254H15.9929V9.52539ZM14.4331 9.52539C13.3782 9.52539 12.4429 10.0184 11.8378 10.7601L16.487 14.5528C16.0152 15.1312 15.2775 15.5254 14.4331 15.5254V9.52539ZM11.8043 10.8019L10.3326 12.6732L15.0489 16.3823L16.5205 14.511L11.8043 10.8019ZM10.3318 12.6743C9.81595 13.3308 9.54465 14.136 9.54465 14.9531H15.5446C15.5446 15.4608 15.3765 15.9653 15.0497 16.3812L10.3318 12.6743ZM9.5447 14.9701C9.55611 16.9907 11.1939 18.6406 13.2343 18.6406V12.6406C14.5141 12.6406 15.5375 13.6761 15.5446 14.9362L9.5447 14.9701ZM18.3905 14.0156H12.7187V20.0156H18.3905V14.0156ZM12.7187 14.0156C10.9673 14.0156 9.5468 15.4361 9.5468 17.1875H15.5468C15.5468 18.7498 14.281 20.0156 12.7187 20.0156V14.0156ZM9.5468 17.1875V18.3906H15.5468V17.1875H9.5468ZM9.5468 18.3906C9.5468 20.142 10.9673 21.5625 12.7187 21.5625V15.5625C14.281 15.5625 15.5468 16.8283 15.5468 18.3906H9.5468ZM12.7187 21.5625H16.5107V15.5625H12.7187V21.5625ZM14.1513 16.7096L13.1372 18.0008L17.856 21.7067L18.87 20.4154L14.1513 16.7096ZM13.1376 18.0002C12.6927 18.5666 12.4601 19.2601 12.4601 19.959H18.4601C18.4601 20.5848 18.2532 21.201 17.8556 21.7072L13.1376 18.0002ZM12.4601 19.959C12.4601 21.7104 13.8806 23.1309 15.632 23.1309V17.1309C17.1943 17.1309 18.4601 18.3967 18.4601 19.959H12.4601ZM15.632 23.1309H17.1917V17.1309H15.632V23.1309ZM17.1917 23.1309C18.2467 23.1309 19.182 22.6379 19.787 21.8962L15.1378 18.1034C15.6097 17.525 16.3473 17.1309 17.1917 17.1309V23.1309ZM19.8205 21.8543L21.2922 19.9831L16.576 16.274L15.1043 18.1453L19.8205 21.8543ZM21.2931 19.982C21.8089 19.3255 22.0802 18.5202 22.0802 17.7031H16.0802C16.0802 17.1954 16.2484 16.6909 16.5751 16.2751L21.2931 19.982ZM22.0801 17.6862C22.0687 15.6656 20.4309 14.0156 18.3905 14.0156V20.0156C17.1107 20.0156 16.0874 18.9801 16.0802 17.7201L22.0801 17.6862Z" fill="#54A9FF" mask="url(#path-1-inside-1_360_13698)"/>
</g>
<defs>
<clipPath id="clip0_360_13698">
<rect width="22" height="22" fill="white"/>
</clipPath>
</defs>
</svg>
