<svg width="16" height="16" viewBox="0 0 16 16" fill="none" xmlns="http://www.w3.org/2000/svg">
<path d="M1.18467 14.9743C0.868756 14.9743 0.592334 14.8561 0.3554 14.6198C0.118467 14.3835 0 14.1078 0 13.7927V1.97654C0 1.66144 0.118467 1.38573 0.3554 1.14941C0.592334 0.913083 0.868756 0.794922 1.18467 0.794922H13.0313C13.3473 0.794922 13.6237 0.913083 13.8606 1.14941C14.0975 1.38573 14.216 1.66144 14.216 1.97654V7.37258C14.0317 7.26755 13.8409 7.18549 13.6434 7.12641C13.446 7.06733 13.242 7.01153 13.0313 6.95901V1.97654H1.18467V13.064C1.96128 12.3419 2.83991 11.7544 3.82055 11.3015C4.8012 10.8485 5.86411 10.6155 7.00928 10.6023C6.95663 10.7861 6.91714 10.9765 6.89082 11.1734C6.86449 11.3704 6.85133 11.5739 6.85133 11.7839C6.02206 11.8102 5.21912 11.9776 4.4425 12.2861C3.66589 12.5947 2.94193 13.0378 2.27061 13.6154V13.7927H7.22647C7.31861 14.0159 7.41734 14.2227 7.52264 14.413C7.62794 14.6034 7.75299 14.7905 7.89779 14.9743H1.18467ZM7.1475 9.04654C7.2528 9.04654 7.35481 9.04325 7.45354 9.03669C7.55226 9.03012 7.65427 9.01371 7.75957 8.98745C8.00967 8.6461 8.29597 8.33428 8.61846 8.05201C8.94095 7.76973 9.29306 7.53669 9.67479 7.35289C9.7406 7.19534 9.78996 7.03122 9.82287 6.86055C9.85578 6.68987 9.87223 6.51263 9.87223 6.32882C9.87223 5.56733 9.60897 4.92401 9.08245 4.39885C8.55593 3.87369 7.91095 3.6111 7.1475 3.6111C6.38404 3.6111 5.73906 3.87369 5.21254 4.39885C4.68602 4.92401 4.42276 5.56733 4.42276 6.32882C4.42276 7.09031 4.68602 7.73363 5.21254 8.25879C5.73906 8.78395 6.38404 9.04654 7.1475 9.04654ZM7.1475 7.86492C6.72628 7.86492 6.3643 7.71394 6.06155 7.41197C5.7588 7.11 5.60743 6.74895 5.60743 6.32882C5.60743 5.90869 5.7588 5.54764 6.06155 5.24567C6.3643 4.9437 6.72628 4.79272 7.1475 4.79272C7.56871 4.79272 7.93069 4.9437 8.23344 5.24567C8.53619 5.54764 8.68756 5.90869 8.68756 6.32882C8.68756 6.74895 8.53619 7.11 8.23344 7.41197C7.93069 7.71394 7.56871 7.86492 7.1475 7.86492ZM11.3136 15.762L11.2149 14.8168C10.9516 14.738 10.6818 14.6231 10.4053 14.4721C10.1289 14.3211 9.90514 14.1537 9.73402 13.9699L8.90475 14.3638L8.2137 13.3004L8.96399 12.7095C8.89817 12.4076 8.86526 12.1351 8.86526 11.8923C8.86526 11.6494 8.89817 11.3769 8.96399 11.075L8.2137 10.4842L8.90475 9.40102L9.73402 9.79489C9.90514 9.63734 10.1289 9.47979 10.4053 9.32225C10.6818 9.1647 10.9516 9.04654 11.2149 8.96776L11.3136 8.00277H12.4982L12.6167 8.96776C12.88 9.04654 13.1498 9.1647 13.4262 9.32225C13.7027 9.47979 13.9264 9.63734 14.0975 9.79489L14.9268 9.40102L15.6179 10.4842L14.8676 11.075C14.9334 11.3769 14.9663 11.6494 14.9663 11.8923C14.9663 12.1351 14.9334 12.4076 14.8676 12.7095L15.6179 13.3004L14.9268 14.3638L14.0975 13.9699C13.9264 14.1537 13.7027 14.3211 13.4262 14.4721C13.1498 14.6231 12.88 14.738 12.6167 14.8168L12.4982 15.762H11.3136ZM11.9059 13.8912C12.4851 13.8912 12.9655 13.7008 13.3473 13.32C13.729 12.9393 13.9198 12.4601 13.9198 11.8824C13.9198 11.3047 13.729 10.8255 13.3473 10.4448C12.9655 10.064 12.4851 9.87367 11.9059 9.87367C11.3267 9.87367 10.8463 10.064 10.4646 10.4448C10.0828 10.8255 9.89198 11.3047 9.89198 11.8824C9.89198 12.4601 10.0828 12.9393 10.4646 13.32C10.8463 13.7008 11.3267 13.8912 11.9059 13.8912Z" fill="#B05056"/>
</svg>
