<svg width="17" height="17" viewBox="0 0 17 17" fill="none" xmlns="http://www.w3.org/2000/svg">
<path d="M1.60356 16.8091C1.18283 16.8091 0.82996 16.6668 0.544948 16.3822C0.259937 16.0976 0.117432 15.7453 0.117432 15.3252V7.82402C0.117432 7.52587 0.19547 7.25144 0.351548 7.00072C0.507625 6.75001 0.72817 6.56367 1.01318 6.4417L5.06441 4.71379C5.30871 4.61893 5.53943 4.63925 5.75658 4.77478C5.97373 4.9103 6.08231 5.11358 6.08231 5.38463V5.91316L9.15636 4.67314C9.40065 4.57827 9.62798 4.60537 9.83835 4.75445C10.0487 4.90352 10.1539 5.10681 10.1539 5.3643V6.78728H16.6684V15.3252C16.6684 15.7453 16.5225 16.0976 16.2307 16.3822C15.9389 16.6668 15.5895 16.8091 15.1823 16.8091H1.60356ZM15.1823 8.27124H8.66777V6.46202L4.59618 8.08829V6.50268L1.60356 7.82402V15.3252H15.1823V8.27124ZM8.38276 13.5566C8.58633 13.5566 8.76277 13.4854 8.91206 13.3431C9.06135 13.2008 9.136 13.0281 9.136 12.8248V10.7919C9.136 10.5887 9.06135 10.4125 8.91206 10.2634C8.76277 10.1143 8.58633 10.0398 8.38276 10.0398C8.17918 10.0398 8.00613 10.1143 7.86363 10.2634C7.72112 10.4125 7.64987 10.5887 7.64987 10.7919V12.8248C7.64987 13.0281 7.72112 13.2008 7.86363 13.3431C8.00613 13.4854 8.17918 13.5566 8.38276 13.5566ZM5.12548 13.5566C5.32906 13.5566 5.5055 13.4854 5.65479 13.3431C5.80408 13.2008 5.87873 13.0281 5.87873 12.8248V10.7919C5.87873 10.5887 5.80408 10.4125 5.65479 10.2634C5.5055 10.1143 5.32906 10.0398 5.12548 10.0398C4.92191 10.0398 4.74886 10.1143 4.60636 10.2634C4.46385 10.4125 4.3926 10.5887 4.3926 10.7919V12.8248C4.3926 13.0281 4.46385 13.2008 4.60636 13.3431C4.74886 13.4854 4.92191 13.5566 5.12548 13.5566ZM11.64 13.5566C11.8436 13.5566 12.02 13.4854 12.1693 13.3431C12.3186 13.2008 12.3933 13.0281 12.3933 12.8248V10.7919C12.3933 10.5887 12.3186 10.4125 12.1693 10.2634C12.02 10.1143 11.8436 10.0398 11.64 10.0398C11.4364 10.0398 11.2634 10.1143 11.1209 10.2634C10.9784 10.4125 10.9071 10.5887 10.9071 10.7919V12.8248C10.9071 13.0281 10.9784 13.2008 11.1209 13.3431C11.2634 13.4854 11.4364 13.5566 11.64 13.5566ZM16.6684 6.78728H12.7597L13.4926 0.932732C13.5062 0.743001 13.5808 0.587151 13.7165 0.465181C13.8523 0.343211 14.0151 0.282227 14.2051 0.282227H15.2027C15.3791 0.282227 15.5352 0.343211 15.6709 0.465181C15.8066 0.587151 15.888 0.736225 15.9152 0.912403L16.6684 6.78728ZM15.1823 15.3252H1.60356H15.1823Z" fill="#B05056"/>
</svg>
