<svg width="14" height="16" viewBox="0 0 14 16" fill="none" xmlns="http://www.w3.org/2000/svg">
<path d="M5.78578 15.4778H1.41183C1.12023 15.4778 0.862277 15.3517 0.637972 15.0996C0.413666 14.8474 0.301514 14.5575 0.301514 14.2297V2.84533C0.301514 2.51754 0.410863 2.22757 0.629561 1.97543C0.848258 1.72328 1.08658 1.59721 1.34453 1.59721H4.64182C4.75398 1.14335 4.97548 0.774588 5.30633 0.490925C5.63718 0.207261 6.0157 0.0654297 6.44188 0.0654297C6.85684 0.0654297 7.22975 0.207261 7.5606 0.490925C7.89145 0.774588 8.11856 1.14335 8.24193 1.59721H11.5392C11.8308 1.59721 12.0888 1.72328 12.3131 1.97543C12.5374 2.22757 12.6495 2.51754 12.6495 2.84533V6.85444H11.4215V2.97771H9.82328V4.26365C9.82328 4.65447 9.70552 4.98226 9.47 5.24701C9.23448 5.51177 8.94288 5.64414 8.59521 5.64414H4.35583C4.00816 5.64414 3.71656 5.51177 3.48104 5.24701C3.24552 4.98226 3.12776 4.65447 3.12776 4.26365V2.97771H1.52959V14.0973H5.78578V15.4778ZM8.99896 12.9437L12.6327 8.85899C12.7449 8.73292 12.885 8.67303 13.0533 8.67934C13.2215 8.68564 13.3673 8.75183 13.4907 8.8779C13.6028 9.01658 13.6589 9.18363 13.6589 9.37904C13.6589 9.57445 13.6028 9.7352 13.4907 9.86127L9.43635 14.4188C9.31299 14.5575 9.16719 14.6268 8.99896 14.6268C8.83073 14.6268 8.69054 14.5575 8.57839 14.4188L6.57646 12.1684C6.45309 12.0423 6.39421 11.8816 6.39982 11.6862C6.40543 11.4908 6.46991 11.3237 6.59328 11.185C6.70544 11.059 6.84843 10.9959 7.02227 10.9959C7.1961 10.9959 7.34471 11.059 7.46807 11.185L8.99896 12.9437ZM6.64375 2.88315C6.82319 2.88315 6.98021 2.81066 7.11479 2.66568C7.24938 2.52069 7.31667 2.34104 7.31667 2.12672C7.31667 1.925 7.24938 1.7485 7.11479 1.59721C6.98021 1.44592 6.82319 1.37028 6.64375 1.37028C6.45309 1.37028 6.29327 1.44592 6.1643 1.59721C6.03532 1.7485 5.97083 1.925 5.97083 2.12672C5.97083 2.34104 6.03532 2.52069 6.1643 2.66568C6.29327 2.81066 6.45309 2.88315 6.64375 2.88315Z" fill="#B05056"/>
</svg>
