<svg width="18" height="15" viewBox="0 0 18 15" fill="none" xmlns="http://www.w3.org/2000/svg">
<path d="M13.3334 9.21582C12.7362 9.21582 12.2327 9.01443 11.823 8.61165C11.4133 8.20888 11.2084 7.70888 11.2084 7.11165C11.2084 6.51443 11.4098 6.01096 11.8126 5.60124C12.2154 5.19151 12.7154 4.98665 13.3126 4.98665C13.9098 4.98665 14.4133 5.18804 14.823 5.59082C15.2327 5.9936 15.4376 6.4936 15.4376 7.09082C15.4376 7.68804 15.2362 8.19151 14.8334 8.60124C14.4306 9.01096 13.9306 9.21582 13.3334 9.21582ZM9.81258 14.2367C9.60425 14.2367 9.42716 14.1672 9.28133 14.0283C9.1355 13.8894 9.06258 13.7089 9.06258 13.4867V13.0283C9.06258 12.6394 9.14939 12.3061 9.323 12.0283C9.49661 11.7505 9.73619 11.5353 10.0417 11.3825C10.5556 11.1186 11.0869 10.9207 11.6355 10.7887C12.1841 10.6568 12.7501 10.5908 13.3334 10.5908C13.9029 10.5908 14.4584 10.6568 15.0001 10.7887C15.5417 10.9207 16.0765 11.1186 16.6042 11.3825C16.9098 11.5353 17.1494 11.7505 17.323 12.0283C17.4966 12.3061 17.5834 12.6394 17.5834 13.0283V13.4867C17.5834 13.7089 17.5105 13.8894 17.3647 14.0283C17.2188 14.1672 17.0417 14.2367 16.8334 14.2367H9.81258ZM7.39591 6.79915C6.4098 6.79915 5.60425 6.48665 4.97925 5.86165C4.35425 5.23665 4.04175 4.4311 4.04175 3.44499C4.04175 2.45888 4.35425 1.65332 4.97925 1.02832C5.60425 0.40332 6.4098 0.0908203 7.39591 0.0908203C8.38203 0.0908203 9.18758 0.40332 9.81258 1.02832C10.4376 1.65332 10.7501 2.45888 10.7501 3.44499C10.7501 4.4311 10.4376 5.23665 9.81258 5.86165C9.18758 6.48665 8.38203 6.79915 7.39591 6.79915ZM1.16675 14.2367C0.958415 14.2367 0.781331 14.1672 0.635498 14.0283C0.489665 13.8894 0.416748 13.7089 0.416748 13.4867V12.0492C0.416748 11.4797 0.538276 10.9728 0.781331 10.5283C1.02439 10.0839 1.38203 9.75749 1.85425 9.54915C2.86814 9.10471 3.81953 8.77832 4.70841 8.56999C5.5973 8.36165 6.49314 8.25749 7.39591 8.25749C7.72925 8.25749 8.04175 8.26443 8.33341 8.27832C8.62508 8.29221 8.81952 8.3061 8.91675 8.31999V9.44499C8.81952 9.50054 8.74661 9.54915 8.698 9.59082C8.64939 9.63249 8.59036 9.69499 8.52091 9.77832H7.39591C6.59036 9.77832 5.80564 9.86513 5.04175 10.0387C4.27786 10.2123 3.44453 10.5144 2.54175 10.945C2.3473 11.0283 2.198 11.1707 2.09383 11.3721C1.98966 11.5735 1.93758 11.7714 1.93758 11.9658V12.7158H8.02091V14.2367H1.16675ZM7.39591 5.27832C7.92369 5.27832 8.36119 5.10471 8.70841 4.75749C9.05564 4.41026 9.22925 3.97276 9.22925 3.44499C9.22925 2.91721 9.05564 2.47971 8.70841 2.13249C8.36119 1.78526 7.92369 1.61165 7.39591 1.61165C6.86814 1.61165 6.43064 1.78526 6.08341 2.13249C5.73619 2.47971 5.56258 2.91721 5.56258 3.44499C5.56258 3.97276 5.73619 4.41026 6.08341 4.75749C6.43064 5.10471 6.86814 5.27832 7.39591 5.27832Z" fill="#B05056"/>
</svg>
