<svg width="11" height="18" viewBox="0 0 11 18" fill="none" xmlns="http://www.w3.org/2000/svg">
<path d="M5.66937 12.2929C6.92819 11.2107 7.8723 10.1748 8.50171 9.185C9.13112 8.19523 9.44582 7.27144 9.44582 6.41364C9.44582 5.66141 9.31624 5.02136 9.05707 4.49348C8.7979 3.9656 8.47702 3.5367 8.09444 3.20677C7.71186 2.87685 7.30151 2.63601 6.8634 2.48424C6.42528 2.33247 6.02727 2.25659 5.66937 2.25659C5.31147 2.25659 4.91346 2.33247 4.47535 2.48424C4.03723 2.63601 3.62688 2.87685 3.2443 3.20677C2.86172 3.5367 2.54393 3.9656 2.29093 4.49348C2.03793 5.02136 1.91143 5.66141 1.91143 6.41364C1.91143 7.27144 2.22305 8.19523 2.84629 9.185C3.46953 10.1748 4.41055 11.2107 5.66937 12.2929ZM5.66937 13.8567C5.58298 13.8567 5.49042 13.8468 5.39169 13.827C5.29296 13.8072 5.20657 13.7644 5.13252 13.6984C3.57751 12.4051 2.42669 11.158 1.68003 9.95703C0.933384 8.7561 0.560059 7.57497 0.560059 6.41364C0.560059 5.48985 0.714325 4.68154 1.02286 3.9887C1.33139 3.29585 1.7294 2.71519 2.21688 2.24669C2.70437 1.7782 3.25047 1.42188 3.8552 1.17774C4.45992 0.933595 5.06465 0.811523 5.66937 0.811523C6.26175 0.811523 6.86339 0.933595 7.47429 1.17774C8.08519 1.42188 8.63438 1.7782 9.12186 2.24669C9.60934 2.71519 10.0104 3.29585 10.3251 3.9887C10.6398 4.68154 10.7972 5.48985 10.7972 6.41364C10.7972 7.57497 10.4208 8.7561 9.66796 9.95703C8.91514 11.158 7.76123 12.4051 6.20622 13.6984C6.13217 13.7644 6.04578 13.8072 5.94705 13.827C5.84832 13.8468 5.75576 13.8567 5.66937 13.8567ZM5.66937 7.79932C6.06429 7.79932 6.4006 7.65086 6.67828 7.35392C6.95596 7.05699 7.0948 6.70397 7.0948 6.29487C7.0948 5.87256 6.95596 5.51295 6.67828 5.21601C6.4006 4.91908 6.06429 4.77062 5.66937 4.77062C5.28679 4.77062 4.95666 4.91908 4.67898 5.21601C4.4013 5.51295 4.26246 5.87256 4.26246 6.29487C4.26246 6.70397 4.4013 7.05699 4.67898 7.35392C4.95666 7.65086 5.28679 7.79932 5.66937 7.79932ZM1.22649 17.1032C1.04137 17.1032 0.884019 17.0339 0.754435 16.8953C0.624851 16.7568 0.560059 16.5885 0.560059 16.3906C0.560059 16.1926 0.624851 16.021 0.754435 15.8759C0.884019 15.7307 1.04137 15.6581 1.22649 15.6581H10.1123C10.2974 15.6581 10.4578 15.7307 10.5936 15.8759C10.7293 16.021 10.7972 16.1926 10.7972 16.3906C10.7972 16.5885 10.7293 16.7568 10.5936 16.8953C10.4578 17.0339 10.2974 17.1032 10.1123 17.1032H1.22649Z" fill="#B05056"/>
</svg>
