<svg width="17" height="17" viewBox="0 0 17 17" fill="none" xmlns="http://www.w3.org/2000/svg">
<path d="M2.71224 16.497C2.35972 16.497 2.06595 16.3815 1.83093 16.1504C1.59592 15.9194 1.47841 15.6428 1.47841 15.3207C1.47841 14.9987 1.59592 14.7221 1.83093 14.491C2.06595 14.26 2.35972 14.1445 2.71224 14.1445H4.27657L1.98516 6.45673C1.48575 6.24668 1.10385 5.94911 0.83946 5.56402C0.575068 5.17894 0.442871 4.69233 0.442871 4.10419C0.442871 3.40403 0.710936 2.7984 1.24707 2.28728C1.7832 1.77617 2.41847 1.52061 3.1529 1.52061C3.79919 1.52061 4.35001 1.68514 4.80535 2.01422C5.2607 2.34329 5.56916 2.78089 5.73073 3.32702H8.85938V2.21376C8.85938 2.00372 8.93282 1.82518 9.07971 1.67814C9.22659 1.53111 9.41754 1.45759 9.65256 1.45759C9.84351 1.45759 9.99406 1.51011 10.1042 1.61513C10.2144 1.72015 10.2842 1.84968 10.3135 2.00372L11.966 0.47037C12.0982 0.358344 12.2598 0.284828 12.4507 0.24982C12.6417 0.214812 12.84 0.239317 13.0456 0.323336L16.5929 1.9407C16.7251 2.01072 16.8242 2.12274 16.8903 2.27678C16.9564 2.43081 16.9454 2.58485 16.8573 2.73888C16.7691 2.89292 16.6443 2.98744 16.4827 3.02245C16.3211 3.05746 16.1669 3.03995 16.02 2.96994L12.627 1.41558L10.4678 3.51606V4.5873L12.627 6.7928L16.02 5.21744C16.1816 5.14743 16.3358 5.13343 16.4827 5.17544C16.6296 5.21744 16.7544 5.31547 16.8573 5.4695C16.9307 5.62354 16.9381 5.78457 16.8793 5.95261C16.8205 6.12065 16.7177 6.23968 16.5708 6.30969L13.1337 7.86404C12.9134 7.96207 12.7004 8.00758 12.4948 8.00058C12.2891 7.99357 12.1129 7.91305 11.966 7.75902L10.3135 6.22567C10.2842 6.42172 10.2107 6.56175 10.0932 6.64577C9.9757 6.72979 9.82882 6.7718 9.65256 6.7718C9.41754 6.7718 9.22659 6.69828 9.07971 6.55125C8.93282 6.40421 8.85938 6.22567 8.85938 6.01563V4.86036H5.68666C5.70135 5.0144 5.66096 5.17193 5.56548 5.33297C5.47001 5.49401 5.37086 5.61654 5.26804 5.70055L9.87288 14.1445H12.0762C12.414 14.1445 12.7041 14.26 12.9465 14.491C13.1888 14.7221 13.31 14.9987 13.31 15.3207C13.31 15.6428 13.1888 15.9194 12.9465 16.1504C12.7041 16.3815 12.414 16.497 12.0762 16.497H2.71224ZM3.1529 5.15443C3.46136 5.15443 3.72208 5.05641 3.93506 4.86036C4.14804 4.66432 4.25453 4.41226 4.25453 4.10419C4.25453 3.79612 4.14804 3.54407 3.93506 3.34802C3.72208 3.15198 3.46136 3.05395 3.1529 3.05395C2.82975 3.05395 2.56536 3.15198 2.35972 3.34802C2.15408 3.54407 2.05126 3.79612 2.05126 4.10419C2.05126 4.41226 2.15408 4.66432 2.35972 4.86036C2.56536 5.05641 2.82975 5.15443 3.1529 5.15443ZM6.06122 14.1445H8.0662L4.38673 7.29692C4.35736 7.32492 4.29493 7.35293 4.19945 7.38093C4.10398 7.40894 4.02686 7.42995 3.96811 7.44395L6.06122 14.1445Z" fill="#B05056"/>
</svg>
