<svg width="19" height="19" viewBox="0 0 19 19" fill="none" xmlns="http://www.w3.org/2000/svg">
<path d="M9.23084 18.8132C14.0141 18.8132 17.9498 15.1713 18.4197 10.5055C18.4701 10.0104 18.0757 9.5824 17.5806 9.5824C17.1526 9.5824 16.7917 9.90129 16.7498 10.3209C16.3805 14.1475 13.1497 17.1349 9.23084 17.1349C6.61264 17.1349 4.30493 15.8006 2.95387 13.7782H4.19584C4.65738 13.7782 5.035 13.4006 5.035 12.9391C5.035 12.4775 4.65738 12.0999 4.19584 12.0999H0.839167C0.377625 12.0999 0 12.4775 0 12.9391V16.2957C0 16.7573 0.377625 17.1349 0.839167 17.1349C1.30071 17.1349 1.67833 16.7573 1.67833 16.2957V14.8943C3.34828 17.2608 6.10914 18.8132 9.23084 18.8132ZM9.23084 0.351562C4.44759 0.351562 0.511892 3.99355 0.0419583 8.65932C-4.06398e-08 9.15443 0.386017 9.5824 0.881126 9.5824C1.3091 9.5824 1.66994 9.26352 1.7119 8.84393C2.08113 5.01733 5.31193 2.0299 9.23084 2.0299C11.849 2.0299 14.1567 3.36417 15.5078 5.38657H14.2658C13.8043 5.38657 13.4267 5.76419 13.4267 6.22573C13.4267 6.68727 13.8043 7.0649 14.2658 7.0649H17.6225C18.0841 7.0649 18.4617 6.68727 18.4617 6.22573V2.86906C18.4617 2.40752 18.0841 2.0299 17.6225 2.0299C17.161 2.0299 16.7833 2.40752 16.7833 2.86906V4.27047C15.1134 1.90402 12.3525 0.351562 9.23084 0.351562ZM8.49237 4.4467C8.49237 4.03551 8.82804 3.70823 9.23084 3.70823C9.63364 3.70823 9.96931 4.03551 9.96931 4.4467V4.75719C10.8672 4.91663 11.4378 5.39496 11.7819 5.84811C12.0672 6.21734 11.9162 6.75441 11.4798 6.93903C11.1777 7.0649 10.8253 6.9642 10.6239 6.70406C10.3889 6.38517 9.96931 6.0579 9.28119 6.0579C8.69377 6.0579 7.7623 6.36839 7.7623 7.22434C7.7623 8.02155 8.48398 8.32365 9.9777 8.81876C11.9917 9.51527 12.5036 10.5391 12.5036 11.7139C12.5036 13.9125 10.4057 14.3405 9.96931 14.416V14.7265C9.96931 15.1293 9.64203 15.465 9.23084 15.465C8.81965 15.465 8.49237 15.1377 8.49237 14.7265V14.374C7.9637 14.2482 6.87278 13.8622 6.23501 12.6118C6.042 12.2426 6.26019 11.7558 6.6462 11.6048C6.99026 11.4705 7.40145 11.5964 7.57768 11.9237C7.84621 12.4356 8.37489 13.0733 9.35671 13.0733C10.1371 13.0733 11.0183 12.6705 11.0183 11.7223C11.0183 10.9167 10.4308 10.4971 9.10496 10.0188C8.18188 9.69149 6.29375 9.15443 6.29375 7.24113C6.29375 7.15721 6.30215 5.22712 8.49237 4.75719V4.4467Z" fill="#B05056"/>
</svg>
