<svg width="20" height="20" viewBox="0 0 20 20" fill="none" xmlns="http://www.w3.org/2000/svg">
<path d="M10 0.726562C4.68477 0.726562 0.375 5.03633 0.375 10.3516C0.375 15.6668 4.68477 19.9766 10 19.9766C15.3152 19.9766 19.625 15.6668 19.625 10.3516C19.625 5.03633 15.3152 0.726562 10 0.726562ZM10.4791 15.018L10.4834 15.699C10.4834 15.7936 10.4061 15.873 10.3115 15.873H9.70137C9.60684 15.873 9.52949 15.7957 9.52949 15.7012V15.0266C7.62168 14.8848 6.72363 13.7977 6.62695 12.616C6.61836 12.515 6.69785 12.4291 6.79883 12.4291H7.79141C7.8752 12.4291 7.94824 12.4893 7.96113 12.5709C8.0707 13.252 8.60137 13.7611 9.55313 13.8879V10.8221L9.02246 10.6867C7.89883 10.4182 6.82891 9.71777 6.82891 8.26543C6.82891 6.69922 8.01914 5.85703 9.54023 5.70879V4.9998C9.54023 4.90527 9.61758 4.82793 9.71211 4.82793H10.3158C10.4104 4.82793 10.4877 4.90527 10.4877 4.9998V5.70234C11.9594 5.85059 13.0637 6.70996 13.1926 8.04844C13.2033 8.14941 13.1238 8.2375 13.0207 8.2375H12.0561C11.9701 8.2375 11.8971 8.17305 11.8863 8.08926C11.8004 7.46191 11.2977 6.95059 10.4791 6.83887V9.72422L11.0248 9.85098C12.417 10.1947 13.3645 10.8607 13.3645 12.3518C13.3645 13.9695 12.1613 14.8719 10.4791 15.018ZM8.16523 8.1666C8.16523 8.7123 8.50254 9.13555 9.22871 9.39766C9.32969 9.43848 9.43066 9.4707 9.55098 9.50508V6.84102C8.7582 6.94199 8.16523 7.38672 8.16523 8.1666ZM10.6682 11.0713C10.608 11.0584 10.5479 11.0434 10.4791 11.024V13.8965C11.3943 13.8148 12.026 13.3121 12.026 12.4699C12.026 11.8104 11.6844 11.3807 10.6682 11.0713Z" fill="#B05056"/>
</svg>
