<svg width="13" height="13" viewBox="0 0 13 13" fill="none" xmlns="http://www.w3.org/2000/svg">
<path d="M6.00427 0.771484C2.68659 0.771484 0 3.46409 0 6.78176C0 10.0994 2.68659 12.792 6.00427 12.792C9.32795 12.792 12.0206 10.0994 12.0206 6.78176C12.0206 3.46409 9.32795 0.771484 6.00427 0.771484ZM10.1694 4.37765H8.39636C8.20403 3.62637 7.92755 2.90513 7.56694 2.23799C8.67283 2.61664 9.5924 3.38595 10.1694 4.37765ZM6.01028 1.99758C6.50913 2.71881 6.8998 3.51818 7.15824 4.37765H4.86231C5.12076 3.51818 5.51142 2.71881 6.01028 1.99758ZM1.35832 7.98382C1.26216 7.59916 1.20206 7.19647 1.20206 6.78176C1.20206 6.36705 1.26216 5.96436 1.35832 5.57971H3.3898C3.34171 5.97638 3.30565 6.37306 3.30565 6.78176C3.30565 7.19046 3.34171 7.58714 3.3898 7.98382H1.35832ZM1.85116 9.18587H3.6242C3.81653 9.93716 4.093 10.6584 4.45361 11.3255C3.34772 10.9469 2.42815 10.1836 1.85116 9.18587ZM3.6242 4.37765H1.85116C2.42815 3.37994 3.34772 2.61664 4.45361 2.23799C4.093 2.90513 3.81653 3.62637 3.6242 4.37765ZM6.01028 11.5659C5.51142 10.8447 5.12076 10.0453 4.86231 9.18587H7.15824C6.8998 10.0453 6.50913 10.8447 6.01028 11.5659ZM7.41668 7.98382H4.60387C4.54978 7.58714 4.50771 7.19046 4.50771 6.78176C4.50771 6.37306 4.54978 5.97037 4.60387 5.57971H7.41668C7.47077 5.97037 7.51285 6.37306 7.51285 6.78176C7.51285 7.19046 7.47077 7.58714 7.41668 7.98382ZM7.56694 11.3255C7.92755 10.6584 8.20403 9.93716 8.39636 9.18587H10.1694C9.5924 10.1776 8.67283 10.9469 7.56694 11.3255ZM8.63076 7.98382C8.67884 7.58714 8.7149 7.19046 8.7149 6.78176C8.7149 6.37306 8.67884 5.97638 8.63076 5.57971H10.6622C10.7584 5.96436 10.8185 6.36705 10.8185 6.78176C10.8185 7.19647 10.7584 7.59916 10.6622 7.98382H8.63076Z" fill="#B05056"/>
</svg>
