<svg width="17" height="14" viewBox="0 0 17 14" fill="none" xmlns="http://www.w3.org/2000/svg">
<path d="M2.00648 13.7408C1.69014 13.7408 1.42126 13.6301 1.19983 13.4087C0.978393 13.1872 0.867676 12.9184 0.867676 12.602V1.214C0.867676 0.897664 0.978393 0.62878 1.19983 0.407346C1.42126 0.185912 1.69014 0.0751953 2.00648 0.0751953H7.13109C7.44743 0.0751953 7.71631 0.185912 7.93775 0.407346C8.15918 0.62878 8.2699 0.897664 8.2699 1.214V3.2069H14.9129C15.2292 3.2069 15.4981 3.31762 15.7196 3.53905C15.941 3.76049 16.0517 4.02937 16.0517 4.34571V12.602C16.0517 12.9184 15.941 13.1872 15.7196 13.4087C15.4981 13.6301 15.2292 13.7408 14.9129 13.7408H2.00648ZM2.00648 12.602H3.99938V10.6091H2.00648V12.602ZM2.00648 9.47032H3.99938V7.47742H2.00648V9.47032ZM2.00648 6.33861H3.99938V4.34571H2.00648V6.33861ZM2.00648 3.2069H3.99938V1.214H2.00648V3.2069ZM5.13819 12.602H7.13109V10.6091H5.13819V12.602ZM5.13819 9.47032H7.13109V7.47742H5.13819V9.47032ZM5.13819 6.33861H7.13109V4.34571H5.13819V6.33861ZM5.13819 3.2069H7.13109V1.214H5.13819V3.2069ZM8.2699 12.602H14.9129V4.34571H8.2699V6.33861H9.7883V7.47742H8.2699V9.47032H9.7883V10.6091H8.2699V12.602ZM11.7812 7.47742V6.33861H12.92V7.47742H11.7812ZM11.7812 10.6091V9.47032H12.92V10.6091H11.7812Z" fill="#B05056"/>
</svg>
