<svg width="16" height="14" viewBox="0 0 16 14" fill="none" xmlns="http://www.w3.org/2000/svg">
<path d="M2.40079 1.93121C2.1936 1.93121 2.02202 1.86128 1.88606 1.72142C1.75009 1.58156 1.68211 1.40507 1.68211 1.19194C1.68211 0.992142 1.75009 0.82231 1.88606 0.682449C2.02202 0.542587 2.1936 0.472656 2.40079 0.472656H13.8026C13.9968 0.472656 14.1619 0.542587 14.2979 0.682449C14.4338 0.82231 14.5018 0.992142 14.5018 1.19194C14.5018 1.40507 14.4338 1.58156 14.2979 1.72142C14.1619 1.86128 13.9968 1.93121 13.8026 1.93121H2.40079ZM2.47848 13.8594C2.28424 13.8594 2.11914 13.7895 1.98317 13.6496C1.84721 13.5097 1.77922 13.3399 1.77922 13.1401V8.66455H1.3519C1.11882 8.66455 0.934289 8.57464 0.798323 8.39481C0.662356 8.21499 0.620271 8.01186 0.672068 7.78542L1.56556 3.68947C1.59146 3.52963 1.67239 3.39643 1.80836 3.28987C1.94433 3.18331 2.09001 3.13003 2.2454 3.13003H13.9385C14.0939 3.13003 14.2364 3.18331 14.3658 3.28987C14.4953 3.39643 14.5795 3.52963 14.6184 3.68947L15.5118 7.78542C15.5507 8.01186 15.5021 8.21499 15.3662 8.39481C15.2302 8.57464 15.0522 8.66455 14.832 8.66455H14.3853V13.1201C14.3853 13.3333 14.3173 13.5097 14.1813 13.6496C14.0454 13.7895 13.8802 13.8594 13.686 13.8594C13.4788 13.8594 13.3072 13.7895 13.1713 13.6496C13.0353 13.5097 12.9673 13.3333 12.9673 13.1201V8.66455H9.5099V13.1401C9.5099 13.3399 9.44191 13.5097 9.30595 13.6496C9.16998 13.7895 9.00488 13.8594 8.81064 13.8594H2.47848ZM3.19716 12.4008H8.09196V8.66455H3.19716V12.4008ZM2.18712 7.20599H13.9774H2.18712ZM2.18712 7.20599H13.9774L13.4141 4.58858H2.76984L2.18712 7.20599Z" fill="#B05056"/>
</svg>
