<svg width="18" height="18" viewBox="0 0 18 18" fill="none" xmlns="http://www.w3.org/2000/svg">
<path d="M14.5332 12.8785V8.29722L17.1362 5.69424L13.6655 2.2236L11.0625 4.82658H4.98893V3.95892H7.59191V0.488281H0.650635V3.95892H3.25361V9.16488H0.650635V12.6355H3.25361V16.9738H6.9672C7.11861 17.2361 7.33603 17.4542 7.59784 17.6064C7.85965 17.7586 8.15673 17.8396 8.45957 17.8415C8.76462 17.8433 9.06476 17.7647 9.32974 17.6136C9.59473 17.4624 9.81519 17.2441 9.9689 16.9806C10.1226 16.7171 10.2042 16.4178 10.2053 16.1127C10.2065 15.8077 10.1272 15.5077 9.97545 15.2431C9.82372 14.9784 9.60491 14.7584 9.34107 14.6053C9.07724 14.4522 8.7777 14.3713 8.47265 14.3709C8.16759 14.3704 7.86781 14.4504 7.60351 14.6027C7.33921 14.755 7.11973 14.9743 6.9672 15.2385H4.98893V12.6355H7.59191V9.16488H4.98893V6.5619H11.0625L12.7979 8.29722V12.8698C12.467 13.0608 12.2085 13.3556 12.0623 13.7085C11.9161 14.0615 11.8905 14.4528 11.9893 14.8217C12.0882 15.1907 12.3061 15.5168 12.6091 15.7493C12.9122 15.9819 13.2835 16.1079 13.6655 16.1079C14.0475 16.1079 14.4189 15.9819 14.7219 15.7493C15.025 15.5168 15.2428 15.1907 15.3417 14.8217C15.4406 14.4528 15.4149 14.0615 15.2688 13.7085C15.1226 13.3556 14.864 13.0608 14.5332 12.8698V12.8785ZM1.51829 3.09126V1.35594H6.72425V3.09126H1.51829ZM8.45957 15.2385C8.63118 15.2385 8.79893 15.2894 8.94162 15.3847C9.0843 15.4801 9.19551 15.6156 9.26118 15.7741C9.32685 15.9327 9.34404 16.1071 9.31056 16.2754C9.27708 16.4437 9.19444 16.5983 9.0731 16.7197C8.95175 16.841 8.79715 16.9237 8.62884 16.9571C8.46053 16.9906 8.28608 16.9734 8.12753 16.9078C7.96899 16.8421 7.83348 16.7309 7.73814 16.5882C7.6428 16.4455 7.59191 16.2778 7.59191 16.1062C7.59191 15.876 7.68332 15.6553 7.84604 15.4926C8.00876 15.3299 8.22945 15.2385 8.45957 15.2385ZM6.72425 10.0325V11.7679H1.51829V10.0325H6.72425ZM13.6655 3.447L15.9128 5.69424L13.6655 7.94148L11.4183 5.69424L13.6655 3.447ZM13.6655 15.2385C13.4939 15.2385 13.3262 15.1876 13.1835 15.0923C13.0408 14.9969 12.9296 14.8614 12.8639 14.7029C12.7982 14.5443 12.7811 14.3699 12.8145 14.2016C12.848 14.0332 12.9307 13.8786 13.052 13.7573C13.1733 13.636 13.3279 13.5533 13.4963 13.5198C13.6646 13.4864 13.839 13.5035 13.9976 13.5692C14.1561 13.6349 14.2916 13.7461 14.387 13.8888C14.4823 14.0315 14.5332 14.1992 14.5332 14.3708C14.5332 14.601 14.4418 14.8216 14.2791 14.9844C14.1163 15.1471 13.8956 15.2385 13.6655 15.2385Z" fill="#B05056"/>
</svg>
