<svg width="15" height="17" viewBox="0 0 15 17" fill="none" xmlns="http://www.w3.org/2000/svg">
<path d="M1.58628 16.886C1.1804 16.886 0.823496 16.7395 0.515582 16.4467C0.207668 16.1539 0.0537109 15.8145 0.0537109 15.4285V4.96669C0.0537109 4.58069 0.207668 4.24128 0.515582 3.94846C0.823496 3.65564 1.1804 3.50922 1.58628 3.50922H3.81166V3.30957C3.81166 2.45772 4.12657 1.73564 4.7564 1.14334C5.38622 0.551034 6.163 0.254883 7.08674 0.254883C7.99649 0.254883 8.77327 0.551034 9.41709 1.14334C10.0609 1.73564 10.3828 2.45772 10.3828 3.30957V3.50922H12.5872C12.9931 3.50922 13.35 3.65564 13.6579 3.94846C13.9658 4.24128 14.1198 4.58069 14.1198 4.96669V15.4285C14.1198 15.8145 13.9658 16.1539 13.6579 16.4467C13.35 16.7395 12.9931 16.886 12.5872 16.886H1.58628ZM1.58628 15.4285H12.5872V4.96669H10.3828V6.64377C10.3828 6.84342 10.3058 7.01313 10.1519 7.15289C9.99793 7.29264 9.81598 7.36252 9.60604 7.36252C9.3961 7.36252 9.21765 7.29264 9.07069 7.15289C8.92373 7.01313 8.85025 6.84342 8.85025 6.64377V4.96669H5.34423V6.64377C5.34423 6.84342 5.26725 7.01313 5.1133 7.15289C4.95934 7.29264 4.77739 7.36252 4.56745 7.36252C4.35751 7.36252 4.17906 7.29264 4.0321 7.15289C3.88514 7.01313 3.81166 6.84342 3.81166 6.64377V4.96669H1.58628V15.4285ZM5.34423 3.50922H8.85025V3.30957C8.85025 2.87033 8.6788 2.49432 8.33589 2.18153C7.99299 1.86874 7.57661 1.71235 7.08674 1.71235C6.59688 1.71235 6.184 1.86874 5.84809 2.18153C5.51218 2.49432 5.34423 2.87033 5.34423 3.30957V3.50922ZM1.58628 15.4285V4.96669V15.4285Z" fill="#B05056"/>
</svg>
