<svg width="13" height="14" viewBox="0 0 13 14" fill="none" xmlns="http://www.w3.org/2000/svg">
<path d="M8.01897 1.72561L7.44199 0.586408C7.30575 0.319285 7.02527 0.154297 6.72075 0.154297H1.60801C1.16726 0.154297 0.806641 0.507843 0.806641 0.939954V12.7248C0.806641 13.1569 1.16726 13.5105 1.60801 13.5105C2.04876 13.5105 2.40938 13.1569 2.40938 12.7248V8.01087H6.41623L6.99322 9.15007C7.12945 9.41719 7.40993 9.58218 7.70644 9.58218H12.0258C12.4666 9.58218 12.8272 9.22864 12.8272 8.79652V2.51127C12.8272 2.07916 12.4666 1.72561 12.0258 1.72561H8.01897ZM11.2245 8.01087H8.01897L7.2176 6.43955H2.40938V1.72561H6.41623L7.2176 3.29693H11.2245V8.01087Z" fill="#B05056"/>
</svg>
