<svg width="18" height="16" viewBox="0 0 18 16" fill="none" xmlns="http://www.w3.org/2000/svg">
<path d="M9.37209 1.58638L2.36776 4.34901V13.6755H4.51323V8.60721C4.51323 8.19177 4.66047 7.83519 4.95495 7.53747C5.24942 7.23974 5.61401 7.09088 6.04872 7.09088H12.7165C13.1372 7.09088 13.4983 7.23974 13.7998 7.53747C14.1012 7.83519 14.252 8.19177 14.252 8.60721V13.6755H16.3975V4.34901L9.37209 1.58638ZM6.04872 15.1918H2.36776C1.93306 15.1918 1.56847 15.0464 1.27399 14.7556C0.979514 14.4648 0.832275 14.1048 0.832275 13.6755V4.36979C0.832275 4.06513 0.919917 3.78472 1.0952 3.52853C1.27048 3.27235 1.50536 3.08194 1.79984 2.95731L8.82521 0.194679C8.99348 0.12544 9.17578 0.0908203 9.37209 0.0908203C9.56841 0.0908203 9.75772 0.12544 9.94001 0.194679L16.9443 2.95731C17.2388 3.08194 17.4772 3.27235 17.6595 3.52853C17.8418 3.78472 17.9329 4.06513 17.9329 4.36979V13.6755C17.9329 14.1048 17.7822 14.4648 17.4807 14.7556C17.1792 15.0464 16.8181 15.1918 16.3975 15.1918H12.7165V8.60721H6.04872V15.1918ZM7.03732 15.1918V13.6755H8.5728V15.1918H7.03732ZM8.61487 12.4915V10.9752H10.1504V12.4915H8.61487ZM10.1924 15.1918V13.6755H11.7279V15.1918H10.1924ZM12.7165 7.09088H6.04872H12.7165Z" fill="#B05056"/>
</svg>
