<svg width="19" height="18" viewBox="0 0 19 18" fill="none" xmlns="http://www.w3.org/2000/svg">
<path d="M8.76402 0.0157013C6.64804 0.166527 4.68643 1.07891 3.18774 2.61177C2.22738 3.59249 1.57575 4.65234 1.15408 5.92461C0.690979 7.31001 0.584764 8.82587 0.845344 10.2525C1.4798 13.73 4.20616 16.501 7.66646 17.1938C8.30782 17.3208 8.61992 17.3516 9.38113 17.3516C10.4443 17.3516 11.1576 17.2384 12.1075 16.9228C14.7379 16.0552 16.7613 14.0318 17.6289 11.4014C17.9479 10.4412 18.0576 9.73472 18.0541 8.65788C18.0541 7.67025 17.958 7.00145 17.694 6.13722C16.6892 2.87571 13.877 0.502695 10.499 0.0670376C9.99859 0.00543404 9.25774 -0.0186424 8.76402 0.0157013ZM10.3758 1.82295C11.5865 1.98758 12.7765 2.50892 13.7538 3.29756C14.0831 3.56169 14.6729 4.17543 14.9268 4.5116C16.5352 6.65838 16.7684 9.54601 15.52 11.9089C14.8581 13.1573 13.8636 14.1518 12.6152 14.8137C10.9519 15.6916 9.01079 15.8529 7.22072 15.2597C6.18494 14.9168 5.37913 14.4298 4.58694 13.6684C3.44478 12.5641 2.75562 11.2162 2.5223 9.63523C2.45025 9.14133 2.45025 8.21195 2.5223 7.71469C2.95778 4.72084 5.23839 2.37155 8.21524 1.84685C8.85306 1.73373 9.67269 1.72346 10.3758 1.82295Z" fill="#B05056"/>
</svg>
