<svg width="82" height="48" viewBox="0 0 82 48" fill="none" xmlns="http://www.w3.org/2000/svg">
<path d="M1.40423 11.7979C1.03187 11.7979 0.674761 11.9461 0.411463 12.2099C0.148165 12.4737 0.000244141 12.8315 0.000244141 13.2046V45.8406C0.00343207 46.2127 0.152376 46.5687 0.414986 46.8318C0.677596 47.0949 1.03286 47.2442 1.40423 47.2474H49.6768C49.954 47.2476 50.2285 47.1926 50.4842 47.0855C50.7399 46.9784 50.9718 46.8213 51.1663 46.6235L58.3449 39.4186C58.5396 39.2223 58.6938 38.9895 58.7985 38.7334C58.9033 38.4773 58.9566 38.203 58.9553 37.9263V13.2046C58.957 13.0194 58.9218 12.8358 58.8518 12.6644C58.7818 12.493 58.6785 12.3372 58.5478 12.2063C58.4171 12.0753 58.2616 11.9718 58.0906 11.9017C57.9195 11.8315 57.7362 11.7963 57.5514 11.7979H1.40423Z" fill="white"/>
<path d="M0.768886 46.4786L0.414986 46.8318L0.768884 46.4786C0.599333 46.3087 0.502804 46.0788 0.500244 45.8383V13.2046C0.500244 12.9638 0.595721 12.7331 0.765361 12.5631C0.934965 12.3932 1.16479 12.2979 1.40423 12.2979L57.5514 12.2979L57.5558 12.2979C57.6741 12.2968 57.7914 12.3194 57.9009 12.3643C58.0105 12.4092 58.1101 12.4755 58.1939 12.5595C58.2776 12.6435 58.344 12.7433 58.3889 12.8534C58.4338 12.9634 58.4564 13.0813 58.4553 13.2002V13.2046L58.4553 37.9263L58.4553 37.9285C58.4563 38.1396 58.4156 38.3488 58.3357 38.5441C58.2559 38.7393 58.1384 38.9167 57.9901 39.0663C57.9901 39.0664 57.99 39.0664 57.9899 39.0665L50.8121 46.2706L50.8097 46.273C50.6618 46.4235 50.4854 46.5429 50.291 46.6243C50.0966 46.7058 49.888 46.7476 49.6774 46.7474H49.6768H1.40657C1.16733 46.7448 0.938387 46.6484 0.768886 46.4786Z" stroke="#997225" stroke-linecap="round" stroke-linejoin="round"/>
<path d="M58.9673 13.0211V18.5501L-1.90735e-05 18.5501V13.0211C-1.90735e-05 12.6967 0.128605 12.3855 0.357559 12.1561C0.586514 11.9267 0.897045 11.7979 1.22083 11.7979L57.7464 11.7979C58.0702 11.7979 58.3807 11.9267 58.6097 12.1561C58.8387 12.3855 58.9673 12.6967 58.9673 13.0211Z" fill="#FFBE3D"/>
<path d="M5.89697 29.5215H27.7991" stroke="#997225" stroke-linecap="round" stroke-linejoin="round"/>
<path d="M5.89697 24.459H21.9024" stroke="#997225" stroke-linecap="round" stroke-linejoin="round"/>
<path d="M27.1031 35.4316C26.7108 35.8241 26.4212 36.3075 26.2599 36.839C26.0987 37.3705 26.0708 37.9336 26.1788 38.4785C26.2868 39.0233 26.5273 39.5331 26.8789 39.9625C27.2306 40.3919 27.6826 40.7278 28.1949 40.9403C28.7071 41.1528 29.2638 41.2353 29.8155 41.1806C30.3672 41.126 30.897 40.9357 31.3577 40.6268C31.8185 40.3179 32.1961 39.8998 32.457 39.4097C32.7179 38.9195 32.854 38.3724 32.8534 37.817V38.4897C32.8534 39.2067 33.1376 39.8943 33.6436 40.4013C34.1496 40.9083 34.8359 41.1931 35.5515 41.1931C36.267 41.1931 36.9533 40.9083 37.4593 40.4013C37.9653 39.8943 38.2496 39.2067 38.2496 38.4897C38.2496 39.2067 38.5338 39.8943 39.0398 40.4013C39.5458 40.9083 40.2321 41.1931 40.9476 41.1931H42.9621" stroke="#997225" stroke-linecap="round" stroke-linejoin="round"/>
<path d="M58.4673 13.0211V18.0501L0.499981 18.0501V13.0211C0.499981 12.829 0.576164 12.6449 0.711456 12.5093C0.846722 12.3738 1.02997 12.2979 1.22083 12.2979L57.7464 12.2979C57.9373 12.2979 58.1205 12.3738 58.2558 12.5093C58.3911 12.6449 58.4673 12.829 58.4673 13.0211Z" stroke="#997225" stroke-linecap="round" stroke-linejoin="round"/>
<path d="M80.6134 6.3666L54.2552 32.7886L49.0055 27.5164L75.3638 1.09444C76.0631 0.393681 77.0117 -7.38365e-09 78.0008 0C78.9899 7.38364e-09 79.9385 0.393681 80.6378 1.09444C81.3372 1.79519 81.7301 2.74562 81.7301 3.73663C81.7301 4.72765 81.3372 5.67807 80.6378 6.37883L80.6134 6.3666Z" fill="white"/>
<mask id="path-9-inside-1_3296_12911" fill="white">
<path d="M58.7845 38.8066H51.9477C51.5753 38.8066 51.2182 38.9549 50.9549 39.2187C50.6916 39.4825 50.5437 39.8403 50.5437 40.2134V47.0513"/>
</mask>
<path d="M58.7845 39.8066C59.3368 39.8066 59.7845 39.3589 59.7845 38.8066C59.7845 38.2544 59.3368 37.8066 58.7845 37.8066V39.8066ZM49.5437 47.0513C49.5437 47.6035 49.9914 48.0513 50.5437 48.0513C51.096 48.0513 51.5437 47.6035 51.5437 47.0513H49.5437ZM58.7845 37.8066H51.9477V39.8066H58.7845V37.8066ZM51.9477 37.8066C51.3095 37.8066 50.6978 38.0607 50.2471 38.5122L51.6627 39.9251C51.7386 39.849 51.8412 39.8066 51.9477 39.8066V37.8066ZM50.2471 38.5122C49.7965 38.9637 49.5437 39.5757 49.5437 40.2134H51.5437C51.5437 40.1049 51.5867 40.0012 51.6627 39.9251L50.2471 38.5122ZM49.5437 40.2134V47.0513H51.5437V40.2134H49.5437Z" fill="#997225" mask="url(#path-9-inside-1_3296_12911)"/>
<path d="M68.7467 7.68848L74.0208 12.9729" stroke="#997225" stroke-linecap="round" stroke-linejoin="round"/>
<mask id="path-12-inside-2_3296_12911" fill="white">
<path d="M62.1541 7.68736L66.7689 3.06351C67.6434 2.18805 68.829 1.69629 70.0652 1.69629C71.3014 1.69629 72.487 2.18805 73.3615 3.06351"/>
</mask>
<path d="M61.4463 6.98094C61.0561 7.37184 61.0567 8.00501 61.4476 8.39515C61.8385 8.7853 62.4717 8.78468 62.8618 8.39377L61.4463 6.98094ZM66.7689 3.06351L66.0614 2.35679L66.0611 2.35709L66.7689 3.06351ZM72.654 3.77023C73.0443 4.16097 73.6775 4.16132 74.0682 3.77101C74.459 3.3807 74.4593 2.74753 74.069 2.35679L72.654 3.77023ZM62.8618 8.39377L67.4767 3.76993L66.0611 2.35709L61.4463 6.98094L62.8618 8.39377ZM67.4764 3.77023C68.1635 3.08234 69.0947 2.69629 70.0652 2.69629V0.696289C68.5633 0.696289 67.1232 1.29377 66.0614 2.35679L67.4764 3.77023ZM70.0652 2.69629C71.0357 2.69629 71.9669 3.08234 72.654 3.77023L74.069 2.35679C73.0072 1.29377 71.5671 0.696289 70.0652 0.696289V2.69629Z" fill="#997225" mask="url(#path-12-inside-2_3296_12911)"/>
<path d="M53.3077 32.5703L47.1244 34.6386L49.1983 28.4432L53.3077 32.5703Z" fill="#FFBE3D" stroke="#997225" stroke-linecap="round" stroke-linejoin="round"/>
<path d="M81.2301 3.73663C81.2301 4.54819 80.9261 5.32815 80.3813 5.92368C80.3372 5.94682 80.296 5.97684 80.2594 6.01347L54.2555 32.0803L49.7114 27.5167L75.7177 1.44764C75.7177 1.44762 75.7177 1.44759 75.7177 1.44756C76.3234 0.840734 77.1447 0.5 78.0008 0.5C78.857 0.5 79.6783 0.840765 80.284 1.44764C80.8897 2.05455 81.2301 2.87791 81.2301 3.73663Z" stroke="#997225" stroke-linecap="round" stroke-linejoin="round"/>
</svg>
