<svg width="107" height="113" viewBox="0 0 107 113" fill="none" xmlns="http://www.w3.org/2000/svg">
<g opacity="0.3">
<path opacity="0.15" d="M79.2569 79.4503C79.302 79.3049 79.3178 79.1521 79.3033 79.0006C79.2889 78.8491 79.2445 78.702 79.1727 78.5678C79.1009 78.4336 79.0032 78.3149 78.8853 78.2188C78.7673 78.1227 78.6314 78.0509 78.4855 78.0077L66.4661 74.3587V71.89C66.462 71.5824 66.3364 71.2888 66.1167 71.0735C65.8971 70.8581 65.6011 70.7384 65.2935 70.7405L58.8903 70.8176L58.5894 69.9227C58.5464 69.7751 58.4741 69.6375 58.3769 69.5183C58.2797 69.3991 58.1595 69.3006 58.0236 69.2287C57.8876 69.1567 57.7386 69.1128 57.5853 69.0995C57.4321 69.0862 57.2777 69.1038 57.1314 69.1513L51.978 70.8485L40.9924 70.9719C40.8358 70.9718 40.6807 71.0034 40.5367 71.0649C40.3927 71.1264 40.2626 71.2165 40.1544 71.3297C40.0462 71.443 39.9621 71.577 39.9073 71.7237C39.8524 71.8704 39.8279 72.0267 39.8352 72.1831V74.891L34.0106 76.8196C33.863 76.8627 33.7254 76.935 33.6062 77.0322C33.487 77.1294 33.3885 77.2495 33.3166 77.3855C33.2446 77.5215 33.2007 77.6705 33.1874 77.8237C33.1741 77.977 33.1917 78.1314 33.2392 78.2777L40.0589 98.922L40.136 105.742C40.1377 105.9 40.1718 106.056 40.2361 106.2C40.3004 106.345 40.3937 106.474 40.51 106.581C40.6264 106.688 40.7635 106.77 40.9128 106.822C41.0621 106.874 41.2204 106.895 41.3781 106.884H42.759L43.8391 110.155C43.887 110.299 43.963 110.433 44.0627 110.548C44.1623 110.663 44.2837 110.757 44.4199 110.825C44.556 110.893 44.7043 110.934 44.8562 110.944C45.008 110.955 45.1605 110.936 45.3048 110.887L53.9067 108.048L68.0707 112.345C68.2161 112.391 68.369 112.406 68.5205 112.392C68.672 112.377 68.8191 112.333 68.9533 112.261C69.0875 112.189 69.2061 112.092 69.3022 111.974C69.3984 111.856 69.4701 111.72 69.5134 111.574L79.2569 79.4503Z" fill="#191816"/>
<path opacity="0.15" d="M78.9947 27.0371H28.0781C25.5217 27.0371 23.4493 29.1095 23.4493 31.6659V64.0673C23.4493 66.6237 25.5217 68.6961 28.0781 68.6961H78.9947C81.5511 68.6961 83.6235 66.6237 83.6235 64.0673V31.6659C83.6235 29.1095 81.5511 27.0371 78.9947 27.0371Z" fill="#191816"/>
<path opacity="0.15" d="M11.2475 54.551L2.045 59.4275C0.915578 60.026 0.485183 61.4268 1.08369 62.5562L11.3787 81.9837C11.9772 83.1132 13.378 83.5435 14.5074 82.945L23.7099 78.0685C24.8393 77.47 25.2697 76.0692 24.6712 74.9398L14.3762 55.5123C13.7777 54.3828 12.3769 53.9525 11.2475 54.551Z" fill="#191816"/>
<path d="M85.0892 1H21.9912C21.2139 0.999077 20.4518 1.21525 19.7907 1.62416C19.1296 2.03307 18.5959 2.61846 18.2496 3.31439V4.47159H88.8385V3.31439C88.4902 2.61842 87.9549 2.03323 87.2927 1.62444C86.6305 1.21565 85.8674 0.999419 85.0892 1Z" fill="#C0DCEB" stroke="#191816" stroke-linecap="round" stroke-linejoin="round"/>
<path d="M79.3186 26.4584H27.7618C27.0995 26.4587 26.4511 26.2693 25.8932 25.9124C25.3353 25.5555 24.8915 25.0462 24.6142 24.4448L18.3345 4.91911C18.2626 4.74272 18.235 4.5514 18.2542 4.36189C18.2734 4.17238 18.3388 3.99048 18.4447 3.83211C18.5505 3.67374 18.6935 3.54374 18.8613 3.45349C19.029 3.36324 19.2163 3.31551 19.4068 3.31446H87.6659C87.857 3.31361 88.0454 3.36013 88.2142 3.44986C88.383 3.5396 88.5269 3.66975 88.6331 3.82868C88.7394 3.98762 88.8045 4.1704 88.8229 4.36068C88.8412 4.55096 88.8121 4.74282 88.7382 4.91911L82.4739 24.4448C82.1945 25.0463 81.7491 25.5553 81.1901 25.912C80.6311 26.2688 79.9818 26.4583 79.3186 26.4584Z" fill="#00B8F0"/>
<path d="M39.6577 26.4583L62.6627 3.31445H19.4068C19.2163 3.3155 19.029 3.36323 18.8613 3.45348C18.6935 3.54372 18.5505 3.67373 18.4447 3.8321C18.3388 3.99047 18.2734 4.17237 18.2542 4.36188C18.235 4.55139 18.2626 4.74271 18.3345 4.9191L24.6142 24.4448C24.8915 25.0462 25.3353 25.5555 25.8932 25.9124C26.4511 26.2693 27.0995 26.4587 27.7618 26.4583H39.6577Z" fill="#4ACFFF"/>
<path d="M79.3186 26.4584H27.7618C27.0995 26.4587 26.4511 26.2693 25.8932 25.9124C25.3353 25.5555 24.8915 25.0462 24.6142 24.4448L18.3345 4.91911C18.2626 4.74272 18.235 4.5514 18.2542 4.36189C18.2734 4.17238 18.3388 3.99048 18.4447 3.83211C18.5505 3.67374 18.6935 3.54374 18.8613 3.45349C19.029 3.36324 19.2163 3.31551 19.4068 3.31446H87.6659C87.857 3.31361 88.0454 3.36013 88.2142 3.44986C88.383 3.5396 88.5269 3.66975 88.6331 3.82868C88.7394 3.98762 88.8045 4.1704 88.8229 4.36068C88.8412 4.55096 88.8121 4.74282 88.7382 4.91911L82.4739 24.4448C82.1945 25.0463 81.7491 25.5553 81.1901 25.912C80.6311 26.2688 79.9818 26.4583 79.3186 26.4584V26.4584Z" stroke="#191816" stroke-linecap="round" stroke-linejoin="round"/>
<path d="M79.3186 26.4584H27.7618C27.0995 26.4587 26.4511 26.2693 25.8932 25.9124C25.3353 25.5555 24.8915 25.0462 24.6142 24.4448L18.3345 4.91911C18.2626 4.74272 18.235 4.5514 18.2542 4.36189C18.2734 4.17238 18.3388 3.99048 18.4447 3.83211C18.5505 3.67374 18.6935 3.54374 18.8613 3.45349C19.029 3.36324 19.2163 3.31551 19.4068 3.31446H87.6659C87.857 3.31361 88.0454 3.36013 88.2142 3.44986C88.383 3.5396 88.5269 3.66975 88.6331 3.82868C88.7394 3.98762 88.8045 4.1704 88.8229 4.36068C88.8412 4.55096 88.8121 4.74282 88.7382 4.91911L82.4739 24.4448C82.1945 25.0463 81.7491 25.5553 81.1901 25.912C80.6311 26.2688 79.9818 26.4583 79.3186 26.4584V26.4584Z" stroke="#191816" stroke-linecap="round" stroke-linejoin="round"/>
<path d="M79.581 25.3013H27.5072C25.5899 25.3013 24.0356 26.8556 24.0356 28.7729V61.1743C24.0356 63.0916 25.5899 64.6459 27.5072 64.6459H79.581C81.4983 64.6459 83.0526 63.0916 83.0526 61.1743V28.7729C83.0526 26.8556 81.4983 25.3013 79.581 25.3013Z" fill="#C0DCEB" stroke="#191816" stroke-linecap="round" stroke-linejoin="round"/>
<path d="M76.1093 25.3013H30.9788V29.93H76.1093V25.3013Z" stroke="#191816" stroke-linecap="round" stroke-linejoin="round"/>
<path d="M76.1093 25.3013H30.9788V27.6157H76.1093V25.3013Z" fill="#656769" stroke="#191816" stroke-linecap="round" stroke-linejoin="round"/>
<path d="M58.7515 51.9165H48.3368C47.6977 51.9165 47.1796 52.4346 47.1796 53.0737V60.0169C47.1796 60.656 47.6977 61.1741 48.3368 61.1741H58.7515C59.3906 61.1741 59.9087 60.656 59.9087 60.0169V53.0737C59.9087 52.4346 59.3906 51.9165 58.7515 51.9165Z" fill="#E8F4FA" stroke="#191816" stroke-linecap="round" stroke-linejoin="round"/>
<path d="M74.9521 32.2441H32.136C31.4969 32.2441 30.9788 32.7622 30.9788 33.4013V48.4449C30.9788 49.084 31.4969 49.6021 32.136 49.6021H74.9521C75.5912 49.6021 76.1093 49.084 76.1093 48.4449V33.4013C76.1093 32.7622 75.5912 32.2441 74.9521 32.2441Z" fill="#E8F4FA" stroke="#191816" stroke-linecap="round" stroke-linejoin="round"/>
<path d="M34.4503 46.1304H37.9219" stroke="#191816" stroke-linecap="round" stroke-linejoin="round"/>
<path d="M34.4503 42.6592H37.9219" stroke="#191816" stroke-linecap="round" stroke-linejoin="round"/>
<path d="M34.4503 39.1875H37.9219" stroke="#191816" stroke-linecap="round" stroke-linejoin="round"/>
<path d="M34.4503 35.7158H37.9219" stroke="#191816" stroke-linecap="round" stroke-linejoin="round"/>
<path d="M40.2363 42.6592H43.7079" stroke="#191816" stroke-linecap="round" stroke-linejoin="round"/>
<path d="M40.2363 39.1875H43.7079" stroke="#191816" stroke-linecap="round" stroke-linejoin="round"/>
<path d="M40.2363 35.7158H43.7079" stroke="#191816" stroke-linecap="round" stroke-linejoin="round"/>
<path d="M46.0223 42.6592H49.4939" stroke="#191816" stroke-linecap="round" stroke-linejoin="round"/>
<path d="M46.0223 39.1875H49.4939" stroke="#191816" stroke-linecap="round" stroke-linejoin="round"/>
<path d="M46.0223 35.7158H49.4939" stroke="#191816" stroke-linecap="round" stroke-linejoin="round"/>
<path d="M51.8083 42.6592H55.2799" stroke="#191816" stroke-linecap="round" stroke-linejoin="round"/>
<path d="M51.8083 39.1875H55.2799" stroke="#191816" stroke-linecap="round" stroke-linejoin="round"/>
<path d="M51.8083 35.7158H55.2799" stroke="#191816" stroke-linecap="round" stroke-linejoin="round"/>
<path d="M57.5942 42.6592H61.0658" stroke="#191816" stroke-linecap="round" stroke-linejoin="round"/>
<path d="M57.5942 39.1875H61.0658" stroke="#191816" stroke-linecap="round" stroke-linejoin="round"/>
<path d="M57.5942 35.7158H61.0658" stroke="#191816" stroke-linecap="round" stroke-linejoin="round"/>
<path d="M63.3802 42.6592H66.8519" stroke="#191816" stroke-linecap="round" stroke-linejoin="round"/>
<path d="M63.3802 39.1875H66.8519" stroke="#191816" stroke-linecap="round" stroke-linejoin="round"/>
<path d="M63.3802 35.7158H66.8519" stroke="#191816" stroke-linecap="round" stroke-linejoin="round"/>
<path d="M69.1663 42.6592H72.6378" stroke="#191816" stroke-linecap="round" stroke-linejoin="round"/>
<path d="M69.1663 39.1875H72.6378" stroke="#191816" stroke-linecap="round" stroke-linejoin="round"/>
<path d="M69.1663 35.7158H72.6378" stroke="#191816" stroke-linecap="round" stroke-linejoin="round"/>
<path d="M40.2363 46.1304H43.7079" stroke="#191816" stroke-linecap="round" stroke-linejoin="round"/>
<path d="M46.0223 46.1304H61.0659" stroke="#191816" stroke-linecap="round" stroke-linejoin="round"/>
<path d="M63.3802 46.1304H66.8519" stroke="#191816" stroke-linecap="round" stroke-linejoin="round"/>
<path d="M69.1663 46.1304H72.6378" stroke="#191816" stroke-linecap="round" stroke-linejoin="round"/>
<path d="M83.0526 7.94336H24.0356L28.6644 21.8297H78.4238L83.0526 7.94336Z" fill="#E8F4FA"/>
<path d="M58.034 7.94336H24.0356L28.6644 21.8297H44.1477L58.034 7.94336Z" fill="white"/>
<path d="M83.0526 7.94336H24.0356L28.6644 21.8297H78.4238L83.0526 7.94336Z" stroke="#191816" stroke-linecap="round" stroke-linejoin="round"/>
<path d="M28.6644 11.4146H33.2932" stroke="#191816" stroke-linecap="round" stroke-linejoin="round"/>
<path d="M32.136 13.729H37.922" stroke="#191816" stroke-linecap="round" stroke-linejoin="round"/>
<path d="M34.4503 16.0435H40.2363" stroke="#191816" stroke-linecap="round" stroke-linejoin="round"/>
<path d="M33.2932 18.3579H37.922" stroke="#191816" stroke-linecap="round" stroke-linejoin="round"/>
<path d="M70.902 7.94336L69.1663 21.8297" stroke="#191816" stroke-linecap="round" stroke-linejoin="round"/>
<path d="M40.2363 13.729H41.3935" stroke="#191816" stroke-linecap="round" stroke-linejoin="round"/>
<path d="M35.6075 11.4146H36.7647" stroke="#191816" stroke-linecap="round" stroke-linejoin="round"/>
<path d="M42.5508 16.0435H46.0224" stroke="#191816" stroke-linecap="round" stroke-linejoin="round"/>
<path opacity="0.15" d="M96.5069 74.4898C100.981 74.4898 104.607 70.8631 104.607 66.3894C104.607 61.9157 100.981 58.2891 96.5069 58.2891C92.0332 58.2891 88.4065 61.9157 88.4065 66.3894C88.4065 70.8631 92.0332 74.4898 96.5069 74.4898Z" fill="#191816"/>
<path opacity="0.15" d="M84.472 81.7029L82.6668 88.0289C82.4504 88.7018 82.3716 89.4114 82.4351 90.1154C82.4986 90.8194 82.7032 91.5035 83.0365 92.1268C83.3699 92.7501 83.8252 93.3 84.3755 93.7437C84.9257 94.1874 85.5596 94.5159 86.2394 94.7095C86.9193 94.9032 87.6311 94.958 88.3326 94.8709C89.0341 94.7837 89.7108 94.5563 90.3226 94.2022C90.9344 93.8481 91.4686 93.3745 91.8936 92.8096C92.3185 92.2447 92.6254 91.6001 92.7961 90.9142L94.6013 84.5882C94.9313 83.2618 94.733 81.8592 94.0483 80.6763C93.3636 79.4934 92.2461 78.6229 90.9316 78.2485C89.6171 77.874 88.2086 78.025 87.0033 78.6696C85.7981 79.3141 84.8904 80.4018 84.472 81.7029Z" fill="#191816"/>
<path d="M102.648 71.5119C102.976 71.8372 103.42 72.0187 103.882 72.0165C104.345 72.0144 104.787 71.8287 105.112 71.5003C105.438 71.1719 105.619 70.7277 105.617 70.2655C105.615 69.8032 105.429 69.3608 105.101 69.0355L102.239 66.1733L99.7855 68.6266L102.648 71.5119Z" fill="white"/>
<path d="M102.648 71.5119C102.976 71.8372 103.42 72.0187 103.882 72.0165C104.345 72.0144 104.787 71.8287 105.112 71.5003C105.438 71.1719 105.619 70.7277 105.617 70.2655C105.615 69.8032 105.429 69.3608 105.101 69.0355L102.239 66.1733L99.7855 68.6266L102.648 71.5119Z" stroke="#191816" stroke-linecap="round" stroke-linejoin="round"/>
<path d="M96.5069 70.4395C100.661 70.4395 104.029 67.0719 104.029 62.9178C104.029 58.7636 100.661 55.396 96.5069 55.396C92.3527 55.396 88.9851 58.7636 88.9851 62.9178C88.9851 67.0719 92.3527 70.4395 96.5069 70.4395Z" fill="white"/>
<path d="M96.5068 68.1252C99.3828 68.1252 101.714 65.7938 101.714 62.9178C101.714 60.0419 99.3828 57.7104 96.5068 57.7104C93.6309 57.7104 91.2994 60.0419 91.2994 62.9178C91.2994 65.7938 93.6309 68.1252 96.5068 68.1252Z" fill="#BF8256"/>
<path d="M96.5069 60.0246C97.6817 60.0304 98.82 60.4339 99.7362 61.1694C100.652 61.9049 101.293 62.929 101.552 64.0748C101.732 63.3103 101.737 62.515 101.567 61.7484C101.396 60.9817 101.054 60.2636 100.566 59.6479C100.079 59.0321 99.4584 58.5346 98.7514 58.1925C98.0444 57.8505 97.2691 57.6729 96.4837 57.6729C95.6983 57.6729 94.9231 57.8505 94.2161 58.1925C93.509 58.5346 92.8885 59.0321 92.401 59.6479C91.9135 60.2636 91.5716 60.9817 91.4009 61.7484C91.2302 62.515 91.2351 63.3103 91.4152 64.0748C91.678 62.9219 92.3253 61.8928 93.2507 61.1567C94.1761 60.4205 95.3244 60.0213 96.5069 60.0246Z" fill="#915E3A"/>
<path d="M96.5069 70.4395C100.661 70.4395 104.029 67.0719 104.029 62.9178C104.029 58.7636 100.661 55.396 96.5069 55.396C92.3527 55.396 88.9851 58.7636 88.9851 62.9178C88.9851 67.0719 92.3527 70.4395 96.5069 70.4395Z" stroke="#191816" stroke-linecap="round" stroke-linejoin="round"/>
<path d="M96.5068 68.1252C99.3828 68.1252 101.714 65.7938 101.714 62.9178C101.714 60.0419 99.3828 57.7104 96.5068 57.7104C93.6309 57.7104 91.2994 60.0419 91.2994 62.9178C91.2994 65.7938 93.6309 68.1252 96.5068 68.1252Z" stroke="#191816" stroke-linecap="round" stroke-linejoin="round"/>
<path d="M84.4952 80.1908L82.906 85.753C82.7373 86.3376 82.6854 86.9496 82.7533 87.5543C82.8211 88.1589 83.0074 88.7442 83.3015 89.2768C83.5956 89.8094 83.9917 90.2789 84.4672 90.6585C84.9427 91.038 85.4883 91.3202 86.0728 91.4889C86.6574 91.6575 87.2695 91.7094 87.8741 91.6416C88.4787 91.5737 89.064 91.3874 89.5966 91.0934C90.1293 90.7993 90.5987 90.4032 90.9783 89.9277C91.3578 89.4522 91.64 88.9066 91.8087 88.322L93.3979 82.7597C93.7268 81.5816 93.576 80.3211 92.9784 79.2537C92.3809 78.1864 91.3851 77.399 90.2087 77.0636C89.0323 76.7282 87.771 76.8721 86.7004 77.4639C85.6298 78.0556 84.837 79.0471 84.4952 80.2216V80.1908Z" fill="#E0E0E0"/>
<path d="M90.2118 77.0121C89.0323 76.6766 87.7678 76.8228 86.696 77.4187C85.6242 78.0147 84.8327 79.0115 84.4952 80.1905L83.7238 82.9755C83.8878 82.388 84.1663 81.8387 84.5434 81.3592C84.9204 80.8796 85.3885 80.4794 85.9207 80.1814C86.453 79.8834 87.0389 79.6935 87.6448 79.6227C88.2506 79.5519 88.8645 79.6016 89.4511 79.7688C90.0377 79.9361 90.5855 80.2176 91.063 80.5972C91.5404 80.9769 91.9381 81.4472 92.2332 81.981C92.5283 82.5149 92.7149 83.1018 92.7824 83.7081C92.8499 84.3143 92.7969 84.9279 92.6265 85.5136L93.3979 82.7286C93.7332 81.5481 93.5859 80.2827 92.9884 79.2107C92.3909 78.1387 91.3922 77.3479 90.2118 77.0121Z" fill="#F0F0F0"/>
<path d="M89.1009 80.5149H89.2089C89.3072 80.5441 89.3903 80.6106 89.4403 80.7001C89.4725 80.7589 89.4888 80.8251 89.4876 80.8921C89.4864 80.9592 89.4678 81.0247 89.4335 81.0824C89.3992 81.14 89.3505 81.1877 89.2922 81.2208C89.2339 81.2539 89.1679 81.2712 89.1009 81.271H88.9929C88.9019 81.2447 88.8234 81.1865 88.7719 81.107C88.7203 81.0276 88.6992 80.9322 88.7123 80.8384C88.7255 80.7446 88.772 80.6587 88.8434 80.5964C88.9147 80.5342 89.0062 80.4998 89.1009 80.4995V80.5149ZM89.1009 79.728C88.9489 79.7073 88.7944 79.7166 88.646 79.7556C88.4977 79.7946 88.3584 79.8624 88.2363 79.9551C88.1142 80.0479 88.0115 80.1638 87.9341 80.2963C87.8568 80.4287 87.8063 80.5751 87.7855 80.7271C87.7648 80.8791 87.7741 81.0336 87.8131 81.182C87.8521 81.3303 87.9199 81.4695 88.0126 81.5917C88.1054 81.7138 88.2213 81.8165 88.3538 81.8938C88.4862 81.9712 88.6326 82.0217 88.7846 82.0424C89.076 82.1206 89.3863 82.0842 89.6517 81.9408C89.9172 81.7973 90.1176 81.5576 90.2118 81.271C90.2983 80.9784 90.2658 80.6635 90.1214 80.3947C89.9769 80.126 89.7321 79.9252 89.4403 79.836C89.3378 79.805 89.2312 79.7894 89.124 79.7898L89.1009 79.728Z" fill="#191816"/>
<path d="M84.4952 80.1908L82.906 85.753C82.7373 86.3376 82.6854 86.9496 82.7533 87.5543C82.8211 88.1589 83.0074 88.7442 83.3015 89.2768C83.5956 89.8094 83.9917 90.2789 84.4672 90.6585C84.9427 91.038 85.4883 91.3202 86.0728 91.4889C86.6574 91.6575 87.2695 91.7094 87.8741 91.6416C88.4787 91.5737 89.064 91.3874 89.5966 91.0934C90.1293 90.7993 90.5987 90.4032 90.9783 89.9277C91.3578 89.4522 91.64 88.9066 91.8087 88.322L93.3979 82.7598C93.7268 81.5816 93.576 80.3211 92.9784 79.2537C92.3809 78.1864 91.3851 77.399 90.2087 77.0636C89.0323 76.7282 87.771 76.8721 86.7004 77.4639C85.6298 78.0556 84.837 79.0471 84.4952 80.2216V80.1908Z" stroke="#191816" stroke-linecap="round" stroke-linejoin="round"/>
<path d="M53.4831 70.7068L44.0802 101.714C43.8947 102.325 44.2402 102.972 44.8518 103.157L66.9997 109.873C67.6113 110.059 68.2574 109.714 68.4429 109.102L77.8459 78.0948C78.0313 77.4832 77.6859 76.8371 77.0743 76.6516L54.9264 69.9352C54.3148 69.7498 53.6686 70.0952 53.4831 70.7068Z" fill="#FFF5E3" stroke="#191816" stroke-linecap="round" stroke-linejoin="round"/>
<path d="M56.1284 73.9341L60.5643 75.2764" stroke="#191816" stroke-linecap="round" stroke-linejoin="round"/>
<path d="M55.1256 77.2515L65.0929 80.2756" stroke="#191816" stroke-linecap="round" stroke-linejoin="round"/>
<path d="M54.115 80.5762L60.765 82.5897" stroke="#191816" stroke-linecap="round" stroke-linejoin="round"/>
<path d="M53.1121 83.8936L60.8653 86.2465" stroke="#191816" stroke-linecap="round" stroke-linejoin="round"/>
<path d="M52.1014 87.2188L55.4264 88.2294" stroke="#191816" stroke-linecap="round" stroke-linejoin="round"/>
<path d="M51.0985 90.5439L63.2799 94.2393" stroke="#191816" stroke-linecap="round" stroke-linejoin="round"/>
<path d="M50.0879 93.8613L57.8411 96.2143" stroke="#191816" stroke-linecap="round" stroke-linejoin="round"/>
<path d="M49.0773 97.186L63.4805 101.553" stroke="#191816" stroke-linecap="round" stroke-linejoin="round"/>
<path d="M48.0745 100.511L54.7168 102.525" stroke="#191816" stroke-linecap="round" stroke-linejoin="round"/>
<path d="M62.7784 75.9478L68.3175 77.6218" stroke="#191816" stroke-linecap="round" stroke-linejoin="round"/>
<path d="M57.6405 88.9004L63.1796 90.5745" stroke="#191816" stroke-linecap="round" stroke-linejoin="round"/>
<path d="M56.9308 103.196L62.4699 104.878" stroke="#191816" stroke-linecap="round" stroke-linejoin="round"/>
<path d="M57.0503 68.469L34.9764 75.4247C34.3668 75.6168 34.0284 76.2666 34.2205 76.8762L43.9584 107.78C44.1504 108.389 44.8003 108.728 45.4099 108.536L67.4838 101.58C68.0933 101.388 68.4318 100.738 68.2397 100.128L58.5018 69.2249C58.3097 68.6154 57.6599 68.277 57.0503 68.469Z" fill="#FFF5E3" stroke="#191816" stroke-linecap="round" stroke-linejoin="round"/>
<path d="M38.2228 78.0385L42.6355 76.6499" stroke="#191816" stroke-linecap="round" stroke-linejoin="round"/>
<path d="M39.2643 81.348L49.2007 78.2158" stroke="#191816" stroke-linecap="round" stroke-linejoin="round"/>
<path d="M40.3135 84.6576L46.9326 82.5747" stroke="#191816" stroke-linecap="round" stroke-linejoin="round"/>
<path d="M41.355 87.9672L49.0773 85.5371" stroke="#191816" stroke-linecap="round" stroke-linejoin="round"/>
<path d="M42.3965 91.2841L45.7061 90.2349" stroke="#191816" stroke-linecap="round" stroke-linejoin="round"/>
<path d="M43.438 94.5941L55.5808 90.7676" stroke="#191816" stroke-linecap="round" stroke-linejoin="round"/>
<path d="M44.4871 97.9037L52.2094 95.4658" stroke="#191816" stroke-linecap="round" stroke-linejoin="round"/>
<path d="M45.5286 101.213L59.8778 96.6924" stroke="#191816" stroke-linecap="round" stroke-linejoin="round"/>
<path d="M46.5701 104.522L53.1892 102.439" stroke="#191816" stroke-linecap="round" stroke-linejoin="round"/>
<path d="M44.8419 75.9477L50.3656 74.2119" stroke="#191816" stroke-linecap="round" stroke-linejoin="round"/>
<path d="M47.9124 89.541L53.436 87.8052" stroke="#191816" stroke-linecap="round" stroke-linejoin="round"/>
<path d="M55.4033 101.745L60.9193 100.002" stroke="#191816" stroke-linecap="round" stroke-linejoin="round"/>
<path d="M65.6946 70.4316H42.5507C41.9116 70.4316 41.3936 70.9497 41.3936 71.5888V103.99C41.3936 104.629 41.9116 105.147 42.5507 105.147H65.6946C66.3337 105.147 66.8518 104.629 66.8518 103.99V71.5888C66.8518 70.9497 66.3337 70.4316 65.6946 70.4316Z" fill="#FFF5E3" stroke="#191816" stroke-linecap="round" stroke-linejoin="round"/>
<path d="M48.329 78.5321C50.2463 78.5321 51.8006 77.4959 51.8006 76.2177C51.8006 74.9395 50.2463 73.9033 48.329 73.9033C46.4117 73.9033 44.8574 74.9395 44.8574 76.2177C44.8574 77.4959 46.4117 78.5321 48.329 78.5321Z" stroke="#191816" stroke-linecap="round" stroke-linejoin="round"/>
<path d="M48.329 101.676C50.2463 101.676 51.8006 100.64 51.8006 99.3617C51.8006 98.0835 50.2463 97.0474 48.329 97.0474C46.4117 97.0474 44.8574 98.0835 44.8574 99.3617C44.8574 100.64 46.4117 101.676 48.329 101.676Z" stroke="#191816" stroke-linecap="round" stroke-linejoin="round"/>
<path d="M48.329 78.5322V80.8466" stroke="#191816" stroke-linecap="round" stroke-linejoin="round"/>
<path d="M50.6434 80.8467H46.0146V83.1611H50.6434V80.8467Z" stroke="#191816" stroke-linecap="round" stroke-linejoin="round"/>
<path d="M63.3726 80.8467H58.7438V83.1611H63.3726V80.8467Z" stroke="#191816" stroke-linecap="round" stroke-linejoin="round"/>
<path d="M48.329 83.1606V85.475" stroke="#191816" stroke-linecap="round" stroke-linejoin="round"/>
<path d="M48.3258 85.4751L46.0128 87.7881L48.3258 90.101L50.6387 87.7881L48.3258 85.4751Z" stroke="#191816" stroke-linecap="round" stroke-linejoin="round"/>
<path d="M61.0554 91.2657L58.7424 93.5786L61.0554 95.8916L63.3683 93.5786L61.0554 91.2657Z" stroke="#191816" stroke-linecap="round" stroke-linejoin="round"/>
<path d="M48.329 90.104V92.4184" stroke="#191816" stroke-linecap="round" stroke-linejoin="round"/>
<path d="M63.3725 88.9467H57.5865L58.7437 86.6323H64.5297L63.3725 88.9467Z" stroke="#191816" stroke-linecap="round" stroke-linejoin="round"/>
<path d="M61.0581 88.9468V91.2612" stroke="#191816" stroke-linecap="round" stroke-linejoin="round"/>
<path d="M61.0581 83.1606V86.6322" stroke="#191816" stroke-linecap="round" stroke-linejoin="round"/>
<path d="M58.7437 93.5757H51.8005" stroke="#191816" stroke-linecap="round" stroke-linejoin="round"/>
<path d="M51.8006 92.4185H44.8574V94.7328H51.8006V92.4185Z" stroke="#191816" stroke-linecap="round" stroke-linejoin="round"/>
<path d="M48.329 94.7329V97.0473" stroke="#191816" stroke-linecap="round" stroke-linejoin="round"/>
<path d="M58.7437 82.0034H55.2721V87.7894H50.6433" stroke="#191816" stroke-linecap="round" stroke-linejoin="round"/>
<path d="M12.1431 52.1134L2.59978 57.1706C1.84683 57.5696 1.55991 58.5035 1.95891 59.2564L12.4345 79.0247C12.8335 79.7777 13.7674 80.0646 14.5203 79.6656L24.0636 74.6084C24.8166 74.2094 25.1035 73.2756 24.7045 72.5226L14.2289 52.7543C13.8299 52.0013 12.8961 51.7144 12.1431 52.1134Z" fill="#F0F0F0"/>
<path d="M12.1431 52.1134L2.59978 57.1706C1.84683 57.5696 1.55991 58.5035 1.95891 59.2564L12.4345 79.0247C12.8335 79.7777 13.7674 80.0646 14.5203 79.6656L24.0636 74.6084C24.8166 74.2094 25.1035 73.2756 24.7045 72.5226L14.2289 52.7543C13.8299 52.0013 12.8961 51.7144 12.1431 52.1134Z" stroke="#191816" stroke-linecap="round" stroke-linejoin="round"/>
<path d="M15.676 55.4832L3.40601 61.9854L10.45 75.2778L22.72 68.7757L15.676 55.4832Z" fill="#00B8F0"/>
<path d="M13.6208 56.5684L3.39893 61.9918L8.8146 72.2136L13.6208 56.5684Z" fill="#4ACFFF"/>
<path d="M15.676 55.4832L3.40601 61.9854L10.45 75.2778L22.72 68.7757L15.676 55.4832Z" stroke="#191816" stroke-linecap="round" stroke-linejoin="round"/>
<path d="M7.42603 57.2319L9.4704 56.1519" stroke="#191816" stroke-linecap="round" stroke-linejoin="round"/>
<path d="M18.4425 74.3196C18.5111 74.454 18.5245 74.6099 18.4799 74.754C18.4352 74.8981 18.336 75.0191 18.2034 75.0911C18.136 75.1266 18.0623 75.1484 17.9865 75.1554C17.9107 75.1624 17.8343 75.1544 17.7615 75.1318C17.6888 75.1092 17.6213 75.0726 17.5627 75.0239C17.5042 74.9752 17.4558 74.9155 17.4204 74.8481C17.3849 74.7807 17.3631 74.707 17.3561 74.6312C17.3491 74.5554 17.3571 74.479 17.3797 74.4063C17.4023 74.3335 17.4389 74.266 17.4876 74.2074C17.5363 74.1489 17.596 74.1005 17.6634 74.0651C17.7312 74.0305 17.8052 74.0096 17.8812 74.0037C17.9571 73.9978 18.0334 74.0069 18.1058 74.0306C18.1782 74.0542 18.2452 74.0919 18.303 74.1415C18.3608 74.1911 18.4082 74.2517 18.4425 74.3196V74.3196Z" stroke="#191816" stroke-linecap="round" stroke-linejoin="round"/>
</g>
</svg>
